<svg class="promise__arrows promise__arrows--left" viewBox="0 0 136 125" fill="none"
                        xmlns="http://www.w3.org/2000/svg">
                        <path
                            d="M135.414 108.086C136.195 108.867 136.195 110.133 135.414 110.914L122.686 123.642C121.905 124.423 120.639 124.423 119.858 123.642C119.077 122.861 119.077 121.595 119.858 120.814L131.172 109.5L119.858 98.1863C119.077 97.4052 119.077 96.1389 119.858 95.3579C120.639 94.5768 121.905 94.5768 122.686 95.3579L135.414 108.086ZM4 0.5C4 15.0493 10.1023 29.007 19.9241 41.8391C29.7454 54.6705 43.2038 66.2644 57.6809 76.0294C72.1504 85.7894 87.5694 93.6765 101.247 99.1182C114.989 104.585 126.764 107.5 134 107.5V111.5C125.986 111.5 113.636 108.352 99.7685 102.835C85.8369 97.2922 70.1621 89.2731 55.4441 79.3456C40.7337 69.4231 26.9109 57.5483 16.7478 44.2703C6.58517 30.993 0 16.2007 0 0.5H4Z"
                            fill="#0c0d0c" />
                    </svg>