<svg viewBox="0 0 94 63" fill="none" xmlns="http://www.w3.org/2000/svg">
                            <path d="M45.3999 11.4H45.4999C45.1999 11.4 44.8999 11.5 44.5999 11.5L45.3999 11.4Z"
                                fill="#527A52" />
                            <path
                                d="M39.7998 12.1C40.2998 12.2 41.7998 11.8 42.7998 11.7H42.9998L43.3998 11.6C42.1998 11.7 40.6998 12 39.7998 12.1Z"
                                fill="#527A52" />
                            <path
                                d="M36.7999 12.1C36.9999 12.1 36.1999 12.3 37.4999 12C37.3999 12 37.3999 12 37.3999 12C37.1999 12.1 37.0999 12.1 36.7999 12.1Z"
                                fill="#527A52" />
                            <path
                                d="M34.6999 12.5L35.4999 12.3C35.2999 12.3 34.5999 12.4 34.8999 12.3C33.9999 12.5 34.1999 12.5 34.6999 12.5Z"
                                fill="#527A52" />
                            <path d="M34 12.8L34.4 12.7C34.3 12.7 34.2 12.7 34 12.8Z" fill="#527A52" />
                            <path
                                d="M35.1999 12.5L34.3999 12.7C34.4999 12.7 34.4999 12.8 34.7999 12.6C34.6999 12.7 34.7999 12.6 35.1999 12.5Z"
                                fill="#527A52" />
                            <path d="M35.7 12.4C36.1 12.4 36.7 12.3 35.9 12.5C37.4 12.3 37.1 12.2 35.7 12.4Z"
                                fill="#527A52" />
                            <path d="M39.6 12.3H40.2L40.7 12.2C40.4 12.2 39.5 12.2 39.6 12.3Z" fill="#527A52" />
                            <path
                                d="M29.7998 13.3C29.7998 13.4 30.0998 13.4 30.1998 13.4L30.6998 13.2C30.4998 13.3 29.8998 13.4 29.7998 13.3Z"
                                fill="#527A52" />
                            <path d="M30.1999 13.5L29.3999 13.8C30.1999 13.6 30.2999 13.5 30.1999 13.5Z"
                                fill="#527A52" />
                            <path
                                d="M33.9 13.1C34.3 12.9 34.7999 12.8 35.2999 12.7C34.7999 12.9 34.2 13 33.7 13.2L33.9 13.1Z"
                                fill="#527A52" />
                            <path d="M26.5998 14.1L27.0998 13.8L26.2998 14.2L26.5998 14.1Z" fill="#527A52" />
                            <path
                                d="M24.4999 14.7C24.7999 14.5 23.8999 14.6 24.2999 14.4C23.6999 14.6 23.2999 14.8 22.8999 15.1C23.2999 14.9 23.7999 14.7 24.4999 14.7Z"
                                fill="#527A52" />
                            <path d="M22.2 15.4C22.4 15.3 22.6 15.2 22.9 15C22.6 15.2 22.4 15.3 22.2 15.4Z"
                                fill="#527A52" />
                            <path
                                d="M27.9998 14.1C27.8998 14.1 27.7998 14 27.2998 14.1L27.6998 14.2C27.6998 14.1 27.7998 14.1 27.9998 14.1Z"
                                fill="#527A52" />
                            <path
                                d="M27.5999 14.1C27.1999 14.2 26.9999 14.2 26.8999 14.3C26.9999 14.3 27.1999 14.2 27.5999 14.1Z"
                                fill="#527A52" />
                            <path
                                d="M31.6999 13.4C31.1999 13.6 30.1999 13.9 31.1999 13.8C31.4999 13.6 30.8999 13.7 31.6999 13.4Z"
                                fill="#527A52" />
                            <path d="M28.5 14.1L29.4 13.9C29.4 13.9 29.2 13.8 29.4 13.7L28.5 14.1Z" fill="#527A52" />
                            <path d="M28.0999 14.3L28.4999 14.1L28.1999 14.2L28.0999 14.3Z" fill="#527A52" />
                            <path
                                d="M23.7 15.1C23.3 15.3 22.9 15.4 22.5 15.6C23 15.5 23.5 15.3 24 15.2C24.1 15.2 24.3 15 23.7 15.1Z"
                                fill="#527A52" />
                            <path d="M17.8999 17.2999H17.9999V17.2L17.8999 17.2999Z" fill="#527A52" />
                            <path
                                d="M24.0999 15.2C24.4999 15.1 24.6999 15 24.8999 14.9C24.6999 15 24.3999 15.1 24.0999 15.2C23.9999 15.3 23.9999 15.3 24.0999 15.2Z"
                                fill="#527A52" />
                            <path
                                d="M20.8999 15.9999C21.0999 15.9999 21.2999 15.8999 21.5999 15.8999C21.3999 15.7999 20.9999 15.8999 20.8999 15.9999Z"
                                fill="#527A52" />
                            <path
                                d="M25.3999 14.7C25.1999 14.8 25.0999 14.9 24.8999 15C25.0999 14.9 25.2999 14.8 25.4999 14.8C25.4999 14.7 25.4999 14.7 25.3999 14.7Z"
                                fill="#527A52" />
                            <path
                                d="M17.1998 19.2C17.1998 19 17.9998 18.4 18.8998 18.2C19.5998 17.7 18.8998 17.3 17.9998 17.2C17.9998 17.3 17.9998 17.3999 17.2998 17.7999C17.5998 17.7999 19.2998 17.3 18.5998 17.7C17.4998 18.3 17.6998 18 17.0998 18.1C17.6998 18.1 15.8998 19.0999 16.2998 19.2999C16.5998 19.0999 16.8998 18.9 17.1998 18.7C17.1998 19 16.8998 19.3 17.1998 19.2Z"
                                fill="#527A52" />
                            <path
                                d="M19.7 16.7L20 16.5C19.6 16.6 19.3 16.7 18.7 16.7C18.2 17 18.1 17.1 18 17.2L19.7 16.6V16.7Z"
                                fill="#527A52" />
                            <path
                                d="M21.6 16C21.4 16.3 20.6 16.7 21.2 16.7C22.2 16.3 21.9 16.3 22.5 16C20.8 16.6 22.9 15.7 21.6 16C21.9 15.9 22.2 15.8 22.5 15.7C22.2 15.8 21.9 15.8 21.6 15.9C21.7 15.9 21.7 15.9 21.6 15.9C21.7 15.9 21.6 15.9 21.6 16C21.1 16.1 21.5 16 21.6 15.9L20 16.5C20.4 16.4 20.8 16.3 21.6 16Z"
                                fill="#527A52" />
                            <path
                                d="M29.6998 14.5C29.7998 14.4 29.8998 14.4 30.2998 14.3C30.6998 14.3 30.2998 14.4 30.2998 14.4C30.4998 14.3 31.0998 14.1 30.2998 14.2L30.1998 14.3C29.4998 14.4 28.5998 14.5 28.6998 14.4C28.9998 14.4 29.1998 14.4 29.6998 14.5Z"
                                fill="#527A52" />
                            <path d="M25.6 15.2L24.2 15.7L25 15.6L24.9 15.5C25.6999 15.4 25.5 15.3 25.6 15.2Z"
                                fill="#527A52" />
                            <path d="M17.7 17.2L17.7999 16.9L17.2 17.6L17.7 17.2Z" fill="#527A52" />
                            <path d="M16 18L15.9 17.8L15.5 18.1L16 18Z" fill="#527A52" />
                            <path d="M74.0999 51.7L74.3999 51.4C74.2999 51.5 74.1999 51.6 74.0999 51.7Z"
                                fill="#527A52" />
                            <path d="M71.3999 52.8V53C71.3999 52.9 71.4999 52.8 71.3999 52.8Z" fill="#527A52" />
                            <path
                                d="M15.3999 54.9C15.7999 55.5 16.2999 56.3 16.3999 55.9V55.5C15.8999 55.4 15.5999 55.2 15.3999 54.9Z"
                                fill="#527A52" />
                            <path
                                d="M47.2999 59.4001C47.1999 59.4001 47.1999 59.3 47.0999 59.3C46.8999 59.5 46.8 59.6001 46.7 59.7001C46.9 59.7001 47.0999 59.6001 47.2999 59.4001Z"
                                fill="#527A52" />
                            <path d="M47.7998 57.7L48.5998 58C48.3998 57.8 48.0998 57.7 47.7998 57.7Z" fill="#527A52" />
                            <path
                                d="M86.0999 42C86.0999 41.8 85.9999 41.6 85.9999 41.4C85.5999 41.9 85.8999 41.8 86.0999 42Z"
                                fill="#527A52" />
                            <path
                                d="M0.799805 31.4C0.499805 32 0.399805 32.5 0.299805 33C0.599805 32.2 0.999805 31.7 0.799805 31.4Z"
                                fill="#527A52" />
                            <path d="M74.8 56.3C75 56.1 75.1 56 75 55.9C74.9 56.1 74.7 56.2 74.8 56.3Z"
                                fill="#527A52" />
                            <path
                                d="M0.0999014 34.8C0.0999014 34.7 0.0999014 34.6 0.199901 34.5C0.199901 34 0.199901 33.5 0.299901 33C-9.85563e-05 33.5 -0.100099 34.2 0.0999014 34.8Z"
                                fill="#527A52" />
                            <path
                                d="M50.9998 5.19998C50.9998 5.19998 50.8998 5.19998 50.8998 5.09998C50.7998 5.19998 50.8998 5.19998 50.9998 5.19998Z"
                                fill="#527A52" />
                            <path
                                d="M33.7998 0.0999756C33.9998 0.0999756 34.2998 0.0999756 34.4998 0.199976C34.3998 0.199976 34.1998 0.199976 33.7998 0.0999756Z"
                                fill="#527A52" />
                            <path d="M8.8999 21.6C9.2999 21.4 8.9999 21.5 8.8999 21.6V21.6Z" fill="#527A52" />
                            <path
                                d="M11.1999 21.4C11.0999 21.5 11.0999 21.5 11.0999 21.6C11.1999 21.6 11.1999 21.5 11.1999 21.4Z"
                                fill="#527A52" />
                            <path d="M9.5 21.4C9.3 21.5 9.2 21.5 9 21.6C9.1 21.6 9.3 21.5 9.5 21.4Z" fill="#527A52" />
                            <path
                                d="M9.3999 21.3C9.4999 21.2 9.5999 21.2 9.6999 21.1C9.6999 21.1 9.6999 21.1 9.3999 21.3Z"
                                fill="#527A52" />
                            <path
                                d="M8.5 21.9C8.7 21.8 8.9 21.6 9.1 21.5C9 21.5 9 21.5 9 21.5C8.8 21.7 8.7 21.8 8.5 21.9Z"
                                fill="#527A52" />
                            <path d="M79.6999 20.1999C79.2999 19.9999 79.4999 20.0999 79.6999 20.1999V20.1999Z"
                                fill="#527A52" />
                            <path d="M28.1 55C27.4 55.4 27.1 55.2 26.7 55L26.7999 56.3C27.2999 55.8 27.7 55.4 28.1 55Z"
                                fill="#527A52" />
                            <path
                                d="M80.0999 48.1C79.7999 48.2 79.3999 48.3 79.0999 48.3C79.6999 47.2 80.3999 46.9 79.3999 46.9C79.6999 47.5 78.9999 48 78.1999 48.5C77.3998 49 76.6999 49.5 76.8999 50.1L76.1999 50.2C76.3998 50.1 76.3999 50 76.4999 50C75.0999 50 76.1999 51.3 74.5999 51.8C73.9999 52 73.5999 51.9 73.8999 51.6L72.8999 52.4C72.5999 52.5 72.4999 52.3 72.8999 52.2C72.2999 52.5 71.7999 52.8 71.1999 53C70.9999 53.3 70.5999 53.8 70.2999 54.1C69.7999 54.1 70.4999 53.9 70.2999 53.8L69.3999 54.5C68.8999 54.3 69.5999 53.7 70.2999 53.5C68.8999 52.6 69.5999 54.1 67.2999 54L68.1999 53.5C67.3998 53 66.6999 53.5 65.4999 53.3C65.7999 53.5 67.9999 53.8 66.9999 54.5C66.6999 54.5 66.1999 54.6 65.6999 55C65.5999 54.5 64.9999 54.8 64.2999 55L64.1999 54.4C63.4999 54.8 63.5999 55.1 63.1999 55.5C62.2999 55.6 61.9999 55.2 61.6999 54.8C60.2999 55 62.8999 55.4 61.1999 55.8C59.9999 55.8 59.1999 56.2 57.7999 56.8C56.8999 56.7 57.8999 56.4 57.5999 56.3C57.3999 56.5 57.0999 56.7 56.8999 56.9C56.6999 56.9 56.7999 56.7 56.7999 56.7C56.1999 57 56.7999 57.3 55.7999 57.6C55.5999 58.3 53.5999 56.8 52.3999 57.7C52.0999 57.5 52.4999 57.3 52.3999 57.1C50.6999 57.7 50.9999 57.6 49.5999 58.4C49.1999 58.3 48.7999 58.2 48.3999 58C49.2999 58.5 48.1999 59.1 47.1999 59.5C47.4999 59.7 47.7999 59.9 47.9999 60L46.3999 60.4C46.1999 60.3 46.3999 60.1 46.5999 59.8C46.4999 59.9 46.3999 59.9 46.2999 60C45.6999 59.8 45.9999 59.4 46.3999 59L46.9999 59.4C47.3999 59 47.7999 58.6 47.6999 58.2C47.5999 58.3 47.3999 58.3 47.1999 58.4C47.2999 58.3 47.3999 58.2 47.2999 58.1C47.1999 58 47.0999 58.2 46.7999 58.3L46.3999 57.6L46.2999 57.9L44.1999 57.4C42.6999 58.1 41.2999 59.1 38.8999 59.1C39.4999 58.6 39.0999 58.3 39.1999 57.7C39.7999 58.4 40.9999 57.6 42.1999 57.8C41.5999 57.7 41.6999 57.4 41.8999 57.3L39.9999 57.7C40.0999 57.2 39.5999 57.3 38.9999 57C39.2999 58 37.2999 57.5 36.3999 57.7C36.3999 57.4 36.5999 57.1 37.6999 57.3C36.5999 56.4 35.9999 58.3 34.8999 57.5C35.1999 57.5 35.2999 57.6 35.3999 57.5C34.6999 57.7 33.2999 57.2 33.6999 57H33.9999C32.2999 56.6 28.7999 56 28.2999 56.7C28.2999 56.6 28.7999 55.8 28.8999 55.7C27.6999 56.4 26.3999 56.9 25.0999 57.5C25.5999 56.9 24.9999 55 26.4999 55.1C26.0999 54.9 25.6999 54.6 24.7999 54.6C24.9999 54.8 25.1999 55.8 24.7999 55.7C23.9999 54.6 24.1999 55.1 23.1999 54C23.4999 54.3 22.6999 55.1 22.0999 54.9C22.2999 54.8 22.3999 53.9 22.6999 53.9C22.0999 54.1 21.3999 54.2 20.7999 54.3C21.2999 54.3 21.1999 53.5 20.9999 53.1C21.0999 53.4 19.6999 52.5 19.2999 52.5L19.7999 53C18.9999 52.6 18.3999 52.7 17.7999 52.8C17.1999 52.9 16.5999 53.1 15.7999 52.6C16.0999 52.5 16.8999 51.7 16.0999 51.2C15.4999 51.5 13.1999 52.4 11.4999 51.8L11.3999 51.4L10.0999 50.9C11.2999 50.8 13.9999 50.8 15.3999 50.7C14.8999 50.1 15.3999 50.3 14.4999 49.8C14.2999 49.4 15.1999 49.7 15.4999 49.9C14.7999 49.5 14.1999 49 13.5999 48.5C13.2999 49.1 11.7999 48 11.5999 48.4C12.3999 48.8 13.1999 49.1 14.0999 49.4C13.8999 50 11.8999 50 10.4999 48.8C10.2999 48.3 11.3999 48.2 11.4999 48C11.1999 48 9.99985 47.3 9.99985 47.1L10.6999 47.3C10.0999 46.6 8.99985 46.9 8.59985 45.7C8.39985 45 8.39985 44 8.09985 44.2C7.99985 45 6.59985 46.5 5.99985 46.5C5.89985 46.4 4.99985 44.4 5.09985 43.8C5.09985 43 6.69985 43.9 6.69985 43.2C6.49985 43.3 6.09985 43.1 5.99985 43C5.89985 42.6 6.49985 42.9 5.89985 42.2C5.29985 42.4 4.99985 40.7 5.29985 42.1C4.69985 41.4 4.89985 41.2 4.49985 40.3C4.39985 40.5 3.99985 40.4 3.59985 40.2C3.19985 39.9 2.69985 39.5 2.49985 39.1C2.59985 39.1 2.79985 38.9 2.79985 38.7C2.29985 36.9 2.49985 35.8 2.49985 34.1C2.59985 34 2.79985 33.2 2.99985 33.6C2.89985 33.4 2.79985 33.1 2.89985 32.6C3.49985 31.7 2.79985 33.7 3.39985 33.1C3.29985 33 3.19985 32.7 3.19985 32.3C3.29985 31.9 3.29985 31.4 3.39985 31C2.89985 31 2.79985 32.6 2.89985 33.3C2.59985 33.3 2.29985 32.9 2.19985 32.3C1.99985 31.7 1.99985 30.8 2.39985 29.8C2.99985 28.4 2.99985 29.4 3.09985 29.2C3.49985 28.6 3.69985 28.2 3.89985 27.8C4.09985 27.4 4.09985 27.1 4.29985 26.8C4.49985 26.2 4.69985 25.7 5.69985 25C6.59985 24.6 6.19985 25.5 6.59985 25.5C5.79985 26.4 5.09985 26.7 4.59985 27.3L5.39985 26.7C5.19985 27.1 4.79985 27.7 4.49985 28C4.69985 27.9 4.89985 27.6 5.29985 27.3C5.49985 27.1 5.69985 26.9 5.89985 26.7C5.99985 26.5 6.19985 26.3 6.39985 26C6.89985 25.5 7.39985 25.1 7.89985 24.7C8.39985 24.3 8.99985 23.9 9.39985 23.7C9.59985 23.4 10.0999 22.9 9.79985 23L9.29985 23.4C8.59985 23.5 10.0999 22.4 9.29985 22.7C9.89985 22 10.6999 21.2 11.8999 20.7L12.2999 20.9C12.1999 20.8 11.3999 21.1 11.1999 21.4C11.5999 21 13.0999 20.8 13.3999 20.2C13.0999 20.3 12.7999 20.3 12.4999 20.4C13.1999 19.8 14.0999 18.9 15.1999 18.6C14.5999 18.5 14.9999 18.7 14.0999 18.7C14.9999 18.8 11.3999 20 12.6999 20C11.6999 20 11.2999 20.5 10.0999 20.7C10.1999 20.8 10.5999 20.7 9.69985 21.2C9.69985 21.3 9.59985 21.3 9.59985 21.4C9.59985 21.4 9.59985 21.4 9.49985 21.4H9.59985C9.79985 21.3 9.99985 21.3 10.0999 21.3C9.79985 21.8 8.59985 22.6 8.19985 23.1C7.69985 23.4 8.29985 22.8 7.99985 22.9L7.49985 23.6C7.29985 23.3 5.99985 24.1 6.99985 23.1C6.69985 23.3 6.29985 23.6 5.99985 23.9C5.29985 24.2 4.49985 24.9 4.09985 25.5C3.59985 25.9 3.29985 26.9 3.49985 26.3C3.09985 26.9 2.69985 27.5 2.39985 28.1H2.29985C1.69985 29 1.29985 30 0.999853 31.1C0.699853 32.2 0.499854 33.3 0.0998535 34.6C0.199854 35.3 0.299854 36 0.399854 37.2L0.0998535 37.5C0.199854 37.9 0.299854 38.6 0.399854 39.2C0.499854 39.8 0.699853 40.4 0.899853 40.5C0.699853 41.1 0.999853 42.2 1.59985 43.2C1.89985 43.7 2.19985 44.2 2.49985 44.7C2.79985 45.1 3.09985 45.6 3.29985 45.9L3.69985 45.7C3.99985 46.1 4.29985 46.5 4.69985 46.9C5.09985 47.3 5.49985 47.7 5.99985 48.1L6.19985 47.8C7.19985 48.3 7.99985 50 9.39985 51C9.19985 51 8.89985 50.7 8.69985 50.5C9.19985 51.5 10.1999 52 11.1999 52.5C12.1999 52.9 13.1999 53.3 13.7999 54C14.2999 54.1 14.4999 54.3 14.7999 54.5H14.6999C14.6999 54.5 14.7999 54.6 14.8999 54.6C14.9999 54.8 15.1999 54.9 15.3999 55.1C15.2999 54.9 15.1999 54.8 14.9999 54.6C15.2999 54.8 15.7999 55 16.2999 55.1V55.6H16.3999C16.7999 56 16.8999 55.6 16.7999 55.2C17.0999 55.3 17.2999 55.3 17.4999 55.3C17.5999 56.1 18.7999 55.6 18.9999 56.6C19.4999 56.4 21.4999 57.3 22.0999 56.7C22.0999 56.8 22.1999 56.9 21.8999 56.8C22.3999 57.1 22.8999 57.4 23.4999 57.3V57.9L24.8999 57.5C25.4999 58.1 25.7999 58.3 24.8999 58.6C26.8999 58.5 26.3999 58.8 28.0999 58.5L27.8999 58.9C28.3999 59 29.3999 58.7 29.6999 59.1C30.1999 59.6 31.6999 60 33.4999 60.3C35.1999 60.6 37.1999 60.9 38.7999 61.4C38.2999 60.2 40.1999 62.1 40.3999 61.2C40.5999 61.5 40.9999 61.7 40.4999 61.9C42.0999 61.8 42.8999 62.5 44.0999 61.8C44.2999 62.1 43.6999 62.2 43.8999 62.4C43.9999 62.3 44.3999 62.2 44.5999 62.3C44.7999 62.5 44.3999 62.5 44.0999 62.6C45.7999 62.6 45.9999 61.7 46.0999 60.9C46.8999 61.3 47.3999 61.2 47.8999 60.7C48.1999 61 48.6999 61.2 47.6999 61.3C48.2999 61.4 51.2999 61.6 51.2999 60.9C51.4999 61 52.0999 60.9 52.2999 60.8C53.5999 60.8 53.6999 60.8 54.9999 60.6L54.5999 60.5C54.9999 59.7 55.5999 60.2 56.5999 60V60.1C58.9999 60.3 57.5999 59.7 59.8999 60L59.6999 59.5C59.6999 58.4 61.7999 59.7 63.0999 59.1L62.5999 58.9C63.1999 58.4 64.8998 59.8 65.6999 59.7C65.8998 59.7 65.4999 59.9 65.2999 60C67.3999 60.1 65.3999 59.3 66.7999 58.8C67.0999 59 66.6999 59.7 67.6999 59.5C68.2999 59.6 70.0999 57.6 71.5999 57.8C71.1999 57.7 70.8999 57.5 71.3999 57.1C72.2999 56.7 74.3999 57 74.8999 55.8C74.9999 55.8 75.0999 55.9 75.1999 55.9C75.8998 55.4 77.3999 54.5 77.5999 53.9C78.2999 54.4 79.2999 53.7 80.1999 52.9C81.0999 52.1 81.7999 51.4 82.1999 52C82.8998 51.5 83.4999 51 84.0999 50.4V50.6C85.3999 49.7 85.5999 49 85.7999 48.4C86.0999 48.2 85.9999 48.5 86.0999 48.6C87.9999 47.2 88.0999 46.9 88.6999 44.9L89.1999 45C89.1999 44.7 89.8999 44.1 90.5999 43.2C90.8999 42.8 91.2999 42.2 91.4999 41.7C91.6999 41.1 91.9999 40.5 91.9999 39.9C91.9999 39.9 92.0999 40 92.0999 40.2C92.2999 38.8 92.8998 37.3 93.1999 35.9C93.2999 35.5 93.2999 35.2 93.2999 34.9C93.2999 34.6 93.2999 34.2 93.1999 33.9C93.0999 33.6 92.9999 33.3 92.8999 33.1C92.6999 32.9 92.5999 32.8 92.2999 32.7C91.9999 32.1 91.7999 31.6 91.3999 31.1C91.7999 32.2 91.4999 32.2 91.2999 32C90.9999 31.8 90.6999 31.5 90.6999 32C90.4999 31.6 90.3999 31.1 90.3999 30.7C90.3999 30.4 90.4999 30.2 90.7999 30.7V30.9C91.7999 30.9 89.8999 28.3 90.2999 28.2C89.0999 26.4 87.7999 24.7 86.3999 23.2C84.9999 21.4 83.5999 20 81.9999 18.7V19.4L80.9999 18.6C80.7999 18.3 80.8999 18 81.5999 18.6C81.3999 18 80.0999 17.8 79.9999 17.9C78.5999 16.6 80.9999 17.8 80.4999 17.5L79.8999 17L79.9999 17.2C79.2999 17 79.1999 17.1 78.1999 16.5C77.5999 16 78.0999 16 77.7999 15.8C77.7999 15.8 77.7999 15.7 77.3999 15.5C76.8999 15.2 76.4999 14.8 75.9999 14.5L76.3999 15.2C75.5999 15 75.0999 14.3 75.4999 15.1C74.8999 13.8 70.1999 11.7 69.5999 11.2C68.4999 11 67.5999 10.4 66.4999 9.89997C66.7999 10.1 66.7999 10.5 65.7999 9.99998C66.4999 9.49998 64.0999 8.79998 63.4999 7.99998C64.0999 8.59998 60.5999 6.79998 61.4999 7.79998C60.6999 7.29998 61.5999 7.49998 60.9999 6.99998C58.8999 6.39998 56.4999 5.09998 53.8999 4.29998C53.7999 4.39998 54.1999 4.59998 53.5999 4.49998L52.2999 3.69998C51.7999 3.59998 51.6999 3.89998 50.7999 3.39998C50.8999 3.49998 51.0999 3.59998 50.6999 3.59998C48.1999 2.59998 45.4999 2.09998 42.7999 1.49998C40.0999 0.899976 37.3999 0.499976 34.6999 0.199976C35.3999 0.299976 34.8999 0.299976 34.3999 0.199976C34.7999 0.199976 34.3999 0.299976 34.4999 0.299976C33.7999 0.199976 32.9999 0.0999756 32.1999 0.0999756C31.9999 0.0999756 31.3999 0.0999756 30.7999 0.0999756C30.2999 0.0999756 29.7999 0.0999756 29.4999 0.0999756H30.1999C29.6999 0.0999756 30.0999 0.0999756 30.4999 0.199976C30.8999 0.199976 31.4999 0.299976 31.3999 0.299976C31.8999 0.299976 32.5999 0.399976 33.3999 0.499976C34.1999 0.599976 34.9999 0.799976 35.8999 0.899976C36.2999 0.999976 35.5999 0.899976 35.7999 0.999976C36.1999 0.999976 36.7999 1.09998 37.6999 1.29998H37.5999C40.2999 1.79998 41.4999 2.19998 44.3999 3.09998L44.1999 2.89998C44.7999 3.09998 44.9999 3.19998 45.2999 3.29998C46.0999 3.29998 43.4999 2.79998 44.1999 2.69998C44.9999 3.19998 48.6999 3.99998 49.1999 4.69998C50.1999 4.99998 48.9999 4.39998 49.8999 4.69998L50.0999 4.89998L50.3999 4.79998C50.9999 4.99998 51.2999 5.29998 51.2999 5.39998C51.1999 5.29998 50.8999 5.29998 50.6999 5.19998C51.4999 5.59998 52.9999 5.99998 53.2999 6.19998L52.3999 5.79998C55.0999 6.69998 58.0999 8.19998 60.6999 9.09998L60.5999 8.89997C62.5999 9.59997 61.9999 9.69998 64.0999 10.7H63.9999C64.4999 10.8 64.9999 11 65.5999 11.3C64.9999 11.2 66.3998 12.1 65.6999 11.9C67.7999 12.7 66.7999 12.3 68.2999 12.5L68.4999 12.9C68.9999 13 69.0999 12.9 70.0999 13.4C69.1999 13.1 70.4999 14.1 69.4999 13.8C70.3999 14.6 71.1999 15 71.8999 15.3C72.5999 15.6 73.0999 15.8 73.2999 16.5C74.5999 16.5 71.7999 15.1 72.3999 15.3C72.0999 14.8 73.3999 15.3 73.9999 15.8C74.5999 16.2 74.5999 17.2 76.0999 18.3C75.8999 18.2 75.8999 18.2 75.7999 18.1C76.2999 18.7 77.0999 18.7 77.5999 19.5C78.2999 19.4 78.4999 20.2 78.8999 19.8L77.3999 18.9C78.2999 19.4 79.3999 19.4 80.4999 20.7C80.2999 20.7 79.7999 20.5 79.4999 20.4C79.7999 20.8 80.2999 20.9 80.5999 21.3C80.0999 21.7 78.8999 20.1 77.7999 19.8C78.0999 20.3 79.5999 20.7 78.7999 20.9C79.8999 20.7 80.1999 22.1 81.4999 22.5L81.1999 22.7C81.3998 22.8 81.7999 22.9 82.0999 23.2L81.4999 23C82.4999 23.4 82.6999 24.6 83.4999 25.1C82.0999 23.7 83.4999 24.5 83.0999 23.7C84.1999 24.4 84.2999 24.9 84.2999 25.3C84.3999 25.8 84.3999 26.3 85.2999 27.3C84.9999 27.1 84.5999 26.1 85.0999 26.4C85.3999 26.9 85.6999 27.5 85.6999 27.9C86.7999 29.3 85.8999 27.4 86.4999 27.9C86.4999 28.7 87.1999 28.5 87.6999 29.1L87.3999 29.3C87.7999 30.2 87.9999 30.2 88.2999 30.2C88.4999 30.2 88.6999 30.2 88.9999 31.1L88.1999 30.7C88.3998 31 88.5999 31.2 88.6999 31.5H88.1999C88.4999 31.9 88.6999 32.1 88.7999 32.4C88.8999 32.7 88.8999 33 88.8999 33.4C89.0999 33.1 89.6999 33.4 89.7999 34.2C89.6999 34.5 89.5999 34.4 89.4999 34.4C89.3999 34.4 89.4999 34.4 89.3999 35.1C89.2999 35 89.0999 34.8 89.0999 34.6C88.9999 34.4 88.9999 34.3 89.1999 34C89.0999 34 88.8999 33.8 88.7999 33.8C88.6999 34.1 88.6999 34.4 88.6999 34.7C88.6999 35.1 88.6999 35.4 88.6999 35.6C88.6999 35.4 88.7999 35.2 88.7999 35.2C88.9999 35.8 89.0999 36.4 89.1999 37C88.9999 37.2 88.8999 37 88.7999 36.8C88.7999 37.1 88.8999 37.4 88.7999 37.9C88.4999 37.7 88.0999 37.6 88.0999 36.9V37.7L87.9999 38.5C87.7999 38.6 87.2999 39.1 87.2999 38.9C86.7999 39.6 86.9999 41.2 85.9999 42.1C85.9999 42.2 85.9999 42.3 85.8999 42.6C85.0999 43.5 84.0999 44 83.4999 45.3C83.0999 45.3 82.7999 45.4 82.4999 45.4C81.7999 46.2 83.8999 45.3 82.5999 46.7C81.6999 47.7 81.7999 46.6 81.3999 46.7C81.0999 47.4 80.5999 48.6 79.1999 48.9C79.4999 48.5 79.7999 48.4 80.0999 48.1ZM67.1999 54.5C67.3998 54.3 67.8998 53.9 68.1999 54.1C68.0999 54.6 67.6999 54.5 67.1999 54.5ZM45.0999 58.5C45.2999 58.3 45.5999 58.4 45.9999 58.6C45.7999 58.7 45.4999 58.6 45.0999 58.5ZM5.39985 24.7C4.79985 25.1 4.99985 25 5.39985 24.7V24.7ZM6.59985 23.8C6.69985 23.7 6.59985 23.6 6.59985 23.7C6.59985 23.8 6.29985 24 5.99985 24.3C6.09985 24.2 6.29985 24.2 6.59985 23.8ZM77.6999 15.8L77.8999 16C77.2999 15.8 77.4999 15.8 77.6999 15.8Z"
                                fill="#527A52" />
                            <path d="M47.7 57.9C47.8 58 47.7999 58.1 47.7999 58.2C47.8999 58 47.9 57.9 47.7 57.9Z"
                                fill="#527A52" />
                            <path d="M6.5 42.7C6.6 42.9 6.6 43.1 6.6 43.2C6.7 43.1 6.7 43 6.5 42.7Z" fill="#527A52" />
                            <path
                                d="M12.5998 19.3L11.7998 19.8C12.1998 19.6 12.2998 19.6 12.5998 19.5C12.5998 19.5 12.3998 19.5 12.5998 19.3Z"
                                fill="#527A52" />
                            <path
                                d="M20.2999 17.7C20.3999 17.6 20.5999 17.6 20.6999 17.5L20.5999 17.4C20.0999 17.6 19.7999 17.9 20.2999 17.7Z"
                                fill="#527A52" />
                            <path
                                d="M13.7998 19.8001C13.9998 20.0001 14.3998 19.6001 14.9998 19.3001H14.8998C14.8998 19.0001 14.2998 19.4001 13.7998 19.8001Z"
                                fill="#527A52" />
                            <path
                                d="M15.0999 19.3001C15.2999 19.2001 15.3999 19.1001 15.5999 19.1001C15.5999 18.9001 15.3999 19.1001 15.0999 19.3001Z"
                                fill="#527A52" />
                            <path
                                d="M7.89982 22.6C8.19982 22.5 7.89982 22.2 8.09982 22.2C8.09982 21.7 6.69982 23.7 7.89982 22.6Z"
                                fill="#527A52" />
                            <path d="M14.5999 20.2L14.2999 20.1L14.0999 20.5L14.5999 20.2Z" fill="#527A52" />
                            <path
                                d="M10.2998 22.5L11.1998 22.1C11.1998 22.1 11.1998 22 11.3998 21.9C10.8998 22.1 10.2998 22.4 10.2998 22.5Z"
                                fill="#527A52" />
                            <path
                                d="M11.3999 21.8C11.6999 21.6 11.8999 21.5 12.0999 21.3C11.8999 21.4 11.5999 21.6 11.3999 21.8Z"
                                fill="#527A52" />
                            <path d="M13.4999 20.9L13.1999 21L12.5999 21.4L13.4999 20.9Z" fill="#527A52" />
                            <path
                                d="M2.9 30C2.8 30.3 2.7 30.7 2.5 31C2.6 31.1 2.8 30.9 2.9 30.5C3 30.3 3.1 29.9 2.9 30Z"
                                fill="#527A52" />
                            <path d="M5.5 27.8C5.3 28 5.2 28 5 28L5.3 28.3C5.4 28.1 5.4 28 5.5 27.8Z" fill="#527A52" />
                            <path
                                d="M3.99979 30.4C4.09979 30.6 3.79979 31.8 4.19979 30.7C4.09979 30.5 4.49979 29.6 3.99979 30.4Z"
                                fill="#527A52" />
                            <path d="M6.3 44.8L6.1 44.6L5.5 45.1L6.3 44.8Z" fill="#527A52" />
                            <path
                                d="M18.4 51.1C17.4 50.4 17.9 51.5 17 50.8C16.6 50.9 17.7 51.4001 17.3 51.4001C18.1 51.6001 18.4 51.8 18.4 51.1Z"
                                fill="#527A52" />
                            <path d="M64.7998 53.8V54C64.9998 54.1 65.0998 54.1 65.4998 54L64.7998 53.8Z"
                                fill="#527A52" />
                            <path d="M74.7 50.7L74.5 50.7999L75.1 51.0999L74.7 50.7Z" fill="#527A52" />
                            <path
                                d="M81.3999 45.6C81.0999 45.8 80.8999 46.1 80.5999 46.3C81.1999 45.8 81.9999 46.1 81.3999 45.6Z"
                                fill="#527A52" />
                        </svg>