<svg viewBox="0 0 67 15" fill="none"
                            xmlns="http://www.w3.org/2000/svg">
                            <path
                                d="M56.0365 12.9915C56.291 12.9915 56.1638 12.737 56.2274 12.6733C55.8456 12.737 56.0365 13.0552 56.0365 12.9915Z"
                                fill="#527A52" />
                            <path d="M52.0909 13.5641L52.1545 13.5005L51.5818 13.755L52.0909 13.5641Z" fill="#527A52" />
                            <path
                                d="M48.3362 13.5638C48.6544 14.0093 49.6725 13.5002 50.3725 13.6911L50.4998 13.8183L50.818 13.4365C49.9907 13.4365 48.9089 13.6911 48.3362 13.5638Z"
                                fill="#527A52" />
                            <path
                                d="M46.4273 12.5459C46.5546 12.7368 45.9819 12.6732 46.8728 12.6095C46.8091 12.6095 46.8091 12.6095 46.8091 12.5459C46.6819 12.5459 46.5546 12.5459 46.4273 12.5459Z"
                                fill="#527A52" />
                            <path d="M46.7452 12.5458C46.4907 12.4186 47.1907 12.5458 46.7452 12.5458V12.5458Z"
                                fill="#527A52" />
                            <path
                                d="M44.9636 12.6097L45.4727 12.4824C45.3454 12.3551 44.9 12.3551 45.0909 12.2915C44.5818 12.3551 44.6454 12.4188 44.9636 12.6097Z"
                                fill="#527A52" />
                            <path d="M44.4546 12.9277L44.7091 12.8641C44.7091 12.8641 44.6455 12.8004 44.4546 12.9277Z"
                                fill="#527A52" />
                            <path
                                d="M45.2817 12.7368L44.709 12.8641C44.7726 12.9277 44.7726 13.055 44.9635 12.8005C44.9635 12.9914 45.0908 12.8641 45.2817 12.7368Z"
                                fill="#527A52" />
                            <path
                                d="M45.5999 12.8008C45.918 12.9281 46.2362 12.9917 45.7271 13.119C46.7453 13.119 46.618 12.8008 45.5999 12.8008Z"
                                fill="#527A52" />
                            <path
                                d="M48.1453 14.0097L48.5271 14.1369L48.8453 14.0097C48.718 14.0733 48.1453 13.8824 48.1453 14.0097Z"
                                fill="#527A52" />
                            <path
                                d="M41.7819 12.2915C41.7183 12.4188 41.9728 12.546 41.9728 12.6733L42.3547 12.546C42.1638 12.546 41.7819 12.4824 41.7819 12.2915Z"
                                fill="#527A52" />
                            <path d="M41.9726 12.6733L41.3999 12.8006C41.909 12.8642 42.0363 12.8006 41.9726 12.6733Z"
                                fill="#527A52" />
                            <path d="M44.3909 13.4368L45.3454 13.1187L44.2 13.4368H44.3909Z" fill="#527A52" />
                            <path d="M39.6183 12.228L39.9365 12.0371L39.3638 12.3553L39.6183 12.228Z" fill="#527A52" />
                            <path
                                d="M38.1546 12.2277C38.4091 12.0368 37.8364 11.9095 38.0909 11.7822C37.7091 11.7822 37.3909 11.9731 37.0728 12.1004C37.3909 12.0368 37.7091 12.1004 38.1546 12.2277Z"
                                fill="#527A52" />
                            <path
                                d="M36.5635 12.2915C36.7544 12.2279 36.8817 12.1642 37.0726 12.1006C36.8817 12.1642 36.7544 12.2279 36.5635 12.2915Z"
                                fill="#527A52" />
                            <path
                                d="M40.4455 12.8006C40.3818 12.737 40.3182 12.6097 40 12.4824L40.1909 12.737C40.2545 12.8006 40.3818 12.8006 40.4455 12.8006Z"
                                fill="#527A52" />
                            <path
                                d="M40.2545 12.8005C39.9999 12.8005 39.809 12.7368 39.7454 12.7368C39.809 12.7368 39.9363 12.7368 40.2545 12.8005Z"
                                fill="#527A52" />
                            <path
                                d="M42.8635 13.1821C42.5453 13.3094 41.8453 13.4367 42.5453 13.6912C42.7363 13.5003 42.3544 13.373 42.8635 13.1821Z"
                                fill="#527A52" />
                            <path
                                d="M40.7637 13.1186L41.3364 13.1823C41.3364 13.1186 41.2091 12.9914 41.4 12.9277L40.7637 13.1186Z"
                                fill="#527A52" />
                            <path d="M40.4453 13.1823L40.7635 13.1187H40.5726L40.4453 13.1823Z" fill="#527A52" />
                            <path
                                d="M37.5816 12.6094C37.327 12.7366 37.0089 12.7366 36.6907 12.7366C37.0089 12.8003 37.3907 12.8639 37.7089 12.8639C37.8361 12.7366 37.9634 12.6094 37.5816 12.6094Z"
                                fill="#527A52" />
                            <path d="M33.5728 12.6094V12.673L33.6364 12.6094H33.5728Z" fill="#527A52" />
                            <path
                                d="M37.8364 12.8644C38.091 12.9281 38.2819 12.8644 38.4091 12.8008C38.1546 12.8008 37.9637 12.8644 37.8364 12.8644C37.7091 12.8644 37.7091 12.8644 37.8364 12.8644Z"
                                fill="#527A52" />
                            <path
                                d="M35.6726 12.4188C35.7999 12.4824 35.9272 12.5461 36.1181 12.6097C35.9908 12.4824 35.7362 12.3551 35.6726 12.4188Z"
                                fill="#527A52" />
                            <path d="M38.7272 12.6736C38.6635 12.5463 38.6635 12.6099 38.7272 12.6736V12.6736Z"
                                fill="#527A52" />
                            <path
                                d="M38.7271 12.6733C38.5998 12.737 38.4726 12.8006 38.4089 12.8006C38.5362 12.8006 38.7271 12.737 38.8544 12.737C38.7908 12.6733 38.7271 12.6733 38.7271 12.6733Z"
                                fill="#527A52" />
                            <path
                                d="M32.4909 14.3277C32.5545 14.0732 33.2545 13.8823 33.8272 14.2005C34.4 14.0095 34.0818 13.1823 33.5727 12.7368C33.5727 12.8641 33.5727 12.9277 32.9363 13.055C33.1273 13.1823 34.2727 13.4368 33.7636 13.6277C32.9363 13.6914 33.1272 13.5005 32.7454 13.3732C33.0636 13.6914 31.7273 13.755 31.8545 14.2641L32.5545 14.1368C32.5545 14.1368 32.3 14.2005 32.4909 14.3277Z"
                                fill="#527A52" />
                            <path
                                d="M34.7183 12.7368H34.9728C34.7183 12.6732 34.5274 12.5459 34.1456 12.355C33.7637 12.4823 33.6365 12.5459 33.6365 12.6095L34.8456 12.6732L34.7183 12.7368Z"
                                fill="#527A52" />
                            <path
                                d="M36.0545 12.7368C35.8636 12.9914 35.2908 13.1186 35.609 13.4368C36.309 13.4368 36.1181 13.2459 36.5636 13.1186C35.4181 13.1186 36.9454 12.9277 36.0545 12.7368C36.309 12.7368 36.4999 12.7368 36.6908 12.7368C36.4999 12.6732 36.309 12.6732 36.1181 12.6095C36.1817 12.6732 36.1817 12.6732 36.1181 12.6732C36.1181 12.6732 36.1181 12.6732 36.0545 12.7368C35.7363 12.6732 35.9908 12.6732 36.1181 12.6095C36.1181 12.6095 36.1181 12.6095 36.1181 12.5459L34.9727 12.6732C35.2272 12.7368 35.5454 12.7368 36.0545 12.7368Z"
                                fill="#527A52" />
                            <path
                                d="M41.909 14.2643C41.8454 14.2643 41.8454 14.2007 41.8454 14.2007C41.7817 14.2643 41.7181 14.2643 41.909 14.2643Z"
                                fill="#527A52" />
                            <path
                                d="M41.3999 14.0735C41.4635 14.0099 41.5271 13.9463 41.8453 13.9463C42.0999 14.0099 41.8453 14.0735 41.8453 14.1372C42.0362 14.0735 42.418 13.9463 41.909 13.819L41.8453 13.8826C41.3999 13.7554 40.7635 13.4372 40.8908 13.3735C41.0181 13.6917 41.0817 13.8826 41.3999 14.0735Z"
                                fill="#527A52" />
                            <path
                                d="M38.7273 13.5005L37.7727 13.6278L38.2818 13.8823V13.755C38.7273 13.755 38.6636 13.6278 38.7273 13.5005Z"
                                fill="#527A52" />
                            <path d="M33.4455 12.4822L33.5727 12.1641L33 12.5459L33.4455 12.4822Z" fill="#527A52" />
                            <path d="M32.1728 12.4186L32.2364 12.1641L31.9182 12.2913L32.1728 12.4186Z"
                                fill="#527A52" />
                            <path d="M57.9453 4.9733L57.7544 4.90967C57.818 4.9733 57.8817 4.9733 57.9453 4.9733Z"
                                fill="#527A52" />
                            <path d="M57.1182 5.22753L57.5 5.29117C57.3091 5.22753 57.1818 5.16389 57.1182 5.22753Z"
                                fill="#527A52" />
                            <path
                                d="M23.8364 10.8911C24.2819 11.082 24.7273 11.4002 24.6637 11.1457L24.5364 10.8911C24.2182 10.9547 24.0273 10.9547 23.8364 10.8911Z"
                                fill="#527A52" />
                            <path
                                d="M44.8999 7.90055C44.8362 7.90055 44.8362 7.83691 44.7726 7.83691C44.709 7.96419 44.5817 8.02782 44.5181 8.09146C44.6453 8.02782 44.7726 7.96419 44.8999 7.90055Z"
                                fill="#527A52" />
                            <path d="M45.0911 6.69141L45.6638 6.81868C45.5365 6.81868 45.3456 6.75504 45.0911 6.69141Z"
                                fill="#527A52" />
                            <path
                                d="M54.8908 4.01855C54.7635 4.08219 54.6999 4.20946 54.6362 4.2731C54.6999 4.33674 54.7635 4.14583 54.8908 4.01855Z"
                                fill="#527A52" />
                            <path
                                d="M19.3817 11.528C19.0635 11.4007 18.809 11.2734 18.5544 11.2734C18.9363 11.4643 19.2544 11.7825 19.3817 11.528Z"
                                fill="#527A52" />
                            <path
                                d="M65.2637 6.0555C65.3274 5.99186 65.2637 5.92822 65.1364 5.92822C65.0728 5.99186 65.0728 6.0555 65.2637 6.0555Z"
                                fill="#527A52" />
                            <path
                                d="M17.5999 11.1463C17.6635 11.2099 17.7271 11.2099 17.7908 11.2099C18.0453 11.2099 18.2999 11.2099 18.618 11.2736C18.2999 11.0827 17.918 11.019 17.5999 11.1463Z"
                                fill="#527A52" />
                            <path d="M15.4999 5.73682H15.4363C15.3726 5.80045 15.4363 5.80045 15.4999 5.73682Z"
                                fill="#527A52" />
                            <path
                                d="M3.53638 3.3822C3.66365 3.3822 3.85456 3.3822 3.98183 3.3822C3.9182 3.31856 3.79092 3.31856 3.53638 3.3822Z"
                                fill="#527A52" />
                            <path
                                d="M28.3546 13.1821C28.2909 13.1821 28.2273 13.2458 28.2273 13.3094C28.2909 13.2458 28.3546 13.2458 28.3546 13.1821Z"
                                fill="#527A52" />
                            <path d="M14.6729 12.2915C14.7365 12.2915 14.7365 12.3551 14.6729 12.2915V12.2915Z"
                                fill="#527A52" />
                            <path
                                d="M27.5272 12.1644C27.3999 12.1007 27.3363 12.1007 27.209 12.0371C27.2726 12.1007 27.3363 12.1644 27.5272 12.1644Z"
                                fill="#527A52" />
                            <path
                                d="M27.5271 12.0371C27.5907 12.0371 27.718 12.0371 27.7816 12.1007C27.7816 12.0371 27.718 12.0371 27.5271 12.0371Z"
                                fill="#527A52" />
                            <path
                                d="M26.7634 12.0371C26.8907 12.0371 27.0816 12.0371 27.2089 12.1007C27.1452 12.1007 27.1452 12.0371 27.1452 12.0371C27.0816 12.0371 26.9543 12.0371 26.7634 12.0371Z"
                                fill="#527A52" />
                            <path
                                d="M37.3271 3.63659C37.3271 3.57296 37.3271 3.57296 37.3271 3.63659C37.0089 3.70023 37.1362 3.70023 37.3271 3.63659Z"
                                fill="#527A52" />
                            <path
                                d="M31.5363 7.32764C31.1545 7.70945 30.9 7.64582 30.5818 7.64582L30.9636 8.40946L31.5363 7.32764Z"
                                fill="#527A52" />
                            <path
                                d="M57.2455 4.01896C57.0546 4.0826 56.8001 4.14623 56.5455 4.27351C54.891 4.52805 55.4637 4.40078 54.3182 4.65533C55.7182 4.33714 55.9728 4.33714 56.1637 4.40078C56.3546 4.40078 56.5455 4.52805 58.4546 4.40078C58.2001 4.46442 58.0092 4.52805 57.7546 4.59169C57.7546 4.52805 57.5637 4.52805 57.5637 4.52805C56.7364 4.65533 57.3728 4.65533 58.1364 4.7826C58.9001 4.84623 59.791 4.97351 59.2819 5.03714C58.8364 5.10078 58.2637 5.10078 57.9455 5.03714C58.1364 5.10078 58.2637 5.16442 58.391 5.22805C58.2001 5.22805 57.7546 5.16442 57.8819 5.16442C57.8182 5.16442 57.691 5.22805 57.5637 5.29169H57.5001C57.8182 5.35533 58.2001 5.54623 58.3273 5.60987C57.8182 5.54623 58.2001 5.54624 57.8182 5.4826C57.8819 5.54624 57.9455 5.60987 57.9455 5.67351C57.5637 5.60987 57.3728 5.54624 57.3092 5.4826C57.1819 5.41896 57.1819 5.35533 57.3092 5.35533C56.0364 5.10078 56.1637 5.16442 56.291 5.22805C56.4819 5.29169 56.6092 5.41896 55.8455 5.29169C55.8455 5.22805 55.8455 5.22805 55.8455 5.16442C55.5273 5.03714 55.2728 4.97351 54.9546 4.90987C54.8273 4.84623 54.7001 4.84624 54.5092 4.71896C54.6364 4.7826 54.9546 4.90987 55.3364 5.10078C55.7182 5.22805 56.2273 5.41896 56.2273 5.4826C56.0364 5.41896 55.9092 5.41896 55.9092 5.60987C55.4637 5.35533 55.4637 5.41896 55.2728 5.4826L54.891 5.10078C54.891 5.22805 55.0819 5.41896 55.0182 5.60987C54.7001 5.60987 54.5728 5.29169 54.4455 5.03714C54.3819 5.03714 54.3819 5.16442 54.4455 5.29169C54.5092 5.41896 54.6364 5.54624 54.3819 5.67351C53.5546 5.60987 52.9819 5.80078 52.0273 6.1826C51.4546 6.05533 52.1546 5.86442 51.9001 5.80078L51.391 6.1826C51.2637 6.1826 51.3273 6.05533 51.3273 6.05533C50.8819 6.24623 51.3273 6.43714 50.6273 6.62805C50.5001 7.07351 49.1637 6.11896 48.3364 6.69169C48.1455 6.56442 48.4001 6.43714 48.3364 6.30987C47.191 6.75533 47.3819 6.62805 46.4273 7.13714L45.6001 6.94624C46.2364 7.20078 45.4728 7.64623 44.8364 7.96442C45.091 8.09169 45.2819 8.21896 45.4092 8.2826L44.3273 8.60078C44.2001 8.53714 44.2637 8.40987 44.4546 8.21896C44.391 8.2826 44.3273 8.2826 44.2637 8.34623C43.8819 8.21896 44.0728 7.96442 44.3273 7.70987C44.4546 7.77351 44.5819 7.83714 44.7092 7.96442C44.9637 7.70987 45.1546 7.39169 45.091 7.20078C45.0273 7.26442 44.9001 7.32805 44.7728 7.32805C44.8364 7.26442 44.9001 7.20078 44.8364 7.13714C44.7728 7.07351 44.7092 7.20078 44.5182 7.32805L44.2637 6.8826L44.2001 7.07351L42.8001 6.8826C41.8455 7.39169 41.0182 8.15533 39.4273 8.40987C39.8092 8.02805 39.491 7.83714 39.491 7.45533C39.9364 7.83714 40.7001 7.20078 41.5273 7.20078C41.0819 7.20078 41.1455 7.00987 41.2728 6.94624L39.8092 7.39169C39.8092 7.07351 39.491 7.20078 39.1091 7.07351C39.4273 7.70987 38.0273 7.5826 37.4546 7.77351C37.391 7.5826 37.5182 7.32805 38.2819 7.32805C37.4546 6.8826 37.2637 8.15533 36.4364 7.77351C36.6273 7.77351 36.691 7.77351 36.7546 7.64623C36.3728 7.83714 35.291 7.77351 35.5455 7.5826H35.7364C34.5273 7.5826 32.1092 7.77351 31.9819 8.34623C31.9819 8.2826 32.1092 7.70987 32.1728 7.5826L30.2001 9.55533C30.3273 9.10987 29.5637 8.02805 30.5182 7.70987C30.2001 7.64623 29.8819 7.5826 29.3092 7.83714C29.5001 7.90078 29.8182 8.47351 29.5637 8.53714C28.8001 8.09169 29.0546 8.2826 28.1001 7.90078C28.4182 7.96442 28.1001 8.72805 27.6546 8.72805C27.7182 8.60078 27.591 8.02805 27.7182 7.90078L26.6364 8.66442C26.891 8.53714 26.6364 8.02805 26.3819 7.90078C26.5091 8.02805 25.4273 7.96442 25.1091 8.02805L25.6182 8.15533C24.3455 8.15533 24.4091 9.23714 23.1364 9.30078C23.2637 9.17351 23.4546 8.34623 22.8182 8.34623C22.5637 8.72805 21.6728 10.1917 20.5273 10.5735L20.2728 10.3826L19.4455 10.7008C19.891 10.1281 21.3546 8.79169 22.1182 8.2826C21.6091 8.15533 21.991 8.02805 21.2273 8.15533C20.9728 7.96442 21.6091 7.83714 21.8001 7.77351H20.0819C20.2092 8.21896 18.8091 8.34623 18.9364 8.66442L20.7182 8.02805C20.8455 8.47351 19.7637 9.30078 18.5546 9.36442C18.2364 9.23714 18.6819 8.60078 18.6819 8.47351C18.5546 8.66442 17.6001 8.85533 17.4728 8.79169L17.9819 8.47351C17.2819 8.40987 16.9637 9.17351 16.0728 8.85533C15.8182 8.85533 15.1182 8.40987 15.1182 8.72805C15.691 9.10987 15.9455 10.6371 15.7546 11.019C15.6273 11.019 14.291 10.8281 13.9091 10.6371C13.3364 10.3826 14.3546 9.55533 13.9091 9.36442C13.9091 9.49169 13.7182 9.6826 13.591 9.74623C13.2728 9.74623 13.6546 9.36442 12.9546 9.61896C12.9546 9.87351 12.6364 9.93714 12.2546 10.1917C12.191 10.2553 12.1273 10.319 12.0637 10.3826C12.0001 10.4462 12.0001 10.4462 12.0637 10.4462C12.1273 10.3826 12.3819 10.1281 12.7637 10.1281C12.5728 10.2553 12.4455 10.3826 12.2546 10.5735C12.191 10.6371 12.191 10.7008 12.1273 10.7644C12.0637 10.8281 12.0637 10.8917 12.0637 11.019C12.0001 11.2099 12.0637 11.4008 12.1273 11.5281C12.2546 11.8462 12.3819 11.9735 12.5091 12.1008C12.6364 12.2281 12.7637 12.2917 12.9546 12.419C12.891 12.2281 13.2091 12.1644 13.5273 12.0371C13.7182 11.9735 13.9091 11.9735 14.0364 11.9099C14.2273 11.8462 14.4182 11.8462 14.5455 11.8462C14.4819 11.9099 14.5455 12.1008 14.6091 12.2281C15.8182 12.6099 16.4546 12.9281 17.6001 13.0553C17.6637 13.1826 18.2364 13.3735 17.9819 13.5644C18.1728 13.5008 18.3637 13.3735 18.6819 13.4371C19.3182 13.8826 17.8546 13.3735 18.3637 13.8826C18.4273 13.6281 19.3182 13.6917 19.891 13.5644C19.7637 13.1826 18.7455 13.3099 18.1728 13.4371C18.2364 12.9281 19.191 12.4826 20.4637 12.3553C21.4182 12.3553 20.8455 12.7371 21.0364 12.6735C22.8182 12.9281 22.691 11.9099 24.1546 12.419C24.7273 12.8008 24.1546 13.119 24.2182 13.3735C23.391 13.4371 23.0091 13.0553 22.5001 12.9917L23.1364 13.1826C22.8819 13.2462 22.3091 13.3099 22.0546 13.1826C22.5001 13.5644 25.1091 13.5008 26.5091 13.8826C26.7637 13.7553 27.2091 13.6917 27.0182 13.5644H26.5728C26.191 13.2462 27.4637 13.2462 26.891 13.0553C27.5273 12.9281 28.1637 12.6099 28.991 12.8644L29.1182 13.2462C29.1182 13.119 28.6091 12.9917 28.3546 13.119C28.7364 12.9917 29.6273 13.6917 30.0091 13.2462L29.4364 12.9281C30.0728 12.7371 30.8364 12.419 31.5364 12.5462C31.2182 12.1644 31.3455 12.6099 30.8364 12.1008C31.2819 12.6735 28.9273 11.9735 29.6273 12.6099C29.1182 12.0371 28.6728 12.3553 28.0364 11.8462C28.0364 11.9735 28.291 12.1008 27.6546 11.9735C27.6546 12.0371 27.5273 12.0371 27.5273 12.1008C27.5273 12.1008 27.5273 12.1008 27.4637 12.1008H27.5273C27.6546 12.1644 27.7819 12.2281 27.8455 12.2917C27.5273 12.5462 26.5091 12.4826 26.191 12.6099C25.8091 12.5462 26.3819 12.4826 26.191 12.2917L25.6819 12.4826C25.6819 12.1644 24.7273 11.9099 25.6182 11.8462L24.8546 11.7826C24.4092 11.5917 23.7728 11.4644 23.391 11.5281C23.0092 11.4644 22.4364 11.7826 22.7546 11.5917L21.5455 11.8462V11.7826C20.3364 11.5917 19.0001 11.9735 17.791 11.2735C17.4091 11.2735 16.9637 11.2735 16.3273 11.0826L16.2637 10.8281C16.0091 10.8281 15.691 10.7008 15.3728 10.5735C15.1182 10.4462 14.8637 10.3826 14.7364 10.4462C14.6728 10.2553 14.6091 10.1281 14.4182 10.0008C14.4182 10.0008 14.3546 10.0008 14.3546 9.93714L14.291 10.0008L14.1001 10.1917L13.9091 10.319L13.591 10.7008L13.5273 10.7644L13.4637 10.8917C13.2728 11.0826 13.0819 11.2099 13.0182 11.2099C12.9546 11.2099 13.0819 11.2099 13.2728 11.4008C13.4637 11.5917 13.6546 11.8462 13.8455 12.2281C13.9091 12.3553 13.9728 12.419 13.9728 12.5462L14.0364 12.6735C14.1001 12.6735 14.1001 12.6099 14.1637 12.6099C14.3546 12.5462 14.6091 12.4826 14.8001 12.419L14.7364 12.1008C15.3091 11.9735 15.8182 11.7826 16.5819 11.5917L16.5182 11.3371C17.1546 11.019 18.2364 11.3371 19.3182 11.2099C19.2546 11.3371 19.0001 11.3371 18.8092 11.2735C20.1455 11.7826 21.4182 10.5735 22.6273 10.8917C22.8819 10.7644 23.1364 10.7644 23.3273 10.8281H23.2637C23.2637 10.8281 23.3273 10.8281 23.391 10.8281C23.5182 10.8917 23.6455 10.8917 23.8364 10.9553C23.7091 10.8917 23.5819 10.8281 23.4546 10.8281C23.7092 10.8281 24.0273 10.7644 24.3455 10.6371L24.5364 10.9553H24.6001C24.9182 11.019 24.8546 10.7644 24.6637 10.5735C24.8546 10.5099 24.9819 10.4462 25.1091 10.3826C25.4273 10.8281 26.0001 10.1281 26.3819 10.6371C26.5728 10.3826 28.0364 10.319 28.1637 9.74623C28.1637 9.80987 28.291 9.87351 28.1001 9.87351C28.4819 9.93714 28.8637 9.93714 29.1819 9.74623L29.3728 10.1281L30.1364 9.55533C30.6455 9.74623 30.8364 9.87351 30.391 10.1917C31.5364 9.6826 31.3455 9.93714 32.3001 9.42805L32.2364 9.6826C32.6182 9.61896 33.1273 9.30078 33.3819 9.49169C34.2091 9.93714 37.391 9.30078 39.491 9.61896C39.0455 8.91896 40.4455 9.87351 40.5092 9.30078C40.6364 9.49169 40.9546 9.55533 40.6364 9.74623C41.6546 9.49169 42.2273 9.93714 42.9273 9.36442C43.0546 9.55533 42.7364 9.61896 42.8637 9.74623C42.9273 9.6826 43.1819 9.55533 43.3092 9.6826C43.4364 9.80987 43.1819 9.80987 42.991 9.93714C44.0728 9.80987 44.1364 9.30078 44.2001 8.79169C44.7728 8.9826 45.0273 8.91896 45.4092 8.60078C45.6001 8.72805 45.9182 8.91896 45.2819 8.9826C45.6637 8.9826 47.6364 9.04624 47.6364 8.66442C47.7637 8.72805 48.1455 8.66442 48.2728 8.60078C49.1001 8.53714 49.2273 8.60078 50.0546 8.47351L49.7364 8.34623C50.0546 7.83714 50.4364 8.15533 51.0728 8.09169V8.15533C52.6637 8.34623 51.7092 7.90078 53.3001 8.15533L53.1728 7.83714C53.2364 7.51896 53.5546 7.5826 54.0001 7.64623C54.191 7.70987 54.4455 7.77351 54.7001 7.77351C55.0182 7.77351 55.3364 7.77351 55.591 7.70987L55.1455 7.5826C55.4001 7.45533 55.8455 7.64623 56.4819 7.77351C57.1182 7.96442 57.8819 8.15533 58.3273 8.15533C58.5819 8.15533 58.1364 8.2826 57.9455 8.34623C59.1546 8.34623 59.1546 8.2826 58.9637 8.15533C58.7728 8.02805 58.5182 7.83714 59.091 7.70987C59.6001 7.83714 59.4092 8.21896 60.491 8.09169C60.8728 8.09169 61.3182 7.83714 61.7637 7.5826C62.2092 7.32805 62.6546 7.07351 63.4819 7.00987C62.9728 7.00987 62.4637 6.94623 62.6546 6.75533C62.9092 6.62805 63.6092 6.56442 64.1819 6.43714C64.691 6.30987 65.0728 6.11896 64.8819 5.92805C65.0092 5.92805 65.0728 5.92805 65.2001 5.92805C65.2637 5.80078 65.4546 5.60987 65.5819 5.41896C65.7092 5.22805 65.8364 4.97351 65.7728 4.84623C66.091 4.7826 66.3455 4.46442 66.2819 4.14623C66.2182 3.82805 65.9001 3.50987 65.5819 3.31896C64.9455 2.93714 64.1182 2.80987 64.8819 2.61896C64.4364 2.42805 63.991 2.23714 63.5455 2.10987L63.7364 2.04623C62.9728 1.66442 62.0819 1.72805 61.3182 1.85533C61.191 1.79169 61.5092 1.72805 61.6364 1.72805C60.3001 1.2826 59.7273 1.2826 57.691 1.60078C57.7546 1.47351 57.7546 1.40987 57.8182 1.2826C57.5001 1.34623 56.9273 1.21896 55.9728 1.09169C55.7182 1.09169 55.4637 1.02805 55.2092 1.02805C55.0819 1.02805 54.9546 1.02805 54.8273 1.02805H54.4455C54.0637 1.02805 53.6819 1.02805 53.3001 1.15533C53.3001 1.09169 53.3637 1.02805 53.491 1.02805C51.8364 1.40987 49.5455 0.200781 48.9728 1.34623L47.891 1.66442C49.291 1.72805 47.7001 2.17351 48.2728 2.36442C47.7001 2.42805 46.8728 2.04623 47.5092 1.9826L47.6364 2.04623C47.891 1.40987 45.9182 1.91896 45.9182 1.47351C43.1819 1.60078 40.5092 1.40987 37.9637 1.53714L38.091 1.85533H37.2001C36.9455 1.79169 36.8819 1.53714 37.5182 1.47351C37.1364 1.21896 36.4364 1.72805 36.4364 1.85533C35.1637 1.72805 36.8819 1.2826 36.5001 1.2826L35.991 1.34623L36.1182 1.40987C35.7364 1.60078 35.6728 1.85533 34.9091 1.85533C34.4001 1.79169 34.6546 1.60078 34.4637 1.60078C34.4637 1.53714 34.4001 1.53714 34.1455 1.60078H33.0001L33.5092 1.9826C33.0001 2.17351 32.4273 2.04623 33.0001 2.42805C32.1728 1.85533 28.8001 2.49169 28.291 2.30078C27.6546 2.61896 26.9546 2.61896 26.1273 2.6826C26.3182 2.74623 26.5091 3.12805 25.7455 3.12805C25.9364 2.23714 24.3455 2.87351 23.7728 2.30078C24.3455 2.6826 21.6728 2.55533 22.5637 3.06442C21.9273 3.06442 22.5001 2.74624 22.0546 2.55533C20.591 3.00078 18.8091 2.55533 17.0273 2.80987C17.0273 2.93714 17.3455 3.06442 16.9637 3.25533L16.0091 2.74624C15.6273 2.80987 15.691 3.3826 15.0546 3.06442C15.1819 3.12805 15.3091 3.25533 15.0546 3.31896C13.2728 3.12805 11.491 3.3826 9.70915 3.50987C7.92733 3.63714 6.08188 3.70078 4.36369 3.12805C4.68188 3.31896 4.36369 3.3826 3.98188 3.3826C4.23642 3.44623 3.98188 3.63714 4.04551 3.82805C3.53642 3.63714 3.02733 3.50987 2.58188 3.31896C2.4546 3.50987 2.07279 3.50987 1.69097 3.44624C1.30915 3.3826 1.0546 3.31896 0.990967 3.50987C1.11824 3.50987 1.24551 3.50987 1.37278 3.50987C1.0546 3.70078 1.18188 4.01896 1.43642 4.33714C1.69097 4.65533 2.00915 4.97351 1.94551 5.29169C2.70915 4.84623 3.8546 6.1826 5.06369 5.41896C5.31824 5.54624 4.80915 5.60987 4.93642 5.80078C5.2546 5.4826 5.63642 5.4826 6.27279 5.54624L6.20915 5.60987C8.0546 5.4826 8.88188 5.73714 10.9819 5.80078L10.791 5.4826C11.2364 5.4826 11.3637 5.60987 11.5546 5.67351C12.0637 5.16442 10.2819 5.73714 10.7273 5.16442C11.3637 5.73714 13.9091 5.03714 14.3546 5.67351C15.0546 5.60987 14.1637 5.35533 14.8001 5.29169L14.991 5.4826L15.1819 5.29169C15.6273 5.29169 15.8819 5.54624 15.8819 5.67351C15.7546 5.67351 15.5637 5.73714 15.4364 5.73714C16.0091 5.92805 17.091 5.54623 17.2819 5.60987L16.5819 5.54624C18.4273 5.22805 20.7819 5.35533 22.5637 4.84623L22.4364 4.71896C23.7728 4.33714 23.5819 4.7826 25.0455 4.59169L24.9819 4.65533C25.3001 4.46442 25.6819 4.40078 26.0637 4.40078C25.6819 4.59169 26.8273 4.65533 26.3182 4.90987C27.7819 4.52805 27.0182 4.65533 27.9728 4.01896L28.2273 4.20987C28.5455 3.95533 28.5455 3.82805 29.3092 3.76442C28.6728 4.01896 29.8182 4.0826 29.1182 4.40078C30.7728 4.7826 31.4728 3.70078 32.2364 4.40078C32.9364 3.70078 30.8364 4.14623 31.2182 3.95533C30.8364 3.76442 31.791 3.44624 32.3001 3.44624C32.8092 3.44624 33.191 4.20987 34.4637 4.14623C34.3364 4.14623 34.3364 4.20987 34.2092 4.20987C34.7182 4.33714 35.1637 3.95533 35.7364 4.14623C36.0546 3.70078 36.5001 4.14623 36.5637 3.63714L35.4182 3.82805C36.0546 3.63714 36.691 3.00078 37.7728 3.25533C37.7092 3.3826 37.391 3.50987 37.1364 3.57351C37.4546 3.70078 37.7728 3.44623 38.091 3.57351C38.0273 4.0826 36.691 3.76442 35.991 4.20987C36.3728 4.40078 37.3273 3.76442 37.0092 4.33714C37.4546 3.63714 38.2819 4.33714 39.1091 3.76442L39.0455 4.0826C39.3637 4.01896 39.6819 3.89169 39.9364 3.89169L39.491 4.33714C40.191 3.95533 40.8273 4.52805 41.5273 4.33714C40.1273 4.40078 41.2092 4.01896 40.5728 3.82805C42.291 3.25533 41.591 4.52805 43.5637 4.27351C43.3092 4.33714 42.5455 4.14623 42.991 3.95533C43.3728 4.01896 43.8819 4.0826 44.0728 4.27351C45.3455 4.14623 43.8819 3.95533 44.391 3.76442C44.8364 4.0826 45.0273 3.57351 45.6001 3.44624V3.76442C47.0637 3.89169 45.9819 3.12805 47.3182 3.31896L46.7455 3.76442L47.4455 3.63714L47.3182 4.01896C48.0819 3.76442 48.2728 3.82805 49.0364 3.89169C48.8455 3.70078 49.1001 3.31896 49.7364 3.31896C50.1819 3.50987 49.4819 3.63714 50.4364 3.57351C50.1819 3.63714 49.991 3.89169 49.5455 3.63714C49.5455 3.70078 49.3546 3.82805 49.291 3.89169C49.8001 4.0826 50.5001 3.89169 50.8182 3.89169C50.691 3.89169 50.5637 3.89169 50.4364 3.82805L51.7728 3.3826C51.9637 3.50987 51.8364 3.57351 51.6455 3.70078C51.9001 3.63714 52.091 3.50987 52.4728 3.50987C52.3455 3.76442 52.4092 4.01896 51.8364 4.14623L53.1092 3.89169C53.1728 4.01896 53.7455 4.20987 53.6182 4.27351C53.8092 4.33714 54.0001 4.27351 54.191 4.27351C54.2546 4.27351 54.3182 4.27351 54.3182 4.27351L54.3819 4.20987C54.3819 4.20987 54.4455 4.14623 54.5092 4.14623C54.6364 3.95533 54.891 3.89169 54.9546 3.95533C55.0182 3.89169 55.0819 3.89169 55.1455 3.82805C55.2728 3.89169 55.3364 3.95533 55.3364 4.01896C55.4001 4.0826 55.4637 4.0826 56.0364 3.89169C55.7819 4.01896 55.5273 4.14623 55.2092 4.33714C55.4001 4.27351 55.7182 4.14623 56.0364 4.01896C56.3546 3.89169 56.6728 3.76442 57.1819 3.70078C58.0092 3.63714 56.291 4.01896 56.1001 4.14623C56.4819 4.0826 57.0546 3.95533 57.5637 3.89169C58.0092 3.82805 58.3273 3.89169 57.8182 4.01896C57.3092 4.0826 57.5001 4.01896 57.2455 4.01896ZM56.2273 5.4826C56.2273 5.41896 55.9728 5.22805 56.3546 5.35533C56.991 5.67351 56.5455 5.54624 56.2273 5.4826ZM43.3728 7.39169C43.5001 7.26442 43.7546 7.32805 44.0092 7.39169C43.8182 7.45533 43.6273 7.45533 43.3728 7.39169ZM24.2182 12.1008C23.7728 11.9099 23.9637 11.9735 24.2182 12.1008V12.1008ZM25.1091 12.2917C25.1728 12.2281 25.1728 12.2281 25.1728 12.1644C25.1091 12.2281 24.9182 12.2281 24.6637 12.1644C24.7273 12.2917 24.8546 12.3553 25.1091 12.2917ZM34.3364 1.72805L34.5273 1.79169C34.1455 1.91896 34.2728 1.79169 34.3364 1.72805Z"
                                fill="#527A52" />
                            <path
                                d="M45.0911 6.88232C45.1547 6.94596 45.1547 7.0096 45.1547 7.07323C45.2183 6.94596 45.2183 6.88232 45.0911 6.88232Z"
                                fill="#527A52" />
                            <path d="M54.9542 3.95508C54.8906 4.01871 54.8906 4.01871 54.9542 3.95508V3.95508Z"
                                fill="#527A52" />
                            <path
                                d="M13.5908 9.30028C13.7817 9.30028 13.909 9.30029 14.0363 9.36392C13.9726 9.30029 13.909 9.23665 13.5908 9.30028Z"
                                fill="#527A52" />
                            <path
                                d="M29.8818 12.0371L29.3091 12.1007C29.5636 12.1007 29.6909 12.1644 29.8182 12.228C29.8182 12.1644 29.7545 12.0371 29.8818 12.0371Z"
                                fill="#527A52" />
                            <path
                                d="M34.8454 14.2002C34.909 14.1366 35.0363 14.2002 35.0999 14.1366V14.0093C34.7181 14.0093 34.4636 14.1366 34.8454 14.2002Z"
                                fill="#527A52" />
                            <path
                                d="M30.3909 13.1186C30.4545 13.3731 30.7727 13.3095 31.2181 13.3095H31.1545C31.2818 12.9276 30.8363 12.9913 30.3909 13.1186Z"
                                fill="#527A52" />
                            <path
                                d="M31.2817 13.246C31.409 13.246 31.5363 13.246 31.6636 13.246C31.7272 13.1187 31.5363 13.246 31.2817 13.246Z"
                                fill="#527A52" />
                            <path
                                d="M26.2545 12.1644C26.4454 12.228 26.3818 11.8462 26.509 11.9734C26.7636 11.6553 25.2363 12.2916 26.2545 12.1644Z"
                                fill="#527A52" />
                            <path d="M30.6453 13.9461L30.5181 13.6279L30.3271 13.8825L30.6453 13.9461Z"
                                fill="#527A52" />
                            <path
                                d="M27.4636 13.5644L28.1 13.6917C28.1 13.628 28.1636 13.628 28.2909 13.5644C27.9091 13.5644 27.4636 13.4371 27.4636 13.5644Z"
                                fill="#527A52" />
                            <path d="M29.7545 14.0096L29.5636 13.946L29.1182 13.8823L29.7545 14.0096Z" fill="#527A52" />
                            <path
                                d="M20.527 12.9277H19.827C19.7634 13.055 19.9543 13.1186 20.2088 13.1186C20.3998 13.055 20.6543 13.055 20.527 12.9277Z"
                                fill="#527A52" />
                            <path
                                d="M22.5635 14.0094C22.3725 13.9458 22.3725 13.8822 22.2453 13.7549L22.1816 14.1367L22.5635 14.0094Z"
                                fill="#527A52" />
                            <path
                                d="M20.527 13.8823C20.4634 14.0096 19.4452 14.0732 20.3361 14.1369C20.4634 14.0732 21.1634 14.0732 20.527 13.8823Z"
                                fill="#527A52" />
                            <path d="M14.927 10.1279L14.7361 10.1916L14.927 10.8279V10.1279Z" fill="#527A52" />
                            <path
                                d="M24.218 7.58243C23.3907 7.5188 24.0271 7.96425 23.2634 7.83698C23.0725 8.02789 23.8998 7.96425 23.7089 8.09152C24.218 7.90061 24.4725 7.96425 24.218 7.58243Z"
                                fill="#527A52" />
                            <path
                                d="M23.7091 8.09131C23.6455 8.09131 23.5182 8.15494 23.4546 8.21858C23.5819 8.15494 23.6455 8.15494 23.7091 8.09131Z"
                                fill="#527A52" />
                            <path
                                d="M1.75438 2.87353C1.6271 2.80989 1.43619 2.74625 1.37256 2.68262C1.43619 2.74625 1.49983 2.87353 1.56347 2.93716L1.75438 2.87353Z"
                                fill="#527A52" />
                            <path
                                d="M0.927077 3.19139C0.990714 3.06412 0.990714 2.93684 1.05435 2.80957C0.990714 2.87321 0.863441 2.93684 0.799805 3.00048C0.799805 3.06412 0.927077 3.06412 0.927077 3.19139Z"
                                fill="#527A52" />
                            <path
                                d="M54.6362 4.8457L54.7635 4.90934C54.8908 4.97298 54.9544 5.03661 55.018 5.03661C54.8271 4.97298 54.7635 4.90934 54.6362 4.8457Z"
                                fill="#527A52" />
                            <path d="M56.5453 4.78223H56.4817L58.0726 4.84586L56.5453 4.78223Z" fill="#527A52" />
                            <path
                                d="M54.509 4.59142C54.4454 4.59142 54.6999 4.52779 54.6999 4.52779C54.509 4.65506 55.7181 4.20961 54.509 4.59142Z"
                                fill="#527A52" />
                        </svg>