<svg width="100%" viewBox="0 0 271 101" fill="none" xmlns="http://www.w3.org/2000/svg">
						<g clip-path="url(#clip0_158_518)">
							<path
								fill-rule="evenodd"
								clip-rule="evenodd"
								d="M236.476 79.9959L237.08 80.0964C238.623 79.0791 240.647 78.4897 242.766 77.8722C244.625 77.3307 246.558 76.7676 248.306 75.8755C248.563 75.8043 248.789 75.7457 249.001 75.6908C249.388 75.5907 249.727 75.5028 250.117 75.373C250.72 75.172 251.445 74.7701 252.41 74.0666C252.49 73.9666 252.438 73.9108 252.389 73.859C252.29 73.7544 252.206 73.6657 253.255 73.2626L252.29 74.4686C253.255 73.9661 254.342 73.3631 255.187 72.7601C256.032 72.1571 256.877 71.4536 257.359 70.8507C257.55 70.7182 257.741 70.5927 257.93 70.4687L257.931 70.4683C258.458 70.122 258.967 69.7871 259.412 69.3432L258.929 69.9462C259.17 69.7452 259.425 69.5442 259.68 69.3432C260.19 68.9412 260.699 68.5392 261.102 68.1372C261.265 67.9461 261.438 67.7625 261.608 67.5822C262.028 67.1364 262.428 66.7113 262.625 66.2459C262.521 66.5273 262.429 66.8562 262.429 67.0317C262.429 67.2327 262.671 67.2327 263.274 66.5293L263.878 65.2228C263.924 65.2228 263.953 65.2375 263.977 65.25C264.016 65.2702 264.045 65.2849 264.119 65.2228C264.24 65.1223 264.481 64.8208 264.964 63.7153C264.723 63.9163 264.844 63.4138 265.206 62.9114C265.447 62.4089 265.809 61.7054 266.171 61.5044C265.943 61.5519 265.633 61.8471 265.332 62.1342C264.997 62.4537 264.672 62.7633 264.481 62.7104C265.085 61.8059 265.085 61.3034 264.964 60.9014C264.956 60.868 264.948 60.8355 264.94 60.8037L264.938 60.7943C264.829 60.3517 264.749 60.0314 265.085 59.1929L265.447 59.4944C265.568 58.6905 265.568 57.987 265.568 57.4845C265.568 57.0825 265.326 56.58 265.085 56.178L265.326 56.2785C265.085 55.0725 264.361 53.9671 263.757 53.0626C263.512 52.6539 263.246 52.2785 262.985 51.9093C262.605 51.3705 262.233 50.845 261.947 50.2487C261.464 49.9472 260.981 49.5452 260.498 49.1432C260.981 49.3442 260.86 49.1432 260.377 48.5402C259.424 47.6582 257.634 46.6989 257.536 46.8848C257.578 46.9285 257.619 46.9805 257.661 47.0324L257.661 47.0328C257.721 47.1081 257.782 47.1834 257.842 47.2336C257.726 47.137 257.638 47.0636 257.578 47.0023L257.589 47.0175L257.601 47.0327C255.911 45.3243 254.462 44.4198 253.014 43.6158C252.541 43.3431 252.068 43.0796 251.571 42.8031L251.571 42.803C250.421 42.1625 249.147 41.4528 247.461 40.3999C247.706 40.2979 247.204 39.9886 246.793 39.7351C246.395 39.4893 246.081 39.296 246.616 39.3949L244.926 38.6915C245.167 38.7919 245.047 38.591 244.926 38.4905C244.443 38.0885 244.081 37.988 243.719 37.988H243.84L241.667 36.782L241.425 36.983L239.977 35.978C240.669 36.0304 241.592 36.4658 242.419 36.856C243.177 37.2137 243.855 37.5336 244.202 37.4855C244.138 37.443 244.054 37.3849 243.952 37.3142L243.951 37.3138C243.545 37.0325 242.852 36.5522 241.996 36.0659C240.991 35.6558 240.95 35.6966 240.86 35.7843C240.828 35.8155 240.791 35.8526 240.701 35.8774C239.769 35.3438 239.371 35.2551 238.992 35.1705C238.585 35.0798 238.2 34.9939 237.2 34.3699H237.804L234.786 33.164C234.316 33.0334 234.456 33.0536 234.738 33.094C235.106 33.1469 235.716 33.2344 235.51 33.0635C236.069 33.3292 236.598 33.5802 237.108 33.821C236.173 33.3102 235.238 32.8142 234.303 32.3601C234.279 32.3204 234.274 32.2964 234.271 32.278C234.269 32.2712 234.268 32.2651 234.266 32.2593C234.25 32.214 234.189 32.1844 233.65 31.9245C233.504 31.8538 233.322 31.7662 233.096 31.6566C232.503 31.3274 232.162 31.2079 231.719 31.0528C231.35 30.9237 230.912 30.7701 230.199 30.4507C230.682 30.6517 230.923 30.7521 231.165 30.7521C229.906 30.0533 229.23 29.9376 228.408 29.7968C228.048 29.7351 227.659 29.6686 227.181 29.5462C227.845 29.8913 228.508 30.0942 229.132 30.2852L229.132 30.2853L229.133 30.2854L229.134 30.2856C229.418 30.3725 229.694 30.4569 229.958 30.5512C229.986 30.599 229.995 30.6298 229.992 30.6503C229.904 30.6184 229.812 30.5854 229.716 30.5512C229.238 30.5014 229.441 30.698 229.62 30.8726C229.804 31.0507 229.964 31.2059 229.354 31.0536C224.956 29.3304 221.147 27.7804 217.611 26.3416L217.61 26.341C214.547 25.0949 211.69 23.9322 208.833 22.8128C202.677 20.5014 196.4 18.391 187.95 16.6825C186.26 15.8785 181.673 14.3711 179.862 14.0696H180.345C179.137 13.8781 178.395 13.5954 177.728 13.3409C176.994 13.0612 176.349 12.8157 175.275 12.7631H173.223C172.966 12.683 172.599 12.5816 172.209 12.474C171.131 12.1767 169.882 11.8319 170.326 11.7581C169.743 11.6889 168.989 11.5241 168.23 11.3585C166.788 11.0435 165.331 10.7253 165.014 11.0546C161.466 10.1685 159.425 9.66823 156.051 8.98676C156.202 9.00024 156.202 8.94419 156.202 8.94419C155.861 8.75456 155.438 8.74384 154.999 8.73268C154.507 8.72019 153.993 8.70715 153.547 8.4417C153.694 8.4417 154.066 8.48851 154.447 8.53642C155.314 8.64546 156.226 8.76015 154.633 8.34121C152.702 8.34121 148.114 7.03474 147.39 6.73324C146.873 6.73324 146.355 6.70438 145.875 6.67759C145.459 6.65439 145.071 6.63275 144.735 6.63275C143.407 6.33125 141.717 5.72827 143.769 5.92926C142.144 5.71792 141.203 5.50657 140.594 5.37C139.757 5.18187 139.551 5.13564 139.061 5.42678C136.956 5.33456 135.233 5.03077 133.576 4.73868C131.621 4.39416 129.759 4.06592 127.473 4.12031C124.899 3.72353 122.288 3.37374 119.75 3.03384C115.861 2.51284 112.145 2.01507 109.004 1.40688L108.768 1.53739C108.95 1.35306 108.085 1.13707 107.293 0.939345C106.371 0.709232 105.548 0.503853 106.589 0.401902C104.537 0.602897 101.399 0.301404 99.8294 0.100409L100.795 -0.100586C102.374 0.101632 102.609 0.0749705 102.944 0.0369087C103.275 -0.000692651 103.704 -0.0494197 105.624 0.100409C105.261 0.100409 104.899 0.100409 105.02 0.200907C106.489 0.200907 108.787 0.338767 110.792 0.459117C111.752 0.516744 112.646 0.570357 113.349 0.602897L112.866 0.803892C114.639 1.02247 115.911 0.91421 117.227 0.802231C118.332 0.708269 119.467 0.611689 120.954 0.703394C122.273 1.08783 122.007 1.11212 121.552 1.15348C121.175 1.18781 120.669 1.2339 120.833 1.50737C122.498 1.69217 123.245 1.40975 123.858 1.17753C124.58 0.904582 125.118 0.70098 126.748 1.40688H125.903C128.058 1.70589 127.601 1.73306 126.975 1.77025C126.339 1.80806 125.528 1.85623 127.11 2.21086C130.659 2.61835 130.083 2.30298 129.454 1.95824C128.842 1.6228 128.179 1.25957 131.215 1.50737C130.68 1.7745 131.661 2.04162 132.899 2.37863L132.9 2.37885L132.903 2.37962L132.908 2.38105C133.065 2.42365 133.225 2.46737 133.388 2.51235C134.023 2.33586 135.942 2.40044 137.835 2.46417C139.176 2.50931 140.504 2.55402 141.355 2.51235C141.149 2.59802 142.083 2.9028 143.635 3.17764C144.367 3.2476 145.149 3.33669 145.924 3.42516C147.901 3.65065 149.843 3.87211 150.854 3.76239C150.813 3.83074 151.176 3.96955 151.554 4.11407C151.964 4.27105 152.392 4.43478 152.339 4.5223C153.03 4.45845 154.061 4.59743 154.876 4.70729C155.344 4.77034 155.741 4.82379 155.961 4.82379L154.271 4.3213C156.15 4.86294 158.419 5.15231 160.741 5.44838C162.296 5.64671 163.875 5.84805 165.376 6.13026L165.256 6.23076C166.039 6.3493 166.79 6.44163 167.538 6.53351C169.327 6.7532 171.095 6.97033 173.223 7.53722C171.859 7.34805 172.848 7.96008 173.372 8.28409L173.464 8.34121C173.683 8.61513 172.583 8.55722 171.621 8.50665C170.466 8.4459 169.513 8.39575 171.291 8.94419C172.172 9.04414 172.919 9.06677 173.653 9.08899C175.133 9.13378 176.556 9.17686 178.896 9.84867C180.103 9.74817 177.327 8.94419 176.482 8.74319C177.626 8.9503 178.976 9.31104 180.268 9.65656C182.111 10.1494 183.839 10.6112 184.69 10.5522C183.604 10.3512 183.242 10.1502 183.363 10.0497C183.363 10.0497 184.328 10.0497 185.415 10.1502C186.501 10.2507 187.708 10.4517 188.312 10.6526C187.985 10.698 187.953 10.7434 187.928 10.7795C187.897 10.8234 187.876 10.8536 187.346 10.8536C188.526 11.3449 189.466 11.5026 190.361 11.6529C190.565 11.6871 190.766 11.7209 190.967 11.7581C190.86 11.9378 190.1 11.756 189.294 11.5629C188.296 11.3239 187.225 11.0676 187.225 11.4566C190.452 12.4116 192.273 12.6931 194.231 12.9958C195.57 13.2028 196.974 13.4197 198.934 13.8686C199.493 14.0494 200.004 14.2103 200.489 14.3632C201.892 14.8052 203.083 15.1807 204.608 15.778C204.507 15.778 204.321 15.7251 204.157 15.6784C203.929 15.6136 203.743 15.5607 203.884 15.6775C205.903 16.5946 206.713 16.8143 207.413 17.0044C208.095 17.1893 208.673 17.3462 210.161 18.0895C212.334 18.2905 216.679 19.8984 219.335 21.0039C219.214 21.0039 219.107 21.0151 219 21.0262C218.785 21.0486 218.57 21.0709 218.249 21.0039C219.234 21.3322 220.204 21.6473 221.161 21.9582C225.477 23.36 229.528 24.6758 233.579 26.7323H233.458C236.597 28.0387 239.494 29.2447 242.874 31.0536C242.029 30.6517 241.667 30.5512 241.546 30.6517C243.363 31.732 245.135 32.5707 246.92 33.4156C249.286 34.5357 251.675 35.6665 254.221 37.385C254.567 37.6728 255.083 38.0318 255.6 38.3908C256.708 39.1601 257.815 39.9294 257.239 39.9979C259.092 41.2836 258.827 40.885 258.58 40.5125C258.344 40.157 258.123 39.8252 259.774 41.0029L259.412 40.8019C261.826 42.2089 263.757 43.9173 265.568 45.6258C267.258 47.3342 268.948 49.2437 270.396 51.4546C270.759 52.5601 271.241 54.3691 271.362 56.8815C271.724 57.786 271.724 59.4944 271.483 61.0019C271.483 61.3033 271.362 61.6047 271.241 61.9061L271.241 61.9064C271 62.2079 270.879 62.5094 270.759 62.8109C270.609 63.0595 270.48 63.3253 270.347 63.6011C270.156 63.9941 269.956 64.4074 269.672 64.8208C271.12 63.0122 269.19 66.2265 268.827 66.8304L268.827 66.8307C268.979 66.3257 268.898 66.2613 268.823 66.202C268.719 66.1198 268.628 66.0475 269.189 64.8208C269.031 65.0411 268.895 65.2421 268.772 65.4237C268.615 65.6564 268.48 65.8575 268.344 66.0268C268.103 66.3283 267.861 66.6298 267.741 66.8307C267.499 67.3332 267.379 67.6347 267.258 68.0367C267.137 68.4387 267.016 68.7402 266.654 69.2427C266.292 69.7452 265.809 70.3482 264.844 71.1521L263.878 71.4536C264.059 71.3029 264.21 71.1521 264.361 71.0014C264.512 70.8506 264.663 70.6999 264.844 70.5492C265.085 70.1472 265.326 69.7452 265.689 69.4437C265.589 69.5265 265.462 69.6397 265.313 69.7727C264.919 70.1241 264.37 70.6143 263.757 71.0516C263.43 71.2561 263.158 71.5068 262.904 71.7411C262.783 71.8522 262.667 71.9596 262.55 72.0566C262.188 72.3581 261.826 72.6596 261.584 72.9611C261.397 73.1951 261.846 72.9447 262.289 72.6976C262.988 72.3079 263.672 71.9262 261.826 73.4636C261.705 73.1621 261.102 73.5641 260.377 74.1671L260.307 74.2174C259.479 74.8087 258.54 75.4791 257.601 75.6745C257.601 76.0765 256.152 77.0815 254.704 77.8855C254.342 77.986 254.583 77.785 254.704 77.6845C253.364 78.3945 253.253 78.6182 253.147 78.8336C253.042 79.045 252.942 79.2482 251.686 79.8954C251.424 79.8954 251.617 79.6676 251.801 79.4513C252.041 79.1699 252.263 78.9079 251.445 79.1919C250.383 79.5847 250.071 79.8096 249.747 80.0423C249.409 80.286 249.058 80.5383 247.823 81.0009C248.668 80.7999 248.065 81.7044 246.616 82.3074C246.254 82.1064 246.012 81.7044 248.306 80.5989C246.978 81.0009 244.805 81.6039 246.616 80.4984C244.732 81.5894 242.237 82.7267 239.847 83.816L239.847 83.8163L239.846 83.8166L239.844 83.8175C238.713 84.3332 237.605 84.8381 236.597 85.3223C235.993 85.3223 234.907 85.6238 233.579 86.0258C232.927 86.318 232.442 86.6622 231.985 86.9864C231.342 87.4428 230.754 87.8595 229.837 88.0357C229.43 88.3745 229.846 88.3478 230.198 88.3253C230.367 88.3144 230.522 88.3045 230.561 88.3372L228.147 89.2417C227.221 89.3519 227.817 89.0093 228.367 88.6936C228.82 88.4333 229.242 88.1913 228.751 88.2367L226.336 88.7392C224.473 89.4693 225.894 89.4535 226.713 89.4445C226.796 89.4435 226.873 89.4427 226.94 89.4427C225.763 89.6489 225.095 89.9344 224.495 90.1908C223.925 90.4342 223.417 90.6513 222.594 90.7492C224.155 90.268 223.778 90.1785 223.425 90.0946C223.041 90.0032 222.685 89.9184 224.888 89.3422L223.077 89.6437C222.863 89.4655 223.703 89.1468 224.476 88.8537L224.477 88.8536C225.011 88.6509 225.513 88.4605 225.612 88.3372C224.191 88.5945 223.37 88.8781 222.552 89.161C221.772 89.4308 220.993 89.6999 219.697 89.9452C219.968 89.7199 220.626 89.5552 221.369 89.3696C222.282 89.1413 223.323 88.8813 223.922 88.4377C222.455 88.6638 221.233 88.9714 220.233 89.2229C219.011 89.5304 218.122 89.7542 217.524 89.6437C218.163 89.3776 219.014 89.2094 219.807 89.0526C220.81 88.8542 221.721 88.6741 221.991 88.3372C221.845 88.3372 221.694 88.3209 221.521 88.3022C220.838 88.2283 219.813 88.1175 217.404 88.8397C216.438 89.3422 218.369 89.0407 219.697 88.7392L219.818 88.5382L220.059 88.8397C219.335 88.9904 218.43 89.2416 217.525 89.4928L217.524 89.4929C216.619 89.7442 215.714 89.9954 214.989 90.1462C214.748 90.1462 214.386 90.1462 214.024 90.2467C214.024 90.2939 214.024 90.3189 214.036 90.3322C214.05 90.3472 214.08 90.3472 214.144 90.3472H213.661C213.104 90.4798 212.493 90.6672 211.87 90.8588C210.603 91.2476 209.281 91.6536 208.229 91.6536L208.23 91.6536C209.195 91.4526 210.161 91.2516 211.126 90.9502C210.94 90.7174 209.675 90.844 208.052 91.0063L208.052 91.0063L208.05 91.0065L208.049 91.0066C207.57 91.0545 207.061 91.1054 206.539 91.1511C206.127 91.2319 205.632 91.3208 205.11 91.4145C203.033 91.7873 200.529 92.2369 201.107 92.5581L202.556 92.2566C202.252 92.6104 201.308 92.6846 200.505 92.7477C199.711 92.81 199.057 92.8614 199.297 93.1611C199.589 93.1611 199.881 93.0874 200.201 93.0069C200.409 92.9545 200.628 92.8993 200.866 92.8596C199.538 93.3621 199.9 93.6636 202.073 93.4626L203.485 92.7769L202.194 92.8596L207.264 91.9551C206.962 92.1561 206.238 92.2566 205.513 92.3571C204.789 92.4576 204.065 92.5581 203.763 92.7591L203.674 92.7648C204.668 92.7903 205.439 92.5797 206.267 92.3537C207.066 92.1354 207.918 91.9028 209.074 91.8546C209.074 91.8857 209.109 91.9072 209.143 91.928C209.218 91.9744 209.287 92.0173 208.954 92.1561C206.781 92.4576 204.004 93.0606 202.797 93.4626C204.246 93.1755 204.039 93.3477 203.843 93.5106C203.696 93.6328 203.556 93.7497 204.125 93.6636C202.225 93.9602 201.844 94.1838 201.444 94.4182C201.031 94.6604 200.598 94.9141 198.452 95.2716C198.823 95.148 199.148 94.9864 199.456 94.8336C199.649 94.7378 199.835 94.6455 200.021 94.5681C197.41 94.9187 196.679 95.3182 195.984 95.6984C195.683 95.8631 195.389 96.0241 194.951 96.176C194.429 96.255 193.796 96.2409 193.088 96.2251H193.088C191.992 96.2008 190.718 96.1724 189.398 96.4775C187.572 96.536 187.054 96.7646 186.464 97.0248C186.04 97.2117 185.579 97.4149 184.57 97.583C184.877 97.157 186.658 96.8033 188.076 96.5217C188.331 96.4712 188.574 96.4229 188.795 96.377H188.312C188.432 96.377 188.674 96.377 188.674 96.2765C187.775 96.2765 186.414 96.5463 185.309 96.7652L185.309 96.7652C183.891 97.0462 182.895 97.2434 183.845 96.6785C186.782 96.4628 189.225 95.8353 191.837 95.1644L191.837 95.1643L191.837 95.1642L191.837 95.1642L191.838 95.1641L191.838 95.164L191.839 95.1637C192.876 94.8973 193.94 94.6241 195.072 94.3671C195.764 94.319 196.456 94.2251 197.083 94.1401L197.083 94.1401C197.767 94.0473 198.373 93.9651 198.814 93.9651C199.176 93.4626 199.297 93.1611 197.848 93.0606C196.881 93.3424 196.437 93.5436 196.042 93.7223C195.452 93.9896 194.973 94.2066 193.02 94.5681C191.723 94.688 190.211 94.987 188.766 95.2727L188.766 95.2728C187.79 95.4657 186.845 95.6525 186.018 95.774L186.501 96.0755C185.768 96.2419 184.851 96.3777 183.913 96.5167C183.151 96.6295 182.376 96.7444 181.673 96.8795C180.367 97.0468 179.312 97.214 179.064 97.3813C178.91 97.2906 178.035 97.3244 177.085 97.4825L178.534 97.0805C178.217 96.9925 177.276 97.0201 176.418 97.0452C175.317 97.0774 174.355 97.1055 175.033 96.8795C173.403 97.0492 172.525 97.2189 171.765 97.3659C170.724 97.5671 169.902 97.7259 167.67 97.784C166.383 97.8269 165.469 98.1074 164.441 98.4229C163.06 98.847 161.472 99.3343 158.496 99.3919C158.039 99.2017 158.853 99.0564 159.594 98.9242C160.418 98.7771 161.152 98.6462 159.944 98.4875C155.487 98.759 154.163 99.112 152.533 99.5466C152.353 99.5945 152.169 99.6435 151.977 99.6934C153.058 99.7626 152.765 99.9271 152.478 100.088C152.348 100.161 152.219 100.234 152.219 100.296H150.046C150.227 100.095 150.499 100.095 150.861 100.095C151.223 100.095 151.675 100.095 152.219 99.8944C152.073 99.8823 151.934 99.8702 151.8 99.8584L151.798 99.8583C150.818 99.7725 150.053 99.7056 148.356 99.7939L149.201 99.4924C148.614 99.4517 147.967 99.4936 147.389 99.5309C146.542 99.5858 145.844 99.6309 145.7 99.3919L142.924 99.9949C141.035 99.7805 140.123 99.922 139.015 100.094C138.566 100.164 138.084 100.238 137.492 100.296L139.423 100.497L137.009 100.397C136.23 100.49 136.477 100.582 136.697 100.665C136.956 100.762 137.178 100.845 135.681 100.899C136.67 100.642 135.918 100.569 134.982 100.478C134.089 100.392 133.028 100.289 133.146 99.9949C134.474 100.095 136.888 100.095 136.405 99.7939C135.44 99.7939 133.75 99.4924 132.422 99.1909C132.529 99.2356 132.16 99.2406 131.705 99.2411C131.443 99.2753 131.103 99.2646 130.748 99.2483C130.545 99.2549 130.399 99.2674 130.37 99.2915L132.18 100.598C131.54 100.758 130.696 100.437 129.811 100.101C129.027 99.8028 128.21 99.4924 127.473 99.4924C128.863 99.4398 128.665 99.4148 128.231 99.3596C127.835 99.3093 127.242 99.2341 127.473 99.0905C126.775 99.1351 126.055 99.1897 125.319 99.2453L125.318 99.2454C122.742 99.4403 119.988 99.6488 117.453 99.4924L118.419 99.2915C117.309 99.3888 116.877 99.3212 116.413 99.2484C115.918 99.1708 115.385 99.0873 113.953 99.1909C113.496 99.2332 113.829 99.2577 114.224 99.2868C114.769 99.327 115.434 99.3759 114.315 99.4924C102.968 98.8895 91.1381 97.784 80.6361 96.4775C80.8882 96.1277 78.7415 95.7779 76.8028 95.4619L76.8025 95.4619L76.8023 95.4618C75.9565 95.324 75.1504 95.1926 74.6004 95.0705C73.6655 95.0705 74.2504 95.3683 75.1241 95.4513C73.2355 95.3565 72.1544 95.2433 70.1341 94.8696C69.4098 94.3671 67.4784 94.0656 65.9091 93.9651C66.1053 93.9379 66.1863 93.8885 66.2578 93.845C66.4502 93.7279 66.5731 93.6531 68.6855 94.1661C68.3773 94.0561 68.8239 94.0264 69.3106 93.9939C70.1584 93.9375 71.1281 93.8728 68.4441 93.3621C64.3399 93.2616 59.6321 92.7591 54.9243 91.7541C53.7887 91.4533 52.8959 91.2628 52.1515 91.1039C51.1551 90.8912 50.4246 90.7353 49.7336 90.4477H50.4579C49.1761 90.0596 48.7942 90.1398 48.3349 90.2362L48.2851 90.2467C46.1122 89.6437 47.5608 89.5432 48.2851 89.5432C47.3777 89.3372 46.583 89.1781 45.8626 89.0338C45.5288 88.967 45.2109 88.9034 44.9051 88.8397C44.4778 88.7508 44.0742 88.6815 43.6837 88.6145L43.6834 88.6145L43.6831 88.6144C43.1913 88.53 42.7204 88.4492 42.2494 88.3372C40.5595 88.0357 38.8695 87.6337 36.2138 86.7293C35.7895 86.533 35.715 86.3981 35.6381 86.2586C35.5179 86.041 35.3917 85.8123 33.9203 85.3223C26.1946 82.8099 19.7969 80.5989 12.9163 75.775L11.4677 74.3681C10.9284 74.2184 10.4561 74.0131 9.95104 73.7935L9.95096 73.7934C9.77769 73.7181 9.60058 73.6411 9.41558 73.5641C6.51848 70.9511 3.98351 68.2377 2.17282 65.0218C0.362132 61.9064 -0.482857 58.0875 0.603558 54.1681C0.482845 54.972 0.362132 55.8765 0.482845 56.2785C0.482845 55.6755 0.482845 54.972 0.603558 54.3691C0.663914 54.0676 0.694092 53.7409 0.72427 53.4143C0.754448 53.0877 0.784627 52.7611 0.844983 52.4596C0.965696 51.8566 1.08641 51.2536 1.32783 50.6507C1.56926 50.0477 1.81068 49.5452 2.17282 49.0427C2.05211 48.9422 2.53496 49.2437 2.65567 49.4447C2.93203 48.9462 3.17764 48.4806 3.41176 48.0368C4.40482 46.1543 5.19142 44.6631 7.24276 42.7113C7.43755 42.5897 7.318 42.7625 7.17736 42.9658C6.9694 43.2663 6.71535 43.6335 7.36347 43.2138C7.84632 42.7113 8.32917 42.2089 8.81202 41.8069C8.12326 42.5714 8.79298 42.205 9.28325 41.9368C9.56632 41.7819 9.78956 41.6597 9.65701 41.8069C9.57232 41.8774 9.45793 41.9479 9.32946 42.0271C9.09169 42.1736 8.8057 42.3499 8.57059 42.6109C8.73084 42.7443 9.42291 42.3021 10.1879 41.8133L10.188 41.8133L10.188 41.8133C10.5755 41.5657 10.9817 41.3061 11.347 41.1034C11.9505 40.6009 12.4334 40.0984 11.7091 40.3999C12.6001 39.9672 12.532 40.0668 12.4038 40.2544C12.3236 40.3717 12.2198 40.5235 12.3127 40.6009C14.1234 39.4954 14.1234 39.2944 14.1234 38.8924L14.1233 38.8924C14.0794 38.8741 14.0435 38.8592 14.0061 38.8506C13.838 38.8119 13.6403 38.9017 12.5541 39.3949C13.1833 39.0021 13.915 38.6519 14.6156 38.3165C14.9903 38.1372 15.3561 37.9621 15.6926 37.787C16.6583 37.2845 17.624 36.8825 18.3483 36.6815L19.314 35.8775H19.7969C19.7969 35.777 19.7969 35.6765 19.9176 35.576L19.6762 35.6765C20.1016 35.3882 20.5523 35.1046 21.0249 34.8255C20.8264 34.9068 20.6565 34.9744 20.5099 35.0326L20.5096 35.0328L20.5087 35.0331L20.5086 35.0332C20.3738 35.0868 20.2587 35.1325 20.159 35.174L20.2799 35.1111C20.8437 34.8175 21.5112 34.4697 22.1063 34.2148C26.4085 31.8856 32.1504 29.8734 37.3816 28.0402C38.5544 27.6293 39.7014 27.2273 40.8009 26.8327L40.8009 26.8327L40.801 26.8327L40.8011 26.8327L40.8011 26.8327L40.8012 26.8327L40.8012 26.8327L40.8013 26.8327L40.8013 26.8327L40.8014 26.8326L40.8015 26.8326L40.8015 26.8326L40.8016 26.8326L40.8016 26.8326L40.8017 26.8326L40.8017 26.8326L40.8018 26.8326L40.8019 26.8326L40.8019 26.8325L40.802 26.8325L40.802 26.8325L40.8021 26.8325L40.8021 26.8325L40.8022 26.8325L40.8023 26.8325L40.8023 26.8325L40.8024 26.8324L40.8024 26.8324L40.8025 26.8324L40.8025 26.8324L40.8026 26.8324L40.8027 26.8324L40.8027 26.8324L40.8028 26.8324L40.8028 26.8324L40.8029 26.8323L40.8029 26.8323L40.803 26.8323L40.8031 26.8323L40.8031 26.8323L40.8032 26.8323L40.8032 26.8323L40.8033 26.8323L40.8033 26.8323L40.8034 26.8322L40.8035 26.8322C42.734 26.3299 44.6645 25.8276 46.5951 25.4258C45.4314 25.8661 43.8738 26.3644 42.3995 26.836L42.3993 26.836L42.3992 26.836L42.3989 26.8361L42.3984 26.8363L42.3984 26.8363C40.5084 27.4408 38.7555 28.0015 38.1452 28.3402L39.3523 27.9382C39.5421 27.9382 39.2472 28.0313 38.8119 28.1687L38.8119 28.1688L38.8119 28.1688C38.1394 28.3811 37.1321 28.6992 37.0588 28.9432L38.8695 28.6417C40.1853 28.3559 40.5251 28.0701 40.8139 27.8272C41.1345 27.5575 41.3925 27.3405 42.853 27.2347C41.0015 27.8513 41.4219 27.8111 41.9685 27.7589C42.491 27.709 43.1289 27.648 42.008 28.1392C43.0223 28.0454 43.9314 27.5136 45.03 26.8709C45.1081 26.8252 45.1871 26.7789 45.2673 26.7323C44.6898 26.9383 44.056 27.0974 43.4814 27.2416L43.4813 27.2416C43.2151 27.3085 42.9616 27.3721 42.7323 27.4357C42.9349 27.267 43.6266 27.0629 44.3879 26.8382C45.4406 26.5276 46.6264 26.1777 46.8365 25.8278C47.4401 25.6268 47.6815 25.6268 47.9229 25.6268C48.6118 25.4356 49.0822 25.4263 49.4382 25.5123L49.5526 25.4878L49.6203 25.4732C49.8223 25.3904 50.0388 25.3076 50.3372 25.2248C50.0958 25.0238 51.7857 24.3203 53.4757 24.0188C53.633 23.9752 53.4943 24.0452 53.2772 24.1549L53.2772 24.155C52.9943 24.2979 52.5783 24.5081 52.51 24.6218C54.0501 24.5302 55.4899 24.2717 57.0122 23.9984C57.1604 23.9718 57.3093 23.9451 57.4592 23.9183C57.7559 23.8613 58.0611 23.8007 58.3742 23.7386L58.3758 23.7383L58.3763 23.7382C59.7189 23.4717 61.2051 23.1768 62.7706 23.0138C61.6405 23.0862 60.9487 23.0022 60.5147 22.9496C60.346 22.9291 60.2163 22.9133 60.1149 22.9133C60.4771 22.8128 60.8392 22.7123 61.322 22.6119C61.322 22.5439 61.7084 22.43 62.1452 22.3012L62.147 22.3007C62.2162 22.2803 62.2866 22.2595 62.357 22.2385L61.805 22.4108C62.8913 22.2099 63.9777 22.0089 64.5813 21.7074C64.9434 21.5064 65.3056 21.3054 66.6334 21.4059C66.1852 21.4805 65.9366 21.6106 65.7395 21.7137C65.6712 21.7495 65.6091 21.782 65.547 21.8079C66.0298 21.7074 66.4824 21.632 66.9351 21.5566L66.9352 21.5566C67.3878 21.4813 67.8405 21.4059 68.3234 21.3054C68.4441 21.4059 69.0477 21.7074 70.7376 21.5064L70.0134 21.0039C72.3625 20.7866 72.8303 20.7259 73.5412 20.6337C73.8166 20.598 74.1285 20.5575 74.6004 20.5014C75.7906 20.71 77.9885 20.2962 79.912 19.934C81.6953 19.5982 83.2428 19.3068 83.5332 19.5969L80.2739 19.9989C80.9068 20.157 80.113 20.5084 79.4058 20.8215C78.7641 21.1055 78.1937 21.3581 78.8254 21.4059L82.8089 20.5014C80.9982 20.5014 81.8432 20.1999 83.171 19.8984C84.4989 19.5969 86.0681 19.1949 85.706 18.9939C86.318 18.9212 86.8666 18.9011 87.4093 18.8812C88.3652 18.8463 89.3025 18.812 90.5345 18.4915C91.2269 18.4434 91.0091 18.5561 90.7777 18.6759C90.525 18.8067 90.2559 18.9459 91.1381 18.8934C91.642 18.8095 91.8724 18.7081 92.0928 18.6111C92.3987 18.4765 92.6852 18.3504 93.6563 18.2915C93.5137 18.3069 93.0794 18.4956 93.3109 18.592C94.3486 18.538 94.6546 18.4259 95.0338 18.2871C95.3604 18.1675 95.7413 18.028 96.6909 17.8885H96.208C97.1737 17.4865 98.743 17.788 99.2258 17.8885C100.131 17.7377 101.006 17.6121 101.882 17.4865C102.757 17.3609 103.632 17.2352 104.537 17.0845C104.33 17.1881 103.88 17.3036 103.447 17.4146C102.621 17.6267 101.859 17.8225 102.968 17.8885C102.15 18.2061 100.521 18.2779 99.0123 18.3443C97.18 18.425 95.5265 18.4978 95.7252 18.9939C96.4305 19.0391 97.2577 18.9016 98.0862 18.7638C99.1012 18.5951 100.118 18.426 100.916 18.592C101.166 18.3141 102.397 18.1323 103.651 17.947C104.211 17.8641 104.777 17.7806 105.261 17.6875L105.744 17.788C107.343 17.6894 107.373 17.4941 107.402 17.3089C107.433 17.1164 107.461 16.9347 109.245 16.8835C109.408 16.9515 109.378 17.0311 109.351 17.1027C109.298 17.2426 109.256 17.352 110.694 17.2855C110.796 17.257 110.937 17.2286 111.09 17.1979C111.476 17.12 111.935 17.0276 112.021 16.8835H111.418C110.814 16.6825 114.073 16.582 115.643 16.582C114.798 16.783 114.556 16.984 116.005 17.0845C114.623 17.1368 114.091 17.3524 113.575 17.5613C113.1 17.7538 112.639 17.9408 111.539 17.989C111.708 17.9488 111.939 17.9005 112.19 17.8483C113.195 17.6392 114.508 17.3659 113.349 17.2855C112.081 17.2195 110.969 17.4135 109.671 17.6398C108.993 17.7582 108.263 17.8854 107.434 17.989H108.762C109.011 18.2993 107.916 18.4765 106.713 18.6714C105.6 18.8516 104.394 19.047 104.072 19.3767C103.633 19.4136 103.142 19.4659 102.698 19.5132C102.393 19.5456 102.111 19.5757 101.882 19.5969L102.968 19.1949C101.148 19.0867 100.518 19.2407 99.7779 19.4216C99.1432 19.5767 98.4275 19.7515 96.8116 19.7979C96.8987 19.7254 97.5991 19.6005 98.3283 19.4704C99.6192 19.2402 101 18.9939 99.2258 18.9939C99.2258 19.1473 98.6325 19.1966 98.0176 19.2478C97.4236 19.2972 96.8095 19.3483 96.6909 19.4964C96.3287 19.4462 95.9364 19.3959 95.5441 19.3457C95.1518 19.2954 94.7595 19.2452 94.3973 19.1949C92.4659 19.4964 90.0517 19.9989 88.8445 20.3004C89.3779 20.1339 89.8377 20.0287 90.3255 19.917C90.7208 19.8266 91.1346 19.7319 91.6209 19.5969C90.4559 19.7733 89.5465 19.7562 88.7295 19.7409C87.6841 19.7213 86.7901 19.7045 85.706 20.0994H87.2753C85.2835 20.2837 84.4075 20.4679 83.5315 20.6521L83.4489 20.6695L83.2917 20.7024C82.5675 21.1044 84.3782 21.1044 85.706 21.0039C85.3396 21.0378 84.8359 21.0602 84.3292 21.0828C83.3334 21.1273 82.326 21.1722 82.326 21.3054C81.1189 21.2049 79.9118 21.6069 79.5497 21.8079C78.215 21.8732 78.31 21.8111 78.4732 21.7043C78.5609 21.6469 78.6684 21.5767 78.584 21.5064C78.0264 21.6492 77.1946 21.7793 76.3863 21.9058C74.9195 22.1353 73.5299 22.3527 73.9969 22.6119C74.2429 22.6119 74.6562 22.5539 75.0615 22.497C75.8492 22.3864 76.6069 22.2801 76.049 22.6119C75.6758 22.4565 75.4308 22.568 75.0828 22.7263C74.7555 22.8752 74.3369 23.0656 73.6347 23.1143C74.9331 22.682 73.9273 22.7437 73.0205 22.7994C72.2411 22.8472 71.5349 22.8906 72.4276 22.6119C70.9298 22.7989 70.2219 23.0246 69.4679 23.265L69.4678 23.265C69.0064 23.4121 68.5278 23.5647 67.8405 23.7173L67.7198 23.4158C67.237 23.5163 66.7843 23.6168 66.3316 23.7173C65.8789 23.8178 65.4263 23.9183 64.9434 24.0188C64.6917 23.914 64.7024 23.7728 64.7121 23.6458C64.7303 23.4074 64.7446 23.2191 63.012 23.4158C62.2552 23.7309 61.9247 23.9996 61.6065 24.2584C61.1126 24.6599 60.6485 25.0373 58.6664 25.5263L59.1492 24.9233C58.1835 25.0238 55.045 25.8278 55.4071 26.0288C56.1314 26.0288 57.2178 26.0288 58.4249 25.8278L58.0628 25.9283C57.2597 26.2148 57.9014 26.229 58.4204 26.2405C58.9935 26.2532 59.4171 26.2626 57.5799 26.6318C58.0833 26.073 55.3799 26.388 52.995 26.6658C51.9484 26.7878 50.9631 26.9026 50.3372 26.9332C49.1301 27.3352 46.8365 28.1392 46.233 28.5412C46.3302 28.6221 46.6818 28.6053 47.0199 28.5891C47.5215 28.5651 47.9934 28.5425 47.5608 28.8427C45.3298 29.2039 43.7987 29.7504 42.2815 30.2921C40.8435 30.8054 39.4181 31.3143 37.4209 31.6566C37.5416 31.5561 37.5416 31.4556 36.4552 31.8576H35.8517L36.2138 31.7571C36.8766 31.363 36.7967 31.4017 36.3237 31.6306C36.1936 31.6936 36.0339 31.7709 35.8517 31.8576C35.6258 31.9328 35.383 32.0362 35.1359 32.1414L35.1359 32.1414C34.7228 32.3173 34.2979 32.4982 33.9203 32.5611C33.2816 32.7383 32.6846 32.9503 32.1048 33.1562C31.6984 33.3005 31.3004 33.4418 30.9024 33.5661C30.8278 33.5661 30.661 33.6812 30.4305 33.8404C30.288 33.9387 30.1212 34.0539 29.9367 34.1691L29.9366 34.1692C29.5745 34.3701 29.2124 34.5711 28.971 34.6716C28.8206 34.9846 28.0145 35.1416 27.1361 35.3127H27.1361C26.73 35.3918 26.3085 35.4739 25.9292 35.5758C25.9775 35.5514 26.0257 35.5246 26.0739 35.4979C26.1544 35.4532 26.2349 35.4085 26.3154 35.375C25.361 35.7022 24.7199 36.1163 24.1008 36.5163C23.3886 36.9763 22.7053 37.4177 21.6076 37.6865H21.2454C21.3837 37.6097 21.5221 37.5476 21.6402 37.4945C21.8314 37.4087 21.9697 37.3466 21.9697 37.2845C21.7424 37.3476 21.5626 37.4502 21.4006 37.5428C21.3045 37.5977 21.2146 37.6491 21.1247 37.6865C20.2797 37.988 20.2797 37.988 20.6419 37.8875C19.9908 38.2489 19.7055 38.4478 19.3914 38.6668C19.0067 38.9351 18.5788 39.2335 17.3826 39.8974L18.5897 39.3949C18.1069 39.6964 17.7448 39.8974 17.5033 39.9979C17.3798 40.0802 17.2361 40.1782 17.0756 40.2892C17.0333 40.274 17.0124 40.2437 16.9925 40.215C16.9075 40.0923 16.8411 39.9966 15.2098 41.2039C15.5729 41.083 15.3243 41.2167 14.8057 41.4956L14.8056 41.4957C14.4622 41.6804 14.0006 41.9287 13.5198 42.2089C12.192 43.0128 10.7434 44.0178 10.502 44.6208C10.7192 44.6208 11.1103 44.4399 11.5448 44.1868C11.4773 44.2323 11.4113 44.2765 11.347 44.3193C11.0344 44.7357 10.8513 45.0713 10.6971 45.3539C10.5536 45.6169 10.4351 45.834 10.2606 46.0278C10.1759 46.2393 10.0318 46.4013 9.86996 46.5833C9.80111 46.6607 9.72906 46.7418 9.65701 46.8317C9.41558 47.2337 9.05345 47.5352 8.32917 47.8367L8.20846 47.3342C7.75214 47.7774 7.34375 48.2606 6.92289 48.7584L6.92275 48.7586L6.92266 48.7587C6.67559 49.051 6.42422 49.3483 6.15634 49.6457C6.27705 49.2437 5.19064 50.3492 4.34565 51.9571V51.8566C3.25924 52.7611 3.13852 54.771 3.25924 55.575C3.25924 55.7357 3.27157 55.958 3.28442 56.1893C3.31175 56.6816 3.34136 57.2151 3.25924 57.2835C3.50066 57.4845 3.62137 57.8865 3.74209 58.4895C3.74209 58.791 3.8628 59.0924 3.98351 59.3939C3.98351 59.6954 4.10423 60.0974 4.22494 60.3989C4.22494 60.4994 4.22494 60.7004 4.34565 60.9014V60.7004C4.46461 61.2451 4.7008 61.5946 4.96758 61.9894C5.24222 62.3958 5.54927 62.8502 5.7942 63.6148C6.20882 64.5641 6.0894 64.55 5.89452 64.5271C5.86244 64.5233 5.82832 64.5193 5.7942 64.5193C5.55278 64.5193 5.31135 64.5193 6.15634 65.7253C6.51848 66.1273 6.88062 66.4288 7.24276 66.7303C7.32107 66.9259 7.29777 66.91 7.20581 66.8472C7.15603 66.8132 7.08612 66.7656 7.00133 66.7303C7.35158 67.0583 7.62244 67.3996 7.86573 67.7061C8.29324 68.2447 8.63564 68.6762 9.17416 68.7402C8.6692 68.1797 8.34026 67.668 8.06463 67.2392L8.0646 67.2392L8.06452 67.2391C7.94485 67.0529 7.83523 66.8824 7.72561 66.7303C7.54461 66.4791 7.36361 66.1777 7.15246 65.8262L7.15225 65.8258L7.15221 65.8258C6.94097 65.474 6.69954 65.072 6.39777 64.6198C6.88062 65.2228 7.24276 65.6248 7.60489 65.9263L8.57059 66.7303L10.6227 68.4387C10.7994 68.4387 10.6527 68.2771 10.4667 68.0723C10.3986 67.9973 10.3253 67.9165 10.2606 67.8357C11.2263 68.7402 11.8298 69.6447 11.2263 69.3432C11.698 69.7359 12.0834 69.9128 12.5089 70.1082L12.509 70.1082C12.9545 70.3128 13.4442 70.5376 14.1234 71.0516L14.7269 70.6497C15.2098 70.9511 15.6926 71.2777 16.1754 71.6043C16.6583 71.931 17.1412 72.2576 17.624 72.5591C17.9055 72.76 18.187 72.972 18.4684 73.184L18.469 73.1844C19.0323 73.6087 19.5957 74.0331 20.159 74.3681C19.3289 73.9073 18.4988 73.5311 17.7269 73.1812L17.7268 73.1812L17.7261 73.1809L17.726 73.1808C16.8144 72.7677 15.984 72.3914 15.3305 71.9561C15.3305 72.2576 14.9684 72.1571 14.4855 71.9561C14.3499 71.8997 14.2144 71.8116 14.0574 71.7095L14.0573 71.7094C13.9348 71.6298 13.7992 71.5417 13.6405 71.4536C13.2784 71.2526 13.037 71.0517 12.6748 70.7502C11.9846 70.28 11.2944 69.6741 10.7228 69.1723C10.1948 68.7088 9.76815 68.3342 9.5363 68.2377C9.90371 68.6747 9.6321 68.5607 9.36648 68.4491C9.02123 68.3042 8.68612 68.1635 9.77772 69.2427C10.6861 69.7469 11.1673 70.172 11.7273 70.6668L11.7273 70.6669L11.7275 70.667C12.0604 70.9612 12.4212 71.28 12.9163 71.6546C13.1219 71.997 12.8897 71.9749 12.7417 71.9608C12.716 71.9583 12.6927 71.9561 12.6748 71.9561C12.5541 71.9561 12.6748 72.1571 14.0027 73.0616C13.5608 72.6937 13.9024 72.7677 14.1949 72.8311C14.5415 72.9062 14.8191 72.9663 13.6405 72.2576C14.6062 72.7601 15.3305 73.1621 15.9341 73.5641C16.1906 73.7065 16.4169 73.8363 16.629 73.9579C17.0156 74.1797 17.355 74.3744 17.7448 74.5691C18.9007 75.2427 19.946 75.7321 21.7286 76.5666L21.9697 76.6795C20.3934 75.9224 20.7963 76.0019 21.3739 76.1157C21.9463 76.2286 22.6902 76.3753 21.849 75.775C21.849 76.0258 20.5863 75.4506 19.7863 75.0862C18.9833 74.7204 18.6466 74.567 20.5212 75.6745L19.0726 74.971L17.7448 74.2676C17.7007 74.1574 18.0755 74.3022 18.4631 74.4518C19.1364 74.7118 19.848 74.9865 18.469 73.9661C19.6762 74.4686 20.5212 74.8706 21.2454 75.2725C21.9697 75.6745 22.8147 76.0765 24.0218 76.378C23.6689 76.4368 24.3476 76.8734 25.0205 77.3063C25.4986 77.6139 25.9737 77.9195 26.0739 78.0865C26.4361 78.2205 26.8116 78.321 27.1872 78.4215C27.9383 78.6225 28.6894 78.8235 29.3332 79.2924L27.5225 78.79C28.3587 79.1878 28.7516 79.4625 29.1252 79.7239C29.5067 79.9907 29.8682 80.2435 30.661 80.5989C31.6267 80.9004 31.8681 80.6994 31.506 80.3979C32.7131 81.0009 34.041 81.4029 35.3688 81.8049C36.0327 82.0561 36.6966 82.2822 37.3606 82.5084C38.0245 82.7345 38.6884 82.9606 39.3523 83.2119C37.5774 82.6841 37.4336 82.7938 37.3127 82.8859C37.2034 82.9693 37.1128 83.0384 35.8517 82.6089C36.1535 82.7596 36.4854 82.8852 36.8174 83.0109L36.8176 83.0109L36.8176 83.0109C37.1495 83.1365 37.4814 83.2621 37.7831 83.4128C41.7666 84.2168 47.9229 85.3223 49.1301 84.9203C51.3719 85.2936 52.2606 85.6669 53.1493 86.0401C53.2177 86.0689 53.286 86.0976 53.355 86.1263C54.1845 86.5209 55.2467 86.9156 58.1406 87.12C57.9079 87.1221 58.0439 87.2449 58.195 87.3814C58.3554 87.5263 58.5329 87.6866 58.3042 87.7342C58.501 87.7752 58.7278 87.8245 58.9735 87.8779L58.9736 87.8779L58.9738 87.8779C59.9338 88.0866 61.1814 88.3577 62.0463 88.4377C61.6842 88.287 61.322 88.1613 60.9599 88.0357C60.5978 87.9101 60.2356 87.7845 59.8735 87.6337C61.4716 87.8073 63.4298 88.2139 65.4025 88.6236L65.4027 88.6237L65.4036 88.6239L65.4042 88.624C66.858 88.9259 68.3198 89.2295 69.6512 89.4427C69.3786 89.4427 69.3625 89.4996 69.3455 89.56C69.3172 89.6599 69.2864 89.769 68.082 89.6437C68.082 89.8758 69.3698 90.1079 70.4032 90.2942L70.4041 90.2943C70.7127 90.3499 70.9985 90.4015 71.2205 90.4477C72.2599 90.5438 72.4706 90.433 72.6983 90.3132C72.9466 90.1826 73.2152 90.0413 74.6004 90.1462C88.3617 92.4576 102.244 93.5631 116.126 94.1661C130.128 94.6686 144.131 94.6686 158.254 94.0656V94.2666C159.039 94.2039 159.828 94.1413 160.62 94.0784L160.62 94.0783C168.723 93.4346 177.2 92.7612 185.777 91.7541C195.192 90.6487 204.729 89.2417 213.782 87.3322L213.541 87.2318C216.345 87.0331 217.114 86.6135 217.933 86.1672C218.771 85.7103 219.661 85.2253 222.836 84.9203C224.561 83.9794 226.842 83.307 229.233 82.6023C231.695 81.8769 234.272 81.1174 236.476 79.9959ZM58.1406 87.12C58.1825 87.1196 58.2363 87.1232 58.3042 87.1312L58.2083 87.1247L58.1406 87.12ZM12.3797 43.6142C12.397 43.6152 12.4148 43.6158 12.4334 43.6158C12.1436 43.8169 11.8346 44.0179 11.5448 44.1868C11.8034 44.0125 12.0844 43.8194 12.3797 43.6142ZM16.8373 40.455C16.3254 40.8129 15.6851 41.27 15.0031 41.7569L15.0021 41.7576L15.0014 41.7581L15.0009 41.7585C14.135 42.3766 13.2021 43.0426 12.3797 43.6142C12.3389 43.6119 12.3011 43.6072 12.2642 43.6026C12.1135 43.584 11.9777 43.5673 11.7091 43.7163C12.1719 43.4274 12.5792 43.1384 12.971 42.8605L12.971 42.8605C13.3968 42.5585 13.8041 42.2695 14.2441 42.0079C14.5022 41.8544 14.7602 41.6916 15.0286 41.5222L15.0287 41.5221C15.5635 41.1847 16.1391 40.8215 16.8373 40.455ZM16.8373 40.455C16.9361 40.4032 17.0373 40.3513 17.1412 40.2994C17.1146 40.2994 17.0933 40.2956 17.0756 40.2892C16.9998 40.3417 16.9203 40.3971 16.8373 40.455ZM25.5911 35.6765C25.7038 35.6765 25.8165 35.6327 25.9292 35.5758C25.8119 35.6073 25.6986 35.6407 25.5911 35.6765ZM30.7817 33.8676C30.4196 33.9681 30.1782 34.0686 29.9367 34.1691L30.7817 33.8676ZM105.315 19.3576C105.226 19.3441 105.051 19.3543 104.824 19.3676C104.606 19.3804 104.339 19.3959 104.054 19.3959C104.06 19.3895 104.066 19.3831 104.072 19.3767C104.649 19.3283 105.138 19.3065 105.315 19.3576ZM105.382 19.3959C105.382 19.3761 105.359 19.3641 105.315 19.3576C105.35 19.3675 105.373 19.3802 105.382 19.3959ZM93.673 18.2905C93.6681 18.2905 93.6625 18.2908 93.6563 18.2915L93.673 18.2905ZM62.7706 22.1094L62.357 22.2385C62.4988 22.1961 62.6403 22.1527 62.7706 22.1094ZM75.5661 95.4725C75.4137 95.4655 75.2666 95.4584 75.1241 95.4513C75.2656 95.4647 75.4147 95.4725 75.5661 95.4725ZM179.017 97.4825C179.094 97.4396 179.105 97.4059 179.064 97.3813C179.014 97.415 178.997 97.4488 179.017 97.4825ZM151.132 3.71832C150.954 3.71832 150.87 3.73448 150.854 3.76239C150.956 3.75124 151.05 3.73666 151.132 3.71832ZM108.641 1.60787C108.703 1.58499 108.745 1.56146 108.768 1.53739L108.641 1.60787ZM155.84 8.94419C155.932 8.96964 156 8.9822 156.051 8.98676L155.84 8.94419ZM231.71 31.3358L229.958 30.7521C229.905 30.7085 229.921 30.7028 229.946 30.6938C229.965 30.687 229.989 30.6784 229.992 30.6503C230.76 30.9283 231.234 31.1199 231.71 31.3358ZM231.71 31.3358L232.372 31.5561C232.319 31.5782 232.272 31.5809 232.243 31.5791C232.325 31.6002 232.594 31.6957 233.217 32.0586C233.075 31.9895 232.943 31.9253 232.819 31.865L232.814 31.8624C232.597 31.7566 232.405 31.6631 232.226 31.5772L232.222 31.5765L232.218 31.5757C232.216 31.5751 232.215 31.5746 232.214 31.5742C232.214 31.5737 232.216 31.5736 232.219 31.574C232.041 31.4886 231.876 31.4107 231.71 31.3358ZM262.671 66.1273C262.656 66.1654 262.64 66.2052 262.625 66.2459C262.642 66.2067 262.657 66.1671 262.671 66.1273ZM241.938 36.033C241.175 35.6029 240.288 35.1716 239.362 34.8722C240.211 35.2628 241.05 35.6417 241.938 36.033ZM141.864 3.05135L141.839 3.04641C141.35 2.95067 140.768 2.83674 140.027 2.71334C139.941 2.76116 139.827 2.80328 139.725 2.84107C139.399 2.96215 139.193 3.03874 140.389 3.11533C140.749 3.04471 141.259 3.02992 141.864 3.05135ZM64.4606 22.0089C64.4002 22.0591 64.3399 22.0842 64.2795 22.1094L64.4606 22.0089ZM187.588 96.779C187.95 96.6785 188.191 96.6785 188.433 96.6785C188.07 96.6785 187.829 96.6785 187.588 96.779ZM111.539 18.6924L110.694 18.7929L112.384 18.8934C114.884 18.5313 115.231 18.3323 115.804 18.0025C115.867 17.9662 115.933 17.9283 116.005 17.8884C114.078 18.194 112.709 18.2673 110.731 18.3732L110.731 18.3732C110.107 18.4066 109.423 18.4432 108.641 18.4914L111.539 18.6924ZM108.521 16.4814C109.004 16.4814 109.728 16.5819 109.969 16.6824H108.159L108.521 16.4814ZM76.2904 19.0946C76.7129 19.0443 77.1656 19.0192 77.6182 18.9941C78.0709 18.9689 78.5236 18.9438 78.9461 18.8936C79.7911 18.5921 76.6525 18.6926 76.2904 19.0946ZM90.0517 20.5015L88.7238 20.9035C88.1063 20.9969 88.037 20.96 87.9697 20.924C87.8922 20.8827 87.8172 20.8427 86.9131 21.004C87.0339 20.7025 88.7238 20.5015 90.0517 20.5015ZM69.1684 20.2C68.7885 20.4635 68.0766 20.5335 67.4157 20.5985C66.8166 20.6575 66.2594 20.7123 66.0298 20.9034C66.2468 20.8312 66.6979 20.7719 67.1923 20.7069C68.0729 20.5912 69.091 20.4574 69.1684 20.2ZM73.9497 23.3199C73.1107 23.496 72.4212 23.6407 71.8241 23.5164C72.1298 23.2618 73.0649 23.2088 74.0468 23.1531C74.503 23.1272 74.9694 23.1007 75.3874 23.0532C74.8624 23.1283 74.3858 23.2283 73.9497 23.3199ZM75.6869 23.0139C75.5853 23.026 75.4855 23.0392 75.3874 23.0532C75.4904 23.0415 75.5905 23.0285 75.6869 23.0139ZM55.2864 24.0189C55.2864 23.7174 56.4935 23.5164 57.7007 23.3154C57.634 23.3524 57.5714 23.3894 57.5099 23.4258L57.5093 23.4261L57.5091 23.4263C57.3851 23.4996 57.2655 23.5703 57.1256 23.6334C56.9367 23.6881 56.7277 23.7491 56.4935 23.8179C56.7615 23.7733 56.9581 23.7088 57.1256 23.6334C57.5558 23.5087 57.8816 23.4162 58.1624 23.3365L58.1633 23.3363L58.1647 23.3359L58.1656 23.3356C58.8399 23.1442 59.2548 23.0265 60.2356 22.7124C59.954 22.7459 59.6488 22.785 59.3364 22.825C57.7744 23.0251 56.0308 23.2484 56.1314 22.9134C55.045 23.4159 53.7171 24.1194 55.2864 24.0189ZM69.12 24.1647H69.1199C68.7243 24.1757 68.3147 24.187 67.8405 24.2199C69.2778 23.992 69.0464 23.8287 68.9066 23.73C68.7998 23.6546 68.7464 23.6169 69.5305 23.6169L68.9269 24.0189C70.7955 23.63 71.4212 23.8055 71.7879 23.9083L71.824 23.9184C70.6873 24.1212 69.9329 24.1421 69.12 24.1647ZM47.4401 25.1243L48.2851 25.0238C49.1636 24.6337 50.2127 24.3383 51.1702 24.0686C52.1862 23.7824 53.0993 23.5253 53.5964 23.2148C51.3029 23.7173 48.5265 24.6218 47.4401 25.1243ZM60.8392 25.4259L60.9599 24.9234C61.9032 24.6289 61.9251 24.694 61.9537 24.7791C61.9837 24.8683 62.0211 24.9795 63.1327 24.7224C62.7706 24.8229 61.9256 25.0239 61.3221 25.0239C60.9874 25.1632 61.2713 25.1952 61.483 25.2191C61.7295 25.2469 61.8782 25.2637 60.8392 25.4259ZM54.9243 26.7322L52.51 27.5362H54.5621C56.1916 27.0053 55.95 26.9937 55.5211 26.9732C55.2192 26.9587 54.8245 26.9398 54.9243 26.7322ZM51.5443 27.1343H51.7857C50.8769 27.5757 50.4907 27.7401 49.8223 28.0248L49.8221 28.0249C49.4252 28.1939 48.9288 28.4053 48.1644 28.7422C48.9687 28.2958 49.8393 27.9044 50.678 27.5274C50.9721 27.3952 51.2623 27.2647 51.5443 27.1343ZM8.93275 41.7065C8.9315 41.7106 8.93047 41.7146 8.92963 41.7184L8.92862 41.7234L8.92763 41.73C8.75619 41.8265 8.6063 41.9147 8.5322 41.9583L8.53207 41.9584C8.50084 41.9767 8.48312 41.9872 8.48297 41.9869C8.48278 41.9866 8.51292 41.9679 8.58263 41.9245C8.65424 41.88 8.76761 41.8096 8.93275 41.7065ZM9.77774 41.405C9.89608 41.2079 9.34732 41.4938 8.92763 41.73C8.8876 42.0623 10.6048 41.0115 9.77774 41.405ZM17.4211 40.7378L17.4212 40.7378C18.0079 40.3562 18.5031 40.034 18.8312 39.8975C18.9231 39.8975 18.5252 40.1887 17.8507 40.6825C17.6392 40.8373 17.4005 41.012 17.1412 41.2039C16.257 41.6947 15.3728 42.3185 14.6839 42.8047L14.6838 42.8047C14.5262 42.9159 14.3789 43.0199 14.2441 43.1134L14.2441 43.1133C14.727 42.7113 15.6927 41.9074 16.5376 41.3044C16.8472 41.1111 17.1443 40.9179 17.4211 40.7378ZM32.2303 79.5939C31.9889 79.5939 31.8681 79.5939 31.7474 79.4934C31.8078 79.4934 31.8983 79.5185 31.9889 79.5437C32.0794 79.5688 32.1699 79.5939 32.2303 79.5939ZM30.2989 79.0915C29.4539 78.6895 27.5225 77.986 27.1603 78.0865C27.3568 78.1546 27.5511 78.2228 27.7446 78.2907C28.978 78.7234 30.1823 79.146 31.7474 79.4935C31.555 79.4294 31.3502 79.3346 31.1567 79.2451C30.7433 79.0537 30.3811 78.8861 30.2989 79.0915ZM43.0152 83.5627L43.0154 83.5627L43.0156 83.5628L43.0158 83.5628L43.0159 83.5628C43.2744 83.6177 43.5617 83.6786 43.8187 83.7143C44.3015 84.0158 42.6116 83.7143 42.2494 83.5133C42.1716 83.3837 42.5455 83.463 43.0152 83.5627ZM142.562 100.397C144.01 100.497 144.855 100.397 144.493 100.095C143.534 100.152 143.391 100.21 143.249 100.267C143.14 100.31 143.031 100.354 142.562 100.397ZM146.545 100.196L146.304 99.9949L147.511 100.397L146.545 100.196ZM156.323 100.095C156.202 100.095 155.961 100.196 155.719 100.296C156.323 100.196 156.806 100.095 156.323 100.095ZM155.716 100.296H155.478C155.523 100.296 155.569 100.282 155.608 100.269C155.671 100.249 155.716 100.234 155.716 100.296ZM155.478 100.296C155.237 100.296 154.874 100.296 154.874 100.196L154.754 100.397C154.804 100.397 154.895 100.38 155.002 100.359C155.154 100.331 155.337 100.296 155.478 100.296ZM157.409 99.6935L159.341 99.995L157.771 100.397C158.851 100.06 158.007 99.9741 157.39 99.9113C156.903 99.8617 156.557 99.8265 157.409 99.6935ZM165.98 99.392C166.486 99.392 167.048 99.3215 167.619 99.2286C168.456 99.1419 169.241 99.0432 169.086 98.9692C170.035 98.8046 170.891 98.6965 171.412 98.8895C173.863 98.5494 173.634 98.3737 173.411 98.2034C173.174 98.0216 172.944 97.8459 175.999 97.4825C173.154 97.5855 172.527 97.8995 171.911 98.2083C171.324 98.5022 170.746 98.7915 168.273 98.8895C168.773 98.9093 169.019 98.9369 169.086 98.9692C168.9 99.0016 168.71 99.0361 168.518 99.071L168.517 99.0712C168.219 99.1252 167.918 99.18 167.619 99.2286C167.32 99.2595 167.014 99.2889 166.742 99.3151C166.418 99.3462 166.142 99.3728 165.98 99.392ZM167.791 98.588C167.066 98.789 164.773 98.99 165.014 98.6885C165.728 98.3913 166.574 98.4787 167.211 98.5444C167.435 98.5676 167.633 98.588 167.791 98.588ZM176.12 98.387H177.689L178.051 98.186L176.12 98.387ZM180.708 98.3449L182.035 97.8845C182.857 97.8845 182.291 98.0001 181.625 98.1359C181.289 98.2045 180.928 98.2783 180.708 98.3449ZM180.586 98.387L180.708 98.3449C180.66 98.3593 180.619 98.3734 180.586 98.387ZM190.485 97.181C191.933 97.0805 193.14 96.2765 190.122 96.779L190.847 96.6785C190.758 96.7522 190.93 96.7989 191.093 96.8434C191.374 96.9201 191.631 96.9901 190.485 97.181ZM207.384 93.5631C207.143 93.4626 208.229 93.1611 209.195 92.9601H210.04L207.384 93.5631ZM208.35 91.4526C207.801 91.3383 207.096 91.5164 206.257 91.7283C205.832 91.8355 205.373 91.9514 204.883 92.0425C204.667 92.0734 204.42 92.11 204.125 92.1561C204.385 92.1272 204.638 92.0879 204.883 92.0425C205.124 92.0079 205.326 91.9807 205.511 91.9556C206.244 91.8565 206.717 91.7925 208.35 91.4526ZM212.454 92.9601C211.73 93.2616 210.644 93.4626 209.919 93.5631C210.282 93.6636 212.092 93.1611 212.454 92.9601ZM216.679 91.8547C217.215 91.8547 217.119 91.9476 217.051 92.0131C216.997 92.0656 216.961 92.1004 217.283 92.0557C219.214 91.7542 221.146 91.3522 222.111 90.8497C221.508 90.8497 220.783 90.5482 221.387 90.1462C220.344 90.4718 219.505 90.8105 218.784 91.1011L218.783 91.1014L218.783 91.1015C217.502 91.6181 216.597 91.9833 215.593 91.8547L213.299 93.0607C214.664 92.8335 215.026 92.6062 215.388 92.379C215.666 92.2043 215.944 92.0295 216.679 91.8547ZM211.851 91.7541L210.161 91.8546C210.493 91.7854 210.926 91.609 211.37 91.4279C212.216 91.083 213.103 90.7211 213.42 91.0506L213.324 91.0771L213.22 91.1057C212.496 91.3037 211.52 91.5707 211.851 91.7541ZM232.734 87.1313L235.993 85.9253L234.907 86.2268L232.734 87.1313ZM235.148 86.7293L234.907 86.6288L237.442 85.6238L235.148 86.7293ZM238.408 85.6238L238.045 85.7243L236.235 86.5283L238.408 85.6238ZM244.443 83.1113H245.168C244.564 83.2118 242.995 83.8148 242.27 84.1163C242.055 83.9969 242.607 83.8065 243.242 83.5874C243.676 83.4377 244.149 83.2745 244.443 83.1113ZM260.015 67.1323C259.814 67.5518 260.033 67.481 260.321 67.3876C260.378 67.3692 260.438 67.3499 260.498 67.3333L260.739 66.5293C260.659 66.5963 260.578 66.6856 260.498 66.7749C260.337 66.9536 260.176 67.1323 260.015 67.1323ZM263.154 64.1174L262.792 65.0218V64.6199C262.511 64.9311 262.231 65.2425 262.006 65.6004C262.075 65.4828 262.132 65.3638 262.188 65.2228C262.429 64.7204 262.792 64.1174 263.395 63.2129L263.154 64.1174ZM261.959 65.6776C261.975 65.6516 261.99 65.6259 262.006 65.6004C262.002 65.608 261.997 65.6156 261.993 65.6233L261.985 65.6362C261.977 65.65 261.968 65.6638 261.959 65.6776ZM261.959 65.6776C261.912 65.7579 261.867 65.8407 261.826 65.9263C261.584 66.3283 261.222 66.7303 260.86 67.0318C261.222 66.6301 261.463 66.3288 261.705 66.0275L261.705 66.0268C261.809 65.8972 261.89 65.7861 261.959 65.6776ZM114.918 0.904431C114.928 0.901785 114.937 0.899068 114.945 0.896286C114.956 0.901558 114.949 0.904431 114.918 0.904431ZM114.436 0.502441C114.788 0.600292 115.255 0.793417 114.945 0.896286C114.918 0.883132 114.776 0.855079 114.597 0.819712C114 0.701778 112.991 0.502441 114.436 0.502441Z"
								fill="#527A52"
							/>
						</g>
						<defs>
							<clipPath id="clip0_158_518">
								<rect width="271" height="101" fill="white" />
							</clipPath>
						</defs>
					</svg>