<svg viewBox="0 0 154 226" fill="none" xmlns="http://www.w3.org/2000/svg">
                    <path
                        d="M88.9828 154.806C86.0576 157.296 83.2422 159.615 80.4694 161.984C80.1905 162.224 80.1814 162.772 80.0423 163.178C80.428 163.24 80.8183 163.269 81.2089 163.263C84.364 162.959 87.5343 162.567 90.7119 162.362C94.363 162.126 95.8472 164.028 94.7151 167.409C94.2891 168.715 94.4112 168.897 95.7928 168.499C98.1281 167.836 98.8499 168.382 99.6548 170.611C99.7982 170.848 99.9987 171.045 100.238 171.184C100.477 171.323 100.748 171.4 101.024 171.407C104.252 170.942 107.545 171.436 110.495 172.829C111.508 173.285 113.021 174.304 113.014 175.052C112.988 178.045 115.518 178.308 117.131 179.544C118.815 180.749 120.438 182.037 121.994 183.405C122.858 184.219 122.15 185.587 120.87 185.823C119.966 186.019 119.046 186.132 118.121 186.161C116.57 186.159 115.069 185.675 114.603 188.112C114.301 189.665 112.435 189.255 111.268 188.989C109.077 188.492 106.824 187.94 104.835 186.963C103.468 186.291 103.106 186.933 102.504 187.711C101.063 189.575 98.6507 189.741 97.0199 188.007C96.161 187.042 95.3702 186.019 94.6531 184.944C94.0134 184.035 93.5593 183.625 92.3986 184.514C90.4406 186.019 88.526 184.795 86.9313 183.678C81.495 179.921 77.2664 174.666 74.7589 168.552C74.4217 167.742 73.7998 167.255 72.7847 167.918C65.0147 173.003 57.2409 178.033 49.4839 183.117C49.0948 183.371 48.8791 183.899 48.5767 184.29C48.9987 184.395 49.4335 184.44 49.8682 184.424C53.7999 183.652 57.6057 184.447 61.2926 185.599C62.6233 186.016 64.1538 186.913 64.175 188.909C64.1773 189.314 64.9347 189.882 65.4538 190.079C66.8226 190.598 68.2256 191.022 69.6527 191.348C71.3718 191.737 72.1833 192.779 72.4945 194.468C72.5697 194.877 73.2372 195.282 73.7182 195.491C75.9758 196.46 78.2965 197.28 80.5112 198.327C81.1911 198.649 82.0496 199.442 82.1057 200.086C82.3126 202.325 84.1325 202.962 85.4735 204.18C87.0616 205.669 88.498 207.313 89.7615 209.085C90.1843 209.664 90.344 211.043 89.9664 211.463C89.3989 212.099 88.2706 212.417 87.3472 212.509C86.3008 212.59 85.2487 212.458 84.2551 212.12C82.8006 211.637 81.9735 211.71 81.5163 213.441C81.1522 214.818 79.703 214.661 78.7544 214.271C76.3474 213.291 74.0175 212.091 71.7045 210.944C70.7414 210.468 69.8659 209.825 68.9105 209.332C68.7453 209.237 68.5612 209.18 68.3714 209.164C68.1817 209.149 67.9908 209.175 67.8123 209.241C65.1042 211.112 63.1373 209.427 61.2448 207.835C59.7063 206.54 58.5102 206.017 57.1014 208.058C56.7293 208.599 55.2656 208.921 54.5899 208.632C51.6223 207.388 48.558 206.185 45.9276 204.384C43.7444 202.888 42.1286 200.576 40.2271 198.655C40.0956 198.554 39.4696 198.653 39.4346 198.767C38.586 201.223 37.8231 203.628 38.0678 206.369C38.5002 211.095 38.43 215.882 36.4563 220.306C35.2204 223.082 31.0891 226.596 27.6411 225.097C25.7243 224.268 24.4758 221.866 24.3199 219.485C23.9686 214.156 26.1757 209.498 27.8583 204.703C29.0532 201.271 29.1586 201.452 26.2257 199.732C24.4002 198.665 22.8296 197.17 21.1416 195.864C20.4438 195.324 19.7798 194.741 19.0554 194.251C16.5408 192.609 13.9686 191.058 11.5126 189.333C11.253 189.081 11.0498 188.776 10.9166 188.44C10.7833 188.103 10.723 187.742 10.7396 187.38C10.8672 185.26 10.0359 183.572 8.01572 183.043C5.77347 182.476 4.09156 181.321 3.45529 179.124C2.87178 177.108 1.74577 175.227 2.80672 172.783C3.32647 171.567 2.54209 169.577 1.92159 168.121C0.428685 164.631 0.567914 161.106 1.32453 157.569C1.6006 156.276 2.37672 155.031 3.13616 153.913C3.89561 152.795 5.37288 153.173 6.44993 154.619C7.41557 155.915 8.29977 156.908 10.36 156.359C11.2385 156.121 12.6962 157.377 13.638 158.229C14.5119 159.09 15.2316 160.095 15.7659 161.2C16.7102 162.999 18.2546 163.773 20.0445 164.691C22.1021 165.745 23.6933 167.84 25.256 169.685C26.3419 170.969 26.948 172.646 27.9346 174.029C28.4913 174.717 29.1957 175.272 29.9957 175.652C34.0973 177.808 35.8422 181.622 37.2014 185.716C37.4048 186.329 37.35 187.034 37.4753 187.68C37.6066 188.066 37.7799 188.437 37.992 188.786C38.321 188.488 38.6151 188.153 38.8688 187.788C39.4864 186.643 39.8945 185.352 40.6436 184.308C44.2201 179.337 49.0427 175.873 54.445 173.132C54.8385 172.869 55.1982 172.559 55.5157 172.208C55.117 172.052 54.7143 171.734 54.323 171.764C49.8145 172.248 46.0035 169.814 41.8745 168.758C39.9545 168.265 39.5194 166.019 40.4617 164.477C41.1578 163.327 41.1696 162.723 39.7082 162.084C38.3616 161.492 37.1964 160.386 36.0994 159.351C34.6652 157.996 35.1463 156.4 37.0211 155.894C37.3263 155.809 37.7948 155.558 37.8201 155.344C37.7916 154.977 37.6306 154.632 37.367 154.375C35.7754 152.612 34.1099 150.915 32.566 149.114C31.7613 148.176 31.2918 147.129 32.2697 145.865C32.6116 145.423 32.6087 144.498 32.4199 143.897C31.7927 141.899 30.9846 139.954 30.3148 137.959C30.1972 137.605 30.3393 136.81 30.4802 136.779C31.0057 136.666 31.736 136.582 32.105 136.868C33.7327 138.062 35.2539 139.403 36.8308 140.663C37.1478 140.862 37.4855 141.025 37.838 141.15C37.9768 140.845 38.0872 140.528 38.1681 140.203C38.4107 138.673 38.2952 136.686 40.2273 136.423C42.1594 136.16 43.2399 137.684 43.9906 139.334C44.2875 140.133 44.6798 140.893 45.159 141.598C45.5301 142.054 46.3515 142.608 46.8013 142.495C49.3005 141.747 50.0281 143.396 50.6365 145.169C50.8289 145.936 50.9381 146.721 50.962 147.511C51.0093 147.934 51.0177 148.36 51.0456 148.785C51.4105 148.459 51.8187 148.185 52.2588 147.971C53.6674 147.48 55.107 147.081 56.5681 146.779C56.7933 146.737 57.3805 147.571 57.4766 148.066C57.6461 148.943 57.6819 149.841 57.583 150.729C57.321 153.189 59.0695 154.402 60.5561 155.832C63.0821 158.259 64.2137 161.318 64.4554 164.757C64.5238 165.154 64.6352 165.541 64.7875 165.914C65.1511 165.693 65.5301 165.489 65.8848 165.25C69.1953 162.94 72.5738 160.724 75.7884 158.282C79.003 155.84 82.105 153.135 85.2463 150.531C85.4904 150.329 85.5058 149.856 85.6264 149.511C85.3439 149.406 85.0517 149.329 84.7539 149.28C80.1475 149.007 75.6428 147.812 71.5063 145.767C69.3969 144.719 67.2473 143.64 65.2333 142.386C63.6475 141.416 63.5447 139.941 64.2017 138.254C64.2784 137.939 64.2858 137.611 64.2236 137.292C64.1613 136.974 64.0308 136.673 63.8411 136.41C63.102 135.47 62.1124 134.734 61.2921 133.854C60.9719 133.513 60.5595 132.914 60.6615 132.578C61.6559 129.33 58.8486 127.742 57.5468 125.567C56.3071 123.441 55.6634 121.494 56.531 119.006C56.8478 118.083 56.091 116.721 55.7104 115.598C55.1415 113.902 54.2759 112.281 53.9099 110.55C53.5439 108.818 55.073 107.694 56.7573 108.378C58.348 109.024 59.9913 109.542 61.5344 110.28C62.1527 110.663 62.6655 111.194 63.0257 111.825C64.0881 113.388 65.0085 115.052 66.1093 116.581C66.6497 117.332 67.3844 117.567 68.431 117.022C70.4165 115.965 72.2915 117.059 72.7457 119.326C72.8793 119.908 72.9857 120.458 73.0909 121.024C73.2689 121.979 73.4367 122.932 73.6082 123.888C74.4088 123.608 75.202 123.27 76.0043 123.055C77.6205 122.664 77.7702 124.094 78.2305 125.017C79.2695 127.093 80.1847 129.232 81.2545 131.291C81.3993 131.512 81.5957 131.694 81.8265 131.822C82.0574 131.949 82.3158 132.019 82.5796 132.024C85.8326 131.224 87.5804 133.23 88.8398 135.588C89.8676 137.551 90.3714 139.768 91.1265 141.865C91.2684 142.179 91.439 142.479 91.6361 142.761C91.8716 142.517 92.1145 142.278 92.3427 142.029C93.6243 140.591 95.022 139.237 96.1648 137.691C100.571 131.715 103.495 125.013 105.497 117.896C105.928 116.372 106.128 114.769 106.678 113.296C107.289 111.667 106.292 112.104 105.517 112.229C103.356 112.578 101.204 112.981 99.0289 113.325C97.7019 113.531 96.4448 113.691 95.6132 112.079C95.4426 111.748 93.8375 112.2 92.894 112.212C91.3092 112.23 89.6815 112.402 88.159 112.082C87.0945 111.843 86.7248 110.856 87.7073 109.835C87.9393 109.494 88.1126 109.117 88.2201 108.719C87.7486 108.594 87.2709 108.493 86.7888 108.418C84.031 108.095 81.2535 107.926 78.5269 107.435C77.8804 107.339 77.2895 107.015 76.8607 106.521C76.4318 106.028 76.1932 105.398 76.1878 104.744C76.1559 104.03 75.5156 103.348 75.1847 102.613C73.5444 98.8452 71.5997 95.1686 70.3973 91.2722C69.3445 87.8241 70.8627 86.8202 74.3573 87.9116C75.7919 88.3671 77.2305 89.4215 78.8037 87.5083C79.9404 86.1218 82.1554 87.0934 83.865 89.3676C85.1408 91.0552 86.3214 92.4355 88.8126 92.7858C90.91 93.0941 92.7978 94.7529 94.8091 95.7538C95.4557 96.073 96.4966 96.592 96.8553 96.3321C99.2109 94.6154 100.92 96.399 102.602 97.396C104.12 98.2953 105.294 99.7587 106.667 100.914C107.083 101.159 107.533 101.34 108.003 101.451C108.062 101.068 108.094 100.681 108.099 100.293C107.875 96.2483 107.629 92.2099 107.407 88.1718C107.357 87.2694 106.966 87.3227 106.349 87.7043C103.684 89.3389 101.052 89.1547 98.4054 87.5863C97.8864 87.2517 97.2721 87.0965 96.6565 87.1445C93.2696 87.7483 91.1506 85.8523 89.2365 83.4725C88.083 81.9467 86.8259 80.5021 85.4739 79.149C84.7595 78.4796 83.6196 78.2169 82.6286 77.8825C77.1054 76.0163 75.058 71.3552 73.325 66.4234C72.9368 65.3172 72.2854 64.2645 72.1135 63.1504C71.983 62.232 72.0997 60.9032 72.6732 60.3657C73.2466 59.8282 74.6459 59.6725 75.4937 59.9429C78.5769 60.9321 81.6152 62.085 84.6011 63.3434C85.8223 63.8559 86.8341 64.8429 87.9974 65.5208C89.506 66.4015 90.7369 67.5054 92.9642 66.8982C95.1916 66.2911 96.6462 68.5024 97.9954 70.0423C99.2855 71.5074 100.288 73.2168 101.475 74.7774C101.905 75.2549 102.382 75.6871 102.901 76.0671C103.899 76.9273 104.892 77.7884 105.902 78.634C106.315 78.9534 106.735 79.2784 107.171 79.575C107.339 79.1164 107.453 78.64 107.51 78.1553C107.576 73.9783 107.409 69.808 107.715 65.6827C107.859 63.7381 106.942 63.7531 105.726 63.7239C104.407 63.6785 103.083 63.7059 101.762 63.6706C97.4553 63.5456 94.6865 61.0477 92.637 57.5821C91.8614 56.2642 90.7331 55.1892 89.3792 54.4783C86.913 53.0147 84.9185 50.8741 83.6327 48.3107C81.8571 45.0044 80.8697 41.5019 80.1369 37.9044C79.7315 35.8389 80.8385 34.8381 82.769 35.4905C86.4168 36.7236 90.0184 38.0845 93.646 39.3663C94.2587 39.659 94.9238 39.826 95.602 39.8573C97.8451 39.6828 98.4323 41.3925 99.0833 42.9063C100.547 46.3743 102.176 49.6433 105.322 52.0008C106.378 52.8175 106.949 54.2692 107.763 55.4131C108.024 55.7281 108.306 56.0243 108.608 56.2996C108.826 55.9477 108.999 55.5693 109.122 55.1736C109.58 52.6489 110.03 50.112 110.397 47.5693C110.501 46.9165 110.409 46.2474 110.131 45.6473C108.336 42.1855 106.454 38.7677 104.621 35.3238C104.38 34.8804 104.049 34.2971 104.189 33.9268C105.364 30.7475 102.819 28.738 101.864 26.2357C101.735 25.9031 101.462 25.6218 101.308 25.2925C100.268 23.0744 101.049 21.7103 103.375 22.0322C105.439 22.3151 105.509 21.9309 105.004 19.9868C104.22 16.8172 104.113 14.4338 107.534 11.6953C109.177 10.3791 110.146 8.19733 111.329 6.35045C112.512 4.50357 113.524 2.50076 114.752 0.664699C115.029 0.253973 115.87 0.0641455 116.448 0.0727268C116.698 0.0736766 117.097 0.826135 117.148 1.27407C117.365 3.25818 117.419 5.2796 117.683 7.27088C117.947 9.26216 118.575 10.9798 121.079 11.3053C122.536 11.4979 122.932 12.7381 122.312 14.0455C121.824 15.0693 120.958 15.9471 120.617 16.9916C120.356 17.835 120.305 19.0861 120.764 19.7388C121.759 21.1856 121.687 22.4263 120.796 23.7583C120.356 24.4105 119.787 24.9804 119.365 25.6468C118.635 26.7871 118.306 27.8762 119.206 29.2265C119.692 29.958 119.953 31.2813 119.615 32.0422C118.351 35.1342 117.458 38.7649 115.232 40.9788C112.232 43.9665 112.516 47.3052 112.226 50.7535C112.003 53.1561 111.875 55.586 111.75 58.0122C111.785 58.3771 111.872 58.7352 112.008 59.0758C112.318 58.9711 112.607 58.8103 112.859 58.6015C115.364 55.4762 118.915 53.8834 122.48 52.6115C126.205 51.2829 130.149 50.5257 134.037 49.6965C135.056 49.4807 136.243 50.1358 137.297 50.011C139.335 49.7589 141.355 49.3853 143.348 48.8925C144.164 48.706 144.881 48.0579 145.696 47.888C146.511 47.7181 147.277 47.9429 148.082 47.9816C147.955 48.7947 148.077 49.7767 147.655 50.3904C145.723 53.1035 143.243 55.381 140.376 57.0758C138.911 57.9807 137.927 59.631 136.622 60.8349C135.962 61.446 135.092 62.2091 134.303 62.2242C131.14 62.2825 128.99 64.1409 126.692 65.9194C123.785 68.1676 120.722 70.3302 116.733 69.2823C115.421 68.9394 114.262 68.014 113.027 67.3618C112.529 67.0994 112.024 66.861 111.525 66.6152C111.461 67.091 111.365 67.5774 111.337 68.0518C111.151 71.8556 110.982 75.6606 110.829 79.4667C110.82 79.7049 111.03 79.9612 111.127 80.1992C111.406 80.0121 111.844 79.8837 111.94 79.6311C112.904 77.0482 114.93 75.9696 117.493 75.7509C118.242 75.6881 119.068 76.3268 119.795 76.2175C121.994 75.8735 124.173 75.4149 126.323 74.8437C128.315 74.3367 130.274 73.7061 132.187 72.9555C133.302 72.4551 134.34 71.7992 135.27 71.0075C138.444 68.4982 141.818 67.4646 145.747 69.1195C146.513 69.4432 147.474 69.2874 148.27 69.5644C148.919 69.7977 149.737 70.2496 149.936 70.8005C150.088 71.2157 149.52 72.1543 149.02 72.498C146.356 74.3265 143.58 75.9982 140.924 77.8389C140.232 78.3218 139.732 79.0341 139.515 79.8497C138.791 83.7221 137.53 85.1641 133.682 85.1254C131.308 85.0994 129.437 85.661 127.698 87.2068C127.029 87.7616 126.211 88.1076 125.346 88.202C121.724 88.6119 118.035 89.4321 114.521 87.6484C113.73 87.2523 113.012 86.7085 112.233 86.2812C111.961 86.1414 111.653 86.0866 111.35 86.1239C111.256 86.1392 111.181 86.5769 111.178 86.8374C111.44 91.8988 111.711 96.9592 111.991 102.018C112.039 102.228 112.12 102.429 112.231 102.613C112.598 102.395 113.109 102.271 113.323 101.957C114.704 99.7258 116.824 98.4112 119.063 97.2462C119.802 96.8148 120.661 96.632 121.512 96.7248C122.363 96.8177 123.162 97.1811 123.791 97.7618C124.78 98.62 125.596 98.5092 126.503 97.8797C128.723 96.3592 131.268 95.378 133.934 95.0142C135.918 94.7148 137.83 94.0161 139.768 93.4591C140.262 93.2855 140.797 93.2674 141.302 93.4072C141.807 93.547 142.257 93.838 142.591 94.2411C143.694 95.4568 144.875 95.1907 146.259 94.655C148.309 93.9004 150.397 93.2545 152.515 92.72C152.753 92.6657 153 92.6678 153.237 92.7262C153.473 92.7846 153.693 92.8976 153.878 93.0563C154.076 93.3142 153.841 93.9732 153.686 94.4143C152.972 96.501 151.184 98.1255 151.211 100.582C151.217 101.17 150.315 101.967 149.659 102.301C147.928 103.21 146.067 103.873 144.314 104.742C143.218 105.284 142.018 105.635 141.9 107.395C141.844 108.268 140.662 109.357 139.721 109.797C137.707 110.733 135.519 111.289 133.411 112.029C132.954 112.189 132.312 112.347 132.12 112.678C130.603 115.288 128.06 115.02 125.638 115.086C121.45 115.216 118.018 113.349 114.866 110.788C113.991 110.162 113.072 109.598 112.118 109.101C111.951 110.14 111.77 111.167 111.617 112.218C110.724 119.118 109.223 125.882 105.656 132.004C105.543 132.288 105.474 132.588 105.453 132.893L105.239 133.849C105.575 133.776 105.905 133.68 106.227 133.561C108.63 132.5 111.044 131.448 113.411 130.312C115.173 129.485 116.796 129.946 118.489 130.543C119.125 130.686 119.791 130.619 120.387 130.353C122.641 129.492 124.716 128.101 127.352 128.581C129.213 128.917 130.171 129.92 129.803 131.709C129.558 132.886 129.937 132.759 130.778 132.714C133.267 132.561 135.763 132.354 138.248 132.425C139.716 132.468 140.587 133.312 139.891 135.027C139.893 135.263 139.956 135.495 140.074 135.7C140.191 135.906 140.359 136.077 140.561 136.199C145.304 137.322 149.801 138.885 153.011 142.828C153.683 143.651 154.115 144.692 152.505 145.151C151.976 145.36 151.431 145.525 150.875 145.643C147.173 146.05 143.472 146.41 139.774 146.797C138.715 146.906 137.86 147.068 137.382 148.38C136.985 149.504 136.053 150.272 134.4 150.068C131.02 149.637 127.587 149.552 124.174 149.353C123.805 149.331 123.222 149.376 123.083 149.601C121.509 152.126 119.423 151.395 117.408 150.467C115.092 149.4 112.829 148.21 110.581 147.003C107.739 145.476 106.25 142.689 104.475 140.189C103.182 138.366 102.764 138.317 101.424 140.042C100.175 141.657 98.9849 143.324 97.6737 144.891C94.8641 148.183 91.9777 151.417 89.0028 154.833M10.4865 168.358C8.00727 165.523 6.12622 162.474 5.8031 158.604C5.73729 157.934 5.02351 157.347 4.5887 156.701C4.19715 157.271 3.86897 157.883 3.60995 158.525C2.62929 161.907 3.24363 165.144 4.53765 168.34C5.13919 169.828 6.09934 171.493 5.89049 172.926C5.1993 177.594 5.26537 178.06 9.36225 180.283C10.0142 180.609 10.5963 181.059 11.0758 181.608C12.1481 182.94 13.8947 184.343 13.9337 185.757C14.0003 188.057 15.0732 188.724 16.7601 189.608C18.8412 190.692 21.2018 191.876 22.5751 193.656C24.1178 195.733 26.1528 197.393 28.4968 198.488C29.0959 198.77 29.9649 198.484 30.7184 198.454C30.6478 197.669 30.8603 196.678 30.4646 196.132C29.0978 194.148 27.5633 192.285 25.8779 190.564C21.6349 186.424 18.633 181.456 15.7195 176.382C14.1704 173.689 13.1777 170.609 10.4893 168.354M47.8381 186.989C46.9626 187.158 46.1366 187.523 45.4214 188.055C44.7062 188.588 44.1201 189.275 43.7068 190.065C43.3613 190.685 43.2194 190.967 44.3093 191.173C46.702 191.633 49.0454 192.319 51.3081 193.223C54.5108 194.503 57.5839 196.109 60.7596 197.462C65.8347 199.636 71.0057 201.58 76.0349 203.858C79.1066 205.247 81.9777 207.077 84.9576 208.675C85.3444 208.79 85.7482 208.838 86.1511 208.816C86.012 208.474 85.9662 208.013 85.7105 207.815C84.5303 206.902 83.388 205.872 82.0655 205.212C80.743 204.551 79.6567 203.856 79.6274 202.158C79.6688 201.681 79.5543 201.203 79.3011 200.797C79.0479 200.39 78.6697 200.077 78.2233 199.904C75.8489 198.716 73.5359 197.75 70.8285 197.77C69.4831 197.78 68.336 196.636 69.096 195.548C70.7159 193.227 68.3751 193.384 67.5999 193.012C66.4824 192.487 65.087 192.569 63.8441 192.274C62.6012 191.978 61.1617 191.793 61.6622 189.757C62.0153 188.319 60.9674 187.771 59.6908 187.444C55.8517 186.466 51.9724 186.694 47.8082 187.012M71.833 205.093C69.1473 203.839 66.4818 202.536 63.7675 201.342C60.4566 199.885 57.0981 198.519 53.7671 197.11C50.531 195.775 47.332 194.37 44.0457 193.183C43.3243 192.922 41.6792 193.267 41.5672 193.654C41.2546 194.738 41.0299 196.485 41.64 197.085C45.1288 200.502 48.4232 204.125 53.2952 205.919C55.3471 206.672 56.1055 206.061 56.7974 204.698C57.3934 203.513 58.0409 203.091 59.1402 203.783C60.9315 204.918 62.6913 206.116 64.4079 207.362C65.2287 207.961 65.8519 208.175 66.4812 207.172C67.2554 205.938 68.2438 206.509 69.1088 206.992C71.6389 208.394 74.1234 209.878 76.6515 211.29C77.3965 211.709 78.22 211.995 79.0057 212.346C79.0891 211.581 79.1661 210.817 79.2532 210.056C79.2559 209.999 79.3323 209.953 79.3719 209.902C80.2175 208.763 79.4352 208.31 78.5332 207.899C76.4021 206.939 74.2605 206.001 71.8564 205.07M113.832 184.776L117.51 184.369C117.857 184.328 118.208 184.267 118.557 184.216C118.3 183.952 118.083 183.545 117.775 183.453C116.719 183.147 115.647 182.903 114.563 182.72C112.455 182.351 110.278 182.221 108.232 181.642C105.591 180.896 103.065 179.754 100.444 178.877C93.5652 176.581 87.1333 173.504 81.6135 168.674C80.665 167.847 79.3229 167.445 78.1208 166.953C77.8049 166.826 77.33 167.078 76.9287 167.158C76.978 167.521 77.0808 167.874 77.2337 168.206C78.3042 169.91 79.3156 171.668 80.5458 173.256C83.1728 176.654 85.7109 180.13 89.5895 182.242C89.8435 182.361 90.1202 182.423 90.4005 182.426C90.6809 182.428 90.9585 182.37 91.2145 182.255C93.7109 180.764 94.7385 180.998 96.4657 183.461C97.2511 184.575 98.126 185.623 99.0818 186.594C99.8618 187.39 100.59 187.475 101.041 186.13C101.574 184.528 102.734 184.123 104.321 184.667C106.342 185.354 108.388 185.956 110.408 186.613C112.954 187.444 112.948 187.451 113.81 184.766M23.4384 172.624C23.1305 172.164 22.7886 171.728 22.4156 171.319C21.0107 169.987 20.8644 166.65 17.5552 168.248C17.3068 168.366 16.6322 167.879 16.327 167.526C15.9301 166.988 15.5816 166.415 15.2853 165.815C14.189 163.986 13.2132 162.069 11.9337 160.379C11.4824 159.785 10.2979 159.663 9.41729 159.548C9.25681 159.529 8.60216 160.745 8.77444 161.089C9.54863 162.54 10.417 163.94 11.374 165.278C13.2396 168 15.5956 170.488 16.9505 173.439C19.099 178.06 21.9389 182.326 25.3725 186.091C27.3911 188.336 29.6588 190.364 31.7186 192.571C32.5036 193.405 32.9963 194.505 33.7061 195.422C34.0611 195.759 34.4645 196.042 34.9031 196.26C34.9721 196.027 35.1254 195.784 35.0981 195.57C34.5802 191.438 35.2419 187.079 32.7273 183.324C31.9635 182.19 31.2881 181.259 29.7084 181.678C28.2429 182.063 27.4762 181.242 26.9191 180C25.8383 177.622 24.6398 175.276 23.451 172.645M111.299 136.305C112.239 136.781 113.165 137.305 114.128 137.728C116.038 138.581 117.907 139.705 119.911 140.105C121.68 140.452 123.626 139.831 125.476 139.878C131.659 140.053 137.834 140.344 144.014 140.576C144.473 140.556 144.929 140.499 145.379 140.405C144.964 139.99 144.617 139.343 144.125 139.202C142.316 138.672 140.437 138.375 138.62 137.863C137.688 137.604 136.308 137.115 137.26 135.847C138.767 133.778 136.903 134.293 136.123 134.297C134.116 134.328 132.112 134.487 130.125 134.773C128.247 135.072 127.24 134.532 127.171 132.552C127.12 131.252 126.267 130.755 125.186 131.186C123.519 131.785 121.936 132.596 120.476 133.598C118.94 134.746 118.127 134.801 116.807 133.389C116.316 132.869 115.284 132.421 114.637 132.563C112.382 133.055 110.184 133.79 107.973 134.497C107.767 134.56 107.648 134.917 107.484 135.129C107.688 135.333 107.924 135.502 108.183 135.629C109.21 135.914 110.253 136.136 111.307 136.294M130.65 141.999C128.87 142.036 127.053 141.833 125.33 142.165C120.77 143.041 116.848 141.754 112.986 139.432C111.028 138.256 108.688 137.695 106.496 136.935C106.134 136.807 105.643 137.064 105.212 137.138C105.368 137.536 105.565 137.916 105.801 138.272C106.819 139.515 107.877 140.73 108.931 141.948C109.619 142.749 110.182 143.774 111.05 144.282C113.623 145.788 116.301 147.135 118.994 148.424C119.419 148.63 120.593 148.282 120.641 148.039C121.025 146.1 122.324 146.421 123.664 146.599C127.125 147.092 130.583 147.612 134.054 148.002C134.505 148.053 135.395 147.491 135.47 147.1C135.785 145.417 136.822 144.794 138.37 144.672C141.711 144.429 145.053 144.2 148.395 143.941C148.768 143.856 149.128 143.724 149.468 143.55C149.188 143.158 148.94 142.482 148.59 142.421C147.657 142.309 146.716 142.275 145.778 142.319C140.83 142.201 135.885 142.078 130.662 141.991M34.9853 143.796C35.3759 144.612 35.6977 145.458 35.9474 146.327C36.0782 146.913 35.9216 148.059 35.7257 148.124C34.5357 148.371 34.9502 148.832 35.407 149.366C36.6354 150.928 37.9432 152.424 39.3252 153.851C41.0051 155.454 40.9744 156.09 38.9216 157.136C38.4563 157.36 38.1216 157.936 37.7265 158.349C38.0909 158.573 38.4702 158.784 38.827 159.025C40.64 160.252 42.4699 161.458 44.2498 162.735C45.1338 163.366 45.4469 163.935 43.9966 164.414C43.4219 164.606 43.0721 165.45 42.6101 166.01C42.9705 166.346 43.3758 166.63 43.8144 166.854C48.1186 168.303 52.4074 169.862 57.071 169.639C57.9447 169.596 58.8421 169.765 59.7022 169.642C60.1708 169.572 60.5815 169.101 61.0219 168.811C60.5663 168.519 60.0957 168.25 59.612 168.007C58.66 167.592 57.499 167.447 56.7425 166.809C54.4113 164.919 52.2042 162.88 50.1348 160.706C46.8169 157.106 43.7286 153.292 40.5101 149.594C38.7655 147.569 36.9204 145.633 34.9817 143.794M78.0617 138.854C78.6147 139.446 79.1479 140.062 79.7243 140.631C82.4486 143.322 86.4266 143.041 89.5676 144.741C89.7445 144.837 90.0012 144.784 90.2172 144.799C90.1294 144.55 90.0355 144.279 89.9466 144.047C89.5971 143.193 89.2242 142.361 88.8355 141.535C87.8698 139.492 86.8492 137.482 85.931 135.423C85.2051 133.787 84.5407 134.54 83.9747 135.445C83.1106 136.827 82.0853 136.378 81.5067 135.457C79.6899 132.721 78.063 129.862 76.6373 126.903C75.8973 125.285 75.6009 125.645 74.7641 126.622C73.5174 128.075 72.7756 127.939 72.2449 126.104C71.7444 124.403 71.4063 122.658 70.997 120.922C70.667 119.499 70.1131 118.539 68.3983 119.344C66.8454 120.076 65.6385 119.727 64.6969 118.181C63.7166 116.564 62.5834 115.039 61.4483 113.525C61.2291 113.227 60.7156 113.151 60.3376 112.975C60.3007 113.28 60.1223 113.661 60.2338 113.864C61.6679 116.404 62.9794 119.042 64.6787 121.39C66.2943 123.65 68.4404 125.526 70.1418 127.735C72.8684 131.269 75.4147 134.938 78.0751 138.83M67.4659 128.621C66.931 128.098 66.4318 127.54 65.9718 126.951C64.382 124.635 62.7363 122.346 61.3115 119.93C60.139 117.943 59.2666 115.779 58.2025 113.712C58.084 113.48 57.6414 113.418 57.3616 113.289C57.3621 113.629 57.2509 114.021 57.3817 114.298C58.0803 115.72 58.9128 117.082 59.5426 118.533C59.8374 119.216 60.6034 120.264 58.8766 120.511C58.5757 120.553 58.1399 121.781 58.2787 122.326C58.5414 123.334 59.0266 124.27 59.6987 125.065C61.0669 126.626 62.6485 128.001 64.0653 129.529C64.5045 130.003 64.6964 130.706 65.0181 131.317C64.56 131.371 64.1164 131.511 63.711 131.731C63.4333 131.954 63.1517 132.688 63.2772 132.82C64.7451 134.388 66.3246 135.849 67.7925 137.417C68.1686 137.909 68.4039 138.495 68.4732 139.111C68.4917 139.23 67.6907 139.481 67.28 139.695C66.9839 139.851 66.7102 140.054 66.4238 140.235C66.7044 140.628 66.8834 141.204 67.2517 141.355C72.6702 143.613 78.0698 145.956 83.9311 146.834C84.8142 146.968 85.767 146.642 86.6843 146.528C85.9036 146.088 85.169 145.414 84.3271 145.242C82.5992 144.9 80.9595 144.209 79.5082 143.211C78.0569 142.213 76.8248 140.929 75.8874 139.438C74.6285 137.548 73.1698 135.795 71.7811 133.996C70.4667 132.291 69.1428 130.613 67.4846 128.664M103.061 106.919C104.211 107.11 105.372 107.228 106.537 107.272C106.849 107.268 107.413 106.525 107.41 106.143C107.364 105.528 107.099 104.949 106.662 104.513C104.965 102.932 103.189 101.453 101.444 99.9344C100.136 98.7942 98.8685 97.7609 97.4612 99.8899C97.2407 100.175 96.3778 100.173 95.861 100.071C95.4557 99.9913 95.1303 99.506 94.7395 99.2563C92.0279 97.5677 90.1285 94.4518 86.3313 94.6272C85.8043 94.6517 85.1674 93.8671 84.6945 93.3611C83.5356 92.0735 82.5004 90.6713 81.2972 89.4487C81.0441 89.1945 79.8138 89.3582 79.7527 89.5504C79.2442 91.1893 78.3656 91.2455 76.9832 90.5792C75.9808 90.1325 74.9245 89.818 73.841 89.6437C73.3343 89.5437 72.7695 89.8134 72.2321 89.9117C72.5876 90.326 73.0053 90.6825 73.4702 90.9686C74.818 91.5439 76.3831 91.7325 77.5581 92.5538C81.9996 95.6448 86.3524 98.8656 90.6628 102.141C94.2733 104.887 98.4075 106.216 103.062 106.955M54.6446 149.507C54.2484 150.118 53.8733 150.739 53.4617 151.331C53.0501 151.924 52.7344 152.649 52.2106 152.828C51.8597 152.942 51.0323 152.29 50.7486 151.796C50.2236 150.821 49.8002 149.795 49.4849 148.734C49.2036 147.897 49.0869 146.984 48.8294 146.154C48.7445 145.901 48.356 145.747 48.1213 145.56C47.9623 145.81 47.6677 146.055 47.6667 146.306C47.6663 146.767 47.9431 147.232 47.9199 147.67C47.8334 148.314 47.6979 148.951 47.5146 149.575C47.076 149.18 46.6854 148.735 46.3508 148.249C45.8646 147.329 45.6365 146.265 45.0933 145.39C44.1539 143.886 43.0652 142.478 42.021 141.057C41.6969 140.675 41.3463 140.316 40.9717 139.983C40.5979 140.398 40.2762 140.857 40.0136 141.35C39.6257 142.334 39.5912 143.663 37.9276 142.831C37.7661 142.753 37.5096 142.858 37.3022 142.885C37.3749 143.093 37.3914 143.351 37.5343 143.491C38.3817 144.35 39.3136 145.124 40.1133 146.023C43.8618 150.236 47.7734 154.359 51.2685 158.78C53.5839 161.698 55.9273 164.345 59.551 165.519C60.2063 165.678 60.8739 165.783 61.5467 165.83C61.5699 165.264 61.6364 164.703 61.6126 164.129C61.6071 163.338 61.4999 162.55 61.2936 161.786C60.8874 160.643 60.6671 159.305 58.8798 159.335C57.5636 159.368 56.688 158.545 56.4946 157.134C56.2235 154.986 55.9791 152.84 55.6359 150.695C55.478 150.174 55.13 149.732 54.6611 149.456M117.729 107.298C116.802 107.229 115.876 107.126 114.953 107.113C114.676 107.108 114.392 107.339 114.101 107.458C114.253 107.719 114.442 107.955 114.662 108.161C115.78 108.897 116.92 109.598 118.053 110.299C121.056 112.234 124.63 113.083 128.182 112.703C128.585 112.658 129.3 112.224 129.268 112.054C129.015 110.275 130.367 110.294 131.431 110.066C132.332 109.875 133.29 109.927 134.171 109.679C136.878 108.912 140.274 108.999 140.312 104.759C140.311 104.285 141.286 103.667 141.927 103.381C143.718 102.576 145.605 101.963 147.404 101.193C147.985 100.959 148.475 100.543 148.8 100.007C149.391 98.7279 149.917 97.4189 150.373 96.0854C150.485 95.7313 150.569 95.3694 150.627 95.0027C150.17 95.1239 149.735 95.315 149.336 95.5693C148.121 96.6497 147.06 97.9311 145.765 98.9097C141.37 102.214 136.12 103.829 131.026 105.448C126.907 106.765 122.36 106.716 117.721 107.309M111.844 180.536C112.687 180.685 113.523 180.894 114.371 180.96C114.741 180.989 115.141 180.72 115.515 180.584C115.218 180.447 114.916 180.324 114.624 180.181C112.984 179.356 111.32 178.676 111.216 176.335C111.191 175.65 110.193 174.698 109.435 174.409C106.814 173.433 104.003 173.075 101.221 173.364C99.5783 173.518 97.6079 173.869 97.3731 171.205C97.3472 170.899 96.6225 170.484 96.1726 170.417C95.354 170.355 94.5317 170.355 93.7132 170.418C92.341 170.425 91.6682 169.385 92.2177 168.093C92.3744 167.629 92.5617 167.175 92.7784 166.734C93.7027 165.154 92.4071 164.549 91.462 164.548C88.1146 164.61 84.7769 164.954 81.4341 165.207C81.2583 165.223 81.1012 165.41 80.9334 165.514C81.0699 165.708 81.2296 165.884 81.4088 166.04C83.3317 167.328 85.2716 168.595 87.1698 169.871C88.6674 170.872 90.0489 172.098 91.6569 172.88C94.6632 174.411 97.7506 175.778 100.905 176.974C104.39 178.244 107.992 179.174 111.856 180.498M86.6049 101.952C83.1522 99.2809 79.6995 96.6102 76.2431 93.9368C75.5773 93.4707 74.8593 93.0839 74.1038 92.7843C73.7489 92.6894 73.3805 92.6552 73.0142 92.6831C73.1127 93.0402 73.2484 93.3859 73.4192 93.7146C74.6592 95.6373 75.415 97.9971 77.9628 98.7649C78.2369 98.8484 78.4343 99.1821 78.6484 99.3886C78.39 99.595 78.1069 99.7684 77.8055 99.9045C76.7648 100.238 76.5865 100.544 77.4705 101.432C78.0884 102.138 78.4955 103.004 78.6455 103.93C78.8874 105.127 79.4194 105.76 80.6325 105.823C83.1786 105.958 85.7379 106.017 88.2646 106.284C89.3762 106.402 90.4415 106.957 91.5456 107.326C91.0602 108.037 90.5711 108.745 90.0848 109.449C90.0387 109.497 89.998 109.55 89.9633 109.606C89.8229 109.976 89.6926 110.349 89.5595 110.725C89.9766 110.82 90.4266 111.068 90.7974 110.981C91.9472 110.703 93.0692 110.309 94.1925 109.952C95.8763 109.421 97.5606 108.738 98.7836 110.811C98.9341 110.964 99.1183 111.081 99.3215 111.151C99.5248 111.221 99.7415 111.243 99.9547 111.215C101.613 110.973 103.257 110.645 104.901 110.316C105.18 110.217 105.444 110.079 105.685 109.906C105.4 109.686 105.163 109.275 104.868 109.234C103.766 109.088 102.629 109.154 101.52 108.98C96.0569 108.025 91.2462 105.652 86.6066 101.964M124.287 101.1C123.004 100.622 122.012 98.7562 120.499 99.6706C118.241 100.996 116.2 102.699 114.105 104.29C113.88 104.461 113.915 104.973 113.826 105.33C114.157 105.38 114.492 105.405 114.827 105.403C116.429 105.28 118.03 105.144 119.631 104.997C122.839 104.693 126.196 104.86 129.213 103.935C134.007 102.469 138.585 100.281 143.239 98.3631C143.427 98.2864 143.598 97.6422 143.548 97.6092C142.415 96.8615 141.719 95.2777 139.959 95.7034C137.381 96.3256 134.726 96.7241 132.236 97.5953C129.598 98.5216 127.112 99.8862 124.276 101.091M91.2682 81.0497C93.0731 82.4458 94.6984 84.2401 97.3703 83.6849C97.7445 83.676 98.1073 83.8141 98.3809 84.0694C100.465 85.8448 102.843 86.0612 105.379 85.4411C105.657 85.3274 105.918 85.1755 106.154 84.9897C105.954 84.7394 105.723 84.5156 105.466 84.3235C103.408 83.1112 101.284 81.9996 99.2782 80.7049C97.0543 79.2768 94.9345 77.6838 92.7485 76.1915C91.3738 75.2509 89.9971 74.3203 88.5741 73.4649C84.9002 71.2539 81.198 69.0794 77.5052 66.9004C77.2411 66.7762 76.966 66.6768 76.6836 66.6036C76.7126 67.0115 76.6074 67.5024 76.7986 67.8138C77.6527 69.2161 78.5356 70.6114 79.5203 71.9278C80.6107 73.4564 82.2089 74.5476 84.0295 75.0068C85.4197 75.3675 86.7125 76.0323 87.8145 76.9534C89.0449 78.0278 89.9312 79.5016 91.2739 81.0424M107.594 23.4096C106.514 23.7419 105.421 24.0001 104.375 24.4234C103.984 24.582 103.4 25.2986 103.471 25.4115C104.549 27.1802 105.772 28.8614 106.854 30.6329C107.376 31.4685 108.057 32.4977 107.925 33.3181C107.601 35.3449 108.803 36.7127 109.516 38.3272C109.623 38.5736 110.026 38.6868 110.278 38.8522C110.414 38.59 110.508 38.308 110.556 38.0165C110.62 32.3547 110.305 26.6624 110.79 21.0291C111.151 16.9988 112.084 12.9021 114.429 9.35585C114.933 8.51141 115.303 7.59452 115.528 6.63737C115.642 6.21776 115.391 5.69664 115.301 5.2241C114.879 5.50615 114.493 5.83964 114.154 6.21689C112.505 8.56778 111.135 11.1695 109.198 13.2509C107.84 14.7118 106.792 15.9158 107.167 18.0048C107.488 19.7879 107.631 21.5983 107.594 23.4096ZM113.308 19.5781C113.116 21.7298 112.775 23.8839 112.754 26.04C112.722 29.969 112.872 33.8979 112.97 37.8399C112.997 38.1607 113.05 38.4788 113.128 38.7911C113.525 38.6333 113.894 38.4115 114.22 38.1347C114.451 37.7747 114.605 37.3704 114.671 36.9477C115.352 34.1112 118.138 31.6414 116.179 28.3158C116.118 28.1082 116.101 27.8901 116.129 27.6756C116.158 27.461 116.23 27.2548 116.343 27.07C116.916 26.0123 117.556 24.9889 118.214 23.9796C118.974 22.8156 119.349 21.7568 118.359 20.3784C117.824 19.6369 117.497 18.0059 117.936 17.423C119.733 15.0235 119.709 13.2584 116.902 11.829C116.797 11.7766 116.826 11.4666 116.786 11.2775C116.426 11.4024 115.822 11.4434 115.76 11.6522C114.895 14.1893 114.116 16.7518 113.349 19.5861M135.097 55.1587C134.705 55.3406 134.297 55.4843 133.877 55.5878C131.467 55.9238 129.17 56.8242 127.173 58.2156C124.925 59.7799 122.537 61.1331 120.04 62.2579C118.566 62.9336 116.809 62.9703 115.196 63.3639C114.05 63.6453 113.906 64.3749 114.728 65.1392C116.306 66.6105 118.27 67.2947 120.266 66.503C122.178 65.7058 123.985 64.6777 125.648 63.4417C127.895 61.8046 129.861 59.6931 133.044 60.1987C133.667 60.1932 134.264 59.9445 134.707 59.5055C135.785 58.4886 136.652 57.232 137.785 56.2806C139.085 55.1894 140.604 54.373 141.981 53.3476C142.489 52.8868 142.948 52.3747 143.35 51.8195C142.636 51.9271 141.919 52.0089 141.213 52.1582C140.996 52.2058 140.832 52.4473 140.61 52.5613C138.863 53.4297 137.113 54.2888 135.083 55.177M87.0302 47.7911C88.1577 48.8325 89.2964 49.8593 90.4052 50.9096C92.2 52.6132 94.2758 54.1196 95.6849 56.1029C97.3656 58.4599 99.3205 59.8961 102.123 60.2362C102.946 60.3353 103.783 60.2876 104.608 60.3073C104.055 59.7392 103.539 59.13 102.944 58.6167C100.687 56.6725 98.1713 54.9721 96.1784 52.7999C92.9132 49.1998 89.9955 45.2787 85.4645 43.1113C85.1575 43.0161 84.8383 42.9659 84.5169 42.9623C84.5745 43.3106 84.5262 43.7053 84.7085 43.9981C85.4344 45.1961 86.2295 46.3425 87.0189 47.8058M84.653 68.9838C86.915 70.4005 89.2185 71.756 91.4341 73.2478C95.4983 75.9885 99.5077 78.8152 103.55 81.5916C104.013 81.9199 104.508 82.2009 105.027 82.4303C105.19 82.4984 105.498 82.3043 105.691 82.1612C105.73 82.11 105.693 81.7953 105.595 81.6959C104.592 80.7276 103.714 79.4173 102.51 78.8894C99.5619 77.59 97.5125 75.4909 95.8427 72.8329C94.8292 71.2139 93.6602 69.6148 91.3107 70.9158C91.0061 71.0831 90.322 70.805 89.9396 70.5444C85.9034 67.8429 82.0181 64.8785 77.3234 63.3378C76.8236 63.2504 76.3138 63.2357 75.8098 63.2941C76.1061 63.8094 76.2798 64.5511 76.7261 64.797C79.2307 66.1795 81.7989 67.4419 84.6604 68.9895M29.4862 222.115C30.0279 221.845 30.7 221.693 31.0951 221.28C33.1009 219.17 33.9298 216.921 33.3586 213.764C32.7875 210.607 33.3948 207.292 33.4505 204.042C33.4252 203.323 33.3621 202.605 33.2616 201.893C32.8396 202.378 32.1873 202.814 32.0332 203.36C30.804 207.426 29.4946 211.482 28.5885 215.628C28.1238 217.738 27.6885 220.105 29.4862 222.115ZM136.694 78.9818C137.346 78.2366 138.01 77.5064 138.641 76.7508C138.835 76.4946 138.991 76.2119 139.104 75.9114C139.121 75.8894 138.755 75.6068 138.649 75.6468C136.492 76.5248 134.108 77.0927 132.243 78.3945C127.615 81.6297 122.802 84.085 116.996 84.056C116.447 84.1177 115.909 84.2584 115.4 84.4739C115.896 84.776 116.393 85.3415 116.898 85.3462C119.624 85.3701 122.354 85.2749 125.08 85.1639C125.514 85.1286 125.921 84.9413 126.231 84.6349C128.259 82.4957 130.808 82.2656 133.55 82.3896C135.901 82.491 136.662 81.62 136.682 78.9141M96.7108 46.502C96.2079 45.5291 95.9509 44.1098 95.1508 43.672C91.9578 41.9263 88.614 40.4436 85.2905 38.9649C84.6626 38.6895 83.8137 38.9264 83.0663 38.9263C83.5586 39.5582 84.0444 40.1909 84.5342 40.8034C84.6041 40.8867 84.7601 40.8964 84.8684 40.9451C88.017 42.2666 90.8769 44.1911 93.287 46.61C94.8209 48.1527 96.1015 49.9549 97.6814 51.4456C100.171 53.8441 102.788 56.1078 105.367 58.4125C105.623 58.5796 105.901 58.7082 106.193 58.7944C106.235 58.4236 106.452 57.9316 106.298 57.7076C105.523 56.664 104.786 55.5102 103.776 54.7468C101.521 53.0493 99.452 51.2326 98.0355 48.753C97.6448 48.0653 97.1804 47.42 96.714 46.4753M135.386 53.3799C135.819 53.0777 136.251 52.7756 136.676 52.4677C136.06 52.2304 135.439 51.8026 134.82 51.8026C134.003 51.8851 133.201 52.0683 132.43 52.3483C128.107 53.4897 123.627 54.1475 119.692 56.5106C117.765 57.6655 115.763 58.7278 113.873 59.911C113.451 60.169 113.284 60.8456 113.001 61.3329C113.514 61.2876 114.025 61.2147 114.53 61.1145C115.742 60.8017 116.968 60.5067 118.139 60.0806C120.1 59.3725 122.254 58.8899 123.913 57.7264C127.329 55.3343 131.054 54.0288 135.377 53.3844M125.8 77.7324C123.467 78.0303 121.117 78.6828 118.822 78.5249C116.527 78.3669 114.262 79.0447 113.43 81.1694C113.435 81.3433 113.484 81.5131 113.572 81.6631C113.661 81.813 113.785 81.9382 113.935 82.0269C119.979 82.8651 125.126 80.2419 130.276 77.6908C130.62 77.5185 130.768 76.9497 131.002 76.5642C130.582 76.5026 130.111 76.296 129.74 76.406C128.499 76.7719 127.29 77.2556 125.796 77.7295M136.773 72.9756C135.916 73.4802 135.054 73.8998 134.256 74.4562C134.041 74.6054 134.071 75.102 134.001 75.4271C134.281 75.4748 134.567 75.4815 134.85 75.4471C138.059 74.5894 141.267 73.7132 144.474 72.8184C144.923 72.6141 145.342 72.3479 145.717 72.0275C145.275 71.6856 144.859 71.2119 144.353 71.0723C141.666 70.3191 139.321 71.2673 136.807 72.9548M33.5437 141.455C33.7934 141.193 34.0394 140.927 34.289 140.665L33.1431 139.814C33.1538 140.384 33.2907 140.944 33.5437 141.455Z"
                        fill="#374937" />
                </svg>