<svg viewBox="0 0 138 315" fill="none"
                    xmlns="http://www.w3.org/2000/svg">
                    <path
                        d="M76.2439 202.69C77.9245 198.379 79.52 194.211 81.2063 190.092C81.6199 189.075 82.281 188.567 83.7171 188.811C86.3803 189.27 89.1044 189.244 90.7526 186.375C91.9289 184.33 91.4442 182.462 90.2892 180.638C89.3263 179.12 87.8562 178.816 86.1816 178.946C85.3765 178.973 84.5704 178.959 83.7668 178.903C84.3755 178.349 85.0173 177.833 85.6886 177.357C88.673 175.487 91.7858 173.805 94.6641 171.783C98.2153 169.292 98.6896 165.016 95.37 162.157C93.0966 160.187 91.876 157.521 91.0404 154.568C89.3724 148.681 85.163 144.735 80.1528 141.593C78.8837 140.791 76.8582 141.492 76.2231 142.801C75.4995 144.229 74.88 145.707 74.3694 147.225C72.8267 152.037 70.6009 156.515 68.2817 160.996C65.8313 165.732 63.8733 170.7 63.2039 176.127C62.6715 180.447 61.547 184.691 60.7719 188.98C60.5088 190.43 60.5206 191.93 60.376 193.403C60.311 193.756 60.2162 194.102 60.0925 194.438C59.8013 194.154 59.297 193.897 59.2554 193.578C58.9768 191.957 58.8588 190.32 58.605 188.683C57.976 184.334 56.8971 179.995 56.8011 175.635C56.6976 171.03 57.4528 166.399 57.976 161.794C58.3382 157.938 58.904 154.104 59.6711 150.308C60.7931 145.267 62.2427 140.293 63.7026 135.333C64.1208 133.929 65.0117 132.64 65.802 131.377C66.3279 130.538 67.0377 130.103 68.2181 130.551C69.9112 131.2 71.5621 131.873 73.5773 131.16C76.6155 130.079 78.4566 127.857 78.2134 124.8C78.0023 122.166 75.4028 119.512 72.7303 119.171C67.9862 118.598 64.4059 122.999 65.7494 127.585C65.95 128.282 65.3508 129.302 64.9399 130.071C63.3848 132.892 61.3068 135.514 60.2495 138.507C58.526 143.367 57.3531 148.431 56.1478 153.46C55.6637 155.483 55.7166 157.633 55.5018 159.725C55.4342 160.291 55.3204 160.85 55.1613 161.397C55.0604 161.615 54.9218 161.813 54.752 161.983C54.543 161.759 54.1721 161.556 54.1484 161.3C54.0173 160.092 53.9694 158.867 53.8806 157.647C53.5721 152.971 53.211 148.292 52.9681 143.608C52.5887 136.359 52.2649 129.114 51.9965 121.873C51.9766 121.308 52.5978 120.534 53.1342 120.154C60.3205 115.033 68.4506 112.25 77.0733 110.787C80.4363 110.216 83.9003 110.096 87.1987 109.275C89.1382 108.795 91.36 107.76 92.5197 106.257C94.209 104.053 94.4309 101.507 91.4234 98.152C89.8453 96.3897 87.9736 94.4102 89.248 91.7648C90.1666 89.8536 91.6746 88.2364 92.8189 86.423C94.6206 83.5606 95.6209 80.5782 94.4911 77.111C93.2241 73.2299 87.4125 71.8474 84.0134 72.6934C80.6144 73.5393 78.1181 75.8792 75.7218 78.0913C72.7467 80.804 70.056 83.8131 67.6917 87.0719C65.2437 90.472 63.3947 94.3002 61.2639 97.9346C59.2992 101.298 57.2964 104.643 55.3507 108.022C54.6622 109.212 54.1086 110.479 53.4392 111.685C53.3079 111.924 52.942 112.033 52.6832 112.201C52.5615 111.919 52.308 111.593 52.3428 111.352C53.3433 105.222 54.6258 99.12 55.3164 92.9568C55.8779 87.9806 56.8247 82.9696 55.786 77.895C55.6256 77.0898 56.2247 76.0704 56.622 75.2234C57.2524 73.8693 58.2197 72.6444 58.6906 71.2432C61.2781 63.536 64.0017 55.8586 66.2174 48.04C69.2231 37.4377 69.4195 26.7804 65.7031 16.2043C64.3455 12.3326 63.0901 8.44551 60.6348 5.09558C58.7869 2.55067 56.3356 0.635131 53.1404 0.959655C51.7046 1.06614 50.3321 1.59357 49.1946 2.47598C48.057 3.35839 47.2048 4.55661 46.7447 5.92078C45.0817 10.6694 43.6003 15.4869 42.0428 20.2699C40.6125 24.662 40.6125 24.662 36.1941 23.2231C34.6041 22.7054 33.0383 22.0837 31.4201 21.6976C28.7396 21.0531 27.3284 22.9253 26.4015 24.9212C25.0587 27.8067 25.2422 30.8977 25.3993 33.9656C25.6915 39.2295 27.4311 44.0612 29.4672 48.8923C31.9992 54.871 35.6782 60.0573 39.5787 65.1603C41.3505 67.4764 42.6181 70.1773 44.4103 72.4757C46.3397 74.9645 48.6291 77.1383 51.7233 78.2577C53.7632 78.9899 52.8637 80.7227 52.6766 81.9686C51.605 88.7947 50.3946 95.5998 49.2162 102.411C49.1342 102.652 49.0187 102.881 48.8733 103.091C48.5262 102.754 48.0029 102.482 47.8671 102.078C47.2051 100.128 46.661 98.144 46.0529 96.1777C43.2032 86.9379 38.8386 78.5018 32.5123 71.1515C30.5567 68.8776 28.4994 66.6774 26.3479 64.5874C24.9934 63.272 24.6091 61.9906 25.2497 60.2027C26.4562 56.8259 25.0873 52.3773 20.4801 51.9359C18.8474 51.788 16.8678 52.5862 15.4577 53.56C13.1928 55.1299 12.6998 57.9715 12.5971 60.435C12.4058 64.8711 17.1904 67.0801 20.4668 65.6113C23.7432 64.1425 25.205 65.7698 26.8221 67.6809C32.2109 74.0312 37.0214 80.8151 40.2083 88.5567C42.9341 95.1037 45.3001 101.786 47.4999 108.517C48.155 110.518 47.7448 112.881 47.7308 115.072C47.7288 115.407 47.2359 115.742 46.9679 116.072C46.7442 115.822 46.5365 115.558 46.3461 115.282C42.4482 108.873 38.6551 102.396 34.6322 96.0582C31.4224 90.9971 28.0556 86.0307 24.5317 81.1588C22.2315 77.8838 19.2281 75.1647 15.7414 73.2003C13.8088 72.1387 11.2969 72.4234 10.3777 75.1116C8.84021 79.6242 10.403 83.8057 11.1995 88.0874C11.4951 89.641 11.8874 91.2261 12.1742 92.7768C12.5177 94.7055 11.5767 95.9244 9.86534 96.6448C6.98299 97.8581 4.95062 99.6835 3.83013 102.826C2.37863 106.895 4.73976 110.773 7.78444 112.537C12.4277 115.225 17.2658 117.568 21.9813 120.138C27.4708 123.106 32.926 126.18 39.0323 127.717C40.9115 128.139 42.8336 128.339 44.7595 128.314C46.286 128.325 47.1099 128.331 47.2115 130.346C47.5373 136.67 48.1186 142.985 48.7116 149.294C49.4476 157.059 50.1851 164.834 51.1517 172.561C51.6589 176.613 52.6567 180.635 53.377 184.673C53.4561 185.116 53.1455 185.622 53.0145 186.1C52.628 185.926 52.2687 185.698 51.9478 185.422C49.6896 182.899 47.3965 180.408 45.2457 177.794C42.762 174.77 40.4322 171.616 38.0022 168.546C34.8811 164.615 31.9327 160.512 28.5213 156.846C24.6771 152.756 20.607 148.884 16.3301 145.249C14.4594 143.639 12.2295 142.253 9.44354 142.2C6.28946 142.145 3.7851 144.152 3.65334 147.271C3.46791 151.495 3.50462 155.738 3.11603 159.945C2.86678 161.831 2.23894 163.648 1.27018 165.285C0.66525 166.266 0.363296 167.403 0.402207 168.555C0.441118 169.707 0.819159 170.821 1.48891 171.759C5.40922 177.621 11.0904 181.06 17.0446 184.257C21.861 186.846 26.5433 189.682 31.3928 192.199C34.7733 193.946 38.3054 195.422 41.8342 196.862C45.2678 198.252 48.7714 199.427 52.2451 200.695C52.6843 200.838 53.1878 201.201 53.5713 201.097C56.227 200.281 56.7549 202.047 57.2941 203.971C59.5064 211.871 61.6282 219.796 64.0358 227.633C65.5736 232.637 67.5487 237.521 69.2964 242.462C69.365 242.888 69.3601 243.322 69.282 243.745C68.9039 243.578 68.3849 243.516 68.1682 243.227C64.7766 238.829 59.7375 236.566 55.4007 233.415C51.2341 230.382 46.8837 227.586 42.4627 224.931C39.1491 222.934 35.6317 221.25 32.1333 219.581C30.4987 218.811 28.7738 218.249 26.999 217.909C23.3072 217.192 20.6168 219.756 21.0911 223.49C21.3516 225.744 21.792 227.973 22.4082 230.157C22.963 232.018 22.1897 233.199 20.8931 234.123C15.1502 238.213 17.8982 243.32 21.987 245.681C26.5562 248.292 31.6459 249.859 36.8919 250.273C41.6129 250.693 46.2758 251.784 50.9929 252.261C56.4993 252.82 62.039 253.128 67.5722 253.336C68.931 253.385 70.3476 252.705 71.6866 252.218C72.7939 251.801 73.3218 252.105 73.8698 253.182C75.8542 257.083 77.942 260.935 80.0603 264.768C80.6755 265.862 81.5307 266.801 82.2071 267.857C82.3541 268.242 82.4316 268.651 82.436 269.063C82.0548 269.056 81.6787 268.975 81.3286 268.824C77.5729 266.066 73.2434 264.593 68.8962 263.114C65.8346 262.073 62.871 260.627 59.751 259.796C54.2515 258.335 48.7381 256.768 42.9025 257.399C42.483 257.368 42.0777 257.233 41.7232 257.007C41.3687 256.78 41.0762 256.469 40.8719 256.101C39.9629 253.298 37.597 252.732 35.2608 252.238C33.283 251.823 32.0272 253.352 31.0335 254.777C29.6159 256.774 30.3256 261.173 32.2931 262.843C35.1892 265.302 39.7317 264.824 41.0664 260.77C41.5398 259.316 42.6099 259.013 43.7093 259.143C46.9355 259.499 50.2055 259.84 53.3442 260.629C57.1137 261.596 60.8198 262.795 64.4414 264.219C71.3077 266.882 78.4174 269.037 84.5615 273.292C86.0865 274.352 87.1472 276.077 88.3872 277.52C88.5182 277.67 88.4242 278.018 88.4448 278.253C88.0754 278.269 87.6324 278.421 87.3553 278.272C82.8935 275.848 77.9876 275.1 73.0489 274.469C67.4991 273.759 61.9469 273.062 56.3924 272.377C52.9991 271.952 49.6149 271.35 46.2102 271.184C40.3624 270.897 35.686 277.128 38.1998 282.581C38.507 283.182 38.6378 283.857 38.5771 284.53C38.5163 285.202 38.2665 285.843 37.8565 286.379C36.0256 289.018 36.5629 291.515 38.7763 294.102C40.1415 295.698 41.4994 297.301 42.805 298.945C45.1082 301.852 48.1423 303.977 51.7779 303.538C54.4561 303.22 57.0899 301.547 59.4751 300.055C62.8654 297.938 66.1487 295.777 69.9883 294.429C72.6505 293.488 75.0385 291.764 77.5428 290.37C81.5695 288.118 85.5874 285.864 89.5965 283.608C90.8289 282.911 92.3532 283.437 93.3712 284.696C97.7474 290.143 102.081 295.63 106.659 300.92C110.544 305.401 114.607 309.75 119.682 312.933C121.097 313.745 122.622 314.348 124.209 314.723C124.609 314.854 125.484 314.167 125.728 313.639C125.874 313.327 125.353 312.405 124.909 312.158C120.998 309.995 117.887 306.869 114.745 303.791C111.951 301.05 109.29 298.167 106.634 295.286C106.447 295.084 106.678 294.062 106.869 294.012C110.059 293.166 112.324 290.97 114.789 289.008C117.676 286.708 121.175 285.808 124.683 284.88C127.445 284.143 130.3 283.61 132.908 282.507C135.913 281.231 137.038 278.581 137.643 275.305C138.444 270.965 137.235 267.355 134.87 264.011C133.56 262.156 134.37 260.413 134.623 258.698C135.063 255.631 133.048 250.899 130.173 249.36C129.072 248.858 127.92 248.473 126.738 248.212C124.743 247.655 123.476 248.549 122.311 250.171C120.218 253.094 117.882 255.836 115.695 258.704C109.454 266.873 104.912 275.838 102.422 285.827C102.212 286.666 101.934 287.489 101.693 288.319C101.009 287.528 100.251 286.781 99.6478 285.933C96.978 282.198 94.3067 278.467 91.7286 274.674C89.692 271.679 87.6073 268.697 85.853 265.537C82.6076 259.69 79.6039 253.713 76.4589 247.812C75.7751 246.525 76.0911 245.749 77.3773 245.23C79.7501 244.254 82.1391 243.302 84.4718 242.24C89.3265 240.027 94.2256 237.902 98.9545 235.448C102.327 233.7 105.635 231.717 107.9 228.461C110.319 224.984 110.497 221.321 108.765 217.57C107.901 215.748 106.703 214.115 105.861 212.301C105.482 211.453 105.414 210.498 105.67 209.606C106.634 206.854 106.339 204.417 104.428 202.201C102.025 199.407 99.4769 196.819 95.8027 195.69C92.8296 194.781 90.1357 195.788 88.8419 198.583C87.8949 200.626 87.2132 202.794 86.3424 204.871C84.5302 209.168 82.7399 213.457 80.2684 217.467C78.6549 220.079 77.5548 223.01 76.2083 225.787C75.4407 227.369 74.4842 228.874 73.8864 230.516C73.2887 232.157 73.0108 233.995 72.5349 235.725C72.4305 236.046 72.0495 236.291 71.7753 236.566C71.6021 236.259 71.4566 235.936 71.3406 235.603C70.9864 234.23 70.9232 232.708 70.2794 231.493C69.0746 229.226 69.4225 226.934 69.9316 224.729C71.0608 219.889 72.4123 215.098 73.7624 210.31C74.4709 207.791 75.3829 205.334 76.2539 202.659M54.1958 44.2612C53.5977 42.4731 53.0636 40.6669 52.3708 38.916C52.1745 38.4148 51.5325 38.0892 51.0929 37.6788C51.0213 38.3162 50.7704 38.9972 50.916 39.5644C51.496 42.0947 52.5459 44.5692 52.7695 47.1195C53.3736 53.9763 53.6404 60.8545 54.0152 67.729C54.0387 68.1641 53.7292 68.6074 53.5337 69.0586C53.271 68.6719 52.8083 68.3026 52.7675 67.891C51.8036 61.3931 48.1431 56.3439 44.02 51.5667C43.1699 50.6864 42.1826 49.9498 41.0965 49.3857C40.7402 49.1822 40.0851 49.5081 39.5715 49.5935C39.7962 49.9919 40.0482 50.3743 40.3259 50.7378C41.1783 51.7004 42.1572 52.5729 42.9369 53.5798C47.0811 58.8739 49.5833 64.9741 51.6036 71.3157C51.732 71.7121 51.378 72.2623 51.2513 72.7409C50.8206 72.5086 50.4251 72.2162 50.0767 71.8726C47.857 69.022 45.6694 66.1479 43.4876 63.2708C38.8659 57.1605 34.4684 50.9435 31.5948 43.7314C29.5568 38.7419 28.5756 33.384 28.7132 27.9961C28.7766 25.7578 30.4483 24.1599 32.0637 24.7782C33.77 25.4494 35.4222 26.2506 37.0059 27.1746C38.7907 28.1979 42.1365 28.0973 43.0919 26.6401C43.93 25.3696 44.5765 23.9826 45.0105 22.5237C46.387 17.7449 47.4985 12.8847 48.9658 8.14029C49.5729 6.17141 50.7817 4.17498 53.0563 3.79842C55.331 3.42185 57.0128 4.76135 58.0747 6.64708C59.36 8.80702 60.4587 11.0728 61.3586 13.4196C62.5041 16.6296 63.6575 19.9199 64.1497 23.2718C65.1798 30.1415 64.7844 37.1497 62.988 43.8599C61.2764 50.2347 59.2034 56.5112 57.2591 62.8247C57.1661 63.1102 56.8404 63.3199 56.6129 63.5859C56.4398 63.2672 56.1322 62.9436 56.1126 62.6311C56.0001 59.8887 56.1342 57.1197 55.8116 54.4108C55.4222 51.1313 54.6476 47.9011 54.1681 44.2717M21.617 181.986C20.8327 181.59 20.0572 181.182 19.2614 180.806C14.4426 178.508 10.026 175.647 6.34275 171.741C4.59304 169.879 3.79011 167.84 5.1744 165.454C6.87046 162.528 6.82725 159.245 7.12069 156.061C7.3763 153.322 7.33959 150.556 7.3322 147.804C7.32737 146.476 7.99584 145.766 9.14974 145.967C10.4359 146.144 11.6615 146.624 12.7251 147.369C14.9679 149.134 16.9818 151.184 19.1289 153.064C27.0187 159.864 32.3644 168.838 39.2042 176.536C39.4626 176.902 39.6761 177.297 39.8405 177.714C39.3447 177.626 38.771 177.672 38.3734 177.431C35.7845 175.879 33.3469 174.026 30.6399 172.731C27.933 171.437 24.9665 170.626 22.0854 169.703C21.7077 169.58 21.1484 170.029 20.675 170.215C21.0147 170.544 21.3031 171.061 21.7041 171.172C26.5408 172.475 30.8332 174.898 34.9596 177.621C39.7141 180.758 44.3877 184.024 49.0611 187.275C49.7099 187.729 50.1648 188.451 50.7124 189.052C49.8625 188.887 48.874 188.939 48.1934 188.523C42.2598 184.803 35.8525 181.9 29.1441 179.89C28.6346 179.725 27.9953 180.002 27.416 180.081C27.8616 180.517 28.234 181.134 28.7702 181.367C30.8375 182.268 33.0214 182.916 35.0484 183.897C38.7696 185.687 42.4086 187.64 46.0794 189.539C48.9117 191.001 51.8018 192.374 54.5083 194.043C55.0951 194.404 55.0319 195.821 55.2677 196.753C54.6149 196.565 53.9286 196.39 53.3078 196.178C52.7588 195.999 52.2428 195.734 51.7024 195.529C46.875 193.675 41.9556 192.029 37.2389 189.925C31.9713 187.573 26.8864 184.81 21.595 181.979M14.5626 87.9486C13.9602 84.6969 13.2788 81.4486 12.7947 78.1916C12.6877 77.5058 13.144 76.1193 13.3748 76.1119C14.2671 76.0867 15.3884 76.2236 16.0378 76.7654C19.9799 80.0696 23.3661 83.9852 26.0672 88.3626C27.9269 91.3486 29.7416 94.3684 31.5956 97.3574C33.8426 101.004 36.1303 104.615 38.3686 108.259C38.4932 108.601 38.5546 108.963 38.5498 109.328C38.1958 109.265 37.8575 109.133 37.5538 108.94C32.7652 104.15 26.8351 100.659 20.3229 98.7969C19.6597 98.581 18.8423 98.8685 18.0962 98.9219C18.6729 99.4267 19.2923 99.8803 19.9476 100.278C21.9807 101.299 24.1638 102.054 26.1001 103.224C32.0996 106.896 37.5583 111.386 42.319 116.565C42.6319 116.989 42.8985 117.445 43.1143 117.926C42.5732 117.911 42.0354 117.837 41.5103 117.705C38.7119 116.692 35.9676 115.482 33.1148 114.651C31.8986 114.298 30.4521 114.668 29.1238 114.808C28.8771 114.835 28.6835 115.355 28.4621 115.647C28.7468 115.846 29.018 116.192 29.3162 116.216C30.1639 116.298 31.1027 116.026 31.8685 116.285C36.1263 117.725 40.387 119.171 44.5328 120.895C45.3458 121.232 45.6546 122.79 46.2005 123.784C45.4012 123.956 44.6111 124.19 43.8026 124.286C39.9348 124.736 36.5507 122.896 33.1978 121.556C28.446 119.649 23.9643 117.092 19.4119 114.662C16.1438 112.913 12.9333 111.032 9.8124 109.025C7.8404 107.756 7.0239 105.654 7.7289 103.683C8.52514 101.387 10.2537 100.405 12.1905 99.5442C13.7516 98.8527 14.8054 97.8989 15.287 96.1514C16.0566 93.3853 15.3658 90.8674 14.5874 87.947M100.396 230.098C99.8565 230.533 99.2827 230.923 98.6801 231.264C93.9802 233.479 89.2345 235.611 84.5554 237.866C82.5157 238.849 80.5946 240.079 78.6215 241.171C78.2898 241.285 77.9421 241.345 77.5915 241.35C77.6546 240.977 77.6047 240.519 77.8074 240.255C78.4008 239.476 79.1369 238.827 79.732 238.059C82.6404 234.289 85.5945 230.573 89.8875 228.25C90.0862 228.089 90.2605 227.901 90.4051 227.69C90.0631 227.443 89.63 226.923 89.3866 226.999C88.3022 227.345 87.0802 227.637 86.2847 228.364C84.2642 230.213 82.4644 232.294 80.5353 234.264C80.1735 234.537 79.7747 234.758 79.3508 234.918C79.355 234.488 79.4174 234.061 79.5363 233.648C81.4492 229.158 84.2136 225.081 87.6769 221.642C90.6966 218.74 94.2222 216.341 97.5432 213.721C97.7466 213.559 98.0995 213.266 98.0581 213.185C97.9379 212.927 97.6872 212.578 97.4431 212.552C96.9624 212.457 96.4652 212.491 96.002 212.651C90.9155 214.92 87.0269 218.686 83.4959 222.846C79.7549 227.248 77.9339 232.587 76.4759 238.048C76.2482 238.911 76.4141 239.879 76.3635 240.795C76.3427 241.157 76.339 241.676 76.1166 241.837C75.6216 242.121 75.0939 242.344 74.5451 242.501C74.3894 242.063 74.2763 241.611 74.2071 241.152C74.1407 240.597 74.1835 240.035 74.3329 239.497C75.5249 236.135 76.5512 232.685 78.0626 229.461C79.7004 225.924 81.8907 222.644 83.707 219.155C85.5924 215.528 87.3695 211.846 89.0746 208.131C90.0675 205.963 90.8098 203.683 91.6957 201.47C92.2758 200.017 93.923 199.106 95.3828 199.814C97.2206 200.675 98.9273 201.792 100.453 203.131C102.064 204.628 103.483 206.236 102.255 208.965C101.453 210.754 102.013 212.69 103.389 214.537C104.813 216.458 106.092 218.856 106.362 221.174C106.851 225.341 104.084 227.991 100.459 230.114M47.0028 242.868C46.7073 243.015 46.2581 243.112 46.1486 243.329C45.8731 243.995 45.6407 244.679 45.4528 245.375C46.066 245.118 46.6702 244.829 47.3012 244.607C48.2454 244.274 49.2028 243.735 50.1596 243.736C53.4678 243.646 56.7784 243.751 60.0742 244.05C62.729 244.356 65.6466 244.228 67.7306 246.48C68.284 247.078 68.8171 247.694 69.3618 248.303C68.6168 248.479 67.8571 248.585 67.0925 248.619C62.4315 248.432 57.751 248.38 53.1187 247.911C47.7819 247.368 42.4892 246.242 37.1731 245.74C32.5468 245.269 28.0532 243.918 23.9347 241.759C21.5819 240.555 21.5389 238.778 23.669 237.145C26.4966 234.981 27.1676 232.741 26.1925 229.052C25.705 227.208 25.2568 225.347 24.9356 223.47C24.6844 222.003 25.5722 221.112 26.8753 221.556C29.4434 222.426 32.1 223.204 34.4665 224.484C38.4766 226.655 42.2891 229.179 46.1882 231.556C48.66 233.066 51.1462 234.56 53.5964 236.106C53.9118 236.301 54.0682 236.746 54.2883 237.099C53.9604 237.173 53.6241 237.202 53.2883 237.186C49.7596 236.61 46.2514 235.837 42.6994 235.482C40.5448 235.266 38.3242 235.641 36.1418 235.839C35.7506 235.876 35.4019 236.351 35.0357 236.625C35.5576 236.902 36.0618 237.367 36.6012 237.412C37.4372 237.485 38.3096 237.118 39.1398 237.194C42.471 237.511 45.8308 237.741 49.1144 238.353C52.7008 239.035 56.2298 240.073 59.7697 241.002C59.9717 241.068 60.0888 241.514 60.2308 241.779C60.0023 241.899 59.7558 242.149 59.5452 242.124C58.6096 242.014 57.7126 241.785 56.7784 241.67C53.5037 241.284 50.2571 241.154 47.0057 242.86M68.7673 97.4634C67.0263 99.1845 65.2986 100.91 63.5473 102.618C63.2537 102.866 62.939 103.089 62.6069 103.283C62.5703 102.858 62.3489 102.315 62.5309 102.025C64.9563 98.0974 67.5605 94.2771 69.8744 90.2894C72.3038 86.1109 75.7257 82.8678 79.3966 79.934C81.4398 78.3975 83.738 77.2334 86.1856 76.4952C87.6619 76.0044 89.5749 76.1416 90.5711 78.0351C91.4597 79.7818 91.7791 81.3966 90.3316 83.0966C89.2658 84.4443 88.3016 85.8694 87.447 87.36C85.7744 90.0798 84.057 92.8773 85.6488 96.1938C86.4534 97.7807 87.4556 99.2594 88.6314 100.595C90.4651 102.766 90.1161 104.479 87.4787 105.208C86.6481 105.427 85.8011 105.579 84.9461 105.661C81.9818 106.008 78.9912 106.151 76.05 106.68C70.3659 107.695 64.8836 109.624 59.8158 112.391C59.3647 112.666 58.889 112.898 58.3949 113.085C58.1296 113.168 57.7867 112.998 57.4693 112.944C57.5722 112.644 57.7302 112.366 57.9354 112.124C58.8902 111.308 59.9173 110.581 61.0039 109.951C63.193 108.823 65.4783 107.876 67.6984 106.787C68.0667 106.611 68.2855 106.133 68.5709 105.794C68.1123 105.591 67.5891 105.139 67.2115 105.239C66.1543 105.502 65.1924 106.039 64.1724 106.397C63.779 106.479 63.3768 106.511 62.9753 106.493C63.0883 106.069 63.2717 105.667 63.5178 105.304C65.7472 103.038 68.0501 100.844 70.234 98.5385C70.6473 98.1047 70.6445 97.278 70.8269 96.6282C70.2181 96.8719 69.6092 97.1157 68.7513 97.4825M72.9011 288.333C72.4877 288.544 72.0832 288.771 71.6668 288.961C65.9061 291.555 60.2423 294.208 55.0374 297.945C51.0942 300.79 49.2412 299.827 46.1345 296.716C44.4475 294.996 42.904 293.14 41.5196 291.167C41.0019 290.445 40.5633 288.912 40.9515 288.437C42.7483 286.141 42.1518 283.751 41.3927 281.502C40.1057 277.683 42.7319 274.287 47.1657 274.784C49.8567 275.017 52.5235 275.476 55.1376 276.156C60.4213 277.682 65.8798 277.225 71.2309 277.918C71.842 278.072 72.4312 278.303 72.9841 278.606C72.3987 278.872 71.7879 279.078 71.161 279.222C68.8069 279.514 66.3878 279.499 64.0996 280.022C60.455 280.795 56.8664 281.813 53.3581 283.067C50.1869 284.203 47.3636 286.14 45.163 288.691C44.8487 289.074 44.8427 289.675 44.7162 290.182C45.2544 290.051 45.779 289.869 46.2827 289.638C48.7895 288.191 51.1047 286.079 53.7961 285.347C60.8425 283.43 68.0492 282.095 75.2094 280.589C75.6732 280.492 76.2327 280.922 76.7554 281.092C76.344 281.371 75.9473 281.679 75.5137 281.922C72.9063 283.395 70.2738 284.825 67.6945 286.346C67.309 286.575 67.1688 287.215 66.9119 287.661C67.4126 287.615 67.977 287.701 68.3934 287.497C72.4053 285.5 76.3385 283.327 80.4231 281.495C81.6667 280.928 83.3094 281.269 84.7667 281.194C84.7649 281.573 84.922 282.105 84.732 282.3C84.314 282.617 83.8503 282.869 83.3568 283.048L72.9173 288.358M77.8184 148.105C78.0215 147.481 78.085 146.735 78.4761 146.264C78.7745 145.9 79.7406 145.559 79.9713 145.746C83.4619 148.631 87.0295 151.445 88.0753 156.274C88.6527 159.229 90.1884 161.911 92.4446 163.905C95.6365 166.664 94.1029 167.957 91.5905 169.646C89.8937 170.784 88.1143 171.803 86.388 172.897C82.998 175.043 79.5813 177.151 76.243 179.377C74.219 180.729 72.097 182.054 70.4308 183.799C68.2901 186.017 66.5643 188.661 64.6517 191.104C64.3217 191.428 63.9539 191.711 63.5561 191.947C63.4231 191.505 63.0614 190.96 63.2023 190.632C63.9699 188.841 64.6006 186.904 65.7616 185.383C68.8246 181.362 72.1549 177.55 75.3236 173.608C75.6668 173.18 75.6429 172.463 75.7937 171.881C75.2266 172.041 74.464 172.026 74.1291 172.398C71.6314 175.145 69.2262 177.981 66.7696 180.766C66.545 181.023 66.1645 181.132 65.8356 181.307C65.8245 180.968 65.6784 180.552 65.8272 180.304C69.2099 174.57 73.6165 169.676 78.3801 165.072C78.904 164.567 79.1055 163.724 79.4557 163.037C78.7395 163.178 77.823 163.083 77.3614 163.501C75.1383 165.42 72.9991 167.424 70.9087 169.518C69.8802 170.543 69.0517 171.774 68.11 172.891C67.8519 173.151 67.5676 173.384 67.2617 173.586C67.1946 173.166 66.9589 172.681 67.088 172.33C67.5697 171.029 68.1657 169.766 68.7308 168.463C69.8264 165.949 70.8899 163.429 72.0236 160.932C73.901 156.778 75.8254 152.644 77.8507 148.125M120.639 263.107C120.319 263.061 119.853 262.851 119.705 262.993C118.911 263.662 118.213 264.436 117.629 265.294C114.828 270.124 111.901 274.903 109.428 279.903C107.758 283.284 106.776 287.001 105.439 290.554C105.199 290.985 104.894 291.378 104.536 291.718C104.341 291.168 103.904 290.54 104.003 290.087C104.334 288.719 104.758 287.375 105.27 286.064C106.542 282.514 107.798 278.955 109.162 275.439C109.778 273.924 110.494 272.452 111.306 271.032C114.68 264.878 118.963 259.365 123.605 254.149C124.526 253.112 125.453 251.772 127.452 252.613C130.139 253.745 131.92 256.885 130.889 259.663C130.536 260.553 130.395 261.513 130.476 262.467C130.558 263.421 130.86 264.342 131.358 265.16C132.461 267.171 133.728 269.157 134.436 271.311C135.604 274.884 133.102 279.033 129.484 279.983C127.576 280.488 125.653 280.917 123.728 281.354C118.596 282.51 113.801 284.315 110.086 288.279C109.749 288.545 109.382 288.771 108.992 288.952C108.997 288.4 108.785 287.695 109.037 287.325C110.339 285.408 111.767 283.58 113.311 281.852C115.107 279.931 117.17 278.251 119.053 276.436C119.42 276.069 119.518 275.455 119.738 274.959C119.194 274.99 118.549 274.853 118.13 275.095C116.819 275.854 115.605 276.775 114.333 277.595C114.027 277.732 113.702 277.825 113.369 277.869C113.369 277.497 113.427 277.127 113.541 276.773C115.841 272.339 118.175 267.916 120.617 263.115M73.6717 185.005C75.6229 183.698 77.5697 182.389 79.5213 181.125C79.7777 180.99 80.0484 180.884 80.3283 180.809C80.4063 181.107 80.6411 181.475 80.5272 181.69C80.1301 182.555 79.9107 183.491 79.8822 184.442C79.8537 185.393 80.0165 186.34 80.3611 187.228C80.5519 187.775 80.0582 188.62 79.7383 189.259C78.6579 191.443 77.3739 193.537 76.4224 195.772C74.5446 200.3 72.8646 204.907 71.0762 209.474C70.878 209.799 70.629 210.091 70.3387 210.337C70.2074 209.949 69.8977 209.513 69.9742 209.174C70.5144 206.814 70.611 204.324 72.5831 202.445C73.3549 201.734 73.8543 200.776 73.9951 199.737C74.1359 198.697 73.9093 197.641 73.3543 196.75C72.8199 195.93 68.3427 194.448 67.3955 194.776C67.3358 194.795 67.2791 194.835 67.2165 194.863C65.2982 195.652 63.8176 197.842 63.9747 199.865C64.2128 202.595 65.1309 203.968 67.4347 204.427C68.1924 204.576 69.0721 204.634 68.9426 205.972C68.4733 210.754 68.1647 215.551 67.7582 220.334C67.6375 220.773 67.4417 221.188 67.1795 221.56C66.8938 221.229 66.4449 220.937 66.3531 220.562C65.9589 218.894 65.7556 217.176 65.3118 215.525C63.8469 210.074 62.2726 204.66 60.8282 199.205C60.5191 198.036 60.7622 197.065 62.0209 196.154C64.0309 194.695 65.7032 192.767 67.5274 191.044C69.5228 189.153 71.5313 187.267 73.6541 185M21.3834 57.5008C21.2305 58.1065 21.1316 58.7246 21.088 59.3478C21.1037 60.9851 20.3149 61.8261 18.7258 62.0519C17.1366 62.2776 15.9495 61.9251 15.3076 60.3607C14.8663 59.2843 15.9674 56.0821 16.877 55.3775C18.125 54.4092 20.1935 54.8447 21.3834 57.5008ZM68.0125 124.485C68.7929 122.446 70.6075 122.289 72.3188 122.404C74.0301 122.519 75.4744 125.409 74.3653 126.413C73.3221 127.332 71.9961 127.866 70.6072 127.929C68.9537 127.934 67.616 126.925 68.0125 124.485ZM37.6579 257.304C37.675 257.669 37.6819 258.035 37.7209 258.393C37.9317 260.356 36.394 260.618 35.137 260.719C33.7909 260.825 33.0145 259.867 32.9113 258.469C32.7729 256.626 33.7568 255.275 35.3312 255.021C36.9872 254.754 37.2957 255.835 37.6579 257.304ZM87.9113 182.137C87.8982 182.983 88.1838 184.358 87.8143 184.568C86.7001 185.246 85.4208 185.602 84.117 185.599C82.6221 185.506 82.2949 184.034 83.3257 182.912C84.5622 181.547 86.0419 181.12 87.9099 182.142M66.8919 198.187C67.1888 198.036 67.5313 197.715 67.7668 197.768C68.7149 197.989 69.7445 198.169 70.5194 198.698C70.8526 198.928 70.9093 200.365 70.6243 200.554C69.6575 201.211 68.6712 202.211 67.2722 201.435C65.8733 200.658 66.4109 199.605 66.8743 198.181L66.8919 198.187Z"
                        fill="#E59C42" />
                </svg>