<svg viewBox="0 0 479 335" fill="none" xmlns="http://www.w3.org/2000/svg">
                        <g opacity="0.8">
                            <path
                                d="M437.691 77.926C436.622 81.8952 435.611 85.7764 434.401 89.5919C433.383 92.8322 432.256 96.0436 430.99 99.1958C430.302 100.902 430.202 100.841 432.049 101.351C436.907 102.682 441.77 104.015 446.565 105.533C448.858 106.252 449.299 108.391 447.801 110.456C444.899 114.462 442.052 118.502 439.07 122.444C434.83 128.047 430.361 133.464 425.131 138.181C421.037 141.867 416.807 145.406 412.651 149.029C412.409 149.314 412.208 149.632 412.056 149.973C412.405 150.112 412.772 150.198 413.146 150.227C417.664 149.828 422.179 149.302 426.707 149.053C427.756 148.996 428.955 149.71 429.907 150.341C430.924 151.014 430.802 152.888 429.789 153.915C422.448 161.358 415.1 168.789 407.744 176.208C402.98 181.064 397.747 185.437 392.121 189.262C389.222 191.224 386.095 192.854 383.067 194.632C382.769 194.831 382.483 195.048 382.211 195.281C382.578 195.519 382.983 195.694 383.407 195.799C385.493 195.942 387.609 195.832 389.662 196.166C390.99 196.457 392.236 197.04 393.311 197.873C394.521 198.747 394.356 200.625 393.291 201.719C388.964 206.162 384.607 210.573 380.368 215.107C376.613 219.116 372.229 222.485 367.389 225.08C362.428 227.777 357.092 229.409 351.668 230.736C349.092 231.359 346.415 231.591 343.781 231.954C343.448 232 343.079 231.756 342.723 231.644C342.96 231.28 343.112 230.752 343.45 230.579C344.081 230.314 344.738 230.116 345.409 229.986C350.141 228.652 354.951 227.534 359.593 225.936C365.371 223.973 370.72 220.923 375.351 216.95C376.038 216.355 376.83 215.888 377.539 215.319C377.723 215.109 377.869 214.868 377.97 214.608C377.679 214.473 377.391 214.209 377.107 214.217C368.455 214.495 359.805 214.794 351.158 215.112C343.635 215.401 336.101 215.549 328.599 216.105C321.652 216.624 314.734 217.624 307.811 218.365C305.151 218.649 302.485 218.887 299.817 218.995C298.128 219.056 297.244 220.135 296.13 221.11C290.243 226.327 284.28 231.465 278.318 236.593C277.063 237.67 275.635 238.542 274.314 239.539C274.091 239.773 273.907 240.04 273.768 240.33C274.049 240.49 274.347 240.617 274.657 240.708C282.259 242.071 289.865 243.284 297.419 244.807C301.242 245.556 304.883 247.111 308.691 247.912C313.609 248.947 318.634 249.45 323.561 250.452C327.976 251.348 332.5 251.794 336.835 252.757C340.846 253.644 342.899 251.268 345.534 249.767C347.836 248.456 349.896 246.673 351.929 244.946C353.376 243.649 354.732 242.254 355.986 240.77C356.711 239.95 356.202 239.093 354.826 238.819C352.622 238.382 350.384 238.088 348.193 237.594C345.763 237.088 343.365 236.439 341.011 235.648C340.426 235.441 340.181 234.253 339.788 233.503C340.626 233.294 341.511 232.81 342.296 232.934C345.949 233.505 349.583 234.18 353.199 234.959C354.785 235.296 356.661 235.539 357.788 236.529C360.697 239.091 360.034 239.843 357.816 242.28C353.749 246.748 348.848 250.264 343.872 253.594C341.437 255.197 338.917 256.667 336.323 257.996C335.175 258.593 333.798 258.736 332.527 259.12C327.79 260.53 323.128 262.214 318.306 263.303C311.203 264.896 304.017 266.09 296.848 267.353C288.295 268.863 279.653 269.124 271 268.691C268.576 268.572 266.078 267.789 263.819 266.819C259.47 264.961 255.449 262.501 252.047 259.12C251.327 258.405 250.431 258.214 249.513 258.996C243.197 264.4 235.949 268.264 228.386 271.556C226.308 272.431 224.186 273.195 222.027 273.845C221.475 274.001 220.763 273.704 220.125 273.615C220.555 272.997 220.848 272.102 221.441 271.807C225.416 269.825 229.57 268.177 233.442 266.021C237.903 263.546 242.132 260.67 246.448 257.923C246.675 257.776 246.89 257.134 246.776 256.991C241.79 250.765 241.891 243.459 242.186 236.072C242.398 230.614 242.103 225.099 243.506 219.755C245.105 213.68 246.715 207.612 248.657 201.646C249.917 197.742 251.767 194.029 253.392 190.246C254.802 186.961 256.267 183.711 257.69 180.42C258.156 179.324 258.926 178.324 260.052 178.603C261.072 178.873 262.365 179.709 262.717 180.613C263.668 183.061 264.181 185.677 264.867 188.224C264.962 188.569 265.076 188.912 265.181 189.255C265.456 189.019 265.702 188.751 265.916 188.459C268.055 184.686 270.162 180.889 272.283 177.106C278.16 166.835 284.065 156.58 289.935 146.306C290.331 145.599 290.396 144.654 290.885 144.022C291.484 143.22 292.295 142.155 293.113 142.065C293.843 141.982 295.033 142.9 295.457 143.686C296.933 146.508 298.157 149.463 299.506 152.353C299.713 152.663 299.964 152.942 300.249 153.183C300.488 152.956 300.694 152.695 300.859 152.41C301.724 150.204 302.44 147.933 303.423 145.784C305.438 141.312 307.526 136.876 309.687 132.477C311.427 128.935 313.334 125.478 315.153 121.976C316.58 119.225 317.855 116.389 319.428 113.726C321.543 110.129 323.86 106.651 326.13 103.151C327.226 101.479 328.457 99.8969 329.641 98.2834C331.074 96.3261 333.468 96.4326 334.722 98.4977C335.071 99.0579 335.36 99.6532 335.585 100.274C336.61 103.219 337.589 106.18 338.609 109.127C338.758 109.472 338.939 109.802 339.148 110.113C339.368 109.867 339.572 109.608 339.76 109.336C341.403 106.665 343.003 103.97 344.677 101.316C346.604 98.2604 348.445 95.1283 350.615 92.2459C352.459 89.7855 354.711 87.6275 356.802 85.3566C359.809 82.093 362.7 78.704 365.893 75.638C369.012 72.6374 372.402 69.9147 375.792 67.2192C376.673 66.5741 377.765 66.284 378.851 66.4063C380.525 66.6856 380.526 68.3916 380.68 69.6911C380.9 71.4693 380.878 73.2741 381.046 75.0552C381.213 76.8364 381.895 77.2699 383.552 76.6935C388.703 74.9392 393.626 72.5784 398.219 69.661C403.268 66.4092 408.234 63.0499 413.211 59.6785C416.59 57.3908 419.758 54.7845 423.296 52.7857C427.483 50.5128 431.791 48.4699 436.2 46.6659C438.177 45.8179 440.282 46.0178 442.251 47.3129C443.546 48.1694 443.891 49.1622 443.583 50.5741C442.57 55.1866 441.57 59.8052 440.584 64.43C439.763 68.3147 439.006 72.2171 438.175 76.0924C438.055 76.6801 437.826 77.2446 437.683 77.9401M333.03 158.244C332.686 157.019 332.372 155.788 331.991 154.57C330.444 149.622 329.108 144.587 327.254 139.755C325.06 134.03 321.58 128.973 318.066 123.968C317.245 122.796 316.881 123.015 316.36 124.084C315.388 126.091 314.416 128.106 313.393 130.08C311.363 133.989 309.278 137.871 307.252 141.782C306.796 142.732 306.39 143.705 306.035 144.697C304.794 147.831 303.705 151.031 302.291 154.082C301.155 156.531 299.712 156.484 298.25 154.195C298.047 153.877 297.886 153.526 297.711 153.191C296.553 150.905 295.421 148.607 294.231 146.336C293.952 145.943 293.623 145.588 293.252 145.28C292.951 145.565 292.678 145.879 292.438 146.218C291.08 148.64 289.617 151.008 288.406 153.498C287.965 154.408 288.043 155.595 288.023 156.667C288.059 157.283 288.169 157.893 288.352 158.483C289.406 163.234 290.349 167.992 291.533 172.7C292.15 175.156 293.264 177.477 294.002 179.899C295.69 185.391 297.143 190.956 298.974 196.408C300.316 200.414 302.226 204.2 303.703 208.146C304.268 209.625 304.871 209.238 305.61 208.584C309.375 205.244 313.145 201.911 316.844 198.497C319.487 196.056 321.832 193.259 324.633 191.032C329.196 187.405 333.231 183.259 337.247 179.084C337.644 178.674 337.719 177.694 337.567 177.07C336.552 172.898 335.396 168.76 334.371 164.587C333.872 162.569 333.547 160.514 333.076 158.237M321.84 115.748C321.902 115.968 321.903 116.248 322.037 116.407C325.533 120.002 328.382 124.174 330.458 128.738C332.168 132.56 334.113 136.31 335.539 140.223C337.113 144.518 338.273 148.97 339.549 153.376C341.215 159.13 342.735 164.923 343.228 170.921C343.294 171.245 343.398 171.56 343.539 171.858C343.869 171.68 344.173 171.458 344.444 171.199C345.53 169.8 346.52 168.325 347.651 166.956C350.397 163.634 353.281 160.423 355.95 157.04C358.762 153.476 361.434 149.797 364.087 146.112C366.306 143.025 368.39 139.839 370.569 136.734C371.552 135.329 372.755 134.07 373.624 132.605C374.597 130.962 376.036 129.134 375.979 127.42C375.793 123.372 375.202 119.354 374.215 115.424C372.649 109.02 370.858 102.666 367.571 96.8252C365.639 93.3848 363.644 90.0304 360.962 87.1224C360.382 86.4996 359.713 85.7019 358.882 86.6207C355.244 90.622 351.544 94.566 348.897 99.3604C347.358 102.155 345.643 104.855 343.918 107.541C342.805 109.269 341.562 110.914 340.324 112.557C339.408 113.801 338.163 113.692 337.456 112.343C337.198 111.856 336.973 111.352 336.781 110.835C335.574 107.495 334.404 104.143 333.16 100.819C333.058 100.599 332.912 100.403 332.73 100.244C332.547 100.085 332.333 99.9664 332.102 99.8959C331.838 99.8361 331.358 100.302 331.118 100.631C329.802 102.431 328.434 104.206 327.266 106.098C325.347 109.205 323.591 112.361 321.831 115.738M348.991 170.575C348.534 170.862 348.14 171.239 347.834 171.684C347.528 172.128 347.316 172.63 347.211 173.16C347.7 173.113 348.186 173.031 348.663 172.915C350.183 172.443 351.66 171.649 353.191 171.471C360.423 170.684 367.655 169.823 374.909 169.467C381.252 169.188 387.604 169.229 393.942 169.592C398.356 169.818 402.72 170.797 407.137 171.29C407.827 171.37 408.731 170.934 409.297 170.456C410.767 169.203 412.111 167.8 413.486 166.443C417.736 162.245 421.977 158.041 426.207 153.83C426.44 153.597 426.451 153.139 426.562 152.783C426.258 152.675 425.941 152.61 425.62 152.589C423.499 152.733 421.382 152.945 419.259 153.084C416.226 153.279 413.189 153.514 410.162 153.559C409.771 153.518 409.394 153.39 409.059 153.185C408.724 152.98 408.438 152.703 408.223 152.374C407.976 151.937 408.305 150.919 408.702 150.411C410.166 148.537 411.608 146.696 413.519 145.137C417.848 141.561 421.906 137.641 426.052 133.836C426.256 133.642 426.377 133.377 426.389 133.096C426.382 132.934 426.07 132.703 425.857 132.644C422.573 131.769 419.297 130.824 415.99 130.075C408.513 128.414 400.929 128.553 393.35 129.048C388.992 129.327 384.643 129.714 380.304 130.208C379.56 130.292 378.745 131.016 378.235 131.659C377.521 132.551 377.147 133.707 376.485 134.647C374.129 138.02 371.684 141.334 369.287 144.679C367.991 146.494 366.753 148.37 365.415 150.134C363.538 152.651 361.586 155.111 359.652 157.591C358.096 159.586 356.542 161.578 354.955 163.546C353.061 165.886 351.133 168.197 348.985 170.585M432.272 58.6663C430.597 59.995 428.805 61.202 427.27 62.679C423.002 66.792 418.78 70.9307 414.673 75.1947C411.258 78.7402 408.076 82.5146 405.703 86.8955C404.565 88.9903 403.652 91.2064 402.476 93.2794C400.699 96.4055 398.763 99.4424 396.917 102.534C394.478 106.618 392.067 110.718 389.627 114.796C389.359 115.273 388.936 115.654 388.618 116.089C387.22 118.034 385.823 119.978 384.459 121.946C384.402 122.078 384.373 122.22 384.372 122.363C384.371 122.506 384.4 122.649 384.456 122.781C384.486 122.867 384.924 122.89 385.146 122.834C387.491 122.224 389.802 121.345 392.2 121.031C396.359 120.398 400.555 120.033 404.762 119.938C410.195 119.904 415.544 121.008 420.746 122.531C424.061 123.498 427.403 124.592 430.176 126.891C430.59 127.23 431.92 127.186 432.217 126.823C434.794 123.662 437.252 120.398 439.712 117.139C441.415 114.882 442.905 112.423 444.806 110.361C446.074 108.986 445.528 108.368 444.337 107.881C442.317 107.059 440.207 106.462 438.141 105.745C435.243 104.737 432.366 103.677 429.46 102.693C428.048 102.212 427.76 101.242 428.093 99.9601C428.33 99.0657 428.626 98.1814 428.936 97.3141C429.712 95.0352 430.553 92.7738 431.275 90.4833C432.578 86.2874 433.851 82.0793 435.055 77.8515C436.12 74.1126 437.089 70.3474 438.074 66.5865C439.18 62.3595 440.258 58.1258 441.339 53.894C441.402 53.5619 441.446 53.2264 441.471 52.8893C441.095 52.9622 440.65 52.9266 440.354 53.123C437.706 54.8537 435.086 56.624 432.287 58.6888M319.946 199.67C318.21 201.35 316.517 203.082 314.717 204.694C313.041 206.189 311.256 207.549 309.52 208.987C309.24 209.314 309.011 209.681 308.84 210.075C309.194 210.117 309.55 210.136 309.906 210.129C311.593 209.973 313.283 209.76 314.972 209.624C320.189 209.199 325.405 208.806 330.621 208.39C336.384 207.927 342.136 207.333 347.907 207.028C352.802 206.771 357.717 206.832 362.623 206.786C369.304 206.741 375.947 206.548 382.517 208.044C383.185 208.195 384.234 207.692 384.773 207.153C386.612 205.316 388.2 203.223 390.083 201.44C391.191 200.393 391.096 199.949 389.796 199.466C389.498 199.335 389.184 199.242 388.863 199.189C387.056 198.998 385.225 198.947 383.441 198.639C381.373 198.292 379.33 197.802 377.329 197.173C376.73 196.981 376.337 196.091 375.937 195.462C376.111 195.151 376.367 194.892 376.677 194.715C380.715 192.486 384.913 190.504 388.731 187.998C393.27 184.994 397.484 181.506 401.847 178.227C402.003 178.08 402.142 177.916 402.261 177.739C401.975 177.602 401.673 177.312 401.412 177.346C400.139 177.511 398.885 177.89 397.615 177.959C392.098 178.248 386.538 178.118 381.072 178.766C373.822 179.626 366.582 179.377 359.323 179.424C354.195 179.452 349.103 179.366 343.992 179.363C342.33 179.36 340.919 179.721 339.651 181.111C336.958 184.119 334.09 186.966 331.062 189.637C327.321 192.861 323.482 195.959 319.93 199.707M257.357 190.286C256.305 192.633 255.042 194.918 254.291 197.36C253.926 198.549 252.722 199.645 253.763 201.335C256.196 205.284 258.418 209.393 260.56 213.513C262.337 216.973 263.859 220.574 265.523 224.096C267.432 228.15 269.488 232.157 271.264 236.276C271.808 237.544 272.496 237.219 273.021 236.797C276.07 234.361 279.051 231.846 282.038 229.306C286.116 225.852 290.18 222.38 294.228 218.89C295.483 217.805 296.318 216.581 295.418 214.78C294.87 213.678 294.585 212.454 294.133 211.271C292.916 208.087 291.539 204.958 290.478 201.728C289.569 198.964 289.024 196.084 288.303 193.258C287.441 189.823 286.893 186.234 285.573 182.97C283.613 178.12 282.59 173.108 281.769 168.009C281.693 167.539 281.595 167.075 281.509 166.608C281.119 166.98 280.611 167.28 280.359 167.729C277.277 173.158 274.251 178.619 271.196 184.067C269.47 187.143 267.77 190.233 265.988 193.277C265.839 193.531 265.637 193.75 265.396 193.919C265.155 194.089 264.881 194.205 264.591 194.26C264.298 194.24 264.015 194.149 263.765 193.994C263.516 193.84 263.308 193.626 263.16 193.373C262.254 190.844 261.522 188.272 260.713 185.712C260.569 185.332 260.403 184.961 260.215 184.601C259.869 184.937 259.4 185.227 259.205 185.624C258.597 187.04 258.094 188.501 257.381 190.244M425.183 60.6578C428.484 58.2848 431.732 55.8347 435.106 53.5722C436.765 52.4533 438.657 51.6829 440.441 50.7551L441.831 50.0335C441.291 49.5305 440.83 48.7281 440.204 48.5768C437.599 47.9339 435.308 49.0845 433.057 50.1826C427.903 52.6835 422.894 55.382 418.432 59.0791C415.726 61.3262 412.413 62.842 409.712 65.0876C405.084 68.862 400.058 72.1211 394.724 74.8071C391.38 76.5102 387.849 77.8578 384.369 79.2805C381.547 80.4349 379.687 79.6151 379.19 76.566C378.848 74.5152 378.676 72.4108 378.359 70.3412C378.281 69.833 378.062 69.1384 377.69 68.9392C377.319 68.74 376.609 69.0439 376.267 69.3634C372.368 72.9676 368.502 76.609 364.67 80.2877C364.499 80.452 364.62 81.2872 364.854 81.4417C365.971 82.2026 367.281 82.7095 368.328 83.5343C375.188 88.9385 379.361 96.1824 382.061 104.311C383.18 107.727 383.6 111.355 384.346 114.888C384.44 115.198 384.563 115.498 384.712 115.786C385.006 115.61 385.263 115.381 385.472 115.11C385.782 114.475 385.871 113.712 386.243 113.121C388.025 110.319 389.963 107.609 391.674 104.757C393.698 101.389 395.521 97.898 397.476 94.4864C397.799 93.9101 398.264 93.4131 398.647 92.8705C400.159 90.73 401.721 88.6173 403.155 86.4241C404.116 84.9598 404.72 83.2444 405.79 81.8596C408.699 78.0904 411.591 74.275 414.798 70.7704C418.005 67.2658 421.587 64.2092 425.18 60.6467M264.217 263.548C265.874 264.1 267.495 264.814 269.189 265.184C276.027 266.672 282.947 265.696 289.798 265.421C294.648 265.227 299.47 264.088 304.277 263.224C310.951 262.022 317.604 260.692 324.258 259.386C324.566 259.326 324.822 258.986 325.099 258.774C324.745 258.576 324.406 258.237 324.043 258.219C321.85 258.095 319.625 258.242 317.459 257.943C310.312 256.955 303.161 255.965 296.052 254.678C290.405 253.649 284.799 252.308 279.247 250.83C275.087 249.72 271.065 248.124 266.958 246.82C266.366 246.632 265.45 246.624 265.017 246.967C261.571 249.58 258.209 252.309 254.803 254.977C253.963 255.645 253.488 256.21 254.66 257.012C257.755 259.119 260.831 261.258 264.217 263.557M251.397 209.796L250.905 208.916C250.576 209.271 250.064 209.587 249.949 209.983C249.08 213.679 248.048 217.39 247.508 221.163C246.978 225.19 246.668 229.242 246.579 233.302C246.453 237.122 246.382 240.986 246.787 244.773C247.11 247.743 248.271 250.63 248.9 253.585C249.227 255.164 249.867 255.109 250.891 254.303C254.964 251.093 258.961 247.786 263.124 244.706C264.696 243.561 265.022 242.722 264.054 240.943C262.002 237.32 260.176 233.573 258.588 229.724C256.029 223.223 253.814 216.59 251.397 209.796ZM387.266 171.55C387.052 171.636 386.828 171.696 386.599 171.729C380.767 171.935 374.923 171.929 369.109 172.377C362.93 172.853 356.762 173.674 350.626 174.504C348.701 174.762 346.825 175.481 344.958 176.042C344.711 176.117 344.537 176.443 344.328 176.651C344.595 176.819 344.893 176.932 345.205 176.985C346.08 176.941 346.953 176.719 347.824 176.706C352.614 176.635 357.406 176.588 362.2 176.566C366.07 176.543 369.95 176.66 373.814 176.508C376.762 176.39 379.689 175.778 382.637 175.693C388.553 175.521 394.482 175.648 400.397 175.452C402.338 175.388 404.517 175.779 406.149 174.138C406.339 173.928 406.518 173.709 406.685 173.481C406.516 173.358 406.365 173.148 406.186 173.127C403.272 172.738 400.366 172.275 397.443 172.025C394.139 171.743 390.818 171.656 387.266 171.55ZM315.239 254.55C318.006 254.838 320.766 255.205 323.537 255.402C327.012 255.645 330.494 255.767 333.961 255.876C334.417 255.89 334.897 255.583 335.367 255.424C334.89 255.156 334.439 254.741 333.937 254.659C328.555 253.755 323.156 252.939 317.779 252.029C313.765 251.353 309.738 250.712 305.772 249.794C301.248 248.744 296.839 247.191 292.3 246.253C285.803 244.91 279.218 243.987 272.698 242.742C271.519 242.517 270.529 242.417 269.622 243.173C269.213 243.606 268.859 244.089 268.57 244.609C269.085 244.726 269.599 244.862 270.118 244.957C270.325 244.994 270.564 244.882 270.765 244.939C275.039 246.127 279.379 247.13 283.563 248.58C290.687 251.042 298.122 251.889 305.474 253.191C308.631 253.753 311.82 254.143 315.229 254.544M290.843 192.303C291.209 193.903 291.447 195.551 291.961 197.113C293.73 202.427 295.599 207.705 297.421 212.999C297.678 213.742 297.896 214.497 298.131 215.256C298.633 214.775 299.114 214.264 299.646 213.814C301.844 211.966 301.906 211.442 300.906 208.99C298.699 203.569 296.422 198.141 294.542 192.593C292.53 186.659 290.887 180.597 289.172 174.564C288.11 170.822 287.154 167.051 286.27 163.264C286.034 162.244 286.285 161.116 286.218 160.042C286.135 159.56 285.995 159.09 285.8 158.641C285.502 158.913 285.22 159.202 284.953 159.505C283.315 161.598 282.828 163.849 284.015 166.341C284.15 166.621 284.086 166.994 284.15 167.318C284.834 170.723 285.308 174.195 286.221 177.538C287.566 182.424 289.235 187.222 290.832 192.297M360.497 209.674C359.846 209.708 359.198 209.777 358.547 209.77C351.112 209.676 343.714 210.188 336.306 210.825C328.25 211.515 320.176 212.016 312.085 212.327C307.864 212.502 303.986 213.153 301.024 216.469C300.866 216.702 300.739 216.955 300.649 217.221C300.846 217.285 301.052 217.447 301.237 217.407C304.86 216.831 308.458 216.135 312.103 215.66C318.371 214.838 324.645 214.084 330.926 213.399C337.993 212.631 345.072 212.531 352.182 212.409C360.209 212.292 368.231 211.72 376.27 212.13C378.175 212.222 380.245 212.881 381.591 210.764C381.795 210.441 382.02 210.131 382.229 209.816C381.842 209.666 381.438 209.566 381.026 209.517C374.286 209.609 367.551 209.726 360.498 209.656M323.146 122.244C322.397 120.796 321.669 119.333 320.873 117.91C320.784 117.754 320.243 117.683 320.011 117.79C318.818 118.384 318.17 121.562 318.973 122.691C321.055 125.607 323.256 128.445 325.207 131.463C328.803 137.068 331.22 143.258 333.307 149.531C335.007 154.645 336.186 159.935 337.505 165.174C338.351 168.521 339.025 171.91 339.79 175.286C339.893 175.545 340.032 175.787 340.204 176.006C340.423 175.902 340.62 175.76 340.789 175.586C341.447 174.561 342.088 173.526 341.783 172.156C341.249 169.793 340.912 167.377 340.257 165.049C338.542 158.959 336.749 152.892 334.881 146.849C333.93 143.797 332.942 140.71 331.561 137.853C329.025 132.629 326.177 127.564 323.153 122.257M376.913 101.284C374.471 93.8718 368.96 88.5644 364.11 82.8183C363.847 82.5082 362.834 82.4836 362.435 82.7387C362.036 82.9938 361.915 83.7902 361.989 84.3055C362.137 84.823 362.441 85.2824 362.859 85.621C366.579 89.1718 369.101 93.5512 371.38 98.0734C372.654 100.602 373.731 103.226 374.6 105.922C375.632 109.136 376.429 112.432 377.137 115.734C377.694 118.329 377.948 120.985 378.367 123.609C378.472 123.912 378.628 124.195 378.828 124.444C379.019 124.253 379.198 124.051 379.367 123.84C381.066 121.54 381.733 119.092 380.894 116.27C380.616 115.333 380.738 114.277 380.473 113.334C379.349 109.38 378.142 105.449 376.904 101.274M388.198 126.915C392.31 126.693 396.423 126.444 400.536 126.255C408.777 125.913 417.008 127.155 424.782 129.912C425.805 130.267 426.848 130.76 427.896 130.79C428.53 130.811 429.192 130.071 429.838 129.671C429.454 129.288 429.127 128.785 428.665 128.549C427.638 127.989 426.56 127.527 425.447 127.167C422.185 126.188 418.917 125.238 415.615 124.404C410.131 123.01 404.549 122.133 398.893 122.679C394.411 123.103 389.933 123.896 385.465 124.644C383.646 124.953 381.743 125.372 380.965 127.446C380.894 127.727 380.851 128.014 380.837 128.304C381.143 128.401 381.464 128.44 381.785 128.422C383.841 127.879 385.888 127.288 388.228 126.877M266.402 232.332C265.895 231.438 265.324 230.575 264.901 229.631C263.097 225.737 261.436 221.771 259.522 217.932C257.516 213.902 255.297 209.985 253.12 206.036C252.841 205.531 252.223 205.216 251.763 204.81C251.789 205.475 251.777 206.143 251.857 206.796C251.886 207.035 252.154 207.237 252.267 207.491C253.739 210.278 255.327 213.014 256.636 215.876C258.271 219.466 259.597 223.193 261.198 226.801C263.164 231.269 265.262 235.699 267.335 240.115C267.458 240.384 267.699 240.784 267.89 240.784C268.049 240.771 268.204 240.719 268.339 240.633C268.475 240.547 268.588 240.43 268.668 240.291C268.888 239.633 269.255 238.821 269.04 238.269C268.301 236.321 267.347 234.451 266.408 232.321L266.402 232.332Z"
                                fill="#E59C42" />
                            <path
                                d="M41.5726 77.926C42.6416 81.8952 43.6519 85.7764 44.8623 89.5919C45.8802 92.8322 47.0075 96.0436 48.2736 99.1958C48.9608 100.902 49.0614 100.841 47.2145 101.351C42.3557 102.682 37.4934 104.015 32.698 105.533C30.4055 106.252 29.9645 108.391 31.462 110.456C34.3638 114.462 37.2112 118.502 40.1935 122.444C44.4327 128.047 48.9026 133.464 54.1324 138.181C58.226 141.867 62.456 145.406 66.612 149.029C66.8546 149.314 67.0549 149.632 67.2068 149.973C66.8585 150.112 66.4911 150.198 66.1172 150.227C61.5991 149.828 57.084 149.302 52.5567 149.053C51.5067 148.996 50.3084 149.71 49.3565 150.341C48.3395 151.014 48.4612 152.888 49.4738 153.915C56.815 161.358 64.1636 168.789 71.5194 176.208C76.2834 181.064 81.5165 185.437 87.142 189.262C90.0412 191.224 93.1677 192.854 96.196 194.632C96.4943 194.831 96.7804 195.048 97.0526 195.281C96.6851 195.519 96.2807 195.694 95.8558 195.799C93.77 195.942 91.6541 195.832 89.6009 196.166C88.2732 196.457 87.0269 197.04 85.9524 197.873C84.7417 198.747 84.9072 200.625 85.972 201.719C90.2994 206.162 94.6562 210.573 98.8953 215.107C102.65 219.116 107.034 222.485 111.874 225.08C116.836 227.777 122.171 229.409 127.595 230.736C130.171 231.359 132.848 231.591 135.483 231.954C135.815 232 136.185 231.756 136.541 231.644C136.304 231.28 136.151 230.752 135.813 230.579C135.182 230.314 134.525 230.116 133.854 229.986C129.122 228.652 124.312 227.534 119.67 225.936C113.892 223.973 108.544 220.923 103.912 216.95C103.225 216.355 102.433 215.888 101.724 215.319C101.54 215.109 101.395 214.868 101.293 214.608C101.584 214.473 101.873 214.209 102.156 214.217C110.808 214.495 119.458 214.794 128.105 215.112C135.629 215.401 143.162 215.549 150.664 216.105C157.611 216.624 164.53 217.624 171.452 218.365C174.112 218.649 176.779 218.887 179.446 218.995C181.135 219.056 182.02 220.135 183.133 221.11C189.02 226.327 194.983 231.465 200.946 236.593C202.2 237.67 203.628 238.542 204.95 239.539C205.172 239.773 205.356 240.04 205.495 240.33C205.215 240.49 204.916 240.617 204.606 240.708C197.005 242.071 189.398 243.284 181.844 244.807C178.021 245.556 174.38 247.111 170.572 247.912C165.654 248.947 160.629 249.45 155.702 250.452C151.287 251.348 146.764 251.794 142.428 252.757C138.418 253.644 136.365 251.268 133.729 249.767C131.427 248.456 129.367 246.673 127.334 244.946C125.887 243.649 124.532 242.254 123.277 240.77C122.552 239.95 123.061 239.093 124.437 238.819C126.641 238.382 128.879 238.088 131.07 237.594C133.5 237.088 135.899 236.439 138.252 235.648C138.837 235.441 139.082 234.253 139.475 233.503C138.637 233.294 137.752 232.81 136.967 232.934C133.314 233.505 129.68 234.18 126.065 234.959C124.478 235.296 122.602 235.539 121.475 236.529C118.566 239.091 119.229 239.843 121.447 242.28C125.514 246.748 130.415 250.264 135.392 253.594C137.826 255.197 140.346 256.667 142.94 257.996C144.089 258.593 145.466 258.736 146.736 259.12C151.473 260.53 156.136 262.214 160.957 263.303C168.06 264.896 175.246 266.09 182.415 267.353C190.968 268.863 199.61 269.124 208.263 268.691C210.687 268.572 213.186 267.789 215.444 266.819C219.794 264.961 223.815 262.501 227.217 259.12C227.936 258.405 228.832 258.214 229.75 258.996C236.067 264.4 243.314 268.264 250.877 271.556C252.955 272.431 255.078 273.195 257.236 273.845C257.788 274.001 258.5 273.704 259.138 273.615C258.708 272.997 258.415 272.102 257.822 271.807C253.847 269.825 249.693 268.177 245.821 266.021C241.36 263.546 237.131 260.67 232.815 257.923C232.588 257.776 232.373 257.134 232.487 256.991C237.473 250.765 237.372 243.459 237.077 236.072C236.865 230.614 237.16 225.099 235.757 219.755C234.158 213.68 232.548 207.612 230.606 201.646C229.346 197.742 227.496 194.029 225.872 190.246C224.461 186.961 222.996 183.711 221.573 180.42C221.107 179.324 220.337 178.324 219.211 178.603C218.191 178.873 216.899 179.709 216.546 180.613C215.595 183.061 215.083 185.677 214.396 188.224C214.302 188.569 214.187 188.912 214.082 189.255C213.807 189.019 213.561 188.751 213.347 188.459C211.208 184.686 209.102 180.889 206.98 177.106C201.103 166.835 195.198 156.58 189.328 146.306C188.932 145.599 188.867 144.654 188.378 144.022C187.779 143.22 186.968 142.155 186.15 142.065C185.42 141.982 184.23 142.9 183.806 143.686C182.331 146.508 181.106 149.463 179.757 152.353C179.55 152.663 179.3 152.942 179.015 153.183C178.775 152.956 178.57 152.695 178.404 152.41C177.539 150.204 176.823 147.933 175.841 145.784C173.825 141.312 171.737 136.876 169.576 132.477C167.836 128.935 165.93 125.478 164.11 121.976C162.683 119.225 161.408 116.389 159.835 113.726C157.721 110.129 155.403 106.651 153.133 103.151C152.037 101.479 150.806 99.8969 149.622 98.2834C148.19 96.3261 145.795 96.4326 144.541 98.4977C144.192 99.0579 143.903 99.6532 143.678 100.274C142.653 103.219 141.674 106.18 140.655 109.127C140.505 109.472 140.325 109.802 140.115 110.113C139.895 109.867 139.691 109.608 139.503 109.336C137.861 106.665 136.26 103.97 134.586 101.316C132.659 98.2604 130.818 95.1283 128.649 92.2459C126.804 89.7855 124.552 87.6275 122.461 85.3566C119.454 82.093 116.564 78.704 113.371 75.638C110.252 72.6374 106.861 69.9147 103.471 67.2192C102.59 66.5741 101.498 66.284 100.413 66.4063C98.7379 66.6856 98.7374 68.3916 98.5832 69.6911C98.3628 71.4693 98.3851 73.2741 98.2175 75.0552C98.0499 76.8364 97.3681 77.2699 95.7109 76.6935C90.5605 74.9392 85.637 72.5784 81.0443 69.661C75.9949 66.4092 71.0293 63.0499 66.0522 59.6785C62.673 57.3908 59.5055 54.7845 55.9676 52.7857C51.7804 50.5128 47.4725 48.4699 43.063 46.6659C41.0862 45.8179 38.9813 46.0178 37.012 47.3129C35.717 48.1694 35.3721 49.1622 35.6806 50.5741C36.6936 55.1866 37.693 59.8052 38.6787 64.43C39.5005 68.3147 40.2577 72.2171 41.088 76.0924C41.2085 76.6801 41.4368 77.2446 41.5806 77.9401M146.233 158.244C146.577 157.019 146.891 155.788 147.272 154.57C148.819 149.622 150.155 144.587 152.009 139.755C154.203 134.03 157.684 128.973 161.197 123.968C162.018 122.796 162.382 123.015 162.903 124.084C163.875 126.091 164.848 128.106 165.871 130.08C167.9 133.989 169.985 137.871 172.011 141.782C172.467 142.732 172.873 143.705 173.228 144.697C174.47 147.831 175.558 151.031 176.972 154.082C178.108 156.531 179.551 156.484 181.014 154.195C181.216 153.877 181.378 153.526 181.552 153.191C182.71 150.905 183.842 148.607 185.032 146.336C185.311 145.943 185.64 145.588 186.011 145.28C186.313 145.565 186.585 145.879 186.825 146.218C188.183 148.64 189.646 151.008 190.857 153.498C191.298 154.408 191.22 155.595 191.24 156.667C191.204 157.283 191.094 157.893 190.911 158.483C189.857 163.234 188.915 167.992 187.73 172.7C187.114 175.156 185.999 177.477 185.261 179.899C183.573 185.391 182.121 190.956 180.289 196.408C178.948 200.414 177.037 204.2 175.56 208.146C174.995 209.625 174.393 209.238 173.654 208.584C169.889 205.244 166.118 201.911 162.419 198.497C159.777 196.056 157.431 193.259 154.63 191.032C150.067 187.405 146.032 183.259 142.017 179.084C141.62 178.674 141.544 177.694 141.696 177.07C142.712 172.898 143.867 168.76 144.892 164.587C145.391 162.569 145.716 160.514 146.187 158.237M157.423 115.748C157.361 115.968 157.36 116.248 157.226 116.407C153.73 120.002 150.882 124.174 148.805 128.738C147.095 132.56 145.15 136.31 143.725 140.223C142.15 144.518 140.99 148.97 139.715 153.376C138.048 159.13 136.528 164.923 136.035 170.921C135.969 171.245 135.865 171.56 135.724 171.858C135.394 171.68 135.09 171.458 134.819 171.199C133.733 169.8 132.743 168.325 131.612 166.956C128.866 163.634 125.982 160.423 123.313 157.04C120.501 153.476 117.829 149.797 115.176 146.112C112.957 143.025 110.873 139.839 108.694 136.734C107.711 135.329 106.508 134.07 105.639 132.605C104.667 130.962 103.228 129.134 103.284 127.42C103.471 123.372 104.062 119.354 105.048 115.424C106.614 109.02 108.405 102.666 111.692 96.8252C113.624 93.3848 115.619 90.0304 118.301 87.1224C118.882 86.4996 119.55 85.7019 120.381 86.6207C124.02 90.622 127.719 94.566 130.366 99.3604C131.906 102.155 133.62 104.855 135.345 107.541C136.458 109.269 137.701 110.914 138.939 112.557C139.855 113.801 141.1 113.692 141.807 112.343C142.065 111.856 142.29 111.352 142.482 110.835C143.69 107.495 144.859 104.143 146.104 100.819C146.205 100.599 146.351 100.403 146.534 100.244C146.716 100.085 146.93 99.9664 147.161 99.8959C147.425 99.8361 147.905 100.302 148.146 100.631C149.462 102.431 150.829 104.206 151.997 106.098C153.916 109.205 155.672 112.361 157.432 115.738M130.272 170.575C130.729 170.862 131.123 171.239 131.429 171.684C131.735 172.128 131.947 172.63 132.052 173.16C131.563 173.113 131.077 173.031 130.6 172.915C129.08 172.443 127.603 171.649 126.072 171.471C118.84 170.684 111.609 169.823 104.354 169.467C98.0115 169.188 91.6592 169.229 85.3212 169.592C80.9072 169.818 76.5435 170.797 72.1259 171.29C71.4364 171.37 70.5318 170.934 69.9664 170.456C68.4967 169.203 67.1523 167.8 65.7774 166.443C61.527 162.245 57.2865 158.041 53.056 153.83C52.8235 153.597 52.8126 153.139 52.7013 152.783C53.0049 152.675 53.3218 152.61 53.6431 152.589C55.7643 152.733 57.8815 152.945 60.0043 153.084C63.0372 153.279 66.0738 153.514 69.1014 153.559C69.4922 153.518 69.869 153.39 70.2043 153.185C70.5396 152.98 70.825 152.703 71.0397 152.374C71.2875 151.937 70.9578 150.919 70.5616 150.411C69.0968 148.537 67.6554 146.696 65.7446 145.137C61.4148 141.561 57.3572 137.641 53.2108 133.836C53.0072 133.642 52.8867 133.377 52.8743 133.096C52.8811 132.934 53.1932 132.703 53.4064 132.644C56.6897 131.769 59.966 130.824 63.2735 130.075C70.75 128.414 78.3339 128.553 85.9129 129.048C90.271 129.327 94.6198 129.714 98.9592 130.208C99.7037 130.292 100.518 131.016 101.028 131.659C101.742 132.551 102.117 133.707 102.778 134.647C105.135 138.02 107.579 141.334 109.976 144.679C111.273 146.494 112.511 148.37 113.849 150.134C115.725 152.651 117.677 155.111 119.612 157.591C121.167 159.586 122.721 161.578 124.308 163.546C126.202 165.886 128.13 168.197 130.278 170.585M46.9911 58.6663C48.6659 59.995 50.4583 61.202 51.9932 62.679C56.2614 66.792 60.4836 70.9307 64.5902 75.1947C68.0056 78.7402 71.1869 82.5146 73.5604 86.8955C74.6981 88.9903 75.6111 91.2064 76.7877 93.2794C78.5643 96.4055 80.4999 99.4424 82.3457 102.534C84.7849 106.618 87.1958 110.718 89.6365 114.796C89.9042 115.273 90.327 115.654 90.6454 116.089C92.0427 118.034 93.4401 119.978 94.8041 121.946C94.861 122.078 94.8906 122.22 94.8912 122.363C94.8918 122.506 94.8633 122.649 94.8075 122.781C94.7771 122.867 94.339 122.89 94.1167 122.834C91.7719 122.224 89.4615 121.345 87.0635 121.031C82.9039 120.398 78.7079 120.033 74.5014 119.938C69.0678 119.904 63.7191 121.008 58.5174 122.531C55.2021 123.498 51.8602 124.592 49.0874 126.891C48.6734 127.23 47.3428 127.186 47.046 126.823C44.4692 123.662 42.011 120.398 39.5511 117.139C37.8485 114.882 36.3577 112.423 34.4575 110.361C33.1888 108.986 33.7348 108.368 34.9258 107.881C36.9466 107.059 39.0562 106.462 41.122 105.745C44.0197 104.737 46.8967 103.677 49.8028 102.693C51.2155 102.212 51.5034 101.242 51.1702 99.9601C50.9335 99.0657 50.6373 98.1814 50.3275 97.3141C49.5513 95.0352 48.7106 92.7738 47.9882 90.4833C46.6853 86.2874 45.4126 82.0793 44.208 77.8515C43.1428 74.1126 42.1743 70.3474 41.1897 66.5865C40.0831 62.3595 39.0052 58.1258 37.9238 53.894C37.861 53.5619 37.8172 53.2264 37.7925 52.8893C38.1681 52.9622 38.6128 52.9266 38.9089 53.123C41.5575 54.8537 44.1771 56.624 46.9758 58.6888M159.317 199.67C161.054 201.35 162.746 203.082 164.547 204.694C166.222 206.189 168.007 207.549 169.743 208.987C170.023 209.314 170.252 209.681 170.423 210.075C170.069 210.117 169.713 210.136 169.357 210.129C167.671 209.973 165.98 209.76 164.291 209.624C159.075 209.199 153.858 208.806 148.642 208.39C142.88 207.927 137.127 207.333 131.356 207.028C126.461 206.771 121.546 206.832 116.64 206.786C109.959 206.741 103.316 206.548 96.7465 208.044C96.0785 208.195 95.0292 207.692 94.4899 207.153C92.6512 205.316 91.0635 203.223 89.1801 201.44C88.0723 200.393 88.1673 199.949 89.4674 199.466C89.7654 199.335 90.0787 199.242 90.3998 199.189C92.2075 198.998 94.0381 198.947 95.8221 198.639C97.8906 198.292 99.9328 197.802 101.934 197.173C102.533 196.981 102.926 196.091 103.326 195.462C103.152 195.151 102.896 194.892 102.587 194.715C98.5477 192.486 94.35 190.504 90.5321 187.998C85.9935 184.994 81.7787 181.506 77.4158 178.227C77.2603 178.08 77.1216 177.916 77.0024 177.739C77.2881 177.602 77.5901 177.312 77.8513 177.346C79.1241 177.511 80.3781 177.89 81.6482 177.959C87.1647 178.248 92.7249 178.118 98.1913 178.766C105.441 179.626 112.682 179.377 119.94 179.424C125.068 179.452 130.16 179.366 135.271 179.363C136.933 179.36 138.344 179.721 139.612 181.111C142.305 184.119 145.173 186.966 148.201 189.637C151.942 192.861 155.781 195.959 159.333 199.707M221.906 190.286C222.958 192.633 224.221 194.918 224.972 197.36C225.337 198.549 226.542 199.645 225.5 201.335C223.067 205.284 220.845 209.393 218.703 213.513C216.926 216.973 215.404 220.574 213.74 224.096C211.831 228.15 209.775 232.157 208 236.276C207.456 237.544 206.767 237.219 206.242 236.797C203.193 234.361 200.212 231.846 197.225 229.306C193.147 225.852 189.083 222.38 185.035 218.89C183.78 217.805 182.945 216.581 183.845 214.78C184.393 213.678 184.678 212.454 185.13 211.271C186.347 208.087 187.725 204.958 188.785 201.728C189.694 198.964 190.239 196.084 190.96 193.258C191.822 189.823 192.37 186.234 193.69 182.97C195.65 178.12 196.673 173.108 197.495 168.009C197.57 167.539 197.668 167.075 197.755 166.608C198.144 166.98 198.652 167.28 198.904 167.729C201.986 173.158 205.012 178.619 208.068 184.067C209.793 187.143 211.493 190.233 213.275 193.277C213.424 193.531 213.626 193.75 213.867 193.919C214.108 194.089 214.383 194.205 214.672 194.26C214.965 194.24 215.248 194.149 215.498 193.994C215.747 193.84 215.955 193.626 216.104 193.373C217.009 190.844 217.741 188.272 218.551 185.712C218.694 185.332 218.86 184.961 219.048 184.601C219.394 184.937 219.863 185.227 220.058 185.624C220.666 187.04 221.17 188.501 221.882 190.244M54.0804 60.6578C50.7788 58.2848 47.5316 55.8347 44.1572 53.5722C42.4978 52.4533 40.6064 51.6829 38.8218 50.7551L37.4317 50.0335C37.9723 49.5305 38.4332 48.7281 39.0594 48.5768C41.6641 47.9339 43.9548 49.0845 46.2066 50.1826C51.3601 52.6835 56.3687 55.382 60.8313 59.0791C63.537 61.3262 66.8505 62.842 69.5508 65.0876C74.1793 68.862 79.2051 72.1211 84.5394 74.8071C87.8836 76.5102 91.4141 77.8578 94.8938 79.2805C97.7164 80.4349 99.5758 79.6151 100.073 76.566C100.415 74.5152 100.587 72.4108 100.904 70.3412C100.982 69.833 101.201 69.1384 101.573 68.9392C101.945 68.74 102.654 69.0439 102.996 69.3634C106.895 72.9676 110.761 76.609 114.594 80.2877C114.765 80.452 114.643 81.2872 114.409 81.4417C113.293 82.2026 111.983 82.7095 110.935 83.5343C104.075 88.9385 99.9024 96.1824 97.2017 104.311C96.0828 107.727 95.6636 111.355 94.9168 114.888C94.8228 115.198 94.7004 115.498 94.5511 115.786C94.2577 115.61 93.9999 115.381 93.7913 115.11C93.4816 114.475 93.3926 113.712 93.0198 113.121C91.2386 110.319 89.3003 107.609 87.5894 104.757C85.5653 101.389 83.7424 97.898 81.787 94.4864C81.4638 93.9101 80.9992 93.4131 80.6158 92.8705C79.1039 90.73 77.5425 88.6173 76.1079 86.4241C75.1471 84.9598 74.5429 83.2444 73.4734 81.8596C70.5646 78.0904 67.6717 74.275 64.4652 70.7704C61.2586 67.2658 57.6758 64.2092 54.0835 60.6467M215.046 263.548C213.39 264.1 211.768 264.814 210.074 265.184C203.236 266.672 196.316 265.696 189.465 265.421C184.615 265.227 179.793 264.088 174.986 263.224C168.312 262.022 161.659 260.692 155.005 259.386C154.697 259.326 154.441 258.986 154.164 258.774C154.518 258.576 154.858 258.237 155.22 258.219C157.414 258.095 159.638 258.242 161.804 257.943C168.951 256.955 176.102 255.965 183.212 254.678C188.858 253.649 194.464 252.308 200.016 250.83C204.176 249.72 208.198 248.124 212.305 246.82C212.897 246.632 213.813 246.624 214.247 246.967C217.692 249.58 221.054 252.309 224.461 254.977C225.3 255.645 225.775 256.21 224.603 257.012C221.509 259.119 218.432 261.258 215.046 263.557M227.866 209.796L228.358 208.916C228.687 209.271 229.199 209.587 229.314 209.983C230.183 213.679 231.215 217.39 231.755 221.163C232.285 225.19 232.595 229.242 232.684 233.302C232.81 237.122 232.881 240.986 232.477 244.773C232.153 247.743 230.993 250.63 230.364 253.585C230.036 255.164 229.396 255.109 228.372 254.303C224.3 251.093 220.302 247.786 216.139 244.706C214.567 243.561 214.241 242.722 215.209 240.943C217.262 237.32 219.087 233.573 220.676 229.724C223.234 223.223 225.449 216.59 227.866 209.796ZM91.997 171.55C92.2116 171.636 92.4356 171.696 92.6643 171.729C98.4963 171.935 104.34 171.929 110.155 172.377C116.333 172.853 122.501 173.674 128.637 174.504C130.562 174.762 132.439 175.481 134.306 176.042C134.552 176.117 134.726 176.443 134.935 176.651C134.668 176.819 134.37 176.932 134.058 176.985C133.183 176.941 132.311 176.719 131.439 176.706C126.649 176.635 121.857 176.588 117.063 176.566C113.193 176.543 109.313 176.66 105.449 176.508C102.501 176.39 99.5738 175.778 96.626 175.693C90.7102 175.521 84.7815 175.648 78.8665 175.452C76.9251 175.388 74.7459 175.779 73.1143 174.138C72.9244 173.928 72.7456 173.709 72.5785 173.481C72.7469 173.358 72.8984 173.148 73.0771 173.127C75.9915 172.738 78.8969 172.275 81.8198 172.025C85.124 171.743 88.4448 171.656 91.997 171.55ZM164.024 254.55C161.257 254.838 158.498 255.205 155.727 255.402C152.252 255.645 148.769 255.767 145.302 255.876C144.846 255.89 144.367 255.583 143.896 255.424C144.373 255.156 144.824 254.741 145.326 254.659C150.708 253.755 156.107 252.939 161.485 252.029C165.498 251.353 169.526 250.712 173.491 249.794C178.015 248.744 182.424 247.191 186.964 246.253C193.461 244.91 200.045 243.987 206.565 242.742C207.745 242.517 208.734 242.417 209.641 243.173C210.05 243.606 210.404 244.089 210.693 244.609C210.178 244.726 209.664 244.862 209.146 244.957C208.939 244.994 208.699 244.882 208.499 244.939C204.225 246.127 199.884 247.13 195.7 248.58C188.576 251.042 181.141 251.889 173.789 253.191C170.632 253.753 167.444 254.143 164.034 254.544M188.421 192.303C188.054 193.903 187.816 195.551 187.303 197.113C185.533 202.427 183.665 207.705 181.842 212.999C181.585 213.742 181.367 214.497 181.132 215.256C180.63 214.775 180.149 214.264 179.617 213.814C177.419 211.966 177.358 211.442 178.357 208.99C180.564 203.569 182.842 198.141 184.721 192.593C186.733 186.659 188.376 180.597 190.091 174.564C191.153 170.822 192.11 167.051 192.993 163.264C193.23 162.244 192.978 161.116 193.045 160.042C193.128 159.56 193.268 159.09 193.463 158.641C193.761 158.913 194.044 159.202 194.31 159.505C195.948 161.598 196.435 163.849 195.248 166.341C195.113 166.621 195.178 166.994 195.113 167.318C194.429 170.723 193.956 174.195 193.042 177.538C191.697 182.424 190.029 187.222 188.431 192.297M118.766 209.674C119.418 209.708 120.065 209.777 120.716 209.77C128.151 209.676 135.55 210.188 142.957 210.825C151.013 211.515 159.087 212.016 167.178 212.327C171.399 212.502 175.277 213.153 178.239 216.469C178.398 216.702 178.524 216.955 178.614 217.221C178.418 217.285 178.211 217.447 178.026 217.407C174.403 216.831 170.806 216.135 167.16 215.66C160.893 214.838 154.618 214.084 148.338 213.399C141.27 212.631 134.191 212.531 127.082 212.409C119.054 212.292 111.032 211.72 102.993 212.13C101.089 212.222 99.0182 212.881 97.6725 210.764C97.4684 210.441 97.2432 210.131 97.034 209.816C97.421 209.666 97.8254 209.566 98.2376 209.517C104.977 209.609 111.712 209.726 118.765 209.656M156.117 122.244C156.867 120.796 157.594 119.333 158.39 117.91C158.479 117.754 159.02 117.683 159.252 117.79C160.445 118.384 161.094 121.562 160.291 122.691C158.208 125.607 156.007 128.445 154.056 131.463C150.46 137.068 148.043 143.258 145.957 149.531C144.256 154.645 143.077 159.935 141.758 165.174C140.912 168.521 140.238 171.91 139.473 175.286C139.37 175.545 139.231 175.787 139.059 176.006C138.841 175.902 138.643 175.76 138.475 175.586C137.816 174.561 137.175 173.526 137.48 172.156C138.014 169.793 138.351 167.377 139.006 165.049C140.722 158.959 142.514 152.892 144.383 146.849C145.334 143.797 146.321 140.71 147.703 137.853C150.238 132.629 153.087 127.564 156.11 122.257M102.35 101.284C104.793 93.8718 110.303 88.5644 115.153 82.8183C115.416 82.5082 116.429 82.4836 116.828 82.7387C117.227 82.9938 117.348 83.7902 117.275 84.3055C117.127 84.823 116.823 85.2824 116.404 85.621C112.684 89.1718 110.162 93.5512 107.884 98.0734C106.609 100.602 105.532 103.226 104.663 105.922C103.631 109.136 102.835 112.432 102.126 115.734C101.569 118.329 101.316 120.985 100.896 123.609C100.791 123.912 100.635 124.195 100.435 124.444C100.245 124.253 100.065 124.051 99.896 123.84C98.1968 121.54 97.5305 119.092 98.3692 116.27C98.6477 115.333 98.5249 114.277 98.7904 113.334C99.9146 109.38 101.122 105.449 102.359 101.274M91.0657 126.915C86.9534 126.693 82.8399 126.444 78.7274 126.255C70.486 125.913 62.2555 127.155 54.4816 129.912C53.4585 130.267 52.4148 130.76 51.3672 130.79C50.733 130.811 50.0717 130.071 49.4247 129.671C49.8094 129.288 50.1357 128.785 50.5982 128.549C51.6256 127.989 52.7027 127.527 53.8157 127.167C57.0777 126.188 60.3466 125.238 63.6482 124.404C69.132 123.01 74.7147 122.133 80.3705 122.679C84.8517 123.103 89.3305 123.896 93.798 124.644C95.6167 124.953 97.5205 125.372 98.2979 127.446C98.369 127.727 98.4119 128.014 98.4258 128.304C98.1199 128.401 97.7988 128.44 97.4786 128.422C95.4219 127.879 93.3756 127.288 91.0348 126.877M212.861 232.332C213.369 231.438 213.939 230.575 214.363 229.631C216.167 225.737 217.827 221.771 219.741 217.932C221.747 213.902 223.966 209.985 226.143 206.036C226.422 205.531 227.041 205.216 227.5 204.81C227.474 205.475 227.486 206.143 227.406 206.796C227.378 207.035 227.109 207.237 226.996 207.491C225.524 210.278 223.936 213.014 222.627 215.876C220.992 219.466 219.666 223.193 218.065 226.801C216.099 231.269 214.001 235.699 211.928 240.115C211.805 240.384 211.564 240.784 211.374 240.784C211.214 240.771 211.059 240.719 210.924 240.633C210.788 240.547 210.676 240.43 210.595 240.291C210.375 239.633 210.008 238.821 210.223 238.269C210.962 236.321 211.917 234.451 212.855 232.321L212.861 232.332Z"
                                fill="#E59C42" />
                        </g>
                    </svg>