<svg class="home-hero__svg1" viewBox="0 0 99 132" fill="none" xmlns="http://www.w3.org/2000/svg">
				<path
					d="M44.2467 92.5968C46.1759 93.9147 48.0278 95.1356 49.857 96.3897C50.0411 96.5168 50.0819 96.8474 50.1921 97.0841C49.9629 97.1465 49.7287 97.1888 49.4922 97.2105C47.5647 97.2297 45.6224 97.197 43.6877 97.2776C41.4646 97.3701 40.6896 98.6154 41.5919 100.587C41.9336 101.349 41.8715 101.467 41.0104 101.316C39.5555 101.065 39.1542 101.442 38.811 102.841C38.7396 102.994 38.631 103.126 38.4953 103.225C38.3596 103.325 38.201 103.389 38.0342 103.411C36.0524 103.338 34.0927 103.849 32.399 104.881C31.8157 105.222 30.9664 105.935 31.0185 106.387C31.227 108.196 29.7143 108.518 28.8184 109.369C27.8773 110.206 26.9789 111.089 26.1266 112.016C25.6561 112.565 26.1722 113.346 26.9616 113.407C27.521 113.466 28.0847 113.476 28.6458 113.434C29.5836 113.333 30.4599 112.944 30.8986 114.387C31.1813 115.307 32.2836 114.939 32.972 114.703C34.2646 114.261 35.5918 113.782 36.7314 113.063C37.5145 112.569 37.7751 112.934 38.1892 113.366C39.1808 114.4 40.6501 114.345 41.5245 113.191C41.9818 112.553 42.3941 111.883 42.7585 111.187C43.0868 110.596 43.335 110.319 44.0941 110.782C45.375 111.565 46.454 110.702 47.3464 109.924C50.3918 107.302 52.6104 103.852 53.733 99.9933C53.8848 99.4819 54.2295 99.1475 54.8861 99.4831C59.912 102.058 64.9368 104.599 69.9548 107.173C70.2064 107.302 70.3709 107.607 70.5789 107.824C70.3305 107.915 70.0705 107.97 69.8066 107.989C67.3794 107.775 65.1292 108.501 62.9739 109.435C62.196 109.772 61.3283 110.414 61.444 111.622C61.4687 111.867 61.0473 112.259 60.7461 112.412C59.9518 112.814 59.1307 113.16 58.2887 113.449C57.2742 113.795 56.8506 114.478 56.7712 115.519C56.752 115.771 56.3745 116.059 56.097 116.216C54.7943 116.948 53.4437 117.593 52.1719 118.369C51.7815 118.607 51.3134 119.142 51.321 119.535C51.3401 120.903 50.2806 121.405 49.5481 122.228C48.6837 123.231 47.9209 124.317 47.271 125.47C47.0525 125.847 47.0448 126.691 47.3002 126.921C47.6843 127.269 48.387 127.389 48.9513 127.385C49.5894 127.367 50.217 127.219 50.7961 126.951C51.6446 126.565 52.1494 126.556 52.5373 127.573C52.8462 128.382 53.7124 128.194 54.2609 127.897C55.6534 127.15 56.9849 126.274 58.3098 125.431C58.8615 125.081 59.3496 124.637 59.8955 124.276C59.9893 124.209 60.0969 124.162 60.2107 124.141C60.3244 124.119 60.4416 124.122 60.5537 124.151C62.3118 125.108 63.3927 123.962 64.4346 122.878C65.2815 121.995 65.9712 121.603 66.9545 122.746C67.2143 123.049 68.1201 123.149 68.5101 122.931C70.2245 121.988 72.0001 121.063 73.4748 119.805C74.6986 118.76 75.5268 117.257 76.5529 115.973C76.6259 115.903 77.0109 115.923 77.0393 115.99C77.7107 117.42 78.3269 118.826 78.3554 120.499C78.3983 123.385 78.7489 126.275 80.2273 128.823C81.1534 130.422 83.8779 132.281 85.8663 131.152C86.9721 130.528 87.5724 128.995 87.5134 127.545C87.3827 124.3 85.7481 121.626 84.4218 118.834C83.4783 116.836 83.4262 116.952 85.089 115.723C86.1241 114.96 86.9776 113.955 87.9143 113.057C88.3015 112.685 88.6654 112.29 89.0719 111.947C90.4868 110.792 91.9423 109.688 93.3164 108.487C93.4572 108.318 93.5604 108.121 93.6193 107.909C93.6782 107.697 93.6914 107.474 93.6581 107.257C93.4444 105.983 93.8384 104.908 95.0259 104.458C96.3454 103.971 97.2881 103.165 97.5313 101.795C97.7543 100.538 98.3141 99.3281 97.5152 97.9187C97.1226 97.2171 97.4688 95.9628 97.7503 95.0429C98.4283 92.836 98.1171 90.7137 97.4318 88.6233C97.1816 87.8591 96.6321 87.1562 96.1009 86.5292C95.5697 85.9022 94.7007 86.2257 94.1425 87.1696C93.642 88.0154 93.1713 88.6731 91.8901 88.4734C91.3436 88.3864 90.543 89.2398 90.0283 89.8151C89.5553 90.3924 89.1848 91.0465 88.9329 91.749C88.4777 92.8977 87.5937 93.4653 86.5704 94.1352C85.394 94.9052 84.5667 96.2746 83.7406 97.491C83.1666 98.3372 82.9081 99.3907 82.4005 100.29C82.1082 100.742 81.718 101.123 81.2587 101.404C78.9173 102.973 78.1077 105.391 77.5494 107.954C77.4659 108.338 77.5444 108.761 77.5103 109.159C77.4557 109.402 77.3748 109.637 77.2691 109.862C77.0509 109.702 76.8515 109.519 76.6746 109.315C76.2274 108.662 75.8975 107.908 75.3773 107.325C72.8944 104.549 69.7551 102.765 66.3118 101.455C66.057 101.321 65.8195 101.157 65.6049 100.965C65.8359 100.845 66.059 100.627 66.2976 100.62C69.055 100.622 71.2028 98.9051 73.6316 98.0004C74.7609 97.579 74.8794 96.1928 74.2103 95.3206C73.7153 94.6705 73.6693 94.306 74.5118 93.8249C75.288 93.3803 75.9214 92.6367 76.5181 91.9399C77.2981 91.0285 76.9044 90.0944 75.7382 89.9091C75.5481 89.8773 75.2487 89.7558 75.2196 89.628C75.2131 89.404 75.2883 89.1853 75.4311 89.0126C76.2801 87.8443 77.178 86.7109 77.9956 85.5221C78.4218 84.9032 78.6383 84.2403 77.9656 83.5388C77.7303 83.2935 77.6725 82.734 77.748 82.3581C77.9986 81.1098 78.3621 79.8817 78.6386 78.6319C78.6869 78.4104 78.5498 77.9386 78.4626 77.9289C78.1375 77.8942 77.6906 77.8908 77.4858 78.0872C76.5784 78.9145 75.7449 79.8229 74.8725 80.6867C74.6936 80.8271 74.4998 80.9476 74.2948 81.0461C74.1912 80.8705 74.104 80.6858 74.0342 80.4943C73.789 79.5852 73.7309 78.3761 72.5456 78.3413C71.3602 78.3065 70.805 79.2982 70.4573 80.3438C70.3292 80.8461 70.141 81.3311 69.8966 81.7883C69.7016 82.0882 69.2405 82.4759 68.9612 82.4362C67.4018 82.1453 67.068 83.1893 66.8143 84.3005C66.7473 84.7765 66.7319 85.2585 66.7683 85.7378C66.7669 85.9961 66.7893 86.2548 66.7997 86.5133C66.5581 86.3397 66.2936 86.2005 66.0137 86.0995C65.1302 85.8928 64.2341 85.7446 63.3311 85.6559C63.1922 85.645 62.8908 86.1871 62.8646 86.4925C62.8186 87.0339 62.8547 87.5792 62.9717 88.1099C63.2886 89.5807 62.3093 90.4264 61.5025 91.3869C60.1313 93.017 59.644 94.9399 59.7193 97.0354C59.7034 97.2794 59.6611 97.521 59.5929 97.7559C59.3588 97.6457 59.1165 97.5473 58.8866 97.4252C56.736 96.2418 54.5504 95.1192 52.4492 93.8494C50.3481 92.5796 48.2981 91.144 46.2309 89.7716C46.0703 89.665 46.0305 89.38 45.9354 89.1794C46.0994 89.0974 46.2712 89.0318 46.4481 88.9835C49.216 88.5214 51.8631 87.5088 54.2327 86.0057C55.4408 85.2363 56.6713 84.4455 57.8084 83.5575C58.7049 82.869 58.6721 81.9703 58.1661 80.9922C58.0994 80.8066 58.0738 80.6087 58.0909 80.4122C58.1081 80.2157 58.1676 80.0253 58.2654 79.854C58.6518 79.2382 59.2029 78.7293 59.6422 78.1445C59.8139 77.9176 60.0247 77.5287 59.9414 77.3322C59.1309 75.4319 60.7262 74.2912 61.3734 72.8922C61.9861 71.5263 62.25 70.308 61.5652 68.8593C61.3142 68.3216 61.6841 67.4493 61.8419 66.7453C62.0767 65.6834 62.4958 64.6472 62.6056 63.5767C62.7155 62.5062 61.7184 61.925 60.7439 62.447C59.8237 62.9403 58.8633 63.3592 57.9777 63.9049C57.6284 64.1758 57.3526 64.53 57.1754 64.935C56.6336 65.9488 56.1842 67.0142 55.617 68.0095C55.3386 68.4984 54.9094 68.6881 54.2414 68.4257C52.9727 67.9144 51.9094 68.6967 51.7807 70.0966C51.7374 70.4573 51.7084 70.7964 51.6813 71.1455C51.6351 71.7346 51.595 72.3218 51.5529 72.9109C51.0507 72.7931 50.5493 72.6396 50.0503 72.5616C49.0478 72.4293 49.0494 73.3035 48.8305 73.891C48.3359 75.2136 47.9201 76.5658 47.4059 77.8802C47.3325 78.0228 47.2255 78.1455 47.0941 78.2376C46.9627 78.3297 46.8109 78.3884 46.6518 78.4087C44.6331 78.134 43.7054 79.4595 43.0957 80.9665C42.6006 82.2197 42.4387 83.5931 42.1171 84.9095C42.0515 85.1084 41.9677 85.3008 41.8666 85.4843C41.7085 85.3519 41.5463 85.2233 41.3922 85.087C40.5246 84.3 39.5922 83.5712 38.8017 82.7103C35.7524 79.3803 33.5526 75.5158 31.8839 71.3406C31.5252 70.447 31.3008 69.4907 30.8737 68.6354C30.3989 67.6898 31.0304 67.8898 31.5067 67.9156C32.8362 67.9872 34.1631 68.0925 35.5007 68.1602C36.3164 68.1992 37.0869 68.2153 37.4859 67.1866C37.5678 66.9758 38.5676 67.1457 39.1389 67.0921C40.0983 67.001 41.0937 67 41.9938 66.7089C42.6221 66.4956 42.7821 65.8751 42.1222 65.3209C41.96 65.1298 41.8309 64.9129 41.7403 64.6792C42.0173 64.5729 42.2997 64.4813 42.5864 64.4049C44.2332 64.0321 45.902 63.7512 47.5191 63.2785C47.9039 63.1785 48.2403 62.9446 48.4678 62.6186C48.6954 62.2927 48.7991 61.8962 48.7603 61.5006C48.7336 61.0669 49.0769 60.6132 49.2297 60.1475C49.9789 57.7633 50.9182 55.4149 51.3943 52.9812C51.8089 50.8284 50.8263 50.3191 48.7833 51.2041C47.9452 51.5719 47.1431 52.3021 46.0686 51.2466C45.292 50.4813 44.0151 51.2115 43.1277 52.6968C42.4649 53.7994 41.8399 54.7101 40.356 55.0823C39.1076 55.4038 38.0728 56.5285 36.921 57.2633C36.5506 57.4979 35.9545 57.8787 35.7209 57.7447C34.1859 56.8583 33.267 58.0469 32.3144 58.7581C31.4546 59.3996 30.8385 60.3602 30.083 61.147C29.8472 61.3219 29.5865 61.4605 29.3095 61.5579C29.249 61.33 29.2047 61.098 29.177 60.8638C29.0518 58.4036 28.9403 55.9458 28.815 53.4896C28.7868 52.9407 29.027 52.9477 29.4243 53.1388C31.1416 53.9555 32.7209 53.6747 34.2204 52.5559C34.5127 52.3201 34.8742 52.1867 35.2495 52.1761C37.3365 52.3232 38.4957 51.0402 39.5 49.4779C40.0992 48.4809 40.7664 47.5264 41.4968 46.6211C41.8857 46.1704 42.5581 45.9381 43.1358 45.6721C46.3556 44.1879 47.2935 41.2375 48.0239 38.1437C48.1874 37.4498 48.5135 36.7712 48.5458 36.0865C48.5655 35.5227 48.4093 34.7267 48.028 34.4386C47.6466 34.1505 46.7904 34.1465 46.2952 34.3645C44.4944 35.1612 42.7314 36.054 41.0069 37.0073C40.3014 37.3958 39.7531 38.0578 39.0933 38.5426C38.2378 39.1724 37.5646 39.9191 36.1786 39.6954C34.7926 39.4717 34.0553 40.9025 33.3387 41.9206C32.6528 42.8896 32.157 43.9878 31.5396 45.0079C31.3104 45.3244 31.0493 45.6165 30.7605 45.8797C30.2118 46.4642 29.6671 47.0488 29.1107 47.6252C28.8816 47.8449 28.6485 48.0684 28.4037 48.2759C28.2729 48.0094 28.1735 47.7286 28.1074 47.4392C27.7986 44.9176 27.6311 42.3851 27.1804 39.9102C26.9684 38.7435 27.5237 38.6936 28.2568 38.5977C29.0519 38.4852 29.854 38.4166 30.6509 38.3101C33.2469 37.9572 34.7604 36.2685 35.7765 34.0409C36.1607 33.194 36.7738 32.4713 37.5467 31.9542C38.9438 30.9103 40.012 29.4875 40.6245 27.8546C41.4853 25.7409 41.8568 23.5594 42.0683 21.3367C42.1804 20.0617 41.4466 19.5278 40.3212 20.0465C38.1948 21.0271 36.1046 22.082 33.9934 23.0907C33.6418 23.3071 33.2504 23.4509 32.8422 23.5136C31.4746 23.5524 31.2296 24.6241 30.9334 25.5814C30.2717 27.7728 29.4969 29.8545 27.7463 31.4826C27.1604 32.0445 26.9088 32.9591 26.4899 33.7032C26.3529 33.9105 26.2013 34.1078 26.0365 34.2937C25.8816 34.0949 25.7527 33.8773 25.6527 33.646C25.2133 32.1487 24.7779 30.6436 24.3925 29.1297C24.2872 28.7417 24.2999 28.3311 24.4291 27.9503C25.2919 25.7414 26.2099 23.5534 27.0964 21.3528C27.2135 21.0692 27.3763 20.6952 27.2676 20.4803C26.3527 18.6334 27.7623 17.2544 28.1788 15.6797C28.2348 15.4703 28.3818 15.2827 28.4537 15.0736C28.9401 13.6653 28.3802 12.8907 26.9943 13.2351C25.7641 13.5391 25.6973 13.3113 25.8776 12.1032C26.1473 10.1361 26.0584 8.68789 23.8138 7.25217C22.7356 6.56206 22.0089 5.30516 21.1745 4.26454C20.34 3.22392 19.5992 2.07798 18.7387 1.04674C18.5449 0.816199 18.0236 0.755612 17.6751 0.797976C17.5237 0.814672 17.3309 1.29538 17.3291 1.56951C17.3255 2.78329 17.423 4.00913 17.3915 5.23027C17.3599 6.45142 17.091 7.53051 15.5975 7.8886C14.7288 8.09887 14.5696 8.87431 15.0286 9.62496C15.3898 10.2126 15.9699 10.6877 16.2432 11.2974C16.4554 11.7905 16.5668 12.5438 16.3314 12.968C15.823 13.907 15.9464 14.6526 16.5705 15.4008C16.8787 15.7668 17.2596 16.0748 17.5577 16.4505C18.0727 17.0931 18.3415 17.7305 17.8841 18.605C17.6378 19.0786 17.565 19.8956 17.8181 20.334C18.7819 22.1223 19.5556 24.2603 21.0444 25.4557C23.0509 27.0692 23.0937 29.1064 23.4914 31.173C23.7811 32.6114 24.0147 34.0726 24.2464 35.5317C24.2486 35.7546 24.2192 35.9767 24.1591 36.1914C23.9646 36.1481 23.7797 36.0695 23.6136 35.9594C21.8976 34.2308 19.6482 33.4963 17.4106 32.9567C15.0721 32.3932 12.6387 32.1892 10.2342 31.9382C9.60376 31.8733 8.92832 32.3459 8.28281 32.3384C7.03457 32.3171 5.78871 32.2213 4.55187 32.0516C4.04653 31.9913 3.57101 31.6456 3.06745 31.5953C2.56389 31.5451 2.11499 31.7303 1.63065 31.8056C1.75959 32.2891 1.74897 32.8908 2.04374 33.2348C3.38679 34.7509 5.03298 35.9685 6.87595 36.8087C7.82007 37.2616 8.52165 38.1961 9.38826 38.8401C9.82642 39.1671 10.402 39.5726 10.8797 39.5309C12.7964 39.3625 14.2161 40.3478 15.7204 41.2753C17.6229 42.4476 19.6142 43.5581 21.9592 42.6676C22.7302 42.3758 23.3713 41.7416 24.0766 41.2676C24.3607 41.0769 24.6505 40.9002 24.9364 40.7194C25.0059 41.003 25.0952 41.2909 25.1429 41.576C25.5002 43.8642 25.8476 46.1542 26.185 48.4459C26.2058 48.5894 26.095 48.758 26.0522 48.908C25.8714 48.8129 25.5983 48.7634 25.5238 48.6169C24.7745 47.1171 23.4802 46.5953 21.916 46.6281C21.4588 46.6384 21.0006 47.0778 20.554 47.0585C19.2024 46.992 17.8551 46.855 16.5178 46.6481C15.2806 46.4698 14.0558 46.2145 12.8505 45.8839C12.1442 45.653 11.4742 45.3233 10.8605 44.9045C8.78012 43.5914 6.67286 43.1837 4.40363 44.4374C3.96143 44.6824 3.37007 44.6502 2.90656 44.8689C2.52924 45.0518 2.06348 45.3777 1.97876 45.7236C1.91369 45.9845 2.31779 46.5155 2.64191 46.6911C4.37061 47.6253 6.15708 48.4574 7.88164 49.3995C8.33144 49.6469 8.67919 50.0455 8.86333 50.5247C9.55031 52.8198 10.4059 53.6105 12.73 53.3393C14.164 53.1707 15.3315 53.3899 16.4824 54.2126C16.9232 54.505 17.4401 54.6616 17.969 54.663C20.1858 54.6776 22.469 54.936 24.4791 53.6312C24.9322 53.3407 25.3314 52.9656 25.7749 52.6571C25.9303 52.5551 26.1128 52.5021 26.2986 52.5051C26.3562 52.5083 26.4302 52.7681 26.4488 52.9255C26.6161 56.003 26.7781 59.0805 26.9348 62.1578C26.9191 62.2878 26.8829 62.4144 26.8276 62.533C26.5914 62.4248 26.2745 62.3824 26.1252 62.2064C25.1463 60.9462 23.7794 60.2878 22.3508 59.7274C21.8758 59.5142 21.3449 59.459 20.8362 59.5699C20.3275 59.6808 19.8678 59.952 19.5247 60.3437C18.9821 60.9263 18.4817 60.9119 17.8925 60.5896C16.452 59.8131 14.8501 59.3837 13.2143 59.3353C11.9956 59.282 10.794 58.9827 9.58655 58.7706C9.2766 58.6975 8.95167 58.721 8.65549 58.838C8.3593 58.9551 8.10607 59.16 7.92985 59.4253C7.3408 60.2314 6.60949 60.1466 5.73829 59.9118C4.45016 59.5875 3.1458 59.3313 1.83067 59.1445C1.68343 59.127 1.53413 59.1442 1.39472 59.1947C1.25532 59.2453 1.1297 59.3278 1.02792 59.4356C0.925052 59.6043 1.10973 59.9877 1.23149 60.2445C1.79805 61.4603 2.98381 62.3275 3.12549 63.8145C3.15974 64.1708 3.7568 64.5946 4.17463 64.7543C5.27998 65.1927 6.44822 65.4735 7.56403 65.8862C8.26193 66.1432 9.01007 66.2781 9.19454 67.3349C9.28487 67.8593 10.0693 68.4419 10.667 68.6472C11.9452 69.0832 13.304 69.2786 14.6265 69.5904C14.9132 69.658 15.3114 69.712 15.4485 69.8996C16.534 71.3806 18.0547 71.0548 19.5233 70.9386C22.0643 70.7475 24.0196 69.3978 25.7609 67.6462C26.2497 67.2112 26.7686 66.8111 27.3137 66.449C27.4816 67.0664 27.6575 67.6761 27.8173 68.3012C28.8019 72.4164 30.1446 76.4099 32.6963 79.8825C32.7829 80.0469 32.8435 80.2238 32.876 80.4067L33.0668 80.971C32.8594 80.9484 32.6537 80.9116 32.4513 80.8607C30.9298 80.3739 29.4022 79.8929 27.8975 79.3588C26.7792 78.9718 25.8275 79.3551 24.8422 79.8252C24.4662 79.9524 24.0593 79.955 23.6818 79.8327C22.2632 79.4573 20.9192 78.7497 19.3559 79.2096C18.2525 79.5322 17.7379 80.2008 18.0753 81.2589C18.2991 81.9549 18.0618 81.9023 17.5507 81.9293C16.0354 81.9969 14.5129 82.0325 13.0146 82.2356C12.13 82.3561 11.6573 82.9223 12.1888 83.9149C12.2025 84.0579 12.1794 84.2021 12.1217 84.3337C12.064 84.4654 11.9736 84.58 11.8591 84.6669C9.06309 85.6513 6.44461 86.8858 4.75727 89.4768C4.40423 90.0178 4.20967 90.6753 5.21327 90.8493C5.54634 90.9416 5.88657 91.0059 6.23039 91.0414C8.49504 91.0491 10.7563 91.029 13.0172 91.0247C13.6649 91.0224 14.1925 91.0652 14.5659 91.828C14.878 92.4822 15.4914 92.8864 16.4776 92.6567C18.4942 92.1785 20.564 91.9059 22.6155 91.5655C22.8368 91.5284 23.1926 91.518 23.2913 91.6452C24.4057 93.0712 25.6197 92.4946 26.7785 91.8037C28.1104 91.0091 29.4019 90.1442 30.6838 89.2691C32.3043 88.1627 33.025 86.3818 33.9372 84.756C34.6017 83.5699 34.8512 83.5136 35.7729 84.4706C36.6322 85.3667 37.459 86.2979 38.3528 87.161C40.2638 88.9711 42.2174 90.7405 44.2364 92.6145M92.5862 95.7373C93.9029 93.8637 94.8441 91.8987 94.7902 89.5374C94.7869 89.1281 95.1807 88.7271 95.4021 88.3086C95.6756 88.6284 95.9134 88.9771 96.1114 89.3485C96.9221 91.3304 96.7591 93.3275 96.1824 95.3438C95.9144 96.2819 95.4411 97.3507 95.6596 98.2036C96.3782 100.982 96.3682 101.268 94.034 102.876C93.6607 103.115 93.3377 103.425 93.0831 103.788C92.5204 104.662 91.5547 105.623 91.6221 106.481C91.73 107.876 91.1241 108.348 90.161 108.991C88.9723 109.781 87.621 110.649 86.9053 111.814C86.1061 113.169 84.9825 114.304 83.6355 115.117C83.2914 115.326 82.7475 115.209 82.29 115.239C82.2821 114.76 82.0898 114.174 82.2939 113.819C82.9927 112.531 83.8006 111.306 84.7089 110.157C87.0081 107.38 88.5035 104.183 89.9386 100.927C90.7019 99.1984 91.1038 97.2718 92.5843 95.7353M71.1993 109.409C71.7396 109.455 72.2626 109.622 72.7294 109.898C73.1962 110.174 73.5948 110.552 73.8956 111.003C74.1445 111.356 74.2484 111.517 73.6026 111.712C72.1854 112.144 70.8125 112.71 69.5025 113.402C67.6482 114.382 65.8933 115.551 64.0601 116.574C61.1311 118.215 58.1294 119.724 55.2349 121.425C53.4669 122.463 51.8485 123.754 50.1495 124.913C49.923 125.007 49.6819 125.062 49.4368 125.075C49.4989 124.859 49.4969 124.577 49.6388 124.441C50.2937 123.813 50.9182 123.117 51.6753 122.632C52.4325 122.147 53.0447 121.658 52.953 120.628C52.8973 120.343 52.9358 120.046 53.0627 119.784C53.1896 119.522 53.3982 119.309 53.657 119.175C55.0162 118.304 56.3527 117.571 57.9912 117.408C58.8054 117.328 59.4254 116.562 58.8958 115.953C57.7668 114.654 59.1924 114.599 59.6372 114.324C60.2791 113.934 61.1282 113.894 61.8608 113.635C62.5933 113.376 63.4519 113.172 63.0181 111.973C62.712 111.126 63.3104 110.727 64.0613 110.447C66.3198 109.608 68.6803 109.497 71.2189 109.421M57.8553 121.901C59.3986 120.97 60.9266 120.011 62.491 119.114C64.3993 118.019 66.3422 116.977 68.2658 115.911C70.1367 114.895 71.9806 113.839 73.8914 112.91C74.3109 112.706 75.3279 112.809 75.4205 113.035C75.6794 113.67 75.9277 114.713 75.5975 115.115C73.7078 117.406 71.9489 119.809 69.1184 121.208C67.926 121.794 67.4281 121.474 66.9219 120.695C66.4852 120.016 66.0665 119.803 65.4463 120.292C64.4362 121.094 63.4492 121.931 62.4914 122.795C62.0337 123.211 61.6705 123.38 61.2254 122.814C60.6778 122.117 60.1169 122.527 59.6249 122.874C58.1852 123.885 56.7784 124.942 55.3406 125.959C54.9171 126.26 54.4375 126.487 53.985 126.749C53.8853 126.292 53.7896 125.835 53.6879 125.38C53.6826 125.346 53.6334 125.323 53.6062 125.295C53.0215 124.661 53.4654 124.336 53.9844 124.029C55.2113 123.312 56.4459 122.607 57.8397 121.889M31.1505 112.32L28.8997 112.311C28.6872 112.308 28.471 112.294 28.2566 112.286C28.3954 112.11 28.5002 111.85 28.6806 111.774C29.2992 111.521 29.932 111.304 30.5755 111.124C31.8267 110.765 33.1346 110.546 34.3347 110.065C35.8834 109.443 37.3377 108.59 38.8662 107.891C42.8779 106.06 46.5691 103.785 49.5959 100.509C50.1163 99.9473 50.9019 99.6181 51.5972 99.2433C51.78 99.1458 52.0834 99.2674 52.3313 99.2905C52.3248 99.5128 52.2854 99.7329 52.2143 99.9436C51.6767 101.043 51.1782 102.171 50.5366 103.21C49.1669 105.435 47.8559 107.7 45.6465 109.227C45.5005 109.315 45.3373 109.371 45.1679 109.39C44.9985 109.409 44.8269 109.392 44.6647 109.339C43.0591 108.598 42.4528 108.806 41.567 110.407C41.1637 111.131 40.7021 111.821 40.1867 112.47C39.7663 113.001 39.3312 113.1 38.9721 112.315C38.5467 111.381 37.8192 111.21 36.8943 111.642C35.7166 112.188 34.5182 112.683 33.339 113.211C31.8529 113.877 31.8568 113.881 31.1625 112.313M85.0289 99.1511C85.1855 98.8531 85.3641 98.5673 85.5634 98.2961C86.3272 97.4002 86.2008 95.3731 88.3048 96.1264C88.4625 96.1814 88.8391 95.8436 89.001 95.6106C89.2063 95.2594 89.3802 94.8907 89.5207 94.5089C90.0659 93.3323 90.5325 92.1104 91.1974 91.0058C91.432 90.6173 92.1404 90.4673 92.6655 90.3412C92.7614 90.3194 93.2356 91.0127 93.1535 91.2315C92.7788 92.1591 92.3438 93.0612 91.8513 93.932C90.8984 95.698 89.6339 97.3542 89.0047 99.2264C88.003 102.159 86.5604 104.921 84.7266 107.419C83.6504 108.907 82.4098 110.279 81.3062 111.746C80.8853 112.301 80.6582 112.998 80.288 113.598C80.0951 113.825 79.8693 114.022 79.6182 114.182C79.5614 114.046 79.453 113.908 79.4558 113.777C79.5029 111.245 78.8221 108.652 80.1009 106.22C80.4898 105.485 80.8382 104.878 81.8204 105.03C82.7314 105.168 83.1422 104.623 83.3991 103.835C83.8995 102.328 84.4732 100.832 85.0227 99.1648M29.5608 82.8465C29.0231 83.1948 28.4966 83.5712 27.9417 83.8893C26.8416 84.5278 25.7838 85.3282 24.5979 85.6987C23.5501 86.0224 22.3335 85.7724 21.2179 85.9199C17.4903 86.4239 13.7751 86.9977 10.0527 87.5355C9.77407 87.5532 9.49445 87.548 9.21664 87.52C9.441 87.2426 9.6086 86.8289 9.89713 86.7118C10.9572 86.2751 12.0741 85.9747 13.1399 85.548C13.6868 85.331 14.4896 84.9465 13.8328 84.2414C12.7882 83.0871 13.9484 83.2783 14.4202 83.2305C15.6361 83.1203 16.8577 83.0875 18.0778 83.1323C19.2328 83.1923 19.8072 82.801 19.7211 81.5993C19.6681 80.8095 20.1523 80.4541 20.8337 80.6451C21.8803 80.9001 22.8897 81.2885 23.8372 81.8007C24.84 82.3959 25.335 82.3765 26.0421 81.4377C26.3056 81.0916 26.9008 80.7544 27.3011 80.7985C28.6966 80.9509 30.073 81.2539 31.4557 81.5392C31.5843 81.5637 31.6792 81.7723 31.792 81.8899C31.6816 82.0263 31.5496 82.1436 31.4013 82.2374C30.7987 82.4757 30.1821 82.6771 29.555 82.8404M18.2259 87.5359C19.3046 87.4433 20.3904 87.2038 21.4534 87.2936C24.2675 87.5294 26.5559 86.4986 28.7421 84.8458C29.8503 84.0088 31.2294 83.5191 32.5055 82.9181C32.7163 82.8172 33.0295 82.941 33.2954 82.9585C33.2265 83.2088 33.1315 83.4512 33.012 83.6817C32.4764 84.4989 31.9152 85.3017 31.356 86.1065C30.9913 86.6352 30.7173 87.291 30.2249 87.6542C28.766 88.7302 27.2335 89.7173 25.6877 90.6703C25.4442 90.8221 24.7119 90.6876 24.6673 90.5436C24.3099 89.3958 23.5451 89.6738 22.7464 89.8676C20.6852 90.3887 18.6277 90.9257 16.5539 91.3849C16.2845 91.4448 15.7103 91.1626 15.6396 90.9306C15.3407 89.933 14.6737 89.623 13.7295 89.6489C11.6937 89.7175 9.65772 89.7941 7.62015 89.8527C7.38945 89.8251 7.16306 89.769 6.94618 89.6856C7.0906 89.4304 7.19685 89.0055 7.40471 88.9462C7.96155 88.8183 8.52812 88.7372 9.09847 88.7036C12.0827 88.3132 15.065 87.9207 18.218 87.5318M76.1902 82.4625C76.0065 82.9808 75.8664 83.5135 75.7714 84.055C75.73 84.4177 75.8985 85.1007 76.0211 85.1271C76.7567 85.2001 76.5357 85.5054 76.2939 85.858C75.6516 86.881 74.9571 87.8704 74.2133 88.8222C73.3007 89.8997 73.3602 90.2824 74.6689 90.7827C74.9647 90.8882 75.2042 91.2151 75.4697 91.4392C75.2637 91.5977 75.048 91.7502 74.8477 91.9188C73.8305 92.7776 72.8015 93.6242 71.8075 94.5113C71.3135 94.9499 71.1609 95.3143 72.0686 95.5101C72.4286 95.5892 72.6945 96.0775 73.0098 96.3861C72.8135 96.6123 72.5867 96.8102 72.336 96.9739C69.8265 98.1273 67.3335 99.3465 64.499 99.5116C63.9679 99.5422 63.4361 99.7019 62.9081 99.6829C62.6202 99.6709 62.3415 99.4128 62.0566 99.2658C62.3132 99.0595 62.5805 98.8668 62.8574 98.6885C63.4063 98.3762 64.099 98.2139 64.5154 97.7796C65.8034 96.4862 67.0067 95.1112 68.1181 93.6632C69.8926 91.2726 71.5146 88.7676 73.2226 86.3241C74.1472 84.9874 75.1384 83.6979 76.1922 82.4606M49.8235 82.2479C49.5272 82.641 49.2445 83.0483 48.9326 83.4291C47.4585 85.232 45.0349 85.3183 43.2449 86.5483C43.1442 86.6177 42.9855 86.6024 42.8559 86.6255C42.893 86.4694 42.9323 86.2993 42.9711 86.1531C43.1274 85.614 43.2994 85.0872 43.4812 84.5626C43.9336 83.2648 44.4213 81.9837 44.844 80.6793C45.1776 79.6433 45.6279 80.0561 46.0284 80.5671C46.6399 81.3467 47.231 81.0095 47.5216 80.4156C48.444 78.6436 49.2438 76.8103 49.9153 74.9289C50.2586 73.903 50.4611 74.1019 51.0299 74.6383C51.8774 75.4369 52.3172 75.307 52.52 74.1629C52.7131 73.1021 52.8052 72.0253 52.9409 70.9494C53.0488 70.0676 53.322 69.4515 54.4107 69.8279C55.3969 70.1704 56.1043 69.8813 56.5741 68.8858C57.0628 67.8451 57.6498 66.8502 58.2387 65.8612C58.3521 65.6669 58.6577 65.5879 58.875 65.4574C58.9169 65.639 59.0494 65.8584 58.995 65.9883C58.2914 67.6166 57.6681 69.2962 56.7917 70.8254C55.9603 72.296 54.7833 73.5687 53.8968 75.0143C52.4755 77.3268 51.172 79.7093 49.8139 82.2337M55.5719 75.3772C55.8617 75.0268 56.1276 74.6574 56.3679 74.2714C57.1801 72.7686 58.0279 71.2785 58.7339 69.7258C59.3149 68.4486 59.7031 67.0839 60.2135 65.7655C60.2702 65.6177 60.5339 65.5517 60.6948 65.4558C60.7163 65.6608 60.8089 65.8912 60.7476 66.0668C60.4167 66.9717 60.001 67.8491 59.7136 68.7669C59.5793 69.1991 59.1836 69.8822 60.2437 69.9203C60.4283 69.9262 60.7709 70.6406 60.7221 70.9793C60.6281 71.6056 60.395 72.2028 60.0398 72.7272C59.313 73.7589 58.4451 74.6924 57.6868 75.7076C57.4517 76.0225 57.3809 76.4601 57.2257 76.8502C57.5062 76.853 57.7835 76.9094 58.0428 77.0163C58.2251 77.1334 58.4426 77.5591 58.3752 77.6471C57.5885 78.6895 56.7275 79.6747 55.9408 80.7171C55.7451 81.0393 55.6405 81.4086 55.6383 81.7856C55.6348 81.859 56.1353 81.9589 56.3974 82.0618C56.5865 82.1372 56.7651 82.2423 56.9499 82.3336C56.8055 82.5888 56.7344 82.9489 56.5214 83.0637C53.3902 84.7781 50.2759 86.5426 46.7882 87.4509C46.2628 87.5889 45.6656 87.4532 45.1036 87.4435C45.5473 87.1269 45.9482 86.6724 46.4462 86.514C47.469 86.1961 48.4161 85.6726 49.2294 84.9757C50.0427 84.2787 50.7051 83.423 51.176 82.461C51.8155 81.2366 52.5847 80.0826 53.3087 78.9058C53.9936 77.7897 54.6862 76.6897 55.5634 75.4048M32.6501 64.5463C31.9669 64.7359 31.2724 64.8819 30.5708 64.9836C30.3817 65.0014 29.993 64.588 29.97 64.3571C29.9581 63.982 30.0814 63.6151 30.3175 63.3233C31.2418 62.258 32.2205 61.2494 33.1778 60.2185C33.8953 59.4448 34.5955 58.7383 35.5837 59.9351C35.7353 60.0933 36.257 60.0367 36.5629 59.9417C36.8029 59.8673 36.9684 59.5529 37.1887 59.3767C38.7196 58.181 39.6676 56.1745 41.975 56.0361C42.2953 56.017 42.6299 55.5015 42.8833 55.1651C43.5012 54.3118 44.0369 53.3973 44.6857 52.5804C44.8224 52.4105 45.5769 52.4302 45.6262 52.5425C46.0393 53.5008 46.5741 53.4782 47.3672 52.9863C47.9446 52.6516 48.5631 52.3934 49.2071 52.2182C49.507 52.1252 49.8659 52.2519 50.1972 52.2767C50.0089 52.5501 49.7793 52.7926 49.5166 52.9955C48.7386 53.4302 47.8044 53.6451 47.1467 54.2174C44.6599 56.3725 42.2352 58.6004 39.8396 60.8587C37.8332 62.7517 35.4188 63.8216 32.6516 64.5682M64.6699 87.1819C64.9488 87.5255 65.2156 87.8768 65.5027 88.2086C65.7897 88.5404 66.0273 88.9586 66.3556 89.0331C66.5751 89.0794 67.0335 88.632 67.1732 88.3151C67.4279 87.6919 67.6179 87.0441 67.7402 86.382C67.8565 85.858 67.8682 85.298 67.9704 84.7796C68.0055 84.6214 68.2305 84.503 68.3604 84.3746C68.4726 84.516 68.6666 84.6452 68.6833 84.7966C68.7132 85.0753 68.5758 85.3744 68.618 85.6375C68.7118 86.0217 68.8348 86.3982 68.9858 86.7637C69.2256 86.4966 69.4331 86.2023 69.6041 85.8867C69.8389 85.2996 69.9084 84.6414 70.1804 84.077C70.6517 83.1074 71.2194 82.1856 71.7593 81.2592C71.9307 81.0071 72.1196 80.7674 72.3246 80.5419C72.5774 80.7688 72.8015 81.0257 72.992 81.3068C73.29 81.8773 73.3964 82.6782 74.3489 82.0683C74.4414 82.0107 74.6034 82.0578 74.7305 82.0605C74.6999 82.1909 74.7066 82.348 74.6291 82.4418C74.1721 83.0163 73.6584 83.5439 73.2327 84.1389C71.2372 86.9281 69.1374 89.6734 67.3085 92.5714C66.0963 94.485 64.8497 96.237 62.734 97.18C62.348 97.3187 61.951 97.4247 61.5473 97.4969C61.4968 97.1561 61.4204 96.8207 61.3979 96.4726C61.3503 95.9936 61.3644 95.5105 61.4399 95.0351C61.6119 94.3176 61.659 93.4941 62.7417 93.3976C63.5397 93.3328 64.0162 92.7786 64.0423 91.9129C64.0679 90.5963 64.0776 89.2833 64.1469 87.9636C64.2089 87.6386 64.3908 87.3488 64.6566 87.1518M23.8046 65.7199C24.361 65.6183 24.9139 65.4968 25.4716 65.429C25.6389 65.4087 25.8251 65.5298 26.0087 65.5833C25.9338 65.7504 25.8349 65.9056 25.715 66.044C25.0863 66.5613 24.4421 67.0584 23.8019 67.5555C22.1109 68.9191 20.0038 69.6623 17.8316 69.6615C17.5852 69.6603 17.1249 69.444 17.133 69.3389C17.1718 68.2471 16.3552 68.3452 15.6971 68.2758C15.14 68.2184 14.5639 68.3116 14.0156 68.2187C12.329 67.929 10.281 68.2 9.98501 65.639C9.95526 65.3523 9.32604 65.0411 8.91955 64.9094C7.78499 64.5379 6.60417 64.2887 5.46717 63.9391C5.10061 63.8349 4.77763 63.6149 4.54656 63.3119C4.10645 62.5763 3.70456 61.8186 3.34252 61.0417C3.25242 60.8347 3.17787 60.6213 3.11948 60.4033C3.40358 60.4471 3.67918 60.5347 3.93653 60.6628C4.741 61.2379 5.46525 61.9444 6.31086 62.4528C9.18143 64.1679 12.46 64.8067 15.6449 65.4576C18.2204 65.9883 20.9668 65.6664 23.8105 65.726M32.079 109.628C31.5793 109.772 31.0868 109.953 30.5782 110.048C30.3569 110.089 30.0975 109.952 29.8623 109.893C30.0333 109.792 30.2081 109.698 30.3752 109.592C31.3137 108.988 32.2761 108.47 32.1887 107.048C32.1597 106.632 32.7015 105.991 33.1413 105.768C34.6633 105.009 36.3401 104.612 38.0409 104.607C39.0445 104.595 40.2585 104.68 40.229 103.054C40.225 102.867 40.6365 102.57 40.9042 102.5C41.3952 102.41 41.8925 102.357 42.3915 102.342C43.2217 102.258 43.5616 101.586 43.1462 100.84C43.0214 100.569 42.8789 100.307 42.7196 100.055C42.0589 99.1587 42.8034 98.7094 43.3749 98.6479C45.403 98.4698 47.4435 98.4629 49.4811 98.4003C49.5885 98.3986 49.6956 98.5022 49.8037 98.5541C49.7336 98.6801 49.6485 98.797 49.5501 98.9024C48.4703 99.8056 47.3788 100.697 46.3131 101.59C45.4719 102.292 44.7155 103.122 43.7935 103.699C42.0742 104.818 40.2952 105.844 38.4645 106.77C36.4391 107.762 34.3206 108.556 32.0696 109.606M42.2812 60.4827C44.1971 58.6455 46.113 56.8082 48.0309 54.969C48.4035 54.6443 48.8128 54.3641 49.2504 54.1343C49.4589 54.0541 49.6794 54.0097 49.9028 54.0029C49.8662 54.2252 49.8064 54.443 49.7242 54.6528C49.0982 55.8953 48.7932 57.3709 47.3019 57.9993C47.1415 58.0674 47.0437 58.2819 46.9275 58.4206C47.097 58.5288 47.2794 58.6154 47.4705 58.6783C48.1212 58.8131 48.2487 58.9866 47.7714 59.5806C47.4432 60.0472 47.2527 60.5967 47.2216 61.1663C47.1525 61.9059 46.8716 62.3232 46.142 62.439C44.6111 62.6851 43.0672 62.8852 41.5565 63.2092C40.892 63.3522 40.2835 63.7566 39.6396 64.0511C39.979 64.4496 40.3203 64.8461 40.6597 65.2406C40.6906 65.2666 40.7187 65.2958 40.7433 65.3278C40.852 65.5427 40.9548 65.7594 41.0595 65.9781C40.8133 66.0624 40.5573 66.2417 40.3274 66.2131C39.6142 66.1187 38.9104 65.953 38.2082 65.8091C37.1557 65.5963 36.0933 65.292 35.4872 66.6242C35.4061 66.7268 35.3022 66.809 35.1838 66.8644C35.0654 66.9199 34.9357 66.947 34.8051 66.9437C33.7867 66.9045 32.7715 66.8117 31.7562 66.7189C31.5809 66.6772 31.4124 66.6108 31.2558 66.5217C31.4139 66.37 31.5307 66.1063 31.7064 66.0623C32.3634 65.9032 33.0554 65.87 33.7147 65.6931C36.9566 64.7637 39.7129 63.0195 42.281 60.4907M19.44 62.3941C20.1849 62.0223 20.6648 60.8305 21.6387 61.286C23.0891 61.9421 24.4332 62.8405 25.8025 63.6678C25.9497 63.7563 25.961 64.0685 26.0381 64.2787C25.841 64.3301 25.6404 64.3665 25.4378 64.3873C24.4611 64.4158 23.4838 64.4371 22.5061 64.451C20.5468 64.4735 18.5276 64.7908 16.644 64.4255C13.6502 63.8483 10.7414 62.8198 7.80325 61.9596C7.68477 61.9253 7.53973 61.5468 7.56803 61.5236C8.20483 60.9985 8.52383 59.996 9.61547 60.14C11.2143 60.3504 12.8459 60.4203 14.4077 60.7868C16.0624 61.1771 17.6537 61.8422 19.4461 62.3883M38.1154 48.1436C37.1138 49.104 36.2466 50.2938 34.5951 50.13C34.3683 50.1488 34.1578 50.2556 34.0087 50.4277C32.863 51.6354 31.4385 51.9195 29.8655 51.7077C29.69 51.6569 29.5224 51.5818 29.3676 51.4847C29.4724 51.3205 29.5978 51.1702 29.7405 51.0376C30.9069 50.172 32.1199 49.363 33.2495 48.4509C34.5024 47.4441 35.6817 46.3443 36.9074 45.3012C37.6781 44.6439 38.4507 43.9925 39.2561 43.3836C41.3354 41.81 43.4341 40.2567 45.5268 38.7013C45.6785 38.6092 45.8385 38.5314 46.0045 38.4689C46.0132 38.7174 46.1085 39.0075 46.0129 39.2081C45.5867 40.1111 45.1427 41.0117 44.632 41.8711C44.071 42.8657 43.1749 43.6285 42.1035 44.0234C41.2861 44.331 40.5472 44.8163 39.9401 45.4442C39.2652 46.1731 38.8242 47.1214 38.1115 48.1396M24.5315 14.3398C25.2062 14.4711 25.8838 14.5568 26.5434 14.7455C26.7903 14.8162 27.1893 15.212 27.154 15.2848C26.6155 16.4238 25.9847 17.5191 25.4442 18.6601C25.1826 19.1989 24.8369 19.8652 24.9697 20.3527C25.2961 21.5575 24.6573 22.462 24.3299 23.4842C24.281 23.6401 24.0446 23.7345 23.9031 23.8507C23.8039 23.701 23.7289 23.5365 23.6809 23.3633C23.2777 19.9438 23.1019 16.4813 22.4455 13.1061C21.9676 10.6922 21.1401 8.27492 19.4932 6.28155C19.1344 5.80333 18.8514 5.27274 18.654 4.7084C18.5579 4.46203 18.6761 4.13074 18.7001 3.8392C18.9735 3.98257 19.2281 4.15942 19.4579 4.36565C20.6064 5.68106 21.6024 7.16611 22.9078 8.30004C23.8228 9.096 24.5341 9.75657 24.4416 11.044C24.3625 12.1429 24.3926 13.2469 24.5315 14.3398ZM20.8294 12.3908C21.0845 13.6795 21.4292 14.9602 21.5807 16.2626C21.8528 18.6365 22.0154 21.0219 22.2097 23.412C22.2141 23.6077 22.2027 23.8034 22.1756 23.9973C21.9252 23.9275 21.6879 23.8171 21.4732 23.6707C21.3102 23.4679 21.1913 23.2333 21.124 22.982C20.5293 21.3106 18.6854 19.9965 19.6559 17.8593C19.6795 17.7299 19.6757 17.5969 19.6449 17.469C19.614 17.3411 19.5568 17.221 19.4768 17.1165C19.0623 16.5138 18.6095 15.9362 18.1466 15.3682C17.612 14.7133 17.317 14.0972 17.8265 13.2C18.1028 12.7171 18.1954 11.7098 17.8923 11.3856C16.6508 10.0503 16.552 8.98141 18.1573 7.93628C18.2177 7.89781 18.1799 7.71226 18.1922 7.5953C18.4176 7.6477 18.7855 7.63356 18.8365 7.75581C19.5227 9.23437 20.1589 10.7337 20.8054 12.3982M9.94499 35.3095C10.1936 35.3942 10.4498 35.4548 10.71 35.4904C12.1893 35.5384 13.6363 35.9349 14.9333 36.6477C16.3934 37.449 17.9244 38.1135 19.5068 38.6329C20.4419 38.9465 21.5067 38.8556 22.5071 38.9898C23.2183 39.0861 23.3523 39.5181 22.9045 40.0332C22.0453 41.0244 20.9016 41.5647 19.6434 41.2145C18.436 40.8555 17.277 40.3501 16.1923 39.7098C14.7279 38.8645 13.4031 37.7143 11.511 38.225C11.1336 38.2618 10.7567 38.1498 10.4606 37.9129C9.74294 37.3674 9.13785 36.6634 8.39145 36.161C7.53534 35.5848 6.56421 35.189 5.66544 34.6576C5.32871 34.4117 5.01833 34.1315 4.73929 33.8217C5.17794 33.8408 5.61693 33.844 6.05305 33.8889C6.18784 33.9037 6.30221 34.0392 6.44411 34.0938C7.55595 34.5065 8.6699 34.9133 9.95471 35.3196M38.5365 27.7592C37.9218 28.4615 37.2994 29.1557 36.6965 29.8623C35.7209 31.008 34.5626 32.0526 33.8383 33.3426C32.9737 34.8761 31.884 35.8705 30.2111 36.2566C29.72 36.3695 29.2109 36.3946 28.7129 36.4596C29.0109 36.0805 29.2835 35.6789 29.6107 35.3302C30.8502 34.0092 32.2619 32.8189 33.3271 31.377C35.0698 28.9898 36.5816 26.4309 39.182 24.8285C39.3615 24.7511 39.5513 24.7002 39.7454 24.6774C39.733 24.8917 39.7876 25.1272 39.6963 25.316C39.3344 26.0872 38.9275 26.8317 38.5443 27.7673M41.3386 40.4214C40.0621 41.4237 38.7564 42.3917 37.5127 43.4365C35.2315 45.3555 32.9891 47.323 30.7234 49.2622C30.4645 49.4905 30.1834 49.6923 29.8843 49.8645C29.7898 49.9161 29.5912 49.8186 29.4656 49.7444C29.4384 49.716 29.4405 49.5234 29.4935 49.457C30.0376 48.8068 30.4845 47.9579 31.1782 47.5612C32.8774 46.5856 33.9815 45.1843 34.8201 43.4695C35.3287 42.4252 35.9326 41.3829 37.4371 42.0184C37.6321 42.0999 38.0279 41.8877 38.2423 41.7055C40.5091 39.812 42.6677 37.7692 45.4073 36.5353C45.7039 36.4502 46.0113 36.4085 46.3198 36.4113C46.1738 36.742 46.1165 37.2017 45.8625 37.3792C44.437 38.3764 42.9653 39.3052 41.3346 40.4253M84.5586 129.468C84.2137 129.339 83.7975 129.291 83.532 129.067C82.1832 127.92 81.5371 126.613 81.6792 124.667C81.8213 122.721 81.2406 120.756 80.9976 118.794C80.9667 118.358 80.9586 117.92 80.9735 117.483C81.2599 117.749 81.6824 117.97 81.8108 118.291C82.8159 120.67 83.8689 123.038 84.6838 125.487C85.1007 126.734 85.5163 128.137 84.5586 129.468ZM10.5132 49.8182C10.0707 49.4096 9.62217 49.0108 9.19183 48.5945C9.05824 48.4521 8.94586 48.2912 8.85815 48.1167C8.84648 48.1045 9.04923 47.9101 9.11641 47.9274C10.477 48.3195 11.9551 48.5094 13.1669 49.1765C16.1738 50.8348 19.2424 52.0096 22.7511 51.6182C23.0874 51.6201 23.4215 51.6706 23.7433 51.7682C23.4627 51.9828 23.1986 52.3567 22.8938 52.3921C21.2469 52.5821 19.5895 52.7003 17.9343 52.8087C17.6697 52.8153 17.4112 52.7283 17.2044 52.5629C15.8401 51.3999 14.284 51.4249 12.6337 51.6765C11.2187 51.8892 10.7023 51.4115 10.516 49.7765M32.5996 27.603C32.8411 26.9823 32.9051 26.1075 33.3607 25.7912C35.1791 24.53 37.1057 23.4181 39.0202 22.3099C39.3821 22.103 39.9107 22.1915 40.3627 22.1434C40.1057 22.5572 39.8527 22.9711 39.5959 23.3729C39.559 23.4278 39.4653 23.4437 39.403 23.4802C37.5841 24.482 35.9786 25.8299 34.677 27.4479C33.8488 28.4795 33.1904 29.6517 32.3311 30.6549C30.9801 32.2656 29.5433 33.803 28.1319 35.3627C27.9884 35.4802 27.8284 35.5759 27.6571 35.6468C27.6081 35.4253 27.4452 35.1417 27.5237 34.9964C27.9254 34.3154 28.2966 33.5702 28.858 33.0436C30.1123 31.8719 31.2466 30.6401 31.9435 29.0495C32.1355 28.6085 32.3748 28.1883 32.596 27.587M9.65523 34.2525C9.37438 34.0976 9.09353 33.9427 8.81674 33.7839C9.1742 33.6007 9.52217 33.302 9.8965 33.2622C10.3953 33.2595 10.8926 33.3186 11.3769 33.4383C14.0641 33.8502 16.8154 33.9595 19.3476 35.135C20.5872 35.7093 21.8658 36.2228 23.0851 36.8165C23.3565 36.9454 23.5012 37.3438 23.704 37.6202C23.3906 37.6259 23.0772 37.6147 22.765 37.5866C22.0124 37.4755 21.2516 37.3761 20.5164 37.1938C19.285 36.8919 17.9512 36.7388 16.873 36.142C14.6537 34.9155 12.317 34.3659 9.66115 34.2546M17.0203 48.3612C18.45 48.3912 19.9131 48.6344 21.291 48.3911C22.6689 48.1478 24.0818 48.4118 24.7216 49.6431C24.7298 49.7485 24.7113 49.8544 24.6675 49.9507C24.6238 50.0471 24.5564 50.1308 24.4716 50.1941C20.8709 51.0901 17.5894 49.8353 14.3109 48.6243C14.0921 48.5422 13.966 48.2078 13.7997 47.9898C14.0494 47.9255 14.3208 47.7702 14.5524 47.8128C15.3262 47.9542 16.0886 48.1688 17.0223 48.3593M10.0786 46.1913C10.6296 46.4413 11.1778 46.6395 11.6963 46.9246C11.8357 47.001 11.8493 47.3032 11.9128 47.4953C11.7462 47.5422 11.5738 47.5647 11.4008 47.562C9.40477 47.25 7.40831 46.9268 5.41142 46.5922C5.12673 46.4976 4.8567 46.3635 4.6092 46.194C4.85451 45.9587 5.07564 45.6455 5.37211 45.5285C6.9488 44.9 8.42797 45.3224 10.0569 46.181M76.9112 80.9539C76.7433 80.8113 76.5775 80.6668 76.4096 80.5242L77.0477 79.9356C77.0779 80.2809 77.0313 80.6287 76.9112 80.9539Z"
					fill="#D6A66B"
				/>
			</svg>