<svg width="111" height="140" viewBox="0 0 111 140" fill="none" xmlns="http://www.w3.org/2000/svg">
<path d="M50.7702 99.2709C52.9696 100.59 55.0778 101.807 57.1636 103.062C57.3735 103.19 57.4396 103.549 57.5758 103.801C57.3287 103.885 57.0748 103.946 56.8171 103.985C54.7065 104.132 52.5762 104.222 50.4616 104.436C48.0319 104.682 47.2636 106.096 48.3803 108.198C48.8041 109.011 48.7438 109.144 47.7905 109.034C46.1801 108.854 45.7649 109.293 45.4797 110.849C45.4114 111.02 45.301 111.172 45.1587 111.29C45.0165 111.408 44.847 111.488 44.6656 111.523C42.4894 111.572 40.3754 112.259 38.5867 113.499C37.9698 113.911 37.0855 114.748 37.172 115.24C37.5178 117.207 35.8813 117.658 34.955 118.649C33.9782 119.627 33.0513 120.654 32.1776 121.725C31.6978 122.356 32.3139 123.179 33.1828 123.194C33.7996 123.223 34.4178 123.197 35.0298 123.115C36.0508 122.942 36.9857 122.459 37.56 124.013C37.9295 125.002 39.1134 124.527 39.8523 124.224C41.2399 123.656 42.663 123.045 43.8649 122.183C44.6909 121.591 45.0001 121.974 45.4818 122.42C46.6354 123.489 48.2417 123.333 49.1249 122.012C49.5844 121.283 49.9927 120.522 50.3468 119.736C50.6681 119.067 50.922 118.747 51.7838 119.205C53.2381 119.981 54.3643 118.965 55.2916 118.054C58.458 114.984 60.6649 111.06 61.6443 106.759C61.7774 106.189 62.1334 105.8 62.8745 106.125C68.5485 108.62 74.2189 111.078 79.8842 113.573C80.1682 113.697 80.3683 114.021 80.6103 114.245C80.344 114.361 80.0627 114.439 79.7748 114.476C77.1015 114.399 74.6831 115.34 72.3824 116.504C71.5519 116.924 70.6429 117.683 70.8481 118.999C70.8911 119.266 70.4548 119.724 70.1347 119.91C69.2905 120.402 68.4133 120.835 67.5095 121.206C66.4205 121.652 66.0007 122.427 65.9813 123.573C65.9766 123.85 65.5817 124.19 65.2879 124.381C63.9081 125.267 62.4702 126.061 61.1271 126.994C60.7148 127.281 60.2366 127.897 60.2705 128.327C60.3802 129.824 59.2519 130.443 58.5028 131.393C57.6208 132.547 56.8556 133.787 56.2184 135.093C56.0035 135.52 56.0498 136.445 56.3446 136.681C56.788 137.037 57.5658 137.123 58.1838 137.081C58.8817 137.02 59.5599 136.818 60.1769 136.486C61.0815 136.008 61.634 135.965 62.1251 137.055C62.5161 137.921 63.4528 137.659 64.0347 137.298C65.5117 136.389 66.9138 135.342 68.3107 134.333C68.8925 133.914 69.3984 133.395 69.9732 132.965C70.0715 132.885 70.1864 132.827 70.3097 132.796C70.4329 132.765 70.5614 132.761 70.6862 132.785C72.6746 133.719 73.7845 132.394 74.8556 131.138C75.7263 130.116 76.4564 129.641 77.608 130.829C77.9124 131.145 78.9114 131.196 79.3245 130.932C81.1417 129.787 83.0271 128.659 84.5611 127.184C85.8342 125.959 86.644 124.259 87.685 122.786C87.7604 122.705 88.1836 122.702 88.219 122.772C89.0474 124.296 89.8139 125.796 89.9538 127.628C90.1881 130.787 90.76 133.93 92.5452 136.626C93.6637 138.318 96.7696 140.178 98.875 138.812C100.046 138.056 100.604 136.337 100.445 134.753C100.091 131.206 98.1268 128.382 96.4924 125.41C95.3289 123.281 95.2793 123.412 97.0214 121.958C98.106 121.054 98.9759 119.898 99.9438 118.853C100.344 118.421 100.717 117.963 101.14 117.561C102.615 116.204 104.138 114.9 105.566 113.495C105.709 113.301 105.81 113.078 105.86 112.842C105.911 112.605 105.911 112.361 105.861 112.125C105.544 110.743 105.906 109.54 107.178 108.97C108.592 108.351 109.572 107.406 109.75 105.889C109.912 104.498 110.447 103.135 109.48 101.643C109.005 100.9 109.302 99.5031 109.551 98.4769C110.151 96.0148 109.672 93.7097 108.785 91.4638C108.462 90.6428 107.814 89.9083 107.191 89.2558C106.568 88.6033 105.637 89.0142 105.087 90.0846C104.594 91.0438 104.121 91.795 102.704 91.6594C102.099 91.5996 101.278 92.5866 100.751 93.2504C100.27 93.9136 99.9067 94.6544 99.6763 95.4404C99.2522 96.7286 98.3204 97.4078 97.2427 98.2083C96.0039 99.1284 95.1863 100.682 94.3601 102.069C93.7862 103.033 93.5714 104.204 93.0736 105.223C92.7827 105.737 92.3799 106.18 91.8949 106.518C89.4314 108.388 88.7014 111.091 88.2561 113.935C88.1895 114.361 88.303 114.819 88.2914 115.258C88.2474 115.527 88.1741 115.79 88.0728 116.043C87.8234 115.883 87.593 115.695 87.3859 115.482C86.8535 114.796 86.4431 113.991 85.8352 113.386C82.9347 110.506 79.3792 108.755 75.5214 107.544C75.2335 107.414 74.9627 107.249 74.7151 107.053C74.9604 106.906 75.1907 106.653 75.4516 106.63C78.473 106.453 80.7148 104.432 83.3172 103.283C84.5272 102.748 84.5669 101.222 83.7772 100.31C83.1926 99.6295 83.1185 99.2331 84.0104 98.6513C84.832 98.1138 85.4777 97.2578 86.0862 96.4557C86.8817 95.4064 86.3897 94.4086 85.0998 94.2812C84.8895 94.2587 84.5536 94.145 84.5134 94.007C84.4918 93.7619 84.56 93.5174 84.7052 93.3189C85.5595 91.9838 86.4697 90.6836 87.2883 89.328C87.7151 88.6222 87.9093 87.8818 87.1267 87.1569C86.853 86.9034 86.7533 86.2941 86.8116 85.8774C87.0051 84.4933 87.3236 83.1241 87.5454 81.7368C87.584 81.491 87.4031 80.9831 87.307 80.978C86.9485 80.9612 86.4586 80.9865 86.247 81.2149C85.3066 82.1803 84.4522 83.2297 83.5525 84.2327C83.3656 84.3982 83.1611 84.5429 82.9429 84.664C82.818 84.4784 82.7104 84.2817 82.6215 84.0764C82.2938 83.0963 82.1516 81.7752 80.8507 81.8141C79.5497 81.853 79.0058 82.9755 78.6927 84.1438C78.585 84.7025 78.4102 85.2461 78.1721 85.7629C77.9779 86.1041 77.4979 86.5588 77.1893 86.5335C75.4619 86.316 75.1639 87.4815 74.9581 88.7155C74.9156 89.2415 74.9299 89.7705 75.001 90.2934C75.0162 90.5764 75.0575 90.8585 75.0858 91.141C74.8098 90.9665 74.5109 90.8311 74.1977 90.7386C73.2163 90.5695 72.2248 90.4653 71.2296 90.4268C71.0768 90.4239 70.7817 91.0373 70.7728 91.3737C70.7576 91.9699 70.8326 92.565 70.9952 93.1389C71.4379 94.7298 70.4199 95.72 69.5982 96.8248C68.2017 98.6999 67.7926 100.838 68.0112 103.129C68.0097 103.398 67.979 103.665 67.9196 103.927C67.6559 103.822 67.384 103.729 67.1242 103.611C64.691 102.454 62.2234 101.366 59.8388 100.111C57.4542 98.8559 55.1149 97.4161 52.7608 96.0466C52.5779 95.9402 52.5158 95.6306 52.3986 95.4169C52.573 95.3164 52.7569 95.2333 52.9476 95.169C55.9503 94.483 58.7848 93.2016 61.2836 91.4008C62.5573 90.4794 63.8541 89.5331 65.0423 88.4862C65.9799 87.6737 65.8856 86.6912 65.2677 85.6524C65.1826 85.4533 65.1417 85.2381 65.1477 85.0217C65.1537 84.8053 65.2066 84.5928 65.3026 84.3987C65.686 83.699 66.2567 83.1056 66.7002 82.4363C66.8735 82.1766 67.0792 81.7367 66.9752 81.5269C65.9637 79.4974 67.6377 78.144 68.2559 76.5692C68.8385 75.0328 69.0486 73.6808 68.2041 72.138C67.8942 71.5651 68.2429 70.5853 68.3701 69.8038C68.5584 68.625 68.9503 67.4625 69.0011 66.2824C69.052 65.1024 67.9218 64.5304 66.888 65.1655C65.9117 65.7658 64.8867 66.2871 63.9518 66.9425C63.5867 67.2621 63.3074 67.6681 63.1396 68.1233C62.6118 69.2693 62.1886 70.4657 61.6317 71.5932C61.3584 72.1469 60.9005 72.3825 60.1516 72.1385C58.7283 71.6606 57.614 72.5868 57.564 74.129C57.5399 74.527 57.5302 74.9004 57.5231 75.2847C57.5108 75.9331 57.505 76.5791 57.4971 77.2274C56.9392 77.1309 56.3799 76.9952 55.8281 76.9422C54.7211 76.8623 54.7796 77.82 54.5779 78.4779C54.1218 79.9593 53.7541 81.4678 53.276 82.9412C53.2049 83.1023 53.0956 83.2437 52.9576 83.3531C52.8197 83.4625 52.6572 83.5367 52.4841 83.5693C50.2545 83.3994 49.3241 84.912 48.7539 86.6028C48.2928 88.008 48.2046 89.5232 47.9377 90.9864C47.8788 91.2087 47.7994 91.425 47.7006 91.6326C47.5187 91.4977 47.3327 91.3674 47.155 91.228C46.1533 90.422 45.0844 89.6841 44.1623 88.7921C40.6051 85.3416 37.944 81.2502 35.8445 76.784C35.3934 75.8282 35.0855 74.795 34.562 73.8856C33.9803 72.8803 34.6853 73.0584 35.2088 73.0558C36.6702 73.0479 38.1308 73.0771 39.6008 73.0645C40.4971 73.0542 41.3423 73.0218 41.7127 71.8688C41.7888 71.6325 42.8951 71.7538 43.5176 71.658C44.563 71.4958 45.6535 71.4301 46.6208 71.0527C47.2953 70.7782 47.4304 70.088 46.6714 69.5236C46.4812 69.3247 46.3257 69.0955 46.2113 68.8453C46.5079 68.7108 46.8114 68.5921 47.1205 68.4898C48.9007 67.9744 50.7108 67.5583 52.4519 66.9353C52.867 66.8009 53.2204 66.5226 53.4486 66.1507C53.6767 65.7788 53.7646 65.3377 53.6964 64.9067C53.639 64.4333 53.9857 63.9139 54.1228 63.3938C54.789 60.7328 55.6656 58.0987 56.0292 55.4014C56.3437 53.0157 55.234 52.5214 53.053 53.6237C52.1586 54.0812 51.3273 54.9333 50.0814 53.8465C49.1808 53.0585 47.8292 53.9414 46.9534 55.6265C46.2987 56.8776 45.6731 57.916 44.0714 58.4202C42.7244 58.8535 41.6637 60.153 40.4494 61.0328C40.0587 61.3139 39.4304 61.7699 39.1658 61.6383C37.4263 60.7667 36.4967 62.1287 35.4991 62.9698C34.5988 63.7285 33.9861 64.821 33.2094 65.7321C32.9624 65.9391 32.6857 66.1078 32.3886 66.2326C32.3075 65.9867 32.2439 65.7355 32.1984 65.4806C31.9014 62.7933 31.6197 60.1075 31.3229 57.4245C31.2563 56.8249 31.52 56.817 31.9677 57.0006C33.9023 57.7839 35.6144 57.3737 37.1848 56.0504C37.4897 55.7732 37.8771 55.6035 38.2877 55.5675C40.5838 55.5931 41.7707 54.1122 42.7695 52.3352C43.3614 51.2039 44.0304 50.1148 44.7719 49.0755C45.1688 48.5563 45.8904 48.2582 46.5061 47.9292C49.9375 46.094 50.7736 42.8004 51.3729 39.3632C51.507 38.5923 51.8203 37.8276 51.8111 37.0753C51.7962 36.4563 51.5734 35.5943 51.1368 35.3034C50.7003 35.0125 49.7619 35.0637 49.2334 35.3348C47.3122 36.3246 45.4385 37.4173 43.6109 38.5737C42.8631 39.0452 42.3054 39.8061 41.6139 40.3802C40.7174 41.1257 40.0283 41.9877 38.4952 41.8325C36.9621 41.6774 36.2472 43.293 35.5281 44.455C34.8396 45.5613 34.3676 46.7967 33.7574 47.9545C33.5268 48.3161 33.2597 48.6531 32.9603 48.9602C32.3971 49.6363 31.8383 50.3122 31.2661 50.9798C31.0293 51.2354 30.7884 51.4955 30.5337 51.7387C30.3731 51.4552 30.2459 51.1541 30.1547 50.8413C29.6526 48.0985 29.3047 45.3345 28.6501 42.6521C28.3421 41.3876 28.9473 41.2968 29.7443 41.1442C30.6081 40.9693 31.4825 40.842 32.3487 40.6736C35.1702 40.1184 36.7188 38.1698 37.6875 35.6631C38.0534 34.7103 38.6782 33.8786 39.4915 33.2619C40.9545 32.0275 42.0325 30.3991 42.5976 28.5703C43.4035 26.1985 43.6689 23.7841 43.7563 21.3351C43.7963 19.9308 42.9576 19.3935 41.7583 20.0349C39.4921 21.2474 37.2704 22.5389 35.0228 23.7812C34.6516 24.0412 34.2321 24.2241 33.7889 24.3193C32.293 24.4507 32.0942 25.6407 31.8318 26.7089C31.249 29.1529 30.5353 31.484 28.723 33.3816C28.1175 34.0353 27.9012 35.0537 27.4906 35.8962C27.3538 36.1322 27.2006 36.3582 27.0321 36.5726C26.8495 36.3649 26.6941 36.1348 26.5696 35.8878C25.9908 34.2759 25.4161 32.6551 24.8955 31.0213C24.7549 30.603 24.7422 30.1523 24.859 29.7268C25.6609 27.2505 26.5247 24.7936 27.3531 22.3249C27.463 22.0066 27.6171 21.5862 27.484 21.3578C26.3617 19.3936 27.8166 17.7911 28.1706 16.0388C28.2184 15.8057 28.3673 15.5906 28.4325 15.3568C28.874 13.7822 28.2103 12.9699 26.7141 13.4373C25.386 13.8502 25.298 13.6049 25.4171 12.2695C25.5849 10.0967 25.3935 8.51577 22.8408 7.08845C21.6147 6.40233 20.7369 5.07237 19.7551 3.98638C18.7732 2.90039 17.8871 1.69293 16.8773 0.618914C16.65 0.378903 16.0749 0.346364 15.6958 0.415414C15.5311 0.443534 15.351 0.982752 15.3668 1.28322C15.4417 2.61335 15.6281 3.95013 15.6729 5.29014C15.7176 6.63016 15.493 7.82995 13.8798 8.31928C12.9418 8.60607 12.8176 9.46604 13.3693 10.2587C13.8032 10.8791 14.4697 11.362 14.8087 12.0122C15.0732 12.5388 15.2441 13.3569 15.0138 13.837C14.5177 14.8988 14.7014 15.7077 15.4337 16.4869C15.7952 16.868 16.2326 17.1807 16.5836 17.573C17.1896 18.2436 17.5254 18.9245 17.0811 19.9124C16.8419 20.4473 16.8153 21.3472 17.121 21.8111C18.2931 23.7079 19.2797 26.0002 20.9885 27.2133C23.2918 28.8508 23.4709 31.0802 24.0409 33.3186C24.4517 34.8759 24.8026 36.4616 25.1511 38.0452C25.168 38.2894 25.1502 38.5346 25.0983 38.7738C24.8824 38.7389 24.6747 38.6648 24.4856 38.555C22.4932 36.7725 19.9808 36.1138 17.4941 35.6679C14.8954 35.2023 12.216 35.1368 9.56506 35.0179C8.87014 34.9877 8.16077 35.5494 7.45301 35.583C6.08397 35.6407 4.71271 35.6167 3.34654 35.5111C2.78894 35.4779 2.24548 35.13 1.69048 35.1076C1.13548 35.0852 0.65567 35.3173 0.129883 35.4313C0.302549 35.9526 0.329984 36.6126 0.675284 36.9703C2.24527 38.5443 4.128 39.7714 6.20184 40.5724C7.26569 41.0073 8.09507 41.9857 9.0864 42.635C9.58772 42.9648 10.2447 43.3717 10.7654 43.295C12.8545 42.986 14.474 43.9734 16.1825 44.892C18.3431 46.0529 20.5969 47.1404 23.1085 46.0123C23.9343 45.6426 24.5955 44.906 25.3375 44.341C25.6364 44.1135 25.9424 43.9011 26.244 43.6845C26.3386 43.9907 26.4551 44.3004 26.5259 44.6096C27.066 47.0935 27.5953 49.58 28.1138 52.0691C28.1459 52.225 28.0354 52.4168 27.9982 52.584C27.794 52.4915 27.4915 52.4551 27.4004 52.2993C26.482 50.7047 25.03 50.2171 23.3183 50.3545C22.8181 50.3955 22.3446 50.9067 21.854 50.9145C20.3687 50.9295 18.8837 50.8669 17.405 50.727C16.0379 50.6119 14.6794 50.4118 13.3372 50.1278C12.5484 49.9207 11.7929 49.6029 11.0932 49.1839C8.7286 47.8803 6.39326 47.5704 3.98836 49.0914C3.51976 49.3886 2.86974 49.3917 2.3761 49.6614C1.97454 49.8863 1.4854 50.2737 1.41503 50.6582C1.36068 50.9482 1.8379 51.5037 2.20444 51.6752C4.15918 52.5865 6.17059 53.3822 8.1213 54.3024C8.6302 54.5442 9.0371 54.9584 9.26996 55.4714C10.1717 57.9415 11.1605 58.7523 13.6893 58.3043C15.2495 58.0264 16.543 58.1907 17.8575 59.0175C18.3594 59.3092 18.9358 59.4472 19.5154 59.4144C21.9453 59.2865 24.4637 59.4214 26.5813 57.8612C27.0589 57.5135 27.472 57.0766 27.9379 56.7097C28.1015 56.5879 28.298 56.518 28.5018 56.5092C28.5651 56.509 28.6631 56.7889 28.6936 56.96C29.0768 60.3212 29.4541 63.6825 29.8256 67.044C29.8169 67.1874 29.7855 67.3286 29.7325 67.4621C29.4668 67.3588 29.1167 67.333 28.9417 67.1499C27.7874 65.8327 26.2469 65.2 24.6453 64.6788C24.111 64.476 23.5258 64.45 22.9756 64.6046C22.4254 64.7591 21.9394 65.0861 21.5889 65.5375C21.0322 66.2112 20.483 66.2278 19.8165 65.913C18.1877 65.1558 16.4047 64.7892 14.6093 64.8425C13.2705 64.8632 11.9345 64.6132 10.5978 64.4593C10.2535 64.3993 9.89898 64.4461 9.58206 64.5936C9.26514 64.7411 9.00099 64.9821 8.82514 65.2842C8.23208 66.2057 7.4253 66.1602 6.4555 65.9595C5.02308 65.6878 3.57732 65.4919 2.12424 65.3726C1.96177 65.3629 1.7993 65.3915 1.64984 65.4559C1.50039 65.5203 1.3681 65.6189 1.26359 65.7437C1.16184 65.9352 1.38907 66.3432 1.53916 66.6167C2.23887 67.912 3.59437 68.7852 3.84617 70.4053C3.90684 70.7934 4.58853 71.219 5.0567 71.3669C6.29625 71.7754 7.59449 72.0072 8.84385 72.387C9.6252 72.6232 10.4537 72.7224 10.7244 73.8684C10.8574 74.437 11.7548 75.0245 12.4229 75.2105C13.8518 75.6053 15.3532 75.7311 16.8225 75.9869C17.141 76.0423 17.5808 76.0757 17.7432 76.2723C19.0287 77.8245 20.6737 77.3688 22.2752 77.1461C25.0469 76.7717 27.1017 75.1659 28.8958 73.1338C29.4032 72.6253 29.9457 72.1533 30.5195 71.7212C30.7435 72.3867 30.9758 73.0433 31.1915 73.7179C32.5375 78.1628 34.268 82.4512 37.2892 86.0903C37.3948 86.2648 37.4727 86.4546 37.5202 86.653L37.7659 87.2588C37.5371 87.2476 37.3094 87.2206 37.0843 87.178C35.3856 86.7434 33.6806 86.3156 31.9974 85.828C30.7469 85.4767 29.7291 85.9585 28.68 86.5375C28.2764 86.7013 27.8307 86.7306 27.4091 86.621C25.8305 86.3018 24.3119 85.6138 22.629 86.2192C21.441 86.6443 20.9205 87.4104 21.3589 88.5477C21.6493 89.2958 21.3859 89.2535 20.8276 89.3163C19.1718 89.4888 17.5059 89.6267 15.8775 89.9464C14.9161 90.136 14.4349 90.7871 15.0817 91.84C15.106 91.9959 15.0901 92.1554 15.0354 92.3033C14.9807 92.4513 14.8891 92.5828 14.7693 92.6854C11.7697 93.9455 8.98091 95.4682 7.3004 98.4166C6.9487 99.0322 6.77822 99.7653 7.88913 99.8907C8.26006 99.9703 8.63702 100.019 9.01603 100.035C11.4978 99.8966 13.9741 99.7277 16.4511 99.5762C17.1606 99.5316 17.7414 99.5443 18.2001 100.356C18.5845 101.052 19.2828 101.455 20.3485 101.14C22.5269 100.485 24.7771 100.052 27.0026 99.5455C27.2427 99.4905 27.6319 99.456 27.7483 99.589C29.0619 101.079 30.3546 100.368 31.5794 99.5362C32.9871 98.5791 34.346 97.5476 35.6937 96.5055C37.3974 95.188 38.0714 93.19 38.9653 91.3494C39.6164 90.0068 39.8861 89.9288 40.9581 90.9175C41.9578 91.8436 42.9242 92.8102 43.9595 93.6978C46.1709 95.557 48.4263 97.3688 50.76 99.291M103.938 99.5731C105.259 97.4347 106.163 95.2206 105.95 92.6369C105.92 92.1886 106.326 91.7237 106.541 91.2507C106.861 91.5835 107.145 91.9501 107.386 92.3442C108.403 94.4629 108.354 96.6617 107.853 98.9084C107.62 99.9536 107.171 101.155 107.466 102.076C108.433 105.073 108.441 105.387 105.988 107.301C105.594 107.587 105.261 107.947 105.005 108.361C104.446 109.356 103.45 110.472 103.579 111.407C103.788 112.928 103.155 113.485 102.141 114.252C100.89 115.195 99.4662 116.233 98.7576 117.556C97.9699 119.093 96.8125 120.409 95.3895 121.387C95.0261 121.639 94.4226 121.547 93.9232 121.609C93.8835 121.085 93.6347 120.455 93.8353 120.053C94.5173 118.597 95.323 117.202 96.2435 115.883C98.5823 112.691 100.013 109.091 101.374 105.431C102.098 103.488 102.414 101.351 103.936 99.571M81.3929 115.941C81.9879 115.956 82.5718 116.106 83.1012 116.378C83.6305 116.65 84.0918 117.038 84.4507 117.512C84.7463 117.883 84.8706 118.053 84.1757 118.308C82.651 118.874 81.1835 119.583 79.7931 120.427C77.8251 121.621 75.9782 123.016 74.036 124.255C70.9333 126.244 67.7425 128.092 64.6816 130.144C62.8118 131.396 61.1224 132.915 59.336 134.295C59.0941 134.413 58.8335 134.489 58.5657 134.519C58.6198 134.279 58.5993 133.97 58.7459 133.811C59.4227 133.081 60.0617 132.278 60.8598 131.697C61.6579 131.117 62.2969 130.54 62.1296 129.419C62.05 129.109 62.0729 128.782 62.195 128.487C62.317 128.192 62.5316 127.944 62.8065 127.781C64.2392 126.738 65.656 125.848 67.4406 125.564C68.3276 125.423 68.9571 124.543 68.3373 123.91C67.0159 122.56 68.5743 122.407 69.0438 122.077C69.7219 121.608 70.6497 121.509 71.4355 121.178C72.2213 120.847 73.1487 120.567 72.5956 119.282C72.2052 118.374 72.8349 117.898 73.6395 117.542C76.0596 116.477 78.6387 116.201 81.4152 115.953M67.5835 130.495C69.214 129.375 70.8259 128.224 72.4817 127.14C74.5015 125.817 76.5627 124.549 78.601 123.256C80.5849 122.022 82.5367 120.745 84.5699 119.602C85.0163 119.352 86.1373 119.398 86.2534 119.64C86.5783 120.32 86.9181 121.445 86.5824 121.908C84.6607 124.54 82.8896 127.287 79.8791 129.004C78.6108 129.724 78.0444 129.406 77.4392 128.584C76.9166 127.869 76.444 127.663 75.7963 128.239C74.7416 129.183 73.7145 130.165 72.7212 131.174C72.2467 131.659 71.8598 131.868 71.3354 131.277C70.6901 130.549 70.1022 131.034 69.5856 131.446C68.0739 132.647 66.601 133.897 65.0917 135.104C64.6472 135.462 64.1365 135.741 63.6578 136.058C63.5189 135.564 63.3843 135.069 63.2433 134.577C63.2354 134.541 63.18 134.519 63.1483 134.489C62.4665 133.833 62.9318 133.448 63.4805 133.078C64.7782 132.213 66.0851 131.36 67.5656 130.483M37.7018 121.732L35.2352 121.868C35.0022 121.879 34.7643 121.877 34.5289 121.881C34.6695 121.68 34.7674 121.388 34.9601 121.293C35.6216 120.976 36.3008 120.698 36.9942 120.459C38.3418 119.984 39.7606 119.659 41.0442 119.053C42.7008 118.272 44.2387 117.243 45.868 116.377C50.1446 114.111 54.0413 111.378 57.1449 107.592C57.6786 106.944 58.518 106.532 59.2555 106.076C59.4494 105.957 59.7898 106.071 60.0628 106.08C60.0702 106.324 60.0413 106.568 59.9771 106.803C59.4594 108.043 58.9865 109.311 58.351 110.491C56.9947 113.017 55.7054 115.584 53.3838 117.401C53.2295 117.507 53.0543 117.579 52.8699 117.611C52.6856 117.643 52.4965 117.635 52.3154 117.588C50.5081 116.881 49.8572 117.148 48.9906 118.959C48.5958 119.778 48.1348 120.564 47.6123 121.309C47.1862 121.919 46.7158 122.054 46.2714 121.218C45.7446 120.222 44.9364 120.083 43.9511 120.616C42.6962 121.29 41.4153 121.91 40.1575 122.565C38.5726 123.391 38.5771 123.396 37.7146 121.722M95.8795 103.804C96.0317 103.467 96.2089 103.143 96.4096 102.833C97.1882 101.801 96.9181 99.5886 99.2723 100.277C99.4488 100.327 99.8395 99.9328 100.002 99.667C100.204 99.2688 100.37 98.8536 100.5 98.4262C101.021 97.1016 101.452 95.7324 102.109 94.479C102.341 94.0382 103.107 93.8278 103.675 93.6555C103.778 93.6254 104.343 94.3543 104.267 94.5994C103.917 95.64 103.499 96.6566 103.016 97.6427C102.086 99.6396 100.808 101.536 100.241 103.628C99.3334 106.906 97.9322 110.027 96.0851 112.883C95.0026 114.582 93.7324 116.167 92.6185 117.846C92.1934 118.482 91.9898 119.26 91.6231 119.941C91.4265 120.202 91.1919 120.433 90.9271 120.624C90.8561 120.479 90.7285 120.335 90.723 120.192C90.6101 117.414 89.6959 114.617 90.939 111.869C91.3174 111.039 91.6598 110.351 92.7458 110.454C93.7529 110.546 94.1675 109.922 94.3979 109.042C94.8483 107.358 95.3798 105.682 95.8736 103.82M34.0462 89.5414C33.4797 89.958 32.9273 90.4045 32.3399 90.7891C31.1761 91.5602 30.069 92.5058 28.7938 92.9887C27.6668 93.4114 26.3176 93.2165 25.1048 93.4506C21.0533 94.2448 17.0199 95.1147 12.9764 95.9458C12.6722 95.9832 12.3655 95.9957 12.0593 95.9831C12.2871 95.6645 12.4439 95.2004 12.7524 95.0533C13.8856 94.506 15.0898 94.1043 16.2299 93.5676C16.815 93.2943 17.6696 92.8209 16.9042 92.091C15.6847 90.8941 16.9683 91.0283 17.4822 90.9453C18.8072 90.7456 20.1436 90.6303 21.4832 90.6003C22.7526 90.5909 23.3566 90.125 23.1842 88.8138C23.0749 87.9519 23.5824 87.531 24.3414 87.6962C25.5046 87.9075 26.6358 88.2675 27.7072 88.7673C28.8445 89.3543 29.3857 89.3008 30.0995 88.2263C30.3657 87.83 30.9959 87.4219 31.4374 87.4443C32.9763 87.5207 34.504 87.7633 36.0375 87.986C36.18 88.0046 36.2976 88.227 36.4288 88.3485C36.3167 88.505 36.1797 88.6422 36.0233 88.7545C35.3785 89.0548 34.716 89.3155 34.0395 89.5351M21.9315 95.4155C23.1074 95.244 24.2815 94.9111 25.452 94.9405C28.5507 95.0161 30.991 93.738 33.2791 91.7851C34.439 90.7961 35.9182 90.1701 37.2774 89.4287C37.5017 89.3045 37.853 89.4197 38.1454 89.4216C38.0862 89.7003 37.9978 89.9721 37.8819 90.2324C37.3481 91.1626 36.7853 92.0786 36.2249 92.9967C35.8596 93.5997 35.602 94.3361 35.0861 94.766C33.5575 96.0397 31.9424 97.2207 30.3107 98.3652C30.0537 98.5474 29.2427 98.4475 29.1844 98.2927C28.7182 97.0582 27.8984 97.4125 27.0358 97.6768C24.8113 98.3815 22.5918 99.1034 20.3495 99.7412C20.0581 99.8243 19.4107 99.5524 19.3182 99.3029C18.9259 98.2292 18.175 97.9329 17.1421 98.0226C14.916 98.23 12.6902 98.446 10.4616 98.6426C10.207 98.6273 9.95531 98.5805 9.71227 98.5033C9.85393 98.2142 9.94275 97.7418 10.1666 97.6634C10.7685 97.4871 11.3839 97.3613 12.0067 97.2875C15.2511 96.666 18.4932 96.0423 21.9226 95.4115M85.1116 86.093C84.944 86.6727 84.8251 87.2654 84.7561 87.865C84.7344 88.2651 84.9633 89.0024 85.0993 89.0234C85.91 89.0557 85.6877 89.4045 85.4457 89.8065C84.8083 90.9691 84.1117 92.0982 83.3585 93.1894C82.4286 94.4293 82.5187 94.8447 83.985 95.3078C84.3159 95.4042 84.5996 95.7468 84.905 95.9751C84.6897 96.1622 84.4631 96.3433 84.2547 96.541C83.1959 97.548 82.1235 98.5425 81.0919 99.579C80.5792 100.092 80.4356 100.501 81.4429 100.656C81.8424 100.72 82.1655 101.237 82.5311 101.555C82.3307 101.816 82.095 102.047 81.8309 102.243C79.1562 103.669 76.5039 105.167 73.409 105.532C72.8291 105.6 72.2568 105.81 71.677 105.823C71.3608 105.829 71.0387 105.564 70.7169 105.421C70.9847 105.179 71.2651 104.95 71.5568 104.737C72.138 104.359 72.8865 104.136 73.3145 103.633C74.6417 102.133 75.8709 100.548 76.9945 98.8893C78.7836 96.1548 80.398 93.3048 82.1109 90.5166C83.0371 88.992 84.0393 87.5148 85.1137 86.0907M56.2086 87.5698C55.9095 88.0198 55.6262 88.4844 55.3091 88.9219C53.811 90.993 51.1612 91.2449 49.2799 92.7088C49.174 92.7914 48.9992 92.785 48.8587 92.8187C48.8891 92.6452 48.9212 92.4563 48.9542 92.2936C49.0905 91.6928 49.2447 91.1044 49.4098 90.5178C49.8212 89.0665 50.2724 87.6311 50.6508 86.1746C50.9491 85.0178 51.4692 85.4408 51.9413 85.9747C52.6619 86.7892 53.2877 86.3813 53.5675 85.7117C54.463 83.7103 55.2203 81.6497 55.8339 79.5447C56.1434 78.3984 56.3782 78.6032 57.0363 79.154C58.0167 79.9738 58.4901 79.803 58.638 78.5363C58.7807 77.3615 58.8117 76.1757 58.8906 74.988C58.9515 74.0148 59.2108 73.3221 60.4282 73.6638C61.5309 73.975 62.2871 73.6123 62.7373 72.4912C63.2052 71.3192 63.7838 70.1909 64.3648 69.0691C64.4763 68.8489 64.8061 68.7424 65.0357 68.5853C65.0934 68.7816 65.2528 69.0133 65.2016 69.1593C64.5364 70.989 63.9626 72.8697 63.1017 74.6022C62.2862 76.2674 61.0793 77.7383 60.2018 79.3797C58.7948 82.0058 57.5212 84.7008 56.1971 87.555M62.0607 79.6686C62.3555 79.2659 62.6229 78.8438 62.8611 78.4053C63.6534 76.706 64.4855 75.0183 65.1583 73.2712C65.712 71.8341 66.0487 70.3137 66.5223 68.836C66.5748 68.6704 66.8594 68.581 67.0295 68.4654C67.0664 68.6887 67.1827 68.9351 67.127 69.1314C66.8232 70.1444 66.4247 71.1327 66.1694 72.1569C66.0504 72.6393 65.6611 73.4134 66.8251 73.3863C67.0278 73.3807 67.4496 74.1413 67.4181 74.5155C67.3558 75.2078 67.1391 75.8774 66.784 76.4749C66.0546 77.6526 65.1643 78.7317 64.3994 79.8932C64.1622 80.2536 64.1131 80.7376 63.9684 81.1751C64.2759 81.16 64.5834 81.2038 64.8744 81.3041C65.0818 81.4205 65.3478 81.8728 65.2796 81.9736C64.4853 83.1668 63.6059 84.3022 62.8117 85.4954C62.6181 85.8612 62.5275 86.2726 62.5496 86.6858C62.5505 86.7664 63.1054 86.8434 63.3992 86.939C63.6114 87.0095 63.8139 87.113 64.0223 87.201C63.8806 87.49 63.8261 87.8892 63.6002 88.0287C60.2808 90.1105 56.9831 92.246 53.2207 93.4677C52.654 93.653 51.9909 93.5432 51.3745 93.5689C51.8401 93.1933 52.2498 92.6693 52.7852 92.4634C53.8852 92.0486 54.8889 91.4136 55.7347 90.5971C56.5806 89.7807 57.2508 88.8001 57.7042 87.7155C58.3254 86.3325 59.0933 85.0181 59.8101 83.6817C60.4881 82.4144 61.1755 81.1642 62.0532 79.6994M36.2428 69.29C35.5066 69.542 34.7551 69.7471 33.993 69.904C33.7869 69.9359 33.3342 69.5082 33.2941 69.2566C33.2567 68.8464 33.368 68.4364 33.6076 68.1014C34.5512 66.8741 35.558 65.7055 36.54 64.5138C37.2759 63.6195 37.9972 62.8 39.1576 64.0471C39.334 64.2106 39.9019 64.1147 40.231 63.9908C40.4891 63.8937 40.65 63.5384 40.8799 63.3311C42.4797 61.9216 43.388 59.6616 45.9072 59.3601C46.2569 59.3183 46.59 58.7318 46.8458 58.3468C47.4674 57.3718 47.995 56.3349 48.6529 55.3978C48.7916 55.2027 49.6196 55.1754 49.6809 55.2952C50.1956 56.3184 50.7802 56.2589 51.6172 55.6684C52.2281 55.2642 52.889 54.9412 53.5832 54.7074C53.9058 54.586 54.3073 54.7015 54.6719 54.7072C54.4833 55.019 54.2475 55.2996 53.9728 55.539C53.1487 56.0657 52.139 56.3618 51.4556 57.0316C48.8708 59.5543 46.3588 62.1528 43.8807 64.7827C41.8052 66.9871 39.2293 68.3161 36.2459 69.3139M72.7956 92.0119C73.1235 92.3702 73.4386 92.7377 73.7747 93.0827C74.1108 93.4276 74.3983 93.8704 74.7627 93.9306C75.0063 93.9671 75.4795 93.4472 75.612 93.0909C75.8506 92.3915 76.0167 91.6694 76.1077 90.9361C76.2011 90.3544 76.1776 89.74 76.2559 89.1654C76.2841 88.9898 76.5229 88.8454 76.6569 88.6963C76.789 88.844 77.01 88.973 77.0381 89.1377C77.089 89.4412 76.9579 89.7778 77.0211 90.0634C77.1489 90.4782 77.308 90.8828 77.4972 91.2734C77.7426 90.9652 77.9509 90.6292 78.1178 90.2723C78.3369 89.6138 78.3703 88.8882 78.6317 88.252C79.0851 87.1591 79.6472 86.1122 80.1786 85.0622C80.35 84.7748 80.5415 84.5 80.7515 84.2396C81.0432 84.4717 81.3054 84.7386 81.5324 85.0344C81.8959 85.64 82.0645 86.5106 83.0685 85.7806C83.1662 85.7114 83.3467 85.7525 83.4861 85.7472C83.4611 85.8921 83.4786 86.0638 83.3998 86.1715C82.9363 86.8307 82.4077 87.4422 81.98 88.1217C79.9747 91.3074 77.8523 94.4516 76.0366 97.7456C74.8327 99.921 73.5806 101.922 71.3237 103.092C70.9098 103.269 70.4817 103.411 70.0441 103.516C69.9666 103.146 69.8611 102.784 69.8139 102.404C69.7306 101.882 69.7147 101.352 69.7666 100.826C69.9084 100.029 69.9065 99.1234 71.0866 98.9473C71.9568 98.8246 72.4428 98.1864 72.4152 97.2362C72.3578 95.792 72.2831 94.3528 72.2734 92.9023C72.3201 92.5422 72.5007 92.2129 72.7791 91.9798M26.6273 71.1502C27.2304 71.0027 27.8282 70.8337 28.4349 70.7232C28.6169 70.6901 28.8287 70.8107 29.0334 70.8574C28.9622 71.0453 28.8638 71.2218 28.7415 71.3812C28.0862 71.9888 27.4127 72.5753 26.7436 73.1616C24.9793 74.7654 22.7189 75.7165 20.3388 75.8567C20.0688 75.8714 19.5504 75.6643 19.5525 75.5486C19.5241 74.3498 18.6357 74.5103 17.9101 74.477C17.2961 74.4503 16.6709 74.5898 16.064 74.5236C14.1973 74.3158 11.971 74.7457 11.4804 71.9588C11.4292 71.6466 10.7195 71.3465 10.2656 71.2286C8.99839 70.8953 7.68842 70.6989 6.41995 70.3897C6.01156 70.2994 5.6434 70.0792 5.37055 69.7622C4.84057 68.9849 4.35104 68.1808 3.90391 67.3531C3.79175 67.1321 3.69621 66.9032 3.61808 66.6681C3.9322 66.6977 4.23985 66.7757 4.53014 66.8993C5.44892 67.4772 6.28833 68.2043 7.24784 68.7065C10.5044 70.3992 14.1381 70.8863 17.6699 71.3926C20.5263 71.8069 23.5145 71.2758 26.6341 71.1564M38.5444 118.721C38.0063 118.912 37.4784 119.142 36.9273 119.279C36.6874 119.338 36.3943 119.205 36.1328 119.156C36.3136 119.034 36.499 118.92 36.6753 118.793C37.6643 118.07 38.6852 117.44 38.497 115.887C38.4382 115.433 38.9903 114.697 39.4577 114.424C41.0759 113.493 42.8874 112.949 44.7507 112.833C45.8494 112.754 47.1851 112.769 47.0472 110.989C47.0307 110.785 47.4622 110.432 47.751 110.338C48.2831 110.208 48.8245 110.118 49.3704 110.069C50.2746 109.923 50.6033 109.165 50.0997 108.375C49.9454 108.086 49.7722 107.807 49.5813 107.541C48.7992 106.603 49.5858 106.062 50.2079 105.957C52.4185 105.631 54.6537 105.491 56.8823 105.29C56.9997 105.281 57.1238 105.387 57.2457 105.437C57.1771 105.58 57.0914 105.714 56.9904 105.835C55.8659 106.895 54.7279 107.942 53.6183 108.99C52.7422 109.814 51.9673 110.773 50.9946 111.464C49.1834 112.803 47.3008 114.041 45.3551 115.175C43.2005 116.394 40.9308 117.402 38.5326 118.698M46.5314 64.2122C48.5113 62.0748 50.4912 59.9374 52.4732 57.7977C52.8603 57.4177 53.2906 57.0842 53.7551 56.8039C53.9783 56.7025 54.2171 56.6395 54.4613 56.6176C54.4357 56.8636 54.3843 57.1061 54.3079 57.3413C53.7027 58.7433 53.4643 60.3799 51.8712 61.1652C51.6999 61.2503 51.6066 61.4917 51.4883 61.6511C51.6811 61.7587 51.8866 61.8417 52.0999 61.8982C52.8217 62.0037 52.9727 62.1855 52.4883 62.8673C52.159 63.3999 51.9859 64.0143 51.9889 64.6404C51.9612 65.4553 51.6805 65.9307 50.8886 66.105C49.2272 66.474 47.5487 66.7935 45.9145 67.2465C45.1956 67.4464 44.5552 67.9291 43.8688 68.2935C44.2665 68.7081 44.6663 69.1204 45.0637 69.5306C45.0993 69.557 45.1319 69.5872 45.161 69.6207C45.2941 69.849 45.4207 70.0798 45.5496 70.3127C45.2854 70.4209 45.0165 70.6341 44.7628 70.6177C43.9752 70.5605 43.1934 70.4246 42.4146 70.3126C41.2476 70.1478 40.0638 69.8833 39.4863 71.3824C39.404 71.5 39.2956 71.5969 39.1694 71.6653C39.0433 71.7338 38.903 71.7719 38.7596 71.7768C37.6413 71.7999 36.5229 71.7642 35.4045 71.7284C35.2097 71.6941 35.0207 71.6323 34.8433 71.5448C35.0067 71.3684 35.1176 71.0718 35.3073 71.0122C36.0168 70.7952 36.7729 70.714 37.4838 70.4773C40.9754 69.2485 43.8821 67.1585 46.5317 64.2209M21.6292 67.7896C22.4212 67.3339 22.8696 65.9969 23.9663 66.4327C25.5981 67.0575 27.129 67.9545 28.6831 68.772C28.8501 68.8594 28.8828 69.2007 28.9808 69.426C28.7683 69.4952 28.5508 69.548 28.3302 69.584C27.2619 69.6787 26.1925 69.7654 25.1222 69.8442C22.9769 69.9961 20.7852 70.4749 18.6976 70.1969C15.3799 69.7588 12.1261 68.8209 8.85098 68.0692C8.71894 68.0393 8.53544 67.634 8.56494 67.6067C9.22857 66.9901 9.513 65.8709 10.7184 65.9578C12.4839 66.0845 14.2761 66.0551 16.0111 66.3553C17.8494 66.6755 19.6361 67.3009 21.6355 67.7829M41.1659 50.9632C40.1309 52.0805 39.2579 53.4404 37.4378 53.3682C37.1905 53.4035 36.9668 53.5342 36.8147 53.7324C35.6377 55.1301 34.0954 55.5338 32.3582 55.4039C32.1626 55.3596 31.9741 55.2883 31.7981 55.1919C31.9024 55.0052 32.0299 54.8324 32.1777 54.6778C33.3995 53.6536 34.6759 52.6885 35.8545 51.6158C37.1618 50.4313 38.3825 49.1498 39.6578 47.9273C40.4595 47.157 41.2637 46.3932 42.1066 45.6737C44.2826 43.8146 46.4812 41.9764 48.6732 40.1363C48.8334 40.0255 49.0036 39.9299 49.1815 39.8506C49.2072 40.1224 49.3304 40.434 49.2387 40.66C48.8303 41.677 48.4023 42.6926 47.8986 43.6675C47.3486 44.7936 46.4162 45.6876 45.268 46.1898C44.3923 46.5799 43.6142 47.1596 42.9898 47.887C42.2978 48.7295 41.8761 49.7972 41.1613 50.959M24.0874 14.8075C24.8352 14.9076 25.5832 14.9575 26.3182 15.1214C26.5933 15.1829 27.0561 15.5906 27.0221 15.6726C26.5062 16.9555 25.8861 18.1966 25.368 19.4818C25.1164 20.0892 24.7808 20.8417 24.958 21.3672C25.3939 22.6661 24.7527 23.6985 24.4604 24.8398C24.4169 25.0138 24.164 25.1326 24.0165 25.2692C23.8981 25.1115 23.8052 24.9361 23.7414 24.7495C23.0776 21.029 22.6601 17.2467 21.7218 13.5912C21.0414 10.9774 19.9778 8.38265 18.0439 6.30552C17.6198 5.80486 17.2752 5.24188 17.0223 4.63637C16.901 4.37267 17.0089 4.00201 17.0163 3.68103C17.3252 3.82036 17.6156 3.99759 17.8808 4.20864C19.2246 5.5753 20.4124 7.13775 21.9162 8.29539C22.9705 9.10808 23.7927 9.78567 23.7749 11.2023C23.7596 12.4114 23.8642 13.6191 24.0874 14.8075ZM19.9046 12.9124C20.2678 14.3079 20.7286 15.6887 20.9792 17.1059C21.4315 19.6892 21.7645 22.2923 22.1326 24.8984C22.1502 25.1125 22.1504 25.3277 22.1332 25.5419C21.8544 25.4816 21.5873 25.3762 21.3424 25.2297C21.1507 25.018 21.0051 24.7687 20.9152 24.4977C20.155 22.7051 18.0493 21.385 18.974 18.9804C18.9914 18.837 18.9787 18.6915 18.9366 18.5534C18.8944 18.4152 18.8239 18.2874 18.7295 18.1781C18.2362 17.5447 17.7026 16.9411 17.1585 16.3489C16.5302 15.6661 16.167 15.0102 16.667 13.9941C16.9384 13.447 16.9745 12.3373 16.6213 12.0018C15.1743 10.6194 14.9966 9.45465 16.6876 8.2053C16.7513 8.15923 16.6978 7.95838 16.7038 7.82943C16.9541 7.87221 17.3562 7.83283 17.4201 7.96347C18.268 9.53891 19.0623 11.1404 19.8788 12.9221M9.46714 38.7305C9.74504 38.8072 10.0297 38.8569 10.3171 38.879C11.941 38.8355 13.5522 39.176 15.0196 39.8728C16.6713 40.6559 18.392 41.2846 20.1595 41.7509C21.2044 42.0338 22.3651 41.8651 23.47 41.9471C24.2555 42.0065 24.4304 42.4711 23.9731 43.0645C23.0961 44.2064 21.8781 44.8726 20.4768 44.5706C19.1306 44.2556 17.8279 43.7772 16.5978 43.146C14.9385 42.315 13.4122 41.1408 11.3723 41.8232C10.9611 41.888 10.5409 41.7898 10.2011 41.5495C9.37939 40.9984 8.67069 40.2663 7.82027 39.7643C6.84485 39.1886 5.7551 38.818 4.73585 38.2941C4.35093 38.0465 3.99267 37.7597 3.66681 37.4383C4.14867 37.4308 4.62987 37.4058 5.11063 37.4267C5.25927 37.4341 5.39338 37.5752 5.5524 37.6258C6.79741 38.0058 8.04434 38.3791 9.47845 38.7409M40.3036 28.6013C39.6757 29.4107 39.0388 30.2118 38.4241 31.0251C37.4296 32.3438 36.2283 33.5635 35.5185 35.024C34.6708 36.7603 33.5414 37.9205 31.7335 38.4522C31.2028 38.6078 30.6466 38.6684 30.1052 38.772C30.407 38.3372 30.6797 37.8795 31.0155 37.4761C32.2879 35.9483 33.7573 34.5525 34.8308 32.9035C36.5852 30.1748 38.0755 27.2728 40.8206 25.3483C41.0122 25.2519 41.2169 25.1838 41.4281 25.1461C41.4284 25.3818 41.5035 25.6363 41.4157 25.8491C41.0693 26.7176 40.6717 27.5597 40.3127 28.6097M44.196 42.2929C42.8624 43.474 41.4947 44.6194 40.1999 45.8448C37.8251 48.0956 35.4958 50.3969 33.1393 52.6688C32.8705 52.9357 32.5756 53.1751 32.2591 53.3831C32.1589 53.4459 31.935 53.3519 31.7925 53.2788C31.7609 53.2495 31.7506 53.0382 31.8044 52.962C32.3583 52.2143 32.7929 51.2552 33.5272 50.7755C35.3256 49.5962 36.4444 47.9891 37.2518 46.0558C37.7412 44.8786 38.3353 43.6974 40.025 44.296C40.2439 44.3727 40.6638 44.1145 40.8869 43.9009C43.2475 41.679 45.48 39.3007 48.4016 37.7708C48.7211 37.6584 49.0551 37.5927 49.3934 37.5758C49.2549 37.9476 49.2219 38.455 48.9551 38.6659C47.458 39.8511 45.9058 40.9643 44.1918 42.2974M97.3328 137.052C96.9465 136.933 96.4873 136.907 96.1819 136.679C94.6296 135.51 93.8369 134.12 93.8662 131.979C93.8955 129.838 93.1317 127.722 92.7381 125.588C92.6758 125.112 92.6385 124.633 92.6264 124.153C92.9576 124.426 93.4349 124.641 93.5963 124.984C94.8521 127.525 96.1596 130.052 97.2114 132.682C97.7491 134.021 98.2956 135.531 97.3328 137.052ZM11.0318 54.5903C10.5205 54.1713 10.0031 53.7635 9.50457 53.3353C9.34895 53.1879 9.21537 53.0189 9.10794 52.8334C9.09436 52.8209 9.30388 52.5947 9.37861 52.6093C10.8948 52.9505 12.5267 53.0626 13.8977 53.7148C17.2999 55.3365 20.7384 56.4245 24.5574 55.7679C24.9259 55.7481 25.2953 55.7817 25.6542 55.8677C25.3607 56.1211 25.0956 56.5479 24.764 56.6064C22.9718 56.9216 21.1636 57.1587 19.3571 57.3849C19.0675 57.4094 18.7786 57.3308 18.5413 57.1631C16.971 55.9774 15.2677 56.1059 13.4759 56.4886C11.9393 56.8136 11.3424 56.3237 11.0322 54.5444M33.7886 28.8157C34.0129 28.1199 34.0263 27.1573 34.5049 26.7811C36.4154 25.2812 38.454 23.9379 40.4798 22.5993C40.8629 22.3491 41.4478 22.4118 41.9399 22.3297C41.6852 22.7997 41.4348 23.2696 41.1796 23.7267C41.1427 23.7892 41.0411 23.8127 40.9751 23.8567C39.0473 25.0725 37.3758 26.6535 36.0546 28.5108C35.2142 29.6949 34.569 31.022 33.6925 32.177C32.317 34.0295 30.8426 35.8072 29.3974 37.6079C29.2478 37.7459 29.0787 37.8611 28.8956 37.95C28.8275 37.7104 28.6306 37.4103 28.7072 37.2459C29.1031 36.4738 29.4615 35.6332 30.0423 35.0197C31.3405 33.6545 32.5034 32.2312 33.1637 30.4431C33.3454 29.9475 33.5803 29.4716 33.7836 28.7984M9.08102 37.5911C8.76325 37.4397 8.44547 37.2882 8.13189 37.1322C8.51165 36.9082 8.87352 36.5584 9.28107 36.4905C9.82745 36.4551 10.3761 36.4876 10.9145 36.5872C13.8856 36.8641 16.9071 36.8052 19.7579 37.9287C21.1534 38.4775 22.5877 38.9571 23.9622 39.5285C24.268 39.652 24.4523 40.0791 24.6924 40.3688C24.3495 40.3954 24.0053 40.4035 23.6614 40.393C22.8296 40.3201 21.9896 40.2606 21.1722 40.1086C19.8034 39.8578 18.332 39.7766 17.112 39.1928C14.6008 37.993 12.0048 37.5425 9.08764 37.5931M18.0668 52.5714C19.6353 52.5113 21.2541 52.6828 22.748 52.3268C24.2419 51.9707 25.8072 52.1683 26.5881 53.4758C26.604 53.5908 26.5905 53.708 26.5489 53.8164C26.5072 53.9248 26.4388 54.0209 26.35 54.0957C22.463 55.3113 18.786 54.1495 15.1153 53.0355C14.8702 52.9598 14.7103 52.6016 14.514 52.3735C14.7834 52.2868 15.0707 52.0991 15.3272 52.1308C16.1842 52.2354 17.0334 52.4211 18.0689 52.5691M10.3201 50.6447C10.9401 50.8827 11.5535 51.0643 12.1402 51.343C12.2979 51.4176 12.3324 51.7479 12.4144 51.9542C12.235 52.0164 12.0475 52.0523 11.8578 52.0606C9.65057 51.8484 7.44212 51.6238 5.23248 51.3869C4.91441 51.3017 4.60985 51.1724 4.32765 51.0027C4.58116 50.729 4.8031 50.3714 5.12035 50.224C6.80705 49.433 8.45516 49.7997 10.2957 50.6347M85.8036 84.3931C85.6104 84.2478 85.4193 84.1002 85.2261 83.9549L85.8871 83.2686C85.9426 83.645 85.9141 84.029 85.8036 84.3931Z" fill="#425742"/>
</svg>
