<svg width="369" height="508" viewBox="0 0 369 508" fill="none" xmlns="http://www.w3.org/2000/svg">
<path d="M241.664 37.7317C244.225 27.1247 246.642 16.9777 249.172 6.85432C249.562 5.27245 250.025 3.28436 251.201 2.43673C252.596 1.38429 255.112 0.589273 256.647 1.11557C257.95 1.57056 259.407 4.09719 259.315 5.60462C258.724 16.1223 257.585 26.6166 256.935 37.1335C256.309 47.0857 256.193 57.0761 255.598 67.0464C255.326 71.5468 254.311 75.8917 253.915 80.3663C252.962 90.5349 252.329 100.748 251.48 110.926C251.176 114.623 250.803 118.316 250.171 121.955C248.125 133.752 246.169 145.568 243.74 157.285C241.746 166.814 239.209 176.241 236.855 185.694C235.146 192.515 233.256 199.297 231.601 206.14C228.594 218.545 226.296 231.155 222.636 243.366C218.211 258.106 212.864 272.596 207.524 287.053C204.885 294.589 201.644 301.906 197.832 308.94C193.31 316.96 186.927 323.543 177.751 326.966C176.794 327.426 176.06 328.226 175.696 329.202C172.994 336.84 170.412 344.514 167.82 352.186C167.555 352.769 167.422 353.402 167.431 354.042C167.626 355.06 167.886 356.066 168.211 357.053C168.896 356.505 169.541 355.914 170.145 355.282C173.28 351.529 176.009 347.303 179.666 344.092C185.163 339.272 190.881 334.408 197.294 330.885C209.71 324.049 217.132 313.628 222.734 301.402C226.826 292.46 231.456 283.756 235.528 274.798C238.96 267.268 241.504 259.323 245.222 251.944C251.428 239.639 257.31 227.027 265.05 215.646C275.663 200.025 287.832 185.391 299.423 170.43C311.294 155.084 323.186 139.753 335.291 124.581C336.623 122.934 339.818 121.142 341.49 121.628C344.623 122.546 345.06 125.794 344.364 128.895C342.62 136.722 341.664 144.771 339.261 152.38C335.897 163.212 331.914 173.847 327.331 184.234C321.003 198.36 313.77 212.09 306.955 226.011C300.522 239.123 294.311 252.35 287.675 265.363C279.446 281.494 271.371 297.737 262.339 313.439C254.274 327.44 244.126 340.389 230.695 349.713C218.847 357.931 204.986 363.075 189.684 360.396C186.658 359.866 184.084 356.946 181.183 355.313C180.128 354.739 178.129 354.184 177.592 354.676C171.66 360.168 163.872 364.087 162.357 373.294C161.203 380.208 158.969 386.953 157.181 393.756C155.758 399.155 154.21 404.528 152.841 410.006C152.793 411.039 152.93 412.074 153.246 413.065C154.155 412.708 155.286 412.58 155.921 411.961C160.62 407.476 165.584 403.182 169.676 398.228C171.514 396.015 171.232 392.253 172.488 389.451C175.621 382.508 181.44 377.835 187.497 373.372C197.205 366.288 208.918 363.658 219.702 358.954C232.144 353.514 244.829 348.147 256.181 340.953C266.947 334.091 276.297 325.121 285.925 316.734C305.783 299.55 321.966 278.987 340.054 260.214C346.459 253.579 353.153 247.255 359.857 240.933C361.529 239.346 363.974 237.545 366.168 239.861C367.967 241.764 369.207 243.813 367.084 247.106C357.562 261.895 348.768 277.134 339.358 292.004C326.628 312.127 314.278 332.454 300.381 351.752C294.222 360.296 285.256 367.261 276.511 373.565C264.397 382.321 251.413 389.96 238.549 397.75C228.933 403.554 218.143 406.548 207.173 409.277C199.621 411.114 192.25 413.207 184.471 411.077C181.276 410.026 178.295 408.426 175.672 406.353C172.819 404.264 170.774 404.268 168.383 406.822C162.729 412.839 156.898 418.694 151.214 424.682C150.566 425.533 150.151 426.532 150.008 427.586C147.758 438.338 145.442 449.064 143.26 459.83C143.19 461.167 143.304 462.509 143.6 463.82C144.846 463.478 146.08 463.2 147.338 462.803C151.014 461.838 154.624 460.657 158.148 459.266C160.185 458.347 162.814 456.619 163.27 454.778C166.955 440.088 178.229 432.649 191.203 427.366C208.324 420.398 225.964 414.656 243.098 407.737C252.084 404.103 260.591 399.275 269.142 394.685C277.693 390.094 286.69 385.505 294.783 379.964C305.606 372.545 315.718 364.145 326.241 356.309C327.758 355.18 329.922 354.892 331.791 354.212C332.499 356.445 334.186 358.827 333.912 360.923C332.437 371.734 325.727 379.991 319.296 388.375C308.865 402.095 296.965 414.693 283.794 425.961C280.731 428.439 277.526 430.747 274.193 432.873C265.981 438.423 257.807 444.073 249.387 449.329C233.396 459.364 215.347 465.946 196.443 468.636C188.408 469.982 180.193 470.111 172.087 469.019C169 468.555 166.094 466.83 163.011 466.345C160.44 465.866 157.794 466.03 155.321 466.82C151.1 468.513 147.026 470.525 143.134 472.838C142.563 473.205 142.075 473.682 141.699 474.24C141.324 474.798 141.07 475.425 140.951 476.084C140.067 484.296 139.39 492.528 138.737 500.754C138.469 504.002 137.288 507.287 133.971 507.413C132.149 507.476 129.381 504.698 128.398 502.601C125.286 495.968 126.003 488.838 126.58 481.815C126.822 478.915 127.311 476.021 127.342 473.122C127.389 469.133 122.189 465.629 119.058 467.788C111.633 472.945 103.693 470.463 97.0031 467.73C85.3792 462.916 74.5015 456.333 63.4581 450.205C60.8185 448.644 58.5315 446.576 56.7398 444.128C44.3653 427.74 31.7154 411.546 20.088 394.678C5.02108 372.964 -3.49006 348.841 -6.1499 322.865C-7.33766 311.36 -8.23242 299.802 -8.89746 288.27C-8.89153 285.545 -8.32859 282.855 -7.24133 280.356C-6.96041 279.419 -6.4042 278.585 -5.64048 277.956C-4.87676 277.327 -3.93851 276.929 -2.94008 276.812C-1.94164 276.695 -0.926129 276.863 -0.0172958 277.297C0.891537 277.73 1.65446 278.409 2.17848 279.251C4.71565 282.961 6.16267 287.388 8.74047 291.072C17.6136 303.753 26.8817 316.174 35.7819 328.838C42.4005 338.198 48.9084 347.695 55.035 357.386C60.6246 365.93 65.7187 374.767 70.2932 383.856C73.6635 390.827 75.4525 398.505 77.9567 405.854C80.7334 413.977 87.2584 419.125 93.6298 424.39C101.806 431.136 110.585 437.303 117.959 444.794C121.904 448.798 123.404 455.048 126.095 460.271C126.848 461.54 127.688 462.759 128.609 463.919C129.202 462.735 129.692 461.504 130.073 460.238C132.844 446.997 135.615 433.757 138.442 420.528C139.056 417.592 140.282 415.217 138.485 411.73C135.056 405.099 129.476 406.324 124.027 406.426C111.433 406.582 101.244 401.088 93.6354 392.022C85.0437 381.759 77.581 370.592 69.8494 359.7C59.2755 344.647 54.6236 327.46 50.7835 309.988C48.6488 300.313 45.403 290.781 44.1291 281.035C42.3692 267.94 41.637 254.707 41.0961 241.514C40.6818 231.31 41.2454 221.037 41.3876 210.813C41.4669 210.181 41.5975 209.557 41.7782 208.946C43.8069 197.624 45.9909 186.346 47.8034 174.99C48.6266 169.99 48.2134 164.833 49.2368 159.943C49.8033 157.236 50.3369 153.451 54.6632 153.103C58.9896 152.756 60.4787 155.072 61.4911 158.657C66.8253 177.524 72.4211 196.264 77.6942 215.198C81.8194 229.904 84.6367 245.021 89.8398 259.349C97.3944 280.071 98.9555 301.92 104.488 322.925C106.643 331.157 111.262 337.946 116.647 344.61C127.233 357.695 136.006 371.585 136.185 389.203C136.228 393.826 139.571 398.456 141.511 403.055C141.674 403.454 142.831 403.935 143.016 403.78C143.534 403.319 143.897 402.717 144.06 402.05C146.043 394.707 148.207 387.4 149.852 379.986C150.748 375.707 152.918 371.513 150.794 366.784C149.301 363.203 148.22 359.477 147.573 355.674C146.396 349.674 143.725 344.922 137.452 342.835C131.18 340.747 126.884 336.065 122.856 331.337C114.71 321.748 107.206 311.622 105.213 299.025C104.107 291.957 103.364 284.67 104.16 277.67C105.437 265.951 108.698 254.465 110.034 242.748C110.913 234.956 110.139 226.921 109.691 219.012C108.62 199.874 106.958 180.75 106.254 161.599C105.951 153.56 107.666 145.476 108.079 137.382C108.64 126.391 108.74 115.36 109.233 104.355C109.485 98.5512 109.992 92.7557 110.669 86.9955C111.709 78.0983 113.014 69.1656 114.22 60.2577C114.267 59.7827 114.365 59.3143 114.513 58.8605C115.632 55.9274 116.461 51.7373 120.496 52.7297C122.596 53.249 124.91 57.0715 125.301 59.5802C126.962 70.3983 127.556 81.3693 129.276 92.1882C131.125 103.843 133.822 115.38 136.098 126.965C137.672 134.939 139.641 142.882 140.579 150.917C141.599 159.63 141.883 168.44 142.125 177.218C142.489 194.737 142.502 212.252 142.785 229.765C142.916 238.908 143.487 247.971 143.519 257.081C143.551 266.191 144.536 275.409 147.924 284.208C151.83 294.345 151.17 305.019 151.381 315.523C151.536 323.371 150.856 331.227 150.588 339.078C150.653 339.814 150.821 340.539 151.088 341.233C152.426 346.071 153.748 350.984 155.158 355.814C155.598 356.814 156.181 357.749 156.891 358.592C157.249 357.779 157.662 356.988 157.955 356.149C161.369 346.347 164.794 336.548 168.087 326.709C168.367 325.535 168.277 324.302 167.829 323.169C164.076 312.13 161.773 300.847 163.924 289.22C167.025 272.437 170.002 255.628 173.529 238.945C175.171 231.097 177.939 223.485 180.289 215.796C184.313 203.009 189.336 190.55 195.314 178.528C199.5 170.038 203.001 161.223 206.552 152.453C211.031 141.381 215.339 130.229 219.568 119.06C220.879 115.427 221.998 111.729 222.921 107.98C226.554 94.0433 230.041 80.0755 233.729 66.161C236.211 56.8253 238.937 47.5631 241.653 37.7862M73.3259 238.654C71.284 231.961 69.0053 225.331 67.2586 218.574C64.3514 207.256 61.7914 195.851 59.033 184.495C58.7102 183.616 58.3015 182.767 57.8126 181.961C57.2042 182.791 56.1972 183.56 56.109 184.487C55.4442 188.45 55.1217 192.461 54.5245 196.438C53.4681 203.395 51.6257 210.289 51.3352 217.293C50.7869 228.503 51.4098 239.787 51.1138 251.028C50.8108 266.745 52.6593 282.457 56.6108 297.752C60.0158 311.407 63.1318 325.321 68.298 338.366C75.0788 355.542 87.7876 369.265 100.303 382.901C106.896 390.08 114.338 395.17 124.767 394.857C127.604 394.778 128.18 394.158 127.958 391.4C126.582 374.341 117.154 360.884 106.625 348.198C98.7335 338.976 93.3252 328.003 90.8963 316.286C88.3447 303.55 86.1988 290.728 83.3789 278.038C80.4091 264.997 76.9409 252.149 73.3259 238.654ZM228.833 305.834C228.335 306.386 227.878 306.972 227.467 307.588C224.397 312.995 221.81 318.731 218.206 323.765C212.457 331.813 204.032 337.091 195.621 342.247C193.005 343.853 190.378 345.457 187.861 347.209C187.261 347.867 186.797 348.632 186.496 349.464C187.212 349.961 188.006 350.343 188.845 350.593C190.7 350.772 192.563 350.85 194.424 350.827C204.962 351.004 215.256 350.048 223.895 343.744C235.849 335.161 245.879 324.312 253.391 311.839C264.293 293.431 273.242 273.918 282.743 254.737C289.561 240.965 295.889 226.954 302.465 213.051C307.311 202.809 312.31 192.621 317.037 182.331C320.476 174.824 323.602 167.184 326.859 159.594C328.864 154.898 330.975 150.202 332.746 145.445C333.225 144.167 332.68 142.503 332.603 141.017C331.486 141.809 330.063 142.377 329.316 143.417C325.342 148.932 321.849 154.786 317.601 160.095C305.9 174.85 294.546 189.917 281.881 203.89C269.855 217.165 261.548 232.38 254.032 248.193C250.088 256.483 247.238 265.274 243.517 273.679C238.873 284.191 233.842 294.532 228.781 305.914M245.876 55.7831C245.857 54.6397 245.827 53.494 245.808 52.3507C245.127 53.168 244.547 54.0595 244.077 55.0076C242.933 58.0229 241.953 61.0959 241.139 64.2141C237.677 78.791 234.382 93.4142 230.909 107.989C229.91 112.2 228.684 116.376 227.287 120.47C223.214 132.446 219.041 144.391 214.77 156.303C211.861 164.593 208.804 172.851 205.555 181.024C200.937 192.59 195.407 203.966 191.474 215.744C187.379 228.012 184.378 240.669 181.523 253.299C179.053 263.863 177.169 274.555 175.877 285.33C174.812 294.745 174.971 304.315 174.91 313.816C174.903 315.421 175.79 317.748 178.849 315.654C186.862 310.21 191.207 302.529 195.267 294.024C202.154 279.64 207.007 264.648 211.327 249.453C214.035 239.937 216.165 230.265 218.416 220.63C222.205 204.436 225.971 188.236 229.589 172.017C232.072 160.881 234.544 149.743 236.595 138.539C238.715 126.724 240.576 114.854 242.023 102.943C243.334 92.1885 243.924 81.3401 244.888 70.5016C245.305 65.758 245.848 61.0295 245.946 55.7294M21.5878 380.043C22.7587 382.425 24.0667 384.741 25.5057 386.981C36.2198 401.813 47.2499 416.484 57.8691 431.432C61.4947 436.566 65.1031 441.446 70.909 444.415C73.3271 445.662 75.5392 447.276 77.9211 448.583C89.1874 454.769 100.228 461.136 114.07 460.067C119.457 459.645 117.618 457.768 116.413 455.385C112.356 447.37 104.465 443.189 97.7426 437.92C88.8236 430.96 78.638 425.001 72.9648 415.109C68.6308 407.279 65.2377 398.999 62.8535 390.434C59.69 379.723 52.5914 371.196 47.2277 361.79C43.5518 355.324 38.5425 349.559 34.1943 343.442C29.3072 336.7 24.4766 329.913 19.8016 323.055C14.6442 315.527 9.64929 307.897 4.58441 300.32C3.88453 299.285 3.08529 298.331 2.32896 297.341C1.84944 298.79 0.919305 300.259 1.02124 301.625C1.19933 304.704 2.18401 307.747 2.35084 310.824C3.67563 334.887 10.2445 358.465 21.6218 379.993M267.077 370.862C283.866 360.43 296.501 345.984 307.135 329.98C320.206 310.304 332.461 290.093 344.972 270.062C345.948 268.488 346.179 266.486 346.756 264.681C345.117 265.734 343.59 266.94 342.195 268.284C325.731 287.272 310.123 306.998 290.632 323.325C278.697 333.36 267.964 344.785 253.611 351.717C237.421 359.517 220.822 366.571 204.683 374.518C194.626 379.455 184.464 384.609 179.312 395.414C178.22 397.715 178.403 399.086 180.722 399.571C186.35 400.749 192.17 402.981 197.578 402.347C212.332 400.627 226.48 396.467 239.101 388.546C248.257 382.806 257.366 377.01 267.075 370.873M131.289 329.331C134.017 331.736 136.788 334.105 139.48 336.571C142.171 339.037 142.729 337.103 143.111 335.052C143.1 334.025 143.005 332.999 142.825 331.984C142.828 320.74 143.451 309.454 142.598 298.258C142.01 290.399 138.691 282.731 137.791 274.852C135.96 258.951 134.778 242.981 133.633 227.007C132.955 217.5 132.674 207.95 132.566 198.414C132.436 187.301 132.624 176.186 132.809 165.082C133 154.458 129.866 144.334 128.035 133.993C125.297 118.609 123.658 102.976 121.488 87.4594C121.253 86.5086 120.91 85.5848 120.466 84.7049C119.838 85.519 118.709 86.3082 118.648 87.1614C118.298 91.976 118.131 96.8174 118.061 101.645C117.931 110.801 118.161 119.975 117.763 129.12C117.401 137.362 115.492 145.587 115.867 153.789C116.777 174.089 118.685 194.393 119.967 214.656C120.574 224.331 121.618 234.109 120.847 243.689C119.858 256.106 116.656 268.322 115.563 280.728C114.961 288.278 115.544 295.888 117.291 303.296C119.474 312.742 125.159 320.893 131.334 329.34M273.127 399.506C269.67 401.426 266.141 403.24 262.747 405.309C242.687 417.45 220.901 425.879 198.789 433.784C187.029 437.988 176.873 444.408 170.207 455.318C168.618 457.913 169.26 458.777 171.374 459.117C176.345 460.073 181.39 460.587 186.445 460.653C191.288 460.463 196.084 459.723 200.737 458.448C209.966 456.062 219.728 454.447 228.089 450.318C241.834 443.533 254.753 435.196 267.778 427.087C273.386 423.419 278.66 419.294 283.542 414.754C299.141 400.942 312.881 385.27 324.443 368.101C324.995 367.003 325.404 365.841 325.661 364.642C324.335 365.016 323.068 365.559 321.892 366.257C312.786 373.272 303.985 380.739 294.64 387.385C288.174 392.003 280.964 395.632 273.127 399.506Z" fill="#D6A66B"/>
</svg>
