<svg class="about-hero__svg2" viewBox="0 0 303 452" fill="none" xmlns="http://www.w3.org/2000/svg">
                    <path
                        d="M163.339 33.8994C163.619 24.4459 163.861 15.408 164.199 6.37019C164.247 4.95893 164.286 3.19003 165.108 2.26207C166.074 1.12147 168.008 0.00019531 169.361 0.174186C170.511 0.328845 172.145 2.21374 172.328 3.50901C173.653 12.5372 174.523 21.6427 175.799 30.6806C176.997 39.2351 178.621 47.7317 179.849 56.2959C180.4 60.1623 180.313 64.0288 180.757 67.8953C181.724 76.6915 182.961 85.4683 184.015 94.2549C184.401 97.4447 184.73 100.644 184.836 103.844C185.184 114.215 185.61 124.587 185.629 134.959C185.629 143.398 185.165 151.846 184.856 160.284C184.624 166.374 184.237 172.464 184.053 178.563C183.715 189.621 183.995 200.728 183.087 211.737C181.985 225.028 180.081 238.271 178.176 251.485C177.303 258.346 175.897 265.13 173.972 271.774C171.632 279.381 167.515 286.099 160.555 290.632C159.848 291.192 159.381 292.002 159.25 292.894C158.341 299.854 157.539 306.823 156.727 313.793C156.609 314.334 156.609 314.894 156.727 315.436C157.063 316.265 157.45 317.072 157.887 317.852C158.356 317.266 158.785 316.649 159.173 316.006C161.106 312.265 162.624 308.196 165.079 304.822C168.771 299.757 172.638 294.615 177.306 290.487C186.344 282.484 190.655 272.325 193.159 260.957C194.986 252.644 197.296 244.438 199.104 236.115C200.631 229.117 201.356 221.925 203.144 215.004C206.131 203.463 208.799 191.719 213.207 180.69C219.248 165.552 226.739 150.976 233.699 136.225C240.823 121.098 247.966 105.98 255.312 90.9587C256.124 89.3251 258.444 87.2372 259.904 87.3532C262.639 87.5755 263.558 90.2531 263.519 93.0079C263.432 99.9579 264.031 106.956 263.364 113.838C262.461 123.626 261.016 133.355 259.034 142.982C256.26 156.089 252.673 169.023 249.464 182.043C246.429 194.309 243.597 206.634 240.378 218.852C236.386 233.998 232.539 249.213 227.812 264.137C223.588 277.448 217.469 290.236 208.025 300.531C199.693 309.607 189.176 316.431 176.127 316.876C173.546 316.963 170.927 314.943 168.259 314.073C167.292 313.773 165.552 313.657 165.195 314.169C161.261 319.882 155.529 324.59 155.867 332.671C156.109 338.741 155.432 344.86 155.132 350.949C154.891 355.782 154.543 360.615 154.359 365.506C154.498 366.391 154.789 367.244 155.219 368.029C155.906 367.565 156.814 367.256 157.23 366.618C160.323 361.978 163.668 357.455 166.181 352.525C167.312 350.321 166.432 347.179 166.983 344.579C168.365 338.132 172.348 333.134 176.562 328.272C183.328 320.539 192.511 316.228 200.573 310.322C209.872 303.498 219.383 296.693 227.483 288.574C235.158 280.841 241.306 271.571 247.782 262.746C261.16 244.641 270.933 224.323 282.581 205.184C286.708 198.417 291.125 191.864 295.553 185.31C296.654 183.667 298.356 181.705 300.56 183.28C302.367 184.575 303.74 186.093 302.56 189.263C297.273 203.502 292.662 217.991 287.481 232.278C280.473 251.61 273.813 271.049 265.703 289.888C262.108 298.23 255.931 305.731 249.822 312.633C241.364 322.212 231.998 330.998 222.757 339.891C215.845 346.522 207.484 350.978 198.93 355.241C193.033 358.141 187.33 361.224 180.564 360.799C177.755 360.475 175.027 359.646 172.512 358.353C169.806 357.087 168.124 357.455 166.596 360.045C162.981 366.154 159.192 372.157 155.548 378.246C155.161 379.083 154.991 380.004 155.055 380.924C155.055 390.445 154.997 399.957 155.055 409.478C155.228 410.624 155.553 411.743 156.022 412.803C156.988 412.291 157.955 411.836 158.921 411.276C161.78 409.805 164.546 408.161 167.205 406.356C168.723 405.215 170.588 403.282 170.646 401.639C171.149 388.522 179.143 380.209 188.906 373.423C201.791 364.472 215.314 356.469 228.218 347.556C234.984 342.878 241.151 337.272 247.396 331.859C253.64 326.446 260.252 320.955 265.955 314.817C273.581 306.601 280.454 297.679 287.762 289.163C288.815 287.936 290.545 287.307 291.966 286.399C292.933 288.168 294.731 289.888 294.866 291.715C295.514 301.149 291.415 309.346 287.568 317.601C281.349 331.093 273.729 343.894 264.833 355.792C262.741 358.438 260.501 360.965 258.125 363.361C252.325 369.528 246.574 375.772 240.552 381.726C229.125 393.079 215.41 401.867 200.322 407.506C193.944 410.074 187.208 411.643 180.351 412.155C177.732 412.31 175.045 411.363 172.425 411.498C170.227 411.549 168.078 412.157 166.181 413.267C163 415.453 159.994 417.883 157.191 420.536C156.784 420.949 156.465 421.441 156.252 421.98C156.04 422.52 155.938 423.097 155.954 423.677C156.64 430.801 157.501 437.906 158.38 445.001C158.718 447.804 158.312 450.801 155.606 451.497C154.117 451.874 151.362 450.008 150.193 448.403C146.491 443.329 145.853 437.152 145.118 431.091C144.818 428.588 144.722 426.046 144.248 423.581C143.601 420.188 138.719 418.139 136.515 420.526C131.296 426.22 124.336 425.524 118.362 424.393C107.971 422.372 97.8893 418.719 87.7495 415.48C85.3095 414.625 83.0719 413.276 81.1766 411.517C68.1756 399.812 54.9813 388.319 42.512 376.072C26.3791 360.325 15.2244 341.37 8.56442 319.805C5.60658 310.255 2.88072 300.608 0.348191 290.942C-0.116064 288.629 -0.116064 286.247 0.348191 283.934C0.417999 283.089 0.732011 282.283 1.25196 281.613C1.77191 280.944 2.47534 280.44 3.27654 280.164C4.07773 279.887 4.94209 279.849 5.76428 280.056C6.58648 280.262 7.331 280.702 7.90712 281.324C10.633 284.021 12.5855 287.52 15.3404 290.188C24.8229 299.371 34.5857 308.263 44.0875 317.427C51.1438 324.193 58.1325 331.095 64.8408 338.229C70.9099 344.485 76.622 351.078 81.9499 357.977C85.9226 363.293 88.7162 369.489 92.0413 375.279C95.7241 381.678 101.978 384.887 108.126 388.222C116.013 392.494 124.297 396.167 131.653 401.213C135.587 403.91 137.898 408.946 141.01 412.9C141.848 413.842 142.749 414.727 143.707 415.548C143.991 414.438 144.181 413.307 144.277 412.165C144.277 400.44 144.277 388.715 144.326 376.99C144.326 374.39 144.925 372.157 142.847 369.518C138.883 364.501 134.505 366.531 130.039 367.585C119.706 369.953 110.378 367.101 102.558 360.76C93.7232 353.578 85.6617 345.43 77.4261 337.562C66.136 326.668 59.3504 312.913 53.1834 298.771C49.7616 290.942 45.4505 283.431 42.7246 275.389C39.0225 264.592 36.142 253.495 33.4258 242.398C31.3282 233.815 30.0233 224.999 28.38 216.3C28.3365 215.75 28.3365 215.197 28.38 214.647C28.0997 204.681 27.9547 194.725 27.4907 184.769C27.3071 180.38 26.0795 176.079 26.0795 171.748C26.0795 169.351 25.8668 166.045 29.366 164.982C32.8651 163.919 34.489 165.62 35.939 168.481C43.5752 183.541 51.4048 198.446 59.0024 213.574C64.9278 225.318 69.8478 237.643 76.5948 248.875C86.377 265.114 91.4227 283.373 99.5906 300.212C102.78 306.814 107.749 311.753 113.326 316.451C124.288 325.672 133.896 335.899 137.076 350.814C137.907 354.729 141.455 358.064 143.842 361.621C144.045 361.93 145.079 362.133 145.205 361.969C145.551 361.485 145.747 360.91 145.766 360.316C146.133 353.733 146.655 347.15 146.732 340.568C146.732 336.779 147.796 332.835 145.234 329.2C143.389 326.428 141.859 323.458 140.672 320.346C138.671 315.465 135.655 311.908 130.136 311.25C124.616 310.593 120.276 307.384 116.149 304.088C107.797 297.399 99.8806 290.139 96.0721 279.806C93.9456 274.007 92.08 267.956 91.529 261.876C90.5624 251.707 91.268 241.383 90.3497 231.205C89.7311 224.439 87.7109 217.759 85.9806 211.128C81.8049 195.082 77.1458 179.153 73.2697 163.03C71.6361 156.263 71.6554 149.101 70.6018 142.16C69.1712 132.736 67.354 123.36 65.8654 113.935C65.0728 108.967 64.4928 103.96 64.0578 98.9526C63.3812 91.2197 62.9172 83.4094 62.3759 75.6378C62.3324 75.2266 62.3324 74.8118 62.3759 74.4006C62.7915 71.7134 62.7529 68.0112 66.2424 68.1369C68.0596 68.2046 70.6211 71.0368 71.3751 73.0956C74.6036 81.9788 76.9815 91.181 80.2583 100.055C83.7864 109.614 87.9912 118.923 91.8577 128.347C94.5255 134.833 97.5124 141.223 99.6679 147.873C102.007 155.084 103.757 162.508 105.468 169.912C108.783 184.711 111.809 199.568 115.056 214.376C116.738 222.109 118.768 229.697 120.363 237.42C121.958 245.143 124.355 252.789 128.657 259.652C133.615 267.559 134.911 276.732 136.892 285.606C138.371 292.237 139.164 299.023 140.295 305.731C140.475 306.344 140.738 306.929 141.078 307.471C143.011 311.337 144.944 315.271 146.935 319.119C147.47 319.889 148.111 320.579 148.84 321.168C148.994 320.414 149.197 319.67 149.294 318.906C150.415 309.984 151.546 301.062 152.561 292.131C152.589 291.085 152.303 290.054 151.739 289.173C146.752 280.473 142.914 271.31 142.682 261.064C142.344 246.274 141.899 231.485 141.928 216.706C141.928 209.756 142.895 202.806 143.504 195.865C144.613 184.303 146.6 172.841 149.449 161.58C151.43 153.634 152.793 145.534 154.204 137.463C155.983 127.274 157.607 117.048 159.163 106.821C159.616 103.506 159.9 100.17 160.014 96.826C160.603 84.3567 161.067 71.8874 161.705 59.4277C162.14 51.0665 162.788 42.7246 163.339 33.9477M59.4471 234.25C56.6149 228.933 53.599 223.714 50.9988 218.291C46.6587 209.205 42.5893 199.983 38.3652 190.839C37.9482 190.15 37.4659 189.503 36.9249 188.906C36.5673 189.718 35.8713 190.549 35.9583 191.351C36.0936 194.831 36.5189 198.292 36.7123 201.771C37.0409 207.861 36.7123 214.038 37.6789 220.031C39.1578 229.639 41.613 239.102 43.3046 248.691C45.7612 262.079 49.9869 275.081 55.8706 287.356C61.0226 298.336 65.9814 309.588 72.477 319.737C81.0122 333.105 93.8296 342.491 106.473 351.838C113.133 356.759 120.131 359.755 128.657 357.638C130.977 357.068 131.344 356.44 130.687 354.139C126.617 339.91 116.545 330.167 105.7 321.274C97.6196 314.851 91.2815 306.502 87.2662 296.993C82.9745 286.64 79.0017 276.143 74.4972 265.877C69.8092 255.341 64.7441 245.056 59.4471 234.25ZM198.939 263.635C198.625 264.191 198.35 264.77 198.118 265.365C196.523 270.498 195.382 275.824 193.285 280.734C189.94 288.583 183.918 294.557 177.886 300.424C176.011 302.251 174.126 304.078 172.357 306.011C171.977 306.676 171.727 307.408 171.623 308.167C172.297 308.462 173.016 308.645 173.749 308.708C175.306 308.53 176.852 308.266 178.379 307.915C187.079 306.195 195.382 303.556 201.404 296.674C209.76 287.27 216.143 276.285 220.176 264.369C225.976 246.816 229.977 228.672 234.491 210.713C237.73 197.818 240.523 184.807 243.539 171.845C245.762 162.295 248.121 152.764 250.238 143.195C251.775 136.216 253.031 129.179 254.404 122.161C255.245 117.821 256.173 113.461 256.811 109.112C256.985 107.942 256.25 106.628 255.931 105.381C255.148 106.251 254.075 106.985 253.64 108C251.32 113.384 249.455 118.971 246.874 124.23C239.788 138.825 233.042 153.624 225.028 167.727C217.421 181.125 213.207 195.508 209.746 210.258C207.929 217.991 207.098 225.956 205.483 233.747C203.473 243.491 201.114 253.157 198.91 263.712M169.912 48.4663C169.699 47.4997 169.477 46.5331 169.264 45.5664C168.845 46.3807 168.521 47.2401 168.298 48.128C167.876 50.8891 167.599 53.6702 167.466 56.4602C167.128 69.4418 166.935 82.4332 166.587 95.4148C166.49 99.1653 166.2 102.925 165.755 106.647C164.467 117.531 163.091 128.405 161.628 139.27C160.661 146.819 159.569 154.369 158.303 161.879C156.495 172.512 153.905 183.145 152.696 193.836C151.44 204.971 151.15 216.242 150.976 227.464C150.763 236.865 151.053 246.271 151.846 255.641C152.59 263.819 154.369 271.909 155.954 279.98C156.225 281.343 157.355 283.16 159.511 280.841C165.166 274.799 167.418 267.511 169.293 259.575C172.483 246.149 173.894 232.568 174.832 218.91C175.422 210.355 175.509 201.771 175.702 193.198C176.031 178.785 176.34 164.373 176.523 149.971C176.649 140.082 176.765 130.194 176.523 120.324C176.234 109.924 175.721 99.5229 174.861 89.1608C174.088 79.804 172.705 70.4954 171.632 61.1289C171.159 57.0305 170.791 52.9224 169.96 48.4083M41.2264 363.39C42.5995 365.202 44.0743 366.935 45.6438 368.58C57.0112 379.261 68.6106 389.749 79.92 400.546C83.7864 404.258 87.5949 407.757 92.8823 409.246C95.0862 409.874 97.1837 410.85 99.3683 411.537C109.701 414.784 119.88 418.226 131.083 414.862C135.442 413.547 133.606 412.281 132.204 410.473C127.487 404.393 120.276 402.247 113.838 398.971C105.303 394.65 95.8981 391.402 89.5281 384.017C84.6148 378.144 80.398 371.721 76.9621 364.878C72.5157 356.353 65.2081 350.379 59.1764 343.352C55.0393 338.519 49.9259 334.517 45.2958 330.099C40.1147 325.247 34.9724 320.346 29.946 315.358C24.4072 309.887 18.9845 304.3 13.5135 298.771C12.7595 298.017 11.9379 297.35 11.1453 296.645C11.0003 297.959 10.488 299.371 10.807 300.511C11.4836 303.092 12.8175 305.499 13.4845 308.08C18.717 328.26 28.1799 347.097 41.2457 363.341M241.596 312.014C253.611 300.183 261.518 285.683 267.511 270.218C274.877 251.204 281.479 231.882 288.322 212.665C288.854 211.157 288.699 209.417 288.864 207.784C287.696 208.968 286.647 210.263 285.732 211.65C275.457 230.683 266.013 250.189 252.789 267.501C244.699 278.134 237.836 289.733 227.222 298.162C215.246 307.655 202.806 316.586 190.897 326.194C183.473 332.168 176.002 338.345 173.624 348.426C173.121 350.572 173.508 351.703 175.499 351.703C180.332 351.703 185.503 352.563 189.843 351.065C201.684 346.986 212.607 340.945 221.626 331.984C228.17 325.489 234.665 318.954 241.596 312.024M122.741 300.888C125.399 302.444 128.086 303.962 130.725 305.576C133.364 307.191 133.49 305.451 133.451 303.643C133.265 302.773 133.01 301.92 132.687 301.091C130.754 291.551 129.324 281.865 126.694 272.518C124.858 265.955 120.808 260.039 118.71 253.514C114.467 240.349 110.745 227.01 107.053 213.661C104.859 205.715 102.983 197.663 101.253 189.592C99.2329 180.187 97.4737 170.724 95.7145 161.27C94.0422 152.223 89.7214 144.19 86.435 135.742C81.5342 123.176 77.4938 110.204 73.0377 97.4253C72.6807 96.6604 72.2398 95.9374 71.7231 95.2698C71.3461 96.0721 70.5535 96.942 70.6501 97.6767C71.1914 101.823 71.8874 105.961 72.6607 110.069C74.1299 117.86 75.8988 125.602 77.1458 133.432C78.2671 140.488 78.1124 147.805 79.833 154.697C84.0764 171.758 89.1415 188.645 93.6846 205.609C95.8498 213.709 98.392 221.819 99.4069 230.084C100.731 240.794 100.2 251.726 101.437 262.446C102.241 268.958 104.03 275.311 106.744 281.285C110.165 288.912 116.245 294.818 122.78 300.888M251.504 335.242C248.991 337.484 246.4 339.649 243.964 342.008C229.552 355.869 213.081 366.889 196.252 377.521C187.301 383.176 180.052 390.426 176.446 400.865C175.586 403.349 176.262 403.968 178.06 403.881C182.314 403.81 186.553 403.35 190.723 402.508C194.674 401.487 198.492 400.008 202.1 398.101C209.282 394.437 217.034 391.334 223.201 386.347C233.341 378.15 242.534 368.783 251.852 359.591C255.834 355.483 259.462 351.047 262.697 346.329C273.151 331.841 281.756 316.106 288.313 299.487C288.577 298.457 288.714 297.399 288.719 296.335C287.692 296.888 286.743 297.574 285.896 298.375C279.613 305.944 273.659 313.841 267.115 321.139C262.591 326.204 257.284 330.563 251.504 335.242Z"
                        fill="#374937" />
                </svg>