<svg width="176" height="183" viewBox="0 0 176 183" fill="none" xmlns="http://www.w3.org/2000/svg">
<path d="M163.075 109.827C163.788 113.314 163.716 116.915 162.863 120.37C161.629 125.409 159.304 129.873 156.638 134.197C155.903 135.386 154.707 136.278 153.787 137.363C153.495 137.707 153.425 138.236 153.251 138.678C153.645 138.837 154.06 138.942 154.483 138.991C159.854 138.846 165.211 138.637 170.578 138.538C171.839 138.563 173.095 138.702 174.33 138.954C174.648 139.004 174.899 139.374 175.2 139.611C174.939 139.869 174.721 140.258 174.433 140.313C172.395 140.694 170.356 141.123 168.299 141.316C164.142 141.709 159.97 141.931 155.81 142.283C154.246 142.416 154.19 142.824 155.051 144.191C156.084 145.847 157.03 147.556 157.884 149.311C158.936 151.471 158.675 153.799 158.249 156.03C157.853 158.244 157.247 160.416 156.439 162.516C154.039 168.518 150.322 173.464 144.712 176.936C141.096 179.167 137.358 181.041 133.268 182.195C132.085 182.57 130.833 182.683 129.602 182.526C128.836 182.384 127.834 181.479 127.653 180.743C127.472 180.007 128.011 178.875 128.6 178.279C131.312 175.538 133.533 172.574 134.704 168.806C135.968 164.708 136.93 160.522 137.582 156.282C138.046 153.128 139.507 150.205 141.751 147.94C143.427 146.276 145.326 144.836 147.118 143.289C147.266 143.132 147.398 142.96 147.51 142.777C147.302 142.672 147.06 142.455 146.874 142.494C143.609 143.149 140.396 142.4 137.184 142.071C135.198 141.856 133.231 141.309 131.286 140.796C128.635 140.096 126 139.337 123.382 138.519C122.271 138.193 121.203 137.735 120.201 137.154C118.164 135.914 116.507 136.918 114.882 137.943C114.485 138.192 114.376 138.892 114.137 139.387C113.421 140.874 112.827 142.436 111.965 143.834C109.762 147.401 106.437 149.766 102.847 151.788C98.7355 154.106 94.4032 155.855 89.641 156.081C86.3735 156.279 83.0955 156.216 79.838 155.893C76.4001 155.494 72.9808 154.653 69.6128 153.825C67.2881 153.22 65.0039 152.468 62.7741 151.575C62.466 151.423 62.1967 151.203 61.9873 150.931C61.7778 150.659 61.6337 150.343 61.5662 150.006C61.5241 149.546 62.1838 148.833 62.7066 148.549C66.2748 146.625 69.0227 143.781 71.702 140.833C74.3814 137.885 77.1479 135.167 80.6554 133.279C84.1629 131.39 87.697 129.877 91.6716 129.304C96.4959 128.602 101.202 128.597 105.837 130.267C106.166 130.322 106.502 130.319 106.83 130.258C106.639 129.961 106.409 129.691 106.145 129.457C100.145 125.388 94.0559 121.435 88.1397 117.221C85.0469 115.018 82.2654 112.379 79.3625 109.913C77.2601 108.131 75.1785 106.328 73.1177 104.505C72.5308 103.99 72.0498 103.356 71.4895 102.812C71.2909 102.686 71.0692 102.6 70.8373 102.56C70.8047 102.765 70.7612 102.969 70.7441 103.175C70.1695 109.734 67.6214 115.331 62.3526 119.397C58.9012 122.061 54.7866 122.945 50.4726 122.797C47.1944 122.753 43.9405 122.226 40.8156 121.235C38.3659 120.399 35.8243 119.825 33.3451 119.057C32.4019 118.765 31.5256 118.315 31.4538 117.058C31.3913 115.929 32.0822 115.458 32.9226 115.162C35.7984 114.14 38.4127 112.7 40.4385 110.359C41.9742 108.594 43.2484 106.582 44.8993 104.944C47.2722 102.594 49.7369 100.285 52.8585 98.8888C55.7405 97.6059 58.7394 97.0466 61.8769 97.681C63.2901 97.9671 64.6893 98.3979 66.104 98.7275C66.3933 98.7553 66.685 98.7427 66.9708 98.69C66.9084 98.4181 66.8072 98.1566 66.6703 97.9135C62.2323 92.237 57.7756 86.5746 53.3547 80.8872C53.0512 80.4982 53.0433 79.8913 52.8004 79.4431C52.6042 79.1878 52.3644 78.9693 52.0922 78.7974C51.9242 79.0557 51.5974 79.3282 51.6161 79.5709C51.8111 81.7575 50.2613 83.0604 48.9604 84.262C46.1232 86.9415 42.5347 88.6896 38.6759 89.2721C33.3225 90.0979 28.4402 88.8989 24.2532 85.3514C21.095 82.6799 18.2091 79.6659 14.5592 77.6279C13.1277 76.8094 11.6438 76.086 10.1172 75.4624C7.29236 74.3424 4.41307 73.3625 1.56955 72.3265C0.159468 71.8085 -0.1396 70.4142 1.03053 69.4039C2.14847 68.3939 3.35809 67.4903 4.6437 66.7047C11.0513 62.9733 18.1419 60.5641 25.4965 59.6197C29.509 59.064 33.5971 59.6042 37.3276 61.1831C39.5735 62.1382 41.6327 63.6147 43.7868 64.8313C44.0787 64.9419 44.3847 65.011 44.6957 65.0366C44.6879 64.7798 44.7812 64.453 44.6567 64.2818C42.6361 61.5136 41.7469 58.2565 40.7347 55.0663C39.8393 52.2262 38.9973 51.6537 35.9702 51.2341C31.846 50.6668 27.9473 49.3836 24.8746 46.3697C21.6011 43.1503 18.6125 39.7037 16.6025 35.4897C14.8899 31.9106 14.3741 28.0776 13.9454 24.2259C13.3857 19.1183 12.9381 13.9967 11.0681 9.1212C10.1915 6.85075 9.32111 4.57564 8.57833 2.26315C8.40548 1.72938 8.56558 0.661743 8.90793 0.482707C9.55839 0.146429 10.5964 -0.031181 11.2158 0.262839C13.6641 1.43581 16.1575 2.61967 18.3677 4.17553C20.7841 5.92621 23.0552 7.86915 25.1588 9.9854C27.531 12.3147 29.7336 14.8432 31.9129 17.3407C34.7148 20.5383 37.0623 24.0535 38.389 28.1322C39.2916 30.8388 40.0495 33.5914 40.6596 36.3785C41.2578 39.2451 40.9144 42.1585 40.7468 45.0781C40.5933 47.8063 40.5533 50.6185 41.8969 53.2779C44.8456 59.1243 47.592 65.0718 50.4457 70.968C50.6662 71.3051 50.9277 71.6134 51.2241 71.8861C51.2847 71.4457 51.4978 70.957 51.381 70.5679C50.3875 67.2781 51.123 64.1172 51.734 60.8551C52.7337 55.492 55.6774 51.2755 58.9572 47.1803C59.7585 46.1764 60.5925 45.1926 61.3378 44.1451C62.8656 41.991 62.6379 39.5196 62.2904 37.1324C62.1455 36.1535 62.3244 35.422 63.0215 35.0157C63.8431 34.5393 64.7863 34.9017 65.3374 35.6206C67.1758 38.0372 68.8835 40.5285 69.8318 43.4728C70.8097 46.498 71.9853 49.4625 72.9445 52.4939C73.9037 55.5254 73.7004 58.571 73.1532 61.5732C72.6059 64.5754 71.7396 67.5153 70.9107 70.4506C69.7863 74.4754 66.9279 77.0889 63.4718 79.108C62.009 79.9643 60.5339 80.9933 58.5962 80.3555C57.8398 80.1098 57.3513 81.1573 57.9397 82.0038C58.9516 83.4587 60.1082 84.8187 61.2212 86.2035C65.2046 91.1704 68.8753 96.4051 73.5636 100.779C74.51 101.641 75.4408 102.534 76.4028 103.388C76.7934 103.735 77.2573 104.014 77.6666 104.316C77.6009 103.773 77.4989 103.236 77.3613 102.708C77.1059 101.935 76.7105 101.216 76.4645 100.424C75.281 96.8287 75.5682 93.2337 76.5449 89.6525C77.6196 85.7274 79.3853 82.1242 81.3642 78.5693C83.3042 75.0767 84.3929 71.2558 84.21 67.1535C84.1819 66.5092 84.5396 65.4664 84.9987 65.2718C85.6352 65.0025 86.6281 65.1719 87.3083 65.4924C89.576 66.5596 90.879 68.6774 92.0388 70.7081C93.8135 73.8203 95.4902 77.0353 96.6985 80.4013C98.0809 84.1035 98.2307 88.1531 97.1256 91.9473C96.5812 93.7682 96.2703 95.6669 95.6014 97.4334C94.1766 101.172 92.428 104.795 89.4482 107.55C88.538 108.399 87.1919 108.78 86.045 109.378C85.6716 109.58 85.3043 109.786 84.934 109.99C85.1768 110.376 85.3341 110.878 85.6718 111.137C90.9193 115.033 96.1849 118.903 101.469 122.747C101.716 122.929 102.13 122.887 102.468 122.95C102.446 122.67 102.392 122.393 102.304 122.126C101.177 119.672 101.17 117.015 101.417 114.474C101.733 111.266 102.227 107.981 103.305 104.967C104.543 101.517 106.5 98.3247 108.155 95.0282C109.062 93.2134 110.161 91.4748 110.876 89.5838C112.111 86.3885 113.154 83.1201 114.211 79.8595C114.669 78.4802 115.025 77.0689 115.275 75.6372C115.681 73.214 116.296 70.7907 115.526 68.3008C115.362 67.8446 115.384 67.3422 115.588 66.9024C115.792 66.4626 116.161 66.1207 116.615 65.9506C117.695 65.4945 118.477 65.9908 119.043 67.0085C121.393 71.2333 123.682 75.4971 126.173 79.6363C128.969 84.305 130.89 89.4454 131.839 94.8043C132.488 98.4163 132.741 102.176 131.744 105.845C131.13 108.109 130.664 110.436 129.802 112.604C128.391 116.111 126.127 119.21 123.214 121.621C120.964 123.515 118.636 125.332 116.296 127.111C115.445 127.755 114.424 128.171 113.484 128.697C113.164 128.879 112.856 129.083 112.541 129.276C112.854 129.616 113.102 130.07 113.488 130.278C114.775 130.99 116.097 131.635 117.45 132.212C120.409 133.438 123.323 134.847 126.387 135.721C132.6 137.496 138.868 139.154 145.412 139.23C146.112 139.238 146.806 139.476 147.51 139.54C147.699 139.557 147.908 139.326 148.11 139.21C148.003 139.043 147.923 138.805 147.782 138.723C141.609 135.163 139.519 129.411 139.801 122.775C139.947 119.113 140.847 115.436 141.79 111.869C142.35 109.752 143.496 107.73 144.666 105.848C146.479 102.938 146.452 99.9871 145.516 96.87C144.899 94.8112 144.304 92.7399 143.806 90.6468C143.666 90.0476 143.675 89.1419 144.028 88.7699C144.381 88.3979 145.285 88.4101 145.864 88.5672C148.652 89.3261 150.741 91.2649 152.965 92.9561C156.391 95.5591 158.861 99.0152 160.884 102.706C162.042 104.81 162.4 107.355 163.068 109.848M128.353 94.2213C127.624 92.161 127.01 90.0492 126.135 88.0558C124.81 85.0322 123.313 82.0895 121.874 79.122C121.304 77.9269 120.694 76.7271 120.054 75.5631C119.909 75.3001 119.551 75.1601 119.293 74.961C119.321 75.3252 119.24 75.7516 119.399 76.0488C120.937 78.8741 121.648 82.0757 121.45 85.2865C121.188 89.5009 121.259 93.7885 120.455 97.9034C119.381 103.237 117.028 108.23 113.599 112.454C110.438 116.406 109.474 121.068 109.24 125.957C109.178 127.179 109.799 127.571 110.846 126.931C113.221 125.488 115.591 124.031 117.862 122.436C122.923 118.88 126.755 114.544 128.271 108.209C129.392 103.537 129.118 99.0737 128.343 94.24M20.5056 18.4555C21.5861 20.9018 22.6059 23.3761 23.7642 25.7834C25.2931 28.9517 26.9355 32.0562 28.5126 35.198C30.4229 39.0043 32.7191 42.5366 35.7528 45.5583C36.2027 46.0049 36.651 46.4546 37.1008 46.9012C37.2221 46.3238 37.3698 45.7479 37.4693 45.1674C38.1172 41.6986 38.0051 38.1305 37.1405 34.7093C36.0223 30.4391 34.5447 26.3199 31.8719 22.7627C30.1985 20.5376 28.2979 18.4868 26.5248 16.3363C22.5383 11.5079 18.1924 7.08736 12.6779 3.96962C12.5721 3.90842 12.4537 3.87226 12.3317 3.86392C12.2098 3.85558 12.0876 3.87528 11.9744 3.9215C11.8344 4.02269 11.7971 4.39309 11.8532 4.60785C11.9586 4.93862 12.1128 5.25175 12.3109 5.53686C15.0072 9.78654 17.7081 14.0269 20.5071 18.4602M41.2503 74.3438C37.8527 72.8986 34.2234 72.4309 30.6222 72.514C27.4738 72.5862 24.3428 73.4023 21.2116 73.8526C19.6243 74.0786 18.012 74.1987 16.4246 74.378C16.1246 74.4571 15.8359 74.5743 15.5656 74.7268C15.7041 74.8777 15.8162 75.0971 15.9859 75.1625C19.1313 76.3882 21.4506 78.7533 24.0064 80.8165C25.9739 82.4066 28.0129 84.0248 30.2666 85.1122C33.8199 86.8141 37.614 86.3683 41.2648 85.1895C44.5157 84.1337 47.4194 82.4726 49.3346 79.4733C49.8605 78.6546 50.1514 77.9091 48.942 77.4253C46.4674 76.4376 43.9958 75.4436 41.2441 74.3562M76.8969 149.362C74.5294 149.611 72.1618 149.867 69.7942 150.131C69.4145 150.174 69.0348 150.249 68.6582 150.31C68.9897 150.557 69.2901 150.96 69.6559 151.03C72.4464 151.573 75.2338 152.176 78.057 152.506C82.9967 153.122 87.9659 153.47 92.9318 152.353C98.0396 151.197 102.742 148.689 106.548 145.091C108.6 143.179 110.018 140.6 111.698 138.281C111.765 138.159 111.802 138.023 111.803 137.884C111.805 137.745 111.772 137.607 111.707 137.484C111.576 137.318 111.198 137.312 110.924 137.291C110.65 137.271 110.462 137.391 110.243 137.363C104.967 136.672 100.209 138.445 95.5893 140.606C90.3731 143.057 85.2426 145.686 80.042 148.215C79.1083 148.666 78.0749 148.912 76.9032 149.35M39.3479 70.5686C42.3455 71.8644 45.3369 73.1727 48.347 74.4358C48.6692 74.5696 49.0769 74.4388 49.4426 74.431C49.3398 74.1384 49.3055 73.7867 49.1172 73.5642C48.3155 72.6072 47.5154 71.6394 46.6266 70.7633C44.0597 68.191 41.0467 66.1065 37.7344 64.6115C34.3368 63.1041 30.8895 62.1865 27.2837 62.5903C20.2322 63.3174 13.3979 65.4496 7.18395 68.8612C6.06666 69.4699 6.54761 69.8075 7.09395 70.2868C7.3449 70.4337 7.6145 70.5462 7.8955 70.6212C12.6534 72.7773 17.4731 71.8442 22.2662 70.9251C25.8953 70.2256 29.4512 69.1589 33.2284 69.7901C35.1598 70.1134 37.1208 70.2453 39.3525 70.5593M143.527 129.769C144.646 132.247 146.25 134.476 148.245 136.324C148.452 136.517 148.832 136.528 149.131 136.623C149.165 136.338 149.169 136.051 149.143 135.765C148.972 134.855 148.509 133.92 148.613 133.05C148.852 130.561 149.239 128.089 149.773 125.646C150.395 122.931 151.291 120.274 152.051 117.592C152.363 116.531 152.61 115.451 152.792 114.36C153.581 109.155 152.606 103.836 150.022 99.2503C149.511 98.3182 148.982 97.3845 148.381 96.5084C147.87 95.763 147.24 95.1018 146.662 94.4046C146.927 95.2606 147.21 96.1102 147.452 96.9739C147.854 98.4118 148.358 99.8311 148.583 101.305C149.039 104.478 147.041 106.95 145.839 109.589C144.218 113.241 143.14 117.11 142.64 121.074C142.231 124.001 142.739 126.784 143.528 129.765M96.8872 132.373C95.7418 132.415 94.5746 132.384 93.451 132.515C86.49 133.413 80.3478 136.058 75.378 141.145C74.2546 142.296 73.1981 143.514 72.0093 144.593C70.8205 145.672 69.5274 146.57 68.3028 147.58C68.0643 147.841 67.8622 148.132 67.7023 148.447C67.9108 148.551 68.1552 148.747 68.3482 148.712C70.6156 148.223 72.8612 147.637 75.1348 147.198C79.4845 146.356 83.163 143.916 87.1484 142.215C90.0335 140.988 92.6601 139.166 95.5141 137.838C99.1819 136.134 102.918 134.512 107.133 134.766C107.408 134.783 107.698 134.547 107.989 134.416C107.782 134.203 107.542 134.026 107.279 133.89C103.953 132.901 100.574 132.243 96.9013 132.361M43.2896 118.884C45.663 119.242 48.0271 119.781 50.4145 119.924C55.8973 120.248 60.5206 118.268 63.8393 113.877C65.403 111.807 66.5246 109.383 67.6805 107.024C68.6684 105.047 68.5314 105.049 66.3167 104.451C63.9884 103.825 61.7506 104.434 59.9533 105.586C57.0185 107.465 54.4885 109.966 51.6409 112.005C49.4038 113.6 47.0507 115.024 44.6011 116.268C43.4029 116.875 41.9073 116.894 40.5565 117.215C40.1743 117.337 39.8031 117.491 39.447 117.676C39.7175 117.899 40.0183 118.084 40.3404 118.223C41.215 118.458 42.1146 118.612 43.285 118.893M107.689 124.77C107.646 124.266 107.627 123.759 107.552 123.262C107.075 120.239 107.915 117.367 109.169 114.765C110.694 111.597 112.732 108.671 114.608 105.68C116.795 102.103 118.164 98.0863 118.615 93.9181C119.176 89.2772 118.879 84.5384 118.944 79.84C118.916 79.5632 118.858 79.2902 118.771 79.0261C118.536 79.2315 118.172 79.3997 118.099 79.6549C117.861 80.4736 117.822 81.3607 117.545 82.1638C116.422 85.4073 115.329 88.6694 114.039 91.8491C113.173 93.9876 111.995 96.0017 110.95 98.0857C109.598 100.791 107.987 103.398 106.951 106.202C106.088 108.545 105.756 111.11 105.418 113.606C104.935 117.173 105.417 120.701 106.458 124.136C106.555 124.456 107.142 124.629 107.694 124.776M160.704 115.163C160.676 114.612 160.654 114.064 160.618 113.513C160.351 109.524 159.636 105.584 157.212 102.354C154.877 99.2416 152.133 96.4657 149.529 93.5964C148.774 92.7935 147.931 92.0774 147.017 91.4617C146.702 91.2423 146.123 91.4043 145.672 91.3732C145.862 91.7236 146.089 92.0532 146.348 92.3567C147.112 93.0849 147.966 93.7181 148.704 94.4681C152.301 98.1293 154.114 102.684 154.972 107.614C155.751 112.034 154.767 116.37 153.863 120.676C153.201 123.847 152.119 126.947 151.475 130.127C151.137 131.814 151.334 133.616 151.345 135.368C151.348 135.65 151.628 136.14 151.826 136.165C151.998 136.163 152.166 136.12 152.318 136.04C152.47 135.961 152.601 135.847 152.701 135.707C153.822 133.696 154.936 131.677 155.957 129.612C156.833 127.86 157.45 125.97 158.387 124.252C159.893 121.503 160.315 118.501 160.701 115.177M57.4823 74.1695L57.3438 74.5944C56.9426 75.8177 56.725 77.2729 57.7149 78.0322C58.2472 78.4383 59.7303 77.9462 60.6032 77.5072C64.4811 75.5549 67.7815 73.0455 68.5339 68.3019C68.8168 66.4981 69.4685 64.7347 69.9382 62.9464C71.2803 57.8089 70.0577 52.8913 68.5565 48.0251C68.4318 47.782 68.2671 47.5616 68.0693 47.3731C67.9001 47.6049 67.7771 47.867 67.7068 48.1451C67.6789 48.9092 67.8378 49.72 67.7259 50.4889C67.1644 54.5232 65.7393 58.389 63.5479 61.8225C61.099 65.656 58.6673 69.4242 57.4776 74.1789M85.5782 76.4816C84.8113 78.1796 84.1455 79.9321 83.2696 81.5524C81.3665 85.0056 80.0255 88.74 79.297 92.6151C78.403 97.5176 80.427 101.719 81.942 106.075C82.0168 106.283 82.4028 106.383 82.6425 106.534C82.7202 106.277 82.91 105.998 82.8633 105.773C81.8555 101.056 83.9588 96.9485 85.6233 92.8552C87.1042 89.207 88.6115 85.5681 88.5968 81.6432C88.5727 77.7992 87.9495 73.9708 87.5581 70.1378C87.4689 69.7585 87.3334 69.3917 87.1549 69.0454C86.9402 69.475 86.5776 69.8734 86.5139 70.3279C86.1921 72.2717 85.9497 74.228 85.5813 76.4753M16.1763 20.1745C16.2979 21.4024 16.3869 22.6411 16.5443 23.8597C17.2036 29.1649 18.157 34.302 21.5365 38.7803C24.8756 43.2151 28.6813 46.8327 34.1068 48.4393C34.517 48.5087 34.9342 48.5264 35.3488 48.492C35.1787 48.1008 34.9623 47.7314 34.7042 47.3918C33.2971 45.9417 31.6737 44.6596 30.4641 43.0631C28.9804 41.0538 27.6517 38.9345 26.4898 36.7235C24.5251 33.0651 22.2818 29.4736 20.9567 25.5785C19.6315 21.6834 17.4895 18.232 16.0819 14.424C16.004 14.214 15.6227 14.1207 15.3815 13.9729C15.285 14.2281 15.061 14.5129 15.1077 14.7386C15.4629 16.4722 15.8834 18.1763 16.1857 20.1791M95.0439 87.2383C94.9893 86.5069 94.9658 85.7677 94.8723 85.044C94.3487 80.9853 92.4556 77.4249 90.7865 73.7587C90.7056 73.5782 90.4457 73.4755 90.2682 73.3401C90.1609 73.5549 89.9617 73.8055 90.0069 73.9876C90.2499 75.1672 90.6547 76.3266 90.8137 77.5031C91.141 80.0942 91.3376 82.6823 90.5381 85.2627C89.7869 87.7545 89.6147 90.4733 88.5631 92.811C87.051 96.1791 85.7101 99.5549 84.9716 103.166C84.8423 103.848 84.8257 104.546 84.9222 105.234C85.0842 106.404 85.6679 106.63 86.5626 105.906C88.8609 104.04 90.8058 101.72 91.8355 99.0527C93.2822 95.3018 94.9654 91.5368 95.0346 87.2025M144.47 165.673C144.827 164.268 145.247 162.875 145.525 161.454C145.983 159.088 146.475 156.72 146.728 154.329C147.123 150.636 147.807 147.165 151.084 144.835C151.292 144.682 151.33 144.289 151.446 144.009C151.177 144.01 150.91 144.056 150.656 144.143C148.085 145.488 146.053 147.499 144.397 149.807C143.142 151.541 141.894 153.446 141.336 155.466C140.441 158.68 140.385 162.126 139.495 165.338C138.549 168.787 137.882 172.457 135.141 175.148C135.069 175.213 135.024 175.303 135.015 175.4C135.046 175.673 135.105 175.943 135.155 176.217C135.368 176.164 135.571 176.078 135.757 175.962C136.73 175.106 137.712 174.262 138.62 173.347C140.853 171.136 143.313 169.079 144.453 165.676M53.9347 69.5527C54.0407 70.695 54.1281 71.8358 54.2668 72.9749C54.3444 73.3034 54.4593 73.6219 54.6093 73.9242C54.8536 73.5911 55.28 73.2751 55.3141 72.9187C55.603 69.8652 56.9581 67.2318 58.4594 64.6558C60.2454 61.5959 62.24 58.6479 63.819 55.4884C65.6734 51.8323 65.8672 47.8249 65.4976 43.7926C65.4495 43.5219 65.3782 43.2558 65.2843 42.9974C65.0447 43.2667 64.637 43.5142 64.5841 43.8146C64.127 46.0993 62.5056 47.6854 61.289 49.5205C59.5947 52.07 57.8708 54.6164 56.438 57.3121C55.5802 59.017 54.9801 60.8396 54.657 62.7205C54.2528 64.8527 54.2283 67.0658 53.944 69.5263M145.531 170.098C144.406 171.305 143.264 172.501 142.159 173.731C141.974 173.938 141.988 174.314 141.909 174.613C142.153 174.537 142.454 174.527 142.637 174.378C143.762 173.473 144.884 172.567 145.964 171.613C148.74 169.152 150.984 166.15 152.556 162.789C153.645 160.372 154.471 157.845 155.02 155.252C155.353 153.622 155.358 151.942 155.035 150.311C154.776 148.913 153.677 147.687 153.392 146.28C153.158 145.191 152.676 145.44 152.391 145.87C151.462 147.261 150.434 148.673 149.941 150.235C149.479 151.697 149.713 153.362 149.542 154.926C149.242 157.581 149.095 160.281 148.454 162.856C147.854 165.279 147.325 167.808 145.528 170.096M46.5199 107.571C44.5843 109.654 42.6409 111.736 40.7208 113.834C40.6353 113.928 40.6742 114.239 40.7707 114.357C40.8389 114.413 40.9189 114.453 41.0048 114.473C41.0906 114.493 41.1799 114.492 41.2656 114.472C42.0433 114.291 42.8085 114.06 43.5564 113.781C47.3658 112.222 50.274 109.385 53.3611 106.796C56.6973 104.013 60.049 101.284 64.8144 101.783C64.9934 101.798 65.1941 101.583 65.3886 101.467C65.2454 101.278 65.1333 100.973 64.9574 100.928C64.3672 100.78 63.7653 100.682 63.1583 100.636C59.7811 100.388 56.3355 100.09 53.3556 102.035C50.9841 103.574 48.8477 105.521 46.5183 107.566L46.5199 107.571Z" fill="#425742"/>
</svg>
