<svg viewBox="0 0 191 239" fill="none" xmlns="http://www.w3.org/2000/svg">
				<path
					d="M31.5236 93.153C29.5073 91.6798 27.453 90.3545 25.6659 88.7398C23.0632 86.3856 21.3096 83.5143 21.1772 79.8373C21.1328 79.0958 21.2725 78.3549 21.5839 77.6806C21.8953 77.0062 22.3687 76.4194 22.9619 75.9724C26.4743 73.1043 30.6789 71.2099 35.1543 70.479C37.3735 70.153 39.6263 70.1236 41.8533 70.3917C45.2494 70.7747 48.4387 71.951 51.5233 73.4804C53.5858 74.5045 55.101 76.067 56.4803 77.7789C57.5586 79.0942 58.4757 80.5338 59.2122 82.0668C59.9715 83.7761 60.5701 85.5523 61.0001 87.3726C61.228 88.2646 61.6653 88.1948 62.315 88.1567C64.5399 88.0243 66.7696 87.8347 68.9969 87.8611C70.0483 87.8758 71.0922 88.3415 72.138 88.5844C72.4537 88.6377 72.7724 88.6715 73.0923 88.6855C73.0262 88.4193 72.9348 88.16 72.8193 87.9113C70.1683 83.4373 67.5199 78.9619 64.8484 74.4997C63.3693 72.0303 61.7824 69.6226 60.3649 67.1179C59.6479 65.7497 59.026 64.3338 58.5037 62.8801C57.995 61.5933 57.6742 62.1758 56.1631 61.8347C54.3647 61.4263 52.8421 61.3507 49.4259 60.0521C46.607 58.9806 43.9789 56.9273 42.0484 54.6516C39.1056 51.1799 38.1957 47.0619 37.7058 42.7546C37.3412 39.9709 37.3457 37.1512 37.7192 34.3686C38.2626 30.7885 39.0913 27.3553 41.0481 24.261C41.447 23.6303 41.7549 22.9359 42.1788 22.325C44.2772 19.2996 45.4744 19.4319 48.6099 20.6869C52.3083 22.1749 55.1167 24.8169 57.7327 27.6884C60.1139 30.4043 62.0623 33.471 63.5093 36.7804C65.789 41.9511 66.0973 47.7326 64.1241 52.06C63.0973 54.3081 61.6274 56.3361 60.3425 58.4491C59.7048 59.496 59.4978 60.5451 60.1255 61.6411C62.6848 66.1096 65.2121 70.5998 67.8048 75.0493C70.0873 78.9572 72.4365 82.8268 74.7765 86.6983C74.9632 87.0243 75.342 87.2334 75.6325 87.4965C75.6138 87.1663 75.492 86.793 75.582 86.4858C76.1976 84.3232 76.7073 82.1123 77.556 80.0413C78.187 78.5005 79.2778 77.1497 80.1624 75.7125C80.7019 74.8275 81.0043 74.1294 79.9559 73.1857C79.2006 72.5037 78.765 71.2909 78.5252 70.2353C77.6258 66.3821 77.4982 62.389 78.1497 58.4863C79.012 53.4453 80.7537 48.7495 83.6504 44.5647C85.9617 41.2265 88.5117 38.0311 92.0241 35.8081C93.0408 35.161 94.026 34.2388 95.1426 34.022C97.9192 33.4543 100.146 35.3422 101.035 37.8768C102.32 41.5376 103.386 45.3077 103.292 49.2505C103.241 51.3296 103.05 53.403 102.722 55.4567C101.975 60.1042 99.5175 63.8773 96.3646 67.2102C95.1094 68.5358 93.5872 69.6155 92.1465 70.7542C91.3107 71.4136 90.4065 71.9894 89.5116 72.5633C88.2892 73.3452 86.9606 73.5846 85.499 73.5321C85.1528 73.5471 84.8139 73.6368 84.5057 73.7951C84.1974 73.9535 83.9271 74.1766 83.7132 74.4492C82.137 76.8927 80.6734 79.4079 79.2275 81.9301C77.7336 84.5411 77.4891 87.4114 77.6879 90.3414C77.7202 90.6998 77.8345 91.0461 78.022 91.3533C79.2769 93.4193 80.6033 95.4377 81.8223 97.5243C84.0445 101.327 86.263 105.135 88.3903 108.992C89.7182 111.412 90.9283 113.906 92.07 116.429C93.4748 119.53 94.7451 122.689 96.0854 125.82C96.163 125.997 96.4126 126.1 96.5807 126.239C96.739 126.039 96.9979 125.86 97.0318 125.64C97.5613 122.398 98.0501 119.139 98.5997 115.879C98.8849 114.175 99.3067 112.495 99.5651 110.786C99.5634 110.567 99.5131 110.351 99.4179 110.154C99.3227 109.957 99.1849 109.784 99.0144 109.646C97.1053 108.217 95.6595 106.407 94.2631 104.487C91.5784 100.799 91.8103 96.7224 92.5224 92.6333C92.9485 90.0656 93.6662 87.5549 94.6616 85.15C95.8911 82.2439 97.995 79.9243 100.666 78.1185C103.047 76.5093 105.28 74.6819 107.626 73.0111C109.286 71.8281 111.545 71.9216 112.975 73.424C114.699 75.2635 116.306 77.2099 117.785 79.2518C120.308 82.7049 120.973 86.7281 120.988 90.902C120.998 93.3842 119.968 95.549 118.935 97.7087C117.218 101.293 114.856 104.346 111.568 106.659C110.018 107.748 104.454 111.204 103.02 110.873C102.021 110.641 101.501 111.024 101.34 111.968C100.829 114.94 100.377 117.922 99.8249 120.887C99.5248 122.657 99.0948 124.403 98.5382 126.11C97.657 128.659 98.2083 130.89 99.3083 133.239C100.606 136.034 101.595 138.975 102.629 141.887C103.662 144.799 104.586 147.685 105.505 150.598C106.542 153.921 107.633 157.219 108.474 160.603C109.427 164.434 110.112 168.332 110.942 172.197C110.99 172.418 111.293 172.585 111.475 172.777C111.603 172.578 111.823 172.39 111.846 172.18C112.437 166.667 114.774 161.76 117.457 157.036C118.148 155.819 117.965 154.833 117.53 153.759C115.499 148.73 114.814 143.6 116.434 138.329C117.873 133.64 120.505 129.713 124.047 126.317C126.126 124.322 128.317 122.535 130.904 121.279C131.824 120.792 132.811 120.441 133.832 120.239C135.592 119.96 136.563 121.191 137.571 122.416C139.434 124.622 140.64 127.307 141.051 130.165C141.379 132.557 141.569 135.049 141.287 137.433C140.74 142.078 138.778 146.229 135.746 149.779C134.562 151.139 133.132 152.319 131.714 153.451C130.628 154.343 129.448 155.114 128.196 155.753C126.108 156.792 120.46 157.047 120.46 157.047C120.46 157.047 117.658 161.778 116.665 164.306C115.414 167.477 114.675 170.835 113.547 174.055C112.906 175.912 113.096 177.548 113.756 179.365C114.698 182.002 115.464 184.698 116.049 187.435C116.911 191.404 117.61 195.404 118.277 199.419C118.595 201.337 118.695 203.297 118.842 205.231C119.319 211.267 119.799 217.294 120.225 223.339C120.424 225.761 120.5 228.192 120.455 230.621C120.35 233.902 117.037 235.544 113.997 234.32C111.403 233.273 111.886 231.169 111.973 229.412C112.193 224.855 112.949 220.331 113.132 215.795C113.283 211.892 112.977 207.966 112.761 204.054C112.647 201.402 112.396 198.757 112.007 196.131C111.225 191.194 110.325 186.277 109.309 181.38C109.1 180.378 108.221 179.481 107.541 178.62C106.301 177.05 105.108 175.425 103.708 173.998C101.179 171.428 98.5217 168.978 95.9012 166.498C94.9649 165.613 93.9244 164.832 93.0257 163.911C92.2399 163.134 91.5951 163.003 90.5725 163.568C85.0783 166.616 79.2588 167.167 73.3568 165.111C71.6697 164.54 70.1169 163.18 68.8421 161.865C67.4741 160.444 66.3377 158.818 65.4747 157.044C63.5204 152.989 61.6512 148.869 61.3022 144.266C61.0539 141 61.7639 140.412 64.8477 139.887C70.8685 138.865 76.7908 139.451 82.5843 141.205C86.4005 142.363 89.8426 144.356 92.3074 147.529C94.672 150.568 96.3094 154.01 95.7664 158.067C95.6659 158.942 95.4469 159.799 95.1155 160.615C94.7667 161.428 95.0925 161.896 95.6382 162.361C97.9022 164.278 100.224 166.136 102.42 168.126C104.109 169.658 105.637 171.362 107.247 172.983C107.406 173.119 107.577 173.242 107.757 173.349C107.799 173.09 107.928 172.808 107.868 172.573C106.418 166.78 105.023 160.97 103.455 155.208C102.425 151.428 101.198 147.697 99.9488 143.981C98.952 141.02 97.7734 138.123 96.6985 135.187C96.4542 134.522 96.3922 133.777 96.0725 133.16C95.8076 132.573 95.3748 132.078 94.8288 131.738C92.6595 130.629 90.4551 129.577 88.2104 128.633C87.092 128.162 85.8566 127.963 84.6753 127.645C82.8008 127.133 80.9391 126.567 79.049 126.153C78.5797 126.054 77.665 126.325 77.5226 126.666C76.0216 130.252 73.08 131.77 69.5147 132.425C66.8278 132.917 64.213 132.434 61.7653 131.392C59.1991 130.316 56.5599 129.261 54.2761 127.695C52.2323 126.299 50.5391 124.331 48.8838 122.446C47.7775 121.181 46.9685 119.644 46.1031 118.186C44.7063 115.813 44.5896 113.163 44.9902 110.572C45.139 109.641 46.1403 108.652 47.0048 108.054C52.4085 104.366 58.3875 104.057 64.4722 105.689C67.9294 106.613 71.1639 108.333 73.6708 110.96C75.8475 113.237 77.353 116.072 78.0211 119.151C78.205 119.99 78.3405 120.839 78.455 121.694C78.5998 122.685 79.0644 123.216 80.1238 123.465C82.5925 124.003 85.0324 124.666 87.4342 125.451C89.8373 126.266 92.3368 127.03 93.9221 129.292C94.0202 129.433 94.2712 129.467 94.4561 129.552C94.4875 129.333 94.612 129.074 94.5384 128.898C93.9258 127.436 93.2834 125.987 92.6381 124.533C91.285 121.48 89.9463 118.422 88.5583 115.386C87.9039 113.957 87.2091 112.542 86.4363 111.175C83.5193 106.028 80.4921 100.945 77.6698 95.7612C76.5624 93.7265 74.7638 92.7763 72.9031 91.7593C70.1813 90.2743 67.2885 90.9665 64.4471 91.0225C63.669 91.0387 62.8797 91.3032 62.1188 91.2244C60.1969 91.023 58.9546 92.1094 57.562 93.1832C55.9303 94.4585 54.1639 95.6952 52.2675 96.437C50.2934 97.2097 48.0641 97.3106 45.9774 97.8274C43.3131 98.4841 40.8045 97.7224 38.4486 96.805C36.0928 95.8875 33.893 94.4035 31.5405 93.1467M39.0266 71.997C38.4752 71.929 37.9191 71.9055 37.3639 71.9267C32.8038 72.4341 28.4922 74.266 24.9615 77.1961C24.3171 77.7254 23.861 78.7979 23.7892 79.6605C23.548 82.4948 24.7482 84.9058 26.8785 86.6375C29.4171 88.7168 32.0908 90.6255 34.8819 92.351C37.3165 93.8403 40.0148 94.957 42.9158 95.1599C47.0923 95.464 51.2556 94.4157 54.79 92.17C55.2524 91.8485 55.6968 91.5018 56.1211 91.1316C55.6289 90.9328 52.5755 89.1605 51.6199 89.2238C50.7827 89.2738 45.4877 92.6099 45.2529 92.6284C45.2725 92.4127 50.5461 88.1823 50.656 87.9694C50.0134 87.8056 49.1586 87.0034 48.6044 87.1606C47.0276 87.6035 43.515 89.237 43.2097 89.2277C43.5886 89.0857 47.7797 86.4944 47.8695 85.9488C47.4978 85.5379 45.2484 83.9255 43.9292 84.4254C42.6735 84.8992 40.8322 86.356 40.735 86.3946C40.7257 86.2772 41.3959 85.4775 42.5458 84.4917C43.2042 83.9272 44.4586 83.3144 44.7207 82.7007C44.8916 82.3028 44.3559 80.3259 44.2672 80.0699C43.8085 78.775 43.7562 76.3507 43.8965 76.1136C44.1076 76.3335 45.0804 81.3528 46.2296 82.2762C47.2713 83.0584 48.3695 83.7624 49.5152 84.3825C49.4764 84.1661 49.1746 78.6875 49.2698 78.4966C49.4809 78.6689 50.9963 85.9747 52.4862 86.7848C52.69 86.8965 53.1383 87.3282 53.386 87.3738C53.3401 86.9904 53.2602 86.6119 53.1472 86.2426C52.5685 84.5835 53.5327 81.3452 53.7443 81.1968C53.8751 81.4253 53.5433 83.5718 53.6214 84.5531C53.9038 87.5102 54.7878 88.0299 57.2176 88.4516C57.5747 88.5118 57.9357 88.5454 58.2978 88.5521C58.8121 88.5575 59.4212 88.6688 59.012 87.7579C58.5254 86.6975 58.0977 85.6111 57.731 84.5035C56.7808 81.5471 54.8495 79.2106 52.7574 77.0753C50.5458 74.8208 47.5453 73.8193 44.5655 72.9729C42.7482 72.5003 40.896 72.1739 39.0266 71.997ZM101.045 86.9817C101.255 87.0931 102.925 92.4664 103.254 93.5939C103.33 93.8572 103.679 94.0322 103.903 94.2448C103.964 93.9949 104.02 93.7413 104.095 93.4973C104.639 91.7097 106.458 87.6654 106.822 87.4262C106.806 87.8338 105.86 91.7878 105.455 93.3727C105.394 93.6054 105.624 93.917 105.753 94.1773C105.9 94.1728 106.044 94.1251 106.165 94.0401C107.548 92.747 110.915 89.871 111.226 89.7368C111.16 90.1155 108.042 94.1817 106.514 95.793C105.716 96.6317 105.115 97.515 104.896 98.6932C104.678 99.8715 104.297 100.962 103.993 102.098C103.919 102.372 103.862 102.654 103.79 102.933C104.133 102.868 104.463 102.75 104.769 102.584C106.014 101.632 109.133 99.5322 109.482 99.4687C109.323 99.8156 106.02 103.036 104.486 104.249C103.546 104.989 102.629 105.698 102.477 106.985C102.406 107.581 102.354 108.18 102.303 108.788C103.293 108.951 107.997 106.826 109.12 105.716C111.865 102.999 114.618 100.437 116.283 96.9405C117.308 94.7918 118.265 92.6286 118.206 90.1809C118.122 86.6839 117.373 83.3704 115.274 80.5028C114.065 78.8576 112.767 77.2795 111.387 75.7754C110.291 74.5827 109.405 74.654 108.174 75.5874C105.885 77.3279 103.468 78.9166 101.28 80.7733C99.8511 81.9974 98.5965 83.411 97.5505 84.9747C95.8244 87.5552 95.324 90.6095 94.7969 93.611C94.0117 98.0726 94.8027 102.15 97.8669 105.637C98.4392 106.291 99.0205 106.943 99.6459 107.553C99.7395 107.638 99.8502 107.702 99.9705 107.74C100.091 107.779 100.218 107.792 100.344 107.777C100.469 107.746 100.775 106.323 100.922 105.936C101.289 104.982 98.3663 94.5049 98.5723 94.2812C98.7442 94.4861 100.837 100.063 101.526 101.772C101.626 102.018 102.009 102.15 102.259 102.337C102.345 102.06 102.441 101.787 102.517 101.508C102.788 100.494 103.176 99.4874 103.284 98.4545C103.369 97.5575 103.274 96.6524 103.003 95.7928C102.574 94.4472 100.325 88.7713 101.057 86.9784M64.1522 129.858C64.3464 129.833 64.5426 129.827 64.738 129.84C69.2043 130.591 73.0188 129.61 75.7258 125.701C75.8654 125.498 75.8698 125.203 75.9364 124.95C75.2496 124.847 74.5558 124.8 73.8616 124.809C71.9467 124.988 68.0425 128.015 67.7442 128.411C67.9101 128.064 72.5481 123.652 72.471 123.529C72.0451 122.863 69.5727 122.415 68.8657 122.775C67.5457 123.446 64.8153 124.833 64.4895 124.811C64.6668 124.526 67.4171 122.906 68.241 122.083C68.6346 121.687 64.3315 120.096 62.647 121.047C62.0593 121.383 59.773 122.165 59.4137 122.067C59.6328 121.795 61.7372 120.702 62.5495 120.4C62.7623 120.285 62.9583 120.14 63.1321 119.971C63.4105 119.226 60.757 117.05 60.3968 117.052C61.1605 116.196 64.2186 119.083 65.7315 119.737C66.5437 120.09 67.9892 120.489 68.8392 120.759C71.2355 121.526 73.7018 122.054 76.202 122.337C76.3847 122.358 76.5748 122.392 76.7491 122.429C76.7617 122.231 76.847 122.005 76.7753 121.838C75.6331 118.743 74.6141 115.577 72.333 113.052C69.5373 109.956 65.9281 108.172 61.945 107.412C58.1296 106.653 54.1774 106.984 50.5414 108.367C49.0477 108.943 47.4427 109.729 47.2072 111.657C46.9598 113.681 47.363 115.732 48.3583 117.512C49.1935 119.135 50.1816 120.675 51.3092 122.11C52.5938 123.701 54.0605 125.135 55.6792 126.384C58.1192 128.204 61.0769 128.988 64.1426 129.854M79.2818 154.757C78.0069 153.977 75.235 151.887 75.1206 151.622C75.3873 151.558 77.5542 152.134 78.3771 152.463C78.8145 152.632 79.2501 152.768 79.6891 152.915C79.5184 152.45 79.3319 151.988 79.1748 151.505C78.8101 150.375 78.4498 147.377 78.6921 147.092C78.7518 147.023 80.7873 150.452 81.2019 152.069C82.0133 155.313 84.9004 155.878 87.305 157.095C87.3513 157.116 87.6859 156.802 87.6627 156.696C87.4058 155.48 87.2078 150.01 87.4504 149.731C87.5974 149.988 88.4396 152.887 88.7497 154.059C89.2737 156.039 89.3518 158.265 91.5501 159.371C92.1297 159.663 92.6855 160.002 93.2519 160.319C93.3371 159.67 93.4623 159.026 93.5024 158.376C93.8196 153.442 91.4002 149.76 87.7609 146.905C84.603 144.432 80.8051 143.223 76.8125 142.554C72.8963 141.9 69.0263 141.689 65.1569 142.754C64.3191 142.981 63.5709 143.198 63.7599 144.314C63.8894 145.081 63.9107 145.881 64.1342 146.622C65.5512 151.298 66.8443 156.032 69.9974 159.966C71.2415 161.513 72.7036 162.745 74.6295 163.322C78.6443 164.523 82.528 164.228 86.3185 163.056C87.41 162.716 88.4821 162.317 89.53 161.861C89.6774 161.797 89.781 161.192 89.7219 161.154C89.1328 160.81 88.4681 160.233 87.9054 160.31C85.7401 160.606 80.3753 161.701 79.8365 161.778C80.1845 161.327 84.2627 159.502 85.7856 159.114C86.0009 159.022 86.2012 158.898 86.3796 158.747C86.2129 158.634 86.0576 158.512 85.8851 158.413C85.1028 157.958 84.333 157.488 83.5273 157.064C82.2547 156.371 80.963 156.044 79.4872 156.514C78.4566 156.846 75.5653 156.886 75.2112 156.785C75.5147 156.506 78.1289 155.643 79.1266 155.456C79.4362 155.402 80.1406 155.441 79.2877 154.768M89.1395 55.3449C89.2028 55.8779 89.0626 56.5854 89.0477 58.196C89.0381 59.2445 89.1597 60.177 89.1611 60.5545C89.4584 60.3058 91.042 58.6251 91.3294 58.3889C92.9981 57.0412 95.0863 54.7477 95.4666 54.656C93.8979 56.9153 92.1584 59.0511 90.2633 61.0447C89.3225 62.0266 88.0547 64.6752 88.0351 64.8909C89.512 64.1468 90.9088 63.2532 92.2034 62.2241C93.5524 61.1515 95.8831 58.8588 96.0274 58.9262C96.1716 58.9935 94.2181 61.3258 93.7834 61.7214C92.0288 63.3629 90.1722 64.8919 88.2247 66.2991C87.8552 66.5311 87.5405 66.8405 87.3021 67.2059C86.7708 68.2362 86.3217 69.3149 85.8682 70.3858C85.8039 70.6354 85.7734 70.8924 85.7776 71.1501C86.0109 71.129 86.2968 71.1936 86.4717 71.0764C88.5081 69.8351 90.7545 68.8178 92.5206 67.2712C95.9374 64.2606 98.4001 60.3171 99.6058 55.9257C100.633 52.2387 100.637 48.4295 99.9525 44.6936C99.4917 42.401 98.7964 40.1619 97.8775 38.0116C97.2578 36.4952 95.7691 36.1514 94.4419 37.0956C92.7867 38.2902 91.2029 39.5808 89.6988 40.9609C84.9235 45.2877 82.424 50.9219 80.8172 56.996C79.9004 60.5524 79.774 64.2665 80.4467 67.877C80.6876 69.232 81.2253 70.5397 81.7119 71.8358C81.8568 72.2197 82.2766 72.6849 82.6662 71.913C83.3751 70.4844 84.1882 69.1188 84.7998 67.6574C85.186 66.7545 85.745 65.5583 85.4096 64.7585C84.6091 62.831 84.4196 62.3396 83.6898 60.7022C83.4166 60.0883 83.0349 57.3449 83.1664 57.0924C82.942 57.2958 84.1527 60.219 85.2319 62.0141C85.5593 62.5783 86.0191 63.0544 86.5716 63.401C86.6562 63.1856 86.7879 60.6423 86.3817 59.7604C85.5412 57.9239 84.7826 56.1054 84.5931 54.0665C84.5104 53.1662 84.8837 51.0743 85.0607 50.9252C85.1739 51.1229 85.2092 53.0353 85.3203 53.759C85.6337 55.6929 87.8347 59.5656 88.225 59.158C88.2798 58.9323 88.5977 57.2914 88.6338 57.0628M119.463 153.801C119.623 153.628 121.243 150.593 121.223 150.114C121.138 148.322 122.537 138.815 122.769 138.577C122.875 138.946 122.943 148.795 123.084 148.84C123.226 148.885 124.973 146.187 125.659 145.003C126.396 143.743 127.306 142.046 126.927 140.337C126.575 138.735 126.891 135.977 127.192 135.754C127.254 135.718 127.359 141.794 128.094 141.952C128.248 141.727 132.236 137.156 132.505 137.156C132.46 137.417 129.667 142.575 129.589 142.776C129.802 142.739 135.125 141.136 135.39 141.182C135.257 141.449 127.916 144.587 127.216 146.187C126.796 147.143 126.077 147.964 125.529 148.858C125.39 149.165 125.289 149.487 125.226 149.818C125.536 149.764 130.441 148.015 130.814 148.064C130.611 148.306 126.207 151.548 124.468 152.274C123.434 152.706 122.657 153.212 122.058 154.064C121.902 154.379 121.793 154.715 121.736 155.062C122.098 155.101 122.464 155.097 122.825 155.052C124.533 154.666 126.179 154.041 127.712 153.194C128.56 152.716 129.355 152.146 130.08 151.497C131.49 150.226 133.031 149.054 134.238 147.609C136.217 145.238 137.367 142.36 138.137 139.407C138.858 136.49 138.956 133.453 138.426 130.494C137.895 127.536 136.746 124.723 135.056 122.238C134.922 122.045 129.671 123.454 125.725 127.626C121.204 132.41 116.769 139.961 117.52 144.79C118.139 148.734 119.315 153.572 119.494 153.777L119.463 153.801ZM49.382 58.315C51.7631 59.9133 56.3057 59.5306 56.5229 59.5527C56.4838 59.282 54.2696 53.1842 53.0728 50.4577C52.7823 49.7958 51.7213 48.2765 51.0583 47.9166C48.9308 46.7491 43.884 44.7039 44.2653 44.0902C44.422 43.8402 49.076 45.5683 50.7986 46.3917C51.068 46.5036 51.3433 46.6008 51.6232 46.6829C51.6419 46.3405 51.6095 45.9972 51.5272 45.6642C51.158 44.7577 50.7443 43.8629 50.2963 42.9913C49.9647 42.3529 49.7548 41.4983 49.1414 41.1713C48.2851 40.7176 42.4024 36.7311 42.5922 36.5269C42.7821 36.3228 48.8875 39.258 49.1297 39.3476C49.182 39.1234 49.3431 38.8573 49.2762 38.6809C48.7976 37.4347 48.3063 36.1959 47.7412 34.9891C47.5879 34.6678 46.667 33.1433 46.3378 32.9433C45.3294 32.3313 43.4568 31.5256 43.285 31.065C43.8056 31.0157 47.3788 32.0471 47.3364 31.8124C47.1711 30.9287 46.6062 25.3418 46.4271 23.4402C46.4034 23.1845 45.8028 22.8024 45.4719 22.8079C45.2672 22.8388 45.0708 22.9109 44.8948 23.0199C44.7188 23.1289 44.5667 23.2726 44.4478 23.4421C42.6794 25.9309 41.0575 28.5266 40.3956 31.5371C39.6155 35.1027 39.6453 38.559 39.8713 42.3221C40.4661 51.6925 45.748 55.8799 49.3744 58.3194L49.382 58.315ZM47.6549 22.5665C47.6291 22.8608 49.2177 29.985 49.3251 30.2439C49.5633 30.1087 49.7925 29.9581 50.0111 29.793C50.6456 29.2524 52.5052 28.0714 52.8159 28.0366C52.7128 28.3446 50.6162 30.2782 50.0673 30.9743C49.8997 31.2214 49.7862 31.5012 49.7343 31.7953C49.6824 32.0893 49.6933 32.391 49.7663 32.6806C50.047 34.2241 50.6219 35.7218 51.1018 37.2263C51.1988 37.4031 51.3282 37.5603 51.483 37.6896C51.6057 37.4932 51.7435 37.3052 51.8486 37.1019C52.511 35.7886 55.3196 32.2712 55.5181 32.2904C55.4947 32.4401 53.7723 35.7888 52.681 37.8352C51.741 39.604 53.2246 42.2243 53.6083 43.6202C53.6455 43.7625 53.9112 43.8455 54.0712 43.9584C54.1822 43.7891 54.4424 43.5174 54.5479 43.3445C55.4373 41.9216 57.6249 38.8554 57.8866 38.6816C57.9387 38.9926 56.3188 42.5859 55.3305 44.1336C54.0814 46.0829 55.331 48.3599 56.1292 50.1286C56.8756 51.7769 57.4888 53.4845 58.1589 55.1663C58.3674 55.6911 59.1751 56.9703 59.3821 57.0937C59.4296 56.9029 62.4805 51.6481 62.9037 49.9946C64.5629 43.5122 61.5609 36.509 57.6092 31.478C55.7644 29.1259 53.5587 26.3876 51.5066 24.7269C50.3548 23.7931 49.0523 23.0625 47.6549 22.5665ZM118.553 230.163C118.366 223.487 117.521 205.401 115.23 191.92C114.396 187.019 112.917 182.25 110.83 177.738C111.088 177.553 113.062 191.754 114.178 203.652C114.855 210.786 114.925 217.199 114.916 218.909C114.868 222.855 113.411 229.618 113.606 231.803C113.674 232.565 115.688 232.772 116.48 232.656C117.393 232.518 118.579 231.113 118.556 230.168L118.553 230.163Z"
					fill="#D6A66B"
				/>
			</svg>