<svg class="home-hero__svg3 svg" viewBox="0 0 281 280" fill="none" xmlns="http://www.w3.org/2000/svg">
				<path
					d="M145.279 171.978C148.859 174.28 152.293 176.409 155.688 178.601C156.03 178.823 156.121 179.423 156.333 179.848C155.919 179.973 155.495 180.062 155.065 180.114C151.556 180.247 148.018 180.285 144.498 180.53C140.455 180.811 139.107 183.118 140.85 186.663C141.51 188.034 141.403 188.251 139.828 188.02C137.165 187.636 136.454 188.343 135.9 190.909C135.777 191.19 135.586 191.436 135.344 191.624C135.102 191.812 134.817 191.937 134.514 191.986C130.901 191.953 127.358 192.982 124.326 194.947C123.282 195.598 121.771 196.94 121.889 197.761C122.36 201.043 119.622 201.706 118.033 203.302C116.362 204.873 114.771 206.528 113.266 208.259C112.437 209.282 113.416 210.679 114.857 210.749C115.878 210.829 116.905 210.817 117.925 210.713C119.628 210.481 121.204 209.728 122.076 212.335C122.637 213.995 124.626 213.269 125.867 212.805C128.199 211.935 130.592 210.995 132.63 209.628C134.031 208.689 134.524 209.34 135.3 210.106C137.158 211.938 139.831 211.764 141.365 209.619C142.165 208.432 142.882 207.192 143.511 205.906C144.079 204.813 144.517 204.296 145.922 205.101C148.295 206.463 150.216 204.836 151.802 203.374C157.214 198.445 161.08 192.05 162.929 184.967C163.179 184.028 163.79 183.401 165.003 183.979C174.286 188.413 183.564 192.786 192.833 197.22C193.298 197.441 193.613 197.989 194.002 198.374C193.555 198.552 193.084 198.666 192.604 198.713C188.173 198.446 184.112 199.882 180.235 201.692C178.835 202.346 177.288 203.558 177.56 205.752C177.617 206.197 176.87 206.933 176.329 207.226C174.903 207.998 173.425 208.671 171.906 209.24C170.076 209.921 169.34 211.186 169.248 213.086C169.226 213.546 168.553 214.09 168.055 214.39C165.72 215.788 163.293 217.031 161.017 218.509C160.318 218.962 159.492 219.959 159.526 220.676C159.63 223.164 157.726 224.133 156.434 225.669C154.911 227.538 153.577 229.555 152.452 231.688C152.073 232.385 152.101 233.923 152.578 234.329C153.295 234.943 154.581 235.126 155.608 235.09C156.769 235.024 157.905 234.724 158.946 234.205C160.471 233.46 161.39 233.418 162.148 235.251C162.752 236.709 164.319 236.322 165.303 235.754C167.801 234.322 170.182 232.659 172.552 231.058C173.538 230.393 174.405 229.558 175.381 228.875C175.548 228.747 175.742 228.657 175.948 228.611C176.154 228.566 176.367 228.567 176.573 228.614C179.823 230.267 181.733 228.126 183.576 226.098C185.073 224.448 186.309 223.698 188.158 225.73C188.646 226.269 190.301 226.406 191 225.989C194.074 224.184 197.261 222.411 199.883 220.044C202.058 218.079 203.49 215.301 205.294 212.911C205.423 212.78 206.125 212.797 206.181 212.916C207.475 215.487 208.669 218.016 208.806 221.062C209.03 226.314 209.815 231.559 212.636 236.124C214.403 238.989 219.459 242.236 223.023 240.081C225.005 238.887 226.02 236.065 225.839 233.429C225.437 227.526 222.325 222.738 219.768 217.722C217.949 214.131 217.86 214.345 220.826 212.023C222.672 210.581 224.175 208.708 225.836 207.024C226.522 206.329 227.165 205.59 227.887 204.944C230.406 202.77 233 200.686 235.442 198.43C235.689 198.114 235.867 197.75 235.964 197.361C236.06 196.972 236.073 196.566 236.002 196.172C235.548 193.863 236.211 191.886 238.351 191.006C240.729 190.053 242.405 188.536 242.778 186.03C243.121 183.73 244.079 181.498 242.553 178.971C241.802 177.714 242.369 175.412 242.835 173.723C243.958 169.67 243.284 165.82 241.93 162.048C241.436 160.67 240.399 159.417 239.4 158.303C238.401 157.188 236.835 157.821 235.866 159.568C234.998 161.133 234.174 162.355 231.831 162.056C230.831 161.925 229.416 163.52 228.508 164.594C227.676 165.669 227.035 166.879 226.611 168.171C225.841 170.286 224.26 171.364 222.43 172.636C220.327 174.098 218.89 176.633 217.447 178.89C216.444 180.46 216.027 182.392 215.148 184.055C214.639 184.894 213.948 185.607 213.125 186.142C208.941 189.117 207.589 193.562 206.702 198.258C206.57 198.961 206.734 199.727 206.692 200.454C206.605 200.898 206.47 201.331 206.289 201.745C205.883 201.466 205.511 201.142 205.178 200.779C204.331 199.613 203.692 198.257 202.715 197.221C198.053 192.292 192.246 189.202 185.909 186.991C185.438 186.761 184.998 186.473 184.597 186.135C185.012 185.904 185.407 185.497 185.841 185.472C190.863 185.336 194.687 182.1 199.064 180.33C201.099 179.505 201.245 176.975 199.982 175.42C199.048 174.262 198.945 173.6 200.455 172.682C201.846 171.833 202.962 170.446 204.013 169.147C205.388 167.448 204.623 165.767 202.49 165.489C202.143 165.44 201.591 165.234 201.532 165.003C201.509 164.595 201.634 164.193 201.886 163.872C203.373 161.701 204.95 159.592 206.379 157.385C207.124 156.237 207.484 155.019 206.224 153.775C205.783 153.34 205.649 152.325 205.768 151.636C206.161 149.35 206.761 147.095 207.201 144.806C207.278 144.4 207.004 143.548 206.845 143.534C206.251 143.488 205.437 143.504 205.074 143.872C203.464 145.425 201.992 147.121 200.447 148.738C200.128 149.003 199.781 149.232 199.413 149.422C199.215 149.107 199.047 148.775 198.91 148.43C198.418 146.787 198.251 144.588 196.091 144.585C193.93 144.582 192.97 146.416 192.389 148.337C192.181 149.259 191.863 150.151 191.441 150.996C191.101 151.552 190.281 152.282 189.771 152.224C186.916 151.773 186.361 153.691 185.956 155.727C185.858 156.597 185.854 157.476 185.945 158.347C185.955 158.817 186.009 159.287 186.041 159.757C185.592 159.454 185.104 159.213 184.589 159.044C182.969 158.712 181.33 158.488 179.681 158.372C179.428 158.359 178.906 159.361 178.874 159.919C178.818 160.907 178.911 161.898 179.151 162.859C179.803 165.521 178.062 167.111 176.641 168.901C174.227 171.939 173.437 175.465 173.68 179.277C173.664 179.722 173.599 180.164 173.487 180.596C173.055 180.407 172.609 180.24 172.184 180.029C168.207 177.983 164.17 176.049 160.28 173.844C156.389 171.638 152.584 169.127 148.75 166.733C148.452 166.546 148.365 166.03 148.182 165.669C148.476 165.511 148.785 165.383 149.105 165.286C154.122 164.305 158.891 162.327 163.13 159.469C165.292 158.007 167.492 156.505 169.518 154.83C171.116 153.531 171.01 151.896 170.039 150.141C169.909 149.806 169.852 149.447 169.873 149.088C169.894 148.729 169.993 148.38 170.163 148.063C170.835 146.922 171.813 145.967 172.583 144.88C172.884 144.458 173.248 143.739 173.087 143.386C171.515 139.966 174.362 137.808 175.47 135.228C176.516 132.709 176.935 130.478 175.615 127.874C175.131 126.908 175.76 125.3 176.012 124.01C176.385 122.065 177.096 120.156 177.242 118.201C177.388 116.246 175.543 115.239 173.795 116.239C172.144 117.183 170.416 117.995 168.831 119.033C168.209 119.545 167.724 120.204 167.422 120.95C166.487 122.824 165.722 124.786 164.74 126.628C164.258 127.532 163.486 127.899 162.256 127.455C159.92 126.588 158.023 128.067 157.86 130.623C157.799 131.282 157.763 131.901 157.732 132.538C157.677 133.613 157.634 134.684 157.587 135.759C156.667 135.57 155.746 135.316 154.833 135.199C153.001 135.009 153.048 136.601 152.679 137.682C151.846 140.115 151.157 142.599 150.287 145.018C150.161 145.282 149.972 145.511 149.737 145.685C149.503 145.859 149.229 145.974 148.941 146.019C145.251 145.621 143.628 148.082 142.594 150.857C141.756 153.164 141.531 155.673 141.012 158.087C140.903 158.452 140.76 158.807 140.585 159.146C140.29 158.913 139.988 158.687 139.701 158.447C138.081 157.058 136.346 155.778 134.863 154.25C129.142 148.34 124.94 141.414 121.69 133.896C120.991 132.287 120.534 130.557 119.713 129.021C118.801 127.323 119.961 127.655 120.829 127.678C123.254 127.741 125.676 127.865 128.115 127.921C129.603 127.951 131.006 127.941 131.681 126.047C131.819 125.659 133.649 125.918 134.686 125.792C136.429 125.577 138.241 125.525 139.866 124.949C140.999 124.529 141.259 123.391 140.029 122.415C139.724 122.075 139.478 121.687 139.301 121.266C139.8 121.058 140.31 120.877 140.828 120.723C143.808 119.961 146.833 119.365 149.754 118.422C150.449 118.221 151.05 117.778 151.448 117.173C151.846 116.568 152.015 115.84 151.924 115.122C151.853 114.334 152.456 113.49 152.71 112.634C153.954 108.255 155.545 103.931 156.289 99.4747C156.935 95.5333 155.12 94.6556 151.444 96.3706C149.937 97.083 148.513 98.4533 146.503 96.5854C145.05 95.2312 142.762 96.6256 141.221 99.3753C140.07 101.417 138.978 103.107 136.294 103.86C134.037 104.509 132.21 106.609 130.15 108.005C129.487 108.451 128.421 109.175 127.989 108.943C125.148 107.406 123.535 109.617 121.837 110.961C120.303 112.173 119.23 113.953 117.894 115.424C117.474 115.755 117.006 116.02 116.506 116.211C116.385 115.799 116.292 115.379 116.23 114.954C115.877 110.481 115.55 106.01 115.197 101.544C115.118 100.546 115.556 100.546 116.289 100.874C119.458 102.275 122.319 101.683 124.993 99.5698C125.514 99.1257 126.165 98.8644 126.848 98.8261C130.656 98.9882 132.702 96.5932 134.452 93.6973C135.493 91.8515 136.659 90.0795 137.943 88.3939C138.629 87.5534 139.841 87.0964 140.88 86.5827C146.668 83.7169 148.227 78.2966 149.4 72.6256C149.663 71.3537 150.222 70.1015 150.246 68.853C150.254 67.8253 149.929 66.3837 149.22 65.8784C148.511 65.373 146.952 65.409 146.061 65.8313C142.822 67.3733 139.657 69.0884 136.564 70.9116C135.299 71.6548 134.334 72.8881 133.157 73.8044C131.631 74.9945 130.443 76.3885 127.908 76.0513C125.373 75.7141 124.103 78.357 122.849 80.2472C121.649 82.0466 120.802 84.0716 119.729 85.9605C119.328 86.5484 118.867 87.0935 118.355 87.5874C117.385 88.6796 116.423 89.7717 115.439 90.8496C115.033 91.2612 114.619 91.6802 114.184 92.0704C113.933 91.5917 113.737 91.0855 113.602 90.5618C112.912 85.9855 112.479 81.3822 111.533 76.8981C111.088 74.7843 112.097 74.6652 113.427 74.4535C114.869 74.2084 116.326 74.0428 117.772 73.8086C122.481 73.0345 125.152 69.8826 126.889 65.7745C127.546 64.2129 128.626 62.8658 130.007 61.885C132.499 59.9134 134.372 57.2682 135.404 54.2636C136.865 50.371 137.431 46.3795 137.704 42.3213C137.843 39.9937 136.48 39.0586 134.457 40.0603C130.634 41.9536 126.881 43.9804 123.088 45.9242C122.459 46.3362 121.753 46.6179 121.013 46.7526C118.524 46.8927 118.133 48.8566 117.642 50.6149C116.547 54.6389 115.242 58.469 112.137 61.5226C111.098 62.5755 110.686 64.2537 109.961 65.63C109.722 66.0144 109.456 66.3814 109.165 66.7283C108.873 66.3741 108.627 65.9843 108.434 65.5681C107.558 62.8639 106.689 60.1451 105.91 57.4076C105.699 56.7064 105.701 55.9581 105.917 55.2582C107.376 51.1919 108.937 47.161 110.44 43.1089C110.639 42.5864 110.917 41.897 110.708 41.5113C108.948 38.1943 111.445 35.6117 112.124 32.7231C112.215 32.3389 112.473 31.9898 112.594 31.6054C113.408 29.0162 112.349 27.634 109.843 28.3314C107.618 28.9473 107.485 28.5357 107.752 26.3266C108.144 22.7308 107.909 20.0981 103.748 17.5973C101.75 16.3952 100.363 14.1432 98.7907 12.2904C97.2185 10.4377 95.8113 8.38838 94.1921 6.55405C93.8275 6.14404 92.8752 6.06011 92.2426 6.15491C91.9679 6.19297 91.6411 7.07813 91.6517 7.57741C91.7067 9.78793 91.9463 12.0153 91.9507 14.2406C91.9551 16.466 91.52 18.4446 88.8183 19.1724C87.2472 19.5993 86.9964 21.0194 87.8704 22.3632C88.5579 23.415 89.6383 24.2507 90.1669 25.3471C90.5783 26.2345 90.8192 27.6006 90.4121 28.385C89.5338 30.1207 89.7964 31.4722 90.9707 32.803C91.5505 33.4539 92.2598 33.9955 92.8216 34.6647C93.792 35.8087 94.3137 36.9558 93.5251 38.5714C93.1005 39.4464 93.0094 40.9378 93.4924 41.7234C95.3381 44.9312 96.8553 48.7853 99.627 50.8868C103.363 53.7234 103.544 57.4311 104.373 61.1742C104.973 63.779 105.472 66.4279 105.968 69.0733C105.984 69.4791 105.941 69.8851 105.843 70.2791C105.486 70.21 105.146 70.0762 104.838 69.8843C101.625 66.8234 97.4916 65.5997 93.3896 64.7304C89.1027 63.8226 84.6611 63.5745 80.2695 63.2391C79.1183 63.1529 77.9122 64.0477 76.7363 64.0666C74.4622 64.091 72.1886 63.9798 69.9276 63.7333C69.0044 63.6492 68.1209 63.0437 67.2014 62.9777C66.2818 62.9116 65.4737 63.2718 64.5956 63.4334C64.8548 64.3073 64.866 65.4036 65.4202 66.0149C67.9427 68.7079 71.0021 70.8417 74.4008 72.2785C76.143 73.0554 77.4679 74.7217 79.0787 75.8505C79.8931 76.4238 80.9618 77.133 81.8296 77.033C85.3114 76.6291 87.9466 78.3516 90.7331 79.9644C94.257 82.0028 97.9393 83.9243 102.165 82.1838C103.554 81.6134 104.689 80.426 105.949 79.5272C106.457 79.1655 106.976 78.829 107.487 78.4854C107.628 78.9983 107.806 79.5181 107.907 80.0349C108.674 84.1836 109.422 88.3361 110.153 92.4924C110.198 92.7526 110.004 93.0651 109.934 93.3406C109.6 93.1765 109.1 93.1003 108.957 92.8371C107.517 90.144 105.133 89.2593 102.286 89.3982C101.454 89.4401 100.642 90.2635 99.8281 90.251C97.3633 90.1984 94.903 90.0172 92.4571 89.708C90.1953 89.446 87.9519 89.0432 85.7402 88.5021C84.4424 88.1175 83.2056 87.551 82.0667 86.8193C78.2118 84.5335 74.3538 83.8978 70.2849 86.2958C69.4921 86.7644 68.4136 86.7356 67.5806 87.1575C66.9027 87.5095 66.0711 88.1267 65.9343 88.7609C65.829 89.2392 66.5918 90.1857 67.1909 90.4891C70.3863 92.1028 73.6816 93.5276 76.8698 95.1558C77.7014 95.5835 78.3549 96.2917 78.7145 97.155C80.0817 101.3 81.6798 102.696 85.8984 102.085C88.5011 101.705 90.6384 102.045 92.7759 103.485C93.5934 103.995 94.5425 104.254 95.5057 104.23C99.5434 104.144 103.714 104.499 107.309 102.021C108.119 101.469 108.827 100.766 109.619 100.182C109.897 99.9881 110.226 99.8825 110.565 99.8785C110.67 99.8814 110.818 100.351 110.86 100.636C111.32 106.232 111.771 111.828 112.212 117.424C112.19 117.662 112.131 117.894 112.036 118.113C111.601 117.928 111.021 117.867 110.74 117.554C108.894 115.308 106.372 114.179 103.742 113.231C102.866 112.866 101.896 112.793 100.976 113.02C100.055 113.248 99.2314 113.765 98.6265 114.496C97.6678 115.584 96.7559 115.583 95.6666 115.026C93.004 113.685 90.0652 112.984 87.084 112.979C84.862 112.944 82.6586 112.46 80.4491 112.135C79.881 112.017 79.2904 112.076 78.757 112.304C78.2236 112.533 77.7728 112.919 77.4653 113.411C76.4335 114.909 75.0975 114.791 73.4991 114.408C71.1369 113.882 68.7487 113.482 66.3443 113.208C66.0753 113.184 65.8043 113.223 65.553 113.322C65.3017 113.421 65.0771 113.577 64.8972 113.779C64.7184 114.091 65.0742 114.78 65.3089 115.242C66.4022 117.427 68.6054 118.946 68.9387 121.647C69.0192 122.294 70.1279 123.035 70.8969 123.305C72.9319 124.047 75.0735 124.5 77.1264 125.195C78.4103 125.627 79.7795 125.835 80.169 127.75C80.36 128.701 81.818 129.722 82.9168 130.065C85.2666 130.795 87.7508 131.082 90.175 131.582C90.7005 131.691 91.4283 131.769 91.6875 132.104C93.7392 134.746 96.4919 134.076 99.1604 133.79C103.778 133.313 107.27 130.756 110.353 127.478C111.221 126.661 112.145 125.906 113.12 125.219C113.457 126.335 113.808 127.436 114.13 128.567C116.132 136.011 118.779 143.215 123.602 149.41C123.768 149.705 123.887 150.024 123.956 150.355L124.332 151.373C123.953 151.342 123.576 151.286 123.205 151.203C120.41 150.394 117.604 149.595 114.837 148.699C112.78 148.051 111.067 148.797 109.296 149.703C108.618 149.954 107.877 149.979 107.184 149.775C104.581 149.164 102.098 147.943 99.2745 148.86C97.2815 149.503 96.3782 150.747 97.0463 152.656C97.4891 153.913 97.0543 153.829 96.1249 153.904C93.3689 154.104 90.5981 154.246 87.8801 154.691C86.2753 154.956 85.443 156.011 86.4612 157.791C86.4934 158.051 86.4587 158.315 86.3603 158.557C86.2619 158.8 86.1031 159.013 85.899 159.177C80.8572 161.112 76.1514 163.492 73.2099 168.296C72.5944 169.299 72.2734 170.506 74.1098 170.772C74.721 170.924 75.3438 171.023 75.9717 171.071C80.0961 170.97 84.2129 170.819 88.3299 170.696C89.5093 170.659 90.4722 170.711 91.1908 172.081C91.7923 173.256 92.9297 173.961 94.714 173.493C98.362 172.52 102.118 171.919 105.836 171.195C106.237 171.117 106.885 171.08 107.071 171.306C109.172 173.846 111.354 172.735 113.429 171.418C115.814 169.904 118.122 168.263 120.412 166.605C123.307 164.508 124.53 161.228 126.108 158.222C127.258 156.028 127.71 155.913 129.437 157.609C131.047 159.197 132.6 160.851 134.271 162.377C137.843 165.577 141.49 168.7 145.261 172.011M233.466 175.249C235.769 171.77 237.383 168.144 237.166 163.847C237.139 163.102 237.836 162.351 238.218 161.578C238.732 162.147 239.183 162.77 239.562 163.436C241.139 167.004 240.943 170.649 239.995 174.35C239.555 176.072 238.747 178.042 239.188 179.584C240.637 184.608 240.634 185.129 236.464 188.175C235.797 188.63 235.224 189.21 234.779 189.884C233.798 191.504 232.088 193.304 232.255 194.862C232.522 197.397 231.442 198.287 229.721 199.508C227.596 201.006 225.18 202.654 223.935 204.812C222.549 207.32 220.56 209.444 218.148 210.992C217.532 211.391 216.536 211.206 215.704 211.284C215.666 210.412 215.286 209.355 215.639 208.697C216.847 206.317 218.256 204.045 219.852 201.905C223.898 196.732 226.459 190.835 228.908 184.833C230.21 181.647 230.844 178.118 233.463 175.245M195.212 201.228C196.199 201.284 197.159 201.562 198.023 202.041C198.887 202.52 199.633 203.188 200.203 203.994C200.674 204.624 200.872 204.912 199.706 205.3C197.147 206.159 194.675 207.259 192.325 208.586C188.998 210.465 185.861 212.683 182.574 214.638C177.324 217.775 171.934 220.674 166.749 223.919C163.582 225.898 160.7 228.332 157.665 230.527C157.258 230.711 156.821 230.823 156.376 230.858C156.478 230.463 156.46 229.949 156.711 229.694C157.872 228.517 158.974 227.218 160.328 226.297C161.682 225.376 162.773 224.453 162.553 222.584C162.438 222.066 162.493 221.525 162.71 221.041C162.928 220.557 163.297 220.157 163.762 219.901C166.193 218.245 168.59 216.843 171.565 216.464C173.044 216.277 174.134 214.851 173.139 213.769C171.017 211.46 173.61 211.287 174.406 210.764C175.555 210.021 177.1 209.906 178.421 209.398C179.742 208.889 181.295 208.473 180.444 206.312C179.844 204.785 180.913 204.029 182.266 203.48C186.337 201.838 190.63 201.516 195.249 201.249M171.545 224.653C174.308 222.879 177.042 221.055 179.846 219.342C183.265 217.253 186.751 215.257 190.2 213.217C193.555 211.273 196.86 209.257 200.292 207.467C201.046 207.075 202.903 207.211 203.083 207.618C203.587 208.762 204.092 210.647 203.511 211.397C200.185 215.664 197.104 220.129 192.021 222.819C189.879 223.949 188.956 223.39 187.995 221.997C187.165 220.783 186.392 220.415 185.287 221.339C183.488 222.849 181.733 224.424 180.033 226.046C179.22 226.826 178.568 227.152 177.729 226.145C176.696 224.904 175.695 225.678 174.817 226.335C172.246 228.249 169.738 230.245 167.171 232.17C166.415 232.739 165.553 233.176 164.743 233.677C164.538 232.85 164.341 232.023 164.132 231.199C164.121 231.138 164.03 231.099 163.979 231.048C162.882 229.923 163.674 229.31 164.604 228.724C166.802 227.356 169.014 226.009 171.516 224.632M122.43 208.558L118.33 208.655C117.943 208.661 117.549 208.646 117.158 208.641C117.402 208.314 117.579 207.835 117.904 207.688C119.018 207.197 120.159 206.77 121.322 206.409C123.582 205.692 125.953 205.227 128.114 204.289C130.903 203.08 133.508 201.452 136.256 200.101C143.469 196.563 150.075 192.234 155.421 186.115C156.34 185.066 157.754 184.427 159.001 183.709C159.329 183.522 159.888 183.728 160.341 183.758C160.34 184.163 160.279 184.566 160.161 184.953C159.237 186.982 158.387 189.061 157.271 190.987C154.889 195.107 152.617 199.298 148.671 202.191C148.409 202.359 148.115 202.468 147.807 202.512C147.5 202.556 147.186 202.533 146.889 202.445C143.927 201.178 142.834 201.587 141.301 204.546C140.604 205.885 139.798 207.165 138.892 208.373C138.154 209.362 137.366 209.563 136.673 208.153C135.851 206.472 134.517 206.199 132.855 207.032C130.738 208.085 128.581 209.048 126.46 210.068C123.788 211.357 123.795 211.364 122.451 208.544M219.877 181.848C220.147 181.298 220.458 180.768 220.807 180.264C222.152 178.594 221.82 174.909 225.689 176.174C225.979 176.266 226.648 175.632 226.931 175.2C227.287 174.55 227.585 173.869 227.822 173.167C228.755 170.997 229.543 168.748 230.697 166.703C231.105 165.984 232.388 165.674 233.337 165.418C233.511 165.374 234.409 166.612 234.271 167.015C233.636 168.723 232.889 170.388 232.036 171.998C230.391 175.263 228.172 178.343 227.121 181.784C225.445 187.175 222.958 192.278 219.745 196.92C217.861 199.683 215.671 202.245 213.736 204.972C212.997 206.005 212.619 207.285 211.975 208.397C211.636 208.82 211.234 209.19 210.785 209.494C210.675 209.249 210.471 209.004 210.469 208.765C210.426 204.152 209.055 199.465 211.261 194.97C211.932 193.612 212.536 192.49 214.332 192.716C215.998 192.922 216.718 191.907 217.146 190.461C217.981 187.69 218.95 184.937 219.866 181.873M118.042 154.966C117.081 155.627 116.141 156.339 115.146 156.947C113.175 158.165 111.29 159.676 109.149 160.411C107.257 161.054 105.029 160.66 103.005 160.985C96.2425 162.092 89.5061 163.325 82.7547 164.493C82.2482 164.539 81.7387 164.544 81.2314 164.507C81.6259 163.99 81.9102 163.229 82.4297 163.001C84.3381 162.152 86.3567 161.548 88.276 160.717C89.261 160.294 90.7033 159.553 89.4716 158.303C87.5109 156.253 89.6333 156.543 90.4901 156.432C92.6986 156.17 94.9216 156.048 97.1456 156.068C99.2519 156.119 100.278 155.377 100.061 153.193C99.924 151.757 100.788 151.086 102.038 151.399C103.957 151.81 105.815 152.467 107.566 153.351C109.422 154.384 110.323 154.324 111.563 152.579C112.025 151.935 113.092 151.291 113.823 151.351C116.372 151.558 118.894 152.04 121.427 152.489C121.662 152.528 121.845 152.903 122.057 153.111C121.863 153.365 121.628 153.585 121.363 153.763C120.278 154.228 119.165 154.626 118.031 154.955M97.6384 164.08C99.5981 163.856 101.563 163.365 103.503 163.475C108.64 163.762 112.755 161.769 116.653 158.648C118.628 157.068 121.115 156.106 123.408 154.947C123.787 154.753 124.364 154.962 124.849 154.981C124.736 155.44 124.575 155.886 124.369 156.312C123.435 157.827 122.454 159.318 121.476 160.812C120.839 161.793 120.373 163.001 119.495 163.687C116.893 165.721 114.152 167.596 111.385 169.41C110.95 169.698 109.609 169.49 109.521 169.23C108.812 167.158 107.433 167.703 105.988 168.097C102.261 169.15 98.5418 170.232 94.7886 171.173C94.3009 171.296 93.241 170.811 93.1006 170.392C92.5057 168.591 91.2754 168.06 89.5573 168.155C85.8535 168.383 82.1498 168.626 78.4423 168.836C78.0208 168.797 77.6057 168.706 77.2065 168.565C77.4566 168.093 77.6286 167.314 78.0041 167.196C79.0116 166.935 80.0392 166.758 81.0762 166.668C86.4908 165.806 91.9017 164.94 97.6239 164.072M202.936 151.905C202.628 152.858 202.4 153.835 202.254 154.826C202.197 155.489 202.539 156.724 202.763 156.766C204.106 156.862 203.72 157.429 203.297 158.083C202.179 159.979 200.965 161.816 199.658 163.587C198.051 165.595 198.179 166.289 200.587 167.134C201.131 167.311 201.584 167.894 202.079 168.288C201.712 168.588 201.327 168.876 200.971 169.193C199.162 170.809 197.331 172.403 195.565 174.068C194.688 174.892 194.429 175.563 196.092 175.874C196.751 176 197.26 176.876 197.85 177.422C197.504 177.843 197.101 178.215 196.653 178.526C192.141 180.754 187.663 183.1 182.51 183.544C181.544 183.627 180.584 183.945 179.621 183.937C179.096 183.93 178.576 183.474 178.049 183.22C178.506 182.832 178.983 182.467 179.479 182.129C180.462 181.532 181.716 181.201 182.452 180.389C184.732 177.969 186.853 175.404 188.804 172.711C191.914 168.268 194.741 163.624 197.728 159.088C199.344 156.607 201.083 154.208 202.94 151.902M154.911 152.85C154.391 153.581 153.897 154.337 153.348 155.046C150.755 158.404 146.346 158.683 143.149 161.014C142.969 161.145 142.679 161.126 142.444 161.174C142.504 160.888 142.567 160.577 142.63 160.308C142.888 159.319 143.174 158.351 143.479 157.386C144.237 155 145.06 152.642 145.764 150.246C146.319 148.342 147.16 149.071 147.915 149.981C149.068 151.37 150.127 150.726 150.626 149.63C152.216 146.356 153.58 142.977 154.707 139.517C155.281 137.631 155.659 137.983 156.722 138.931C158.306 140.343 159.1 140.084 159.412 137.99C159.71 136.049 159.823 134.083 160.016 132.117C160.167 130.506 160.634 129.37 162.635 130C164.449 130.574 165.722 130.012 166.527 128.175C167.364 126.255 168.383 124.414 169.405 122.583C169.602 122.223 170.154 122.064 170.544 121.815C170.629 122.144 170.881 122.537 170.789 122.776C169.59 125.777 168.54 128.867 167.022 131.696C165.582 134.416 163.503 136.793 161.962 139.471C159.491 143.754 157.238 148.159 154.893 152.824M165.031 140.047C165.541 139.394 166.006 138.708 166.424 137.993C167.827 135.215 169.296 132.459 170.503 129.595C171.496 127.24 172.134 124.735 172.997 122.309C173.092 122.037 173.569 121.903 173.857 121.72C173.907 122.093 174.087 122.507 173.984 122.83C173.428 124.495 172.715 126.114 172.238 127.799C172.016 128.593 171.33 129.857 173.262 129.873C173.599 129.874 174.259 131.158 174.187 131.777C174.047 132.923 173.653 134.022 173.033 134.995C171.762 136.91 170.228 138.654 168.899 140.541C168.487 141.127 168.38 141.927 168.117 142.645C168.628 142.636 169.136 142.725 169.613 142.907C169.951 143.111 170.369 143.875 170.251 144.038C168.871 145.977 167.353 147.814 165.973 149.752C165.633 150.349 165.461 151.027 165.476 151.713C165.474 151.847 166.39 152.004 166.873 152.178C167.221 152.306 167.551 152.488 167.893 152.645C167.643 153.117 167.531 153.776 167.149 153.996C161.534 157.277 155.952 160.648 149.647 162.478C148.697 162.756 147.603 162.539 146.579 162.55C147.371 161.951 148.078 161.103 148.977 160.789C150.823 160.159 152.521 159.157 153.967 157.847C155.413 156.537 156.576 154.945 157.385 153.169C158.487 150.907 159.829 148.767 161.088 146.587C162.279 144.52 163.484 142.482 165.017 140.098M122.741 121.484C121.507 121.864 120.249 122.165 118.977 122.386C118.633 122.428 117.905 121.695 117.851 121.275C117.81 120.593 118.016 119.919 118.431 119.375C120.061 117.388 121.792 115.502 123.483 113.576C124.75 112.131 125.99 110.809 127.85 112.939C128.134 113.219 129.081 113.089 129.633 112.901C130.066 112.753 130.352 112.172 130.744 111.84C133.471 109.586 135.096 105.884 139.291 105.515C139.873 105.464 140.457 104.508 140.901 103.883C141.983 102.297 142.912 100.605 144.052 99.0845C144.293 98.7681 145.668 98.7659 145.763 98.9679C146.564 100.692 147.537 100.624 148.956 99.6878C149.99 99.0491 151.104 98.5476 152.267 98.196C152.809 98.0113 153.469 98.2239 154.073 98.2523C153.744 98.7598 153.339 99.213 152.871 99.5958C151.476 100.427 149.785 100.865 148.617 101.941C144.197 105.991 139.895 110.171 135.647 114.405C132.089 117.954 127.746 120.024 122.745 121.524M182.196 161.083C182.722 161.694 183.225 162.321 183.765 162.91C184.305 163.5 184.758 164.25 185.36 164.368C185.762 164.442 186.574 163.604 186.812 163.02C187.245 161.872 187.558 160.683 187.747 159.471C187.932 158.511 187.925 157.49 188.085 156.541C188.141 156.251 188.545 156.024 188.775 155.784C188.986 156.036 189.346 156.261 189.384 156.536C189.453 157.042 189.218 157.594 189.308 158.071C189.498 158.765 189.741 159.445 190.035 160.103C190.458 159.604 190.821 159.058 191.116 158.474C191.514 157.393 191.607 156.191 192.074 155.15C192.883 153.36 193.87 151.653 194.807 149.938C195.106 149.471 195.438 149.025 195.8 148.604C196.271 149.004 196.693 149.46 197.054 149.963C197.625 150.986 197.86 152.439 199.563 151.281C199.729 151.171 200.026 151.249 200.258 151.247C200.209 151.486 200.229 151.772 200.092 151.947C199.289 153.016 198.381 154.003 197.635 155.108C194.143 160.288 190.458 165.394 187.274 170.764C185.164 174.31 182.982 177.563 179.177 179.388C178.482 179.66 177.764 179.873 177.032 180.025C176.923 179.407 176.767 178.8 176.709 178.167C176.598 177.297 176.599 176.417 176.712 175.547C176.989 174.232 177.033 172.73 179 172.499C180.45 172.341 181.29 171.308 181.293 169.73C181.273 167.331 181.224 164.94 181.284 162.533C181.38 161.938 181.697 161.401 182.171 161.029M106.693 124.069C107.701 123.856 108.701 123.607 109.713 123.455C110.017 123.41 110.362 123.621 110.699 123.709C110.571 124.017 110.399 124.305 110.188 124.563C109.069 125.537 107.921 126.475 106.781 127.412C103.77 129.981 99.9709 131.441 96.015 131.55C95.5664 131.56 94.7172 131.189 94.7267 130.998C94.742 129.007 93.2599 129.227 92.0579 129.134C91.0406 129.058 89.9963 129.257 88.993 129.115C85.907 128.673 82.1913 129.271 81.5225 124.622C81.4538 124.101 80.2923 123.566 79.5453 123.347C77.4605 122.728 75.2975 122.334 73.2093 121.755C72.5365 121.584 71.9372 121.2 71.5011 120.66C70.6624 119.342 69.8922 117.983 69.1935 116.586C69.019 116.214 68.8724 115.829 68.755 115.435C69.2746 115.501 69.7809 115.646 70.256 115.866C71.7501 116.873 73.1048 118.123 74.6704 119.006C79.9847 121.984 85.9874 122.981 91.8202 124.005C96.5372 124.841 101.522 124.116 106.704 124.08M123.984 203.608C123.082 203.897 122.194 204.25 121.272 204.448C120.871 204.534 120.392 204.299 119.961 204.204C120.267 204.01 120.581 203.831 120.88 203.63C122.558 202.482 124.284 201.489 124.053 198.904C123.979 198.148 124.934 196.955 125.723 196.526C128.456 195.066 131.49 194.258 134.587 194.164C136.414 194.09 138.629 194.183 138.493 191.224C138.476 190.884 139.21 190.322 139.694 190.181C140.584 189.992 141.487 189.871 142.395 189.819C143.902 189.624 144.487 188.382 143.693 187.045C143.452 186.558 143.179 186.087 142.876 185.636C141.628 184.038 142.961 183.182 143.998 183.041C147.683 182.614 151.398 182.498 155.105 182.281C155.301 182.273 155.501 182.456 155.701 182.545C155.579 182.778 155.43 182.995 155.256 183.192C153.336 184.891 151.393 186.569 149.498 188.25C148.002 189.57 146.666 191.121 145.016 192.218C141.942 194.344 138.754 196.301 135.468 198.08C131.83 199.99 128.012 201.544 123.966 203.569M140.074 113.597C143.47 110.154 146.866 106.711 150.265 103.265C150.927 102.655 151.658 102.124 152.443 101.683C152.819 101.526 153.218 101.434 153.625 101.411C153.569 101.817 153.471 102.217 153.333 102.603C152.256 104.897 151.775 107.6 149.091 108.82C148.802 108.952 148.635 109.348 148.43 109.606C148.745 109.795 149.081 109.943 149.432 110.048C150.624 110.26 150.865 110.57 150.026 111.676C149.452 112.542 149.133 113.552 149.105 114.591C149.017 115.942 148.526 116.716 147.204 116.964C144.428 117.489 141.627 117.932 138.892 118.598C137.689 118.892 136.602 119.66 135.444 120.228C136.082 120.937 136.724 121.642 137.362 122.343C137.42 122.389 137.472 122.441 137.519 122.498C137.728 122.883 137.926 123.273 138.127 123.666C137.683 123.832 137.226 124.171 136.806 124.131C135.503 123.995 134.213 123.729 132.926 123.502C130.999 123.168 129.049 122.668 128.013 125.125C127.87 125.315 127.685 125.47 127.472 125.577C127.26 125.684 127.025 125.74 126.787 125.741C124.93 125.721 123.077 125.603 121.223 125.486C120.902 125.419 120.592 125.306 120.302 125.152C120.582 124.868 120.782 124.382 121.099 124.293C122.288 123.97 123.546 123.874 124.738 123.519C130.594 121.662 135.525 118.346 140.074 113.611M98.5761 118.234C99.9137 117.519 100.727 115.325 102.524 116.105C105.198 117.226 107.691 118.794 110.227 120.231C110.499 120.385 110.536 120.953 110.687 121.332C110.331 121.435 109.967 121.512 109.599 121.56C107.822 121.661 106.043 121.75 104.264 121.824C100.697 121.965 97.0359 122.645 93.5872 122.075C88.1063 121.175 82.7572 119.45 77.3631 118.032C77.1457 117.976 76.8624 117.294 76.9127 117.25C78.0458 116.262 78.5759 114.42 80.5711 114.627C83.4933 114.929 86.468 114.974 89.3307 115.562C92.3636 116.189 95.2951 117.319 98.5869 118.223M131.863 91.3377C130.088 93.1374 128.569 95.3478 125.553 95.1333C125.141 95.1789 124.763 95.3842 124.5 95.705C122.475 97.9623 119.895 98.5517 117.02 98.2458C116.698 98.1621 116.389 98.0339 116.102 97.8649C116.285 97.5605 116.505 97.2805 116.758 97.0318C118.839 95.3964 121.007 93.8618 123.018 92.1437C125.248 90.2468 127.34 88.1844 129.519 86.2227C130.889 84.9866 132.263 83.7614 133.699 82.6117C137.406 79.6409 141.149 76.706 144.881 73.7675C145.153 73.5921 145.44 73.4423 145.739 73.3201C145.768 73.7723 145.956 74.2957 145.792 74.6659C145.062 76.3318 144.299 77.9943 143.412 79.5852C142.441 81.4247 140.848 82.8592 138.917 83.6326C137.444 84.2341 136.123 85.1553 135.049 86.3295C133.857 87.691 133.102 89.4403 131.856 91.3305M105.414 30.4677C106.649 30.6728 107.888 30.7945 109.099 31.1047C109.552 31.221 110.298 31.9215 110.238 32.0558C109.315 34.1572 108.221 36.1838 107.295 38.2889C106.846 39.2834 106.25 40.5142 106.517 41.3953C107.172 43.5727 106.055 45.2521 105.51 47.1302C105.429 47.4167 105.003 47.6005 104.751 47.8193C104.563 47.5516 104.418 47.2558 104.322 46.943C103.415 40.7362 102.919 34.4398 101.553 28.3267C100.561 23.9552 98.9313 19.5952 95.8312 16.0486C95.1537 15.1959 94.6114 14.244 94.2234 13.2263C94.0358 12.7825 94.2343 12.1733 94.2632 11.6412C94.7684 11.8884 95.2409 12.1975 95.6698 12.5615C97.828 14.8987 99.717 17.5526 102.151 19.5514C103.858 20.9545 105.187 22.1214 105.084 24.4705C104.995 26.4756 105.106 28.4845 105.414 30.4677ZM98.5739 27.106C99.1037 29.4399 99.7962 31.7546 100.138 34.1188C100.754 38.4278 101.171 42.7635 101.646 47.1061C101.664 47.4623 101.653 47.8193 101.613 48.1737C101.154 48.0592 100.716 47.8703 100.317 47.6145C100.01 47.2535 99.7819 46.8323 99.6468 46.378C98.4791 43.3645 95.0547 41.0649 96.7139 37.1239C96.7502 36.8869 96.7367 36.645 96.674 36.4136C96.6114 36.1822 96.501 35.9665 96.3501 35.7803C95.5647 34.7038 94.7109 33.6747 93.8392 32.6639C92.8325 31.4984 92.264 30.3914 93.1464 28.7317C93.6252 27.8383 93.7428 25.9993 93.1744 25.4242C90.846 23.0556 90.6119 21.1141 93.4823 19.1296C93.5903 19.0565 93.512 18.7205 93.5286 18.5069C93.9417 18.5909 94.6108 18.5465 94.7101 18.7665C96.0345 21.4243 97.2689 24.1225 98.5306 27.1208M79.9137 69.393C80.3707 69.5347 80.8403 69.632 81.316 69.6837C84.0122 69.6962 86.6673 70.345 89.0653 71.5773C91.7647 72.9624 94.5864 74.0951 97.4943 74.9607C99.2131 75.4845 101.147 75.265 102.976 75.4587C104.276 75.5981 104.542 76.3779 103.752 77.3386C102.238 79.1872 100.183 80.2289 97.8738 79.6549C95.6569 79.0623 93.5208 78.2008 91.513 77.0896C88.8036 75.6246 86.3328 73.5971 82.9131 74.6228C82.2277 74.709 81.5357 74.5242 80.9845 74.1078C79.65 73.1508 78.5124 71.8993 77.1277 71.0223C75.5396 70.0164 73.7511 69.3447 72.0875 68.4226C71.4618 67.9918 70.8824 67.4974 70.3586 66.9472C71.1583 66.9598 71.9579 66.9435 72.7544 67.0032C73.0006 67.0232 73.2157 67.2642 73.4769 67.3565C75.5225 68.0517 77.5716 68.736 79.9319 69.4109M131.597 54.1956C130.514 55.5057 129.415 56.8014 128.353 58.1186C126.635 60.2545 124.578 62.2153 123.324 64.6012C121.828 67.4375 119.894 69.3035 116.867 70.0913C115.978 70.3218 115.052 70.3933 114.149 70.5369C114.672 69.8314 115.148 69.0863 115.727 68.4346C117.917 65.9663 120.427 63.7273 122.294 61.0477C125.347 56.6122 127.97 51.8757 132.624 48.826C132.947 48.6761 133.29 48.5738 133.643 48.5223C133.631 48.9132 133.742 49.3394 133.586 49.6878C132.966 51.1105 132.262 52.4868 131.612 54.21M137.341 77.112C135.067 79.002 132.739 80.8308 130.527 82.7963C126.47 86.4064 122.486 90.1029 118.458 93.749C117.999 94.1779 117.497 94.5596 116.961 94.8882C116.791 94.9871 116.425 94.8195 116.192 94.6909C116.141 94.6405 116.135 94.2896 116.229 94.1659C117.186 92.9544 117.957 91.3859 119.2 90.6284C122.245 88.7657 124.185 86.1579 125.625 82.9927C126.499 81.0653 127.546 79.1367 130.317 80.2178C130.677 80.3564 131.387 79.9499 131.768 79.6072C135.8 76.0442 139.627 72.215 144.554 69.8292C145.09 69.6594 145.647 69.5678 146.209 69.5573C145.96 70.1669 145.879 71.007 145.425 71.343C142.88 73.2312 140.247 74.997 137.334 77.1193M220.556 237.08C219.921 236.863 219.161 236.796 218.666 236.401C216.152 234.381 214.909 232.034 215.069 228.484C215.23 224.933 214.073 221.384 213.531 217.823C213.452 217.03 213.415 216.233 213.42 215.436C213.955 215.906 214.736 216.288 214.986 216.865C216.937 221.147 218.974 225.406 220.582 229.824C221.405 232.073 222.232 234.608 220.556 237.08ZM81.6831 95.785C80.8568 95.0633 80.0197 94.3598 79.215 93.6236C78.9645 93.371 78.7517 93.0836 78.5831 92.7703C78.5612 92.7488 78.9206 92.3844 79.0438 92.4125C81.5414 93.0576 84.2426 93.3286 86.4831 94.482C92.0427 97.3495 97.6903 99.3336 104.06 98.4432C104.672 98.4296 105.283 98.5046 105.874 98.6659C105.374 99.071 104.912 99.7653 104.359 99.8451C101.37 100.274 98.3574 100.574 95.3487 100.855C94.8671 100.88 94.3919 100.735 94.0071 100.444C91.4637 98.3956 88.6313 98.52 85.6389 99.0615C83.0729 99.5206 82.1082 98.6769 81.6862 95.709M120.778 54.2119C121.186 53.0693 121.259 51.473 122.072 50.874C125.32 48.4853 128.772 46.3629 132.202 44.2479C132.851 43.8526 133.818 43.9871 134.639 43.8766C134.191 44.6431 133.752 45.4097 133.304 46.1545C133.24 46.2563 133.07 46.29 132.958 46.3595C129.697 48.2761 126.842 50.8119 124.553 53.8242C123.097 55.7447 121.958 57.9128 120.444 59.7831C118.065 62.7846 115.527 65.657 113.035 68.5689C112.78 68.79 112.493 68.9724 112.185 69.1103C112.085 68.7093 111.774 68.2012 111.909 67.9325C112.606 66.6721 113.244 65.2963 114.24 64.3089C116.465 62.1117 118.468 59.8111 119.657 56.8792C119.984 56.0664 120.398 55.2892 120.771 54.183M79.3325 67.4828C78.8132 67.2149 78.2939 66.9471 77.7818 66.672C78.4235 66.3202 79.042 65.7587 79.7217 65.6672C80.6299 65.637 81.5384 65.7195 82.4264 65.9128C87.3409 66.5269 92.3565 66.5866 97.0273 68.599C99.3137 69.582 101.668 70.4524 103.919 71.4719C104.419 71.6928 104.703 72.4109 105.086 72.9041C104.516 72.9303 103.945 72.9258 103.375 72.8905C101.998 72.7262 100.608 72.5838 99.2599 72.289C97.0022 71.8015 94.5655 71.5903 92.5719 70.5582C88.4685 68.4369 84.1854 67.5544 79.3434 67.4863M93.4589 92.8022C96.0641 92.7844 98.7407 93.1532 101.238 92.6404C103.734 92.1275 106.321 92.5368 107.548 94.7465C107.569 94.9382 107.54 95.1319 107.465 95.3095C107.391 95.4872 107.272 95.6431 107.121 95.7626C100.609 97.5767 94.5699 95.4578 88.5384 93.4185C88.1358 93.2802 87.8892 92.6776 87.5754 92.2889C88.0268 92.1592 88.5133 91.8628 88.9371 91.9286C90.3534 92.1469 91.7526 92.4991 93.4625 92.7986M80.708 89.2024C81.7241 89.6296 82.7324 89.9629 83.691 90.4557C83.9488 90.5878 83.9888 91.1375 84.1142 91.484C83.8133 91.5778 83.5004 91.6275 83.1853 91.6315C79.5346 91.1644 75.8826 90.6768 72.2293 90.1687C71.7061 90.0108 71.2076 89.7804 70.7482 89.4841C71.1831 89.0433 71.5699 88.4617 72.1038 88.2337C74.9432 87.0093 77.6582 87.7035 80.6681 89.1846M204.173 149.121C203.86 148.87 203.551 148.616 203.238 148.364L204.37 147.26C204.442 147.888 204.375 148.523 204.173 149.121Z"
					fill="#D6A66B"
				/>
			</svg>