<svg viewBox="0 0 232 208" fill="none" xmlns="http://www.w3.org/2000/svg">
				<path
					d="M37.9751 110.703C34.7509 110.502 31.5883 110.488 28.5153 109.973C24.0381 109.22 20.1263 107.312 17.4202 103.397C16.8552 102.619 16.4912 101.715 16.3608 100.763C16.2304 99.8105 16.3376 98.841 16.6728 97.9405C18.5031 92.3671 21.7663 87.3727 26.1353 83.458C28.3272 81.5565 30.7623 79.955 33.3765 78.6956C37.3451 76.7469 41.6411 75.8072 46.069 75.3251C49.0306 75.0044 51.7708 75.6519 54.467 76.5569C56.5587 77.2394 58.5613 78.1695 60.4322 79.3274C62.4508 80.6615 64.3407 82.1807 66.0776 83.8652C66.9476 84.6786 67.3755 84.298 68.0572 83.8038C70.3902 82.1093 72.6884 80.3492 75.1346 78.8262C76.291 78.1097 77.7532 77.89 79.0624 77.4261C79.4437 77.2643 79.8146 77.079 80.173 76.8714C79.9156 76.6273 79.6353 76.4084 79.3361 76.2177C73.3294 73.188 67.3245 70.1549 61.3036 67.1524C57.9709 65.4912 54.5637 63.9724 51.2736 62.2298C49.5388 61.2381 47.8744 60.128 46.2923 58.9074C44.8413 57.859 44.8974 58.7175 43.0126 59.3985C40.7678 60.2063 39.0555 61.1848 34.4271 62.1493C30.6078 62.9454 26.3126 62.5382 22.6228 61.4028C16.9964 59.6688 13.1356 55.814 9.60052 51.4604C7.26363 48.6801 5.30404 45.6035 3.77253 42.3102C1.87063 38.0292 0.38192 33.7096 0.359017 28.9734C0.354427 28.0081 0.206182 27.0366 0.242591 26.0754C0.422078 21.3156 1.8193 20.6258 6.11126 19.8092C11.1793 18.8545 16.0813 19.7776 20.9334 21.085C25.4211 22.3864 29.6815 24.3716 33.5644 26.9708C39.6518 31.0186 44.016 37.1058 44.8801 43.1974C45.3271 46.3633 45.1379 49.598 45.2094 52.7963C45.2437 54.3818 45.749 55.6695 47.1968 56.4268C53.0998 59.5145 58.983 62.6481 64.909 65.6917C70.1196 68.3611 75.3763 70.9423 80.6243 73.532C81.0549 73.7572 81.6135 73.7212 82.1135 73.8057C81.8631 73.4588 81.4702 73.1367 81.3542 72.7392C80.5187 69.953 79.5338 67.188 79.016 64.3392C78.6303 62.2202 78.8782 59.9878 78.8411 57.8049C78.8126 56.4643 78.6558 55.4927 76.8556 55.1945C75.5571 54.9774 74.2374 53.9589 73.2404 52.9753C69.5756 49.4019 66.6545 45.1382 64.6454 40.4303C62.0733 34.3348 60.7001 28.0029 60.942 21.4232C61.1356 16.1741 61.6888 10.9145 63.9686 6.04425C64.626 4.6306 65.0574 2.93898 66.1234 1.92473C68.7545 -0.628611 72.4968 -0.122013 75.2319 2.02118C79.1836 5.11596 82.9712 8.4833 85.6161 12.8464C87.0088 15.1483 88.2458 17.541 89.3188 20.0082C91.7428 25.5944 91.6927 31.4194 90.578 37.2489C90.1334 39.5684 89.2265 41.8059 88.4494 44.0508C87.9978 45.3519 87.4134 46.6094 86.8377 47.8585C86.0501 49.5625 84.7687 50.749 83.1389 51.7102C82.772 51.9677 82.4652 52.3016 82.2395 52.6889C82.0138 53.0762 81.8745 53.5078 81.8314 53.954C81.8156 57.7156 81.9727 61.4769 82.1539 65.2335C82.3447 69.1204 84.078 72.4193 86.336 75.4746C86.6209 75.8428 86.9867 76.1406 87.4052 76.3448C90.2125 77.7225 93.0645 78.9984 95.847 80.4236C100.919 83.0203 105.99 85.6256 110.996 88.3477C114.129 90.06 117.186 91.9353 120.188 93.8899C123.88 96.292 127.465 98.8495 131.108 101.329C131.316 101.468 131.66 101.406 131.94 101.44C131.973 101.112 132.13 100.737 132.014 100.473C130.333 96.5709 128.595 92.678 126.923 88.7417C126.046 86.6856 125.336 84.5606 124.427 82.5176C124.272 82.2801 124.067 82.0798 123.826 81.9313C123.585 81.7827 123.314 81.6896 123.032 81.6586C119.955 81.4311 117.118 80.4653 114.258 79.345C108.763 77.1958 106.175 72.5908 104.103 67.6375C102.778 64.5418 101.811 61.305 101.221 57.9901C100.536 53.9658 101.213 49.9716 102.866 46.1424C104.341 42.7293 105.501 39.182 106.894 35.7263C107.88 33.2798 110.408 31.808 113.013 32.4495C116.174 33.2531 119.281 34.2554 122.316 35.4505C127.472 37.4566 131 41.3788 133.924 45.9181C135.665 48.6165 136.05 51.6939 136.429 54.7679C137.054 59.871 136.607 64.845 134.635 69.6559C133.703 71.9237 130.046 79.5671 128.253 80.2052C127.002 80.6478 126.702 81.4279 127.185 82.5697C128.699 86.1642 130.283 89.7308 131.747 93.3466C132.653 95.4851 133.401 97.6874 133.983 99.9357C134.799 103.329 136.954 105.376 139.79 107.17C143.151 109.313 146.278 111.83 149.434 114.283C152.59 116.737 155.607 119.24 158.638 121.775C162.084 124.674 165.571 127.509 168.845 130.612C172.553 134.123 176.016 137.895 179.613 141.53C179.819 141.737 180.267 141.708 180.599 141.791C180.599 141.484 180.708 141.127 180.586 140.882C177.39 134.46 176.518 127.483 176.152 120.465C176.057 118.657 175.171 117.71 173.949 116.842C168.23 112.775 163.91 107.661 162.004 100.787C160.305 94.6734 160.437 88.5589 161.933 82.389C162.809 78.7663 163.952 75.2924 165.896 72.1206C166.56 70.9483 167.392 69.8791 168.364 68.9464C170.088 67.4171 172.003 68.0819 173.956 68.715C177.524 69.8216 180.709 71.908 183.148 74.7364C185.172 77.1165 187.115 79.7005 188.469 82.4944C191.11 87.9391 191.863 93.8301 191.031 99.812C190.688 102.12 189.951 104.403 189.195 106.624C188.632 108.353 187.883 110.016 186.963 111.585C185.412 114.171 179.433 118.385 179.433 118.385C179.433 118.385 179.675 125.494 180.355 128.941C181.2 133.27 182.734 137.445 183.747 141.74C184.342 144.211 185.69 145.861 187.674 147.383C190.538 149.601 193.252 152.005 195.797 154.581C199.501 158.307 203.05 162.18 206.575 166.092C208.257 167.96 209.732 170.028 211.239 172.034C215.965 178.28 220.688 184.516 225.363 190.809C227.267 193.31 229.044 195.905 230.687 198.586C232.859 202.235 230.392 206.333 226.225 207.116C222.668 207.782 221.729 205.153 220.6 203.176C217.664 198.056 215.337 192.599 212.376 187.526C209.82 183.167 206.753 179.1 203.792 174.987C201.82 172.175 199.703 169.468 197.45 166.876C193.157 162.04 188.751 157.307 184.232 152.677C183.306 151.731 181.723 151.365 180.381 150.9C177.935 150.053 175.503 149.113 172.982 148.533C168.435 147.493 163.833 146.675 159.248 145.797C157.611 145.485 155.932 145.358 154.312 144.981C152.914 144.682 152.119 144.987 151.398 146.316C147.533 153.466 141.574 158.122 133.708 159.992C131.471 160.545 128.831 160.144 126.525 159.599C124.044 159.004 121.672 158.022 119.496 156.691C114.541 153.633 109.632 150.443 106.045 145.669C103.499 142.282 103.864 141.147 106.859 138.426C112.71 133.118 119.574 129.63 127.111 127.505C132.077 126.109 137.217 125.883 142.115 127.624C146.81 129.29 150.993 131.901 153.227 136.702C153.727 137.725 154.086 138.812 154.293 139.932C154.479 141.061 155.16 141.344 156.079 141.471C159.883 141.983 163.707 142.391 167.488 143.03C170.396 143.523 173.25 144.316 176.134 144.961C176.402 144.999 176.673 145.013 176.944 145.005C176.809 144.693 176.753 144.296 176.525 144.081C170.909 138.777 165.34 133.416 159.616 128.228C155.86 124.826 151.922 121.613 147.972 118.433C144.823 115.9 141.52 113.564 138.302 111.112C137.573 110.558 136.986 109.789 136.207 109.338C135.51 108.884 134.694 108.646 133.861 108.655C130.724 108.957 127.588 109.347 124.484 109.882C122.937 110.148 121.452 110.792 119.942 111.267C117.542 112.016 115.119 112.696 112.77 113.561C112.189 113.78 111.381 114.714 111.463 115.184C112.326 120.139 110.177 123.843 106.747 127.041C104.161 129.449 100.975 130.745 97.5809 131.314C94.0337 131.929 90.4218 132.617 86.8418 132.502C83.6413 132.404 80.4243 131.438 77.307 130.538C75.2198 129.93 73.2668 128.817 71.3081 127.832C68.132 126.218 66.1586 123.411 64.7897 120.307C64.3036 119.189 64.7057 117.413 65.2318 116.159C68.5525 108.375 74.8544 103.872 82.6234 101.411C87.0356 100.01 91.7594 99.6306 96.3224 100.748C100.282 101.714 103.898 103.755 106.771 106.645C107.556 107.431 108.295 108.263 109.016 109.115C109.864 110.094 110.741 110.349 112.069 109.883C115.135 108.75 118.256 107.772 121.421 106.954C124.608 106.169 127.865 105.259 131.169 106.621C131.374 106.707 131.671 106.568 131.932 106.532C131.814 106.271 131.769 105.903 131.566 105.762C129.879 104.595 128.17 103.463 126.453 102.328C122.852 99.9426 119.262 97.5425 115.634 95.1998C113.925 94.0989 112.182 93.0401 110.387 92.0882C103.622 88.5106 96.7802 85.0789 90.0923 81.3949C87.4676 79.9486 84.8451 80.1659 82.1084 80.3538C78.1069 80.6314 75.436 83.4014 72.3779 85.442C71.541 86.0018 70.865 86.84 69.9806 87.2843C67.7454 88.4038 67.1483 90.4535 66.3783 92.5942C65.4883 95.1212 64.4245 97.6998 62.8743 99.8296C61.2609 102.047 58.9011 103.71 56.9867 105.728C54.5401 108.3 51.2749 109.217 48.0678 109.859C44.8608 110.5 41.429 110.415 37.9892 110.684M31.4138 82.4147C30.7654 82.7249 30.1429 83.0867 29.5525 83.4966C24.9354 87.2267 21.512 92.2275 19.705 97.8813C19.3713 98.9072 19.6213 100.394 20.1441 101.384C21.8559 104.642 24.8439 106.433 28.3725 106.837C32.5882 107.335 36.8324 107.552 41.0769 107.489C44.7683 107.416 48.4875 106.753 51.7911 104.953C56.5553 102.375 60.363 98.3314 62.6509 93.4211C62.931 92.7485 63.1738 92.061 63.3784 91.3618C62.7034 91.4881 58.1404 91.6836 57.1429 92.4184C56.2652 93.0561 52.8177 100.382 52.5748 100.565C52.4458 100.317 55.2468 92.0311 55.2182 91.7225C54.4037 91.9918 52.913 91.7129 52.4184 92.2704C51.0083 93.8517 48.3175 98.0795 47.9784 98.2821C48.2924 97.8634 51.0554 92.1188 50.7731 91.4615C50.0817 91.2726 46.5064 91.0823 45.4168 92.5462C44.3781 93.9375 43.386 96.8083 43.307 96.9181C43.2151 96.7966 43.3885 95.458 43.955 93.5823C44.2793 92.5083 45.2198 90.9663 45.0779 90.1148C44.987 89.562 43.0257 87.7804 42.7507 87.5632C41.3484 86.4713 39.6025 83.8652 39.5902 83.509C39.9735 83.6016 44.5309 88.395 46.4269 88.6008C48.1073 88.7277 49.7949 88.73 51.4756 88.6076C51.2826 88.3987 47.1367 82.6373 47.1075 82.3629C47.4576 82.4035 54.1995 89.3112 56.3879 89.1562C56.6878 89.136 57.4773 89.2942 57.779 89.1713C57.4619 88.7854 57.111 88.4284 56.7306 88.1047C54.9438 86.6994 53.7388 82.4979 53.8659 82.1887C54.1677 82.3466 55.3016 84.9175 56.0703 85.9327C58.4384 88.9592 59.764 88.9098 62.7064 87.6766C63.1376 87.4935 63.5545 87.2786 63.9539 87.0337C64.5183 86.6812 65.2597 86.3781 64.179 85.6703C62.9098 84.8535 61.6868 83.9672 60.5154 83.0155C57.4199 80.455 53.6869 79.2537 49.9186 78.3838C45.9374 77.4672 41.969 78.466 38.1312 79.6195C35.8211 80.3705 33.5748 81.3052 31.4138 82.4147M109.455 55.5392C109.762 55.5141 115.326 60.2078 116.469 61.2077C116.736 61.4419 117.238 61.3895 117.63 61.4651C117.523 61.1499 117.407 60.8346 117.319 60.5164C116.667 58.1888 115.831 52.5136 116.061 51.9992C116.328 52.4542 118.052 57.4234 118.715 59.4328C118.81 59.729 119.278 59.9087 119.599 60.1028C119.757 59.9949 119.88 59.843 119.953 59.666C120.56 57.293 122.226 51.8125 122.472 51.449C122.664 51.9078 122.098 58.5123 121.555 61.3332C121.27 62.8033 121.229 64.1855 121.812 65.6218C122.395 67.0581 122.74 68.5124 123.2 69.9618C123.31 70.313 123.444 70.6595 123.56 71.0142C123.889 70.7048 124.167 70.3461 124.384 69.951C125.078 68.0468 127.015 63.5844 127.351 63.2722C127.419 63.7613 126.063 69.5727 125.236 71.9639C124.726 73.4247 124.221 74.8361 124.952 76.3453C125.29 77.0446 125.651 77.7341 126.019 78.4323C127.211 77.9201 130.858 72.3269 131.309 70.3344C132.408 65.4596 133.624 60.7496 133.003 55.7783C132.624 52.7215 132.159 49.6973 130.389 47.0703C127.862 43.317 124.736 40.2271 120.45 38.5638C117.987 37.6128 115.473 36.7966 112.92 36.119C110.895 35.5822 109.978 36.2774 109.287 38.1525C108.005 41.6445 106.477 45.0601 105.385 48.6086C104.681 50.9382 104.298 53.3531 104.248 55.7863C104.164 59.8016 105.746 63.4795 107.263 67.1185C109.516 72.5287 113.218 76.4216 118.988 78.088C120.067 78.4021 121.155 78.7079 122.262 78.9369C122.423 78.9642 122.588 78.9568 122.746 78.9151C122.905 78.8734 123.052 78.7985 123.179 78.6952C123.294 78.5741 122.636 76.8095 122.526 76.2855C122.262 74.9902 111.776 65.6059 111.845 65.2187C112.175 65.3223 118.343 69.9432 120.284 71.3256C120.565 71.5242 121.073 71.4017 121.477 71.4313C121.377 71.0684 121.292 70.704 121.18 70.3476C120.769 69.0531 120.491 67.6856 119.888 66.4851C119.356 65.448 118.622 64.5279 117.728 63.7791C116.322 62.6118 109.917 57.9917 109.465 55.5275M99.1138 127.979C99.3077 127.816 99.5173 127.673 99.7394 127.551C105.132 125.258 108.606 121.531 108.833 115.384C108.844 115.066 108.642 114.74 108.539 114.418C107.719 114.785 106.93 115.217 106.179 115.71C104.217 117.24 102.07 123.26 102.021 123.899C101.96 123.405 103.942 115.365 103.772 115.285C102.844 114.855 99.8361 116.089 99.3168 116.974C98.3452 118.625 96.3351 122.039 95.9651 122.243C95.9594 121.808 97.8289 118.126 98.1537 116.655C98.3069 115.95 92.5075 117.213 91.3341 119.423C90.9279 120.2 88.98 122.644 88.5204 122.788C88.5697 122.339 90.1022 119.681 90.7775 118.787C90.9287 118.512 91.0418 118.218 91.1135 117.913C90.8975 116.906 86.4896 116.384 86.0982 116.637C86.3338 115.171 91.6791 116.188 93.7836 115.846C94.9148 115.665 96.7685 115.093 97.883 114.795C101.029 113.962 104.086 112.819 107.008 111.385C107.222 111.281 107.453 111.186 107.668 111.105C107.544 110.88 107.48 110.574 107.285 110.442C103.884 107.864 100.567 105.123 96.3218 103.96C91.1176 102.534 85.9402 103.103 81.0696 105.05C76.3816 106.881 72.3042 109.995 69.3047 114.036C68.0778 115.705 66.8762 117.68 67.9626 119.945C69.1032 122.324 70.9712 124.278 73.2962 125.525C75.3375 126.712 77.4874 127.703 79.7167 128.482C82.225 129.32 84.823 129.862 87.4574 130.095C91.3852 130.379 95.1555 129.173 99.1 127.981M132.953 144.578C131.02 144.617 126.542 144.269 126.233 144.06C126.479 143.804 129.242 142.922 130.368 142.708C130.963 142.587 131.532 142.432 132.113 142.287C131.603 141.899 131.078 141.525 130.571 141.108C129.385 140.13 126.904 137.113 126.969 136.634C126.987 136.518 131.594 138.837 133.173 140.31C136.317 143.281 139.858 141.886 143.327 141.537C143.392 141.528 143.538 140.952 143.439 140.853C142.311 139.706 138.285 133.881 138.355 133.409C138.694 133.586 141.632 136.159 142.786 137.221C144.737 139.014 146.373 141.385 149.54 141.06C150.375 140.974 151.217 140.957 152.055 140.907C151.696 140.141 151.384 139.351 150.974 138.615C147.883 133.016 142.68 130.688 136.724 130.112C131.559 129.617 126.577 130.944 121.759 132.997C117.035 135.013 112.67 137.479 109.193 141.335C108.439 142.167 107.774 142.925 108.757 144.009C109.434 144.756 110.014 145.612 110.773 146.264C115.576 150.374 120.283 154.633 126.461 156.724C128.896 157.544 131.347 157.868 133.849 157.155C139.062 155.668 143.09 152.64 146.405 148.721C147.358 147.591 148.248 146.409 149.073 145.181C149.189 145.009 148.88 144.278 148.79 144.278C147.908 144.313 146.781 144.147 146.221 144.623C144.067 146.454 138.983 151.386 138.449 151.845C138.514 151.11 141.688 146.28 143.077 144.796C143.248 144.546 143.38 144.271 143.469 143.982C143.209 143.975 142.954 143.95 142.697 143.962C141.527 144.011 140.361 144.036 139.187 144.134C137.318 144.266 135.682 144.81 134.401 146.351C133.508 147.43 130.385 149.488 129.929 149.625C130.065 149.109 132.313 146.347 133.271 145.448C133.57 145.173 134.365 144.726 132.966 144.585M74.4359 29.3495C74.8762 29.8864 75.2163 30.7552 76.3222 32.5211C77.0422 33.6707 77.8245 34.6024 78.0891 35.0129C78.2399 34.5347 78.795 31.5994 78.9438 31.1417C79.8237 28.5101 80.5019 24.5553 80.8526 24.1903C80.7167 27.7459 80.3086 31.2859 79.632 34.7793C79.2906 36.505 79.7539 40.2754 79.8829 40.5242C80.9744 38.6841 81.8743 36.7369 82.5684 34.7132C83.2916 32.6041 84.2347 28.4813 84.4389 28.4542C84.6431 28.4271 84.1386 32.3304 83.9404 33.0644C83.1716 36.0762 82.2131 39.0363 81.0707 41.9271C80.8296 42.4374 80.7021 42.9938 80.6968 43.5582C80.8355 45.0514 81.0975 46.5401 81.3494 48.0234C81.4531 48.3403 81.5989 48.6417 81.7831 48.9196C82.0227 48.734 82.3793 48.6053 82.4883 48.3557C83.8432 45.5839 85.583 42.9099 86.4305 39.9936C88.0574 34.3314 87.9943 28.3173 86.249 22.6905C84.8004 17.9557 82.1499 13.8013 78.8013 10.2058C76.7017 8.02793 74.3838 6.07171 71.8841 4.36801C70.1521 3.14684 68.2899 3.80936 67.5011 5.76315C66.5291 8.21849 65.702 10.7287 65.024 13.2809C62.8333 21.3243 64.0344 29.2071 66.5148 36.9474C67.9933 41.4627 70.4431 45.5992 73.6919 49.066C74.8985 50.3751 76.3957 51.426 77.8291 52.4996C78.2546 52.8172 79.0362 53.0317 78.9231 51.9189C78.7005 49.8679 78.6354 47.8129 78.2838 45.7937C78.0757 44.5405 77.8516 42.8472 76.9288 42.209C74.7133 40.6658 74.1644 40.2621 72.2281 38.9859C71.5026 38.5071 69.1752 35.7826 69.1426 35.4157C69.0398 35.7938 72.396 38.1366 74.8231 39.3414C75.573 39.7284 76.4059 39.9269 77.2497 39.9198C77.1917 39.6261 75.5634 36.762 74.5062 36.0838C72.3105 34.6676 70.2166 33.2139 68.5895 31.1235C67.8722 30.1998 66.8216 27.6596 66.9107 27.3737C67.1718 27.5102 68.5426 29.5703 69.168 30.2817C70.8569 32.1713 75.9542 34.8592 76.0957 34.1429C75.9982 33.8587 75.2015 31.8486 75.0816 31.5742M176.085 115.541C176.138 115.241 175.79 110.805 175.434 110.295C174.093 108.402 168.995 97.0642 169.081 96.643C169.453 96.9716 176.39 107.66 176.576 107.61C176.761 107.561 176.786 103.402 176.709 101.635C176.634 99.7472 176.443 97.2637 174.84 95.6649C173.34 94.1639 171.763 90.938 171.936 90.4842C171.978 90.4028 176.326 96.9518 177.237 96.6125C177.249 96.2601 178.411 88.4992 178.703 88.3112C178.836 88.6268 179.386 96.1948 179.441 96.4697C179.648 96.28 184.333 90.8239 184.654 90.6894C184.694 91.0736 178.878 99.6085 179.231 101.84C179.44 103.175 179.227 104.571 179.252 105.927C179.315 106.359 179.429 106.781 179.592 107.185C179.892 106.909 184.02 101.585 184.46 101.379C184.408 101.784 181.865 108.387 180.477 110.389C179.65 111.581 179.156 112.674 179.096 114.02C179.145 114.472 179.262 114.914 179.441 115.332C179.863 115.122 180.259 114.864 180.621 114.563C182.214 112.952 183.572 111.124 184.653 109.133C185.245 108.02 185.714 106.846 186.052 105.632C186.703 103.265 187.566 100.914 187.875 98.498C188.381 94.5349 187.63 90.5967 186.411 86.8416C185.165 83.1587 183.156 79.7799 180.516 76.9251C177.876 74.0704 174.665 71.8038 171.09 70.2731C170.81 70.1567 166.068 75.3499 164.673 82.6479C163.079 91.0119 163.506 102.333 167.689 107.073C171.111 110.94 175.764 115.395 176.101 115.493L176.085 115.541ZM33.169 60.2864C36.878 60.3696 41.5628 56.7876 41.815 56.6604C41.5837 56.3926 34.9218 51.2886 31.7176 49.1505C30.9399 48.6314 28.7248 47.7146 27.7514 47.7841C24.619 47.9938 17.693 49.2808 17.681 48.3461C17.6777 47.9644 23.9546 46.6056 26.4059 46.303C26.7775 46.2371 27.1453 46.1513 27.5077 46.0459C27.2894 45.6596 27.0149 45.3079 26.6933 45.0024C25.6592 44.2715 24.585 43.5843 23.4893 42.9464C22.6831 42.4816 21.8589 41.6963 20.9625 41.7672C19.7129 41.8693 10.5233 41.6225 10.5879 41.2677C10.6526 40.9128 19.3526 39.8585 19.6791 39.7875C19.5798 39.5067 19.5701 39.1043 19.3742 38.9587C17.9844 37.9337 16.5857 36.9258 15.129 36.004C14.7381 35.7607 12.6721 34.7405 12.1739 34.7519C10.6483 34.7873 8.04587 35.2138 7.5377 34.8314C8.07075 34.415 12.6842 33.0497 12.4744 32.8234C11.6787 31.9754 7.17042 26.2792 5.65031 24.3311C5.4463 24.0689 4.52548 24.0709 4.16858 24.3074C3.96693 24.4837 3.80318 24.6991 3.68726 24.9406C3.57135 25.1821 3.50567 25.4446 3.49423 25.7122C3.30055 29.6571 3.34109 33.6165 4.71713 37.359C6.35101 41.7892 8.79153 45.5358 11.6597 49.4802C18.8365 59.2797 27.5113 60.1641 33.1636 60.2966L33.169 60.2864ZM6.37995 22.5234C6.55688 22.8621 13.252 29.5208 13.5494 29.7282C13.7149 29.4148 13.8598 29.091 13.983 28.7588C14.298 27.7274 15.5022 25.1445 15.8166 24.8902C15.9187 25.2976 14.9806 28.8661 14.8673 30.0073C14.8567 30.3934 14.928 30.7774 15.0763 31.1341C15.2246 31.4908 15.4467 31.812 15.728 32.0768C17.1093 33.5637 18.7795 34.7957 20.3507 36.1012C20.5797 36.2264 20.8302 36.3076 21.0891 36.3407C21.086 36.0411 21.1052 35.7402 21.0781 35.4453C20.8851 33.5523 21.4959 27.7615 21.7257 27.6442C21.8046 27.8237 22.2601 32.6738 22.4963 35.6647C22.7041 38.2477 26.1468 40.0701 27.5376 41.3244C27.6773 41.4536 28.0247 41.359 28.2778 41.3705C28.2809 41.1087 28.3752 40.6312 28.3697 40.3692C28.3478 38.1986 28.596 33.3322 28.7602 32.9604C29.0337 33.2632 29.7715 38.3085 29.7725 40.6841C29.7691 43.6792 32.7176 45.2906 34.8199 46.6623C36.7819 47.939 38.64 49.373 40.5421 50.7393C41.1351 51.1661 42.9067 51.9977 43.2183 51.988C43.1372 51.7469 42.8016 43.8936 42.1109 41.7964C39.4031 33.5744 31.2516 28.0324 23.439 25.3017C19.7895 24.0232 15.4773 22.5751 12.0835 22.1947C10.1775 21.9793 8.24864 22.0905 6.37995 22.5234V22.5234ZM228.295 199.411C223.44 192.264 209.918 173.139 198.029 160.041C193.705 155.28 188.77 151.112 183.351 147.648C183.504 147.266 195.55 161.37 205.055 173.562C210.764 180.867 215.308 187.808 216.489 189.678C219.188 194.013 222.31 202.4 224.045 204.646C224.651 205.429 226.99 204.251 227.772 203.573C228.671 202.786 228.985 200.428 228.302 199.415L228.295 199.411Z"
					fill="#D6A66B"
				/>
			</svg>