<svg width="295" height="194" viewBox="0 0 295 194" fill="none" xmlns="http://www.w3.org/2000/svg">
<path d="M111.806 19.9555C110.239 16.582 108.899 13.1959 107.06 10.1161C104.376 5.63005 100.691 2.23442 95.3574 0.973136C94.2871 0.692852 93.1641 0.681757 92.0885 0.940836C91.0129 1.19991 90.0181 1.72112 89.1928 2.45798C83.9827 6.75633 79.994 12.3487 77.6265 18.6745C76.5057 21.822 75.8086 25.1045 75.5534 28.4358C75.1266 33.5085 75.9189 38.5094 77.2574 43.46C78.1545 46.7705 79.9971 49.4379 82.0975 51.9501C83.706 53.9073 85.5426 55.6653 87.5684 57.1865C89.8449 58.7922 92.2661 60.1824 94.8004 61.3393C96.0373 61.9314 95.8084 62.5499 95.5641 63.488C94.7245 66.7 93.7999 69.9022 93.1916 73.1638C92.9078 74.7042 93.2849 76.3644 93.3361 77.9628C93.3223 78.4395 93.2791 78.9149 93.2066 79.3863C92.8369 79.2125 92.4847 79.0036 92.1548 78.7627C86.3887 73.5905 80.6196 68.4216 74.8766 63.2228C71.6985 60.3448 68.642 57.3272 65.3945 54.529C63.604 53.0841 61.7161 51.7644 59.7441 50.5791C58.0118 49.4623 58.956 49.1628 58.8965 46.8561C58.8221 44.1102 59.154 41.8638 58.2488 36.496C57.5023 32.0666 55.2657 27.6308 52.5019 24.1496C48.2846 18.8422 42.5328 16.317 36.3825 14.3503C32.4216 13.0092 28.301 12.1969 24.1275 11.9344C18.7394 11.6887 13.483 11.9022 8.39427 13.8623C7.35706 14.2619 6.25316 14.51 5.2376 14.9518C0.20824 17.1388 0.0539142 18.9263 0.976655 23.8713C2.07649 29.7066 5.12062 34.5767 8.55587 39.2325C11.832 43.4999 15.7463 47.237 20.1609 50.312C27.0527 55.1441 35.4095 57.2737 42.3045 55.6478C45.887 54.8005 49.2766 53.2421 52.7367 51.9786C54.4514 51.351 56.0441 51.3533 57.4629 52.5886C63.2478 57.6253 69.0736 62.6216 74.8209 67.7015C79.8671 72.1709 84.8381 76.7267 89.8144 81.2697C90.2364 81.6371 90.4318 82.2512 90.7319 82.752C90.255 82.6288 89.7449 82.3424 89.2701 82.3846C85.9319 82.656 82.554 82.7585 79.2818 83.3969C76.8477 83.8712 74.5575 85.0726 72.201 85.9475C70.7513 86.4787 69.6436 86.7176 68.5695 84.912C67.7925 83.6105 66.1472 82.6219 64.6747 81.9649C59.3067 79.5321 53.5102 78.1859 47.6194 78.0042C40.0046 77.8 32.6386 78.9807 25.6836 81.9972C20.1355 84.4044 14.7268 87.2016 10.459 91.6873C9.21848 92.9847 7.58512 94.1563 6.9441 95.7245C5.30832 99.6161 7.41979 103.417 10.8643 105.452C15.8392 108.393 21.0376 111.044 26.8249 112.052C29.8773 112.581 32.9616 112.905 36.0572 113.022C43.0637 113.281 49.2896 110.786 55.0743 107.148C57.3754 105.699 59.3949 103.789 61.4769 102.015C62.6829 100.986 63.7866 99.832 64.885 98.6912C66.3823 97.1325 67.1179 95.2611 67.4657 93.1105C67.5882 92.6091 67.8177 92.1401 68.1384 91.7358C68.4592 91.3314 68.8637 91.0013 69.3241 90.768C73.3516 89.1749 77.4512 87.7672 81.5558 86.3874C85.8041 84.9632 90.0684 85.4397 94.2911 86.581C94.8054 86.7322 95.278 86.9998 95.6723 87.363C98.3262 89.7963 100.89 92.3202 103.584 94.707C108.494 99.0578 113.413 103.405 118.43 107.633C121.579 110.275 124.871 112.768 128.226 115.168C132.349 118.121 136.594 120.894 140.78 123.762C141.016 123.927 141.093 124.321 141.247 124.607C140.909 124.78 140.573 125.107 140.241 125.092C135.352 124.924 130.449 124.692 125.527 124.548C122.954 124.47 120.378 124.598 117.806 124.479C117.486 124.413 117.185 124.277 116.925 124.081C116.665 123.884 116.451 123.633 116.3 123.344C114.767 120.14 112.542 117.502 110.142 114.904C105.535 109.911 99.5118 109.066 93.3312 108.919C89.4562 108.795 85.5799 109.115 81.7774 109.87C77.1748 110.823 73.175 113.223 69.7612 116.6C66.7187 119.612 63.4007 122.342 60.2785 125.284C58.0679 127.367 57.5486 130.694 59.3282 133.219C61.5147 136.273 63.8917 139.185 66.4451 141.939C70.757 146.628 76.4415 148.767 82.5349 150.001C86.1582 150.737 89.62 149.861 93.0752 148.979C98.8101 147.511 103.957 144.947 108.29 140.816C110.332 138.867 116.996 131.742 116.929 129.552C116.88 128.025 117.591 127.376 119.017 127.415C123.506 127.533 127.995 127.737 132.487 127.792C135.16 127.868 137.835 127.747 140.49 127.429C144.471 126.882 147.569 128.336 150.682 130.625C154.388 133.332 158.397 135.631 162.351 137.987C166.305 140.343 170.254 142.531 174.243 144.719C178.795 147.199 183.297 149.751 187.996 151.962C193.316 154.467 198.813 156.6 204.217 158.934C204.526 159.069 204.682 159.561 204.91 159.882C204.582 160.011 204.244 160.278 203.93 160.25C195.704 159.513 187.857 161.502 180.176 164.05C178.198 164.705 176.811 164.152 175.368 163.205C168.61 158.776 161.315 156.286 153.145 157.123C145.876 157.862 139.374 160.567 133.384 164.756C129.866 167.213 126.62 169.895 124.033 173.309C123.054 174.513 122.256 175.852 121.663 177.286C120.745 179.776 122.261 181.551 123.758 183.38C126.44 186.743 130.012 189.284 134.067 190.715C137.468 191.888 141.053 192.889 144.617 193.171C151.563 193.721 158.196 192.06 164.263 188.661C166.593 187.326 168.734 185.579 170.799 183.838C172.417 182.509 173.886 181.009 175.183 179.366C177.307 176.618 179.321 168.44 179.321 168.44C179.321 168.44 187.046 165.72 191.028 165.005C196.024 164.097 201.144 163.993 206.176 163.28C209.074 162.883 211.409 163.636 213.873 165.127C217.451 167.269 221.167 169.172 224.996 170.822C230.543 173.233 236.184 175.416 241.856 177.557C244.565 178.578 247.4 179.294 250.183 180.069C258.862 182.52 267.528 184.972 276.236 187.349C279.717 188.343 283.245 189.161 286.808 189.8C291.631 190.6 294.993 186.236 294.086 181.44C293.31 177.347 290.097 177.441 287.504 177.058C280.783 176.055 273.955 175.846 267.274 174.797C261.528 173.883 255.882 172.296 250.229 170.845C246.388 169.908 242.598 168.772 238.874 167.442C231.888 164.865 224.966 162.123 218.108 159.217C216.705 158.62 215.649 157.076 214.588 155.831C212.655 153.564 210.628 151.349 208.95 148.889C205.929 144.448 203.123 139.855 200.26 135.307C199.239 133.682 198.4 131.935 197.316 130.355C196.409 128.981 196.404 128.001 197.527 126.671C203.575 119.529 206.071 111.188 204.781 101.968C204.437 99.3377 202.9 96.6741 201.349 94.4299C199.672 92.0187 197.625 89.8862 195.285 88.1104C189.929 84.0777 184.452 80.1502 177.829 78.3036C173.129 76.9923 172.065 77.859 170.402 82.2115C167.161 90.7108 166.297 99.5328 167.177 108.506C167.76 114.418 169.672 120.025 173.591 124.547C177.345 128.884 181.898 132.276 187.983 132.661C189.29 132.768 190.605 132.697 191.893 132.45C193.183 132.177 193.772 132.789 194.292 133.721C196.436 137.585 198.475 141.516 200.745 145.303C202.492 148.215 204.539 150.943 206.439 153.765C206.592 154.037 206.721 154.322 206.826 154.616C206.434 154.603 205.986 154.709 205.66 154.553C197.618 150.753 189.535 147.028 181.573 143.063C176.35 140.46 171.254 137.584 166.188 134.68C162.153 132.364 158.263 129.801 154.286 127.378C153.386 126.828 152.315 126.521 151.506 125.875C150.726 125.317 150.129 124.541 149.79 123.645C148.799 120.153 147.903 116.627 147.176 113.074C146.813 111.304 146.881 109.441 146.759 107.623C146.556 104.736 146.269 101.851 146.213 98.9698C146.205 98.2553 146.867 96.9979 147.406 96.8888C153.082 95.7376 156.153 91.881 158.145 86.8625C159.645 83.0802 159.699 79.12 158.887 75.2415C158.06 71.1798 157.285 67.0178 155.661 63.2267C154.215 59.8355 151.831 56.7901 149.559 53.8245C148.032 51.841 146.021 50.2126 144.143 48.5251C141.082 45.7952 137.244 44.8551 133.342 44.6878C131.939 44.6349 130.203 45.8104 129.079 46.8998C122.122 53.7231 119.934 62.3681 120.551 71.7311C120.896 77.0502 122.469 82.275 125.58 86.7003C128.275 90.5418 131.978 93.5643 136.282 95.4346C137.454 95.9468 138.656 96.3915 139.872 96.8071C141.277 97.3064 141.918 98.1395 141.974 99.7594C142.044 103.522 142.304 107.279 142.753 111.016C143.246 114.764 143.635 118.637 146.48 121.61C146.658 121.794 146.634 122.171 146.704 122.465C146.375 122.448 145.961 122.554 145.725 122.396C143.767 121.076 141.837 119.717 139.9 118.352C135.833 115.488 131.755 112.645 127.722 109.735C125.825 108.364 123.959 106.938 122.186 105.412C115.515 99.656 108.968 93.7571 102.214 88.1285C99.5634 85.9198 98.6975 83.0162 97.7521 80.0026C96.3732 75.595 98.2245 71.5698 99.1315 67.4351C99.3811 66.303 99.9968 65.2269 100.103 64.0923C100.367 61.2261 102.315 59.7268 104.288 58.004C106.625 55.9906 108.944 53.7693 110.579 51.2143C112.281 48.5547 113.076 45.3271 114.437 42.4288C116.17 38.7272 115.786 34.841 115.13 31.1329C114.474 27.4247 112.944 23.7801 111.792 19.9783M78.7195 24.7726C78.7804 23.9472 78.9075 23.128 79.0997 22.323C81.1654 15.8085 85.0938 10.0417 90.3999 5.73455C91.3603 4.9468 93.0595 4.59199 94.3405 4.73762C98.5512 5.20841 101.725 7.66201 103.636 11.2771C105.937 15.5897 107.948 20.05 109.659 24.6287C111.127 28.6179 111.975 32.8843 111.429 37.1814C110.66 43.3711 107.92 49.1489 103.613 53.6602C103.009 54.2423 102.373 54.7908 101.709 55.3032C101.562 54.5264 99.8591 49.551 100.229 48.1733C100.545 46.9648 106.957 40.198 107.052 39.8604C106.731 39.8264 99.0193 46.3021 98.6764 46.4008C98.6238 45.4145 97.7001 43.9327 98.0907 43.1687C99.1956 40.9938 102.602 36.3365 102.677 35.8879C102.36 36.4001 97.357 41.7705 96.5338 41.7431C96.0415 41.0808 94.3392 37.3263 95.4526 35.5443C96.5094 33.8474 99.1724 31.5805 99.2571 31.4497C99.0883 31.402 97.7253 32.1489 95.9512 33.5425C94.9353 34.3404 93.6757 35.9951 92.7031 36.1997C92.0722 36.3339 89.3397 34.9771 88.9915 34.7732C87.2328 33.7269 83.7064 32.9465 83.3193 33.0826C83.5792 33.4549 90.6295 36.3337 91.6447 38.2808C92.4849 40.0298 93.1945 41.8386 93.7676 43.6924C93.4627 43.573 85.5466 41.541 85.2402 41.6246C85.4304 41.9831 95.6636 46.3187 96.4143 48.7306C96.5183 49.0607 97.0188 49.8411 97.0135 50.2162C96.4667 50.0378 95.9369 49.8111 95.4303 49.5387C93.1745 48.2114 88.1637 48.6797 87.8854 48.9456C88.1811 49.2031 91.4134 49.3418 92.8243 49.7408C97.0623 51.0122 97.5649 52.4545 97.4753 56.1268C97.4596 56.6659 97.4038 57.2031 97.3085 57.734C97.1669 58.487 97.1526 59.4092 95.9407 58.5468C94.533 57.5279 93.0699 56.5876 91.5584 55.7302C87.5153 53.4835 84.6627 49.9835 82.1508 46.3068C79.4995 42.4213 78.9077 37.7469 78.5367 33.1478C78.374 30.3557 78.4351 27.555 78.7195 24.7726ZM82.5995 119.728C82.7011 120.068 90.0662 124.068 91.6178 124.875C91.9805 125.063 92.1348 125.623 92.3803 126.012C91.9974 126.03 91.6107 126.038 91.2324 126.076C88.4629 126.352 82.0264 127.834 81.5713 128.296C82.1712 128.392 88.2224 128.158 90.6554 128.027C91.013 128.006 91.4015 128.431 91.7445 128.695C91.695 128.91 91.5837 129.105 91.4243 129.257C89.1335 130.902 83.9543 134.986 83.6677 135.402C84.24 135.416 91.0859 132.041 93.8837 130.277C95.3407 129.355 96.8059 128.732 98.5906 128.756C100.375 128.779 102.079 128.539 103.826 128.425C104.249 128.396 104.677 128.394 105.106 128.371C104.912 128.852 104.644 129.301 104.311 129.7C102.56 131.242 98.5857 135.189 98.3917 135.68C98.9447 135.548 104.609 131.659 106.827 129.769C108.18 128.611 109.482 127.478 111.406 127.629C112.298 127.699 113.188 127.796 114.092 127.899C114.042 129.392 109.572 135.647 107.624 136.965C102.857 140.187 98.3147 143.464 92.7232 144.881C89.2862 145.756 85.8482 146.524 82.2894 145.727C77.205 144.589 72.5817 142.533 69.002 138.633C66.9496 136.389 65.0209 134.036 63.2246 131.582C61.8003 129.635 62.1619 128.361 63.883 126.834C67.0905 123.995 70.1134 120.926 73.4614 118.268C75.6646 116.536 78.0941 115.114 80.6823 114.04C84.9535 112.268 89.5609 112.424 94.0989 112.525C100.845 112.674 106.571 115.014 110.776 120.503C111.565 121.529 112.349 122.568 113.059 123.658C113.155 123.82 113.217 124 113.238 124.187C113.26 124.374 113.241 124.563 113.183 124.743C113.102 124.917 110.934 124.951 110.326 125.053C108.826 125.312 94.3681 117.999 93.9816 118.235C94.2311 118.546 101.771 123.224 104.067 124.727C104.398 124.944 104.479 125.541 104.68 125.961C104.249 126.007 103.823 126.068 103.394 126.097C101.833 126.199 100.25 126.474 98.7102 126.33C97.3749 126.194 96.0804 125.792 94.903 125.148C93.062 124.129 85.4231 119.196 82.5913 119.744M155.953 78.2829C155.859 78.5593 155.793 78.8441 155.756 79.1335C155.557 85.8766 153.015 91.1643 146.518 93.9836C146.182 94.1287 145.748 94.0493 145.36 94.0731C145.41 93.0401 145.542 92.0128 145.756 91.001C146.575 88.2558 152.131 83.4311 152.796 83.1104C152.24 83.2518 144.448 88.7463 144.291 88.5979C143.441 87.7823 143.504 84.0401 144.236 83.112C145.6 81.3783 148.418 77.7922 148.482 77.31C148.013 77.486 144.848 81.0337 143.407 81.9983C142.714 82.4584 141.639 75.7097 143.517 73.525C144.18 72.7641 145.985 69.6509 145.947 69.0977C145.485 69.3388 143.278 72.0958 142.601 73.1949C142.37 73.4721 142.102 73.7165 141.805 73.9213C140.635 74.1115 138.228 69.6033 138.335 69.0775C136.862 69.9444 140.192 75.2507 140.708 77.6508C140.988 78.9398 141.151 81.1675 141.298 82.4876C141.723 86.2112 141.779 89.9677 141.465 93.7022C141.443 93.9754 141.438 94.2631 141.441 94.5283C141.148 94.4892 140.793 94.5481 140.57 94.3949C136.38 91.8274 132.05 89.4193 129.024 85.3536C125.314 80.3702 123.755 74.5792 123.802 68.5397C123.801 62.7452 125.432 57.0675 128.509 52.1573C129.784 50.1424 131.399 48.026 134.284 48.2418C137.313 48.4683 140.191 49.6528 142.503 51.6238C144.631 53.3154 146.594 55.2061 148.364 57.2703C150.314 59.6089 151.984 62.1682 153.338 64.8956C155.288 68.9889 155.575 73.5376 155.949 78.2676M187.934 107.617C187.165 105.528 184.917 100.872 184.562 100.628C184.391 100.998 184.603 104.331 184.846 105.629C184.965 106.317 185.037 106.993 185.125 107.677C184.496 107.293 183.874 106.886 183.215 106.516C181.669 105.655 177.394 104.258 176.907 104.529C176.79 104.597 181.208 108.566 183.45 109.642C187.953 111.769 187.94 116.151 189.02 120.017C189.037 120.091 188.481 120.489 188.333 120.424C186.63 119.695 178.697 117.818 178.219 118.091C178.552 118.38 182.542 120.453 184.164 121.246C186.905 122.587 190.134 123.347 191.112 126.88C191.37 127.812 191.704 128.722 192.002 129.641C191.03 129.578 190.052 129.573 189.091 129.443C181.791 128.474 177.114 123.87 174 117.724C171.305 112.393 170.641 106.493 170.824 100.466C171.005 94.5545 171.822 88.8397 174.5 83.4957C175.076 82.338 175.61 81.308 177.185 81.908C178.269 82.3202 179.43 82.5834 180.448 83.1251C186.868 86.5533 193.408 89.8172 198.24 95.5661C200.139 97.833 201.514 100.327 201.798 103.308C202.387 109.522 200.828 115.11 198.014 120.307C197.201 121.803 196.307 123.254 195.336 124.652C195.199 124.849 194.286 124.824 194.248 124.727C193.916 123.766 193.266 122.628 193.542 121.828C194.603 118.751 197.762 111.231 198.03 110.467C197.269 110.844 193.42 116.272 192.41 118.384C192.214 118.672 191.974 118.928 191.701 119.145C191.585 118.869 191.451 118.606 191.357 118.326C190.919 117.051 190.457 115.79 190.071 114.489C189.429 112.429 189.326 110.447 190.442 108.428C191.225 107.018 192.123 102.806 192.079 102.259C191.583 102.622 189.562 106.19 189.001 107.593C188.831 108.03 188.684 109.071 187.948 107.629M39.8385 93.1471C40.5988 93.3943 41.6731 93.395 44.0303 93.8409C45.5649 94.1314 46.8919 94.5799 47.4429 94.6917C46.9933 95.0538 44.078 96.8792 43.6495 97.2304C41.196 99.2768 37.2389 101.661 36.9945 102.19C40.7507 100.555 44.3761 98.6337 47.8389 96.4443C49.5467 95.355 53.7842 94.272 54.1051 94.306C52.5891 96.2476 50.8779 98.0286 48.9985 99.6211C47.0398 101.28 43.0135 104.019 43.07 104.25C43.1265 104.48 47.1011 102.304 47.8052 101.783C50.713 99.6967 53.4859 97.4284 56.1074 94.9919C56.5536 94.5196 57.0969 94.1496 57.6999 93.9075C59.3594 93.4306 61.0657 93.0877 62.762 92.7363C63.1453 92.7147 63.5297 92.7448 63.9049 92.8259C63.8062 93.1606 63.8177 93.5969 63.5957 93.8184C61.1908 96.4329 59.0522 99.4193 56.2798 101.55C50.8892 105.668 44.413 108.12 37.6473 108.606C31.9625 109.037 26.3966 107.935 21.1375 105.851C17.9221 104.512 14.8529 102.845 11.9783 100.879C9.94292 99.5329 9.87308 97.2582 11.6378 95.5935C13.8637 93.5223 16.2092 91.5834 18.6622 89.7868C26.3701 84.067 35.3272 82.0518 44.6675 81.4684C50.1294 81.162 55.592 82.0559 60.6713 84.0873C62.5809 84.8327 64.3352 85.998 66.0873 87.0853C66.6062 87.4085 67.1638 88.1569 65.923 88.5019C63.6301 89.1226 61.399 89.9139 59.0863 90.3829C57.6551 90.6849 55.7452 91.1542 54.6741 90.432C52.0907 88.7026 51.4278 88.2832 49.2477 86.7414C48.4303 86.164 44.5332 84.8096 44.1261 84.9284C44.4885 84.6597 48.4073 87.2773 50.7164 89.3753C51.4457 90.0174 52.0075 90.8274 52.3535 91.7353C52.0142 91.7962 48.2604 91.2501 47.09 90.4005C44.6512 88.6393 42.2147 87.0028 39.2911 86.1339C38 85.7516 34.8355 85.6894 34.5662 85.9047C34.8221 86.1275 37.6058 86.7344 38.6308 87.107C41.365 88.1264 46.3835 92.4666 45.6747 92.9185C45.329 92.933 42.8394 92.9209 42.495 92.9072M174.868 166.041C174.568 166.224 169.665 167.709 168.97 167.542C166.377 166.897 152.082 166.18 151.666 166.449C152.174 166.711 166.544 169.671 166.568 169.891C166.593 170.111 162.144 171.88 160.215 172.538C158.16 173.248 155.417 174.084 153.03 173.034C150.792 172.056 146.672 171.716 146.257 172.091C146.188 172.171 155.033 174.089 155.051 175.209C154.678 175.369 146.842 179.867 146.763 180.26C147.157 180.27 155.503 177.688 155.821 177.632C155.705 177.933 151.816 185.244 151.807 185.644C152.236 185.527 158.952 175.713 161.493 175.157C163.012 174.821 164.42 174.008 165.885 173.467C166.374 173.353 166.874 173.299 167.376 173.304C167.206 173.741 163.226 180.399 163.19 180.957C163.602 180.732 169.617 175.238 171.183 172.91C172.115 171.524 173.08 170.536 174.498 169.908C175.004 169.771 175.527 169.711 176.05 169.728C176.001 170.268 175.89 170.801 175.72 171.316C174.66 173.7 173.268 175.922 171.585 177.916C170.64 179.016 169.578 180.011 168.418 180.883C166.152 182.573 163.992 184.483 161.531 185.827C157.493 188.03 152.954 188.875 148.417 189.142C143.945 189.348 139.479 188.61 135.312 186.975C131.144 185.34 127.367 182.845 124.228 179.654C123.986 179.402 127.568 172.141 134.81 167.587C143.112 162.372 155.431 158.085 162.268 160.586C167.85 162.635 174.576 165.758 174.823 166.078L174.868 166.041ZM55.7238 35.9274C57.3673 39.8702 55.489 46.3954 55.4583 46.7191C55.0741 46.5833 46.8088 41.5776 43.1732 39.0373C42.2906 38.4207 40.3792 36.4294 40.0458 35.3564C38.9581 31.9092 37.4361 23.9422 36.4286 24.321C36.0179 24.4775 37.191 31.7785 37.8936 34.5341C37.9787 34.9602 38.0408 35.3906 38.0796 35.8234C37.5739 35.7512 37.0817 35.6042 36.6192 35.3872C35.4021 34.5846 34.215 33.7205 33.0718 32.8127C32.2355 32.143 31.0479 31.588 30.7483 30.597C30.3342 29.2142 26.2187 19.4623 25.8653 19.6804C25.5119 19.8984 28.0268 29.6704 28.0874 30.0503C27.7447 30.0615 27.3091 30.2196 27.0708 30.0706C25.3893 29.0096 23.7222 27.932 22.1232 26.756C21.6985 26.4387 19.7387 24.6507 19.5422 24.1115C18.9409 22.4606 18.3077 19.491 17.6847 19.1062C17.4615 19.8524 17.9306 25.3721 17.5999 25.242C16.357 24.744 8.35911 22.296 5.63292 21.4821C5.26628 21.3732 4.88255 20.3849 4.98663 19.903C5.0912 19.6129 5.25361 19.347 5.464 19.1215C5.67439 18.896 5.92838 18.7156 6.21058 18.5912C10.36 16.7304 14.6232 15.1147 19.2135 15.0222C24.6491 14.918 29.6898 15.9653 35.1218 17.3884C48.6384 20.9787 53.2219 29.9112 55.7325 35.9174L55.7238 35.9274ZM4.00005 23.0221C4.43742 23.07 14.3839 27.4597 14.7309 27.6918C14.4643 28.0006 14.1777 28.2916 13.8731 28.563C12.899 29.333 10.6336 31.7068 10.4925 32.1506C10.9723 32.0893 14.4061 29.5879 15.5825 28.9882C15.9922 28.8151 16.4339 28.7306 16.8785 28.7402C17.3232 28.7498 17.7608 28.8533 18.1626 29.044C20.336 29.9024 22.3571 31.1772 24.4156 32.3152C24.6458 32.5084 24.8378 32.7429 24.9818 33.0067C24.6592 33.129 24.3446 33.2756 24.017 33.3701C21.906 33.9564 15.9517 37.038 15.9222 37.3336C16.1477 37.343 21.54 35.7991 24.8465 34.7992C27.7037 33.9396 31.1007 36.868 33.0286 37.8339C33.2257 37.9296 33.2699 38.3418 33.3882 38.6084C33.1088 38.7215 32.6362 39.0227 32.353 39.1266C30.016 40.0126 24.9011 42.318 24.5712 42.6499C25.0105 42.8163 30.7304 41.4934 33.2785 40.499C36.4891 39.2403 39.4527 41.7272 41.8047 43.4069C43.9961 44.976 46.3125 46.3678 48.5749 47.8352C49.281 48.2923 50.9153 49.8437 51.0355 50.182C50.7429 50.196 42.1801 53.127 39.6415 53.265C29.6894 53.8064 20.3302 47.3868 14.1279 40.1525C11.2276 36.7744 7.86767 32.7567 6.03758 29.2766C5.00786 27.3227 4.31881 25.2076 4.00005 23.0221ZM286.691 186.888C276.992 184.677 250.815 178.189 231.786 170.927C224.868 168.286 218.331 164.739 212.345 160.38C211.999 160.704 232.173 167.712 249.231 172.797C259.457 175.859 268.805 177.823 271.305 178.306C277.085 179.383 287.388 179.218 290.524 180.137C291.617 180.458 291.334 183.46 290.934 184.584C290.468 185.878 288.071 187.202 286.697 186.894L286.691 186.888Z" fill="#425742"/>
</svg>
