<svg viewBox="0 0 110 264" fill="none" xmlns="http://www.w3.org/2000/svg">
                <path
                    d="M1.10185 110.885C0.718464 104.852 0.0579318 98.8289 0.00250268 92.7825C-0.0667837 85.5536 1.29585 79.6782 3.05572 72.7264C5.78099 61.9824 10.5156 52.0283 18.502 44.1296C24.3266 38.3696 31.4354 32.8544 39.4034 30.6465C45.7685 28.8866 45.8701 29.9998 52.4662 28.9605C52.7234 28.937 52.9699 28.846 53.1807 28.6968C53.3916 28.5475 53.5594 28.3454 53.6671 28.1106C54.2538 25.9766 54.2029 23.7132 54.5078 21.5238C55.9628 11.1216 57.0714 3.29684 64.3696 -4.61104C65.5613 -5.89977 69.7878 -9.44725 71.8155 -8.953C72.6705 -8.67634 73.4991 -8.32388 74.2914 -7.89984C72.2405 -3.28074 67.5798 -1.89502 64.3095 1.7125C58.6788 7.88822 57.6719 21.5746 56.6649 27.9258C56.5541 28.6002 57.792 29.5518 58.1754 29.7458C61.5796 31.4594 65.104 32.9329 68.5129 34.642C77.8111 39.3211 85.137 46.7117 91.9686 54.4764C108.316 73.0082 110.907 101.175 108.334 124.687C107.683 130.613 106.879 134.073 105.387 139.893C102.209 152.244 99.2252 162.679 94.7632 174.633C87.7237 193.571 77.2661 210.92 66.0925 227.632C59.3578 237.702 52.3045 247.194 45.3712 257.134C43.8146 259.361 39.8283 263.347 39.8283 263.347C38.5029 261.068 37.4059 258.664 36.5534 256.169C34.9182 251.273 33.8743 246.603 32.7011 241.573C31.5832 236.774 30.3915 231.988 29.1351 227.226C22.964 204.089 14.3171 181.723 8.25683 158.549C4.19202 142.997 2.71391 126.821 1.0649 110.885M50.1428 49.7649C46.9833 52.9244 39.7498 84.1079 38.3271 92.1174C36.558 102.108 35.6619 114.368 35.1353 124.414C34.775 131.287 34.424 138.165 34.3639 145.048C34.2762 155.487 34.1838 162.286 35.5141 173.838C36.267 180.37 37.7082 189.248 39.1077 195.673C39.9946 199.747 41.191 203.752 41.9808 207.844C43.5975 216.246 42.7291 214.024 44.3319 221.184C46.0087 216.893 46.9463 209.729 47.3621 206.574C48.7478 196.015 50.3645 185.52 51.7363 174.961C53.4824 161.501 55.4732 148.087 55.6395 134.479C55.8889 114.123 54.1937 93.8311 52.9188 73.5348C52.2398 62.7538 52.032 62.8139 52.5216 52.0098C52.7572 46.7671 53.9073 46.6239 52.383 43.2982C50.8218 45.6632 51.1543 45.774 50.1428 49.7649M62.4065 186.643C60.4156 192.8 58.0599 200.209 55.9397 205.581C52.4061 214.482 46.9556 223.083 45.0941 232.639C43.3573 241.573 42.8307 240.769 43.4174 246.552C45.5883 243.388 45.5144 243.268 48.1935 237.817C52.3876 229.267 56.5079 220.694 60.8729 212.223C68.7254 196.902 70.2451 196.121 76.5547 181.141C81.802 168.67 83.7651 159.2 87.2156 145.218C88.1394 141.579 89.0632 137.939 89.5806 134.23C91.285 122.562 90.1764 110.672 89.285 99.0275C88.6937 91.5169 86.8415 83.3873 83.6912 76.4587C78.9336 65.9733 75.0258 56.8183 66.6006 49.1413C60.545 43.6308 61.2009 42.6238 56.7434 41.1965C57.9028 45.714 59.5565 44.7624 62.5774 50.1206C64.1106 52.8681 65.3581 55.7655 66.3003 58.7675C68.6099 65.9595 70.3513 73.3177 72.3052 80.6112C73.6909 85.6922 78.1252 101.374 79.1368 109.287C80.1717 117.476 80.2585 125.757 79.3955 133.966C78.955 138.084 78.1418 142.153 76.9658 146.124C72.0973 162.014 68.4759 171.801 62.4249 186.643M75.5478 191.262C69.8062 203.271 63.3118 214.93 57.2746 226.801C52.6786 235.84 48.212 243.619 44.1934 252.926C43.8403 253.748 43.592 254.611 43.4543 255.495C44.4844 254.765 44.9694 253.957 45.5052 253.37C46.9879 251.753 47.5006 250.354 50.5354 245.707C54.3369 239.887 70.5037 215.179 74.6101 207.83C80.7766 196.777 88.0055 179.857 92.3289 168.517C96.5277 157.487 101.401 142.188 104.195 129.042C105.697 122.003 106.292 112.46 105.895 105.407C104.893 87.623 99.059 68.754 86.532 55.7051C85.3633 54.4856 77.5848 46.0835 73.7602 43.6539C63.358 37.0486 63.8615 35.9815 56.4201 33.9953C56.3092 34.8637 55.9212 35.7598 56.1522 36.6051C56.337 37.2841 57.0298 37.7137 57.5379 38.1756C59.5934 39.9586 61.7921 41.5706 63.8707 43.3305C66.5359 45.5939 69.2335 47.8295 71.7647 50.2592C74.2649 52.7096 76.4272 55.4823 78.1945 58.5042C82.3009 65.9779 86.9107 74.0198 89.6868 82.3111C91.856 88.9845 93.1646 95.9074 93.5807 102.912C93.7655 105.753 94.9387 126.308 93.2158 134.239C90.4767 146.84 88.5136 152.882 86.2133 161.741C83.7836 171.03 78.5733 184.869 75.5293 191.243L75.5478 191.262ZM5.43918 114.247C7.74872 129.407 8.7603 144.567 12.1923 159.57C16.9222 180.231 24.5899 200.052 29.9573 220.542C30.7472 223.577 35.8328 243.596 37.0661 249.642C37.8421 253.416 37.5003 252.557 38.7752 256.077C39.8422 252.381 39.3664 252.34 39.0939 245.721C38.7197 236.556 37.3663 229.882 35.0614 220.533C28.2529 192.86 18.8161 165.612 15.4534 137.167C13.5457 121.001 15.2086 104.958 18.502 89.175C20.6683 78.7867 22.5806 69.0727 27.0196 59.4373C29.2375 54.6638 31.8195 50.0681 34.7427 45.6909C39.5004 38.7299 40.609 39.4736 42.5952 34.3233C40.475 34.4249 40.5489 34.6143 38.147 35.6212C31.8835 38.2449 26.4884 42.2035 21.5829 46.9473C3.37444 64.5368 2.15038 90.6716 5.41608 114.252M60.8267 182.291C65.6075 170.744 70.5822 158.9 73.4923 146.66C76.2637 134.913 76.5363 122.266 75.6355 110.275C74.9473 101.138 72.4345 93.4153 70.1481 84.0247C68.1618 75.8536 65.2241 63.8993 61.9399 55.9822C58.7851 48.3792 58.9283 47.8757 55.5148 44.4345C55.0529 47.0858 55.6025 47.0396 55.6672 49.6956C56.0136 64.6615 55.6118 64.6014 56.8312 79.4657C58.3878 98.404 60.0646 117.084 59.2193 136.091C58.5736 151.862 56.9926 167.581 54.4847 183.164C53.5147 189.072 52.3784 194.948 51.3299 200.842C50.2582 206.846 49.9441 206.227 49.9441 211.378C52.3276 207.682 51.9719 207.747 53.7133 202.689C56.0598 195.885 58.531 189.123 60.8267 182.301M18.4974 111.093C18.4974 121.966 18.4973 132.364 20.1233 143.2C23.3843 164.711 29.2645 185.506 35.0707 206.412C36.5996 211.923 37.5603 217.286 38.8537 222.852C39.9068 227.397 40.8769 231.984 42.2949 236.709C42.803 232.963 42.5998 232.935 42.4566 228.247C42.2995 223.106 38.9923 206.68 38.632 204.953C35.4587 189.904 31.1075 173.413 30.9273 157.916C30.5855 129.278 31.0289 102.404 37.9576 74.4586C42.7799 55.0214 45.071 51.6818 51.353 33.538C51.4264 33.1796 51.4467 32.8123 51.413 32.4479C49.3883 32.8821 47.5727 33.9952 46.2673 35.6028C42.0039 41.5014 37.953 47.5385 33.9805 53.6403C23.1673 70.3153 20.83 91.9003 18.5112 111.106L18.4974 111.093Z"
                    fill="#F2CB9C" />
            </svg>