 <svg class="benefits-section__svg-2" viewBox="0 0 145 216" fill="none"
                    xmlns="http://www.w3.org/2000/svg">
                    <path
                        d="M78.0535 16.1246C78.1875 11.6071 78.303 7.28826 78.4646 2.96941C78.4877 2.29502 78.5062 1.44973 78.8988 1.00629C79.3607 0.461242 80.2846 -0.0745727 80.9312 0.00857097C81.4809 0.0824765 82.2615 0.983199 82.3493 1.60216C82.9821 5.91639 83.3978 10.2676 84.0075 14.5864C84.5803 18.6743 85.3563 22.7345 85.9429 26.827C86.2062 28.6747 86.1647 30.5223 86.3771 32.3699C86.8391 36.5733 87.4303 40.7674 87.9338 44.9662C88.1185 46.4905 88.2756 48.0194 88.3264 49.5483C88.4927 54.5046 88.6959 59.4609 88.7052 64.4172C88.7052 68.4497 88.4834 72.4868 88.3356 76.5192C88.2248 79.4293 88.04 82.3393 87.9522 85.2539C87.7906 90.5382 87.9245 95.8455 87.4903 101.107C86.9638 107.458 86.0538 113.786 85.1438 120.1C84.7263 123.379 84.0545 126.621 83.1345 129.796C82.0167 133.431 80.049 136.641 76.7232 138.808C76.3851 139.075 76.1621 139.462 76.0997 139.889C75.6655 143.214 75.2821 146.545 74.8941 149.875C74.8378 150.134 74.8378 150.402 74.8941 150.66C75.0544 151.056 75.2395 151.442 75.4484 151.815C75.6723 151.535 75.8776 151.24 76.0627 150.933C76.9865 149.145 77.7117 147.201 78.885 145.589C80.6495 143.168 82.4971 140.711 84.7281 138.738C89.047 134.914 91.1071 130.059 92.3034 124.627C93.1764 120.655 94.2804 116.733 95.1442 112.756C95.874 109.412 96.2204 105.975 97.075 102.668C98.5023 97.1527 99.7771 91.5405 101.883 86.2701C104.77 79.0366 108.35 72.071 111.676 65.0223C115.08 57.7934 118.494 50.5692 122.004 43.3911C122.392 42.6105 123.501 41.6127 124.198 41.6682C125.505 41.7744 125.944 43.0539 125.926 44.3703C125.884 47.6915 126.171 51.0357 125.852 54.3245C125.421 59.0014 124.73 63.6507 123.783 68.251C122.457 74.5145 120.743 80.6949 119.21 86.9168C117.759 92.7784 116.406 98.6678 114.868 104.506C112.96 111.744 111.122 119.015 108.863 126.147C106.844 132.507 103.92 138.618 99.4076 143.538C95.4259 147.875 90.4004 151.136 84.1646 151.349C82.9313 151.39 81.6795 150.425 80.4046 150.009C79.9427 149.866 79.1113 149.81 78.9404 150.055C77.0604 152.785 74.3213 155.035 74.483 158.896C74.5985 161.797 74.2751 164.721 74.1319 167.631C74.0164 169.94 73.8502 172.25 73.7624 174.587C73.8286 175.01 73.9677 175.418 74.1735 175.793C74.5015 175.571 74.9356 175.423 75.1343 175.118C76.6124 172.901 78.2106 170.739 79.4116 168.384C79.952 167.331 79.5316 165.829 79.7949 164.587C80.4555 161.506 82.3585 159.118 84.3725 156.794C87.6058 153.099 91.994 151.039 95.8463 148.217C100.29 144.956 104.835 141.704 108.706 137.824C112.373 134.129 115.311 129.699 118.406 125.482C124.799 116.83 129.469 107.121 135.035 97.9749C137.007 94.7415 139.118 91.6098 141.234 88.4781C141.76 87.6928 142.573 86.7551 143.626 87.508C144.49 88.127 145.146 88.8522 144.582 90.3673C142.056 97.1712 139.852 104.095 137.377 110.922C134.028 120.16 130.845 129.449 126.97 138.452C125.251 142.438 122.3 146.023 119.381 149.321C115.339 153.898 110.863 158.097 106.447 162.347C103.144 165.515 99.1489 167.645 95.061 169.682C92.2434 171.067 89.5181 172.541 86.2848 172.338C84.9424 172.183 83.6389 171.787 82.4371 171.169C81.1437 170.564 80.34 170.739 79.6102 171.977C77.8826 174.897 76.0719 177.765 74.3305 180.675C74.1457 181.075 74.0646 181.515 74.095 181.955C74.095 186.504 74.0673 191.05 74.095 195.599C74.1775 196.147 74.3328 196.682 74.5569 197.188C75.0188 196.944 75.4807 196.727 75.9426 196.459C77.3084 195.756 78.6304 194.97 79.9012 194.107C80.6264 193.562 81.5179 192.639 81.5456 191.853C81.7858 185.585 85.6058 181.613 90.271 178.37C96.4283 174.093 102.89 170.268 109.057 166.01C112.29 163.774 115.237 161.095 118.221 158.508C121.205 155.921 124.365 153.298 127.09 150.365C130.734 146.438 134.018 142.175 137.511 138.106C138.014 137.519 138.841 137.219 139.52 136.785C139.982 137.63 140.841 138.452 140.906 139.325C141.215 143.833 139.257 147.75 137.418 151.695C134.446 158.142 130.805 164.259 126.554 169.945C125.554 171.21 124.484 172.417 123.348 173.562C120.577 176.509 117.829 179.493 114.951 182.338C109.49 187.763 102.937 191.963 95.7262 194.657C92.6785 195.885 89.4596 196.634 86.1831 196.879C84.9314 196.953 83.6473 196.5 82.3955 196.565C81.3452 196.589 80.3184 196.88 79.4116 197.41C77.8916 198.455 76.4553 199.616 75.1158 200.884C74.9213 201.081 74.7687 201.316 74.6671 201.574C74.5655 201.832 74.517 202.108 74.5245 202.385C74.8525 205.789 75.2636 209.184 75.6839 212.575C75.8456 213.914 75.6516 215.346 74.3583 215.679C73.6469 215.859 72.3305 214.967 71.7716 214.201C70.0024 211.775 69.6976 208.824 69.3465 205.928C69.2033 204.731 69.1572 203.517 68.9308 202.339C68.6213 200.717 66.2887 199.738 65.2355 200.879C62.7412 203.6 59.4155 203.267 56.5609 202.727C51.5954 201.761 46.7777 200.015 41.9322 198.468C40.7662 198.059 39.697 197.415 38.7912 196.574C32.5786 190.98 26.2735 185.488 20.3149 179.636C12.6056 172.111 7.27517 163.053 4.09262 152.748C2.67917 148.184 1.37659 143.575 0.166387 138.955C-0.0554625 137.85 -0.0554625 136.712 0.166387 135.607C0.199746 135.203 0.349801 134.818 0.598264 134.498C0.846728 134.178 1.18287 133.937 1.56573 133.805C1.94859 133.673 2.36164 133.655 2.75454 133.753C3.14743 133.852 3.50321 134.062 3.77852 134.36C5.0811 135.648 6.01416 137.32 7.3306 138.595C11.8619 142.983 16.5272 147.233 21.0678 151.612C24.4397 154.845 27.7793 158.143 30.985 161.552C33.8852 164.542 36.6148 167.692 39.1608 170.989C41.0592 173.529 42.3941 176.49 43.9831 179.257C45.743 182.315 48.7315 183.848 51.6693 185.442C55.4385 187.484 59.397 189.239 62.9121 191.65C64.7921 192.939 65.8961 195.345 67.3834 197.235C67.7839 197.685 68.2145 198.108 68.6722 198.5C68.8078 197.97 68.8989 197.429 68.9447 196.884C68.9447 191.281 68.9447 185.678 68.9678 180.075C68.9678 178.832 69.2542 177.765 68.2611 176.504C66.3672 174.107 64.2748 175.077 62.1408 175.58C57.2029 176.712 52.7455 175.349 49.0087 172.319C44.7868 168.887 40.9345 164.993 36.999 161.233C31.6039 156.028 28.3613 149.455 25.4144 142.697C23.7792 138.956 21.7191 135.366 20.4165 131.523C18.6474 126.364 17.2709 121.061 15.9729 115.758C14.9706 111.657 14.347 107.444 13.5618 103.287C13.541 103.024 13.541 102.76 13.5618 102.497C13.4278 97.7347 13.3585 92.9771 13.1368 88.2194C13.049 86.1223 12.4624 84.0668 12.4624 81.9975C12.4624 80.8519 12.3608 79.2722 14.0329 78.7641C15.705 78.256 16.481 79.069 17.1739 80.4362C20.823 87.6328 24.5644 94.7554 28.195 101.984C31.0266 107.596 33.3777 113.486 36.6018 118.853C41.2763 126.613 43.6875 135.339 47.5906 143.385C49.1149 146.54 51.4891 148.9 54.1544 151.145C59.3924 155.552 63.9838 160.439 65.5035 167.566C65.9007 169.437 67.5959 171.03 68.7368 172.73C68.8338 172.878 69.3281 172.975 69.3881 172.897C69.5536 172.666 69.6468 172.391 69.656 172.107C69.8316 168.961 70.081 165.816 70.1179 162.67C70.1179 160.859 70.626 158.975 69.402 157.238C68.5204 155.913 67.7891 154.494 67.2218 153.007C66.2656 150.674 64.8244 148.974 62.1869 148.66C59.5494 148.346 57.4755 146.813 55.5031 145.237C51.5122 142.041 47.7292 138.572 45.9093 133.634C44.8931 130.863 44.0016 127.971 43.7383 125.066C43.2764 120.207 43.6136 115.273 43.1748 110.41C42.8791 107.176 41.9138 103.984 41.0869 100.816C39.0915 93.1479 36.8651 85.5357 35.0128 77.831C34.2322 74.5977 34.2414 71.1749 33.738 67.8584C33.0543 63.3548 32.1859 58.8743 31.4746 54.3707C31.0958 51.9965 30.8187 49.6038 30.6108 47.2111C30.2875 43.5158 30.0658 39.7836 29.8071 36.0698C29.7863 35.8733 29.7863 35.6751 29.8071 35.4786C30.0057 34.1945 29.9873 32.4254 31.6547 32.4854C32.5231 32.5177 33.7472 33.8711 34.1075 34.855C35.6503 39.1 36.7866 43.4973 38.3524 47.7377C40.0384 52.3059 42.0477 56.7541 43.8953 61.2577C45.1702 64.3571 46.5975 67.4104 47.6276 70.5883C48.7454 74.0341 49.5814 77.5816 50.399 81.1198C51.9834 88.1917 53.4292 95.2912 54.9812 102.368C55.7849 106.063 56.7549 109.689 57.517 113.38C58.2792 117.07 59.4247 120.724 61.4802 124.003C63.8498 127.782 64.4688 132.165 65.4157 136.406C66.1224 139.574 66.5012 142.817 67.0416 146.023C67.1277 146.316 67.2536 146.595 67.4158 146.854C68.3396 148.702 69.2634 150.582 70.2149 152.42C70.4702 152.788 70.7766 153.118 71.1249 153.399C71.1988 153.039 71.2958 152.683 71.342 152.319C71.8778 148.055 72.4182 143.792 72.9033 139.524C72.9167 139.024 72.78 138.531 72.5106 138.11C70.1272 133.953 68.2934 129.574 68.1825 124.678C68.0209 117.611 67.8084 110.543 67.8222 103.481C67.8222 100.16 68.2841 96.8386 68.5751 93.5221C69.105 87.9966 70.0547 82.5195 71.4159 77.1382C72.3628 73.3413 73.0141 69.4705 73.6885 65.6135C74.5384 60.745 75.3144 55.858 76.0581 50.971C76.2745 49.3869 76.4102 47.7928 76.4646 46.1949C76.7463 40.2363 76.968 34.2776 77.2729 28.3236C77.4808 24.3281 77.7902 20.3418 78.0535 16.1477M28.4075 111.865C27.0541 109.324 25.613 106.83 24.3704 104.238C22.2965 99.8964 20.3518 95.4898 18.3333 91.1202C18.134 90.7909 17.9035 90.4815 17.645 90.1964C17.4741 90.5844 17.1416 90.9816 17.1831 91.365C17.2478 93.0279 17.451 94.6815 17.5434 96.3444C17.7005 99.2544 17.5434 102.206 18.0053 105.07C18.712 109.661 19.8853 114.183 20.6936 118.765C21.8676 125.163 23.8869 131.376 26.6985 137.242C29.1604 142.489 31.53 147.866 34.6341 152.716C38.7127 159.104 44.8376 163.589 50.8794 168.056C54.062 170.407 57.4062 171.839 61.4802 170.827C62.5888 170.555 62.7643 170.254 62.4502 169.155C60.5056 162.356 55.6925 157.7 50.5099 153.45C46.6488 150.381 43.62 146.391 41.7013 141.847C39.6504 136.9 37.7519 131.884 35.5994 126.978C33.3592 121.943 30.9388 117.029 28.4075 111.865ZM95.0657 125.907C94.9153 126.172 94.7841 126.449 94.673 126.733C93.9109 129.186 93.3658 131.731 92.3635 134.078C90.7653 137.828 87.8876 140.683 85.0053 143.487C84.1092 144.36 83.2084 145.233 82.3632 146.157C82.1812 146.474 82.062 146.824 82.0121 147.187C82.3345 147.328 82.6777 147.415 83.0283 147.445C83.7723 147.36 84.5109 147.234 85.2408 147.067C89.398 146.244 93.3658 144.983 96.2435 141.695C100.236 137.201 103.287 131.952 105.214 126.258C107.985 117.869 109.898 109.199 112.055 100.617C113.602 94.4552 114.937 88.2379 116.378 82.0437C117.441 77.48 118.568 72.9256 119.579 68.3527C120.314 65.0177 120.914 61.655 121.57 58.3015C121.972 56.2276 122.415 54.1443 122.72 52.0657C122.803 51.5068 122.452 50.8786 122.3 50.2828C121.926 50.6985 121.413 51.0495 121.205 51.5345C120.097 54.1074 119.205 56.7772 117.972 59.29C114.586 66.2648 111.362 73.3367 107.533 80.0759C103.897 86.478 101.883 93.3512 100.23 100.4C99.3614 104.095 98.9642 107.901 98.1928 111.624C97.232 116.28 96.1049 120.899 95.0518 125.944M81.1945 23.0856C81.0929 22.6236 80.9867 22.1617 80.885 21.6998C80.6849 22.0889 80.53 22.4996 80.4231 22.9239C80.2217 24.2433 80.0892 25.5723 80.0259 26.9055C79.8642 33.109 79.7718 39.3171 79.6056 45.5205C79.5594 47.3127 79.4208 49.1095 79.2083 50.8879C78.5924 56.089 77.935 61.2854 77.236 66.4773C76.774 70.0848 76.2521 73.6923 75.647 77.2814C74.7832 82.3624 73.5453 87.4434 72.9679 92.5521C72.3674 97.8733 72.2289 103.259 72.1457 108.622C72.0439 113.114 72.1827 117.609 72.5614 122.087C72.9171 125.994 73.767 129.861 74.5245 133.717C74.6539 134.369 75.1943 135.237 76.2244 134.129C78.9265 131.242 80.0028 127.759 80.8989 123.967C82.4232 117.551 83.0976 111.061 83.5456 104.534C83.8274 100.446 83.869 96.3444 83.9613 92.2472C84.1184 85.3602 84.2662 78.4731 84.354 71.5907C84.414 66.8653 84.4695 62.14 84.354 57.4239C84.2154 52.4538 83.9706 47.4836 83.5595 42.5319C83.19 38.0607 82.5294 33.6125 82.0167 29.1366C81.7904 27.1781 81.6149 25.215 81.2176 23.0578M19.7005 173.576C20.3567 174.442 21.0615 175.27 21.8115 176.056C27.2435 181.16 32.7864 186.172 38.1908 191.331C40.0384 193.105 41.8583 194.777 44.385 195.489C45.4381 195.789 46.4405 196.255 47.4844 196.583C52.4222 198.135 57.2861 199.78 62.6396 198.172C64.7228 197.544 63.8452 196.939 63.1754 196.075C60.9213 193.17 57.4755 192.144 54.3992 190.578C50.3205 188.514 45.8261 186.962 42.7821 183.433C40.4342 180.626 38.4192 177.557 36.7773 174.287C34.6525 170.213 31.1605 167.358 28.2782 164C26.3012 161.691 23.8577 159.778 21.6452 157.667C19.1693 155.349 16.712 153.007 14.3101 150.623C11.6633 148.009 9.072 145.339 6.45759 142.697C6.0973 142.337 5.70468 142.018 5.32591 141.681C5.25663 142.309 5.01182 142.983 5.16425 143.528C5.48758 144.762 6.12502 145.912 6.44374 147.145C8.94415 156.788 13.4661 165.79 19.7098 173.553M115.45 149.025C121.191 143.371 124.97 136.443 127.834 129.052C131.353 119.966 134.508 110.733 137.778 101.55C138.032 100.83 137.959 99.9981 138.037 99.2174C137.479 99.7832 136.978 100.402 136.54 101.065C131.63 110.16 127.118 119.481 120.799 127.754C116.932 132.835 113.653 138.378 108.581 142.406C102.858 146.942 96.9133 151.21 91.2226 155.801C87.6751 158.656 84.1045 161.608 82.9682 166.425C82.7281 167.451 82.9128 167.991 83.8644 167.991C86.1739 167.991 88.6451 168.402 90.7191 167.686C96.3775 165.737 101.597 162.85 105.907 158.568C109.034 155.464 112.138 152.342 115.45 149.03M58.6533 143.709C59.9236 144.452 61.2077 145.177 62.4687 145.949C63.7297 146.72 63.7898 145.889 63.7713 145.025C63.6825 144.609 63.5605 144.202 63.4064 143.806C62.4826 139.247 61.7989 134.618 60.5425 130.152C59.6649 127.015 57.7295 124.188 56.7272 121.07C54.6994 114.779 52.9211 108.405 51.1566 102.026C50.108 98.229 49.2119 94.3812 48.3851 90.5243C47.4197 86.0299 46.579 81.5078 45.7384 76.9904C44.9393 72.6669 42.8745 68.8284 41.304 64.7913C38.9622 58.7865 37.0314 52.5877 34.902 46.4813C34.7314 46.1157 34.5207 45.7702 34.2738 45.4512C34.0936 45.8346 33.7149 46.2503 33.7611 46.6014C34.0197 48.583 34.3523 50.5599 34.7218 52.523C35.4239 56.246 36.2692 59.9459 36.8651 63.6874C37.4009 67.0593 37.327 70.556 38.1492 73.8494C40.177 82.0021 42.5974 90.0716 44.7684 98.1781C45.803 102.049 47.0178 105.924 47.5029 109.874C48.1357 114.992 47.8816 120.216 48.4729 125.338C48.8572 128.45 49.7123 131.486 51.0087 134.341C52.6439 137.985 55.5493 140.808 58.6718 143.709M120.184 160.125C118.983 161.196 117.745 162.231 116.581 163.358C109.694 169.982 101.823 175.248 93.7815 180.329C89.5043 183.031 86.0399 186.495 84.317 191.484C83.9059 192.671 84.2293 192.967 85.0884 192.925C87.1212 192.891 89.1466 192.671 91.1394 192.269C93.0275 191.781 94.8521 191.074 96.5761 190.163C100.008 188.412 103.713 186.929 106.66 184.546C111.505 180.629 115.898 176.153 120.351 171.76C122.254 169.798 123.987 167.678 125.533 165.423C130.529 158.5 134.641 150.98 137.774 143.039C137.9 142.547 137.965 142.041 137.968 141.533C137.477 141.797 137.024 142.125 136.619 142.508C133.617 146.124 130.771 149.898 127.644 153.386C125.482 155.806 122.947 157.889 120.184 160.125Z"
                        fill="#E59C42" />
                </svg>