<svg viewBox="0 0 144 224" fill="none" xmlns="http://www.w3.org/2000/svg">
                    <path
                        d="M81.1619 142.981C81.3651 139.415 81.5398 135.975 81.793 132.549C81.8536 131.704 82.2173 131.172 83.3297 131.008C85.3941 130.709 87.3871 130.038 87.9112 127.539C88.2856 125.756 87.4834 124.501 86.1998 123.439C85.1302 122.555 83.9786 122.683 82.7806 123.179C82.1962 123.391 81.6012 123.573 80.9979 123.724C81.3123 123.172 81.66 122.64 82.039 122.13C83.7825 120.045 85.665 118.066 87.2944 115.894C89.3053 113.217 88.6315 109.965 85.5117 108.66C83.3725 107.758 81.8393 106.093 80.5201 104.125C77.8889 100.203 73.8564 98.3134 69.4281 97.2046C68.305 96.9193 66.9858 97.9176 66.8325 99.0301C66.6428 100.251 66.5415 101.484 66.5294 102.72C66.5473 106.621 65.9839 110.439 65.3529 114.283C64.6861 118.344 64.4365 122.458 65.2423 126.601C65.8841 129.899 66.0731 133.283 66.5294 136.617C66.6828 137.743 67.05 138.841 67.296 139.957C67.3325 140.232 67.3456 140.508 67.3352 140.785C67.0536 140.646 66.6221 140.578 66.5152 140.353C65.9233 139.23 65.4456 138.057 64.868 136.916C63.3669 133.875 61.5379 130.948 60.4255 127.771C59.2489 124.416 58.6962 120.836 57.9796 117.331C57.3239 114.415 56.8228 111.466 56.4785 108.496C56.097 104.528 55.9723 100.531 55.8582 96.5414C55.8296 95.4112 56.1755 94.2524 56.4536 93.1364C56.639 92.3948 57.0561 91.9063 58.0295 91.9527C59.4271 92.024 60.7998 92.1238 62.1083 91.1184C64.08 89.5995 64.9 87.528 63.9909 85.3424C63.2065 83.4599 60.6643 82.1335 58.6214 82.5222C55.0025 83.2353 53.4265 87.3212 55.5087 90.3661C55.8225 90.8296 55.6264 91.7209 55.5087 92.3841C55.0417 94.8264 54.1432 97.2473 54.0826 99.6968C53.9792 103.676 54.3286 107.673 54.6459 111.652C54.7743 113.252 55.3269 114.818 55.6692 116.404C55.7548 116.836 55.8049 117.273 55.8189 117.713C55.7969 117.897 55.7426 118.075 55.6585 118.24C55.4517 118.126 55.1308 118.066 55.0524 117.884C54.6673 117.028 54.3393 116.14 53.9827 115.267C52.6386 111.908 51.2552 108.56 49.9574 105.18C47.9465 99.9511 45.9772 94.7111 44.0495 89.4605C43.8998 89.0505 44.1707 88.3338 44.4738 87.9273C48.5241 82.4509 53.8259 78.4647 59.8051 75.3307C62.1369 74.1078 64.6505 73.1915 66.8753 71.801C68.1838 70.9845 69.5672 69.6938 70.0592 68.314C70.7723 66.2924 70.3266 64.3707 67.3174 62.6272C65.7379 61.7109 63.891 60.7054 64.1941 58.4592C64.4116 56.8369 65.1318 55.2895 65.5383 53.6851C66.1765 51.1537 66.1979 48.7256 64.5399 46.4509C62.6824 43.9052 58.0865 44.2795 55.794 45.7128C53.5014 47.1461 52.2286 49.4601 50.9985 51.6564C49.4632 54.3585 48.2077 57.2101 47.2512 60.167C46.2672 63.2475 45.8251 66.4992 45.1298 69.676C44.4916 72.6139 43.8213 75.5482 43.2009 78.4933C42.9799 79.5308 42.8765 80.5933 42.6733 81.638C42.634 81.8447 42.3916 82.0123 42.2418 82.1977C42.085 82.0195 41.8211 81.8412 41.789 81.6558C41.0581 76.9174 40.5411 72.1326 39.5749 67.444C38.7976 63.6576 38.2949 59.7534 36.3197 56.2772C36.0095 55.7245 36.2056 54.8332 36.2947 54.1165C36.4338 52.972 36.8509 51.8418 36.8616 50.7009C36.9187 44.4257 37.0827 38.1399 36.8402 31.8719C36.5122 23.372 34.1091 15.5031 28.8537 8.62896C26.9319 6.11178 25.0815 3.55894 22.4788 1.6871C20.5142 0.260934 18.2573 -0.559112 15.9897 0.44277C14.9614 0.864083 14.0801 1.57923 13.4561 2.49876C12.8321 3.4183 12.493 4.5014 12.4813 5.61262C12.3958 9.49536 12.4599 13.3852 12.4599 17.268C12.4599 20.8334 12.4599 20.8334 8.87312 20.8334C7.58244 20.8334 6.28464 20.7514 5.00465 20.8548C2.88322 21.0223 2.29494 22.7337 2.09171 24.4202C1.79578 26.8589 2.6693 29.0837 3.51787 31.2979C4.99039 35.0915 7.422 38.2219 10.0711 41.281C13.3584 45.0639 17.2982 47.9911 21.3806 50.8043C23.2346 52.0807 24.8105 53.76 26.6752 55.0186C28.6861 56.3841 30.886 57.4324 33.4246 57.5144C35.0967 57.5643 34.8507 59.0511 35.0112 60.0102C35.8562 65.2763 36.5942 70.5602 37.3572 75.8406C37.3547 76.0375 37.3247 76.2331 37.2681 76.4218C36.9329 76.2578 36.4837 76.1829 36.2876 75.919C35.3356 74.6462 34.4621 73.3198 33.5458 72.022C29.2459 65.9216 24.0261 60.7731 17.6262 56.8904C15.6474 55.6889 13.6116 54.5658 11.5329 53.5461C10.2244 52.9043 9.63612 52.0557 9.67891 50.5903C9.75734 47.8236 7.68941 44.8857 4.20244 45.6629C2.9688 45.9446 1.70665 47.0035 0.904419 48.0553C-0.38269 49.7489 -0.0653687 51.9523 0.448059 53.7849C1.36794 57.0865 5.40753 57.5643 7.46121 55.7031C9.51489 53.842 10.9767 54.687 12.6204 55.7031C18.0933 59.076 23.2453 62.9053 27.4347 67.8255C31.0001 71.9792 34.3337 76.3184 37.5569 80.7323C38.516 82.0444 38.7798 83.877 39.2932 85.4886C39.3717 85.7346 39.09 86.0983 38.9724 86.4049C38.7484 86.2748 38.5328 86.1307 38.327 85.9735C33.9344 82.2013 29.6024 78.3542 25.135 74.664C21.5696 71.7166 17.9114 68.8762 14.1606 66.1427C11.6897 64.2888 8.83546 63.0109 5.80687 62.4025C4.13469 62.0852 2.35912 62.8946 2.32703 65.0873C2.2771 68.7668 4.42349 71.4623 6.03149 74.4144C6.61978 75.4841 7.28651 76.5537 7.86768 77.6233C8.58076 78.9568 8.18143 80.0763 7.09755 81.014C5.27205 82.5935 4.21669 84.419 4.14539 86.9932C4.05269 90.3269 6.71248 92.6087 9.36871 93.1756C13.419 94.0385 17.53 94.6018 21.6052 95.3612C26.3437 96.2276 31.0821 97.1796 35.9311 96.848C37.4112 96.7086 38.8699 96.3963 40.2773 95.9174C41.4004 95.5609 42.0065 95.3684 42.5627 96.8231C44.3133 101.387 46.2494 105.883 48.1925 110.372C50.5885 115.894 52.988 121.424 55.5444 126.865C56.885 129.718 58.5786 132.431 60.0725 135.223C60.2365 135.529 60.1295 135.975 60.1474 136.356C59.8223 136.322 59.5041 136.24 59.2025 136.114C56.942 134.802 54.6637 133.522 52.4603 132.117C49.9146 130.491 47.4509 128.734 44.9337 127.061C41.7035 124.922 38.5588 122.615 35.1788 120.74C31.3798 118.657 27.4671 116.788 23.4592 115.142C21.7015 114.408 19.7334 113.923 17.6761 114.55C15.3479 115.263 13.9895 117.335 14.6384 119.656C15.5119 122.801 16.553 125.906 17.2732 129.086C17.5411 130.53 17.5145 132.014 17.1948 133.447C16.9852 134.311 17.0355 135.218 17.3393 136.054C17.6431 136.89 18.187 137.618 18.9026 138.146C23.1811 141.512 28.1727 142.678 33.3069 143.601C37.4606 144.35 41.5751 145.313 45.7359 146.001C48.6346 146.475 51.5797 146.714 54.514 146.928C57.3663 147.127 60.2187 147.152 63.071 147.252C63.4275 147.252 63.8839 147.398 64.1406 147.231C65.8948 145.997 66.7041 147.167 67.5598 148.45C71.0718 153.72 74.5231 159.029 78.1634 164.206C80.488 167.511 83.1051 170.624 85.5688 173.832C85.7207 174.128 85.8208 174.448 85.8647 174.777C85.5474 174.745 85.1516 174.824 84.9234 174.663C81.383 172.246 77.1437 171.789 73.2075 170.513C69.4246 169.283 65.5632 168.27 61.684 167.379C58.7747 166.705 55.7904 166.309 52.824 165.921C51.4402 165.746 50.0398 165.746 48.656 165.921C45.7752 166.277 44.4132 168.802 45.6539 171.429C46.3838 173.021 47.2398 174.552 48.2139 176.007C49.066 177.241 48.7808 178.293 48.0499 179.28C44.8125 183.655 48.0499 186.746 51.6153 187.502C55.5928 188.326 59.7031 188.26 63.6522 187.31C67.2176 186.49 70.9006 186.176 74.4768 185.399C78.6518 184.493 82.7913 183.395 86.9022 182.225C87.9112 181.937 88.7883 181.099 89.6547 180.421C90.3678 179.851 90.8277 179.947 91.4873 180.607C93.8762 182.996 96.3292 185.324 98.8 187.631C99.5131 188.287 100.365 188.772 101.114 189.385C101.314 189.633 101.469 189.914 101.57 190.216C101.289 190.301 100.993 190.332 100.7 190.305C97.2847 189.178 93.7549 189.132 90.2109 189.085C87.7151 189.053 85.1944 188.7 82.7057 188.836C78.3203 189.078 73.8992 189.246 69.7668 191.103C69.4515 191.181 69.1219 191.179 68.8075 191.097C68.4932 191.016 68.2041 190.857 67.9663 190.636C66.6293 188.796 64.7574 188.946 62.9248 189.142C61.3739 189.31 60.8176 190.733 60.429 192.016C59.8657 193.82 61.438 196.879 63.2813 197.635C65.9946 198.748 69.2142 197.311 69.2249 194.016C69.2249 192.836 69.938 192.358 70.7759 192.191C73.2289 191.681 75.7104 191.15 78.2026 190.979C81.2003 190.787 84.2069 190.781 87.2053 190.961C92.8814 191.274 98.6146 191.157 104.141 192.811C105.514 193.225 106.705 194.237 107.96 195C108.091 195.079 108.106 195.357 108.177 195.524C107.91 195.624 107.621 195.842 107.382 195.799C103.528 195.086 99.7484 195.71 95.9726 196.426C91.7298 197.232 87.4881 198.048 83.2477 198.872C80.6556 199.372 78.0279 199.739 75.4893 200.43C71.1288 201.618 69.1857 207.308 72.3339 210.71C72.7031 211.077 72.9606 211.542 73.0767 212.05C73.1928 212.558 73.1627 213.088 72.99 213.58C72.2769 215.954 73.2681 217.659 75.5107 219.028C76.8941 219.873 78.2739 220.725 79.6252 221.62C82.0105 223.203 84.7451 224.037 87.3087 222.846C89.1983 221.973 90.7315 220.115 92.1256 218.45C94.1079 216.086 96.0012 213.715 98.4969 211.808C100.226 210.481 101.567 208.645 103.071 207.023C105.489 204.408 107.899 201.794 110.302 199.179C111.04 198.373 112.284 198.395 113.333 199.076C117.846 202.028 122.339 205.019 126.963 207.807C130.885 210.168 134.907 212.389 139.392 213.512C140.625 213.77 141.888 213.848 143.143 213.744C143.468 213.744 143.945 213.031 143.999 212.585C144.031 212.321 143.428 211.768 143.043 211.694C139.656 211.041 136.625 209.49 133.584 207.982C130.878 206.638 128.236 205.158 125.598 203.679C125.412 203.575 125.337 202.769 125.466 202.687C127.605 201.304 128.742 199.15 130.083 197.122C131.652 194.744 134.005 193.246 136.358 191.727C138.209 190.526 140.177 189.453 141.827 188.019C143.728 186.365 143.92 184.151 143.582 181.601C143.132 178.225 141.382 175.865 138.847 173.975C137.442 172.927 137.62 171.454 137.396 170.135C136.986 167.778 134.376 164.787 131.898 164.345C130.969 164.24 130.032 164.232 129.102 164.323C127.505 164.391 126.789 165.35 126.321 166.819C125.484 169.465 124.425 172.035 123.505 174.663C120.877 182.151 119.686 189.816 120.246 197.742C120.292 198.409 120.285 199.079 120.307 199.746C119.615 199.329 118.88 198.961 118.235 198.484C115.383 196.38 112.53 194.28 109.732 192.112C107.521 190.401 105.278 188.711 103.235 186.811C99.456 183.295 95.8229 179.626 92.1042 176.047C91.2948 175.266 91.3412 174.62 92.1612 173.932C93.6694 172.649 95.1954 171.379 96.6536 170.042C99.6878 167.258 102.775 164.527 105.66 161.596C107.717 159.507 109.671 157.26 110.555 154.33C111.5 151.199 110.755 148.468 108.587 146.129C107.517 144.999 106.248 144.086 105.196 142.956C104.716 142.424 104.438 141.74 104.412 141.023C104.462 138.774 103.663 137.055 101.731 135.886C99.2992 134.41 96.8105 133.119 93.8441 133.169C91.4446 133.212 89.7082 134.595 89.4265 136.955C89.2197 138.681 89.2376 140.435 89.095 142.168C88.7919 145.755 88.5031 149.331 87.6474 152.864C87.0876 155.167 86.9807 157.581 86.6562 159.942C86.4708 161.286 86.1285 162.619 86.0822 163.967C86.0358 165.315 86.2711 166.73 86.3353 168.114C86.3353 168.374 86.1143 168.645 85.9788 168.912C85.7782 168.728 85.5945 168.526 85.4297 168.31C84.8414 167.386 84.4314 166.284 83.6684 165.546C82.2422 164.17 81.9499 162.405 81.7965 160.665C81.4685 156.843 81.3152 153.003 81.1619 149.167C81.0799 147.149 81.1619 145.127 81.1619 142.956M27.1138 31.9717C26.2474 30.8023 25.4238 29.6043 24.4968 28.4848C24.2329 28.1639 23.6839 28.0783 23.2631 27.8822C23.363 28.3671 23.3416 28.9269 23.584 29.3084C24.6144 31.0269 25.9764 32.5921 26.7501 34.4105C28.8323 39.2987 30.6721 44.2831 32.5903 49.239C32.7115 49.5528 32.5903 49.9521 32.5546 50.3301C32.2694 50.109 31.8415 49.9486 31.7132 49.6562C29.4527 45.1174 25.5593 42.2865 21.3913 39.7657C20.557 39.3228 19.6563 39.0181 18.7244 38.8637C18.4142 38.7995 18.0113 39.1953 17.6547 39.3807C17.9149 39.6194 18.1912 39.8398 18.4819 40.0403C19.3376 40.543 20.2646 40.9494 21.0775 41.5021C25.3846 44.3972 28.679 48.2764 31.6775 52.4479C31.8665 52.7082 31.7381 53.1966 31.7595 53.5781C31.3879 53.5106 31.0277 53.3905 30.6899 53.2216C28.3795 51.66 26.0869 50.0733 23.798 48.4832C18.9454 45.1032 14.2319 41.5912 10.3991 36.9847C7.71078 33.8098 5.71005 30.1118 4.52332 26.1244C4.03485 24.4665 4.87985 22.8942 6.21332 22.9619C7.62605 23.0467 9.0302 23.2398 10.4134 23.5395C11.9679 23.864 14.3995 22.9905 14.7525 21.6926C15.0639 20.5598 15.2069 19.3873 15.1768 18.2128C15.0449 14.3764 14.699 10.5436 14.642 6.71077C14.617 5.12059 15.027 3.36641 16.6065 2.54636C18.186 1.72632 19.7405 2.30748 20.9706 3.43772C22.4302 4.71579 23.7781 6.11614 24.9995 7.62352C26.6075 9.70572 28.2405 11.845 29.4028 14.1874C31.8008 18.9832 33.1856 24.2215 33.4709 29.5758C33.7383 34.6636 33.7169 39.7657 33.7989 44.8643C33.7989 45.096 33.61 45.3278 33.5066 45.5774C33.3033 45.3848 33.0003 45.2208 32.9111 44.9962C32.1731 43.0103 31.6098 40.9459 30.7255 39.0348C29.6559 36.7209 28.3153 34.5353 27.096 31.986M36.12 140.842C35.4497 140.738 34.783 140.624 34.1091 140.539C30.0232 140.004 26.0976 138.959 22.4609 136.973C20.7317 136.025 19.6549 134.72 20.1006 132.638C20.6461 130.085 19.8296 127.685 19.2841 125.279C18.8171 123.207 18.1289 121.186 17.4658 119.168C17.1449 118.194 17.4658 117.513 18.3607 117.385C19.347 117.207 20.3614 117.267 21.32 117.56C23.3879 118.319 25.356 119.342 27.3812 120.209C34.7973 123.314 40.8656 128.623 47.7254 132.638C48.0026 132.845 48.2539 133.084 48.4742 133.351C48.0891 133.404 47.6791 133.575 47.3297 133.493C45.0585 132.973 42.8266 132.196 40.5304 131.892C38.2343 131.589 35.8633 131.704 33.528 131.714C33.2213 131.714 32.9183 132.178 32.6152 132.427C32.9432 132.588 33.2784 132.898 33.5993 132.884C37.4606 132.684 41.19 133.436 44.8696 134.449C49.1088 135.615 53.3196 136.895 57.5268 138.164C58.1115 138.342 58.6178 138.763 59.1633 139.073C58.5001 139.155 57.787 139.43 57.1881 139.287C51.9442 137.976 46.5476 137.376 41.1437 137.504C40.7301 137.504 40.3272 137.861 39.9208 138.057C40.3522 138.271 40.7729 138.635 41.2221 138.677C42.9549 138.845 44.7127 138.799 46.4348 139.034C49.5937 139.458 52.7313 140.022 55.8796 140.539C58.3076 140.934 60.757 141.252 63.1423 141.829C63.6593 141.954 63.9517 143.009 64.3474 143.637C63.8233 143.655 63.2778 143.69 62.7715 143.683C62.3258 143.683 61.8837 143.612 61.438 143.591C57.4519 143.384 53.4479 143.352 49.4832 142.935C45.055 142.467 40.6624 141.655 36.1022 140.842M8.46666 73.5088C7.2473 71.2662 5.97087 69.0449 4.83708 66.7702C4.59464 66.2924 4.59819 65.1657 4.76576 65.1051C5.41467 64.8734 6.27037 64.7058 6.8765 64.9482C10.5595 66.4312 13.9807 68.4957 17.0094 71.0629C19.088 72.81 21.1417 74.5927 23.2168 76.3433C25.7375 78.4826 28.2797 80.5862 30.7933 82.7254C30.9667 82.9471 31.0983 83.1983 31.1819 83.467C30.907 83.5051 30.6272 83.4894 30.3583 83.4207C25.6988 81.0494 20.512 79.9046 15.2873 80.0941C14.7489 80.0941 14.2177 80.5006 13.6829 80.7181C14.2267 80.9507 14.7898 81.1356 15.3657 81.2707C17.1021 81.5346 18.8848 81.5667 20.5855 81.9624C25.8665 83.2238 30.9461 85.2146 35.6779 87.8774C36.009 88.114 36.3138 88.3853 36.5871 88.6868C36.1863 88.8048 35.7738 88.879 35.357 88.9078C33.0609 88.833 30.7576 88.6012 28.4651 88.6725C27.4882 88.7046 26.5148 89.3214 25.5735 89.7421C25.3988 89.8206 25.381 90.2484 25.2883 90.5158C25.545 90.5943 25.8267 90.7832 26.0513 90.7298C26.6931 90.5871 27.317 90.1629 27.941 90.17C31.4101 90.2092 34.8828 90.252 38.3377 90.5265C39.0151 90.58 39.6141 91.6496 40.2523 92.2486C39.7068 92.5659 39.1827 92.9261 38.6123 93.1899C35.8811 94.4449 32.9575 93.903 30.1765 93.7211C26.2331 93.4573 22.3326 92.6515 18.4106 91.9563C15.5939 91.4535 12.7879 90.8403 10.0176 90.1129C8.267 89.653 7.1653 88.3053 7.21164 86.6901C7.2473 84.8147 8.28127 83.6809 9.49707 82.5864C10.4776 81.7057 11.0231 80.7537 10.9589 79.3561C10.8626 77.142 9.75378 75.4591 8.4845 73.5017M105.439 157.325C105.147 157.772 104.819 158.196 104.458 158.59C101.538 161.339 98.5647 164.038 95.6696 166.812C94.4074 168.021 93.2914 169.383 92.1042 170.656C91.888 170.819 91.6473 170.946 91.3911 171.034C91.3483 170.745 91.2021 170.42 91.2877 170.178C91.5373 169.465 91.9223 168.812 92.1755 168.106C93.4091 164.644 94.6891 161.211 97.2847 158.48C97.3921 158.314 97.475 158.134 97.5307 157.945C97.2205 157.845 96.7784 157.567 96.618 157.681C95.9049 158.195 95.0777 158.701 94.6677 159.425C93.6266 161.264 92.803 163.222 91.8581 165.129C91.6578 165.416 91.4177 165.673 91.1451 165.892C91.0453 165.576 90.9889 165.247 90.9775 164.915C91.3083 161.163 92.3629 157.51 94.083 154.158C95.6054 151.306 97.6199 148.703 99.4311 145.987C99.5416 145.819 99.7306 145.519 99.6807 145.47C99.5309 145.309 99.2635 145.113 99.0781 145.152C98.7026 145.197 98.3459 145.341 98.0441 145.569C94.8531 148.45 92.8992 152.144 91.3019 156.041C89.6084 160.166 89.5478 164.52 89.7831 168.877C89.8223 169.565 90.1753 170.235 90.3571 170.919C90.4284 171.19 90.5496 171.572 90.4249 171.743C90.1295 172.07 89.7955 172.36 89.4301 172.606C89.2113 172.322 89.0202 172.017 88.8596 171.697C88.6785 171.306 88.5755 170.883 88.5566 170.452C88.6279 167.7 88.5566 164.922 88.8953 162.195C89.2518 159.207 90.0754 156.276 90.5746 153.281C91.0916 150.169 91.5159 147.042 91.8795 143.908C92.0899 142.079 92.0899 140.228 92.2111 138.392C92.2896 137.187 93.2807 136.125 94.5215 136.296C96.0762 136.489 97.5958 136.9 99.0353 137.519C100.576 138.232 102.002 139.073 101.752 141.369C101.592 142.874 102.465 144.161 103.916 145.188C105.421 146.258 106.933 147.712 107.685 149.349C109.04 152.29 107.642 154.897 105.489 157.321M69.3033 179.459C69.1215 179.637 68.8149 179.815 68.7864 180.001C68.7435 180.556 68.7364 181.113 68.765 181.669C69.1536 181.334 69.528 180.978 69.938 180.664C70.5512 180.193 71.1253 179.569 71.8277 179.341C74.2341 178.484 76.689 177.77 79.1795 177.202C81.2011 176.792 83.3118 176 85.3798 177.155C85.9289 177.462 86.4672 177.786 87.0127 178.104C86.508 178.411 85.9756 178.67 85.4226 178.878C81.957 179.854 78.5092 180.935 74.9973 181.698C70.9506 182.575 66.7969 183.013 62.7751 183.915C59.2672 184.676 55.6462 184.758 52.1073 184.158C50.0929 183.837 49.6365 182.543 50.8095 180.835C52.3676 178.571 52.3248 176.767 50.7275 174.292C49.9289 173.055 49.1552 171.797 48.4706 170.495C47.9358 169.479 48.3744 168.613 49.4368 168.627C51.5297 168.652 53.6654 168.588 55.7084 168.962C59.1704 169.597 62.5718 170.538 66.0018 171.351C68.1767 171.868 70.3587 172.371 72.5265 172.92C72.8046 172.987 73.0256 173.276 73.2716 173.483C73.0486 173.616 72.8087 173.717 72.5586 173.786C69.831 174.207 67.0714 174.478 64.3795 175.066C62.7465 175.423 61.2063 176.228 59.6518 176.895C59.3737 177.016 59.231 177.448 59.0278 177.737C59.4771 177.815 59.9584 178.036 60.3648 177.94C60.9959 177.794 61.5486 177.316 62.1761 177.173C64.6968 176.61 67.2176 175.975 69.774 175.64C72.5693 175.284 75.4073 175.202 78.2276 175.038C78.3916 175.038 78.5841 175.337 78.7517 175.497C78.6126 175.64 78.4914 175.883 78.331 175.915C77.6179 176.057 76.9048 176.104 76.1917 176.243C73.6959 176.742 71.2821 177.423 69.3033 179.452M50.5243 67.5367C49.6579 69.216 48.8022 70.8954 47.9251 72.5675C47.769 72.8202 47.5912 73.0588 47.3939 73.2806C47.2655 72.9776 46.9731 72.6317 47.0373 72.375C47.8788 68.913 48.8771 65.4866 49.6222 62.0068C50.4066 58.3594 52.143 55.1612 54.1361 52.1306C55.2684 50.5145 56.677 49.1108 58.2969 47.984C59.2631 47.2709 60.7 46.9144 61.8837 48.066C62.9533 49.1356 63.5737 50.2445 62.9177 51.8382C62.4575 53.0821 62.0905 54.3585 61.8195 55.6568C61.2419 58.0527 60.6501 60.5164 62.6111 62.5701C63.5809 63.5425 64.6698 64.3883 65.852 65.0873C67.7167 66.2425 67.87 67.5831 66.1087 68.749C65.5514 69.1082 64.9659 69.4218 64.3581 69.6867C62.2652 70.6493 60.1046 71.4694 58.0723 72.5604C54.1432 74.6644 50.5804 77.3903 47.5222 80.6325C47.2568 80.942 46.9632 81.2261 46.6451 81.4811C46.4704 81.6059 46.1781 81.5631 45.932 81.5987C45.9358 81.354 45.9854 81.1121 46.0782 80.8857C46.584 80.0586 47.164 79.2793 47.811 78.5574C49.148 77.2061 50.5992 75.9654 51.9683 74.6355C52.1965 74.418 52.2428 74.0151 52.3712 73.6978C51.9861 73.6586 51.4941 73.4518 51.2409 73.6158C50.5279 74.0614 49.9503 74.6854 49.2871 75.1917C49.0179 75.346 48.7305 75.4658 48.4314 75.5482C48.4131 75.2102 48.4516 74.8716 48.5455 74.5463C49.6401 72.3501 50.806 70.1894 51.8578 67.9753C52.0574 67.5581 51.8578 66.952 51.8364 66.4315C51.4477 66.7559 51.0591 67.0804 50.5172 67.5546M99.1779 206.638C98.9248 206.891 98.6823 207.155 98.4221 207.394C94.8139 210.674 91.2912 213.975 88.364 217.962C86.1499 220.992 84.5597 220.728 81.5363 219.188C79.8867 218.328 78.3103 217.335 76.8228 216.218C76.2702 215.812 75.582 214.792 75.7532 214.35C76.5233 212.236 75.5143 210.624 74.4197 209.155C72.5621 206.659 73.6781 203.539 77.051 202.844C79.0817 202.372 81.1487 202.071 83.2298 201.946C87.4727 201.803 91.3697 200.163 95.4628 199.393C95.9482 199.36 96.4358 199.389 96.9139 199.478C96.5478 199.814 96.1489 200.111 95.7231 200.366C94.0651 201.144 92.286 201.71 90.7315 202.641C88.2414 204.08 85.8508 205.684 83.5757 207.444C81.5196 209.035 79.9105 211.132 78.905 213.53C78.7659 213.886 78.905 214.328 78.9335 214.731C79.2972 214.506 79.6387 214.247 79.9532 213.958C81.4471 212.296 82.6416 210.193 84.4421 209.012C89.1556 205.921 94.1257 203.219 99.0211 200.402C99.3384 200.22 99.8518 200.402 100.276 200.402C100.041 200.705 99.8233 201.026 99.563 201.308C98.0014 203.012 96.4112 204.691 94.8816 206.424C94.6534 206.684 94.7033 207.187 94.6213 207.576C94.9779 207.422 95.4129 207.351 95.6696 207.101C98.1368 204.677 100.504 202.142 103.064 199.821C103.842 199.108 105.129 198.965 106.18 198.562C106.27 198.84 106.512 199.193 106.419 199.382C106.188 199.715 105.908 200.011 105.589 200.259L99.1958 206.652M69.2712 102.542C69.2712 102.036 69.1393 101.472 69.314 101.034C69.446 100.695 70.0735 100.214 70.2874 100.296C73.539 101.579 76.8299 102.792 78.7517 106.086C79.8817 108.117 81.65 109.718 83.7825 110.643C86.7846 111.905 85.9681 113.22 84.5277 115.06C83.5543 116.301 82.4918 117.474 81.4864 118.69C79.5111 121.075 77.5074 123.439 75.5892 125.87C74.4268 127.347 73.1861 128.826 72.3803 130.506C71.3392 132.645 70.7045 134.998 69.8845 137.248C69.7198 137.564 69.5175 137.86 69.2819 138.128C69.0787 137.836 68.683 137.522 68.7079 137.248C68.8434 135.75 68.8434 134.178 69.3319 132.784C70.619 129.101 72.1521 125.507 73.5355 121.856C73.6852 121.46 73.4963 120.94 73.4677 120.476C73.0898 120.729 72.5265 120.9 72.3696 121.253C71.193 123.867 70.1056 126.523 68.9682 129.154C68.8648 129.397 68.6116 129.568 68.412 129.775C68.3228 129.529 68.1161 129.258 68.166 129.04C69.2784 124.024 71.3428 119.378 73.7387 114.86C74.0026 114.365 73.9491 113.698 74.0418 113.11C73.5497 113.384 72.8545 113.534 72.6156 113.951C71.4426 115.891 70.3516 117.873 69.3176 119.909C68.8077 120.907 68.494 122.009 68.0697 123.054C67.9425 123.307 67.7895 123.545 67.6133 123.767C67.4636 123.475 67.1748 123.175 67.1855 122.886C67.2283 121.817 67.3638 120.747 67.4671 119.656C67.6704 117.549 67.8486 115.445 68.084 113.342C68.469 109.844 68.8933 106.35 69.2998 102.549M128.186 176.713C127.94 176.756 127.548 176.713 127.473 176.852C127.05 177.533 126.723 178.268 126.5 179.038C125.598 183.252 124.592 187.459 123.972 191.72C123.555 194.601 123.722 197.564 123.59 200.491C123.517 200.865 123.387 201.226 123.205 201.561C122.931 201.204 122.46 200.848 122.424 200.491C122.341 199.408 122.33 198.32 122.392 197.236C122.478 194.326 122.549 191.414 122.71 188.508C122.8 187.248 122.973 185.997 123.23 184.76C124.236 179.437 126.061 174.367 128.222 169.429C128.65 168.449 129.01 167.244 130.678 167.383C132.921 167.572 134.978 169.451 134.886 171.736C134.84 172.473 134.965 173.211 135.253 173.892C135.541 174.573 135.982 175.177 136.543 175.658C137.834 176.87 139.239 178.025 140.273 179.437C141.984 181.78 141.139 185.424 138.711 186.985C137.431 187.812 136.123 188.586 134.814 189.367C131.324 191.442 128.236 193.913 126.457 197.71C126.273 197.986 126.058 198.24 125.815 198.466C125.687 198.059 125.362 197.592 125.459 197.261C125.957 195.543 126.568 193.86 127.288 192.223C128.147 190.383 129.259 188.657 130.208 186.875C130.39 186.518 130.315 186.044 130.357 185.627C129.965 185.78 129.459 185.834 129.209 186.112C128.429 186.982 127.758 187.948 127.02 188.854C126.828 189.028 126.612 189.173 126.378 189.285C126.289 189.012 126.244 188.727 126.243 188.44C126.871 184.636 127.527 180.831 128.172 176.724M75.0472 130.616C76.1668 129.19 77.2827 127.764 78.413 126.37C78.569 126.209 78.7424 126.067 78.93 125.945C79.0583 126.145 79.3186 126.359 79.2865 126.544C79.2017 127.274 79.2644 128.013 79.4708 128.718C79.6772 129.423 80.0231 130.079 80.488 130.648C80.759 131.005 80.5986 131.743 80.5166 132.288C80.2456 134.149 79.8035 135.993 79.6395 137.861C79.3435 141.633 79.2116 145.416 78.9906 149.195C78.9228 149.481 78.8097 149.755 78.6554 150.005C78.4664 149.752 78.1349 149.506 78.1099 149.238C77.9423 147.377 77.4182 145.527 78.4165 143.676C78.8131 142.97 78.9507 142.148 78.8055 141.351C78.6604 140.554 78.2416 139.833 77.6214 139.312C77.0332 138.838 73.3929 138.82 72.7761 139.287C72.7368 139.316 72.7047 139.358 72.6655 139.394C71.4461 140.432 70.8828 142.393 71.4818 143.84C72.309 145.787 73.3109 146.575 75.1114 146.361C75.7033 146.29 76.3629 146.122 76.5875 147.135C77.3861 150.757 78.306 154.351 79.151 157.959C79.1673 158.31 79.1227 158.661 79.0191 158.997C78.7303 158.822 78.331 158.715 78.1741 158.462C77.486 157.332 76.9262 156.119 76.206 155.014C73.8279 151.363 71.3784 147.766 69.0145 144.108C68.5082 143.323 68.4548 142.553 69.1607 141.583C70.2874 140.032 71.054 138.218 71.981 136.517C72.9935 134.652 74.0168 132.787 75.033 130.616M6.1955 49.5314C6.22801 50.0125 6.30319 50.4898 6.42012 50.9576C6.82301 52.1555 6.44507 52.9613 5.33266 53.5068C4.22026 54.0523 3.26472 54.0773 2.41972 53.0826C1.83856 52.398 1.88135 49.7845 2.38049 49.0501C3.06506 48.0411 4.68733 47.8663 6.1955 49.5314ZM56.4286 87.5494C56.5142 85.8665 57.8084 85.3175 59.092 84.993C60.3755 84.6686 62.1262 86.4441 61.5521 87.446C61.0061 88.3699 60.1607 89.0794 59.1562 89.4569C57.9439 89.8562 56.721 89.4355 56.4286 87.5494ZM65.8948 192.287C65.9946 192.551 66.0873 192.818 66.2014 193.071C66.8254 194.462 65.7593 195.022 64.8608 195.396C63.8982 195.795 63.0995 195.278 62.6895 194.277C62.1475 192.957 62.5469 191.731 63.6415 191.167C64.7931 190.576 65.278 191.296 65.8948 192.287ZM84.8129 125.107C85.0054 125.731 85.5438 126.673 85.3227 126.915C84.6669 127.678 83.8131 128.246 82.8555 128.555C81.7359 128.844 81.1441 127.842 81.6325 126.773C82.2137 125.475 83.1978 124.808 84.8129 125.111M73.2217 141.911C73.4036 141.729 73.5783 141.412 73.7637 141.394C74.5124 141.33 75.3111 141.216 76.0063 141.419C76.3058 141.508 76.6909 142.549 76.5269 142.756C75.9742 143.469 75.4893 144.439 74.2771 144.204C73.0648 143.969 73.2075 143.066 73.2075 141.911H73.2217Z"
                        fill="#374937" />
                </svg>