<svg viewBox="0 0 240 189" fill="none" xmlns="http://www.w3.org/2000/svg">
                <path
                    d="M239.015 108.446C239.439 111.506 240.016 114.572 239.789 117.677C239.77 118.431 239.787 119.186 239.749 119.895C239.747 120.646 239.727 121.801 238.746 121.865C238.458 121.854 238.182 121.753 237.955 121.575C236.962 120.882 236.03 120.078 235 119.443C232.426 118.047 230.062 116.308 227.493 114.902C226.155 114.186 224.809 113.431 223.362 112.966C221.143 112.222 218.812 111.985 216.508 111.631C214.312 111.256 211.9 110.741 209.844 111.878C210.762 113.106 212.288 113.711 213.531 114.569C215.227 115.786 217.146 116.424 219.114 117.043C221.465 117.903 223.71 119.024 225.981 120.071C228.803 121.464 231.22 123.559 233 126.154C234.108 127.752 234.426 129.725 234.573 131.622C235.071 137.751 232.563 143.52 230.484 149.142C229.299 150.874 227.772 148.03 226.919 147.25C225.604 145.546 224.336 143.797 222.907 142.185C221.454 140.718 220.276 138.93 218.511 137.805C217.146 137.031 215.935 135.9 214.362 135.571C213.248 137.588 216.617 139.493 217.659 140.906C219.33 142.899 220.615 145.183 221.925 147.419C224.358 152.109 222.641 158.056 221.322 162.857C220.575 165.144 219.882 167.463 218.953 169.683C217.575 172.577 215.946 175.343 214.084 177.951C213.386 179.052 212.761 180.2 212.097 181.314C211.46 182.251 210.843 183.731 209.504 183.617C206.104 182.92 203.281 180.701 200.058 179.509C195.285 178.049 191.081 175.713 189.584 170.623C189.027 168.177 189.535 165.613 189.834 163.166C190.028 161.237 190.788 159.477 191.561 157.707C192.175 156.211 192.705 154.68 193.262 153.16C193.899 151.657 194.285 150.06 194.404 148.432C192.959 149.807 192.164 151.762 191.407 153.577C189.995 157.22 189.464 161.122 188.653 164.909C188.409 166.411 188.199 167.918 188.022 169.43C187.939 170.205 187.966 171.539 186.866 171.428C186.55 171.339 186.257 171.181 186.008 170.967C184.83 170.242 183.589 169.624 182.346 169.017C180.541 168.19 178.63 167.592 176.884 166.631C175.177 165.616 173.945 163.986 172.74 162.449C170.686 159.846 169.824 156.492 170.02 153.213C170.166 147.992 173.465 143.591 176.075 139.305C178.005 136.332 179.819 133.381 181.81 130.475C183.56 128.032 185.426 125.627 186.675 122.879C186.149 122.9 185.632 123.017 185.148 123.224C183.165 123.958 181.427 125.232 180.131 126.903C177.986 129.453 175.969 132.111 174.392 135.021C172.48 138.368 171.234 142.03 169.891 145.626C168.567 148.666 167.733 151.949 168.183 155.291C168.24 155.945 167.725 156.624 167.013 156.343C166.568 156.115 166.165 155.814 165.696 155.609C163.965 154.872 162.393 153.834 160.855 152.76C159.204 151.619 157.726 150.245 156.466 148.683C155.607 147.705 154.891 146.612 154.338 145.434C153.123 142.858 152.487 140.047 152.476 137.2C152.404 133.099 153.869 129.171 155.697 125.558C156.904 123.122 158.701 121.059 160.584 119.12C162.468 117.181 164.446 115.224 166.42 113.318C169 110.996 171.514 108.615 174.121 106.378C175.333 105.374 176.806 104.613 177.642 103.222C175.057 102.161 171.476 104.734 169.251 105.941C167.573 106.897 165.846 107.837 164.46 109.196C162.568 111.109 160.519 112.878 158.743 114.891C154.554 120.352 149.064 129.217 149.044 136.194C149.039 136.339 148.994 136.479 148.915 136.599C148.836 136.72 148.725 136.816 148.595 136.878C148.464 136.941 148.32 136.966 148.176 136.952C148.032 136.937 147.895 136.884 147.78 136.798C147.58 136.634 147.403 136.444 147.253 136.232C146.412 135.088 145.646 133.894 144.802 132.753C144.202 131.76 143.727 130.696 143.389 129.585C142.83 127.952 142.145 126.355 141.834 124.648C141.451 122.192 140.743 119.809 140.265 117.371C139.969 115.385 139.946 113.369 140.199 111.377C140.498 109.414 141.231 107.543 141.962 105.707C143.021 103.281 144.647 101.154 146.154 98.996C150.28 93.0389 155.975 87.8953 163.053 85.8825C165.27 85.2117 167.52 84.6532 169.793 84.209C170.491 84.0509 171.18 83.8554 171.857 83.6235C172.121 83.4633 172.54 83.4089 172.688 83.1219C170.562 81.8509 166.214 81.9244 163.803 82.401C162.606 82.6216 161.426 82.9226 160.271 83.3019C158.247 84.1196 156.333 85.1854 154.382 86.1588C151.044 87.9542 148.683 91.0177 146.121 93.7247C144.535 95.6984 143.421 98.0135 142.212 100.231C141.839 100.989 141.645 101.846 141.098 102.506C141.083 102.596 141.049 102.682 141 102.759C140.951 102.835 140.886 102.901 140.811 102.952C140.735 103.003 140.65 103.039 140.561 103.056C140.471 103.073 140.379 103.072 140.29 103.053C140.051 103.943 138.53 103.576 138.772 102.643C137.722 100.03 137.344 97.1915 136.352 94.6101C136.045 94.0002 135.98 93.027 135.198 92.8615C134.181 93.6264 133.759 95.0044 133.172 96.063C132.666 97.1534 132.322 98.3075 131.927 99.4431C131.193 101.551 130.559 103.659 129.948 105.801C128.845 109.245 127.742 112.773 126.597 116.19C125.464 120.387 124.302 124.578 123.11 128.762C121.955 133.063 120.824 137.366 119.688 141.675C118.809 145.1 117.957 148.621 116.242 151.744C115.628 152.63 114.869 153.406 113.997 154.038C113.72 154.294 113.394 154.49 113.039 154.615C112.684 154.739 112.307 154.79 111.931 154.763C110.085 154.822 109.825 152.525 109.828 151.109C109.803 149.331 109.935 147.555 110.222 145.801C110.753 143.59 111.229 141.369 111.782 139.163C112.453 136.559 113.304 134.194 113.997 131.656C115.853 125.725 117.818 119.776 118.775 113.702C119.218 110.595 119.894 107.453 119.583 104.304C119.408 101.603 118.571 99.0274 117.772 96.4624C116.571 92.6833 115.412 88.8305 113.129 85.5471C111.58 83.4205 110.033 81.2939 108.462 79.1831C105.354 75.595 101.994 72.2319 98.4097 69.1193C96.8298 67.8233 95.387 66.5407 93.852 65.2158C91.0187 62.9331 87.9555 60.9662 84.9504 58.9257C82.2534 57.0889 79.4859 55.354 76.648 53.7208C73.2838 51.9325 69.917 50.1442 66.6718 48.1426C63.9427 46.6142 61.3537 44.8621 58.5875 43.4023C55.8873 41.8952 53.3194 40.151 50.5954 38.6939C48.5564 37.5734 46.5042 36.4714 44.4943 35.2982C42.4844 34.125 40.3 33.1782 38.277 31.9813C34.647 29.8627 30.8267 28.0811 27.2126 25.9415C24.0884 24.109 20.4833 22.8817 17.9302 20.2279C16.6985 18.8589 16.1052 15.8619 19.0576 16.423C20.6391 16.7803 21.8076 18.0885 23.2355 18.8066C25.4011 19.9169 27.6668 21.1092 29.8404 22.143C31.7903 22.9257 33.3991 24.2614 35.2353 25.239C37.0268 26.1558 38.9239 26.9885 40.6626 27.9263C42.8599 29.0024 45.1234 29.9415 47.3207 31.0176C52.7188 33.8183 57.6302 37.4589 62.7798 40.6413C65.6141 42.3545 68.7021 43.7492 71.4306 45.6124C73.5669 46.9125 75.8857 47.8807 78.0166 49.1913C78.8437 49.7076 79.6179 50.3028 80.4371 50.8349C82.0992 51.8516 83.8777 52.6577 85.5265 53.706C88.7435 55.7121 91.848 57.8933 94.8259 60.2397C97.4593 62.2627 100.005 64.3996 102.462 66.6507C103.536 67.6369 104.325 68.6436 105.357 69.6218C106.034 70.2563 106.755 70.8462 107.434 71.4728C109.62 73.419 111.197 76.0098 113.768 77.514C117.132 79.595 121.304 80.6364 125.104 79.243C128.236 77.9983 131.356 76.358 133.578 73.7583C137.415 69.2534 139.036 63.3376 140.041 57.6469C141.206 51.5295 141.033 48.1697 138.781 42.3074C137.434 38.8945 136.088 35.3287 133.917 32.3541C132.339 30.0956 130.36 27.8625 127.691 26.9593C127.729 27.8928 127.822 28.8239 127.905 29.7549C128.113 31.2084 128.451 32.6569 128.372 34.1255C128.181 38.8715 127.416 43.674 125.728 48.1236C124.833 50.281 123.385 52.118 121.8 53.8122C120.797 54.9766 119.709 56.0651 118.545 57.0686C117.159 58.2412 115.917 59.699 114.199 60.3935C111.095 60.8868 113.365 55.0886 113.895 53.6897C114.996 50.8946 116.493 48.3854 117.571 45.6219C118.883 42.358 120.183 39.0941 121.08 35.6921C121.746 33.2599 122.505 30.7567 121.884 28.2527C120.916 24.1288 117.734 20.9012 115.155 17.7779C112.114 14.4907 108.49 11.7966 104.466 9.83257C101.099 8.35804 97.6677 6.94401 94.0538 6.22831C94.1519 8.91294 95.7537 11.219 96.3213 13.7993C97.1413 16.8813 97.4732 20.0517 97.9106 23.2013C98.2087 24.75 98.4033 26.3167 98.493 27.8912C98.5892 30.1618 98.253 32.4129 97.7902 34.6268C97.2076 37.5444 96.4192 40.5063 94.8431 43.0576C93.8331 44.5897 89.7184 48.2211 89.0997 44.6834C88.9162 42.5734 89.3259 40.4886 89.4562 38.3979C89.726 34.9231 90.2068 31.4726 90.6005 28.0086C90.8491 26.1212 91.3692 24.2714 91.4596 22.3625C91.6422 18.9982 91.4071 16.2394 89.7617 13.2292C88.0948 10.4536 85.715 8.17204 83.2928 6.05646C80.2568 3.57546 76.4873 1.3695 72.447 1.64422C72.9353 2.89534 73.8379 3.93918 74.3605 5.1772C75.7603 8.38719 76.4052 12.0172 77.1903 15.3839C77.6769 17.5975 78.4457 19.7538 78.7608 22.0012C78.9259 23.5899 78.9434 25.1904 78.813 26.7821C78.6235 29.5451 78.6843 32.4907 77.4114 35.0163C76.8822 36.0381 74.789 40.2283 73.6911 37.8207C73.3215 36.5672 73.2078 35.2537 72.8857 33.9872C72.2505 31.8885 71.9867 29.6953 72.106 27.5063C72.1843 23.4931 72.1731 19.3848 70.7216 15.5998C69.7109 13.0289 68.0562 10.786 66.2034 8.76154C63.5904 5.66719 60.5268 3.88227 56.4907 3.33691C58.7453 6.29325 59.646 8.44195 59.6393 12.2207C59.6314 16.7034 59.8659 21.2975 58.4001 25.5947C57.8702 26.9804 57.074 29.9028 55.6543 30.4846C53.9026 30.9206 52.9674 28.8958 52.701 27.4764C51.9237 24.1467 52.6971 20.6995 52.1361 17.3413C51.4817 14.6316 50.2603 11.9019 48.1225 10.0297C46.0433 8.42036 43.7044 7.17844 41.207 6.35766C34.5815 4.2527 28.4999 4.74383 21.9566 6.87134C19.239 7.75849 16.4454 8.41076 13.7094 9.26358C10.6433 10.3634 7.72509 11.3793 4.78525 12.6878C5.74533 15.5354 7.10122 18.2311 8.36742 20.9477C9.46262 23.437 10.7215 25.8424 12.0093 28.2452C14.5873 33.2328 16.4791 35.6054 21.778 37.8389C25.8439 39.4312 30.3216 39.3475 34.6197 39.3635C36.9561 39.3007 40.0424 38.7072 41.9459 40.3679C43.3957 42.1699 41.3255 43.8102 39.7842 44.5684C38.3882 45.1714 36.8505 45.3759 35.3446 45.5198C33.029 45.7039 30.7276 45.3475 28.4152 45.2652C26.9439 45.1825 25.4754 45.0593 24.0095 44.8956C22.7889 44.7476 21.5313 44.6258 20.401 44.0956C20.5316 46.3188 21.4666 48.4017 22.1327 50.505C23.1169 52.9605 24.4446 55.2642 26.076 57.3471C27.5103 58.9618 29.0974 60.6059 30.9545 61.7049C32.4745 62.5815 34.2275 62.8918 35.933 63.2124C38.0894 63.5263 40.3405 64.0145 42.4933 63.4318C44.8679 62.6467 47.0456 61.3811 49.2941 60.3161C51.0654 59.2341 53.0368 58.2924 54.5293 56.8352C55.6439 55.7832 56.6427 54.6202 57.6704 53.5047C58.1176 52.9885 58.6986 52.6058 59.3495 52.3988C60.703 51.9749 62.7276 52.2727 63.1784 53.8322C63.3112 56.2559 61.1557 58.4154 59.8392 60.2817C59.004 61.3924 57.8923 62.2361 56.8465 63.1354C56.1258 63.8034 55.3464 64.4051 54.5176 64.9332C52.234 66.4332 50.1316 68.3503 47.4091 69.0291C45.9054 69.4024 44.3572 69.5805 42.8431 69.9037C41.329 70.1874 39.7813 70.1097 38.2519 70.0505C35.7892 69.9652 33.3747 69.4608 30.9307 69.2042C29.7549 69.0668 28.5579 68.9636 27.3867 69.1954C27.0011 69.2664 26.6491 69.4608 26.3837 69.7493C26.1978 70.0759 26.0705 70.4326 26.0074 70.8031C25.7406 72.5508 26.6132 74.1905 27.2934 75.7453C27.9606 77.2263 28.6356 78.7046 29.3477 80.1673C31.1633 83.8398 33.2895 87.8084 37.2842 89.4427C39.7238 90.6881 42.463 91.0166 45.1662 90.8177C48.8578 90.8796 52.5755 89.5968 55.8008 87.8829C57.5534 86.9891 59.2409 85.9729 60.8506 84.842C62.6414 83.7391 64.2749 82.3994 65.7069 80.8591C67.8023 78.4568 70.1345 76.2529 72.0482 73.684C72.9734 72.4127 73.8617 71.1149 74.7842 69.8436C75.8151 68.4486 76.9286 66.529 78.8773 66.5101C81.9143 66.9502 79.5257 72.6663 78.8186 74.3812C77.8738 76.2985 76.8183 78.1998 75.4258 79.8312C73.0744 82.3963 70.4756 84.7024 68.069 87.1963C66.0558 89.3482 63.6218 90.9085 61.0195 92.2521C58.7416 93.5069 56.461 94.8012 53.9389 95.5043C52.3717 95.9882 50.7259 96.1608 49.109 96.4178C47.0704 96.6026 45.0085 96.4682 42.9958 96.9062C41.7401 97.2116 38.9712 97.2812 38.7259 98.8258C38.7002 99.899 39.2497 100.868 39.6778 101.787C40.5661 103.519 42.0827 104.78 43.404 106.168C45.4517 108.335 47.8796 110.206 50.7787 111.057C54.813 112.269 59.0615 112.592 63.2312 112.003C65.8296 111.44 68.4146 110.961 70.8399 109.873C76.2532 107.109 80.8805 103.024 84.2933 97.9953C86.5837 94.1564 88.8636 90.2331 90.4084 86.0416C91.0211 84.018 91.3728 81.9198 92.0224 79.9068C92.1608 79.4072 92.4509 78.9629 92.8527 78.6353C93.6051 78.152 94.7521 78.1364 95.3468 78.8788C96.5675 80.464 96.0284 82.6434 95.946 84.4917C95.693 87.3706 94.9207 90.1796 94.0853 92.9252C93.1219 95.8197 91.826 98.5923 90.2234 101.188C89.1974 102.796 87.766 104.082 86.5715 105.553C85.5597 106.605 84.4585 107.512 83.3678 108.446C82.0053 109.497 80.3113 110.089 79.0093 111.233C78.3595 111.872 77.2189 112.686 78.5362 113.341C81.539 115.194 85.0841 116.068 88.5776 116.317C91.7814 116.367 95.0524 115.682 97.7162 113.879C100.274 112.23 102.732 110.514 104.704 108.177C106.653 106.21 108.11 103.835 109.243 101.333C110.633 98.2878 111.862 94.9736 111.647 91.582C111.579 91.2944 111.495 91.0094 111.403 90.727C111.309 90.6199 111.251 90.4866 111.235 90.3451C111.219 90.2036 111.247 90.0607 111.315 89.9357C111.667 89.2958 112.55 89.5801 112.715 90.2292C113.158 91.3352 113.161 92.5297 112.988 93.6922C112.778 95.9212 112.201 98.1 111.281 100.141C110.495 102.085 109.551 103.962 108.46 105.753C107.342 107.522 105.839 109.008 104.428 110.542C102.375 112.565 99.9228 114.156 97.4836 115.675C94.0074 117.607 89.7452 118.123 85.8491 117.425C83.5056 116.998 81.1757 116.359 79.0549 115.252C77.3398 114.425 75.5804 113.252 77.0368 111.249C78.4059 109.496 80.5037 108.684 82.3173 107.489C83.2943 106.763 84.0657 105.937 84.9583 105.185C86.0282 104.091 86.9822 102.894 88.039 101.783C89.1343 100.393 90.0595 98.8759 90.7946 97.2653C92.0529 94.6991 93.0183 91.9992 93.6725 89.2167C94.1249 87.5462 94.4262 85.8384 94.5728 84.1138C94.6437 82.8245 94.9045 81.4777 94.5164 80.211C94.4545 80.0232 94.3459 79.8542 94.2009 79.7198C94.023 79.6951 93.8419 79.7146 93.6734 79.7765C93.0575 80.6293 92.9948 81.8026 92.6898 82.7959C92.2942 84.327 91.9934 85.8873 91.4212 87.3626C90.007 90.853 88.1711 94.1604 86.2826 97.4123C85.5346 98.7315 84.6796 99.987 83.7261 101.166C81.8941 103.445 79.796 105.496 77.4763 107.276C75.2796 108.89 73.0669 110.567 70.502 111.546C68.3093 112.372 66.017 112.838 63.7695 113.336C60.8951 113.817 57.9623 113.838 55.0807 113.399C51.9962 113.006 48.8781 112.223 46.2654 110.476C43.9607 108.962 42.0238 106.761 40.1234 104.828C38.6075 103.145 36.0305 99.0775 38.1146 97.0813C39.5908 95.8535 41.6213 95.7715 43.4309 95.4227C45.1692 95.1053 46.9332 95.1677 48.6895 95.064C49.9925 94.9011 51.2849 94.6723 52.5748 94.4408C54.7855 93.919 56.8704 92.9459 58.8447 91.8564C60.6923 90.8353 62.5821 89.8643 64.3272 88.6636C65.7742 87.5808 67.029 86.2655 68.2891 84.9818C70.4472 82.8776 72.6632 80.8395 74.6712 78.5926C76.6667 75.9448 78.2437 72.911 78.8797 69.6375C78.9676 69.1278 78.9765 68.6076 78.9062 68.095C78.8905 68.0238 78.8616 67.9499 78.7799 67.9391C78.1495 68.0272 77.6213 68.4953 77.2144 68.961C75.301 71.3875 73.6983 74.052 71.7059 76.4203C70.6489 77.6412 69.492 78.7564 68.4403 79.9746C66.9528 81.6665 65.423 83.3529 63.6012 84.6932C61.7979 85.9413 60.0237 87.2131 58.1048 88.271C54.9505 90.0853 51.5489 91.5245 47.9432 92.1114C45.9271 92.2969 43.9002 92.3377 41.8781 92.2334C38.7973 91.8966 35.8791 90.6759 33.4752 88.7186C31.195 86.7721 29.7732 84.0657 28.4225 81.4386C27.4161 79.4531 26.5099 77.4178 25.6011 75.3851C24.8762 73.7695 24.2439 71.959 24.7137 70.204C25.535 66.5143 30.4848 67.8451 33.182 68.0839C35.5286 68.4875 37.904 68.6998 40.2847 68.7186C41.5662 68.7561 42.8218 68.5087 44.0722 68.2534C45.4544 67.9932 46.7098 67.8618 47.9737 67.3956C49.6783 66.7301 51.1411 65.6368 52.596 64.5461C54.7262 63.1955 56.6902 61.5994 58.4478 59.7904C59.632 58.1822 61.1404 56.6012 61.7213 54.6619C62.158 53.7532 60.8636 53.5733 60.2201 53.6614C58.9911 53.7612 58.3271 54.9514 57.5372 55.7642C56.5152 56.9409 55.3889 58.0227 54.1721 58.9966C52.1779 60.3604 50.076 61.5598 47.8873 62.583C46.0769 63.4038 44.3504 64.4754 42.3904 64.9056C40.2801 65.3776 38.1106 64.9661 36.0148 64.6498C34.4331 64.3821 32.8515 64.0908 31.3865 63.478C28.2246 62.12 24.9031 58.5545 23.1863 55.6206C21.9627 53.7189 20.9938 51.665 20.3044 49.5116C19.8324 48.01 18.1449 43.494 19.444 42.4636C20.009 42.1169 20.5197 42.606 21.0255 42.8446C22.3746 43.4017 23.8671 43.4476 25.2986 43.6173C26.9965 43.7956 28.6998 43.871 30.4004 43.9728C32.9472 44.227 35.5339 44.3126 38.048 43.686C38.957 43.495 39.7976 43.0626 40.4814 42.4343C41.3397 41.7165 41.2219 41.2363 40.1545 40.9172C38.046 40.3186 35.8565 40.8037 33.718 40.7772C29.9658 40.7362 26.137 40.703 22.5211 39.5891C19.2454 38.4813 16.1159 36.6725 13.8898 33.9852C12.6533 32.4 11.7441 30.5993 10.7741 28.8539C8.82367 25.3894 7.22418 21.7675 5.5112 18.2087C4.87559 16.7779 4.28483 15.334 3.7099 13.8902C3.50523 13.3175 3.23206 12.7077 3.42827 12.1017C3.68775 11.5011 4.39734 11.3499 4.94629 11.0876C7.05736 10.2147 9.19464 9.43955 11.3267 8.63532C14.3692 7.41937 17.6111 6.79986 20.7271 5.77923C24.6134 4.56011 28.6128 3.54431 32.7158 3.58882C38.3561 3.62397 44.0674 5.25464 48.6207 8.63861C50.4272 9.96158 51.634 11.9739 52.5402 13.9934C52.9353 14.9903 53.2613 16.0131 53.5157 17.0547C53.8086 18.4767 53.7743 19.9401 53.748 21.3877C53.7049 23.4128 53.6905 25.5803 54.1855 27.5355C54.3849 28.1029 54.5732 28.9683 55.2374 29.1493C55.6283 28.7916 55.8243 28.2621 56.0704 27.8039C57.1625 25.4227 57.8488 22.8754 58.1009 20.2673C58.3068 17.1242 58.344 13.9722 58.2125 10.8248C58.1003 9.34421 57.696 7.90029 57.0229 6.57639C56.4814 5.62047 55.7419 4.7959 55.1819 3.85313C54.9526 3.50821 54.8203 3.10804 54.7989 2.69456C54.8001 2.02742 55.5179 1.72597 56.103 1.87509C59.91 2.25902 63.6885 3.86642 66.265 6.75763C69.0182 9.57282 71.5281 12.8199 72.5761 16.6829C73.9683 21.1692 73.3881 25.7349 73.583 30.3157C73.843 32.4259 74.5593 34.4687 74.8561 36.5868C76.7063 34.147 77.1877 31.7961 77.3169 28.822C77.4612 26.2381 77.7481 23.5492 77.1989 21.0005C75.8887 16.3299 75.106 11.5393 73.5874 6.94465C73.0261 5.21606 71.8499 3.79447 71.1435 2.14199C70.094 -0.82453 75.0071 0.35851 76.5017 0.665481C78.7314 1.29599 80.7809 2.47453 82.6824 3.78191C85.6924 6.07299 88.4749 8.76431 90.6158 11.897C91.8189 13.8497 92.5743 16.0445 92.8273 18.3235C92.9553 20.5283 92.9777 22.7723 92.552 24.9494C91.8391 28.4178 91.5956 31.9507 91.1306 35.4566C90.9753 36.7747 90.8938 38.1088 90.7755 39.4348C90.6827 41.1855 90.2417 43.0329 90.5525 44.7609C93.4549 43.7318 94.6917 40.6708 95.5351 37.9516C96.5595 34.2413 97.4101 30.4146 96.9923 26.569C96.3902 22.6121 96.0096 18.5872 95.1016 14.6717C94.5347 11.6589 92.4458 8.92979 92.7018 5.79248C93.0204 4.56975 94.2278 4.74152 95.1951 5.02608C96.6342 5.38565 98.0627 5.7953 99.4673 6.27872C101.604 7.07512 103.734 7.91897 105.791 8.90767C107.886 10.0106 109.876 11.3006 111.739 12.7619C114.196 14.5954 116.309 16.8526 118.219 19.2438C119.764 21.2596 121.479 23.2073 122.464 25.5829C123.168 27.2301 123.616 29.0376 123.494 30.8383C123.169 34.1099 122.111 37.145 121.138 40.2515C120.01 43.2284 118.915 46.245 117.544 49.1158C116.454 51.3545 115.298 53.5745 114.56 55.9644C114.295 56.9288 113.903 57.9483 114.001 58.9612C115.749 57.9292 117.125 56.3795 118.66 55.0675C120.316 53.4156 121.951 51.6951 123.265 49.755C124.505 47.8463 125.171 45.6672 125.665 43.4614C126.365 40.6092 126.788 37.6963 126.931 34.7627C127.116 32.6536 126.469 30.5767 126.372 28.4907C126.342 27.5703 125.999 26.4593 126.744 25.7334C127.536 25.0708 128.56 25.875 129.356 26.1486C131.327 27.1556 132.969 28.7392 134.277 30.5092C136.118 32.9125 137.603 35.568 138.688 38.394C140.604 42.9264 142.497 47.7092 142.114 52.7211C141.222 60.5821 139.654 68.9795 134.264 75.0837C132.272 77.2595 129.653 78.7824 126.983 79.9808C123.973 81.4278 120.526 81.6802 117.336 80.6872C114.727 79.8862 112.338 78.4962 110.352 76.6247C109.202 75.4933 108.247 74.1777 107.073 73.0725C106.065 72.0548 104.909 71.1949 103.914 70.164C102.149 68.1928 100.21 66.3841 98.122 64.7597C96.9378 63.6696 95.6968 62.6428 94.4041 61.6837C91.6761 59.5252 88.8317 57.5299 85.9424 55.5977C83.859 54.2477 81.6063 53.1978 79.4964 51.8899C77.1448 50.1279 74.4917 48.8555 71.9099 47.4937C70.2081 46.5534 68.6569 45.4605 66.9551 44.5386C65.1926 43.5823 63.3958 42.6997 61.7075 41.6249C57.2981 38.8609 53.0159 35.802 48.5086 33.2435C46.0246 31.7843 43.3393 30.7941 40.7838 29.5141C39.6824 29.0341 38.6392 28.4329 37.5643 27.8975C36.051 27.2626 34.5873 26.515 33.1857 25.6611C32.132 25.0387 31.1683 24.2822 30.0511 23.7731C29.0551 23.3197 28.0513 22.8663 27.0765 22.3576C25.7777 21.6635 24.471 20.9878 23.1405 20.3569C22.1412 19.8134 21.1786 19.205 20.2589 18.5355C19.6425 18.1938 19.0738 17.6966 18.3247 17.7818C18.188 20.5502 26.8102 23.8257 29.0936 25.4162C31.633 26.9097 34.3046 28.1531 36.8784 29.5835C38.235 30.3463 39.5811 31.1354 40.9537 31.8719C43.0429 32.9319 45.1294 33.9919 47.1419 35.2072C50.5666 37.0774 53.9913 38.9292 57.2732 41.0337C61.9755 43.6586 66.5349 46.5231 71.2134 49.1928C73.189 50.3738 75.2625 51.3626 77.2725 52.4777C80.3019 54.1913 83.2203 56.0946 86.1095 58.0373C88.4167 59.6252 90.7661 61.142 93.0019 62.8194C94.7796 64.0763 96.4512 65.6996 98.1021 67.067C100.624 69.1588 103.032 71.3848 105.316 73.7353C107.337 75.8499 109.414 77.9198 111.042 80.3603C112.688 82.6533 114.525 84.836 115.829 87.3522C117.142 89.9924 118.097 92.811 118.978 95.6321C119.925 98.5799 120.877 101.562 121.03 104.679C121.243 107.71 120.626 110.719 120.196 113.709C119.56 117.67 118.618 121.576 117.378 125.391C115.579 131.631 113.401 137.693 112.071 144.034C111.568 145.883 111.285 147.785 111.23 149.701C111.265 150.925 111.012 152.29 111.683 153.37C112.107 153.424 112.553 153.425 112.894 153.131C113.551 152.663 114.152 152.12 114.684 151.514C115.477 150.553 115.801 149.325 116.32 148.216C117.092 146.019 117.747 143.782 118.283 141.515C119.722 136.121 121.065 130.711 122.633 125.344C123.575 122.089 124.417 118.724 125.356 115.483C126.432 112.321 127.432 109.038 128.456 105.895C129.066 103.805 129.676 101.713 130.376 99.6502C131.237 97.105 132.075 94.4623 133.727 92.3041C133.978 92.023 134.276 91.7889 134.609 91.6128C135.401 91.2403 136.455 91.7598 136.912 92.4571C137.418 93.4791 137.832 94.5433 138.151 95.6377C138.715 97.2845 139.031 98.994 139.516 100.651C139.637 101.018 139.763 101.382 139.899 101.741C139.943 101.692 139.992 101.647 140.045 101.607C140.624 100.612 140.94 99.4734 141.558 98.4888C142.841 96.1741 144.043 93.7485 145.95 91.8731C147.747 89.95 149.464 87.9265 151.569 86.3338C153.673 84.741 156.124 83.7794 158.431 82.588C160.767 81.5153 163.349 80.9812 165.9 80.7607C167.746 80.6757 175.045 80.6939 173.961 83.7395C173.288 85.2356 170.002 85.5754 168.554 85.9278C167.57 86.1732 166.596 86.4503 165.602 86.6509C157.45 88.574 151.852 93.2749 147.149 100.029C146.06 101.559 144.973 103.096 144.021 104.715C143.071 106.508 142.331 108.404 141.817 110.366C141.254 112.685 141.302 115.143 141.675 117.485C141.936 118.963 142.419 120.388 142.704 121.863C143.004 123.446 143.252 125.063 143.75 126.562C144.275 128 144.747 129.465 145.325 130.88C145.895 132.215 146.903 133.281 147.668 134.509C148.487 128.854 151.2 123.598 154.254 118.859C155.668 116.658 157.099 114.439 158.964 112.59C160.913 110.786 162.712 108.812 164.759 107.119C166.306 105.921 168.08 105.058 169.756 104.065C170.889 103.346 172.085 102.731 173.329 102.228C174.936 101.61 178.822 100.826 179.073 103.297C178.633 104.847 177.16 105.85 175.921 106.757C174.539 107.822 173.216 108.963 171.96 110.175C168.931 112.897 165.957 115.608 163.122 118.52C160.908 120.769 158.597 123.015 157.113 125.836C154.076 131.397 152.609 137.611 155.064 143.688C157.014 148.813 161.863 152.354 166.682 154.589C166.271 151.115 167.45 147.735 168.756 144.574C170.121 140.856 171.488 137.118 173.522 133.695C174.869 131.371 176.417 129.169 178.148 127.114C179.752 125.04 181.636 123.091 184.137 122.151C185.314 121.695 187.109 120.958 188.05 122.16C188.531 123.166 187.07 125.058 186.593 125.97C185.691 127.605 184.555 129.084 183.455 130.587C182.104 132.482 180.867 134.438 179.658 136.321C178.051 138.822 176.486 141.207 174.973 143.719C173.568 146.089 172.182 148.527 171.616 151.242C170.736 156.801 172.201 160.327 176.076 164.276C177.294 165.566 178.973 166.151 180.583 166.803C182.661 167.6 184.667 168.575 186.577 169.719C187.062 165.042 188.043 160.427 189.148 155.863C190.063 152.938 191.145 149.885 193.237 147.585C194.191 146.646 195.443 146.647 195.754 148.137C195.814 148.551 195.799 148.971 195.71 149.379C195.521 150.816 195.149 152.222 194.603 153.564C193.715 156.175 192.6 158.704 191.628 161.272C191.073 163.459 190.871 165.727 190.736 167.976C190.495 171.261 192.647 174.388 195.41 175.985C197.343 177.324 199.665 177.794 201.792 178.72C204.427 179.886 206.852 181.617 209.696 182.233C210.919 180.944 211.595 179.219 212.56 177.737C214.397 175.001 216.206 172.245 217.609 169.253C218.834 166.206 219.853 163.08 220.66 159.897C221.292 157.689 221.65 155.412 221.727 153.117C221.954 150.128 220.682 147.796 219.07 145.398C218.3 144.032 217.392 142.748 216.36 141.567C215.6 140.745 214.726 140.034 213.97 139.209C213.057 138.173 212.408 136.708 212.922 135.341C213.113 134.746 213.636 134.19 214.293 134.179C216.402 134.395 218.032 135.958 219.775 136.972C221.137 137.943 222.234 139.409 223.347 140.604C225.571 142.917 227.294 145.648 229.444 148.024C230.674 144.493 232.141 141.024 232.875 137.345C233.273 134.672 233.433 131.89 232.829 129.247C231.986 125.761 228.06 122.566 224.914 121.118C222.079 119.772 219.223 118.467 216.218 117.563C215.007 117.108 213.858 116.503 212.796 115.764C211.458 114.888 209.948 114.175 208.885 112.954C207.078 110.716 210.665 109.907 212.303 109.785C214.149 109.676 215.954 110.171 217.771 110.41C219.602 110.612 221.415 110.961 223.19 111.452C226.522 112.481 229.514 114.382 232.411 116.293C234.426 117.511 236.515 118.605 238.332 120.123C238.354 118.159 238.495 116.192 238.379 114.233C238.187 112.581 237.953 110.941 237.729 109.295C237.35 107.184 237.122 105.027 236.422 102.994C236.059 102.217 235.637 101.469 235.157 100.758C234.218 99.437 232.82 98.3444 231.609 97.3446C230.886 96.6791 230.03 96.1738 229.098 95.8617C226.244 95.0635 223.277 95.2934 220.355 95.2941C218.699 95.464 217.14 95.9928 215.515 96.2788C212.785 96.7018 210.102 97.3912 207.39 97.9251C206.071 98.2092 203.538 99.0309 202.665 97.6496C202.471 97.2166 202.709 96.7558 202.908 96.3739C203.172 95.8208 203.471 95.2889 203.775 94.7596C205.373 91.9156 207.894 89.7031 210.922 88.4884C215.25 86.9884 219.793 86.2035 224.374 86.1645C226.133 86.0792 227.881 86.3974 229.624 86.5863C231.435 86.786 233.243 86.983 235.031 87.3434C234.77 85.816 233.883 84.5217 233.321 83.099C232.883 82.0088 232.497 80.8845 231.872 79.8862C231.029 78.6522 230.047 77.5191 228.945 76.5089C227.629 75.5168 226.349 74.4404 224.874 73.6931C223.361 73.1455 221.808 72.714 220.23 72.4026C219.014 72.1939 217.775 72.3227 216.538 72.4119C214.222 72.6698 211.872 73.0199 209.861 74.2648C207.834 75.1743 205.925 76.3269 204.177 77.6971C203.134 78.4856 202.015 79.1605 201.077 80.0626C199.603 81.4433 198.011 82.9767 195.94 83.3064C194.885 83.52 193.782 82.5917 194.097 81.4955C194.429 80.4866 194.898 79.5278 195.49 78.6458C196.529 76.9845 198.008 75.6777 199.266 74.1909C200.583 72.7066 202.026 71.3391 203.579 70.1039C204.841 69.0523 206.153 68.0509 207.66 67.3822C209.167 66.7136 210.802 66.4961 212.38 66.0755C213.81 65.7389 215.281 65.9166 216.732 65.8095C215.523 64.6858 214.333 63.5279 212.927 62.6357C211.245 61.6044 209.431 60.8084 207.533 60.2701C204.61 59.5588 201.534 60.1655 198.761 61.2002C197.028 61.8366 195.428 62.774 193.784 63.5927C193.024 63.9784 192.229 64.306 191.506 64.7604C190.315 65.5485 189.296 66.5454 188.295 67.4474C185.345 69.9029 184.978 73.3221 185.831 76.8656C186.286 78.876 187.19 80.711 188.165 82.5091C189.293 84.7243 190.328 86.9815 191.468 89.1941C192.377 90.9262 192.991 92.7129 193.634 94.4733C194.348 96.2366 194.946 98.0338 195.613 99.8154C196.28 101.597 196.938 103.331 197.539 105.091C198.651 108.688 199.372 112.4 200.104 116.091C200.493 118.529 200.923 120.956 201.349 123.388C201.644 125.142 201.857 127.065 202.254 128.756C202.896 131.042 203.457 133.342 203.872 135.68C204.495 138.073 205.2 140.464 205.391 142.943C205.65 145.441 206.11 147.913 206.303 150.416C206.575 154.746 206.757 159.084 207.071 163.412C207.069 164.544 207.312 165.989 206.335 166.783C204.892 167.423 203.809 165.047 203.548 163.941C202.761 161.545 202.422 159.045 202.002 156.567C201.22 151.772 200.437 146.978 199.314 142.25C197.849 137.139 197.173 131.868 196.122 126.666C194.99 121.191 193.351 115.913 192.04 110.491C191.253 107.689 190.731 104.832 190.13 101.985C189.606 99.7793 189.064 97.5709 188.454 95.3886C187.604 92.4964 186.227 89.7717 185.151 86.9528C183.891 83.991 182.681 80.9713 180.855 78.3035C179.753 76.7186 178.3 75.444 177.074 73.9642C176.239 72.9812 175.524 71.8772 174.545 71.0257C173.062 69.8934 171.315 69.1718 169.679 68.2896C167.124 67.3185 164.385 66.9323 161.662 67.1595C159.75 67.3788 157.799 67.4135 155.957 68.0207C152.791 68.9779 149.916 70.988 147.486 73.1284C145.22 75.1664 143.286 77.5243 141.383 79.8954C138.912 82.9428 136.336 85.8053 134.247 89.1068C127.869 99.4356 124.069 111.113 120.85 122.75C119.064 129.337 118.021 136.088 115.976 142.601C115.417 144.493 114.957 146.42 114.339 148.293C114.176 148.793 113.943 149.266 113.646 149.699C113.621 149.805 113.574 149.903 113.507 149.988C113.44 150.072 113.356 150.141 113.259 150.189C113.163 150.237 113.057 150.264 112.949 150.266C112.841 150.268 112.734 150.247 112.635 150.203C112.464 150.133 112.327 150 112.253 149.831C112.179 149.662 112.174 149.471 112.238 149.298C112.339 149.112 112.455 148.936 112.587 148.771C112.807 148.397 112.985 147.999 113.117 147.586C114.229 143.723 115.351 139.863 116.365 135.973C117.303 132.02 118.027 128.024 119.065 124.098C121.507 114.838 124.372 105.674 128.432 97.0005C130.152 93.2946 132.078 89.6657 134.458 86.336C136.387 83.5799 138.673 81.1016 140.753 78.4672C144.754 73.4222 149.554 68.4504 155.896 66.5808C157.203 66.2161 158.546 65.9984 159.9 65.9316C161.19 65.7652 162.49 65.6804 163.79 65.6776C165.088 65.6808 166.371 65.982 167.639 66.2304C168.836 66.4361 169.993 66.8325 171.065 67.4044C172.646 68.2864 174.369 68.9632 175.722 70.1901C176.999 71.4036 177.922 72.9379 179.143 74.1988C184.116 78.9128 185.979 85.7181 188.679 91.8056C189.729 94.2658 190.299 96.8989 190.957 99.4874C191.902 103.163 192.465 106.922 193.503 110.569C194.11 113.141 194.812 115.688 195.544 118.221C196.675 122.538 197.638 126.862 198.421 131.241C198.847 133.41 199.139 135.605 199.617 137.763C200.634 141.589 201.545 145.446 202.215 149.345C202.68 151.965 203.111 154.59 203.544 157.212C203.844 159.059 204.112 160.889 204.652 162.673C204.914 163.528 205.068 164.467 205.644 165.181C205.718 163.875 205.681 162.565 205.535 161.265C205.359 159.374 205.326 157.472 205.171 155.581C205.055 152.738 204.957 149.885 204.508 147.078C204.13 144.738 204.021 142.362 203.54 140.043C203.247 138.835 202.953 137.626 202.621 136.428C202.288 135.23 202.129 133.924 201.852 132.676C201.59 131.597 201.257 130.534 200.987 129.455C200.703 128.277 200.479 127.086 200.316 125.885C199.967 123.408 199.484 120.955 199.077 118.499C198.495 114.742 197.674 111.03 196.749 107.352C196.118 104.961 195.152 102.673 194.341 100.34C193.221 97.2859 192.126 94.1558 190.892 91.1677C189.841 89.0028 188.756 86.8563 187.721 84.6861C186.407 82.0881 184.948 79.6348 184.397 76.7671C183.523 72.8623 184.213 69.0299 187.405 66.3983C188.832 65.0834 190.237 63.7104 192.023 62.9053C193.81 62.1002 195.455 61.0865 197.236 60.3209C200.804 58.7846 204.945 57.9115 208.732 59.1577C211.051 59.9414 213.315 61.015 215.224 62.5544C216.095 63.2132 216.851 63.9982 217.654 64.7333C218.062 65.0666 218.496 65.3683 218.894 65.7173C219.022 65.8245 219.112 65.9704 219.151 66.1331C219.189 66.2957 219.174 66.4665 219.107 66.6196C219.04 66.7728 218.926 66.9001 218.78 66.9825C218.635 67.0648 218.467 67.0978 218.301 67.0765C216.565 67.3095 214.873 67.1602 213.15 67.359C210.792 67.8805 208.294 68.2777 206.317 69.7653C203.911 71.4977 201.715 73.5046 199.774 75.7454C198.099 77.587 196.219 79.4282 195.481 81.8761L195.626 81.8764C197.472 81.881 199.533 79.4602 200.861 78.3771C202.446 77.1997 204.009 76.0117 205.646 74.9135C207.266 73.8892 209.027 73.1236 210.719 72.2286C212.418 71.4866 214.299 71.246 216.126 71.0265C217.371 70.8698 218.627 70.8314 219.879 70.9119C221.759 71.2121 223.604 71.699 225.387 72.3654C226.489 72.848 227.434 73.6045 228.398 74.311C230.205 75.5153 231.671 77.1486 232.92 78.9105C233.807 80.1996 234.249 81.7248 234.872 83.1345C235.494 84.5441 238.131 89.0572 234.838 88.6983C231.773 88.129 228.654 87.8206 225.551 87.5228C222.078 87.4881 218.614 87.8744 215.236 88.6732C213.531 89.1198 211.785 89.5216 210.209 90.3377C208.694 91.1978 207.339 92.3131 206.203 93.6345C205.424 94.68 204.748 95.798 204.183 96.973C205.788 97.0773 207.324 96.3928 208.896 96.1568C210.55 95.8656 212.175 95.4477 213.824 95.1143C216.409 94.8228 218.855 93.8084 221.473 93.8413C224.88 93.9658 228.681 93.4927 231.633 95.549C234.061 97.4009 236.423 99.3686 237.652 102.235C238.426 104.21 238.607 106.37 239.015 108.446Z"
                    fill="#374937" />
            </svg>