<svg viewBox="0 0 574 380" fill="none" xmlns="http://www.w3.org/2000/svg">
                    <path
                        d="M164.745 391.527C155.115 390.572 145.819 387.484 137.531 382.487C125.436 375.22 115.713 365.587 106.63 355.178C104.133 352.313 102.78 348.486 100.702 345.223C100.044 344.187 98.7263 343.579 97.7185 342.77C96.9866 343.668 96.3795 344.66 95.9136 345.72C91.9621 359.787 88.1916 373.87 84.1253 387.892C83.0448 391.146 81.6712 394.296 80.0213 397.303C79.6364 398.087 78.4725 398.44 77.615 399.034C77.1543 398.147 76.3191 397.268 76.4094 396.476C77.0601 390.873 77.5895 385.233 78.7445 379.733C81.072 368.619 83.8567 357.603 86.2919 346.514C87.2073 342.344 86.1932 341.87 81.9469 343.005C76.8139 344.357 71.6131 345.437 66.3663 346.241C59.9082 347.235 54.0708 344.681 48.6208 341.778C43.1873 338.964 38.0335 335.64 33.2292 331.851C19.5737 320.782 9.71899 307.143 5.22022 289.775C2.3386 278.584 0.480466 267.365 0.777267 255.813C0.756302 252.436 1.47105 249.095 2.87185 246.023C3.85612 244.148 7.01579 242.273 9.0733 242.397C11.1308 242.521 13.6364 244.83 14.7099 246.842C19.6454 256.095 25.5549 264.249 34.3989 270.326C44.0275 276.911 54.1254 282.781 64.6115 287.891C72.4316 291.637 78.8481 297.786 82.9228 305.44C85.8951 311.134 88.1062 317.225 90.6814 323.127C90.9693 323.638 91.3093 324.117 91.6957 324.558C92.1344 324.1 92.8946 323.649 92.9439 323.133C93.8703 314.124 98.4047 306.383 101.848 298.305C104.004 293.319 107.011 288.65 109.911 284.01C113.864 277.688 117.957 271.456 122.191 265.316C123.931 262.691 125.981 260.285 128.297 258.151C133.159 253.858 131.886 248.744 130.534 243.699C130.207 242.468 128.475 241.621 127.382 240.6C124.098 237.544 120.518 234.742 117.581 231.377C110.089 222.781 106.626 212.239 104.265 201.285C101.555 188.739 100.503 176.077 103.75 163.525C105.869 154.878 108.673 146.414 112.135 138.213C115.942 129.604 120.881 121.4 125.743 113.319C129.188 107.767 132.98 102.44 137.098 97.3677C137.739 96.6891 138.527 96.1671 139.403 95.842C140.278 95.517 141.216 95.3978 142.145 95.4935C143.375 95.7551 144.696 98.043 145.01 99.6294C147.135 110.448 152.308 119.876 157.808 129.21C163.307 138.545 168.138 147.92 170.218 158.552C172.298 169.184 173.382 179.583 171.67 190.369C169.606 203.465 165.829 215.694 157.757 226.387C157.349 227.197 157.086 228.073 156.982 228.974C157.907 228.719 158.793 228.337 159.615 227.84C175.016 215.532 190.19 202.9 205.899 190.927C214.113 184.668 223.208 179.568 231.952 174.015C238.275 169.989 244.634 166.034 251.031 162.15C252.842 161.041 254.874 160.301 256.74 159.284C257.228 158.87 257.629 158.364 257.92 157.794C257.412 157.543 256.918 157.266 256.398 157.056C239.822 150.28 227.336 139.153 221.019 122.192C216.881 111.081 217.897 99.6809 221.758 88.5949C224.513 80.1151 228.501 72.0872 233.594 64.769C237.737 59.0786 241.275 52.9392 245.268 47.1181C246.787 44.9037 248.661 42.9898 251.985 43.8161C254.966 44.5627 255.634 46.7372 255.726 49.1583C256.063 57.4511 257.698 65.4016 262.147 72.5495C265.494 77.9603 269.696 82.8912 272.619 88.4984C276.813 96.5553 280.824 104.817 281.937 114.05C282.948 122.57 281.985 130.81 277.81 138.449C275.929 141.889 273.683 145.176 271.687 148.585C271.382 149.314 271.179 150.082 271.086 150.867C271.843 150.924 272.603 150.872 273.345 150.712C291.665 143.757 309.963 136.742 328.297 129.839C329.552 129.364 331.135 129.833 332.494 129.563C333.316 129.259 334.076 128.812 334.742 128.243C334.206 127.599 333.762 126.531 333.116 126.384C327.28 125.129 325.144 120.054 323.07 115.707C318.396 106.179 316.746 95.4493 318.341 84.957C320.508 70.3861 327.555 58.6701 340.142 50.6517C349.626 44.6002 359.779 39.5317 368.013 31.6928C371.292 28.6336 374.366 25.3619 377.216 21.8989C382.4 15.4634 387.265 8.77374 392.246 2.22212C394.728 -1.02337 398.59 -0.677047 400.272 3.17614C401.995 6.89358 403.368 10.7635 404.373 14.7357C408.904 34.3853 409.45 54.7438 405.979 74.6081C404.191 85.4783 399.495 95.6621 392.389 104.08C388.098 109.145 382.604 113.304 377.709 117.92C377.187 118.589 376.761 119.328 376.444 120.115C377.117 120.302 377.891 120.807 378.436 120.622C387.254 117.603 396.431 117.917 405.533 117.857C413.631 117.819 415.796 116.093 419.325 108.568C424.12 98.3125 430.594 89.2192 440.898 83.6656C451.897 77.7559 463.257 72.769 475.822 70.9425C486.498 69.377 496.87 71.1246 507.22 73.1136C520.938 75.774 534.602 78.7368 548.772 77.8066C555.376 77.3584 561.987 76.9302 568.592 76.8635C570.117 76.8445 572.762 78.1203 572.951 79.1538C573.3 81.1142 572.926 83.9535 571.663 85.3257C566.644 90.7403 561.561 96.2633 555.739 100.751C549.245 105.618 542.369 109.952 535.177 113.711C527.216 117.997 518.874 121.681 510.632 125.33C500.069 130.033 489.047 133.299 477.384 133.46C469.626 133.624 461.866 133.376 454.135 132.715C446.207 131.96 438.916 128.721 431.467 125.934C424.505 123.338 417.232 120.969 409.242 122.317C391.681 125.267 374.019 127.61 356.405 130.273C355.352 130.574 354.341 131.005 353.394 131.555C354.489 132.068 355.587 133.015 356.691 133.025C366.037 133.094 373.655 137.551 381.636 141.765C394.762 148.682 403.343 159.725 411.338 171.543C413.301 174.433 415.184 177.392 417.305 180.171C421.67 185.875 428.272 187.274 434.753 188.295C437.412 188.707 439.168 189.76 439.662 191.898C440.238 194.416 438.537 196.574 436.226 197.427C428.468 200.255 420.621 202.684 412.209 202.776C403.563 202.879 394.916 203.545 386.269 203.595C377.622 203.645 369.875 200.663 362.518 196.824C355.16 192.984 348.222 188.366 341.265 183.848C331.716 177.685 327.23 168.155 324.769 157.552C323.723 153.062 322.239 148.402 325.456 143.882C326.704 142.116 324.376 140.003 321.703 140.85C317.109 142.306 312.645 144.215 308.151 145.99C292.041 152.336 275.487 157.655 260.35 166.31C257.348 168.073 254.279 169.772 251.285 171.582C250.069 172.318 248.972 173.298 247.858 174.118C249.319 174.384 250.796 174.552 252.28 174.62C254.495 174.58 256.68 174.132 258.936 174.131C269.227 173.952 278.334 177.594 286.849 183.016C296.179 188.969 304.116 196.458 311.756 204.461C319.266 212.314 328.313 218.22 339.117 221.049C340.813 221.495 343.233 223.264 343.369 224.613C343.556 226.484 342.316 228.926 340.936 230.435C336.337 235.466 329.786 237.144 323.577 238.521C314.064 240.624 304.362 242.39 294.646 242.817C283.916 243.426 273.276 240.553 264.311 234.626C260.019 231.745 255.338 229.408 251.288 226.248C242.725 219.536 234.722 212.075 229.966 202.116C228.495 199.068 228.588 195.264 227.959 191.804C227.734 190.67 227.497 189.551 227.265 188.425C226.067 188.745 224.635 188.748 223.692 189.418C209.345 199.91 195.051 210.47 180.81 221.098C180.138 221.595 179.914 222.704 179.476 223.53C180.222 223.7 180.986 223.78 181.751 223.769C189.033 222.818 195.939 224.94 202.341 227.629C210.419 231.032 218.555 234.962 225.513 240.189C233.479 246.185 240.194 253.84 247.424 260.795C251.407 264.612 255.038 268.866 259.374 272.248C266.679 278.03 274.329 283.369 281.946 288.743C285.16 291.044 288.54 293.104 292.057 294.907C298.025 297.913 303.823 301.464 310.912 301.468C312.229 301.41 313.515 301.873 314.494 302.756C315.472 303.64 316.063 304.873 316.139 306.189C316.454 309.362 314.534 310.996 311.436 311.644C298.568 314.347 285.649 316.857 272.891 319.993C258.511 323.497 243.613 324.344 228.928 322.493C219.023 321.271 209.053 318.899 200.327 313.355C194.94 309.935 189.272 306.849 184.334 302.865C176.361 296.375 170.134 287.996 166.219 278.49C163.111 271.12 160.267 263.61 157.531 256.098C156.543 253.368 156.285 250.381 155.675 247.516C155.46 246.537 155.179 245.572 154.931 244.6C153.797 245.139 152.418 245.416 151.565 246.251C148.681 249.022 145.939 251.937 143.351 254.987C137.783 261.685 131.775 268.117 127.037 275.373C117.423 290.082 108.068 305.027 102.598 321.964C102.014 323.777 100.837 325.388 100.105 327.164C99.9072 327.643 100.338 328.37 100.478 328.99C100.997 328.845 101.679 328.831 102.008 328.529C116.226 315.362 132.849 314.567 149.859 320.645C159.254 323.973 168.081 329.274 176.588 334.596C181.635 337.755 185.963 342.362 189.909 346.916C196.009 353.969 203.695 356.275 212.546 356.355C218.39 356.412 224.25 356.535 230.088 356.926C231.757 357.045 234.103 357.798 234.784 359.015C235.466 360.233 234.706 362.571 233.832 363.949C229.615 370.578 222.896 374.442 216.712 378.857C207.191 385.659 196.224 389.292 185.007 391.572C178.609 392.886 171.711 391.768 164.697 391.495M233.25 313.907C239.189 313.674 245.169 313.781 251.052 313.114C259.973 312.108 268.823 310.588 277.69 309.242C281.253 308.724 284.861 308.105 288.4 307.381C289.2 307.217 289.852 306.4 290.577 305.889C289.609 305.669 288.566 305.115 287.666 305.288C279.088 307.008 270.199 306.276 262.019 303.176C251.283 299.1 240.089 295.83 230.048 290.428C217.059 283.34 205.985 273.208 197.774 260.899C190.055 249.503 178.724 243.245 166.211 238.698C163.088 237.553 161.569 238.85 162.387 242.086C164.223 249.416 166.099 256.746 168.414 263.932C173.573 279.94 181.75 293.388 196.982 302.429C208.215 309.104 220.03 311.986 233.209 313.868M516.924 94.8018C509.7 95.638 502.451 96.2939 495.265 97.3636C485.804 98.7828 476.417 100.548 466.986 102.114C455.56 104.01 444.535 107.129 434.242 112.576C432.72 113.384 431.191 114.187 429.669 114.995C431.071 115.775 432.448 116.623 433.875 117.349C442.364 121.826 451.722 124.409 461.305 124.919C473.298 125.454 485.188 124.934 496.581 120.856C503.708 118.302 510.566 115.017 517.58 112.144C533.333 105.678 548.317 97.9502 560.857 86.1376C561.101 85.9121 561.29 85.6337 561.41 85.3237C561.53 85.0136 561.577 84.6803 561.548 84.3491C561.398 83.9039 560.466 83.5087 559.863 83.4813C558.919 83.4886 557.982 83.6371 557.081 83.922C543.871 87.5024 530.681 91.1026 516.911 94.802M355.044 103.669C361.534 96.0074 365.673 86.9569 368.357 77.5358C370.706 69.2997 371.108 60.5094 372.461 52.0134C373.152 47.7082 374.139 43.4235 374.952 39.1559C374.988 38.3128 374.916 37.4685 374.738 36.6437C374.234 36.882 373.574 36.9964 373.268 37.3844C367.55 44.5675 359.538 48.6868 352.121 53.6637C346.405 57.4932 340.56 61.4862 335.92 66.4643C328.637 74.3232 326.739 84.5376 326.86 94.9702C326.984 104.265 328.96 113.145 335.208 120.536C336.911 122.561 338.613 123.917 340.844 121.166C345.403 115.534 349.975 109.914 355.016 103.643M131.469 135.834C132.731 129.484 133.972 123.128 135.194 116.766C135.386 115.744 135.498 114.698 135.643 113.67C134.734 114.332 133.445 114.788 132.969 115.682C129.311 122.493 125.499 129.247 122.369 136.315C116.788 148.649 111.882 161.277 110.783 175.076C109.672 189.274 112.399 203.511 118.68 216.294C121.992 223.164 127.549 228.923 132.22 235.156C132.481 235.429 132.807 235.633 133.167 235.749C133.527 235.866 133.91 235.89 134.282 235.822C134.82 235.616 135.141 234.639 135.414 233.944C135.687 233.248 135.527 232.663 135.776 232.115C141.822 218.968 141.048 205.183 139.156 191.441C136.992 175.918 134.295 160.473 131.916 144.928C131.496 142.139 131.689 139.257 131.496 135.86M366.382 101.768C360.602 108.511 354.794 115.227 349.088 122.028C348.481 122.757 348.493 123.922 348.218 124.878C349.061 124.847 350.002 125.041 350.732 124.731C353.863 123.419 357.022 122.121 360.013 120.518C368.763 115.922 376.604 109.775 383.155 102.375C389.808 94.7642 394.968 86.5489 396.824 76.8575C400.615 57.9556 400.582 38.4857 396.725 19.5969C396.044 16.2044 394.78 17.1818 393.095 18.2149C392.511 18.7483 392.001 19.358 391.58 20.0275C382.147 30.6496 380.689 43.9203 379.215 57.1109C378.109 67.101 378.016 77.1967 373.334 86.4997C370.938 91.2561 369.016 96.2434 366.403 101.788M128.693 324.689C121.354 325.598 114.271 327.97 107.864 331.664C107.196 332.047 106.862 333.024 106.375 333.724C107.087 334.043 107.83 334.285 108.593 334.447C111.095 334.735 113.897 334.287 116.073 335.258C122.346 337.882 128.455 340.879 134.37 344.234C140.923 348.037 147.102 352.504 153.455 356.64C155.961 358.305 158.566 359.817 161.255 361.166C174.138 367.409 188.74 369.16 202.733 366.142C205.566 365.566 208.417 364.944 211.177 364.088C213.524 363.363 215.75 362.258 218.026 361.319C215.589 361.317 213.154 361.369 210.716 361.3C206.658 361.186 202.565 361.353 198.556 360.749C189.946 359.379 185.135 352.199 179.247 346.949C171.067 339.797 161.885 333.881 151.993 329.388C144.718 325.969 137.081 325.046 128.7 324.696M159.496 201.444C160.309 198.435 161.329 195.428 161.894 192.404C165.169 173.599 163.246 155.514 154.036 138.507C151.953 134.663 149.638 130.937 147.794 126.98C145.949 123.023 144.658 118.941 143.02 114.946C142.536 114.117 141.941 113.357 141.252 112.688C140.813 113.146 140.107 113.623 140.045 114.153C139.489 120.436 139.201 126.741 138.51 133.001C137.192 144.976 140.569 156.498 141.775 168.219C142.638 176.702 145.257 184.993 146.408 193.476C147.878 204.375 149.082 215.387 145.027 226.129C144.761 226.831 145.142 227.773 145.247 228.634C145.966 228.269 146.621 227.79 147.185 227.214C152.434 219.372 156.863 211.125 159.517 201.49M237.707 73.0887C234.866 78.9656 231.561 84.6718 229.267 90.758C224.008 104.739 225.428 118.343 234.161 130.5C238.278 136.229 243.669 141.095 248.867 145.998C253.206 150.156 253.312 149.799 256.647 144.527C260.151 138.984 260.372 132.681 258.827 127.085C256.31 117.948 251.851 109.361 248.848 100.322C246.508 93.227 244.703 85.967 243.446 78.6027C242.834 75.0012 243.99 71.1011 244.245 67.334C244.236 66.2429 244.134 65.1546 243.941 64.0807C243.142 64.6034 242.421 65.2361 241.799 65.9602C240.485 68.043 239.36 70.2557 237.686 73.069M170.543 235.627C171.888 235.92 173.221 236.28 174.571 236.485C182.809 237.682 189.591 242.177 195.341 247.53C202.34 254.041 208.299 261.693 214.558 268.976C222.087 277.539 231.418 284.328 241.882 288.858C253.485 294.053 266.033 297.1 278.185 301.052C278.926 301.203 279.682 301.272 280.439 301.258C280.094 300.482 279.951 299.401 279.346 299.006C277.412 297.728 275.139 296.913 273.276 295.547C265.755 290.017 258.162 284.549 250.942 278.638C246.085 274.665 241.802 269.984 237.231 265.59C231.293 259.899 225.819 253.616 219.368 248.666C213.979 244.537 207.585 241.607 201.372 238.721C192.496 234.592 182.944 233.001 173.184 232.941C172.273 232.933 171.352 234.318 170.523 235.634M152.796 381.072C154.25 381.442 155.69 381.827 157.15 382.177C167.726 384.697 178.537 386.013 188.88 382.32C198.845 378.761 208.266 373.869 217.816 369.416C220.51 368.101 223.049 366.489 225.385 364.61C226.208 363.97 226.254 362.336 226.698 361.188C225.634 361.401 224.596 361.723 223.599 362.151C221.092 363.55 218.759 365.259 216.216 366.572C203.809 372.967 190.518 374.005 177.02 372.264C164.912 370.727 154.442 364.678 143.984 358.862C136.283 354.588 129.102 349.279 121.361 345.046C117.251 342.81 112.412 341.869 107.851 340.487C107.117 340.268 105.618 340.601 105.394 341.094C105.262 341.542 105.237 342.014 105.321 342.472C105.405 342.931 105.596 343.364 105.878 343.735C110.198 348.268 114.544 352.788 119.087 357.102C122.934 360.789 127.344 363.915 131.053 367.732C136.98 373.857 144.438 377.374 152.762 381.052M342.421 145.972L341.429 145.27C338.575 143.242 334.97 141.505 332.201 143.465C330.717 144.52 330.801 148.769 331.238 151.39C333.185 163.036 337.045 173.63 348.761 179.405C353.218 181.593 357.274 184.706 361.54 187.366C373.804 194.991 387.562 195.776 401.412 195.797C402.144 195.669 402.849 195.418 403.498 195.056C403.032 194.43 402.45 193.9 401.784 193.493C399.822 192.805 397.588 192.565 395.681 191.655C385.654 186.946 376.761 180.131 369.607 171.673C361.622 162.224 353.793 152.872 342.401 145.952M313.785 217.089C309.992 213.729 305.976 210.588 302.473 207.008C295.036 199.283 286.416 192.792 276.937 187.778C264.923 181.507 252.379 183.38 239.844 183.807C239.243 183.833 238.673 184.755 238.088 185.256C238.692 185.665 239.263 186.383 239.887 186.443C252.951 187.625 261.926 196.397 271.218 204.017C279.501 210.803 287.739 217.649 297.946 220.772C307.95 223.806 318.396 225.271 328.668 227.342C329.725 227.416 330.787 227.359 331.83 227.174C330.887 226.271 330.144 225.008 329.015 224.476C324.225 222.075 319.339 219.869 313.798 217.102M515.946 82.1719C512.659 81.4987 509.37 80.7319 506.078 80.1593C491.766 77.5985 477.655 75.937 463.3 81.1081C449.091 86.2091 436.628 93.1807 428.085 105.979C427.574 106.989 427.192 108.058 426.948 109.163C428.101 109.036 429.235 108.772 430.325 108.375C435.225 105.888 439.863 102.704 444.984 100.848C451.398 98.6123 457.973 96.8683 464.652 95.631C475.738 93.4745 486.874 90.5405 498.059 90.2359C509.244 89.9314 519.934 87.1474 530.959 86.5585C531.568 86.5255 532.117 85.6102 532.695 85.1026C532.11 84.6465 531.551 83.8351 530.927 83.7747C526.138 83.3008 521.373 83.0205 515.927 82.1924M278.219 233.012C280.163 233.459 282.102 233.994 284.057 234.334C295.021 236.243 305.795 234.193 316.662 232.811C317.196 232.746 317.672 232.154 318.167 231.802C317.695 231.35 317.205 230.631 316.695 230.602C313.436 230.283 310.098 230.4 306.914 229.866C299.92 228.629 293.039 227.055 286.98 222.899C281.113 218.941 274.189 216.304 268.964 211.689C261.434 205.048 253.745 198.846 244.961 194.019C243.293 193.134 241.492 192.528 239.628 192.225C236.458 191.703 235.402 193.038 236.561 195.945C239.558 203.418 244.016 210.338 250.116 215.162C258.693 221.941 267.117 229.345 278.32 233.017M34.6702 298.219C38.0338 300.276 41.3137 302.489 44.7804 304.356C50.5557 307.453 56.3128 310.638 62.3182 313.221C71.5933 317.221 80.0573 321.793 83.4707 332.183C83.6991 332.847 84.6918 333.261 85.3255 333.79C85.5371 333.089 85.6347 332.36 85.6143 331.628C84.1911 323.867 80.6041 316.969 75.9418 310.81C72.4492 306.151 68.5057 301.376 63.7081 298.298C56.0803 293.387 47.1761 290.463 39.5486 285.565C31.3517 280.331 22.3565 275.642 17.5742 266.353C17.4623 266.113 17.2649 265.924 17.0207 265.823C16.2882 265.684 15.5372 265.62 14.7855 265.529C14.7516 266.124 14.8117 266.722 14.9637 267.299C16.4042 270.514 17.8048 273.744 19.4502 276.842C23.3931 284.422 26.7568 292.47 34.6758 298.172M357.271 140.476C354.219 139.831 351.185 139.139 348.114 138.582C347.199 138.519 346.279 138.561 345.373 138.707C346.041 139.61 346.519 140.972 347.417 141.348C355.116 144.558 360.865 150.199 366.346 156.173C372.856 163.277 378.907 170.833 385.842 177.479C393.845 185.241 404.098 188.972 414.87 191.26C415.612 191.354 416.36 191.382 417.107 191.347C416.601 190.507 416.286 189.249 415.548 188.87C409.982 185.842 407.168 180.353 403.381 175.715C398.124 169.26 392.898 162.731 387.05 156.838C383.313 153.237 379.062 150.21 374.436 147.855C369.223 145.088 363.495 143.242 357.332 140.521M22.3236 297.41C20.0922 293.515 17.907 289.586 15.6028 285.726C15.2142 285.078 14.2246 284.811 13.5123 284.364C13.5137 285.061 13.2961 285.848 13.5364 286.446C14.9794 290.096 16.429 293.74 18.0377 297.314C22.1935 306.508 28.1863 314.754 35.6475 321.545C41.0493 326.319 46.9478 330.5 53.2418 334.016C57.207 336.193 61.5661 337.559 66.0648 338.034C69.9031 338.488 73.9733 336.621 77.8571 337.014C80.8749 337.285 80.6165 335.831 79.7299 334.745C76.8637 331.212 74.0251 327.403 70.3634 324.864C66.9394 322.487 62.4258 321.753 58.5007 320.049C51.8456 317.131 44.9506 314.574 38.7802 310.836C32.9693 307.325 26.8259 303.914 22.3301 297.403M264.491 90.5921C260.64 83.8867 256.796 77.1611 252.893 70.4837C252.719 70.1861 251.879 70.0366 251.494 70.1921C251.294 70.3241 251.127 70.5003 251.006 70.7071C250.885 70.914 250.813 71.1459 250.797 71.3849C250.64 73.5507 250.624 75.7242 250.747 77.892C251.727 89.0426 256.755 98.8823 260.993 108.986C265.535 119.894 269.923 130.798 264.79 142.775C264.605 143.227 265.001 143.922 265.148 144.521C265.752 144.3 266.635 144.255 266.894 143.834C267.756 142.421 268.495 140.936 269.102 139.397C272.467 130.824 276.017 122.114 273.363 112.807C271.278 105.408 267.941 98.29 264.504 90.5918L264.491 90.5921Z"
                        fill="#212C21" />
                </svg>