<?xml version="1.0" encoding="UTF-8"?>
<svg version="1.1" xmlns="http://www.w3.org/2000/svg" width="512" height="512">
<path d="M0 0 C10.49503204 6.65047082 18.251329 15.49272835 21.18359375 27.6875 C23.17699878 40.61084619 23.17699878 40.61084619 20.64453125 45.67578125 C21.52625 45.93230469 22.40796875 46.18882813 23.31640625 46.453125 C32.96561516 49.99796348 43.95286878 59.13828754 49.64453125 67.67578125 C49.97974204 70.69267832 50.2040004 72.77353504 49.64453125 75.67578125 C47.58203125 78.23828125 47.58203125 78.23828125 44.64453125 79.67578125 C41.14767234 79.87005119 38.83395962 79.69400402 36.09765625 77.3515625 C34.98340792 76.16836316 33.87881621 74.97603404 32.78125 73.77734375 C19.00533655 60.22809066 -0.1865707 52.98569131 -19.29296875 52.48828125 C-28.29295481 52.63965716 -35.53130933 54.51545057 -42.35546875 60.67578125 C-46.95653122 66.35271405 -48.27140236 72.77840078 -49.484375 79.85546875 C-50.49838612 83.13850026 -51.3809521 84.04423667 -54.35546875 85.67578125 C-57.29296875 86.17578125 -57.29296875 86.17578125 -60.35546875 85.67578125 C-64.43594621 82.52268503 -66.08671487 79.63545553 -67.35546875 74.67578125 C-69.69501338 74.34095061 -69.69501338 74.34095061 -72.35546875 74.67578125 C-82.9481597 83.47130906 -90.85848808 102.32770357 -92.35546875 115.67578125 C-92.76738848 123.67302034 -92.61389121 131.67561811 -92.35546875 139.67578125 C-87.96468389 135.45554297 -83.93795755 131.21302286 -80.41796875 126.23828125 C-79.78628784 125.35027832 -79.78628784 125.35027832 -79.1418457 124.44433594 C-74.41100418 117.59394176 -70.88604863 110.19217338 -67.35546875 102.67578125 C-66.40413882 100.69323873 -65.44693901 98.71348724 -64.48046875 96.73828125 C-64.11179687 95.96613281 -63.743125 95.19398437 -63.36328125 94.3984375 C-62.35546875 92.67578125 -62.35546875 92.67578125 -60.35546875 91.67578125 C-56.48082379 91.14742057 -54.78938945 91.39278949 -51.48046875 93.55078125 C-48.87279562 95.94227422 -46.77100967 98.63405983 -44.60546875 101.42578125 C-30.31822543 119.62918767 -8.3653607 130.52257945 14.45703125 133.42578125 C22.93929867 134.02078533 31.11003714 133.57410383 39.51953125 132.36328125 C40.90398437 132.18635742 40.90398437 132.18635742 42.31640625 132.00585938 C43.20585937 131.88017578 44.0953125 131.75449219 45.01171875 131.625 C45.80690918 131.51502686 46.60209961 131.40505371 47.42138672 131.29174805 C50.07291762 130.55708821 51.63448494 129.54446973 53.64453125 127.67578125 C54.74246132 120.95793793 53.74940621 114.14971631 52.109375 107.6015625 C51.42784478 104.77808016 51.18649328 102.55487703 51.64453125 99.67578125 C54.1004725 96.35303721 55.57019565 94.89960117 59.64453125 94.05078125 C63.68034361 94.89157549 64.99656712 96.55877355 67.64453125 99.67578125 C71.31095179 109.24851748 70.9979677 119.5962974 70.64453125 129.67578125 C72.00384766 129.85947266 72.00384766 129.85947266 73.390625 130.046875 C78.67395723 131.06802325 82.82886946 133.42185627 86.23046875 137.64453125 C91.40265704 145.65693854 91.74819407 154.0725105 90.18359375 163.43359375 C87.44866451 173.69762231 81.15785519 181.4766228 72.64453125 187.67578125 C68.10517169 190.22963232 63.76502017 191.75373517 58.64453125 192.67578125 C58.45890625 194.0215625 58.45890625 194.0215625 58.26953125 195.39453125 C55.54920012 211.85253459 48.27513496 224.78440167 36.64453125 236.67578125 C35.78239014 237.18979492 34.92024902 237.70380859 34.03198242 238.23339844 C30.43710955 241.9109839 30.86501995 245.46281393 30.83203125 250.42578125 C30.80689453 251.31394531 30.78175781 252.20210937 30.75585938 253.1171875 C30.69707865 255.30383043 30.66073586 257.48847657 30.64453125 259.67578125 C31.58175018 259.6657885 31.58175018 259.6657885 32.53790283 259.65559387 C39.09259855 259.58877069 45.64719612 259.54378733 52.20214844 259.51098633 C54.64229265 259.49598147 57.08241027 259.4755711 59.52246094 259.44946289 C63.04759317 259.41271274 66.57236613 259.39597123 70.09765625 259.3828125 C71.7109079 259.35958672 71.7109079 259.35958672 73.35675049 259.33589172 C89.73462715 259.33232394 104.6905677 264.95330347 116.53125 276.42578125 C131.44457278 292.30392159 133.11768903 309.67457112 133.078125 330.5390625 C133.0826957 332.66074285 133.08800389 334.78242173 133.0940094 336.90409851 C133.102907 341.33611084 133.10055637 345.76794265 133.09057617 350.19995117 C133.07910178 355.84149335 133.09929224 361.48240813 133.12849331 367.12386799 C133.14696146 371.5020281 133.14654162 375.88004087 133.14085579 380.25823021 C133.14070381 382.33636542 133.14664426 384.41451142 133.15914726 386.49260902 C133.26682864 407.32341795 130.1219156 426.23450206 115.24780273 442.12524414 C107.47786964 449.63961068 98.88483512 455.17132006 89.45703125 460.36328125 C88.22146005 461.05464456 86.98660966 461.74729747 85.75244141 462.44116211 C83.86930067 463.49979877 81.98583487 464.55777767 80.10015869 465.6118927 C74.19636129 468.91327306 68.35344189 472.31504921 62.51953125 475.73828125 C60.57054093 476.87799489 58.62132071 478.01731547 56.671875 479.15625 C55.20790283 480.01162354 55.20790283 480.01162354 53.71435547 480.88427734 C26.69904097 496.6500144 26.69904097 496.6500144 16.14453125 502.42578125 C15.10296875 502.998125 14.06140625 503.57046875 12.98828125 504.16015625 C3.05286433 508.66359289 -5.91672747 509.17690949 -16.68603516 509.12182617 C-19.21860269 509.1133211 -21.74890433 509.1421431 -24.28125 509.17382812 C-36.49589134 509.2277559 -46.252455 507.26723906 -57.10546875 501.30078125 C-57.70053223 500.97480957 -58.2955957 500.64883789 -58.90869141 500.31298828 C-65.23171983 496.81377577 -71.4791401 493.17594179 -77.73046875 489.55078125 C-78.74077148 488.96506348 -79.75107422 488.3793457 -80.79199219 487.77587891 C-97.68514201 477.89230015 -97.68514201 477.89230015 -100.04296875 473.61328125 C-100.40233249 470.23526207 -100.06075326 468.59912612 -98.35546875 465.67578125 C-94.56455504 463.14850544 -92.86391801 463.2226243 -88.35546875 463.67578125 C-85.53341244 464.76385632 -83.00979597 466.25124221 -80.41796875 467.80078125 C-79.27908203 468.45554443 -79.27908203 468.45554443 -78.1171875 469.12353516 C-75.51920468 470.62328922 -72.93643304 472.14693271 -70.35546875 473.67578125 C-67.24165902 475.51674501 -64.12718761 477.35649077 -61.00952148 479.19091797 C-58.95351225 480.40329341 -56.90198917 481.62331908 -54.85571289 482.85205078 C-43.11837246 489.80670843 -32.84566737 494.33121135 -19.12890625 491.46875 C-10.53939089 489.01287448 -3.54116767 484.59664146 2.08203125 477.67578125 C3.84978661 474.87423612 3.84978661 474.87423612 3.57836914 472.20678711 C2.27526935 468.67496084 0.54134305 467.9708155 -2.734375 466.1796875 C-3.87084473 465.54603271 -5.00731445 464.91237793 -6.17822266 464.25952148 C-7.42476202 463.5856958 -8.67134517 462.91195112 -9.91796875 462.23828125 C-11.19945781 461.52932493 -12.47988382 460.81844391 -13.75927734 460.10571289 C-16.37002194 458.65218145 -18.98433157 457.20539705 -21.60107422 455.76269531 C-26.94730671 452.80391744 -32.21403171 449.71123764 -37.48046875 446.61328125 C-45.71440867 441.79354756 -53.96470586 437.00323591 -62.23046875 432.23828125 C-63.2992627 431.62210937 -64.36805664 431.0059375 -65.46923828 430.37109375 C-69.93619297 427.79671194 -74.40383296 425.22352202 -78.87207031 422.65136719 C-81.22893166 421.29462867 -83.58553799 419.93744904 -85.94189453 418.57983398 C-88.14553744 417.31032006 -90.3496083 416.04154857 -92.55419922 414.77368164 C-94.54661163 413.62570902 -96.53648328 412.47331215 -98.5234375 411.31591797 C-100.41199605 410.22218208 -102.31059718 409.14560679 -104.21875 408.08642578 C-105.10949219 407.58095215 -106.00023437 407.07547852 -106.91796875 406.5546875 C-108.09552734 405.90028687 -108.09552734 405.90028687 -109.296875 405.23266602 C-111.9243173 403.24556929 -113.02696087 401.70445512 -114.35546875 398.67578125 C-114.60718209 395.88167301 -114.7070001 393.31720063 -114.6484375 390.53125 C-114.64541626 389.84824829 -114.64239502 389.16524658 -114.63928223 388.46154785 C-114.62367561 385.92863693 -114.58179182 383.39594271 -114.54296875 380.86328125 C-114.45015625 372.35546875 -114.45015625 372.35546875 -114.35546875 363.67578125 C-127.88546875 363.67578125 -141.41546875 363.67578125 -155.35546875 363.67578125 C-155.27296875 370.00765625 -155.19046875 376.33953125 -155.10546875 382.86328125 C-155.08967773 384.83321045 -155.07388672 386.80313965 -155.05761719 388.83276367 C-154.84240148 403.10386798 -152.72676954 414.71374483 -144.35546875 426.67578125 C-143.74832031 427.59423828 -143.74832031 427.59423828 -143.12890625 428.53125 C-138.38344922 434.89249148 -131.04008458 438.63497742 -124.35546875 442.67578125 C-116.45176505 447.48318866 -116.45176505 447.48318866 -115.35546875 449.67578125 C-114.90023862 456.84565573 -114.90023862 456.84565573 -116.41796875 459.61328125 C-119.44702285 461.27437544 -121.90267671 461.50471269 -125.35546875 461.67578125 C-128.16948546 460.75350388 -130.58362176 459.33742136 -133.10546875 457.80078125 C-133.80357666 457.38876465 -134.50168457 456.97674805 -135.22094727 456.55224609 C-152.56751817 446.07048835 -164.62760411 431.97324321 -170.02101994 412.24280834 C-172.32599172 402.78890827 -171.9097233 393.08084711 -171.8515625 383.4140625 C-171.85171787 381.28948416 -171.85321316 379.16490554 -171.85597229 377.04032898 C-171.857348 372.61358934 -171.84493466 368.18717696 -171.82202148 363.76049805 C-171.79358734 358.11545325 -171.79639974 352.47094898 -171.8091116 346.82586384 C-171.81609785 342.44782473 -171.80824678 338.06990841 -171.79585457 333.69188499 C-171.79137237 331.61128397 -171.79097465 329.53066963 -171.79491997 327.45006752 C-171.81538861 307.17080892 -169.10006579 290.29947828 -154.2734375 275.37109375 C-141.3901967 263.47091149 -126.48886326 259.49838599 -109.39453125 259.578125 C-108.2488266 259.57953995 -107.10312195 259.5809549 -105.92269897 259.58241272 C-102.27526197 259.58799545 -98.6278871 259.60054484 -94.98046875 259.61328125 C-92.50260506 259.61829848 -90.0247404 259.622861 -87.546875 259.62695312 C-81.48305184 259.63795924 -75.41926473 259.65468022 -69.35546875 259.67578125 C-69.40750932 256.60020036 -69.50261583 253.52739307 -69.60546875 250.453125 C-69.61964844 249.58409546 -69.63382812 248.71506592 -69.6484375 247.81970215 C-69.84064814 242.55345549 -69.84064814 242.55345549 -72.2487793 237.95239258 C-74.36993966 236.1816829 -74.36993966 236.1816829 -76.8125 234.53515625 C-89.95741566 224.92382007 -94.9451929 207.96200437 -97.35546875 192.67578125 C-97.97292969 192.52882812 -98.59039062 192.381875 -99.2265625 192.23046875 C-110.02716295 189.37003575 -117.76925462 183.72064998 -124.35546875 174.67578125 C-129.40765405 165.69574091 -131.02640595 155.3792932 -128.82421875 145.2265625 C-126.22057514 137.79768808 -122.22714965 134.29615161 -115.57421875 130.59375 C-113.35546875 129.67578125 -113.35546875 129.67578125 -109.35546875 129.67578125 C-109.401875 128.80179688 -109.44828125 127.9278125 -109.49609375 127.02734375 C-109.95163265 111.50648263 -106.78303184 97.39820406 -99.35546875 83.67578125 C-98.88109375 82.79535156 -98.40671875 81.91492188 -97.91796875 81.0078125 C-92.72132161 71.89955868 -85.94831643 60.81499903 -75.35546875 57.67578125 C-72.34765625 57.4453125 -72.34765625 57.4453125 -69.23046875 57.48828125 C-67.67972656 57.49794922 -67.67972656 57.49794922 -66.09765625 57.5078125 C-63.35546875 57.67578125 -63.35546875 57.67578125 -60.35546875 58.67578125 C-60.04609375 57.89203125 -59.73671875 57.10828125 -59.41796875 56.30078125 C-58.35546875 53.67578125 -58.35546875 53.67578125 -57.35546875 51.67578125 C-57.84415835 49.99669392 -58.33598851 48.31841368 -58.84863281 46.64648438 C-61.67769021 35.64641149 -59.29829235 24.35314379 -53.66015625 14.8046875 C-41.98476069 -2.61386822 -19.25381853 -9.55958822 0 0 Z M-36.35546875 18.67578125 C-41.00974478 24.34185641 -43.52636478 29.05485124 -43.41796875 36.42578125 C-43.40894531 37.225 -43.39992188 38.02421875 -43.390625 38.84765625 C-43.37902344 39.4509375 -43.36742187 40.05421875 -43.35546875 40.67578125 C-42.73800781 40.47082031 -42.12054688 40.26585938 -41.484375 40.0546875 C-25.81700939 35.07070057 -10.2941478 36.30588911 5.64453125 39.67578125 C6.30461958 32.54682727 4.65993597 27.6120166 0.64453125 21.67578125 C-9.56294522 10.50106407 -24.54997195 8.35837229 -36.35546875 18.67578125 Z M-55.35546875 115.67578125 C-55.88914062 116.67996094 -56.4228125 117.68414062 -56.97265625 118.71875 C-60.71652446 125.64065179 -64.55769796 132.36084216 -69.35546875 138.61328125 C-69.76563232 139.1544458 -70.1757959 139.69561035 -70.59838867 140.25317383 C-73.26329823 143.64008006 -76.11140878 145.99174196 -79.54296875 148.55078125 C-82.86454324 151.74370321 -83.60961904 154.13340649 -83.76171875 158.60546875 C-83.67167232 163.63681323 -83.21810045 168.61649999 -82.67578125 173.6171875 C-82.36729008 176.56290194 -82.14379909 179.5018423 -81.94921875 182.45703125 C-80.55593988 202.29858108 -74.21215213 215.8608676 -59.00244141 229.32177734 C-47.32538073 238.92168521 -31.83966408 247.39284963 -16.35546875 246.67578125 C2.58124779 244.18888003 19.36051134 231.65743745 31.64453125 217.67578125 C40.52895117 205.92175855 42.21088099 194.80261628 43.26953125 180.48828125 C43.39090728 178.96150713 43.51329695 177.43481323 43.63671875 175.90820312 C44.36251352 166.83503759 45.00941997 157.75568886 45.64453125 148.67578125 C44.58262573 148.74478638 44.58262573 148.74478638 43.49926758 148.81518555 C9.16736178 150.91430942 -20.66552905 145.66088513 -47.35546875 122.67578125 C-49.7670079 120.40227633 -52.06380628 118.0716102 -54.35546875 115.67578125 C-54.68546875 115.67578125 -55.01546875 115.67578125 -55.35546875 115.67578125 Z M61.64453125 144.67578125 C60.43140628 155.03066939 59.26918502 165.2286445 59.64453125 175.67578125 C66.39875488 173.03998666 70.97915683 168.15134527 74.08203125 161.67578125 C75.02742151 156.63369984 75.54669194 152.519327 73.20703125 147.73828125 C70.40988153 145.48691684 69.43887773 145.34226452 65.984375 145.046875 C64.76609009 144.93557251 64.76609009 144.93557251 63.52319336 144.82202148 C62.59325562 144.74963257 62.59325562 144.74963257 61.64453125 144.67578125 Z M-110.85546875 147.05078125 C-113.59891118 150.02284388 -113.64154415 152.54311337 -113.5625 156.53125 C-112.88817441 163.51624529 -108.46774069 169.13733575 -103.35546875 173.67578125 C-100.73653093 174.91094938 -100.73653093 174.91094938 -98.35546875 175.67578125 C-98.29544297 171.67406255 -98.30152285 167.67758635 -98.35546875 163.67578125 C-98.35933594 162.87140625 -98.36320312 162.06703125 -98.3671875 161.23828125 C-98.42994696 158.90938902 -98.42994696 158.90938902 -99.35546875 155.67578125 C-102.2079826 153.49631479 -102.2079826 153.49631479 -105.35546875 151.67578125 C-107.23046875 148.42578125 -107.23046875 148.42578125 -108.35546875 145.67578125 C-109.57175182 145.56316048 -109.57175182 145.56316048 -110.85546875 147.05078125 Z M-53.35546875 252.67578125 C-53.38125 253.46082031 -53.40703125 254.24585938 -53.43359375 255.0546875 C-53.79124771 261.67941419 -54.19878375 266.39566788 -58.35546875 271.67578125 C-63.24158254 275.16586253 -68.52907184 275.34185732 -74.35546875 275.67578125 C-62.44954634 290.22746419 -48.90502417 303.90720259 -29.35546875 306.67578125 C-12.21552537 307.83107701 3.29975995 305.68124312 17.1640625 294.67578125 C19.7332316 292.41005732 22.19827759 290.07370467 24.64453125 287.67578125 C25.14114258 287.19286621 25.63775391 286.70995117 26.14941406 286.21240234 C29.36367085 283.08135932 32.57204965 279.94686433 35.64453125 276.67578125 C35.64453125 276.34578125 35.64453125 276.01578125 35.64453125 275.67578125 C34.76410156 275.58941406 33.88367188 275.50304687 32.9765625 275.4140625 C23.42698531 274.25878624 23.42698531 274.25878624 19.45703125 271.30078125 C16.40569584 266.88160583 15.37254733 263.83869441 15.01953125 258.42578125 C14.90738281 256.80929687 14.90738281 256.80929687 14.79296875 255.16015625 C14.74398437 254.3403125 14.695 253.52046875 14.64453125 252.67578125 C10.50249347 254.0131208 6.48680059 255.53383797 2.45703125 257.17578125 C-13.15275599 263.20279477 -27.77501824 262.8963416 -43.23193359 256.31884766 C-45.02549153 255.52373636 -46.8079923 254.70382253 -48.58984375 253.8828125 C-51.1580483 252.54244666 -51.1580483 252.54244666 -53.35546875 252.67578125 Z M-147.5625 292.171875 C-153.65634093 300.68201016 -155.52119174 308.96901545 -155.453125 319.2578125 C-155.45211792 319.98013062 -155.45111084 320.70244873 -155.45007324 321.44665527 C-155.44486827 324.12721357 -155.43090712 326.80774912 -155.41796875 329.48828125 C-155.39734375 335.49015625 -155.37671875 341.49203125 -155.35546875 347.67578125 C-141.82546875 347.67578125 -128.29546875 347.67578125 -114.35546875 347.67578125 C-114.14563054 337.98320737 -114.14563054 337.98320737 -113.9675293 328.29003906 C-113.91786011 326.47777832 -113.91786011 326.47777832 -113.8671875 324.62890625 C-113.84100342 323.39301758 -113.81481934 322.15712891 -113.7878418 320.88378906 C-113.33159109 317.49862009 -112.77543135 316.04623799 -110.35546875 313.67578125 C-107.875 313.28515625 -107.875 313.28515625 -105.16796875 313.42578125 C-104.26691406 313.461875 -103.36585938 313.49796875 -102.4375 313.53515625 C-101.75042969 313.5815625 -101.06335938 313.62796875 -100.35546875 313.67578125 C-99.15161531 317.28734156 -99.35790509 319.97690911 -99.51513672 323.78662109 C-99.57120176 325.28090954 -99.62598102 326.77524663 -99.67965698 328.2696228 C-99.70865963 329.06191662 -99.73766228 329.85421043 -99.76754379 330.67051315 C-99.9332262 335.77092939 -99.99949567 340.87369124 -100.07386589 345.97612572 C-100.14451042 350.45146845 -100.25650894 354.91786464 -100.46289062 359.38916016 C-102.13906604 378.36120403 -102.13906604 378.36120403 -96.14547729 395.52920532 C-90.7459465 400.01080081 -84.79830617 402.46651175 -78.18492126 404.63948059 C-73.93740489 406.19515399 -70.37345254 408.55892272 -66.66796875 411.11328125 C-64.56519176 412.53025202 -62.67896074 413.6075455 -60.35546875 414.67578125 C-57.01263537 413.82049776 -55.06501963 411.57638669 -52.73046875 409.11328125 C-49.69344663 405.92374492 -48.46620559 404.75656211 -43.91796875 404.42578125 C-40.35546875 404.67578125 -40.35546875 404.67578125 -38.41796875 405.73828125 C-36.61962033 409.01762249 -36.7502319 410.98383648 -37.35546875 414.67578125 C-39.42445211 417.61970782 -41.79162446 420.15771989 -44.35546875 422.67578125 C-40.92689398 425.54055638 -37.47607937 427.88181689 -33.5859375 430.07421875 C-32.46074707 430.71174072 -31.33555664 431.3492627 -30.17626953 432.00610352 C-29.58364319 432.33941681 -28.99101685 432.6727301 -28.38043213 433.0161438 C-26.51730194 434.06523369 -24.6582702 435.12125705 -22.80029297 436.17944336 C-17.80438841 439.02395253 -12.80588832 441.86367518 -7.79248047 444.67724609 C-4.51511678 446.5193845 -1.24724713 448.37745489 2.01953125 450.23828125 C3.0041333 450.78468262 3.98873535 451.33108398 5.00317383 451.89404297 C11.80585445 455.79098419 17.04890328 459.68671133 20.01953125 467.11328125 C20.22578125 467.95890625 20.43203125 468.80453125 20.64453125 469.67578125 C27.61658883 463.82489517 34.12389651 457.5594036 40.60546875 451.17480469 C41.95770342 449.84912252 43.31704312 448.53064654 44.68359375 447.21972656 C55.149104 437.17344283 64.01102561 427.72872568 65.64453125 412.67578125 C64.66613281 412.31226563 63.68773437 411.94875 62.6796875 411.57421875 C46.03352295 405.24587212 46.03352295 405.24587212 40.03515625 399 C38.72317892 397.44591312 38.72317892 397.44591312 36.64453125 397.67578125 C36.38285156 397.10601562 36.12117187 396.53625 35.8515625 395.94921875 C34.55510786 393.50735272 33.01746611 391.49072543 31.33203125 389.30078125 C26.97375319 383.21013326 24.86356413 376.77259607 22.64453125 369.67578125 C8.20229726 370.37459902 -0.57037132 378.49103982 -10.10546875 388.67578125 C-12.35047396 390.94186632 -13.37932824 391.68437067 -16.48046875 392.80078125 C-20.0590659 392.64519007 -21.66889382 392.05531904 -24.35546875 389.67578125 C-25.35546875 386.80078125 -25.35546875 386.80078125 -25.35546875 383.67578125 C-19.36931577 371.62258133 -6.00532551 362.08013253 6.20703125 357.36328125 C11.26707677 355.66444752 16.38262156 354.54325443 21.64453125 353.67578125 C21.84755859 352.40347656 21.84755859 352.40347656 22.0546875 351.10546875 C24.74856115 336.42627702 30.83358224 322.48669988 43.30029297 313.47949219 C53.73451362 306.57779633 63.90432097 303.09890502 76.45703125 303.23828125 C77.41899414 303.24585449 78.38095703 303.25342773 79.37207031 303.26123047 C91.38820072 303.5382769 100.65989847 306.94739808 110.64453125 313.67578125 C111.60939453 314.30613281 111.60939453 314.30613281 112.59375 314.94921875 C113.95385476 315.84327363 115.30122633 316.75667789 116.64453125 317.67578125 C117.30056187 307.616645 113.65429166 298.65491346 107.64453125 290.67578125 C98.1146537 280.00775433 86.60912124 275.87200474 72.63720703 274.92358398 C62.7940131 274.23104375 62.7940131 274.23104375 54.0625 277.9765625 C51.47423542 280.62965334 49.34221166 283.62030306 47.1953125 286.63427734 C44.22647409 290.54256242 40.73614593 293.96184556 37.26953125 297.42578125 C36.54362793 298.1530542 35.81772461 298.88032715 35.06982422 299.62963867 C18.91451077 315.46517014 0.16306377 322.11928635 -22.18701172 322.03930664 C-46.57433432 321.62063217 -63.6882458 309.76702924 -80.28955078 292.94750977 C-81.74450197 291.4740697 -83.20753118 290.00902221 -84.671875 288.54492188 C-91.97916228 281.19965075 -91.97916228 281.19965075 -94.34838867 277.90136719 C-96.14552972 275.50260539 -96.14552972 275.50260539 -98.71459961 275.04467773 C-99.57448486 275.04540283 -100.43437012 275.04612793 -101.3203125 275.046875 C-102.27921387 275.04187988 -103.23811523 275.03688477 -104.22607422 275.03173828 C-105.74418701 275.07210205 -105.74418701 275.07210205 -107.29296875 275.11328125 C-108.84588623 275.13817627 -108.84588623 275.13817627 -110.43017578 275.16357422 C-125.67151498 275.62441998 -137.55534773 280.36703071 -147.5625 292.171875 Z M48.5859375 329.55859375 C39.72698606 338.97003894 37.13759334 349.00353988 37.3671875 361.5546875 C37.89343725 372.97247444 43.90513176 381.2745574 51.89453125 388.92578125 C59.79272588 395.72811808 69.05703552 398.07395193 79.28515625 397.94921875 C91.25523931 396.97490966 99.9700034 391.94056533 107.95703125 383.23828125 C115.70273767 373.64733729 117.73027379 362.80431989 116.64453125 350.67578125 C115.11734962 344.34663676 112.61876519 338.85432851 108.64453125 333.67578125 C107.56171875 332.19078125 107.56171875 332.19078125 106.45703125 330.67578125 C99.88367115 323.01691214 90.71834204 319.3160174 80.95703125 317.80078125 C68.55781851 316.9151232 57.64931522 321.26912874 48.5859375 329.55859375 Z M112.83203125 400.30078125 C106.33789509 405.8860018 99.17802254 409.37281661 90.703125 410.59912109 C87.24164541 411.16559121 84.70868063 411.93757287 81.64453125 413.67578125 C78.82914774 418.39596218 78.21000567 424.16136168 77.15039062 429.47998047 C74.14134793 442.54143315 61.93247352 451.89627443 52.64453125 460.67578125 C53.30453125 461.00578125 53.96453125 461.33578125 54.64453125 461.67578125 C57.14666417 460.54770009 57.14666417 460.54770009 59.96484375 458.84375 C61.05039551 458.2146875 62.13594727 457.585625 63.25439453 456.9375 C64.42641262 456.24661233 65.59811898 455.55519559 66.76953125 454.86328125 C67.9579872 454.16765537 69.14662711 453.47234369 70.33544922 452.77734375 C73.78049465 450.75793195 77.21371993 448.71928408 80.64453125 446.67578125 C81.96324219 445.89195068 81.96324219 445.89195068 83.30859375 445.09228516 C98.43796612 436.04438918 110.70773848 426.52418588 115.64453125 408.67578125 C116.19483017 405.01023084 116.5037398 401.37859631 116.64453125 397.67578125 C115.1251774 397.56206154 115.1251774 397.56206154 112.83203125 400.30078125 Z " fill="#cc8328" transform="translate(275.35546875,3.32421875)"/>
<path d="M0 0 C4.85059412 3.72254897 7.63174463 9.13120218 9 15 C9.75486248 21.68592483 8.40632202 27.16465726 5 33 C-0.63777255 39.39104488 -6.46939227 42.44061589 -15 43 C-22.36853501 42.45819596 -27.65903786 40.13178608 -33 35 C-34.44430855 32.11138291 -34.37688506 30.20352299 -34 27 C-31.61621045 23.77487296 -30.15916431 22.23183286 -26.1875 21.4375 C-23.18370614 21.96758127 -21.55630514 22.68268814 -18.9375 24.125 C-15.75511088 25.88526247 -15.75511088 25.88526247 -12.125 25.4375 C-9.73944852 24.01907333 -9.73944852 24.01907333 -8 21 C-8.22451526 17.55743262 -8.70182811 15.44725784 -10.625 12.5625 C-12.54937945 8.97615648 -12.0721448 6.85972127 -11 3 C-7.92244297 -0.66939492 -4.56126263 -0.78642459 0 0 Z " fill="#cc8328" transform="translate(367,346)"/>
</svg>
