<?xml version="1.0" encoding="UTF-8"?>
<svg version="1.1" xmlns="http://www.w3.org/2000/svg" width="512" height="512">
<path d="M0 0 C9.93636505 4.63945135 14.75018858 10.82671653 18.50390625 20.8984375 C20.24648066 26.65488733 21.76244919 32.4653877 23.27734375 38.28515625 C23.72739227 39.9909699 24.1781405 41.69659908 24.62954712 43.40205383 C25.81419597 47.8848037 26.98995675 52.36983594 28.16363525 56.85546875 C29.33988854 61.34568693 30.52367368 65.83391558 31.70703125 70.32226562 C32.05199976 71.63230844 32.05199976 71.63230844 32.40393734 72.96881676 C33.53950554 77.2805076 34.67815332 81.59134206 35.82313538 85.90054321 C37.6991649 92.97116256 39.55863709 100.03752803 41.24780273 107.15576172 C41.50167755 108.18828568 41.75555237 109.22080963 42.01712036 110.28462219 C42.45824473 112.08803212 42.878053 113.89689182 43.26901245 115.71183777 C44.33232053 119.96543262 45.36911729 122.22573272 49.06542969 124.71972656 C51.67200745 126.15828037 54.28117413 127.38723576 57.125 128.28515625 C61.57126563 129.84110411 65.37858068 131.99799959 69.37890625 134.4609375 C70.80088977 135.31319254 72.22412826 136.16335622 73.6484375 137.01171875 C74.41365723 137.46885254 75.17887695 137.92598633 75.96728516 138.39697266 C80.97352694 141.36024378 86.02407543 144.24717733 91.06640625 147.1484375 C92.16718506 147.78491211 93.26796387 148.42138672 94.40209961 149.07714844 C99.95821967 152.28945068 105.52521297 155.47850971 111.12109375 158.62109375 C130.68097226 169.67291716 145.95506155 181.13864816 152.42236328 203.58203125 C156.81792861 220.40272799 156.92444492 237.53621969 156.78515625 254.8112793 C156.75381287 258.72259092 156.74414656 262.63349652 156.73828125 266.54492188 C156.62914523 302.77319852 156.62914523 302.77319852 153.50390625 305.8984375 C151.03126526 306.1769104 151.03126526 306.1769104 147.86547852 306.21728516 C146.08147392 306.24705948 146.08147392 306.24705948 144.26142883 306.2774353 C142.96086044 306.28900665 141.66029205 306.300578 140.3203125 306.3125 C138.95976119 306.33143169 137.59922118 306.35119199 136.23869324 306.37173462 C132.59907742 306.42399005 128.95943065 306.46370391 125.31962585 306.50013733 C122.32732481 306.53108022 119.33510624 306.5678216 116.34287071 306.60448456 C109.02555162 306.69389695 101.70816683 306.77002077 94.39063072 306.83913422 C89.33834642 306.88777481 84.28646646 306.95356048 79.23448181 307.02633667 C75.9603275 307.07091062 72.68618635 307.1027765 69.41183472 307.12860107 C67.98463784 307.14172036 66.55747591 307.15958711 65.13040161 307.18243408 C63.20819337 307.21161557 61.28569896 307.2197655 59.36328125 307.2265625 C58.33686523 307.2359082 57.31044922 307.24525391 56.25292969 307.25488281 C53.00809643 306.83414955 51.13138663 305.81793517 48.50390625 303.8984375 C47.19549491 301.28161482 47.36042825 299.29539548 47.328125 296.3671875 C47.30427734 295.24570312 47.28042969 294.12421875 47.25585938 292.96875 C47.21345792 290.6199665 47.18190502 288.27095779 47.16210938 285.921875 C46.94417015 277.0218452 45.68134689 269.94104836 40.09375 262.83203125 C39.21847656 262.00832031 38.34320313 261.18460937 37.44140625 260.3359375 C36.96171387 259.87888428 36.48202148 259.42183105 35.98779297 258.95092773 C31.96558049 255.17493296 27.69981175 251.71184373 23.38671875 248.27734375 C20.14107816 245.59903058 17.0722143 242.7757945 14.00390625 239.8984375 C10.08733395 236.22992437 6.12624643 232.70187371 1.94140625 229.3359375 C-20.78437195 210.92308071 -26.68026512 191.57454684 -33.96875 163.9921875 C-34.57937591 161.69532492 -35.19042204 159.39857402 -35.80186462 157.10192871 C-37.4007278 151.09197779 -38.99398485 145.08055502 -40.58599854 139.06878662 C-42.19914134 132.98115923 -43.81754676 126.89493158 -45.43554688 120.80859375 C-48.07259249 110.88667537 -50.70754211 100.96420442 -53.33534336 91.03983307 C-54.46508032 86.7751318 -55.59796867 82.5114242 -56.74728394 78.25195312 C-56.93400634 77.55842491 -57.12072874 76.8648967 -57.3131094 76.15035248 C-57.7933016 74.36953354 -58.27579857 72.58933649 -58.75852966 70.8092041 C-61.24303036 61.00422338 -60.82654367 52.65466391 -55.87109375 43.6484375 C-52.46777522 38.32551321 -48.12752147 34.71415136 -42.49609375 31.8984375 C-42.17519096 29.76205689 -41.94063829 27.61250742 -41.74609375 25.4609375 C-40.57120005 16.57693359 -37.65645708 10.09788138 -30.55859375 4.4609375 C-21.48529038 -1.9924736 -10.51922738 -3.31443812 0 0 Z M-25.03515625 17.734375 C-27.83771288 21.82078438 -29.13084993 24.82038808 -28.49609375 29.8984375 C-27.44421875 30.13626953 -27.44421875 30.13626953 -26.37109375 30.37890625 C-17.98214531 32.44194928 -10.334547 35.42651492 -4.93945312 42.50805664 C4.32102604 57.84455046 6.76612107 80.29282141 11.36450195 97.63452148 C12.31224341 101.20739117 13.2653634 104.77879108 14.22175026 108.3493557 C14.58229999 109.69998047 14.94072249 111.05117502 15.29694176 112.40294838 C15.79147741 114.27948792 16.29339418 116.15407761 16.7956543 118.02856445 C17.07813522 119.09283157 17.36061615 120.15709869 17.6516571 121.25361633 C18.43131715 124.08505905 18.43131715 124.08505905 20.50390625 126.8984375 C21.96471558 126.27924672 23.4224808 125.65287058 24.87890625 125.0234375 C25.69101563 124.67539062 26.503125 124.32734375 27.33984375 123.96875 C29.64192924 122.97397683 29.64192924 122.97397683 31.50390625 120.8984375 C28.19474667 108.368974 24.87482558 95.84241661 21.5412178 83.31943417 C19.99355029 77.5041344 18.44957669 71.68790647 16.9140625 65.86938477 C15.43147996 60.25198997 13.93917206 54.63726148 12.4401474 49.02423286 C11.87055645 46.88460543 11.30444845 44.74404761 10.74192047 42.60255241 C9.95211678 39.5982856 9.14988177 36.59759541 8.34472656 33.59741211 C8.11598846 32.7155574 7.88725037 31.8337027 7.65158081 30.92512512 C5.63460413 23.49820559 3.15861686 17.33491124 -3.49609375 12.8984375 C-11.48386725 10.23584633 -19.48575269 11.11452812 -25.03515625 17.734375 Z M-43.8828125 49.40234375 C-47.37893617 54.49319049 -47.07658805 59.95810715 -46.49609375 65.8984375 C-45.33444771 72.13423654 -43.54045543 78.23532245 -41.8515625 84.34375 C-41.36103288 86.15762044 -40.87174656 87.97182751 -40.38362122 89.78634644 C-39.09300387 94.57100957 -37.78602899 99.35105064 -36.4753418 104.13024902 C-35.18697451 108.83817272 -33.91315465 113.55002106 -32.63867188 118.26171875 C-31.12221354 123.86619758 -29.60282144 129.46980234 -28.06930542 135.06964111 C-25.48358274 144.51839292 -22.94387562 153.97585812 -20.49072266 163.45996094 C-19.76283308 166.25184411 -19.03386642 169.04344384 -18.30455971 171.83495712 C-17.84846784 173.59367074 -17.39751268 175.35372616 -16.95223045 177.11520767 C-12.39333499 195.14414174 -6.05384214 205.6917275 8.48046875 217.37890625 C11.76324316 220.11455159 14.88754398 222.97696306 18.00390625 225.8984375 C21.85745467 229.50874055 25.74851875 232.97648131 29.87890625 236.2734375 C56.06358822 257.42112485 56.06358822 257.42112485 59.50390625 273.8984375 C59.83390625 280.4984375 60.16390625 287.0984375 60.50390625 293.8984375 C87.56390625 293.8984375 114.62390625 293.8984375 142.50390625 293.8984375 C143.54536092 290.77407348 143.63680996 288.58208735 143.64916992 285.30395508 C143.65554977 284.15457962 143.66192963 283.00520416 143.66850281 281.82099915 C143.66961563 280.57424911 143.67072845 279.32749908 143.671875 278.04296875 C143.6752034 276.75339767 143.6785318 275.4638266 143.68196106 274.13517761 C143.68795543 271.39552986 143.68980118 268.65591362 143.68920898 265.91625977 C143.68912836 263.13591922 143.6959631 260.35574566 143.7097168 257.57543945 C144.68035091 218.97088359 144.68035091 218.97088359 127.40112305 185.70336914 C120.96351724 179.75966268 114.17120872 175.46760926 106.50390625 171.2734375 C105.27256044 170.58703742 104.04202542 169.89918108 102.81225586 169.20996094 C100.28740833 167.79576653 97.75968171 166.38693662 95.22998047 164.98144531 C89.46962407 161.77184504 83.77077402 158.4562856 78.06640625 155.1484375 C69.88888593 150.42259724 61.70329745 145.71123765 53.50390625 141.0234375 C52.61904541 140.5171582 51.73418457 140.01087891 50.82250977 139.48925781 C50.01612061 139.02874023 49.20973145 138.56822266 48.37890625 138.09375 C47.32316406 137.49071045 47.32316406 137.49071045 46.24609375 136.87548828 C41.46776316 134.19571263 36.91029044 134.34785806 31.50390625 134.8984375 C26.07534287 137.56336861 22.73759021 141.25482902 20.19140625 146.7109375 C19.04775639 152.01331413 19.64113765 156.06036526 21.94140625 160.9609375 C28.14381767 168.07101888 36.71811306 172.22811373 44.89160156 176.69848633 C51.78371435 180.47075052 58.5899754 184.38126516 65.37890625 188.3359375 C66.41934082 188.93929932 67.45977539 189.54266113 68.53173828 190.16430664 C69.50997559 190.73528076 70.48821289 191.30625488 71.49609375 191.89453125 C72.3660498 192.40169678 73.23600586 192.9088623 74.13232422 193.43139648 C80.28318261 197.23626658 80.28318261 197.23626658 81.31640625 200.3359375 C81.49869783 202.82725583 81.28849638 204.54466711 80.50390625 206.8984375 C72.10917462 208.07123089 66.48396571 203.98773706 59.50390625 199.7734375 C58.27020523 199.04482988 57.03557202 198.31779857 55.80004883 197.59228516 C53.27146142 196.10477953 50.74850894 194.60830149 48.22900391 193.10546875 C44.70087924 191.00667984 41.1445895 188.96268007 37.578125 186.9296875 C35.44921648 185.71094146 33.32031013 184.49219165 31.19140625 183.2734375 C30.21494141 182.71897949 29.23847656 182.16452148 28.23242188 181.59326172 C14.1148338 173.42083503 14.1148338 173.42083503 10.62890625 165.8359375 C10.23960938 165.01996094 9.8503125 164.20398438 9.44921875 163.36328125 C6.94443128 156.83220317 6.70751629 150.41166106 8.79760742 143.79785156 C10.49832145 135.43448642 7.23656482 127.20572603 4.9921875 119.1953125 C4.50154369 117.38598577 4.0126553 115.57618218 3.5254364 113.76593018 C2.50356559 109.98667875 1.46766516 106.21168018 0.42016602 102.43945312 C-0.91965263 97.61398627 -2.23474514 92.78223866 -3.54074383 87.94752121 C-4.79207223 83.31945097 -6.05576553 78.69478498 -7.3203125 74.0703125 C-7.55895208 73.19347557 -7.79759167 72.31663864 -8.04346275 71.4132309 C-8.72360249 68.92296774 -9.41250058 66.4353025 -10.10424805 63.94824219 C-10.30232056 63.21876373 -10.50039307 62.48928528 -10.70446777 61.73770142 C-12.36103733 55.84212861 -14.14752087 50.53071938 -18.99609375 46.5859375 C-19.58390625 46.09480469 -20.17171875 45.60367188 -20.77734375 45.09765625 C-28.5724247 39.65881568 -37.97387491 42.99405932 -43.8828125 49.40234375 Z " fill="#cc8328" transform="translate(74.49609375,143.1015625)"/>
<path d="M0 0 C7.3598065 4.24988826 12.24962486 10.40902549 14.97265625 18.44921875 C15.51549548 20.9170845 15.62813016 23.29016358 15.75 25.8125 C15.87492547 28.32745631 15.87492547 28.32745631 16.4375 30.5625 C19.12315179 32.99185224 19.12315179 32.99185224 22.4375 34.5625 C28.06717401 39.5056284 32.96115733 45.90257189 33.74060059 53.52764893 C34.16702359 66.36022499 30.99266235 77.81523932 27.59375 90.109375 C26.98346028 92.37310114 26.37489308 94.63729229 25.76794434 96.9019165 C24.17112109 102.84056929 22.55013112 108.77236017 20.92407227 114.70306396 C19.29839461 120.65070683 17.69745822 126.60499758 16.09375 132.55859375 C13.36806567 142.66319316 10.61324342 152.75944494 7.83280945 162.84911346 C6.38099166 168.11882281 4.94043041 173.3910985 3.52442169 178.67054367 C2.66301686 181.87202553 1.78347609 185.06844352 0.90625 188.265625 C0.63059204 189.31329041 0.35493408 190.36095581 0.07092285 191.44036865 C-3.98523417 205.9748802 -13.03333685 215.97722424 -24.640625 225.1796875 C-27.72996757 227.69907115 -30.64951445 230.34434095 -33.5625 233.0625 C-37.24933232 236.4951903 -41.00365944 239.78812032 -44.9375 242.9375 C-50.20639134 247.16030488 -55.10481318 251.72002031 -59.96826172 256.39794922 C-64.35141105 260.5625 -64.35141105 260.5625 -66.5625 260.5625 C-67.23368641 261.89356387 -67.8992727 263.22745252 -68.5625 264.5625 C-69.08251587 265.60591553 -69.08251587 265.60591553 -69.61303711 266.67041016 C-72.81872662 273.78362207 -73.12062484 280.2109725 -73.125 287.9375 C-73.13393284 290.23706835 -73.15552113 292.53663181 -73.19140625 294.8359375 C-73.19213135 295.84060059 -73.19285645 296.84526367 -73.19360352 297.88037109 C-73.62099572 300.98780377 -74.38543864 302.33274463 -76.5625 304.5625 C-79.31620796 305.48040265 -80.8766526 305.68027425 -83.70619202 305.6582489 C-84.54884109 305.65409973 -85.39149017 305.64995056 -86.25967407 305.64567566 C-87.18082001 305.63587173 -88.10196594 305.62606781 -89.05102539 305.6159668 C-90.02360794 305.60957184 -90.99619049 305.60317688 -91.99824524 305.59658813 C-95.21895113 305.57377155 -98.43952388 305.54317456 -101.66015625 305.51171875 C-103.89310058 305.49249416 -106.12604637 305.47343811 -108.35899353 305.45454407 C-113.0405592 305.41353862 -117.72206296 305.36830732 -122.40356445 305.32055664 C-128.41516413 305.25988791 -134.42678434 305.21302076 -140.43853092 305.16972637 C-145.04954819 305.13444221 -149.66044714 305.09019502 -154.2713604 305.04337502 C-156.48859311 305.02227367 -158.70585877 305.00438821 -160.92314339 304.9897213 C-164.01672982 304.96824694 -167.10993654 304.93434421 -170.20336914 304.8972168 C-171.12653931 304.89348557 -172.04970947 304.88975433 -173.00085449 304.88591003 C-174.26059837 304.86699707 -174.26059837 304.86699707 -175.54579163 304.84770203 C-176.27748597 304.84087245 -177.00918032 304.83404287 -177.76304722 304.82700634 C-179.5625 304.5625 -179.5625 304.5625 -181.5625 302.5625 C-182.9834057 293.68072045 -182.73444625 284.44261346 -182.765625 275.46875 C-182.77417511 273.50681702 -182.77417511 273.50681702 -182.78289795 271.50524902 C-182.79330616 268.75219344 -182.79921413 265.99916614 -182.80273438 263.24609375 C-182.807104 260.47121932 -182.82095749 257.69665845 -182.84375 254.921875 C-183.08933381 224.38640482 -182.14884103 197.16265559 -161.359375 173.046875 C-153.75906879 166.29576502 -144.28938756 161.58732651 -135.5 156.5625 C-133.79098367 155.58099448 -132.0819697 154.59948481 -130.37309265 153.61773682 C-128.61082103 152.60571893 -126.84793768 151.59477333 -125.08496094 150.58398438 C-119.42534641 147.33774736 -113.77586437 144.07393499 -108.125 140.8125 C-107.05088867 140.1935083 -105.97677734 139.5745166 -104.87011719 138.93676758 C-99.86680481 136.05262677 -94.86821114 133.16110628 -89.8828125 130.24609375 C-89.01068115 129.73723633 -88.1385498 129.22837891 -87.23999023 128.70410156 C-85.63624311 127.76754721 -84.0340632 126.82830138 -82.43383789 125.88574219 C-81.72735107 125.47356445 -81.02086426 125.06138672 -80.29296875 124.63671875 C-79.68864014 124.28182373 -79.08431152 123.92692871 -78.46166992 123.5612793 C-76.5625 122.5625 -76.5625 122.5625 -74.10627747 121.98982239 C-71.21830259 120.70981431 -71.21830259 120.70981431 -70.1217041 117.17822266 C-69.71399991 115.70008109 -69.32942113 114.21544819 -68.96289062 112.7265625 C-68.63734444 111.51128372 -68.63734444 111.51128372 -68.30522156 110.27145386 C-67.58991073 107.5815982 -66.90446305 104.88503876 -66.21875 102.1875 C-65.72406231 100.3048505 -65.22749124 98.42269496 -64.72912598 96.54101562 C-63.41726894 91.56801518 -62.13034878 86.58888927 -60.84869385 81.60803223 C-59.55779233 76.60737982 -58.24523033 71.61243373 -56.93359375 66.6171875 C-55.45097809 60.96751431 -53.97029752 55.31742538 -52.50744629 49.66259766 C-50.34649809 41.31135354 -48.1652398 32.96541788 -45.90429688 24.640625 C-45.70995811 23.90912231 -45.51561935 23.17761963 -45.31539154 22.4239502 C-42.89594937 13.61812114 -39.26225714 7.1345141 -31.78515625 1.81640625 C-21.77845465 -3.82885072 -10.53539679 -4.77675421 0 0 Z M-28.64627075 16.86174011 C-30.6340174 19.6632976 -31.48027847 21.78271216 -32.34716797 25.0871582 C-32.79082199 26.73738228 -32.79082199 26.73738228 -33.24343872 28.42094421 C-33.55240082 29.61879044 -33.86136292 30.81663666 -34.1796875 32.05078125 C-34.69888886 33.99862547 -35.21811764 35.94646257 -35.73833275 37.89403629 C-36.29640549 39.98975903 -36.84906453 42.08686087 -37.40124512 44.18414307 C-38.58092784 48.65018324 -39.79694923 53.10586688 -41.02050781 57.56005859 C-42.94636217 64.57258966 -44.85724494 71.58897498 -46.75416946 78.60938835 C-47.84133374 82.6314538 -48.93324307 86.65211368 -50.03515625 90.67016602 C-51.12452595 94.64304527 -52.2025119 98.61884636 -53.27230453 102.59704018 C-53.67732674 104.09532319 -54.086441 105.59250637 -54.49975967 107.08852196 C-55.06826273 109.14892872 -55.62208045 111.21274126 -56.17236328 113.27807617 C-56.6491301 115.03217049 -56.6491301 115.03217049 -57.13552856 116.82170105 C-57.27642914 117.7261647 -57.41732971 118.63062836 -57.5625 119.5625 C-55.27790242 121.84709758 -53.43712656 122.53379748 -50.4375 123.6875 C-49.52742187 124.04070312 -48.61734375 124.39390625 -47.6796875 124.7578125 C-46.98101562 125.02335937 -46.28234375 125.28890625 -45.5625 125.5625 C-45.25135254 124.41813477 -44.94020508 123.27376953 -44.61962891 122.09472656 C-44.17612892 120.46418668 -43.73260464 118.83365341 -43.2890625 117.203125 C-43.04978027 116.32329956 -42.81049805 115.44347412 -42.56396484 114.5369873 C-41.22821543 109.62802247 -39.88911655 104.7200023 -38.54443359 99.81347656 C-37.98788405 97.78192068 -37.43140668 95.75034502 -36.875 93.71875 C-36.45596909 92.18888458 -36.45596909 92.18888458 -36.0284729 90.62811279 C-34.46597176 84.91052778 -32.92750447 79.18749972 -31.42105103 73.45489502 C-30.55720832 70.17402916 -29.68011808 66.89678698 -28.80096436 63.61999512 C-28.39581376 62.09605485 -27.9969617 60.57042447 -27.60479736 59.04309082 C-24.94911213 48.71355262 -21.98065572 39.55587182 -12.5625 33.5625 C-7.65704011 31.29656737 -2.89400029 29.50503309 2.4375 28.5625 C3.07225618 23.48445058 1.77911913 20.48484688 -1.0234375 16.3984375 C-4.13025422 12.69233634 -7.20278171 10.92728737 -11.98828125 10.1875 C-19.10533041 9.84190732 -23.7646647 11.47535851 -28.64627075 16.86174011 Z M-11.1171875 49.38110352 C-13.87264912 53.53989568 -14.81857979 58.20270735 -16 63 C-16.48148456 64.86220124 -16.96312015 66.72436464 -17.44720459 68.58589172 C-17.81709548 70.01191187 -18.18436648 71.43861347 -18.54937744 72.8658905 C-20.09697748 78.88548362 -21.75372189 84.87122481 -23.43513489 90.85472107 C-24.84607498 95.88038806 -26.23829044 100.91116557 -27.62918091 105.94241333 C-28.33229992 108.47207247 -29.04227947 110.99983516 -29.75924683 113.52560425 C-30.77974729 117.13011227 -31.77157962 120.74145668 -32.7578125 124.35546875 C-33.07086838 125.43689148 -33.38392426 126.51831421 -33.70646667 127.63250732 C-35.34032158 133.74034818 -35.78002975 138.26907204 -34.12911987 144.41352844 C-32.11248748 152.06184059 -34.07423744 159.86526966 -37.7109375 166.73046875 C-44.69846455 177.17136899 -58.86466928 182.70070194 -69.48193359 188.76586914 C-74.75523045 191.78264901 -80.01135862 194.8120824 -85.1953125 197.98046875 C-86.04544922 198.49383789 -86.89558594 199.00720703 -87.77148438 199.53613281 C-89.33091196 200.48099213 -90.88242125 201.43910526 -92.42382812 202.41308594 C-97.4070446 205.40623674 -100.75312183 206.03899956 -106.5625 205.5625 C-107.42583015 202.18766395 -107.89093688 200.27374385 -106.40478516 197.05541992 C-104.29845138 194.20519806 -102.5082225 193.03592342 -99.3984375 191.36328125 C-98.3667041 190.79875244 -97.3349707 190.23422363 -96.27197266 189.65258789 C-94.62140869 188.77268188 -94.62140869 188.77268188 -92.9375 187.875 C-90.66070579 186.63158531 -88.38466615 185.38678796 -86.109375 184.140625 C-84.99240234 183.53283203 -83.87542969 182.92503906 -82.72460938 182.29882812 C-75.90551227 178.554432 -69.22589502 174.57561839 -62.5625 170.5625 C-61.46035156 169.90507812 -60.35820312 169.24765625 -59.22265625 168.5703125 C-58.24167969 167.96960938 -57.26070313 167.36890625 -56.25 166.75 C-55.42886719 166.24855469 -54.60773438 165.74710937 -53.76171875 165.23046875 C-49.31906104 161.86099301 -46.73543409 158.00064895 -45.5625 152.5625 C-45.45957357 146.85580103 -46.90266253 143.03563468 -50.5625 138.5625 C-55.73765005 134.00343924 -58.81340391 133.16767983 -65.61572266 133.24511719 C-70.34183785 133.75414368 -73.74716896 135.73801889 -77.75 138.1875 C-78.59675293 138.67895508 -79.44350586 139.17041016 -80.31591797 139.67675781 C-82.13482182 140.73605041 -83.94752646 141.8060479 -85.75439453 142.88574219 C-88.5825374 144.5744646 -91.42666889 146.23244724 -94.27734375 147.8828125 C-98.27149176 150.19761038 -102.25771825 152.52520212 -106.23828125 154.86328125 C-110.64002467 157.44485363 -115.0544976 160.00321033 -119.48046875 162.54296875 C-120.05776733 162.87452972 -120.63506592 163.2060907 -121.2298584 163.54769897 C-124.0084734 165.14319294 -126.78848986 166.73615357 -129.57080078 168.32519531 C-146.46243759 178.02279268 -160.34261113 186.96291327 -165.78125 206.7890625 C-168.81498886 218.79166042 -169.71490309 230.306916 -169.6953125 242.6796875 C-169.69598748 244.02727272 -169.69695912 245.37485782 -169.69821167 246.72244263 C-169.69967646 249.52786433 -169.69757155 252.33325394 -169.69287109 255.13867188 C-169.6871413 258.7331996 -169.6904809 262.32765318 -169.69644356 265.92217827 C-169.70005403 268.69652874 -169.69890891 271.47086156 -169.69631577 274.24521255 C-169.69532641 276.21449075 -169.6983578 278.18376963 -169.70144653 280.15304565 C-169.69829437 281.34503571 -169.69514221 282.53702576 -169.69189453 283.76513672 C-169.69109894 284.81498749 -169.69030334 285.86483826 -169.68948364 286.94650269 C-169.67498413 289.67481394 -169.67498413 289.67481394 -168.5625 292.5625 C-141.5025 292.5625 -114.4425 292.5625 -86.5625 292.5625 C-86.2325 285.9625 -85.9025 279.3625 -85.5625 272.5625 C-81.6267916 256.81966641 -71.82708493 247.88532299 -59.484375 237.98046875 C-56.41026829 235.43652215 -53.48075199 232.78133025 -50.5625 230.0625 C-46.87536445 226.63011844 -43.12136468 223.33689899 -39.1875 220.1875 C-34.78948855 216.61291885 -30.47594424 212.96309302 -26.25 209.1875 C-25.67523926 208.69459473 -25.10047852 208.20168945 -24.50830078 207.69384766 C-13.21435708 197.43466366 -10.72655253 182.43687548 -7.0625 168.29296875 C-6.45896475 166.0069293 -5.85412279 163.72123449 -5.24804688 161.43586731 C-3.65952457 155.43236625 -2.08810614 149.42452084 -0.52050781 143.41552734 C1.05983361 137.36882852 2.65526531 131.32611884 4.25 125.28320312 C6.05253656 118.4507021 7.85379752 111.61790127 9.64257812 104.78178406 C9.91565796 103.73951314 10.18873779 102.69724222 10.47009277 101.62338734 C11.00556909 99.57747383 11.53953572 97.53116454 12.07189941 95.4844389 C13.38052555 90.47749677 14.73393317 85.49003068 16.17578125 80.51968384 C16.45570923 79.54121396 16.73563721 78.56274408 17.02404785 77.5546236 C17.54872377 75.73021436 18.08470989 73.90899636 18.63513184 72.09218884 C20.79693787 64.53171361 22.26087546 56.33789894 18.4375 49.125 C15.09737032 44.54290661 10.9377096 42.13382877 5.35546875 41.22265625 C-2.05553862 40.8684016 -6.59249522 43.93854905 -11.1171875 49.38110352 Z " fill="#cc8328" transform="translate(463.5625,144.4375)"/>
<path d="M0 0 C7.1225067 4.08960886 13.05345092 9.37996692 19 15 C19.64066406 15.5878125 20.28132812 16.175625 20.94140625 16.78125 C36.55295322 31.58951827 47.33054392 55.57841559 48.11328125 77.1171875 C48.12332695 79.74916031 48.07511552 82.36950681 48 85 C48.74552124 84.54729736 48.74552124 84.54729736 49.50610352 84.08544922 C73.91386813 69.35938445 99.19031895 59.47312149 128.125 64.3125 C128.85968506 64.43012695 129.59437012 64.54775391 130.35131836 64.66894531 C134.20537367 65.37172513 136.54001853 65.92102103 139 69 C145.0227104 84.72505497 141.79993426 106.00607688 135.3046875 121.04296875 C122.41307329 149.1393019 99.04656001 169.03549843 72 183 C71.32211426 183.35191406 70.64422852 183.70382813 69.94580078 184.06640625 C32.2516887 203.37206063 -11.3304134 206.29290813 -51.6875 193.796875 C-88.61250128 181.69792857 -124.71187973 157.39690385 -143.00952148 122.32543945 C-148.76311392 110.81433968 -151.17936437 99.555474 -151.1875 86.75 C-151.19974609 85.75097656 -151.21199219 84.75195312 -151.22460938 83.72265625 C-151.23644793 77.68499324 -151.04191864 71.74550886 -149 66 C-143.10535294 60.10535294 -131.65848597 60.76754507 -123.8125 60.6875 C-100.15997416 60.78529544 -78.68244269 69.35972096 -59 82 C-58.85304688 80.83726562 -58.70609375 79.67453125 -58.5546875 78.4765625 C-54.58493547 49.28919901 -42.88181741 24.48881259 -19.2890625 5.859375 C-16.90266892 4.15378439 -14.48956404 2.54994022 -12 1 C-10.9275 0.319375 -9.855 -0.36125 -8.75 -1.0625 C-4.95283398 -2.35698842 -3.59822903 -1.76383776 0 0 Z M-8.2109375 14.125 C-8.92507812 14.74375 -9.63921875 15.3625 -10.375 16 C-11.15746094 16.66773438 -11.93992188 17.33546875 -12.74609375 18.0234375 C-13.48988281 18.67570312 -14.23367187 19.32796875 -15 20 C-15.58910156 20.44601563 -16.17820313 20.89203125 -16.78515625 21.3515625 C-32.99833953 33.84682905 -42.14735229 55.48971875 -44.97998047 75.16381836 C-49.28141765 108.39689316 -38.78534737 142.96275849 -18.76318359 169.6484375 C-16.27375168 172.85212419 -13.65349649 175.93222244 -11 179 C-10.01887435 180.22760356 -9.03932521 181.45647174 -8.0625 182.6875 C-7.0415625 183.8321875 -7.0415625 183.8321875 -6 185 C-3.94391484 185.22468836 -3.94391484 185.22468836 -2.66015625 183.77734375 C22.09018363 155.27511861 38.07841337 120.39720613 35.72851562 82.046875 C33.83084127 58.73806671 24.25766936 36.47961026 6.51953125 20.80859375 C-0.13889473 14.45327167 -0.13889473 14.45327167 -8.2109375 14.125 Z M-138 76 C-138.95393446 102.33919037 -131.25634099 120.90609116 -113.37109375 140.515625 C-112.58863281 141.33546875 -111.80617188 142.1553125 -111 143 C-110.49218994 143.5377002 -109.98437988 144.07540039 -109.46118164 144.62939453 C-105.16552259 149.07030557 -100.58865435 152.79178702 -95.5625 156.375 C-94.77609131 156.93662842 -93.98968262 157.49825684 -93.17944336 158.0769043 C-72.08233102 172.91124205 -47.7088218 183.68113476 -22 187 C-24.23722429 183.09919867 -26.79237761 179.58672056 -29.5 176 C-43.61902035 156.51879503 -52.60758275 134.29644477 -55.875 110.5 C-57.00949726 101.83376896 -57.00949726 101.83376896 -62.25 95.125 C-64.12778666 94.01477577 -66.05034939 92.97854129 -68 92 C-69.18696189 91.27663719 -70.3676321 90.54288371 -71.54296875 89.80078125 C-87.63986261 79.87395189 -104.93521075 73.97455849 -123.875 73.75 C-124.58930176 73.7404126 -125.30360352 73.7308252 -126.03955078 73.72094727 C-130.39850311 73.74911911 -133.9493329 74.40004998 -138 76 Z M49 102 C46.98485306 105.60207515 46.46578385 109.5070564 45.75952148 113.53295898 C41.50941794 137.58283493 31.8184486 159.6820551 17.09375 179.1875 C15.21049307 181.71724811 13.56760821 184.26673441 12 187 C44.67385805 186.3547353 76.71594742 168.99254412 100 147 C100.82371094 146.25234375 101.64742188 145.5046875 102.49609375 144.734375 C116.30942915 131.71837722 127.68852938 113.19960528 128.265625 93.81640625 C128.27084887 92.06510421 128.26557812 90.31374054 128.25 88.5625 C128.25773437 87.66595703 128.26546875 86.76941406 128.2734375 85.84570312 C128.26957031 84.56276367 128.26957031 84.56276367 128.265625 83.25390625 C128.26224121 82.09870483 128.26224121 82.09870483 128.25878906 80.92016602 C128.16537575 78.76115905 128.16537575 78.76115905 126 77 C99.13603227 72.11564223 68.5823643 83.33127634 49 102 Z " fill="#cc8328" transform="translate(261,64)"/>
</svg>
