<?xml version="1.0" encoding="UTF-8"?>
<svg version="1.1" xmlns="http://www.w3.org/2000/svg" width="512" height="512">
<path d="M0 0 C0.78944 -0.00570007 1.57888 -0.01140015 2.39224243 -0.01727295 C4.05786832 -0.02666461 5.7235123 -0.03323352 7.38916016 -0.03710938 C9.87307522 -0.04671647 12.35612559 -0.07775416 14.83984375 -0.109375 C29.21015637 -0.20462777 43.0739733 1.66442879 56.9765625 5.390625 C57.75112793 5.5978418 58.52569336 5.80505859 59.32373047 6.01855469 C86.17128923 13.56249682 111.20687889 28.26780833 131.06005859 47.75488281 C132.50263549 49.16745563 133.96789005 50.5567511 135.43359375 51.9453125 C162.87515455 78.42737817 183.26822949 119.41646756 184.63671875 157.953125 C184.60416667 160.03645833 184.57161458 162.11979167 184.5390625 164.203125 C185.84746094 164.18121094 187.15585937 164.15929687 188.50390625 164.13671875 C227.86763839 164.19046287 266.59590834 184.70246405 294.5390625 211.203125 C295.06081055 211.68700684 295.58255859 212.17088867 296.12011719 212.66943359 C310.53267741 226.09648408 321.59187678 241.69080817 330.5390625 259.203125 C330.86100586 259.8331543 331.18294922 260.46318359 331.51464844 261.11230469 C345.40848928 288.71511439 345.40848928 288.71511439 342.4765625 298.890625 C340.18544106 302.80770359 338.85165921 303.87617217 334.5390625 305.203125 C330.34009026 305.203125 328.28365662 304.80338242 325 302.15625 C321.99835676 298.55427811 320.99125571 295.39744109 319.7265625 290.953125 C307.95241826 253.0498989 280.92890316 221.8070242 246.17114258 203.00854492 C227.00972662 193.03978768 205.94520476 187.61356455 184.5390625 185.203125 C184.52488281 186.10289062 184.51070313 187.00265625 184.49609375 187.9296875 C183.2648789 221.13921242 169.98459016 254.19395626 149.5390625 280.203125 C148.52005859 281.55277344 148.52005859 281.55277344 147.48046875 282.9296875 C120.37508772 317.66966545 80.73169278 339.81646784 37.5390625 347.203125 C32.21644337 347.85735297 26.9008125 348.11862751 21.5390625 348.203125 C24.41903213 367.45840955 24.41903213 367.45840955 29.5390625 386.203125 C29.74756836 386.82558105 29.95607422 387.44803711 30.17089844 388.08935547 C43.03756366 426.04508416 70.69391378 457.02228357 106.30859375 475.10546875 C122.3811788 483.01509467 139.68027529 488.36071788 157.5390625 490.203125 C158.49353271 490.30367188 158.49353271 490.30367188 159.46728516 490.40625 C200.45133879 494.4473418 241.24720789 481.24104115 272.99609375 455.23828125 C297.28177479 434.74870501 313.78703985 407.89787596 322.65234375 377.453125 C323.61387483 375.01329282 324.49219457 373.82040337 326.5390625 372.203125 C330.19194443 370.98549769 332.69660386 370.81236649 336.5390625 371.203125 C340.42955598 373.58064879 342.22953536 374.94049943 343.328125 379.421875 C343.55897271 383.56003403 342.86099526 386.78034901 341.5390625 390.640625 C341.19838745 391.67497681 341.19838745 391.67497681 340.85083008 392.73022461 C334.71482753 410.83030305 325.93818986 427.87258283 314.5390625 443.203125 C313.88808594 444.0796875 313.23710937 444.95625 312.56640625 445.859375 C285.0719956 481.0352684 243.83127061 505.46009759 199.4765625 511.54296875 C177.46068776 513.97427002 154.02897706 513.78429253 132.5390625 508.203125 C131.64300293 507.97238281 130.74694336 507.74164063 129.82373047 507.50390625 C84.85986187 495.46470503 46.72036437 465.93825839 23.20703125 425.9296875 C9.8859824 402.65027794 -0.15277158 375.35069428 0.5390625 348.203125 C-1.36746094 348.24759766 -1.36746094 348.24759766 -3.3125 348.29296875 C-42.36417364 348.22445704 -82.58153601 327.54648407 -109.98193359 300.65136719 C-111.42451049 299.23879437 -112.88976505 297.8494989 -114.35546875 296.4609375 C-142.75095965 269.05829593 -162.94319676 226.89212093 -163.67626953 187.0905304 C-163.68384277 186.37358505 -163.69141602 185.65663971 -163.69921875 184.91796875 C-163.70896729 184.14772873 -163.71871582 183.37748871 -163.72875977 182.58390808 C-163.9608927 159.48740643 -162.39135367 138.08735262 -154.4609375 116.203125 C-154.03167969 115.00042969 -153.60242188 113.79773438 -153.16015625 112.55859375 C-144.80300571 90.45334203 -132.46794077 70.55198076 -115.90917969 53.68212891 C-114.49660687 52.23955201 -113.1073114 50.77429745 -111.71875 49.30859375 C-83.64196854 20.2145376 -40.70746057 0.23587511 0 0 Z M-96.4609375 64.203125 C-97.25886719 64.93660156 -98.05679688 65.67007813 -98.87890625 66.42578125 C-123.80986869 90.16766758 -141.09565304 126.31046119 -142.62207031 160.84912109 C-142.66802371 165.0923294 -142.70759677 169.33466336 -142.7109375 173.578125 C-142.71161224 174.34389862 -142.71228699 175.10967224 -142.71298218 175.89865112 C-142.69745894 186.96410653 -142.32362121 197.45369019 -139.4609375 208.203125 C-139.28933105 208.87972168 -139.11772461 209.55631836 -138.94091797 210.25341797 C-131.92051213 237.66374248 -118.84544073 260.67638068 -99.4609375 281.203125 C-98.72746094 282.00105469 -97.99398437 282.79898437 -97.23828125 283.62109375 C-72.18894506 309.92498768 -35.52419643 325.61371085 0.5390625 327.203125 C0.60899414 326.65599854 0.67892578 326.10887207 0.75097656 325.54516602 C2.34878483 313.24435427 4.25108232 301.17366328 7.5390625 289.203125 C8.02439453 287.43195313 8.02439453 287.43195313 8.51953125 285.625 C21.96397467 241.5544057 53.5937067 205.43439422 93.90917969 183.93945312 C115.98289216 172.57998808 138.93933483 166.78185507 163.5390625 164.203125 C162.84545797 127.25291981 145.47879505 93.61244317 120.5390625 67.203125 C119.80558594 66.40519531 119.07210938 65.60726562 118.31640625 64.78515625 C94.94024573 40.23823643 61.13322732 24.66887706 27.5390625 21.203125 C26.90274902 21.13609375 26.26643555 21.0690625 25.61083984 21 C-20.13210165 16.48967441 -63.38087666 32.96385314 -96.4609375 64.203125 Z M61.14453125 234.2578125 C38.80293096 258.27042415 20.99585591 293.77122826 21.5390625 327.203125 C60.64775371 325.82119245 97.20115417 305.98673423 123.93359375 278.1484375 C145.94287854 254.49299646 164.51752139 218.31623378 163.5390625 185.203125 C125.33903145 183.5587528 86.59267845 207.75679886 61.14453125 234.2578125 Z " fill="#cc8328" transform="translate(163.4609375,-0.203125)"/>
<path d="M0 0 C1.10479706 -0.0127597 2.20959412 -0.02551941 3.34786987 -0.03866577 C4.54163239 -0.04089142 5.7353949 -0.04311707 6.96533203 -0.04541016 C8.80564499 -0.05539536 8.80564499 -0.05539536 10.68313599 -0.06558228 C13.28060403 -0.07571582 15.87809815 -0.08039908 18.47558594 -0.08007812 C22.45046919 -0.08444773 26.42423933 -0.12075279 30.39892578 -0.15869141 C32.9210574 -0.16456004 35.44319429 -0.16852912 37.96533203 -0.17041016 C39.15504608 -0.18478119 40.34476013 -0.19915222 41.57052612 -0.21395874 C49.7938029 -0.16841838 49.7938029 -0.16841838 53.82519531 2.13183594 C56.96850987 5.95904432 57.01275179 9.48108312 56.59814453 14.29052734 C54.77260789 17.45011 53.44398366 18.9191511 50.09814453 20.38818359 C45.46562471 21.58250511 40.98929975 21.75234942 36.22314453 21.91552734 C35.29630859 21.95419922 34.36947266 21.99287109 33.41455078 22.03271484 C31.14260683 22.12640325 28.87065857 22.21212083 26.59814453 22.29052734 C27.25991196 22.95007416 27.92167938 23.60962097 28.60350037 24.28915405 C34.83072707 30.496135 41.05533132 36.70573506 47.27735806 42.9179287 C50.47647093 46.1118164 53.67651011 49.30476453 56.87866211 52.49560547 C59.96716366 55.5732652 63.05323707 58.65334028 66.13762093 61.7351265 C67.31654231 62.91219598 68.49634545 64.08838298 69.67703056 65.26368332 C71.3268043 66.9062295 72.97345391 68.55184651 74.61938477 70.19824219 C75.11137863 70.68664078 75.6033725 71.17503937 76.11027527 71.67823792 C79.4208442 74.99898048 80.51864725 76.32066053 80.91064453 81.10302734 C80.88046477 84.42280062 80.60424334 85.28097255 78.72314453 88.22802734 C75.96395793 90.90606139 74.23210061 91.52857919 70.47314453 91.79052734 C66.61835327 91.68831015 64.80430183 91.06595549 61.98486328 88.44458008 C61.29424805 87.80583954 60.60363281 87.167099 59.89208984 86.50900269 C55.39415102 82.15904443 50.94821754 77.76181191 46.53564453 73.32568359 C45.49354713 72.28171669 44.45122544 71.23797362 43.40869141 70.19444275 C40.69070007 67.47266812 37.97572763 64.74790211 35.26141357 62.02246094 C32.48097435 59.23171661 29.69763424 56.44386864 26.91455078 53.65576172 C21.47293611 48.20348376 16.0345135 42.74803626 10.59814453 37.29052734 C10.58879883 37.99137451 10.57945312 38.69222168 10.56982422 39.41430664 C10.51599909 42.60291759 10.43237517 45.79008067 10.34814453 48.97802734 C10.326875 50.6322168 10.326875 50.6322168 10.30517578 52.31982422 C10.05730565 60.52432556 10.05730565 60.52432556 7.67626953 64.49755859 C4.12886154 67.55819819 1.42329317 67.68273869 -3.14013672 67.64599609 C-6.75886746 67.07724912 -8.2821577 65.13887122 -10.40185547 62.29052734 C-11.37994649 59.35625429 -11.53928774 57.42241532 -11.56298828 54.36352539 C-11.57259583 53.36205978 -11.58220337 52.36059418 -11.59210205 51.32878113 C-11.59635193 50.24752457 -11.60060181 49.16626801 -11.60498047 48.05224609 C-11.61068054 46.93872269 -11.61638062 45.82519928 -11.62225342 44.67793274 C-11.63170456 42.32004751 -11.63823785 39.96214907 -11.64208984 37.60424805 C-11.65178904 34.00269426 -11.68280947 30.40171264 -11.71435547 26.80029297 C-11.72088625 24.50928073 -11.72613643 22.21826441 -11.72998047 19.92724609 C-11.74232727 18.85206223 -11.75467407 17.77687836 -11.76739502 16.66911316 C-11.75104844 11.16275727 -11.65754976 6.97332958 -8.40185547 2.29052734 C-5.05045023 0.05625718 -3.91910104 0.03070385 0 0 Z " fill="#cc8328" transform="translate(328.40185546875,320.70947265625)"/>
<path d="M0 0 C1.78833008 1.19459534 1.78833008 1.19459534 3.58203125 2.84594727 C4.2771582 3.48468781 4.97228516 4.12342834 5.68847656 4.78152466 C10.2061742 9.11736684 14.64691055 13.52568289 19.0625 17.96484375 C20.1045974 19.00881066 21.14691909 20.05255372 22.18945312 21.09608459 C24.90744446 23.81785922 27.6224169 26.54262523 30.33673096 29.26806641 C33.11717018 32.05881073 35.90051029 34.84665871 38.68359375 37.63476562 C44.12520842 43.08704358 49.56363103 48.54249109 55 54 C55.01981934 53.39003174 55.03963867 52.78006348 55.06005859 52.15161133 C55.15567876 49.37149467 55.26520705 46.59209154 55.375 43.8125 C55.4059375 42.85279297 55.436875 41.89308594 55.46875 40.90429688 C55.50742188 39.97294922 55.54609375 39.04160156 55.5859375 38.08203125 C55.63306885 36.80162964 55.63306885 36.80162964 55.68115234 35.49536133 C56.20057325 31.43027625 57.35375278 28.70326904 60.125 25.6875 C63.86524737 23.49213741 66.75814428 23.12592064 71 24 C73.8100346 25.79363911 75.50940468 27.01880935 77 30 C77.11611732 31.76012263 77.16961378 33.52453473 77.19287109 35.28833008 C77.20893402 36.39320267 77.22499695 37.49807526 77.24154663 38.63642883 C77.28592035 43.69161424 77.32705801 48.74666745 77.35009766 53.80200195 C77.36343287 56.47091561 77.39395802 59.13802187 77.43212891 61.80688477 C77.48681351 65.64883513 77.50875987 69.48974444 77.5234375 73.33203125 C77.54610687 74.52488235 77.56877625 75.71773346 77.59213257 76.94673157 C77.57104382 85.19217149 77.57104382 85.19217149 74.71728516 89.22924805 C70.83859879 91.75684124 67.73298855 92.12397368 63.15893555 92.16113281 C62.20081467 92.17074036 61.24269379 92.1803479 60.25553894 92.19024658 C58.71172295 92.1966214 58.71172295 92.1966214 57.13671875 92.203125 C56.07137405 92.20882507 55.00602936 92.21452515 53.90840149 92.22039795 C51.6548461 92.22983943 49.40127695 92.23637855 47.14770508 92.24023438 C43.71085358 92.24993409 40.27460169 92.28096376 36.83789062 92.3125 C34.64583688 92.31903104 32.45377886 92.32428111 30.26171875 92.328125 C29.23858078 92.3404718 28.21544281 92.3528186 27.16130066 92.36553955 C21.32388183 92.34743385 17.14746916 91.82694948 12 89 C9.53457697 86.10580775 9.58834931 82.69956432 9.671875 78.96875 C10.19052767 75.85683396 11.78554774 74.14932131 14 72 C16.57211322 70.71394339 18.56906966 70.78956059 21.4453125 70.68359375 C22.52167969 70.64169922 23.59804687 70.59980469 24.70703125 70.55664062 C25.83496094 70.51732422 26.96289062 70.47800781 28.125 70.4375 C29.26066406 70.39431641 30.39632812 70.35113281 31.56640625 70.30664062 C34.37747768 70.2003396 37.18863945 70.09830595 40 70 C39.33823257 69.34045319 38.67646515 68.68090637 37.99464417 68.00137329 C31.76741747 61.79439234 25.54281321 55.58479229 19.32078648 49.37259865 C16.1216736 46.17871094 12.92163442 42.98576281 9.71948242 39.79492188 C6.63098087 36.71726215 3.54490746 33.63718707 0.46052361 30.55540085 C-0.71839778 29.37833136 -1.89820092 28.20214436 -3.07888603 27.02684402 C-4.72865977 25.38429785 -6.37530938 23.73868083 -8.02124023 22.09228516 C-8.5132341 21.60388657 -9.00522797 21.11548798 -9.51213074 20.61228943 C-12.86455256 17.24956535 -14.16115839 15.42688211 -14.3125 10.6875 C-14.28413514 7.16458401 -14.06650675 6.10641081 -12.125 3 C-8.4942569 -0.41716998 -4.84627364 -1.01840658 0 0 Z " fill="#cc8328" transform="translate(113,102)"/>
<path d="M0 0 C3.125 1.875 3.125 1.875 5 5 C5.98876625 10.02622846 5.7769173 13.70513784 3.125 18.125 C-1.29486216 20.7769173 -4.97377154 20.98876625 -10 20 C-13.125 18.125 -13.125 18.125 -15 15 C-15.98876625 9.97377154 -15.7769173 6.29486216 -13.125 1.875 C-8.70513784 -0.7769173 -5.02622846 -0.98876625 0 0 Z " fill="#cc8328" transform="translate(507,328)"/>
</svg>
