<svg width="74" height="74" viewBox="0 0 74 74" fill="none" xmlns="http://www.w3.org/2000/svg">
<path d="M25.879 30.2988C26.2715 30.6422 26.411 30.9147 26.6008 31.3948C26.5869 32.1298 26.2299 32.6597 25.879 33.2929C25.3483 34.2857 24.9243 35.1718 24.7384 36.2871C24.8474 36.2146 24.9564 36.1422 25.0686 36.0676C27.842 34.2855 31.0577 33.3425 34.3646 33.9718C35.3832 34.1981 36.3597 34.5191 37.2852 35.0039C37.4711 35.0959 37.4711 35.0959 37.6606 35.1899C39.8573 36.3219 41.7918 38.1118 42.9884 40.2792C43.0521 40.388 43.1159 40.4969 43.1816 40.609C45.4519 44.7444 44.9075 49.8848 43.7013 54.2519C43.0221 56.5647 42.1904 58.7868 41.1349 60.9531C41.0888 61.0485 41.0428 61.1439 40.9953 61.2423C40.7239 61.8028 40.444 62.3586 40.159 62.9123C39.9715 63.2787 39.7872 63.6467 39.6027 64.0146C38.4005 66.3895 37.068 68.6548 35.2892 70.6484C35.1976 70.7517 35.1061 70.855 35.0118 70.9614C33.8668 72.1805 32.1244 73.3908 30.4034 73.5252C27.6474 73.5933 25.6522 73.0675 23.3132 71.6119C22.7934 71.4153 22.2896 71.3926 21.7722 71.6138C21.4984 71.7678 21.2339 71.9323 20.969 72.1009C18.759 73.4062 16.5159 73.875 13.957 73.4053C10.154 72.2693 7.91769 68.4816 6.14195 65.2015C6.01971 64.9735 5.89755 64.7455 5.77548 64.5175C5.6792 64.3393 5.6792 64.3393 5.58097 64.1575C2.8288 59.0543 0.429332 53.4869 0.446626 47.5953C0.446704 47.4953 0.446781 47.3953 0.446861 47.2923C0.452507 45.7053 0.561896 44.2158 1.07041 42.7031C1.10096 42.6094 1.13152 42.5157 1.163 42.4192C2.27706 39.1022 4.73453 36.5847 7.80228 34.9874C10.5031 33.6492 13.5887 33.4344 16.4651 34.3359C17.9805 34.8479 19.3246 35.5602 20.6471 36.4553C21.0062 36.71 21.0062 36.71 21.3165 36.8574C21.3391 36.7348 21.3617 36.6122 21.385 36.4859C21.7458 34.6581 22.3626 33.0465 23.3126 31.4394C23.3898 31.3046 23.3898 31.3046 23.4685 31.1671C24.0671 30.1848 24.8042 29.9713 25.879 30.2988ZM5.66855 40.4486C3.42185 43.3423 3.17426 46.6911 3.55661 50.2224C3.63958 50.8156 3.77095 51.3914 3.92197 51.9707C3.97139 52.1623 3.97139 52.1623 4.0218 52.3578C5.45312 57.7869 7.98994 63.9754 11.7638 68.2246C11.8718 68.3477 11.9799 68.4708 12.0912 68.5977C13.1236 69.7056 14.1897 70.5073 15.7468 70.5993C17.4757 70.6261 18.7697 69.9082 20.2059 69.016C21.3862 68.3597 22.7586 68.2819 24.0572 68.6345C24.9597 68.9959 25.7865 69.4828 26.608 69.9995C27.7863 70.6325 29.2409 70.7306 30.5351 70.4128C35.0163 68.5746 37.5071 61.8801 39.2813 57.8164C41.2697 52.9632 42.7534 47.4878 40.7071 42.4179C39.5296 39.8787 37.1507 38.0751 34.5757 37.1275C32.0657 36.4001 29.6151 36.9522 27.3454 38.1523C26.7578 38.4953 26.2069 38.8615 25.6735 39.284C25.3087 39.5664 25.3087 39.5664 24.9216 39.7819C24.4808 40.0624 24.2727 40.2419 24.0255 40.707C23.9399 41.4885 24.0376 42.2719 24.1074 43.0517C24.3408 45.6842 23.3662 48.3634 21.7621 50.429C21.5684 50.6598 21.3725 50.8886 21.1739 51.1152C21.0894 51.2133 21.0048 51.3115 20.9177 51.4126C19.0152 53.4696 16.2088 54.5684 13.4457 54.7203C11.8318 54.7714 10.042 54.6666 8.62705 53.8242C7.39062 51.528 7.52552 48.5987 8.23691 46.1561C9.15475 43.391 11.0571 41.0401 13.5972 39.6243C14.9233 38.9646 16.3176 38.6255 17.752 38.2832C16.1999 36.9972 13.8764 36.6968 11.9239 36.8228C9.44884 37.1057 7.26765 38.6024 5.66855 40.4486ZM16.417 41.558C15.2928 41.9565 14.3881 42.5103 13.4747 43.2734C13.3721 43.3581 13.2696 43.4428 13.1639 43.5301C11.5497 44.9967 10.7577 47.0767 10.5797 49.2127C10.5514 50.4171 10.5514 50.4171 10.9083 51.5429C12.2737 52.2408 14.0885 51.8421 15.4998 51.4365C17.6631 50.7221 19.3693 49.1375 20.4254 47.1319C20.9967 45.9141 21.2426 44.7562 21.3165 43.416C20.3167 44.2361 19.4238 45.1594 18.5208 46.0827C18.3153 46.2926 18.1089 46.5015 17.9024 46.7103C17.7811 46.834 17.6598 46.9578 17.5348 47.0852C17.0216 47.5546 16.6602 47.8191 15.9609 47.8804C15.2595 47.8167 15.2595 47.8167 14.9005 47.5507C14.5343 47.0564 14.5358 46.5786 14.6153 45.9824C15.2482 44.8268 16.3775 43.9034 17.3065 42.9882C17.4744 42.8218 17.6422 42.6552 17.81 42.4886C18.2176 42.0841 18.6262 41.6804 19.0352 41.2773C18.3092 40.9143 17.1585 41.3444 16.417 41.558Z" fill="white"/>
<path d="M40.4218 0.499985C40.8495 0.704941 40.8495 0.704941 41.1347 1.0703C41.3133 1.66858 41.3766 2.14259 41.1063 2.71663C40.8261 3.0983 40.5451 3.33147 40.1634 3.60997C39.0064 4.51097 38.1469 5.65667 37.9478 7.14985C37.9315 7.54874 37.9337 7.94271 37.9445 8.34178C37.9465 8.48672 37.9484 8.63167 37.9504 8.781C37.8514 11.5585 37.8514 11.5585 38.4257 14.1875C38.627 14.1282 38.627 14.1282 38.8323 14.0677C39.0098 14.0161 39.1874 13.9645 39.3703 13.9112C39.6333 13.8343 39.6333 13.8343 39.9016 13.7559C43.4394 12.8127 47.3155 13.5065 50.4468 15.3159C51.4228 15.9408 52.275 16.6675 53.1113 17.4668C53.2557 17.5953 53.2557 17.5953 53.4031 17.7263C54.9664 19.1708 55.9053 21.0968 56.7203 23.0273C56.8127 23.2418 56.9052 23.4562 56.9979 23.6705C57.2738 24.3103 57.5455 24.9518 57.8163 25.5937C57.891 25.7704 57.9657 25.947 58.0404 26.1237C58.3258 26.7998 58.6099 27.4765 58.892 28.154C59.6581 29.993 60.439 31.8257 61.2204 33.6583C61.2904 33.8227 61.3605 33.987 61.4327 34.1563C61.7938 35.0035 62.155 35.8506 62.5163 36.6976C63.1398 38.1597 63.7625 39.6222 64.3853 41.0846C64.7264 41.8855 65.0675 42.6864 65.4086 43.4873C65.5453 43.8081 65.6819 44.1289 65.8185 44.4497C65.8862 44.6085 65.9538 44.7673 66.0235 44.9309C66.6384 46.3745 66.6384 46.3745 66.8433 46.8556C66.98 47.1767 67.1168 47.4978 67.2536 47.8189C67.5932 48.6161 67.9327 49.4134 68.2721 50.2106C68.911 51.7116 69.5506 53.2122 70.1921 54.7121C70.4944 55.4191 70.7964 56.1263 71.0984 56.8334C71.2422 57.1699 71.3862 57.5063 71.5303 57.8426C71.7303 58.3095 71.9299 58.7767 72.1293 59.2438C72.1877 59.3797 72.246 59.5156 72.3062 59.6555C73.4013 62.2265 74.1195 64.9523 73.1 67.6899C73.0438 67.8193 72.9876 67.9487 72.9296 68.082C72.8497 68.2717 72.8497 68.2717 72.7681 68.4652C71.7497 70.6774 70.0057 72.1386 67.7968 73.0723C67.6761 73.1239 67.5553 73.1755 67.4309 73.2288C65.5324 73.8839 63.0637 73.7231 61.2382 72.9297C61.0485 72.8497 61.0485 72.8497 60.855 72.7682C58.5847 71.723 57.2197 69.7872 55.793 67.8253C55.2429 67.0705 54.6775 66.3281 54.1093 65.5869C53.3032 64.5338 52.5103 63.4722 51.7267 62.4023C51.1048 61.5553 50.4706 60.7182 49.832 59.8838C49.0662 58.8828 48.3078 57.877 47.5596 56.8629C47.4318 56.69 47.4318 56.69 47.3015 56.5137C47.2236 56.4078 47.1458 56.302 47.0656 56.1929C46.9973 56.1 46.9289 56.007 46.8585 55.9113C46.4926 55.3878 46.4633 54.8741 46.5527 54.2519C46.8084 53.8513 46.9831 53.609 47.4081 53.3965C47.6916 53.3575 47.6916 53.3575 48.023 53.343C48.1313 53.336 48.2395 53.329 48.351 53.3218C49.2535 53.5197 49.8841 54.7162 50.4123 55.4307C50.5895 55.6633 50.7802 55.8853 50.9726 56.1055C51.4282 56.1055 51.5417 56.0518 51.9172 55.8236C52.0172 55.7636 52.1172 55.7036 52.2202 55.6417C52.3261 55.5771 52.4319 55.5126 52.5409 55.446C52.7603 55.3152 52.9797 55.1845 53.1993 55.0539C53.5657 54.8347 53.9318 54.6149 54.2976 54.3945C55.5826 53.6499 55.5826 53.6499 56.3906 53.8242C56.901 54.1172 57.1558 54.2881 57.3557 54.8401C57.4641 55.4395 57.4677 55.6937 57.1341 56.228C56.5562 56.8712 55.7686 57.2399 55.0182 57.6471C54.8686 57.7304 54.719 57.8138 54.5649 57.8997C53.4727 58.5038 53.4727 58.5038 52.9687 58.6719C53.5682 59.5981 54.2108 60.4807 54.8846 61.3541C55.0874 61.6186 55.2901 61.8831 55.4928 62.1478C55.5949 62.281 55.697 62.4143 55.8021 62.5516C56.2725 63.1683 56.7371 63.7894 57.2015 64.4106C57.8839 65.3224 58.569 66.2321 59.2599 67.1374C59.3712 67.2836 59.3712 67.2836 59.4848 67.4328C59.6876 67.6979 59.892 67.9616 60.0976 68.2246C60.1592 68.3043 60.2207 68.384 60.2842 68.4661C61.067 69.4487 62.2777 70.1436 63.5195 70.3633C65.4778 70.5292 67.0954 70.1988 68.6523 68.9375C69.5486 68.1249 70.1096 66.9775 70.3632 65.8008C70.3804 65.401 70.3896 65.0064 70.3899 64.6067C70.3917 64.5008 70.3934 64.3949 70.3952 64.2859C70.3969 63.6412 70.3219 63.1288 70.0781 62.5215C68.7267 63.1669 68.7267 63.1669 67.4404 63.9294C66.9864 64.2205 66.6389 64.375 66.0859 64.375C65.4847 64.2018 65.1766 64.0629 64.7938 63.5641C64.6239 62.9641 64.6386 62.5018 64.9452 61.9512C65.6158 61.309 66.3875 60.8674 67.1908 60.4095C67.3753 60.3022 67.3753 60.3022 67.5634 60.1926C68.4723 59.6699 68.4723 59.6699 68.7949 59.6699C68.1312 57.8631 67.3597 56.1011 66.6027 54.3321C66.4565 53.9897 66.3103 53.6473 66.1641 53.3049C65.899 52.6838 65.6339 52.0629 65.3685 51.442C64.6993 49.8757 64.032 48.3086 63.3648 46.7414C63.0273 45.9487 62.6897 45.156 62.3521 44.3634C62.2849 44.2056 62.2177 44.0479 62.1485 43.8854C61.716 42.8699 61.2831 41.8545 60.8501 40.8393C60.552 40.1405 60.2541 39.4417 59.9562 38.7428C59.8152 38.4123 59.6742 38.0817 59.5331 37.7512C58.7588 35.9372 57.9905 34.1213 57.246 32.2949C56.0444 32.8762 54.8985 33.4867 53.7735 34.2052C53.155 34.5798 52.5428 34.7043 51.8281 34.5762C51.2743 34.1284 51.0008 33.8223 50.9191 33.1147C50.9849 32.4571 51.2068 32.1518 51.6855 31.7246C52.2144 31.3735 52.7665 31.072 53.3251 30.7711C53.6177 30.6102 53.9103 30.4492 54.2029 30.2882C54.332 30.2183 54.4611 30.1483 54.5941 30.0762C54.8502 29.9345 55.1024 29.7856 55.351 29.6311C55.6777 29.4433 55.6777 29.4433 55.9628 29.4433C55.6799 28.7564 55.3962 28.0698 55.1117 27.3835C55.0156 27.1512 54.9197 26.9188 54.8239 26.6864C54.311 25.4409 53.7865 24.2026 53.2171 22.9817C53.1717 22.8837 53.1264 22.7857 53.0797 22.6847C51.7781 19.9332 49.4873 18.1346 46.6952 17.039C44.0731 16.1128 41.0094 16.4213 38.5192 17.579C37.5473 18.0551 36.6648 18.5912 35.8593 19.3203C35.7182 19.4419 35.7182 19.4419 35.5742 19.5659C33.6884 21.3006 32.4118 23.9769 32.2752 26.5311C32.2494 27.3253 32.2494 27.3253 32.2438 28.1197C32.2343 28.7335 32.2115 29.1703 31.8253 29.665C31.3728 30.0738 31.169 30.1581 30.5834 30.1902C30.0929 30.1317 29.8063 29.9057 29.4433 29.5859C29.0568 28.9555 29.1091 28.3449 29.1136 27.6255C29.1144 27.4916 29.1152 27.3578 29.116 27.2199C29.1803 23.4759 30.7027 20.0028 33.3731 17.3777C33.4939 17.2641 33.6146 17.1505 33.739 17.0335C34.0386 16.7839 34.0386 16.7839 34.0058 16.4687C33.8041 16.2943 33.8041 16.2943 33.5346 16.1268C33.432 16.0592 33.3293 15.9917 33.2236 15.9221C33.1112 15.8496 32.9988 15.7771 32.883 15.7024C32.647 15.5484 32.411 15.3943 32.1751 15.2401C32.0533 15.1608 31.9314 15.0814 31.8059 14.9997C31.4515 14.7658 31.1016 14.5265 30.7527 14.2844C29.0266 13.091 27.6289 12.2472 25.4511 12.4765C24.8208 12.6112 24.2377 12.8082 23.6511 13.0736C23.1537 13.2437 22.6909 13.2775 22.1718 13.1894C21.7712 12.9337 21.5289 12.759 21.3163 12.334C21.2491 11.6613 21.2383 11.3355 21.5658 10.7389C22.7012 9.55853 24.7108 9.31704 26.262 9.28636C28.2027 9.29231 29.79 9.94188 31.4394 10.9082C31.6285 11.0051 31.8182 11.101 32.0097 11.1933C31.8625 10.9422 31.7152 10.6911 31.5677 10.4401C31.4395 10.2215 31.3115 10.0028 31.1838 9.78399C30.867 9.24283 30.5464 8.70578 30.2085 8.17748C29.0892 6.41625 29.0892 6.41625 29.1581 5.34764C29.3808 4.82434 29.5373 4.66715 30.0136 4.34959C30.311 4.3017 30.311 4.3017 30.6374 4.29613C30.7443 4.29208 30.8513 4.28804 30.9615 4.28387C31.5485 4.39892 31.9139 4.78157 32.2472 5.26305C32.3157 5.38838 32.3841 5.5137 32.4547 5.64282C32.5322 5.7825 32.6096 5.92219 32.6894 6.0661C32.8073 6.28389 32.8073 6.28389 32.9275 6.50609C33.0846 6.79172 33.2418 7.07725 33.3993 7.36267C33.4755 7.50148 33.5518 7.64029 33.6303 7.7833C33.9789 8.40582 34.3467 9.01627 34.7187 9.62499C34.72 9.53967 34.7213 9.45436 34.7227 9.36646C34.7851 6.18163 34.7851 6.18164 35.4316 4.63475C35.4742 4.52925 35.5169 4.42376 35.5608 4.31506C36.3491 2.56855 38.2696 0.0736345 40.4218 0.499985Z" fill="white"/>
<path d="M35.5742 55.1075C36.0724 55.3452 36.2624 55.4981 36.5723 55.9629C36.7817 57.2928 36.1126 58.3592 35.5297 59.5096C35.4245 59.7211 35.3194 59.9327 35.2144 60.1443C32.3276 65.9271 32.3276 65.927 31.1543 66.5137C30.4986 66.5923 30.0168 66.6017 29.4434 66.2553C29.0758 65.8532 29.0223 65.5847 28.97 65.0456C29.0236 64.4258 29.2388 64.1036 29.6038 63.6265C30.3253 62.6175 30.9022 61.5484 31.4662 60.4452C31.5093 60.361 31.5525 60.2768 31.5969 60.19C32.079 59.2473 32.5536 58.3008 33.0257 57.3531C33.1622 57.0797 33.2988 56.8064 33.4356 56.5332C33.515 56.3725 33.515 56.3725 33.596 56.2085C34.0524 55.3367 34.582 54.9834 35.5742 55.1075Z" fill="white"/>
<path d="M46.838 19.4629C47.2688 19.7563 47.5067 19.9619 47.6144 20.4833C47.6532 21.2602 47.5089 21.585 46.9806 22.1719C46.5982 22.4356 46.5982 22.4356 46.1641 22.6793C46.0051 22.7696 45.8461 22.86 45.6823 22.953C45.5151 23.0462 45.3478 23.1393 45.1805 23.2323C44.8548 23.4162 44.5292 23.6002 44.2036 23.7843C44.0464 23.8725 43.8892 23.9607 43.7271 24.0516C43.1943 24.3559 42.6721 24.6754 42.1527 25.002C41.65 25.2725 41.2786 25.3183 40.7071 25.3086C40.1098 25.0697 39.8253 24.7536 39.5665 24.168C39.4823 23.4941 39.6048 23.1466 39.9943 22.5997C40.3253 22.3536 40.3253 22.3536 40.7144 22.1335C40.8573 22.0515 41.0003 21.9694 41.1476 21.8849C41.2992 21.8003 41.4509 21.7156 41.6072 21.6283C41.7611 21.5406 41.9151 21.4529 42.0737 21.3626C42.3802 21.1881 42.6872 21.0144 42.9945 20.8414C43.3548 20.6382 43.7135 20.4326 44.0711 20.2248C45.812 19.2153 45.812 19.2153 46.838 19.4629Z" fill="white"/>
<path d="M55.3925 40.1367C55.8234 40.43 56.0612 40.6356 56.1689 41.157C56.2078 41.9337 56.0649 42.2598 55.5351 42.8457C55.1311 43.1224 55.1311 43.1224 54.6663 43.3842C54.5825 43.4318 54.4988 43.4794 54.4125 43.5285C54.2355 43.6287 54.0582 43.7282 53.8804 43.8271C53.6143 43.9752 53.3493 44.1252 53.0846 44.2756C49.9304 46.0595 49.9304 46.0595 49.2617 46.0002C48.7654 45.8141 48.5539 45.7161 48.2636 45.2695C48.077 44.6321 48.0289 44.1881 48.3093 43.5742C48.7846 42.9178 49.5432 42.5948 50.2419 42.2219C50.5379 42.0597 50.8338 41.8974 51.1297 41.7351C51.2734 41.6571 51.4172 41.5792 51.5653 41.4988C52.0977 41.2079 52.6227 40.9052 53.1469 40.6001C53.9709 40.1217 54.4357 39.9057 55.3925 40.1367Z" fill="white"/>
<path d="M44.1288 29.586C44.6197 29.8889 44.8012 30.0349 44.9843 30.584C45.0529 31.1906 45.051 31.4834 44.7047 31.9953C44.2225 32.5421 43.6252 32.8563 42.9882 33.195C42.8749 33.2579 42.7617 33.3209 42.6451 33.3857C41.5729 33.9692 41.5729 33.9692 40.9921 34.0059C40.4383 33.834 40.0928 33.696 39.7178 33.2484C39.5346 32.7851 39.4956 32.5045 39.5663 32.0098C39.9959 31.1866 40.5576 30.839 41.3574 30.3969C41.4669 30.3339 41.5763 30.271 41.6891 30.2061C42.4947 29.7475 43.1744 29.4483 44.1288 29.586Z" fill="white"/>
<path d="M37.5702 49.6894C37.9628 49.9455 38.2155 50.1247 38.4257 50.5449C38.5048 51.2053 38.5164 51.6829 38.1583 52.2558C37.6916 52.6951 37.3618 52.7312 36.7203 52.7253C36.2683 52.6604 36.0276 52.4336 35.7167 52.1133C35.47 51.6199 35.5052 51.0843 35.5741 50.5449C36.0817 49.7047 36.6199 49.6075 37.5702 49.6894Z" fill="white"/>
<path d="M61.8085 51.1152C62.156 51.338 62.156 51.338 62.3788 51.6855C62.4996 52.3505 62.4724 52.819 62.1115 53.3964C61.6452 53.8353 61.3146 53.8748 60.6729 53.8632C60.1952 53.799 59.9819 53.6119 59.6698 53.2539C59.3991 52.6561 59.3585 52.3605 59.5183 51.7212C60.1048 50.797 60.8392 50.6946 61.8085 51.1152Z" fill="white"/>
</svg>
