<svg width="54" height="80" viewBox="0 0 54 80" fill="none" xmlns="http://www.w3.org/2000/svg">
<path d="M33.3229 2.32363C33.5342 2.42257 33.7456 2.52152 33.9633 2.62346C38.746 5.0321 42.4298 9.37287 44.1954 14.4135C45.2701 17.8243 45.3703 21.3346 45.3638 24.8822C45.3647 25.3108 45.3657 25.7394 45.3669 26.168C45.3686 27.0568 45.3682 27.9456 45.3662 28.8344C45.364 29.9729 45.368 31.1113 45.3736 32.2498C45.3771 33.1307 45.377 34.0115 45.3759 34.8924C45.3759 35.3125 45.3771 35.7327 45.3795 36.1528C45.3823 36.737 45.3803 37.3209 45.377 37.9051C45.3798 38.1635 45.3798 38.1635 45.3826 38.4272C45.3733 39.21 45.3383 39.6393 44.9349 40.3271C44.3041 40.8831 43.6741 40.843 42.8725 40.839C42.7152 40.8419 42.5579 40.8449 42.3958 40.8479C41.8947 40.8561 41.3938 40.8578 40.8927 40.8594C40.5524 40.8638 40.2121 40.8687 39.8719 40.874C39.0389 40.8862 38.206 40.8924 37.373 40.8955C37.5137 40.9835 37.6544 41.0714 37.7993 41.162C41.5102 43.499 44.5186 46.4807 46.0276 50.659C46.4318 51.6697 46.7493 52.0677 47.7392 52.5274C47.9398 52.6092 48.1404 52.6909 48.3471 52.7752C50.1965 53.6125 51.6698 55.4414 52.4703 57.2765C53.4581 59.9296 53.6742 63.1091 52.6707 65.797C51.4206 68.5265 49.7759 70.4758 47.016 71.753C46.5724 71.8899 46.1263 72.0187 45.678 72.1388C44.8779 72.3592 44.4161 72.4872 43.9664 73.1995C43.8766 73.3654 43.8766 73.3654 43.7849 73.5347C43.0901 74.5167 41.4805 74.8573 40.3804 75.2155C40.1519 75.2911 40.1519 75.2911 39.9188 75.3682C39.4243 75.531 38.9292 75.6915 38.4337 75.8513C38.1781 75.9341 38.1781 75.9341 37.9174 76.0186C33.193 77.5435 28.4195 78.8208 23.4871 79.4674C23.2642 79.4968 23.2642 79.4968 23.0368 79.5268C21.5519 79.6992 20.0622 79.7072 18.5692 79.7085C18.4325 79.7086 18.2958 79.7088 18.155 79.7089C13.1749 79.7014 8.53236 78.7312 4.77973 75.2245C2.01233 72.3929 0.72606 68.3311 0.683725 64.4372C0.681836 64.2932 0.679947 64.1492 0.678001 64.0009C0.599416 56.4455 1.83959 49.5526 7.22663 43.9451C8.08388 43.1126 8.96434 42.4376 9.96659 41.7898C10.0991 41.7028 10.2316 41.6159 10.3681 41.5263C10.6904 41.3151 11.0136 41.1051 11.337 40.8955C11.01 40.8943 11.01 40.8943 10.6764 40.8931C9.86694 40.8889 9.05761 40.8784 8.24819 40.8661C7.89802 40.8616 7.54782 40.8588 7.19763 40.8578C6.69385 40.856 6.19047 40.8481 5.68677 40.839C5.53045 40.8398 5.37412 40.8405 5.21306 40.8413C4.52415 40.8235 4.1088 40.7904 3.5811 40.3297C3.09735 39.4987 3.13011 38.8092 3.14009 37.8635C3.13853 37.5815 3.13853 37.5815 3.13694 37.2938C3.13452 36.6717 3.13771 36.0498 3.14118 35.4277C3.14115 34.9924 3.14086 34.5572 3.14033 34.122C3.14006 33.2079 3.14248 32.2939 3.14687 31.3799C3.1523 30.2182 3.15183 29.0566 3.14936 27.8949C3.14801 26.9944 3.14954 26.0939 3.15192 25.1934C3.15278 24.7658 3.15286 24.3382 3.1521 23.9106C3.14906 20.7083 3.24552 17.449 4.3458 14.4015C4.39518 14.2599 4.44455 14.1183 4.49543 13.9724C6.39182 8.72844 10.4535 4.59051 15.4232 2.17898C21.0355 -0.431719 27.758 -0.288493 33.3229 2.32363ZM10.5655 8.88085C6.72619 13.2813 5.86956 18.272 5.89922 23.9337C5.89994 24.3409 5.90049 24.7481 5.90087 25.1553C5.90233 26.219 5.90611 27.2827 5.9104 28.3464C5.91507 29.6269 5.91682 30.9075 5.91906 32.1881C5.92278 34.1263 5.93018 36.0644 5.93689 38.0026C9.05542 38.0026 12.174 38.0026 15.387 38.0026C14.8897 37.5054 14.4284 37.0693 13.8923 36.6285C11.1277 34.2024 9.65479 30.8178 9.2155 27.2025C9.18382 26.6192 9.17491 26.0365 9.16954 25.4524C9.16799 25.2892 9.16643 25.126 9.16483 24.9579C9.16217 24.6151 9.1601 24.2723 9.15857 23.9295C9.15634 23.5792 9.15237 23.2288 9.14671 22.8786C9.1385 22.3704 9.13536 21.8624 9.13338 21.3542C9.13 21.1979 9.12663 21.0416 9.12315 20.8805C9.12579 20.1958 9.15253 19.77 9.55347 19.2034C10.0074 18.8956 10.2942 18.784 10.833 18.7061C11.0781 18.6667 11.0781 18.6667 11.3281 18.6265C11.5021 18.6006 11.676 18.5746 11.8553 18.5479C15.847 17.865 19.6027 16.3299 22.7157 13.7023C22.9256 13.5252 22.9256 13.5252 23.1398 13.3445C24.746 11.8645 25.8685 9.83761 26.7898 7.87662C26.9586 7.53083 26.9586 7.53083 27.1514 7.33797C29.5355 7.1393 32.0484 8.06129 33.909 9.53928C36.3553 11.6455 37.8498 14.1502 38.3373 17.3667C38.3901 18.111 38.396 18.8521 38.3953 19.5981C38.3961 19.8064 38.3969 20.0146 38.3978 20.2292C38.3989 20.6678 38.399 21.1064 38.3982 21.545C38.3976 22.2064 38.4021 22.8677 38.407 23.5291C38.422 28.586 37.5542 32.7087 33.9618 36.4598C33.4065 36.9916 32.8138 37.3988 32.1658 37.8098C32.1658 37.8734 32.1658 37.9371 32.1658 38.0026C35.6025 38.0026 39.0393 38.0026 42.5802 38.0026C42.5971 34.9043 42.5971 34.9043 42.6084 31.8059C42.6119 30.5393 42.6159 29.2728 42.6238 28.0062C42.6302 26.9833 42.6336 25.9604 42.6351 24.9375C42.6361 24.5502 42.6382 24.163 42.6414 23.7758C42.6881 17.8005 41.4675 12.4858 37.1801 8.10941C33.4701 4.47484 28.8819 2.8134 23.7334 2.8321C18.5755 2.92099 14.0993 5.16089 10.5655 8.88085ZM28.5014 10.038C28.4381 10.1805 28.3747 10.3229 28.3093 10.4697C27.5937 11.9961 26.7337 13.2226 25.6086 14.4738C25.4922 14.6083 25.3759 14.7428 25.256 14.8813C21.7993 18.6311 16.5376 20.1824 11.7227 21.2239C11.7081 21.9709 11.6977 22.7179 11.6909 23.4651C11.6866 23.8405 11.6793 24.216 11.6718 24.5914C11.6545 26.8495 11.9147 29.0601 12.9763 31.0838C13.042 31.2116 13.1078 31.3393 13.1756 31.471C14.6892 34.2632 17.1923 36.2612 20.2085 37.2312C23.6015 38.1244 26.8155 37.8618 29.9117 36.1222C33.0016 34.1154 34.833 31.3863 35.7049 27.8319C35.8963 26.8698 35.9166 25.9336 35.9137 24.9552C35.9147 24.7504 35.9158 24.5456 35.9168 24.3346C35.918 23.905 35.9178 23.4753 35.9161 23.0457C35.9145 22.3952 35.9201 21.7451 35.9262 21.0947C35.9375 17.6466 35.5362 14.8669 33.1301 12.2197C32.0472 11.1848 30.4249 10.0983 28.9022 10.0026C28.77 10.0143 28.6377 10.026 28.5014 10.038ZM8.26777 46.8116C4.08954 51.4672 2.95649 58.2015 3.27829 64.2556C3.52207 67.5229 4.41951 71.179 6.90118 73.4888C11.3222 77.2094 16.9577 77.3337 22.4549 76.9054C23.9073 76.7459 25.3359 76.4864 26.7657 76.1888C26.9953 76.1412 27.2249 76.0937 27.4614 76.0446C30.8885 75.3181 34.2426 74.4019 37.5658 73.2959C37.7722 73.2279 37.9786 73.1599 38.1912 73.0898C38.792 72.8897 39.3906 72.6843 39.9886 72.4763C40.1701 72.4151 40.3516 72.354 40.5386 72.291C40.7858 72.2022 40.7858 72.2022 41.0381 72.1116C41.1829 72.0609 41.3277 72.0101 41.4769 71.9578C41.8435 71.7772 41.8435 71.7772 41.9615 71.3682C42.0287 70.7201 41.7198 70.3526 41.3673 69.8297C40.3149 68.5827 38.732 67.8678 37.1324 67.6417C36.6924 67.6119 36.259 67.6029 35.8181 67.6066C35.6588 67.6077 35.4995 67.6088 35.3354 67.6099C33.8652 67.6519 32.6068 68.0024 31.237 68.5112C27.73 69.8104 24.5866 70.6337 20.8353 70.6682C20.5134 70.6723 20.5134 70.6723 20.185 70.6764C17.449 70.6605 14.6868 70.0523 12.6146 68.161C10.9043 66.2939 10.2659 63.9375 10.3109 61.4562C10.4951 59.3799 10.8116 56.7792 11.9155 54.9743C12.4941 54.5885 12.4941 54.5885 13.0847 54.6247C13.6513 54.7814 13.6513 54.7814 14.037 55.36C13.9995 56.3542 13.7545 57.2088 13.4584 58.1564C12.7379 60.6188 12.5486 63.0916 13.7839 65.4248C13.8674 65.5402 13.9509 65.6555 14.037 65.7744C14.7811 65.5118 15.3308 65.1712 15.9535 64.6896C19.2547 62.2608 22.969 60.8463 26.9586 59.9886C26.9586 59.3016 26.7646 58.9042 26.4885 58.277C25.5291 56.0958 25.624 54.1281 26.3288 51.8712C26.5943 51.2606 26.8854 50.8273 27.3443 50.3456C27.9685 50.2437 28.3168 50.2348 28.8631 50.5626C29.199 51.1225 29.1619 51.4266 29.08 52.0814C28.957 52.4249 28.8278 52.7663 28.6943 53.1059C28.0705 54.7567 28.2015 55.9379 28.8457 57.5726C29.2134 58.3375 29.6503 59.0202 30.43 59.41C30.8879 59.4238 31.3461 59.4263 31.8042 59.4221C32.0513 59.4203 32.2984 59.4186 32.553 59.4168C32.7434 59.4146 32.9339 59.4123 33.1301 59.41C33.2375 59.1957 33.3449 58.9814 33.4555 58.7606C34.8675 55.9866 36.2766 54.1327 38.9159 52.4671C38.7087 51.9049 38.5729 51.5456 38.1444 51.1171C38.0864 50.7555 38.0864 50.7555 38.0842 50.3456C38.0809 50.2104 38.0777 50.0752 38.0744 49.9358C38.0975 49.8165 38.1206 49.6971 38.1444 49.5742C38.723 49.1885 38.723 49.1885 39.3618 49.1523C40.4006 49.4868 40.7233 50.1902 41.2302 51.1171C41.2938 51.2444 41.3575 51.3717 41.423 51.5028C42.0595 51.5028 42.6959 51.5028 43.3516 51.5028C42.4435 48.0518 39.3656 45.1798 36.4087 43.4027C27.8747 38.5003 15.1752 39.674 8.26777 46.8116ZM37.3436 57.1816C36.3483 58.5578 35.743 60.1789 35.0587 61.7243C34.9221 61.732 34.7856 61.7396 34.6449 61.7475C28.1875 62.1251 21.9405 63.1661 16.737 67.3173C17.6112 68.1915 19.1466 68.142 20.3235 68.1621C24.3431 68.1538 27.7737 67.1014 31.5088 65.7089C34.5212 64.7012 37.9041 64.8448 40.7684 66.2061C42.2634 66.9938 43.5718 67.9779 44.1231 69.6316C45.8374 69.5554 47.4702 68.6141 48.6296 67.3677C50.2847 65.0752 50.7156 62.7684 50.4874 59.9886C50.3279 59.2158 50.0814 58.5648 49.716 57.8672C49.6364 57.7133 49.5569 57.5594 49.4749 57.4008C48.587 55.8949 47.2687 54.9289 45.6057 54.4077C42.2752 53.6493 39.5363 54.5923 37.3436 57.1816Z" fill="white"/>
</svg>
