<svg viewBox="0 0 63 55" fill="none" xmlns="http://www.w3.org/2000/svg" stroke="#FFF">
	<path
		d="M13.489 35.4773C16.4703 32.1864 22.3999 29.9724 28.7818 29.9724C34.2855 29.9724 39.187 31.619 42.3439 34.1831"
		stroke-width="3.69141"
		stroke-miterlimit="10"
	/>
	<path
		d="M22.2869 39.5444C23.9631 38.4273 26.1715 37.7494 28.5493 37.7494C30.9268 37.7494 33.0976 38.427 34.7504 39.5439"
		stroke-width="3.69141"
		stroke-miterlimit="10"
	/>
	<path
		d="M34.4999 30.5931C36.9607 26.3261 41.5645 23.4508 46.841 23.4379C54.6237 23.419 61.0445 29.7303 61.1528 37.5121C61.2638 45.4906 54.8296 51.993 46.8767 51.993C45.406 51.993 43.9873 51.7707 42.6522 51.3576C40.2995 50.6298 37.7823 50.7079 35.4563 51.5179C26.917 54.4916 13.7244 53.2413 1.8457 46.2668V23.3227C1.8457 16.0551 3.43178 8.37069 7.96962 2.6938L8.54708 1.97152H26.1446V12.982H16.1467V8.55243"
		stroke-width="3.69141"
		stroke-miterlimit="10"
	/>
	<path
		d="M20.7026 12.9821V17.4119C20.7026 19.1592 19.2861 20.5757 17.5388 20.5757H14.2482L16.5847 33.0193"
		stroke-width="3.69141"
		stroke-miterlimit="10"
	/>
</svg>