<svg viewBox="0 0 54 76" xmlns="http://www.w3.org/2000/svg" fill="#CC8328">
	<path
		d="M53.6499 28.3107C54.6703 22.8889 53.4391 17.0665 50.183 11.9165C46.9085 6.73756 42.0007 2.9317 36.3618 1.19863C29.903 -0.844989 23.0514 -0.261432 17.0685 2.84238C11.0835 5.9473 6.65962 11.2154 4.61195 17.6759C2.47248 24.3044 3.27861 31.7242 6.66516 37.6996C7.89207 39.8875 8.10356 42.4762 7.24552 44.8024L0.533569 62.9989L31.0041 63.0001L31.9868 57.7693L36.8798 59.32C39.7351 60.2154 42.8174 58.6276 43.7267 55.7689L45.9056 48.8946L53.7184 48.6082L52.1848 32.9778C52.2174 32.8263 53.6499 28.3107 53.6499 28.3107ZM50.0423 27.5212L48.4375 32.5843L49.6618 45.0634L43.1723 45.3014L40.2082 54.6537C39.9145 55.5802 38.9216 56.0949 37.995 55.8016L29.129 52.9913L27.942 59.309L5.82913 59.3081L10.7085 46.0798C11.9412 42.7386 11.6407 39.0261 9.8845 35.8943C6.94949 30.7229 6.33136 24.3635 8.13051 18.7912C9.88044 13.2702 13.6584 8.76985 18.7683 6.11881C23.8783 3.46765 29.7333 2.97083 35.2544 4.71965L35.2701 4.72458C40.0701 6.19792 44.2582 9.45258 47.0633 13.889C49.7572 18.1498 50.8401 23.1116 50.0423 27.5212Z"
	/>
	<path
		d="M22.2572 18.867C19.0073 17.8367 15.5249 19.6429 14.4949 22.8929L13.121 27.2273C11.9848 30.7514 13.1973 34.8338 16.0696 37.1586C18.8984 39.4934 22.9501 37.6106 23.643 34.9087C23.3685 34.8192 20.1373 33.7653 20.148 33.7688C19.6983 34.6153 19.0716 34.7099 18.3954 34.2926C16.679 32.9062 15.9547 30.4667 16.6368 28.3513L18.0133 24.0082C18.4112 22.6466 20.0141 22 21.1418 22.3856C22.4517 22.8007 23.1796 24.2042 22.7644 25.514L26.283 26.6292C27.313 23.3792 25.5071 19.8971 22.2572 18.867Z"
	/>
	<path
		d="M48.1285 58.275L45.5734 60.9389L47.8429 63.1157L45.3202 64.6241L51.0801 70.1481L53.635 67.4841L51.3669 65.309L53.8891 63.8008L48.1285 58.275Z"
	/>
	<path
		d="M44.8738 71.3687L42.5775 63.7238L39.0424 64.7857L39.9471 67.7974L37.0088 67.8696L39.3055 75.5125L42.8404 74.4503L41.9361 71.4408L44.8738 71.3687Z"
	/>
</svg>