<svg width="78" height="78" viewBox="0 0 78 78" fill="none" xmlns="http://www.w3.org/2000/svg">
<path d="M37.1599 13.4701C37.8004 13.9011 38.3411 14.3425 38.8449 14.9279C38.8449 15.0278 38.8449 15.1278 38.8449 15.2308C38.9448 15.2308 39.0448 15.2308 39.1478 15.2308C39.1872 15.1414 39.2266 15.052 39.2673 14.9598C39.9874 13.645 41.6241 12.957 42.971 12.4832C45.1433 11.9864 47.3923 12.2403 49.3033 13.3878C50.5394 14.2359 51.5118 15.2443 52.1734 16.5939C52.1734 16.7439 52.1734 16.8938 52.1734 17.0483C52.322 17.0395 52.4705 17.0308 52.6236 17.0217C55.1272 16.9191 57.1597 17.6677 59.0589 19.3469C60.7122 21.0255 61.607 23.2288 61.5906 25.5689C61.588 25.7091 61.5855 25.8494 61.5829 25.994C61.5815 26.1395 61.5801 26.2851 61.5787 26.435C61.5752 26.7898 61.5702 27.1444 61.5639 27.4991C61.6723 27.538 61.7807 27.5768 61.8923 27.6168C63.9249 28.3978 66.1971 29.8412 67.3656 31.7619C67.5439 32.2377 67.5315 32.6007 67.4709 33.1031C67.2006 33.5533 66.8875 33.925 66.4107 34.1634C65.8784 34.2485 65.5092 34.2682 65.0487 33.964C64.6416 33.6099 64.2622 33.24 63.9009 32.8393C62.3285 31.1246 60.1907 30.3802 57.9328 30.1982C57.2648 30.137 56.8027 30.0237 56.2628 29.6195C55.8741 29.1013 55.9047 28.5826 55.9599 27.9535C56.1476 27.5311 56.3059 27.2805 56.6699 26.9974C57.197 26.8407 57.683 26.875 58.2318 26.8933C58.3256 24.9624 58.1635 23.4394 56.8775 21.8962C55.6869 20.735 54.2996 20.3133 52.6668 20.3144C51.2842 20.3514 50.0841 20.8593 49.069 21.801C48.8258 22.0631 48.6139 22.3403 48.3963 22.624C48.0632 23.0256 47.8349 23.1889 47.3172 23.2771C46.5451 23.2526 46.2312 23.0623 45.689 22.5388C45.4159 22.0214 45.4234 21.7187 45.5091 21.1378C46.1588 19.7695 47.3996 18.7123 48.6898 17.9571C48.7898 17.9571 48.8897 17.9571 48.9927 17.9571C48.4868 16.8573 47.7381 16.3016 46.6368 15.8183C45.4354 15.3865 44.2956 15.5068 43.139 16.0118C41.9472 16.656 41.2404 17.5843 40.8138 18.8659C40.6616 19.8327 40.6399 20.7779 40.6404 21.7555C40.6399 21.9194 40.6394 22.0833 40.6388 22.2522C40.6374 22.7913 40.6371 23.3303 40.6369 23.8694C40.6364 24.2454 40.6359 24.6215 40.6354 24.9975C40.6345 25.7845 40.6342 26.5714 40.6343 27.3583C40.6343 28.3661 40.6323 29.3738 40.6297 30.3815C40.628 31.1576 40.6277 31.9337 40.6277 32.7098C40.6276 33.0814 40.6269 33.4529 40.6257 33.8245C40.6242 34.3439 40.6247 34.8633 40.6256 35.3828C40.6247 35.5357 40.6239 35.6886 40.623 35.8461C40.6275 36.8593 40.6342 37.7278 41.3345 38.5179C41.8776 38.9296 42.4901 39.0474 43.1485 39.1811C43.6186 39.3395 43.8322 39.5389 44.146 39.9189C44.3397 40.5002 44.3072 40.7937 44.1365 41.3861C43.7796 41.9964 43.6134 42.1482 42.9343 42.3422C42.0562 42.3487 41.3205 42.2237 40.5109 41.8879C40.5237 43.9747 40.5381 46.0616 40.5545 48.1485C40.562 49.1176 40.569 50.0867 40.5748 51.0558C40.5804 51.9917 40.5874 52.9276 40.5954 53.8635C40.5982 54.2199 40.6005 54.5763 40.6023 54.9327C40.6049 55.4333 40.6093 55.9339 40.6141 56.4345C40.6144 56.5806 40.6147 56.7267 40.6151 56.8772C40.6344 58.4594 40.8514 59.8667 41.8741 61.1233C42.9383 62.0302 44.1599 62.5624 45.573 62.4599C46.7897 62.2728 47.6313 61.7074 48.5099 60.8678C49.1943 59.8314 49.5897 58.7312 49.4471 57.4883C49.2751 56.8473 49.013 56.2975 48.6614 55.737C48.3441 55.1354 48.2773 54.826 48.3869 54.1562C48.6746 53.6706 48.892 53.3384 49.4376 53.1415C49.9358 53.0537 50.2748 53.067 50.7534 53.2379C51.9374 54.2661 52.5367 55.6501 52.7792 57.1854C52.7929 57.4912 52.7989 57.7975 52.7982 58.1036C52.7985 58.2584 52.7989 58.4132 52.7993 58.5728C52.7819 58.9448 52.735 59.254 52.6278 59.6087C55.0053 59.8656 56.9796 59.5963 58.9122 58.106C60.2956 56.8008 61.0454 55.0059 61.138 53.1243C61.129 52.3473 61.0048 51.5234 60.6552 50.824C60.509 50.8568 60.509 50.8568 60.3599 50.8903C57.6541 51.4461 57.6541 51.4461 56.5959 50.9134C56.2201 50.6417 56.0948 50.5082 55.9599 50.0667C55.8776 48.9143 55.8776 48.9143 56.2628 48.4007C56.8904 47.932 57.4734 47.8679 58.2318 47.8137C60.8388 47.5616 62.8292 46.3589 64.5931 44.4627C65.0125 44.0232 65.2188 43.872 65.8427 43.8C66.5913 43.8749 66.7951 44.0898 67.3194 44.6141C67.5549 45.0851 67.5143 45.4567 67.4709 45.9773C66.6164 47.4342 65.2841 48.6134 63.8358 49.4609C63.8669 49.5671 63.8979 49.6733 63.9299 49.7827C64.7025 52.5034 64.5931 55.051 63.3815 57.6397C61.9557 60.1911 59.9006 61.9154 57.0959 62.7705C55.4879 63.1489 53.9671 63.1188 52.3521 62.861C51.8517 62.7746 51.8517 62.7746 51.2646 62.7894C50.9423 63.0844 50.9423 63.0844 50.6209 63.471C49.4627 64.6863 47.736 65.6591 46.0298 65.7032C43.5835 65.7536 41.6488 65.4085 39.7507 63.7307C39.5427 63.5247 39.3439 63.3096 39.1478 63.0923C38.6864 63.2988 38.3727 63.5361 38.0118 63.8875C36.1587 65.5467 34.017 65.8001 31.6392 65.6967C30.8846 65.636 30.2679 65.4157 29.6058 65.0613C29.4796 64.9988 29.3535 64.9364 29.2236 64.872C28.4479 64.452 27.9076 63.9728 27.3149 63.3195C26.9508 62.9265 26.9508 62.9265 26.5765 62.6379C26.0512 62.6536 26.0512 62.6536 25.724 62.8089C23.7726 63.5258 21.3302 63.0247 19.4745 62.2575C16.849 61.0009 15.0261 58.9912 14.0053 56.2766C13.3205 53.9983 13.4389 51.717 14.1568 49.4609C14.0541 49.391 13.9514 49.3211 13.8456 49.2491C10.9204 47.199 9.07602 44.509 8.40128 40.9791C8.33902 40.3306 8.32881 39.6896 8.33502 39.0385C8.33639 38.8658 8.33775 38.6932 8.33916 38.5153C8.39844 35.6218 9.46824 32.9698 11.4305 30.8312C11.531 30.7168 11.6316 30.6024 11.7352 30.4845C13.0241 29.098 14.6431 28.1125 16.4287 27.4991C16.4263 27.4123 16.4239 27.3254 16.4215 27.236C16.3527 24.3425 16.633 22.0533 18.5586 19.7367C20.0014 18.2327 21.9422 17.0893 24.0579 17.0134C24.6462 17.0053 25.2316 17.0212 25.8192 17.0483C25.84 16.8861 25.84 16.8861 25.8613 16.7206C26.1812 15.465 27.345 14.287 28.3941 13.5647C31.192 11.951 34.3546 11.7787 37.1599 13.4701ZM29.4939 16.8395C29.1479 17.2303 28.9999 17.425 28.9999 17.9571C29.3018 18.1873 29.598 18.3898 29.9181 18.5913C30.9325 19.2598 31.8422 19.9911 32.332 21.1378C32.3982 21.744 32.3885 22.0897 32.1049 22.6334C31.5945 23.0672 31.1766 23.148 30.5145 23.1067C29.9403 22.8967 29.6529 22.5344 29.2744 22.0749C28.3721 21.0051 27.1145 20.3142 25.7187 20.1728C23.9222 20.1427 22.4343 20.4515 21.0861 21.7406C19.8165 23.2058 19.4949 24.6863 19.6094 26.5903C19.6593 26.6903 19.7093 26.7903 19.7608 26.8933C20.1399 26.985 20.5195 27.0383 20.9051 27.0962C21.3162 27.2072 21.4677 27.3216 21.7298 27.6506C21.9646 28.1202 21.9252 28.4956 21.8813 29.0137C21.6093 29.4307 21.4189 29.6993 20.9725 29.9225C20.7074 29.9544 20.4422 29.9857 20.1765 30.0125C17.4341 30.2943 15.2843 31.3274 13.432 33.4067C11.7641 35.5182 11.3414 37.8971 11.582 40.5247C11.7138 41.2192 11.9145 41.8429 12.1878 42.4937C12.2374 42.6231 12.287 42.7526 12.3381 42.886C13.2128 44.9069 15.0663 46.4458 17.044 47.312C18.0939 47.7205 19.0552 47.9342 20.1773 48.0031C20.8667 48.0562 21.2489 48.1745 21.7298 48.7036C22.0009 49.2458 21.9519 49.8489 21.7677 50.417C21.5279 50.7407 21.3475 50.8269 20.9725 50.9755C19.6913 51.0965 18.4406 50.9257 17.186 50.6726C16.6155 52.7101 16.5307 54.499 17.5877 56.4281C18.7251 58.116 20.2129 59.2468 22.1842 59.7602C23.3166 59.9588 24.261 59.9215 25.3649 59.6087C25.3596 59.4549 25.3543 59.301 25.3489 59.1425C25.2984 57.0532 25.555 55.2514 26.9469 53.5923C27.363 53.2505 27.8745 53.2291 28.3941 53.2474C28.9425 53.4858 29.12 53.6546 29.4543 54.1562C29.613 55.1086 29.244 55.6857 28.7591 56.4961C28.3153 57.2989 28.2701 58.1614 28.4745 59.0496C28.9348 60.5328 29.8257 61.5737 31.1866 62.3161C32.4798 62.7245 33.6006 62.7287 34.843 62.1546C36.1161 61.4551 36.855 60.5299 37.3302 59.1544C37.4962 58.2614 37.5022 57.3904 37.4989 56.4861C37.4989 56.2487 37.4989 56.2487 37.499 56.0066C37.4989 55.4862 37.4977 54.9659 37.4965 54.4455C37.4962 54.0836 37.496 53.7218 37.4958 53.36C37.4953 52.4095 37.4938 51.4591 37.4921 50.5087C37.4906 49.5381 37.4899 48.5675 37.4891 47.5969C37.4875 45.6939 37.4849 43.7909 37.4817 41.8879C37.3693 41.9103 37.257 41.9327 37.1412 41.9558C36.9927 41.9843 36.8443 42.0129 36.6913 42.0423C36.5445 42.0709 36.3978 42.0996 36.2467 42.1291C35.5024 42.2356 34.8634 42.1258 34.1496 41.8879C33.9438 41.2704 33.9018 40.7153 33.9981 40.0703C34.3948 39.4689 34.7547 39.285 35.437 39.1426C35.6133 39.1107 35.6133 39.1107 35.7932 39.0781C36.4136 38.9484 36.769 38.7008 37.1409 38.196C37.4346 37.5793 37.5006 36.995 37.502 36.3173C37.5026 36.1759 37.5032 36.0345 37.5039 35.8889C37.5038 35.7356 37.5038 35.5823 37.5037 35.4244C37.5042 35.2615 37.5047 35.0986 37.5052 34.9308C37.5067 34.3922 37.507 33.8536 37.5071 33.3149C37.5076 32.9397 37.5081 32.5644 37.5087 32.1892C37.5096 31.4021 37.5099 30.615 37.5098 29.8279C37.5098 28.8221 37.5118 27.8163 37.5144 26.8105C37.5161 26.035 37.5164 25.2595 37.5163 24.484C37.5165 24.1134 37.5172 23.7428 37.5184 23.3721C37.5199 22.852 37.5194 22.332 37.5185 21.8119C37.5193 21.6604 37.5202 21.509 37.5211 21.3529C37.5138 19.6956 37.3247 18.224 36.27 16.8969C34.2676 14.9716 31.5231 14.9471 29.4939 16.8395Z" fill="white"/>
<path d="M76.8614 13.7162C77.5245 14.0714 77.5245 14.0714 77.7702 14.4735C77.8905 15.0013 77.9164 15.4654 77.7702 15.9881C77.1567 16.8031 76.2859 17.1372 75.3752 17.55C75.1528 17.6533 75.1528 17.6533 74.9259 17.7586C74.562 17.9272 74.1975 18.0943 73.8322 18.26C73.9381 18.3278 74.0439 18.3955 74.1529 18.4653C74.3597 18.6027 74.3597 18.6027 74.5706 18.7428C74.7077 18.8324 74.8447 18.922 74.9859 19.0144C75.3875 19.3547 75.5127 19.5744 75.6498 20.0775C75.6391 20.6736 75.5955 21.0151 75.222 21.4862C74.5715 22.1018 73.7427 22.4853 72.9613 22.908C71.5555 23.6724 71.5555 23.6724 70.1806 24.4906C70.0098 24.5966 70.0098 24.5966 69.8355 24.7047C69.6298 24.8337 69.4254 24.9651 69.2229 25.0992C68.5057 25.5453 67.8573 25.6682 67.0165 25.5301C66.5818 25.2584 66.3363 25.0784 66.1077 24.6214C66.0031 23.5751 66.0031 23.5751 66.3793 22.9801C66.9935 22.2901 67.8344 21.8958 68.6352 21.4596C68.7954 21.3698 68.9556 21.28 69.1207 21.1875C70.3026 20.5319 70.3026 20.5319 70.6516 20.5319C70.6516 20.432 70.6516 20.332 70.6516 20.229C70.5454 20.1915 70.4391 20.154 70.3297 20.1154C69.5222 19.7643 68.887 19.3933 68.5311 18.5629C68.4694 18.0694 68.4911 17.7546 68.6752 17.2928C69.1341 16.7073 69.7074 16.4771 70.3723 16.1656C70.5084 16.0998 70.6445 16.034 70.7848 15.9662C71.219 15.7569 71.6547 15.5506 72.0904 15.3444C72.3838 15.2034 72.677 15.0622 72.9702 14.9208C73.5066 14.663 74.0432 14.4057 74.581 14.1509C74.6889 14.0997 74.7968 14.0485 74.908 13.9958C75.5555 13.7071 76.1606 13.6053 76.8614 13.7162Z" fill="white"/>
<path d="M2.34286 13.7162C3.04659 13.9724 3.7156 14.2961 4.38758 14.625C4.57721 14.716 4.76692 14.807 4.9567 14.8977C5.32987 15.0767 5.70231 15.2571 6.07428 15.4385C6.5088 15.6489 6.94517 15.8532 7.38425 16.0538C7.60026 16.1548 7.81621 16.256 8.0321 16.3573C8.12738 16.3998 8.22265 16.4422 8.32082 16.486C8.96995 16.8002 9.21703 17.1329 9.46151 17.8056C9.51919 18.2426 9.46444 18.6045 9.31005 19.0173C8.81596 19.5226 8.26863 19.8993 7.64398 20.229C7.54402 20.229 7.44405 20.229 7.34106 20.229C7.34106 20.329 7.34106 20.4289 7.34106 20.5319C7.45137 20.5744 7.56168 20.6169 7.67534 20.6607C8.34636 20.9369 8.97518 21.2852 9.61297 21.63C9.74768 21.7005 9.8824 21.771 10.0212 21.8436C10.8149 22.2736 11.384 22.6507 11.8849 23.4097C12.0199 23.8733 11.9561 24.1228 11.8849 24.6214C11.6132 25.047 11.4276 25.3043 10.9761 25.5301C9.60988 25.7192 8.69412 25.0973 7.56825 24.4131C7.37977 24.3012 7.19115 24.1895 7.00238 24.078C6.62953 23.8574 6.25763 23.6354 5.88628 23.4123C5.44064 23.1475 4.9921 22.8913 4.53845 22.6405C4.41954 22.574 4.30064 22.5075 4.17814 22.439C3.96544 22.3203 3.7519 22.2031 3.53739 22.0877C2.89196 21.7194 2.5957 21.3826 2.34286 20.6834C2.34286 20.0279 2.40999 19.7268 2.82564 19.2161C3.25353 18.8643 3.69776 18.5639 4.16039 18.26C4.05724 18.2127 3.95409 18.1654 3.84781 18.1167C3.38008 17.9011 2.91354 17.683 2.44699 17.4648C2.28465 17.3905 2.1223 17.3161 1.95504 17.2394C1.79933 17.1662 1.64363 17.093 1.4832 17.0176C1.33964 16.9509 1.19608 16.8843 1.04816 16.8157C0.653085 16.5798 0.459636 16.379 0.222413 15.9881C0.0956395 15.3837 0.0556505 14.749 0.383931 14.2067C0.967938 13.6513 1.58611 13.5838 2.34286 13.7162Z" fill="white"/>
<path d="M61.5225 0.146866C62.0735 0.28982 62.3101 0.527517 62.6242 0.993507C62.855 1.65706 62.7577 2.05708 62.4738 2.68967C62.2216 3.14072 61.8717 3.46229 61.4977 3.81446C60.9712 4.31447 60.4903 4.80828 60.0493 5.38586C60.2166 5.42188 60.2166 5.42188 60.3872 5.45863C61.9974 5.84365 61.9974 5.84365 62.4727 6.59755C62.6441 7.09711 62.6253 7.45572 62.4727 7.96069C62.09 8.57408 61.6448 9.11744 61.1777 9.66795C60.8922 10.0082 60.62 10.3578 60.3477 10.7086C60.1426 10.9727 59.9356 11.2353 59.7281 11.4975C59.418 11.8896 59.1105 12.2836 58.8039 12.6785C58.6417 12.8856 58.4794 13.0926 58.317 13.2997C58.2419 13.3973 58.1667 13.4949 58.0893 13.5954C57.5789 14.2425 57.2505 14.5752 56.4332 14.6818C55.8234 14.6086 55.5189 14.4125 55.0511 14.0191C54.7728 13.5714 54.7471 13.3087 54.76 12.7814C54.945 12.0133 55.3245 11.5852 55.8368 10.9994C56.0096 10.7962 56.1822 10.5929 56.3545 10.3894C56.4817 10.2404 56.4817 10.2404 56.6115 10.0883C57.0199 9.59582 57.3997 9.08275 57.7774 8.56653C57.6568 8.55345 57.5361 8.54037 57.4118 8.52689C55.6882 8.29834 55.6882 8.29834 55.0511 7.50631C54.9054 7.09263 54.8395 6.7302 54.8997 6.29463C55.2041 5.68384 55.6191 5.21974 56.083 4.72322C56.1546 4.64625 56.2262 4.56927 56.3 4.48997C56.456 4.32246 56.6123 4.15524 56.7688 3.98825C57.033 3.706 57.2959 3.42252 57.5585 3.1388C57.9211 2.74727 58.2859 2.35805 58.6525 1.97031C58.9417 1.66391 59.2186 1.35593 59.4914 1.03433C60.1134 0.324408 60.5589 0.0623662 61.5225 0.146866Z" fill="white"/>
<path d="M17.2367 0.150416C18.0086 0.314448 18.446 0.879494 18.9562 1.44789C19.0633 1.56054 19.1704 1.6732 19.2807 1.78927C19.8808 2.42534 20.4546 3.08358 21.0276 3.74405C21.2576 4.00269 21.4942 4.25055 21.7381 4.49603C21.8092 4.56866 21.8802 4.64129 21.9534 4.71612C22.0964 4.86148 22.2412 5.00503 22.3877 5.14684C22.987 5.76957 23.0698 6.21779 23.093 7.05193C22.8511 7.62471 22.5535 7.93491 22.0327 8.26361C21.576 8.37425 21.576 8.37425 21.0861 8.44347C20.9229 8.46749 20.7597 8.4915 20.5915 8.51624C20.4673 8.53284 20.3431 8.54944 20.2152 8.56653C20.2701 8.6336 20.325 8.70067 20.3815 8.76976C20.6356 9.08047 20.8892 9.39148 21.1429 9.70249C21.2292 9.80792 21.3155 9.91335 21.4044 10.022C21.8404 10.5571 22.272 11.0954 22.6936 11.6419C22.7667 11.7364 22.8398 11.8308 22.9151 11.9282C23.2048 12.3735 23.2541 12.737 23.2444 13.2618C23.0556 13.8072 22.8879 14.0912 22.4398 14.4546C21.9465 14.6611 21.6546 14.7008 21.124 14.625C20.3993 14.2133 19.9209 13.7138 19.4295 13.0536C19.2842 12.8634 19.1389 12.6733 18.9935 12.4832C18.92 12.3863 18.8466 12.2893 18.7709 12.1895C18.4873 11.8176 18.1975 11.451 17.9069 11.0846C17.6985 10.8212 17.4921 10.5563 17.286 10.2912C17.0216 9.95181 16.7514 9.61884 16.4754 9.28893C15.4358 8.00523 15.4358 8.00523 15.3874 7.21286C15.4444 6.75568 15.5406 6.56472 15.7945 6.1621C16.4659 5.71447 17.1606 5.55446 17.9433 5.38586C17.7597 5.18847 17.7597 5.18847 17.5723 4.9871C17.4088 4.8108 17.2453 4.63449 17.0819 4.45817C17.0015 4.37187 16.9212 4.28557 16.8384 4.19666C15.217 2.44595 15.217 2.44595 15.217 1.59935C15.6023 0.443471 16.051 0.124589 17.2367 0.150416Z" fill="white"/>
<path d="M70.2447 51.3522C70.4145 51.4471 70.5843 51.5421 70.7592 51.6399C70.852 51.6913 70.9448 51.7427 71.0403 51.7957C71.2355 51.9043 71.4302 52.0137 71.6245 52.1238C71.9173 52.2898 72.2114 52.4533 72.5058 52.6164C75.4363 54.2492 75.4363 54.2492 75.9527 55.0649C76.037 55.7156 75.9957 56.0437 75.6876 56.6269C75.3641 57.0133 75.1846 57.1383 74.741 57.3368C74.8166 57.375 74.8922 57.4131 74.9701 57.4523C75.3142 57.6269 75.6571 57.8037 76 57.9805C76.119 58.0405 76.238 58.1004 76.3606 58.1622C77.4928 58.75 77.4928 58.75 77.7702 59.3058C77.8703 59.7719 77.8619 60.2014 77.7702 60.669C77.4398 61.0863 77.1838 61.3408 76.71 61.5777C75.7305 61.582 74.9346 61.3009 74.0701 60.8695C73.9554 60.814 73.8408 60.7585 73.7226 60.7013C73.4826 60.5846 73.2431 60.4668 73.0041 60.348C72.6385 60.1668 72.2712 59.9895 71.9035 59.8126C71.6695 59.6981 71.4356 59.5834 71.2018 59.4685C71.0925 59.4158 70.9831 59.3631 70.8705 59.3088C70.3136 59.0294 69.8997 58.7982 69.5913 58.2456C69.4577 57.5724 69.5051 57.0327 69.8469 56.4375C70.207 56.1164 70.4956 55.9624 70.9545 55.8222C70.6335 55.4762 70.32 55.243 69.9085 55.0134C69.7958 54.9493 69.6832 54.8852 69.5671 54.8191C69.3311 54.6865 69.0948 54.5544 68.8583 54.4227C67.7536 53.7919 67.7536 53.7919 67.4709 53.2474C67.3438 52.2622 67.3438 52.2622 67.6253 51.7606C68.392 50.7994 69.1776 50.8733 70.2447 51.3522Z" fill="white"/>
<path d="M9.76443 51.1269C10.2128 51.5181 10.4604 51.7601 10.5892 52.3386C10.6175 52.8373 10.5582 53.1869 10.3005 53.6142C9.77561 54.1471 9.18397 54.4479 8.52434 54.7904C8.27566 54.9212 8.02734 55.0527 7.77947 55.185C7.61511 55.2706 7.61511 55.2706 7.44744 55.3579C7.16443 55.5039 7.16443 55.5039 7.03814 55.8222C7.1506 55.8566 7.26306 55.8909 7.37892 55.9264C7.90609 56.178 8.1093 56.3742 8.40128 56.8824C8.49429 57.357 8.53027 57.7777 8.40128 58.2456C7.84426 58.8879 7.27589 59.2405 6.52459 59.6016C6.41796 59.654 6.31132 59.7064 6.20145 59.7603C5.97678 59.87 5.75171 59.9789 5.52627 60.0871C5.18458 60.2516 4.84495 60.4198 4.50531 60.5885C4.28553 60.6952 4.06564 60.8017 3.84563 60.908C3.74571 60.9578 3.6458 61.0077 3.54285 61.059C2.81883 61.401 2.09084 61.609 1.28264 61.5777C0.465115 61.1544 0.465115 61.1544 0.222413 60.669C0.186323 60.3678 0.186323 60.3678 0.175081 60.0158C0.169419 59.9008 0.163757 59.7858 0.157924 59.6673C0.251625 59.1421 0.449385 58.9244 0.828255 58.5485C1.22991 58.2972 1.64864 58.0951 2.0778 57.8953C2.19065 57.841 2.3035 57.7866 2.41977 57.7306C2.69626 57.5976 2.97383 57.467 3.25162 57.3368C3.10597 57.2425 2.96032 57.1482 2.81026 57.0511C2.18146 56.6205 2.18146 56.6205 2.03994 56.1251C1.95325 55.4564 1.96587 55.169 2.36139 54.6132C2.77481 54.144 3.22692 53.8617 3.77878 53.5639C3.87161 53.5132 3.96444 53.4625 4.06008 53.4103C4.35448 53.25 4.65023 53.0925 4.94609 52.935C5.14152 52.829 5.33686 52.7228 5.53211 52.6164C6.08242 52.3176 6.63548 52.0245 7.1896 51.7328C7.34058 51.6527 7.49156 51.5726 7.64712 51.4901C7.78041 51.421 7.9137 51.3519 8.05103 51.2808C8.16466 51.2217 8.27829 51.1626 8.39537 51.1017C8.91534 50.8892 9.24624 50.9339 9.76443 51.1269Z" fill="white"/>
<path d="M55.354 66.1215C56.0556 66.5238 56.488 66.9584 56.9633 67.6077C57.0928 67.7823 57.2226 67.9566 57.3526 68.1308C57.4206 68.2222 57.4886 68.3137 57.5587 68.4079C58.0229 69.02 58.5123 69.6127 58.9989 70.207C59.9685 71.4047 59.9685 71.4047 59.8884 72.2557C59.8161 72.7861 59.7757 72.9072 59.3867 73.3065C59.1899 73.4236 59.1899 73.4236 58.9891 73.5431C58.8392 73.6431 58.6892 73.743 58.5347 73.846C58.606 73.9247 58.6772 74.0034 58.7507 74.0845C60 75.4838 60 75.4838 60.1156 76.2599C60.0317 76.8468 59.8082 77.1712 59.4435 77.6325C58.902 77.9033 58.3664 77.8919 57.7774 77.784C57.29 77.5155 56.9446 77.127 56.5657 76.7238C56.3958 76.5476 56.2258 76.3715 56.0557 76.1954C55.5086 75.6235 54.9743 75.0407 54.4453 74.4519C54.2611 74.2475 54.2611 74.2475 54.0731 74.0389C53.636 73.5207 53.4067 73.205 53.2809 72.5302C53.4084 71.9163 53.5686 71.5854 53.9909 71.1197C54.5589 70.9115 54.5589 70.9115 55.0511 70.8168C54.6924 70.2572 54.3122 69.7472 53.8868 69.2359C53.4329 68.6542 53.2049 68.246 53.2336 67.4847C53.4224 66.9393 53.5901 66.6553 54.0382 66.2919C54.5315 66.0854 54.8234 66.0457 55.354 66.1215Z" fill="white"/>
<path d="M24.0017 66.273C24.4684 66.6696 24.5858 66.9568 24.759 67.5415C24.759 68.6968 23.8884 69.507 23.1853 70.3565C22.9259 70.6196 22.9259 70.6196 22.9415 70.8168C23.1039 70.8481 23.2664 70.8793 23.4337 70.9115C24.1264 71.1655 24.2958 71.3675 24.6076 72.0285C24.7212 72.5207 24.7212 72.5207 24.6076 73.0887C24.0257 74.0051 23.2545 74.769 22.4782 75.521C22.1806 75.8186 21.9078 76.1287 21.6351 76.4493C20.5251 77.7169 20.5251 77.7169 19.8821 77.8562C19.2132 77.8982 18.9358 77.8503 18.3977 77.4243C17.9574 76.8465 17.8732 76.544 17.9433 75.815C18.3481 75.0833 18.9048 74.4692 19.4579 73.846C19.1782 73.6596 18.8948 73.4784 18.6059 73.3064C18.1622 72.851 18.0786 72.5635 18.0492 71.9374C18.1392 71.2199 18.5575 70.7596 19.0035 70.211C19.1576 70.0187 19.3116 69.8264 19.4656 69.6341C19.8071 69.21 20.1516 68.7886 20.498 68.3686C20.9538 67.8146 21.3887 67.2471 21.8109 66.667C22.4328 65.9871 23.1664 66.0381 24.0017 66.273Z" fill="white"/>
<path d="M54.1424 35.5265C54.7621 35.8539 54.9751 36.0434 55.1866 36.7122C55.2603 37.0321 55.3309 37.3528 55.3984 37.6742C55.5289 38.1947 55.7145 38.4978 56.1114 38.8586C56.5629 39.1241 56.9487 39.2083 57.465 39.2752C57.9906 39.3761 58.3336 39.4682 58.7051 39.8621C59.0779 40.5331 59.0975 40.8262 58.9891 41.5849C58.7174 42.0105 58.5319 42.2679 58.0803 42.4937C56.637 42.635 55.3709 42.4508 54.1826 41.5867C53.0164 40.5878 52.1332 39.4819 51.971 37.9114C51.9691 37.7461 51.9671 37.5807 51.9651 37.4103C51.9608 37.2445 51.9565 37.0788 51.9521 36.908C52.0368 36.3342 52.2276 36.0893 52.6278 35.678C53.12 35.4318 53.6104 35.4453 54.1424 35.5265Z" fill="white"/>
<path d="M25.0619 35.5265C25.4876 35.7982 25.7449 35.9837 25.9707 36.4353C26.1024 37.9209 25.9665 39.1127 25.0637 40.3224C24.0171 41.548 22.9335 42.3894 21.2861 42.5321C20.0569 42.5787 20.0569 42.5787 19.4295 42.2097C19.0058 41.7129 18.9383 41.3495 18.955 40.691C19.0196 40.2682 19.1821 39.9637 19.4745 39.652C19.9825 39.3193 20.5636 39.2406 21.1512 39.1172C21.6717 38.9867 21.9749 38.8011 22.3357 38.4043C22.6011 37.9527 22.6853 37.5669 22.7522 37.0506C22.8531 36.525 22.9452 36.182 23.3391 35.8105C24.0101 35.4377 24.3032 35.4181 25.0619 35.5265Z" fill="white"/>
<path d="M28.697 26.8933C29.1892 27.0826 29.1892 27.0826 29.6058 27.4991C29.7546 27.9568 29.855 28.4132 29.9536 28.8841C30.0837 29.4121 30.2578 29.7137 30.666 30.0739C31.0124 30.2568 31.331 30.3585 31.7144 30.4348C32.4745 30.592 32.9281 30.7699 33.3923 31.4371C33.5209 32.0479 33.4505 32.5149 33.2029 33.0842C32.8659 33.4935 32.5576 33.6706 32.0333 33.7599C30.7126 33.7846 29.4189 33.3358 28.3941 32.4973C27.2622 31.4029 26.651 30.2073 26.5387 28.6351C26.5893 27.926 26.8103 27.5761 27.296 27.0731C27.7953 26.8096 28.1397 26.826 28.697 26.8933Z" fill="white"/>
<path d="M50.3559 26.8933C50.8813 27.2019 51.2193 27.5147 51.4161 28.1049C51.5388 29.6078 50.9904 30.8937 50.0529 32.0429C49.1791 32.9838 47.9814 33.6199 46.693 33.7397C45.9726 33.7547 45.4775 33.7419 44.9033 33.2546C44.5514 32.8021 44.524 32.2993 44.5471 31.7335C44.6161 31.3495 44.7654 31.0991 45.0607 30.8431C45.6207 30.5351 46.2453 30.4024 46.8634 30.2538C47.427 30.035 47.6189 29.8295 47.9325 29.3166C48.0671 28.867 48.0671 28.867 48.1407 28.3984C48.2844 27.7703 48.3373 27.5486 48.8034 27.0826C49.3861 26.8584 49.7371 26.7938 50.3559 26.8933Z" fill="white"/>
<path d="M50.5262 46.4127C51.0015 46.9513 51.0259 47.3591 51.0102 48.0593C50.9617 48.4007 50.9617 48.4007 50.6966 48.8361C50.0873 49.2345 49.5183 49.346 48.8128 49.4999C48.2962 49.6363 48.0003 49.8358 47.6296 50.2182C46.8846 50.9631 46.8846 50.9631 46.2191 51.0133C45.6241 50.973 45.3642 50.8899 44.9033 50.5211C44.5114 49.9987 44.5159 49.4886 44.6004 48.855C45.3073 47.5114 46.5412 46.7007 47.9508 46.2341C48.8628 46.0138 49.7044 45.9196 50.5262 46.4127Z" fill="white"/>
<path d="M30.8979 46.5642C31.9336 47.0362 32.8741 47.8187 33.3923 48.855C33.4803 49.9288 33.4803 49.9288 33.1083 50.5116C32.6345 50.9715 32.273 51.0531 31.6079 51.0494C31.0553 50.9278 30.7408 50.564 30.3424 50.1803C29.7777 49.65 29.2044 49.4655 28.4603 49.3378C27.9648 49.2357 27.6718 49.124 27.3244 48.7509C26.9791 48.1606 26.933 47.862 27.0309 47.189C27.7514 45.5679 29.5467 46.0177 30.8979 46.5642Z" fill="white"/>
<path d="M68.834 37.4955C69.3074 37.7795 69.3074 37.7795 69.5913 38.2528C69.7411 39.0141 69.709 39.5713 69.3074 40.2407C68.6379 40.6424 68.0807 40.6745 67.3194 40.5247C66.8461 40.2407 66.8461 40.2407 66.5621 39.7674C66.4124 39.0061 66.4445 38.4489 66.8461 37.7795C67.5156 37.3778 68.0728 37.3457 68.834 37.4955Z" fill="white"/>
</svg>
