<svg width="52" height="78" viewBox="0 0 52 78" fill="none" xmlns="http://www.w3.org/2000/svg">
<path d="M18.0167 0.25796C18.1678 0.256831 18.1678 0.256831 18.322 0.255678C18.6539 0.253471 18.9857 0.25243 19.3176 0.25159C19.4318 0.251162 19.5459 0.250733 19.6636 0.250291C20.2686 0.24802 20.8736 0.246618 21.4786 0.245961C22.099 0.245133 22.7192 0.241494 23.3396 0.237167C23.8204 0.23432 24.3013 0.233551 24.7822 0.23332C25.0106 0.232865 25.239 0.231662 25.4674 0.229651C28.6124 0.203944 31.1187 1.12057 33.3894 3.32929C35.2758 5.32744 36.1282 7.71927 36.1264 10.4268C36.1265 10.5824 36.1266 10.738 36.1267 10.8983C36.1193 11.9784 36.0279 13.0051 35.8639 14.0728C35.5958 15.8856 36.0374 17.1351 37.0366 18.6372C37.5606 19.4339 37.9744 20.0655 37.8578 21.0566C37.6406 21.7973 37.2202 22.3516 36.5531 22.7329C36.2021 22.844 35.8483 22.947 35.4912 23.0363C35.4959 23.1898 35.5006 23.3433 35.5054 23.5014C35.4428 26.1308 33.9892 28.7999 32.154 30.6209C31.1289 31.4661 30.0127 31.9731 28.665 31.9861C26.9347 31.8036 26.9347 31.8036 26.3897 31.5311C28.0083 34.0186 30.1867 35.7851 32.609 37.4471C36.2729 40.018 38.5738 43.1019 39.6343 47.4683C39.725 47.9878 39.7655 48.4504 39.7386 48.9757C39.8825 48.9976 40.0264 49.0195 40.1747 49.0421C41.2078 49.3387 42.1547 50.2735 42.6966 51.1847C42.9305 51.7014 42.9453 52.185 42.9714 52.7468C43.0238 53.8034 43.0238 53.8034 43.615 54.6529C44.0449 54.9018 44.4798 55.1285 44.9248 55.3488C47.6543 56.8361 49.4726 59.8703 50.414 62.7323C51.5015 66.6592 51.1185 70.8734 49.1241 74.4442C48.4806 75.5439 47.5813 77.0615 46.4131 77.6456C45.3433 77.7319 45.3433 77.7319 44.8203 77.4181C44.5639 76.9908 44.4792 76.6488 44.5051 76.1488C44.647 75.625 44.9801 75.3175 45.3506 74.9335C47.0299 73.1561 48.1304 70.5354 48.2334 68.089C48.2412 67.9243 48.249 67.7597 48.2571 67.59C48.3374 64.3589 47.3317 61.4189 45.1124 59.0467C44.1768 58.1246 43.2151 57.3975 42.014 56.8637C41.9641 56.9408 41.9143 57.0178 41.8629 57.0972C41.0886 58.2177 40.1509 58.9285 38.8284 59.2908C37.3017 59.4481 35.9427 59.2979 34.6563 58.4269C33.5027 57.488 32.9273 56.4442 32.7607 54.9676C32.6818 52.9296 33.6838 51.4994 35.0124 50.0405C35.6168 49.4745 36.3143 48.9757 37.1598 48.9757C36.4359 45.4369 34.8402 42.6446 32.0538 40.2919C31.3579 39.9265 30.7668 39.9429 29.9923 39.9405C28.9089 39.9128 27.8488 39.8597 26.7784 39.6845C26.5815 39.6525 26.3845 39.6204 26.1817 39.5874C25.5376 39.4525 24.9203 39.2401 24.2979 39.0293C24.1926 38.9939 24.0872 38.9585 23.9786 38.922C23.7204 38.8352 23.4622 38.7479 23.2041 38.6606C23.217 40.7324 23.2314 42.8041 23.2477 44.8758C23.2553 45.838 23.2623 46.8003 23.2681 47.7625C23.2737 48.693 23.2808 49.6234 23.2888 50.5539C23.2915 50.907 23.2938 51.26 23.2956 51.6131C23.3193 56.1486 23.7905 59.8653 26.8447 63.3865C27.1793 63.792 27.5097 64.2008 27.8402 64.6095C28.0111 64.8199 28.1819 65.0302 28.3528 65.2406C28.8056 65.7992 29.2549 66.3606 29.7032 66.9228C30.1384 67.4653 30.5774 68.0046 31.0163 68.5441C31.6444 69.3161 32.2697 70.0901 32.8899 70.8686C33.15 71.1926 33.4116 71.5151 33.6744 71.8368C36.9574 75.8568 36.9574 75.8568 36.8564 76.8871C36.6254 77.3492 36.4502 77.5778 35.9534 77.7457C35.5439 77.7966 35.2783 77.7735 34.8844 77.6456C34.34 77.2114 33.9409 76.6797 33.5192 76.1287C33.3832 75.9568 33.2469 75.7852 33.1103 75.6138C32.8238 75.2527 32.5396 74.89 32.2571 74.5258C31.8004 73.9384 31.3296 73.3631 30.8569 72.7885C29.7707 71.4667 28.6934 70.1377 27.6269 68.8C27.1917 68.2576 26.7527 67.7183 26.3138 67.1788C26.1422 66.9675 25.9705 66.7561 25.7989 66.5448C25.5282 66.2115 25.257 65.8789 24.9847 65.5469C24.6897 65.1843 24.4003 64.8182 24.1143 64.4484C24.0547 64.3715 23.9951 64.2946 23.9337 64.2154C21.8963 61.5603 20.7591 58.6971 20.7507 55.3185C20.7497 55.1489 20.7487 54.9793 20.7476 54.8046C20.7455 54.4371 20.7437 54.0696 20.7422 53.7021C20.7397 53.1199 20.7361 52.5377 20.7323 51.9555C20.7216 50.3004 20.7125 48.6452 20.7047 46.99C20.6999 45.9769 20.6936 44.9638 20.6865 43.9507C20.684 43.5652 20.6822 43.1798 20.6809 42.7944C20.679 42.2545 20.6753 41.7147 20.6713 41.1749C20.6712 41.0167 20.6711 40.8585 20.671 40.6955C20.6569 39.274 20.5599 37.9814 19.5001 36.9304C18.5784 36.1153 17.7623 36.0041 16.5646 36.0244C15.6285 36.1342 15.0393 36.6099 14.4249 37.2954C13.704 38.3132 13.6242 39.3457 13.6278 40.5676C13.6276 40.679 13.6273 40.7904 13.627 40.9052C13.6264 41.272 13.6268 41.6388 13.6273 42.0056C13.6272 42.2634 13.6271 42.5212 13.6269 42.779C13.6267 43.3197 13.627 43.8605 13.6277 44.4013C13.6286 45.087 13.6281 45.7727 13.6272 46.4583C13.6266 46.9916 13.6268 47.5248 13.6272 48.0581C13.6273 48.3104 13.6272 48.5627 13.6268 48.815C13.6196 55.3603 14.9627 61.5185 19.5647 66.4429C19.7353 66.612 19.9076 66.7794 20.082 66.9448C20.3344 67.191 20.559 67.4499 20.7865 67.7192C21.3101 68.3283 21.8752 68.8897 22.4456 69.4542C23.0843 70.0862 23.7005 70.7213 24.2808 71.4078C24.7695 71.9528 25.2966 72.4598 25.817 72.9743C26.3656 73.519 26.889 74.0755 27.3863 74.668C27.6265 74.9519 27.6265 74.9519 28.0393 75.3039C28.4605 75.787 28.5133 76.0994 28.5133 76.7355C28.3092 77.1826 28.197 77.4246 27.7549 77.6456C27.2489 77.7515 27.027 77.7846 26.5413 77.6456C25.9154 77.1795 25.3951 76.62 24.8632 76.0528C24.7173 75.9021 24.571 75.7515 24.4245 75.6013C23.7222 74.8771 23.0455 74.1339 22.3867 73.3701C21.9722 72.9034 21.5263 72.4695 21.0804 72.033C20.4331 71.3931 19.8073 70.7493 19.2192 70.0539C18.6575 69.4199 18.0439 68.8338 17.4398 68.2407C17.411 68.3359 17.3822 68.4311 17.3525 68.5291C16.4105 71.598 15.2597 74.262 13.1924 76.7355C13.0841 76.8751 12.9757 77.0147 12.8641 77.1585C12.5856 77.4939 12.5856 77.4939 12.2822 77.6456C11.2125 77.7319 11.2125 77.7319 10.6895 77.4181C10.3759 76.8954 10.3684 76.4141 10.4619 75.8253C10.7511 75.3447 10.7511 75.3447 11.1445 74.8867C11.2851 74.7158 11.4249 74.5444 11.5641 74.3724C11.6342 74.2862 11.7043 74.2001 11.7765 74.1113C13.6953 71.6644 14.9567 68.3093 14.9226 65.1784C14.8334 64.5609 14.5604 64.1544 14.2193 63.6407C13.3401 62.3112 12.7703 60.8668 12.2538 59.3667C12.2051 59.2294 12.1565 59.0921 12.1063 58.9506C11.1731 56.1374 10.9758 53.2921 10.9881 50.3487C10.9877 49.9969 10.9871 49.6452 10.9864 49.2934C10.9855 48.5634 10.9867 47.8334 10.9896 47.1033C10.9931 46.1713 10.991 45.2394 10.9874 44.3075C10.9852 43.584 10.9859 42.8606 10.9875 42.1372C10.9879 41.7935 10.9874 41.4498 10.986 41.1061C10.9844 40.6261 10.9868 40.1463 10.9902 39.6664C10.989 39.5272 10.9877 39.3881 10.9865 39.2448C10.9982 38.3335 11.1869 37.6102 11.5354 36.768C11.766 36.1377 11.7909 35.5107 11.8183 34.8452C11.8263 34.704 11.8343 34.5627 11.8426 34.4172C11.8594 34.1178 11.8751 33.8183 11.8898 33.5188C11.9281 32.7404 11.9745 31.9624 12.0203 31.1844C12.0292 31.0314 12.038 30.8783 12.0471 30.7207C12.1577 28.8594 12.3566 27.0102 12.5856 25.16C12.4832 25.202 12.3807 25.2441 12.2751 25.2874C12.1398 25.3423 12.0045 25.3973 11.8651 25.4539C11.7313 25.5084 11.5976 25.563 11.4598 25.6192C9.80499 26.2435 7.47959 26.1719 5.85545 25.5125C3.7934 24.4754 2.21701 23.0797 1.38323 20.8753C1.07722 19.9494 0.979202 19.0973 0.990627 18.1252C0.991886 17.9859 0.993145 17.8466 0.994442 17.7031C1.04642 15.6087 1.86493 13.9151 3.28498 12.3799C4.51039 11.2256 6.18275 10.2795 7.90212 10.2657C8.04604 10.2751 8.18996 10.2844 8.33823 10.2941C8.33863 10.2053 8.33902 10.1166 8.33942 10.0251C8.43233 7.96252 9.19456 5.853 10.4619 4.22641C10.5708 4.0866 10.6798 3.94679 10.792 3.80274C12.5862 1.67372 15.2013 0.27403 18.0167 0.25796ZM13.6475 4.68149C13.5126 4.79529 13.5126 4.79529 13.3749 4.9114C11.598 6.53108 10.8729 8.92909 10.7345 11.2706C10.6835 15.1476 12.4245 18.0436 14.4059 21.216C15.0218 20.9068 15.0218 20.9068 15.3161 20.3058C15.2723 20.1744 15.2285 20.043 15.1834 19.9076C14.72 18.5176 14.8349 17.2129 15.4109 15.8688C15.7771 15.1888 16.336 14.7876 16.9847 14.3898C17.0762 14.3325 17.1677 14.2752 17.262 14.2162C18.2077 13.8437 19.516 13.959 20.4547 14.314C20.6111 14.3891 20.7675 14.4641 20.9287 14.5415C22.1431 13.038 23.0602 11.5172 23.6781 9.66838C23.9032 9.0189 24.0968 8.66397 24.721 8.32211C25.3829 8.0647 25.9474 7.98265 26.6551 7.96184C28.02 7.87842 29.3336 7.47997 30.3337 6.5018C30.6666 6.06326 30.9624 5.60963 31.2438 5.13656C30.7093 4.42248 30.263 4.049 29.4425 3.65756C29.1755 3.52733 29.1755 3.52733 28.9032 3.39447C27.3871 2.75085 25.9028 2.68588 24.2778 2.684C24.0453 2.68325 24.0453 2.68325 23.8081 2.68247C23.4817 2.68171 23.1554 2.68135 22.829 2.68137C22.3354 2.68104 21.8418 2.67829 21.3482 2.67541C18.5361 2.66757 15.8736 2.72633 13.6475 4.68149ZM32.7607 7.41195C32.7034 7.48724 32.6462 7.56252 32.5871 7.64008C31.2804 9.25283 29.546 10.1095 27.4948 10.364C27.0249 10.4018 26.5573 10.4304 26.0863 10.4458C26.0438 10.5543 26.0014 10.6629 25.9577 10.7747C25.089 12.9337 23.8972 15.8636 21.6872 16.9686C20.6929 17.0531 19.9899 17.0055 19.1084 16.5135C18.6468 16.3997 18.6468 16.3997 18.1983 16.5135C17.7112 16.9159 17.4972 17.1648 17.361 17.7792C17.3016 18.6744 17.5083 19.2249 18.094 19.8987C18.8682 20.6712 19.6211 20.8809 20.6698 21.0933C21.1005 21.222 21.2799 21.3053 21.5355 21.6711C21.5959 21.965 21.5959 21.965 21.5924 22.2778C21.5941 22.4327 21.5941 22.4327 21.5959 22.5907C21.5159 22.9797 21.4027 23.1096 21.0804 23.3397C19.6678 23.6045 18.3709 23.0654 17.1364 22.4295C17.0558 22.4917 16.9753 22.5539 16.8923 22.6179C16.7851 22.6997 16.678 22.7814 16.5676 22.8656C16.462 22.9466 16.3564 23.0275 16.2476 23.1109C15.9229 23.3397 15.9229 23.3397 15.6081 23.4563C15.2818 23.6202 15.2818 23.6202 15.2127 23.9898C15.1997 24.1359 15.1867 24.2819 15.1733 24.4323C15.157 24.6005 15.1408 24.7686 15.124 24.9418C15.1018 25.2188 15.1018 25.2188 15.0791 25.5013C15.0616 25.6917 15.0441 25.8821 15.0262 26.0782C14.9775 26.6135 14.933 27.149 14.8898 27.6846C14.8595 28.0614 14.8285 28.4382 14.7975 28.8149C14.661 30.4783 14.5311 32.1422 14.4059 33.8065C14.4889 33.7852 14.5718 33.764 14.6573 33.7421C16.4564 33.3079 18.5049 33.1951 20.1703 34.1098C20.5395 34.3606 20.8972 34.6241 21.2564 34.889C22.5171 35.7162 23.9944 36.2202 25.4226 36.6791C25.5213 36.7112 25.62 36.7433 25.7216 36.7764C26.3139 36.9571 26.8336 37.0234 27.4515 36.992C26.8536 36.2856 26.8536 36.2856 26.2303 35.6019C25.5379 34.8665 24.9385 34.105 24.3797 33.2661C24.2818 33.1193 24.2818 33.1193 24.1819 32.9696C23.8383 32.444 23.555 31.9256 23.2989 31.3509C22.9822 30.7361 22.5989 30.6127 21.9526 30.4029C21.7923 30.3624 21.632 30.3219 21.4668 30.2802C21.3393 30.2425 21.2118 30.2047 21.0804 30.1658C20.8441 29.6932 20.843 29.164 20.9287 28.6489C21.1568 28.3621 21.3006 28.2138 21.6607 28.1274C23.1748 28.1223 24.6448 28.558 26.1072 28.9118C26.4777 29.0008 26.849 29.0863 27.2204 29.1715C27.388 29.2137 27.388 29.2137 27.559 29.2567C28.4765 29.4645 29.2338 29.3899 30.0682 28.9061C31.8936 27.2681 32.7185 25.2651 33.0317 22.8866C33.1401 22.1481 33.3362 21.6548 33.8226 21.0643C34.1473 20.8427 34.1473 20.8427 34.4673 20.704C34.5744 20.6559 34.6816 20.6078 34.792 20.5582C34.8726 20.525 34.9531 20.4918 35.0361 20.4575C34.9538 20.3183 34.8715 20.1791 34.7867 20.0356C33.45 17.7526 32.9901 15.9116 33.3675 13.2426C33.6107 11.4818 33.9243 9.19721 33.0641 7.56365C32.9139 7.48856 32.9139 7.48856 32.7607 7.41195ZM5.15921 14.2292C4.11094 15.2855 3.59431 16.5935 3.57888 18.0684C3.60607 19.7026 4.13688 20.9675 5.30438 22.1261C6.64999 23.122 8.09492 23.6445 9.76983 23.3966C10.6027 23.2291 11.2698 22.8882 11.9789 22.4295C11.879 21.8972 11.6625 21.5119 11.3798 21.0524C11.2436 20.8276 11.2436 20.8276 11.1047 20.5983C11.0084 20.4392 10.912 20.2801 10.8127 20.1162C9.57103 18.0195 8.77861 16.1028 8.4206 13.6847C8.36758 13.1972 8.36758 13.1972 8.18654 12.8729C7.05859 12.8729 6.00774 13.5309 5.15921 14.2292ZM36.4014 52.4646C36.3116 52.563 36.2219 52.6614 36.1294 52.7627C35.6567 53.3297 35.3435 53.8372 35.3051 54.586C35.383 55.2786 35.662 55.8438 36.1756 56.3162C36.8625 56.771 37.5692 56.852 38.3734 56.712C39.3699 56.2626 39.9338 55.3224 40.3679 54.3495C40.5748 53.7602 40.6129 53.2241 40.3874 52.6317C40.0707 52.024 39.7751 51.6405 39.1318 51.4028C37.8735 51.1703 37.2271 51.5328 36.4014 52.4646Z" fill="#CC8328"/>
</svg>
