<svg viewBox="0 0 63 59" fill="none" xmlns="http://www.w3.org/2000/svg" stroke="#FFF">
	<path d="M31.4856 33.4256V57.0156" stroke-width="3.69141" stroke-miterlimit="10" />
	<path
		d="M51.9974 24.4583L51.9364 24.3972C50.1407 22.6015 50.1407 19.6898 51.9364 17.894L52.5603 17.2701C54.3561 15.4743 57.2678 15.4743 59.0637 17.2701L59.1246 17.3312C60.9204 19.127 60.9204 22.0386 59.1246 23.8344L58.5007 24.4583C56.705 26.2541 53.7933 26.2541 51.9974 24.4583Z"
		stroke-width="3.69141"
		stroke-miterlimit="10"
	/>
	<path
		d="M11.0399 24.4583L11.101 24.3972C12.8967 22.6015 12.8967 19.6898 11.101 17.894L10.4771 17.2701C8.68126 15.4743 5.7696 15.4743 3.97373 17.2701L3.91282 17.3312C2.11695 19.127 2.11695 22.0386 3.91282 23.8344L4.53667 24.4583C6.33241 26.2541 9.24407 26.2541 11.0399 24.4583Z"
		stroke-width="3.69141"
		stroke-miterlimit="10"
	/>
	<path
		d="M3.51602 17.7935C1.96033 16.2133 1.4268 13.8637 2.18982 11.7441C3.25971 8.7724 6.50544 7.19752 9.50175 8.19629L22.4705 12.533H40.5008L53.5109 8.19629C56.5073 7.19752 59.7531 8.7724 60.8229 11.7441H60.823C61.5722 13.8253 61.0136 16.2149 59.5225 17.7935"
		stroke-width="3.69141"
		stroke-miterlimit="10"
	/>
	<path
		d="M40.475 12.5329H22.4705L22.4829 12.5418C25.4673 14.6539 26.4168 18.1386 27.0524 21.8163C27.6789 25.4429 28.9175 28.9364 30.745 32.131L31.4856 33.4257L32.2411 32.0953C34.0374 28.932 35.2619 25.4788 35.8799 21.894C36.5191 18.1852 37.4691 14.6642 40.475 12.5329Z"
		stroke-width="3.69141"
		stroke-miterlimit="10"
	/>
	<path
		d="M23.983 57.0156H39.072V41.9873C39.072 39.6029 39.6787 37.2577 40.835 35.1723L41.1526 34.5994C42.3089 32.5142 42.9156 30.1689 42.9156 27.7845V22.7689C42.9156 20.9049 43.4728 19.075 44.5294 17.4687C45.586 15.8625 46.1431 14.0325 46.1431 12.1686C46.1431 6.54401 41.5836 1.98451 35.9592 1.98451H26.9868C21.3624 1.98451 16.8027 6.54401 16.8027 12.1686C16.8027 14.0325 17.36 15.8625 18.4166 17.4687C19.4732 19.075 20.0304 20.9049 20.0304 22.7689V27.4761C20.0304 30.0057 20.7132 32.4886 22.0066 34.6624C23.3001 36.8364 23.983 39.3191 23.983 41.8487V57.0156Z"
		stroke-width="3.69141"
		stroke-miterlimit="10"
	/>
</svg>