<svg width="72" height="66" viewBox="0 0 72 66" fill="none" xmlns="http://www.w3.org/2000/svg">
<path d="M2.78894 0.47983C2.96291 0.479251 2.96291 0.479251 3.14038 0.47866C3.53293 0.477559 3.92547 0.477638 4.31802 0.477705C4.60072 0.477164 4.88342 0.476553 5.16613 0.475877C5.94606 0.474229 6.726 0.473623 7.50594 0.473188C8.34589 0.472549 9.18584 0.470977 10.0258 0.469543C12.0556 0.466298 14.0854 0.464649 16.1153 0.463189C17.0702 0.462471 18.0252 0.46159 18.9801 0.46073C22.1528 0.457939 25.3256 0.45556 28.4983 0.454372C29.322 0.454059 30.1458 0.453744 30.9695 0.453423C31.2766 0.453304 31.2766 0.453304 31.59 0.453183C34.9093 0.45182 38.2286 0.447661 41.548 0.442335C44.9527 0.436916 48.3575 0.433955 51.7623 0.43343C53.6752 0.433074 55.5881 0.431629 57.501 0.427447C59.1296 0.423896 60.7582 0.42256 62.3867 0.42416C63.2182 0.424909 64.0497 0.424578 64.8812 0.42141C65.6416 0.418538 66.402 0.418665 67.1625 0.421229C67.4383 0.421622 67.7141 0.420894 67.9899 0.418961C68.3636 0.416502 68.737 0.418051 69.1106 0.420638C69.3186 0.420478 69.5265 0.420318 69.7407 0.420153C70.3552 0.516542 70.5421 0.673601 70.9179 1.15814C71.5078 2.33801 70.9633 4.0857 70.5897 5.25995C69.4929 8.0753 67.6116 9.88824 64.8677 11.1358C63.0508 11.8355 61.186 11.8701 59.2604 11.8549C59.0317 11.8543 58.803 11.8538 58.5743 11.8535C57.9801 11.8522 57.3859 11.849 56.7917 11.8454C56.1823 11.842 55.5729 11.8405 54.9634 11.8389C53.7733 11.8355 52.5833 11.8291 51.3932 11.8228C51.3932 13.5013 51.3932 15.1798 51.3932 16.9091C51.8162 16.8955 52.2392 16.882 52.6751 16.8681C54.6742 16.8471 56.3088 17.4692 57.7818 18.8472C58.9789 20.1268 59.5261 21.5825 59.8268 23.2838C59.8597 23.4587 59.8927 23.6337 59.9267 23.814C60.0382 24.4105 60.1458 25.0076 60.2532 25.6049C60.3141 25.9382 60.3754 26.2714 60.4367 26.6046C60.7153 28.1212 60.9874 29.6389 61.2586 31.1568C61.3843 31.8602 61.5106 32.5635 61.6367 33.2667C61.8477 34.443 62.0584 35.6194 62.2688 36.7958C62.5654 38.4537 62.8625 40.1116 63.1598 41.7695C63.3916 43.0627 63.6234 44.356 63.8551 45.6493C63.8797 45.7871 63.9044 45.925 63.9299 46.067C64.0716 46.8582 64.2133 47.6493 64.3548 48.4405C64.3976 48.6795 64.4404 48.9186 64.4832 49.1576C64.5417 49.4843 64.6001 49.811 64.6586 50.1377C64.6912 50.3202 64.7239 50.5027 64.7575 50.6908C65.1873 53.1329 65.1969 55.3048 63.7397 57.4247C62.5094 58.9922 60.9029 59.9186 58.9406 60.2242C58.3037 60.2683 57.6693 60.2692 57.0311 60.267C56.8435 60.2676 56.6559 60.2682 56.4626 60.2689C55.8365 60.2705 55.2105 60.2699 54.5844 60.2692C54.1345 60.2698 53.6846 60.2708 53.2347 60.2718C52.141 60.2739 51.0473 60.2742 49.9536 60.2738C49.0642 60.2735 48.1748 60.2738 47.2854 60.2745C47.0953 60.2746 47.0953 60.2746 46.9013 60.2748C46.6437 60.275 46.3861 60.2752 46.1285 60.2754C43.715 60.2772 41.3016 60.2768 38.8882 60.2758C36.6826 60.275 34.4771 60.2768 32.2716 60.2799C30.0042 60.2831 27.7369 60.2845 25.4695 60.2838C24.1977 60.2835 22.9258 60.2839 21.654 60.2862C20.5712 60.2882 19.4885 60.2884 18.4057 60.2864C17.8539 60.2855 17.3021 60.2856 16.7502 60.2873C16.1506 60.289 15.5511 60.2877 14.9515 60.2856C14.779 60.2868 14.6065 60.288 14.4288 60.2892C12.3801 60.2744 10.6364 59.7089 9.09334 58.3373C8.91569 58.1343 8.91569 58.1343 8.73444 57.9272C8.59569 57.7749 8.45695 57.6226 8.314 57.4657C7.03706 55.8956 6.82569 54.1482 6.92964 52.1846C7.03933 51.2126 7.22673 50.2517 7.40379 49.2902C7.45488 49.0051 7.5058 48.72 7.55658 48.4349C7.6939 47.6664 7.83352 46.8984 7.97362 46.1305C8.12047 45.3235 8.26533 44.5162 8.41045 43.709C8.6543 42.3542 8.89957 40.9996 9.14578 39.6452C9.42976 38.083 9.71188 36.5205 9.99293 34.9577C10.2932 33.2883 10.5947 31.619 10.8966 29.9498C10.9831 29.4713 11.0694 28.9926 11.1556 28.514C11.2915 27.76 11.4282 27.0061 11.5656 26.2523C11.6157 25.9769 11.6655 25.7014 11.715 25.4259C12.7217 19.8284 12.7217 19.8284 15.0333 18.0909C16.8611 16.9298 18.4369 16.8554 20.5476 16.9091C20.5476 15.2306 20.5476 13.5522 20.5476 11.8228C19.8125 11.8266 19.0773 11.8305 18.3198 11.8344C17.8503 11.8361 17.3807 11.8376 16.9111 11.8389C16.168 11.8408 15.425 11.8431 14.6819 11.8476C14.0819 11.8512 13.4819 11.8531 12.8819 11.854C12.6545 11.8546 12.4272 11.8557 12.1999 11.8575C8.93957 11.8822 6.04862 11.2065 3.60718 8.91056C1.82244 7.00173 0.795233 4.45923 0.821792 1.8343C0.873649 1.34881 1.04594 1.0416 1.35118 0.665924C1.83106 0.425985 2.25277 0.480587 2.78894 0.47983ZM3.97634 3.29108C4.58032 5.30434 5.42996 6.78325 7.25778 7.88511C9.04996 8.79421 10.641 8.89408 12.6159 8.89148C12.9272 8.89204 12.9272 8.89204 13.2448 8.89261C13.8183 8.89361 14.3917 8.89359 14.9652 8.89339C15.5847 8.89336 16.2042 8.89427 16.8237 8.89504C18.0364 8.8964 19.2492 8.89686 20.4619 8.89695C21.448 8.89703 22.434 8.89737 23.4201 8.89788C26.2178 8.89933 29.0155 8.90009 31.8132 8.89996C31.9639 8.89996 32.1146 8.89995 32.2699 8.89994C32.4208 8.89994 32.5717 8.89993 32.7271 8.89992C35.1725 8.89986 37.6178 8.90143 40.0631 8.90374C42.5759 8.9061 45.0887 8.90723 47.6016 8.90709C49.0115 8.90703 50.4215 8.90748 51.8314 8.90925C53.0319 8.91075 54.2323 8.9111 55.4327 8.90999C56.0447 8.90945 56.6567 8.90944 57.2687 8.91087C57.9333 8.9124 58.5979 8.91137 59.2625 8.91011C59.4543 8.91095 59.646 8.91179 59.8436 8.91266C62.253 8.90256 64.4009 8.42811 66.2014 6.72122C67.2056 5.62491 67.5215 4.76804 67.9645 3.29108C46.8484 3.29108 25.7323 3.29108 3.97634 3.29108ZM23.5009 11.8228C23.5009 13.5013 23.5009 15.1798 23.5009 16.9091C31.7308 16.9091 39.9607 16.9091 48.4399 16.9091C48.4399 15.2306 48.4399 13.5522 48.4399 11.8228C40.2101 11.8228 31.9802 11.8228 23.5009 11.8228ZM15.8154 21.5086C14.9944 22.9036 14.8759 24.7476 14.5954 26.3209C14.5437 26.6071 14.4919 26.8932 14.44 27.1793C14.3002 27.952 14.1615 28.7249 14.0232 29.4978C13.9073 30.1442 13.7909 30.7905 13.6744 31.4367C13.3998 32.9611 13.126 34.4857 12.8529 36.0103C12.5715 37.5819 12.2885 39.1532 12.0049 40.7244C11.761 42.0756 11.5179 43.427 11.2754 44.7784C11.1308 45.5847 10.9859 46.3909 10.8402 47.1969C10.7034 47.9543 10.5676 48.7118 10.4326 49.4695C10.3829 49.7472 10.3329 50.0248 10.2826 50.3023C10.2138 50.6817 10.1462 51.0613 10.079 51.441C10.0409 51.6532 10.0028 51.8654 9.96356 52.084C9.78639 53.3868 9.93808 54.3091 10.5392 55.4661C11.2921 56.4071 12.3036 57.0732 13.4925 57.2709C13.7585 57.2852 14.025 57.292 14.2914 57.2924C14.4488 57.2931 14.6061 57.2937 14.7682 57.2943C14.9397 57.2942 15.1112 57.2941 15.2879 57.2939C15.4712 57.2944 15.6544 57.2949 15.8432 57.2954C16.4585 57.2968 17.0738 57.2971 17.689 57.2973C18.1297 57.2981 18.5703 57.2989 19.0109 57.2998C20.2089 57.302 21.407 57.303 22.605 57.3037C23.3533 57.3042 24.1016 57.3049 24.8499 57.3056C26.9226 57.3076 28.9953 57.3093 31.0679 57.3099C31.2005 57.3099 31.3331 57.3099 31.4698 57.31C31.6027 57.31 31.7356 57.31 31.8725 57.3101C32.1419 57.3101 32.4112 57.3102 32.6805 57.3103C32.8141 57.3103 32.9477 57.3104 33.0853 57.3104C35.2497 57.311 37.4141 57.3139 39.5786 57.3177C41.8018 57.3216 44.025 57.3237 46.2482 57.3239C47.496 57.324 48.7438 57.3249 49.9917 57.3279C51.0543 57.3305 52.1168 57.3313 53.1794 57.3299C53.7213 57.3293 54.2631 57.3297 54.8049 57.3318C55.3932 57.3338 55.9813 57.3329 56.5696 57.3312C56.7397 57.3325 56.9097 57.3338 57.0849 57.3352C58.5497 57.3252 60.0063 57.0388 61.0735 55.9583C62.6028 53.7435 61.865 51.3486 61.4162 48.8681C61.3667 48.5905 61.3174 48.313 61.2681 48.0354C61.1352 47.2878 61.001 46.5404 60.8664 45.7931C60.7538 45.1673 60.642 44.5414 60.5301 43.9154C60.2661 42.4386 60.0012 40.962 59.7355 39.4855C59.4619 37.9653 59.1899 36.4449 58.9188 34.9243C58.6852 33.6149 58.4508 32.3056 58.2156 30.9965C58.0755 30.2162 57.9357 29.436 57.7966 28.6555C57.6659 27.9222 57.5341 27.1891 57.4015 26.4561C57.3532 26.1879 57.3052 25.9197 57.2576 25.6515C56.9239 23.2259 56.9239 23.2259 55.8027 21.1237C55.6752 20.9724 55.6752 20.9724 55.545 20.818C54.5228 20.0089 53.4564 19.7649 52.1783 19.7779C52.0335 19.7768 51.8886 19.7757 51.7394 19.7745C51.258 19.7715 50.7768 19.7732 50.2954 19.7749C49.9487 19.7737 49.602 19.7723 49.2553 19.7706C48.3163 19.7669 47.3773 19.7674 46.4383 19.7688C45.6534 19.7697 44.8685 19.7685 44.0836 19.7673C42.2316 19.7645 40.3796 19.7651 38.5275 19.7678C36.6189 19.7706 34.7103 19.768 32.8017 19.7627C31.1609 19.7583 29.5202 19.7571 27.8794 19.7585C26.9003 19.7593 25.9213 19.759 24.9422 19.7556C24.0215 19.7526 23.1008 19.7536 22.18 19.7576C21.8428 19.7584 21.5057 19.7578 21.1685 19.7558C18.1436 19.728 18.1436 19.728 15.8154 21.5086Z" fill="#CC8328"/>
<path d="M43.5178 28.5582C46.2024 30.7003 47.8837 33.5382 48.3989 36.9567C48.4125 37.1631 48.426 37.3695 48.44 37.5822C48.4484 37.7082 48.4569 37.8343 48.4656 37.9642C48.5903 41.4354 47.348 44.4914 45.0771 47.0715C42.9809 49.2924 40.106 50.804 37.0203 50.9272C32.9721 50.9882 29.8913 49.9578 26.926 47.1394C24.6388 44.7885 23.5562 41.7145 23.4394 38.4743C23.5696 34.7456 25.1138 31.5856 27.8053 29.0305C29.4037 27.6547 31.4392 26.6639 33.5094 26.2612C33.6595 26.2314 33.8097 26.2015 33.9644 26.1708C37.3991 25.6926 40.7145 26.5123 43.5178 28.5582ZM28.7513 32.3319C27.065 34.4538 26.2996 36.8464 26.4902 39.5722C26.8441 42.1827 28.2235 44.4316 30.2279 46.1139C32.5084 47.7323 34.869 48.1829 37.6112 47.9187C40.0606 47.4875 42.2786 46.0604 43.7155 44.0297C45.1963 41.7646 45.834 39.294 45.2861 36.5971C44.6124 34.0008 43.1853 31.7736 40.8561 30.3733C36.6887 28.158 31.9713 28.7746 28.7513 32.3319Z" fill="#CC8328"/>
<path d="M50.6895 62.4878C50.8282 62.4869 50.967 62.486 51.11 62.485C51.4032 62.4834 51.6964 62.4824 51.9895 62.4817C52.4364 62.4801 52.8832 62.4751 53.33 62.4699C53.6154 62.4688 53.9008 62.4679 54.1863 62.4673C54.3191 62.4653 54.4519 62.4633 54.5888 62.4612C55.3939 62.4643 55.9465 62.5657 56.6435 63.0134C56.9422 63.494 56.9742 63.7711 56.9511 64.3362C56.7739 64.9311 56.6586 65.1121 56.1513 65.4745C55.5879 65.5741 55.0302 65.5664 54.4593 65.5616C54.2943 65.5622 54.1292 65.5629 53.9592 65.5635C53.6105 65.564 53.2619 65.5628 52.9133 65.56C52.3795 65.5565 51.8462 65.56 51.3124 65.5642C50.9736 65.5637 50.6348 65.5629 50.296 65.5616C50.1363 65.5629 49.9767 65.5643 49.8122 65.5656C48.7085 65.5503 48.7085 65.5503 48.1755 65.1636C47.7877 64.5756 47.8231 64.0189 47.9477 63.3415C48.6256 62.373 49.6022 62.4935 50.6895 62.4878Z" fill="#CC8328"/>
<path d="M17.7328 62.4776C17.8717 62.4773 18.0106 62.477 18.1538 62.4766C18.4467 62.4764 18.7396 62.477 19.0325 62.4784C19.4797 62.4802 19.9268 62.4784 20.374 62.4763C20.6592 62.4765 20.9444 62.477 21.2296 62.4776C21.4293 62.4766 21.4293 62.4766 21.6331 62.4756C22.4656 62.4825 23.0781 62.5869 23.7983 63.0339C24.0575 63.4431 24.0606 63.828 24.0746 64.3042C23.946 64.8568 23.7574 65.0873 23.3369 65.4745C22.7741 65.5986 22.2192 65.5855 21.6449 65.5777C21.3973 65.5783 21.3973 65.5783 21.1448 65.5789C20.7961 65.5787 20.4475 65.5765 20.0989 65.5724C19.5651 65.5668 19.0318 65.569 18.498 65.5722C18.1592 65.5711 17.8204 65.5695 17.4816 65.5674C17.3219 65.5682 17.1623 65.569 16.9978 65.5699C15.8957 65.5507 15.8957 65.5507 15.3653 65.17C15.0579 64.7039 14.9804 64.3931 14.9692 63.8338C15.16 63.2826 15.2824 62.9495 15.8001 62.6598C16.4516 62.4723 17.0582 62.4742 17.7328 62.4776Z" fill="#CC8328"/>
<path d="M40.4004 33.4804C40.8003 33.7265 40.8003 33.7265 41.0567 34.1367C41.1625 34.7469 41.1974 35.352 40.898 35.9082C40.6685 36.188 40.4263 36.4358 40.1639 36.685C40.026 36.8233 40.026 36.8233 39.8853 36.9644C39.691 37.1575 39.4949 37.3488 39.2972 37.5383C38.996 37.8279 38.7019 38.1235 38.4082 38.4205C38.2179 38.6081 38.0272 38.7952 37.8361 38.982C37.7051 39.1137 37.7051 39.1137 37.5714 39.2481C36.954 39.8315 36.4898 40.0226 35.6423 40.0433C35.0559 39.7827 34.853 39.5976 34.4938 39.0589C34.4133 38.192 34.4946 37.7938 35.0313 37.0984C35.5282 36.554 36.0614 36.0485 36.596 35.5416C36.7797 35.3617 36.9631 35.1815 37.1462 35.001C37.3225 34.8291 37.4991 34.6574 37.6759 34.486C37.7581 34.4062 37.8404 34.3264 37.9251 34.2442C38.7734 33.4415 39.2332 33.1886 40.4004 33.4804Z" fill="#CC8328"/>
</svg>
