<svg width="76" height="76" viewBox="0 0 76 76" fill="none" xmlns="http://www.w3.org/2000/svg">
<path d="M37.8606 0.136709C38.0144 0.136795 38.1682 0.136882 38.3266 0.136971C40.857 0.143501 43.2897 0.290699 45.7697 0.833102C46.0051 0.884271 46.0051 0.884271 46.2453 0.936473C49.4723 1.66285 52.5701 2.76069 55.4794 4.33497C55.5951 4.39611 55.7107 4.45726 55.8299 4.52026C58.6034 5.98684 61.0596 7.76251 63.3779 9.88124C63.7207 10.192 64.0702 10.4923 64.4231 10.7915C64.9485 11.2497 65.4044 11.741 65.8538 12.2732C66.0501 12.5024 66.2523 12.7266 66.4594 12.946C71.7497 18.5639 74.8629 26.3294 75.6947 33.9416C75.7124 34.0916 75.73 34.2416 75.7482 34.3962C76.7072 44.2069 73.6488 53.9448 67.5768 61.6382C67.5069 61.7269 67.437 61.8157 67.365 61.9071C65.4868 64.2671 63.3247 66.3841 60.8914 68.1644C60.7118 68.2991 60.5324 68.4338 60.3529 68.5686C55.0025 72.5377 48.5711 74.9725 41.9495 75.6457C41.7923 75.6633 41.6351 75.6809 41.4732 75.6991C34.1534 76.4026 26.6048 74.8287 20.1424 71.3479C20.0368 71.2919 19.9312 71.2359 19.8224 71.1782C17.1654 69.7636 14.7951 68.0021 12.5729 65.9714C12.1993 65.6318 11.8191 65.3014 11.4375 64.9709C10.7755 64.3817 10.2054 63.749 9.63681 63.0708C9.50775 62.9239 9.37869 62.777 9.24571 62.6256C2.81103 55.2663 -0.407663 45.3948 0.137571 35.6577C0.854461 25.702 5.29381 16.0707 12.8738 9.46527C18.3825 4.85313 24.7746 1.62474 31.9214 0.514751C32.1004 0.48664 32.2794 0.458529 32.4638 0.429567C34.2633 0.174498 36.0449 0.13285 37.8606 0.136709ZM28.8971 3.69826C29.1333 4.25324 29.4482 4.59632 29.882 5.01146C30.4432 5.55004 30.9555 6.11508 31.4643 6.70224C31.9605 7.26634 32.4787 7.8093 32.9958 8.35415C33.8852 9.29506 34.7675 10.2413 35.6403 11.1976C36.0936 11.6938 36.549 12.1881 37.0051 12.6817C37.1243 12.8108 37.1243 12.8108 37.2459 12.9424C37.4068 13.1167 37.5678 13.2909 37.7287 13.4651C38.1277 13.8969 38.5264 14.329 38.9251 14.761C39.0843 14.9334 39.2435 15.1059 39.4027 15.2783C42.2678 18.3822 42.2678 18.3822 42.5065 18.6408C42.6659 18.8135 42.8254 18.9862 42.9848 19.1589C43.379 19.5859 43.773 20.0129 44.1667 20.4403C44.323 20.6099 44.4793 20.7794 44.6356 20.9489C44.7134 21.0335 44.7913 21.118 44.8715 21.2051C45.3 21.6697 45.7308 22.1319 46.1645 22.5917C49.7456 26.3896 52.6565 30.3837 53.4101 35.6926C53.5158 35.7197 53.6215 35.7467 53.7303 35.7746C54.8124 36.0716 55.564 36.3627 56.1658 37.354C56.575 38.2457 56.5613 39.1908 56.4345 40.1495C56.2654 40.5824 56.0697 40.8814 55.7978 41.2637C55.7978 41.3688 55.7978 41.4738 55.7978 41.5821C55.4442 41.7762 55.128 41.9091 54.7361 42.0117C53.8267 42.244 53.8267 42.244 53.1867 42.8829C53.035 43.3253 52.9289 43.7607 52.8331 44.2184C52.7479 44.5503 52.6608 44.8817 52.572 45.2126C52.5279 45.3784 52.4839 45.5442 52.4386 45.715C50.9961 50.5995 47.1955 54.421 42.8573 56.8368C41.3901 57.611 39.8806 58.1578 38.2884 58.6139C38.0065 58.6957 38.0065 58.6957 37.7189 58.7793C32.5861 59.989 27.48 58.7811 22.8484 56.5446C22.3758 58.9845 22.7457 61.4563 23.2124 63.8656C23.2999 64.3366 23.3705 64.8082 23.4351 65.2829C23.7304 68.4965 23.7304 68.4965 25.1395 71.2666C26.0484 71.8255 27.0152 71.9788 28.064 72.0851C28.7371 72.1618 29.3762 72.3241 30.0325 72.488C39.066 74.6857 48.6354 72.8632 56.5702 68.1483C60.0004 66.0389 63.19 63.2079 65.6666 60.0464C65.7961 59.886 65.9256 59.7255 66.059 59.5602C67.0625 58.3045 67.9068 56.9914 68.691 55.5895C68.7947 55.4061 68.7947 55.4061 68.9006 55.219C70.7798 51.8699 72.0514 48.3656 72.8295 44.6064C72.8579 44.4735 72.8862 44.3406 72.9154 44.2037C74.673 35.5358 72.5287 25.9639 67.7459 18.611C67.5331 18.3073 67.3173 18.0057 67.0992 17.7057C66.9994 17.5648 66.9994 17.5648 66.8976 17.421C61.4254 9.7056 53.1006 4.5662 43.8011 2.90301C39.4019 2.17887 32.9972 1.6482 28.8971 3.69826ZM26.0319 4.49414C25.5647 4.6412 25.1443 4.80323 24.6988 5.00151C24.5661 5.05917 24.4335 5.11683 24.2968 5.17623C22.017 6.18653 19.7752 7.32305 17.7548 8.79188C17.6027 8.90063 17.4507 9.00938 17.294 9.12143C9.48062 14.8356 4.47749 23.1865 2.87869 32.7018C2.71339 33.8553 2.60748 34.9871 2.60075 36.1527C2.59964 36.283 2.59852 36.4133 2.59737 36.5475C2.5946 36.9656 2.59357 37.3836 2.59329 37.8016C2.59313 38.016 2.59313 38.016 2.59297 38.2347C2.59548 40.3418 2.66327 42.381 3.11061 44.4472C3.15285 44.6513 3.15285 44.6513 3.19595 44.8595C4.66997 51.8757 8.04457 57.908 12.9795 63.0708C13.0807 63.1785 13.1818 63.2862 13.286 63.3972C14.0734 64.2147 14.9574 64.9124 15.8447 65.6176C15.9967 65.7423 16.1488 65.8671 16.3054 65.9956C17.3477 66.8305 18.4318 67.5536 19.5753 68.244C19.7789 68.3674 19.7789 68.3673 19.9866 68.4932C20.6608 68.8924 21.2905 69.2297 22.0525 69.4378C21.9878 69.1144 21.9231 68.791 21.8584 68.4676C21.8014 68.1823 21.7445 67.8969 21.6876 67.6115C21.5417 66.8798 21.3944 66.1485 21.243 65.418C20.6117 62.3617 20.0172 59.1999 20.7194 56.1068C20.8303 55.5937 20.8303 55.5937 20.7791 55.112C20.3384 54.4972 19.797 54.1157 19.1874 53.6794C18.9167 53.4196 18.6513 53.1542 18.3915 52.8835C18.2694 52.761 18.1473 52.6385 18.0215 52.5123C16.1085 50.5044 14.1378 47.5418 13.6162 44.7656C13.664 43.7628 13.664 43.7628 14.0937 43.333C15.0777 43.2435 15.0777 43.2435 15.4561 43.5034C15.7858 43.9448 15.9301 44.438 16.1033 44.9546C17.8065 49.7121 21.3019 53.2635 25.825 55.4234C26.7189 55.8291 27.6307 56.1294 28.5787 56.3854C28.7509 56.4359 28.923 56.4864 29.1004 56.5384C31.8287 57.2197 35.1137 57.1811 37.8109 56.3854C38.0071 56.3294 38.2032 56.2734 38.4053 56.2157C43.0364 54.8205 46.7484 51.7129 49.1323 47.5512C49.1925 47.4464 49.2528 47.3416 49.3149 47.2336C49.6486 46.625 49.8379 46.0931 49.9083 45.4023C49.7737 45.3235 49.639 45.2447 49.5004 45.1635C48.0551 44.1853 47.2477 42.6834 46.8342 41.015C46.4012 38.4046 46.6657 35.6587 48.2282 33.4585C48.7209 32.851 49.2375 32.4308 49.9083 32.0315C49.5684 29.6996 47.5969 27.6216 46.0414 25.9648C45.6661 25.5646 45.2986 25.1592 44.934 24.7492C44.1989 23.9298 43.4447 23.1287 42.6906 22.3267C41.9424 21.5306 41.2015 20.7284 40.4647 19.9217C40.0093 19.4238 39.5521 18.9276 39.0943 18.432C38.9751 18.3029 38.9751 18.3029 38.8535 18.1713C38.6925 17.9971 38.5316 17.8228 38.3706 17.6486C37.9716 17.2168 37.5729 16.7847 37.1742 16.3527C37.015 16.1803 36.8558 16.0078 36.6967 15.8354C33.8315 12.7315 33.8315 12.7315 33.5928 12.4729C33.4334 12.3002 33.274 12.1275 33.1145 11.9548C32.7203 11.5279 32.3263 11.1008 31.9326 10.6734C30.9866 9.64688 30.0366 8.62419 29.0826 7.60518C28.6341 7.12561 28.1878 6.64443 27.7468 6.15802C27.667 6.07011 27.5872 5.9822 27.5049 5.89163C27.2897 5.65399 27.0752 5.41576 26.8607 5.17748C26.5133 4.79041 26.5133 4.79041 26.0319 4.49414ZM50.545 34.4192C49.3872 35.5769 48.9417 37.107 48.9035 38.7169C48.9179 40.3051 49.32 41.8123 50.3858 43.0146C50.5434 43.0672 50.7009 43.1197 50.8633 43.1738C50.9037 42.9937 50.9442 42.8135 50.9858 42.6279C51.041 42.392 51.0964 42.1562 51.1518 41.9203C51.1782 41.8015 51.2045 41.6827 51.2317 41.5603C51.4459 40.6631 51.4459 40.6631 51.9775 40.3087C52.35 40.2651 52.35 40.2651 52.7635 40.249C53.2943 40.2032 53.5313 40.1739 53.9871 39.8809C54.2735 39.3993 54.2881 39.1091 54.206 38.5577C53.9423 38.202 53.7936 38.0935 53.356 38.0043C53.1513 37.9927 53.1513 37.9927 52.9425 37.9807C52.4254 37.948 52.0098 37.8893 51.5 37.7619C51.2899 36.6588 51.0798 35.5557 50.8633 34.4192C50.7583 34.4192 50.6532 34.4192 50.545 34.4192Z" fill="white"/>
<path d="M56.7527 45.4022C57.4555 46.0127 57.9689 46.7441 58.5036 47.5013C58.6855 47.7571 58.8675 48.0129 59.0496 48.2686C59.1427 48.3995 59.2358 48.5305 59.3317 48.6654C59.6154 49.0598 59.9046 49.4493 60.1961 49.838C60.3359 50.026 60.3359 50.026 60.4784 50.2178C60.6557 50.4559 60.8342 50.693 61.0144 50.929C62.126 52.4344 62.3412 53.8923 62.1647 55.7486C61.7955 57.3004 60.8281 58.5472 59.5569 59.4824C58.1373 60.3193 56.5659 60.5988 54.9657 60.254C53.2674 59.7894 52.0373 58.9472 51.0224 57.4995C50.2462 56.0648 50.0684 54.5819 50.413 52.9935C50.9265 51.3247 52.2792 49.8673 53.3007 48.4754C53.5609 48.1195 53.8188 47.7619 54.076 47.4037C54.232 47.1875 54.3881 46.9713 54.5442 46.7552C54.6156 46.6551 54.687 46.555 54.7606 46.4519C55.3405 45.6541 55.7333 45.2595 56.7527 45.4022ZM56.116 48.7449C55.8932 48.9908 55.8932 48.9908 55.6714 49.3157C55.5847 49.4368 55.498 49.558 55.4086 49.6828C55.317 49.8132 55.2255 49.9436 55.1311 50.078C55.038 50.2096 54.9449 50.3412 54.8489 50.4768C54.6643 50.7378 54.48 50.999 54.2961 51.2604C54.094 51.5438 53.8848 51.8221 53.6737 52.0988C53.0321 52.9442 52.621 53.7106 52.6141 54.7935C52.8056 55.9065 53.2859 56.6853 54.186 57.3702C55.126 57.9154 55.9781 58.1485 57.0617 57.9087C58.1482 57.5642 58.954 56.8604 59.6179 55.9476C59.8904 55.0617 60.0002 54.1612 59.6003 53.2977C58.9933 52.3313 58.3448 51.4071 57.658 50.4958C57.4595 50.2307 57.2611 49.9654 57.063 49.6999C56.9765 49.585 56.8901 49.4701 56.801 49.3517C56.5935 49.0632 56.5935 49.0632 56.4344 48.7449C56.3293 48.7449 56.2242 48.7449 56.116 48.7449Z" fill="white"/>
</svg>
