<svg viewBox="0 0 63 63" xmlns="http://www.w3.org/2000/svg" fill="#FFF">
	<path
		d="M42.6177 14.8131C45.6787 14.8131 48.1689 12.3228 48.1689 9.26185C48.1689 6.20094 45.6787 3.71071 42.6177 3.71071H42.0741C41.4466 1.55186 39.3089 -0.06375 37.1749 0.00478713H25.7991C23.5663 -0.0259746 21.4521 1.70665 20.9267 3.71059H20.3822C17.3213 3.71059 14.8311 6.20081 14.8311 9.26173C14.8311 12.3226 17.3213 14.813 20.3822 14.813H20.9258C21.1252 15.4991 21.4783 16.1303 21.9348 16.6704C21.4575 17.2247 21.1026 17.865 20.9266 18.5363H20.3821C17.3212 18.5363 14.8309 21.0265 14.8309 24.0874C14.8309 27.1483 17.3212 29.6385 20.3821 29.6385H20.9257C21.125 30.3248 21.4782 30.9559 21.9347 31.496C21.4574 32.0504 21.1025 32.6907 20.9266 33.3619H20.3821C17.3212 33.3619 14.8309 35.8522 14.8309 38.9131C14.8309 41.974 17.3212 44.4642 20.3821 44.4642H20.9257C21.125 45.1503 21.4782 45.7815 21.9347 46.3217C21.4574 46.876 21.1025 47.5164 20.9264 48.1876H20.3819C17.321 48.1876 14.8308 50.678 14.8308 53.7389C14.8308 56.7998 17.321 59.29 20.3819 59.29H20.9256C21.546 61.4256 23.6501 63.0333 25.7571 62.9964C25.7796 62.9964 37.2005 62.9959 37.2005 62.9959C39.4333 63.0266 41.5477 61.2942 42.0729 59.2901H42.6174C45.6783 59.2901 48.1685 56.7999 48.1685 53.739C48.1685 50.6781 45.6783 48.1877 42.6174 48.1877H42.0738C41.8742 47.5011 41.5215 46.8699 41.0651 46.33C41.5422 45.7758 41.8971 45.1355 42.0729 44.4643H42.6174C45.6783 44.4643 48.1685 41.9741 48.1685 38.9132C48.1685 35.8523 45.6783 33.3621 42.6174 33.3621H42.0738C41.8742 32.6755 41.5215 32.0442 41.0651 31.5043C41.5422 30.9501 41.8971 30.3098 42.0729 29.6387H42.6174C45.6783 29.6387 48.1685 27.1484 48.1685 24.0875C48.1685 21.0266 45.6783 18.5364 42.6174 18.5364H42.0738C41.8742 17.8498 41.5215 17.2186 41.0651 16.6786C41.5422 16.1244 41.8971 15.4842 42.0729 14.813L42.6177 14.8131ZM42.6177 51.8786C43.6437 51.8786 44.4783 52.7134 44.4783 53.7392C44.4783 54.7651 43.6437 55.5998 42.6177 55.5998H38.3168L38.5743 57.6727C38.6097 58.7779 37.8998 59.2428 37.1895 59.3058H25.8104C24.7793 59.2335 24.3823 58.3432 24.4212 57.7058L24.7217 55.5998H20.3823C19.3564 55.5998 18.5217 54.7652 18.5217 53.7392C18.5217 52.7133 19.3564 51.8786 20.3823 51.8786H24.6832L24.4258 49.8059C24.3903 48.7006 25.1003 48.2357 25.8105 48.1727H37.1897C38.2002 48.2201 38.6266 49.1466 38.5789 49.7727L38.2784 51.8786H42.6177ZM42.6177 37.0528C43.6437 37.0528 44.4783 37.8876 44.4783 38.9134C44.4783 39.9393 43.6437 40.774 42.6177 40.774H38.3168L38.5743 42.8469C38.6097 43.9521 37.8998 44.417 37.1895 44.48H25.8104C24.7793 44.4077 24.3823 43.5174 24.4212 42.88L24.7217 40.774H20.3823C19.3564 40.774 18.5217 39.9394 18.5217 38.9134C18.5217 37.8875 19.3564 37.0528 20.3823 37.0528H24.6832L24.4258 34.9801C24.3903 33.8748 25.1003 33.4099 25.8105 33.3469H37.1897C38.2002 33.3943 38.6266 34.3208 38.5789 34.9469L38.2784 37.0528H42.6177ZM42.6177 22.2271C43.6437 22.2271 44.4783 23.0617 44.4783 24.0876C44.4783 25.1136 43.6437 25.9482 42.6177 25.9482H38.3168L38.5743 28.0211C38.6097 29.1263 37.8998 29.5912 37.1895 29.6542H25.8104C24.7793 29.5818 24.3823 28.6916 24.4212 28.0542L24.7217 25.9482H20.3823C19.3564 25.9482 18.5217 25.1135 18.5217 24.0876C18.5217 23.0618 19.3564 22.2271 20.3823 22.2271H24.6832L24.4258 20.1543C24.3903 19.049 25.1003 18.5843 25.8105 18.5211H37.1897C38.2002 18.5685 38.6266 19.495 38.5789 20.1211L38.2784 22.2271H42.6177ZM38.3168 11.1226L38.5743 13.1954C38.6097 14.3006 37.8998 14.7655 37.1895 14.8285H25.8104C24.7793 14.7561 24.3823 13.8659 24.4212 13.2285L24.7217 11.1226H20.3823C19.3564 11.1226 18.5217 10.2878 18.5217 9.26197C18.5217 8.23613 19.3564 7.40138 20.3823 7.40138H24.6832L24.4258 5.32866C24.3903 4.22345 25.1003 3.75858 25.8105 3.69546H37.1897C38.2002 3.74283 38.6266 4.66949 38.5789 5.29543L38.2784 7.40138H42.6177C43.6437 7.40138 44.4783 8.23601 44.4783 9.26197C44.4783 10.2879 43.6437 11.1226 42.6177 11.1226H38.3168Z"
	/>
	<path d="M55.3023 27.6083V30.5479L52.2691 29.7172L51.2941 33.2774L58.9937 35.3861V32.4471L62.0249 33.2774L63.0001 29.7172L55.3023 27.6083Z" />
	<path
		d="M50.9575 25.6872L57.893 21.7337L55.8148 19.6555L58.5452 18.0994L56.7172 14.8923L49.7831 18.8442L51.8617 20.9227L49.1293 22.4803L50.9575 25.6872Z"
	/>
	<path
		d="M57.893 41.2609L50.9575 37.3074L49.1293 40.5143L51.8617 42.0719L49.7831 44.1503L56.7172 48.1023L58.5452 44.8952L55.8148 43.3391L57.893 41.2609Z"
	/>
	<path d="M11.7061 33.2774L10.731 29.7172L7.69781 30.5479V27.6083L0 29.7172L0.975269 33.2774L4.00641 32.4471V35.3861L11.7061 33.2774Z" />
	<path
		d="M13.2168 18.8442L6.2827 14.8923L4.45471 18.0994L7.18512 19.6555L5.10686 21.7337L12.0424 25.6872L13.8706 22.4803L11.1382 20.9227L13.2168 18.8442Z"
	/>
	<path
		d="M12.0424 37.3074L5.10686 41.2609L7.18512 43.3391L4.45471 44.8952L6.2827 48.1023L13.2168 44.1503L11.1382 42.0719L13.8706 40.5143L12.0424 37.3074Z"
	/>
</svg>