<svg width="63" height="63" viewBox="0 0 63 63" fill="#CC8328" stroke="#CC8328" xmlns="http://www.w3.org/2000/svg">
	<path
		d="M35.6934 14.7126C35.6554 15.4599 35.8044 16.2043 36.1269 16.8795C36.4508 17.5244 37.1091 17.9329 37.8309 17.9367C39.14 17.7334 40.2856 16.9448 40.9421 15.7939V58.8039H39.8925C39.3125 58.8039 38.8425 59.2738 38.8425 59.8539C38.8425 60.4334 39.3125 60.9034 39.8925 60.9034H40.9421V61.9534C40.9421 62.533 41.4125 63.003 41.9921 63.003C42.5716 63.003 43.0421 62.533 43.0421 61.9534V60.9034H44.0916C44.6717 60.9034 45.1417 60.4334 45.1417 59.8539C45.1417 59.2738 44.6717 58.8039 44.0916 58.8039H43.0421V10.5135C44.2012 10.5135 45.1417 9.57356 45.1417 8.41397V2.1153C45.1417 0.955711 44.2012 0.0152588 43.0421 0.0152588H40.9421C39.7825 0.0152588 38.8425 0.955711 38.8425 2.1153V8.41397C38.8444 8.65762 38.8896 8.89934 38.9761 9.1276C36.8419 10.1421 35.5415 12.3546 35.6934 14.7126ZM40.9421 8.41397V2.1153H43.0421V8.41397H40.9421ZM40.8445 10.6707C40.4163 13.3613 38.6892 15.5474 37.94 15.815C37.8213 15.4599 37.7718 15.086 37.793 14.7126C37.6382 12.7866 38.9497 11.0494 40.8445 10.6707Z"
	/>
	<path
		d="M59.7056 9.1276C59.7916 8.89934 59.8368 8.65762 59.8387 8.41397V2.1153C59.8387 0.955711 58.8987 0.0152588 57.7392 0.0152588H55.6396C54.48 0.0152588 53.54 0.955711 53.54 2.1153V8.41397C53.54 9.57356 54.48 10.5135 55.6396 10.5135V58.8039H54.5896C54.01 58.8039 53.54 59.2738 53.54 59.8539C53.54 60.4334 54.01 60.9034 54.5896 60.9034H55.6396V61.9534C55.6396 62.533 56.1096 63.003 56.6891 63.003C57.2692 63.003 57.7392 62.533 57.7392 61.9534V60.9034H58.7892C59.3687 60.9034 59.8387 60.4334 59.8387 59.8539C59.8387 59.2738 59.3687 58.8039 58.7892 58.8039H57.7392V15.7939C58.3961 16.9448 59.5422 17.7339 60.8517 17.9367C61.573 17.9329 62.2314 17.5244 62.5543 16.8795C62.8773 16.2043 63.0263 15.4599 62.9883 14.7126C63.1397 12.3546 61.8393 10.1421 59.7056 9.1276ZM55.6396 2.1153H57.7392V8.41397H55.6396V2.1153ZM60.7417 15.8117C59.992 15.5474 58.2673 13.3637 57.8377 10.675C59.7267 11.0599 61.0343 12.7904 60.8887 14.7126C60.9094 15.0851 60.8594 15.458 60.7417 15.8117Z"
	/>
	<path
		d="M0.963143 0.0407443C0.570046 0.0734223 0.228369 0.323313 0.0784351 0.688537C-0.0710185 1.05328 -0.00374037 1.47137 0.253358 1.77075C6.16567 8.66484 5.2651 17.6719 5.25549 17.7623C5.25164 17.8007 5.24924 17.8392 5.24924 17.8776V59.8539C5.24924 61.593 6.6592 63.003 8.39882 63.003H11.5484C13.2875 63.003 14.6975 61.593 14.6975 59.8539V12.6309C14.6975 8.62399 13.4894 5.47442 11.1072 3.28019C7.08017 -0.423475 1.21063 0.0152748 0.963143 0.0407443ZM12.5979 51.0145L7.3488 56.2637V50.8362L12.5979 45.5871V51.0145ZM12.5979 42.6163L7.3488 47.8649V42.439L12.5979 37.1898V42.6163ZM11.5484 60.9034H8.39882C7.81879 60.9034 7.3488 60.4335 7.3488 59.8539V59.2292L12.5979 53.98V59.8539C12.5979 60.4335 12.1279 60.9034 11.5484 60.9034ZM9.69536 4.83623C11.6214 6.6143 12.5979 9.23671 12.5979 12.6309V34.2243L7.3488 39.4729V17.9314C7.74382 12.3762 6.2959 6.84545 3.22849 2.19701C5.6087 2.37193 7.87213 3.29605 9.69536 4.83623Z"
	/>
	<path
		d="M20.9958 17.8776V59.8539C20.9958 61.593 22.4058 63.003 24.1454 63.003H27.295C29.0341 63.003 30.4441 61.593 30.4441 59.8539V12.6309C30.4441 8.62399 29.236 5.47442 26.8538 3.28019C22.8277 -0.423475 16.9563 0.0152748 16.7097 0.0407443C16.3166 0.0734223 15.975 0.323313 15.825 0.688537C15.6756 1.05328 15.7428 1.47137 15.9999 1.77075C21.9122 8.66484 21.0117 17.6719 21.0021 17.7623C20.9982 17.8007 20.9958 17.8392 20.9958 17.8776ZM28.3445 51.0145L23.0954 56.2637V50.8362L28.3445 45.5871V51.0145ZM28.3445 42.6163L23.0954 47.8649V42.439L28.3445 37.1898V42.6163ZM27.295 60.9034H24.1454C23.5654 60.9034 23.0954 60.4335 23.0954 59.8539V59.2292L28.3445 53.98V59.8539C28.3445 60.4335 27.8745 60.9034 27.295 60.9034ZM18.9751 2.19701C21.3553 2.37193 23.6187 3.29605 25.4419 4.83623C27.368 6.6143 28.3445 9.23671 28.3445 12.6309V34.2243L23.0954 39.4729V17.9314C23.4904 12.3762 22.0425 6.84545 18.9751 2.19701Z"
	/>
</svg>