<svg viewBox="0 0 64 73" xmlns="http://www.w3.org/2000/svg" fill="#FFF">
	<path
		d="M53.65 38.3107C54.6705 32.8889 53.4393 27.0665 50.1831 21.9165C46.9087 16.7376 42.0008 12.9317 36.362 11.1986C29.9031 9.15501 23.0515 9.73857 17.0687 12.8424C11.0836 15.9473 6.65974 21.2154 4.61207 27.6759C2.47261 34.3044 3.27873 41.7242 6.66528 47.6996C7.89219 49.8875 8.10369 52.4762 7.24564 54.8024L0.533691 72.9989L31.0043 73.0001L31.9869 67.7693L36.8799 69.32C39.7352 70.2154 42.8175 68.6276 43.7268 65.7689L45.9057 58.8946L53.7185 58.6082L52.1849 42.9778C52.2175 42.8263 53.65 38.3107 53.65 38.3107ZM50.0424 37.5212L48.4376 42.5843L49.6619 55.0634L43.1725 55.3014L40.2083 64.6537C39.9146 65.5802 38.9217 66.0949 37.9951 65.8016L29.1291 62.9913L27.9422 69.309L5.82926 69.3081L10.7086 56.0798C11.9413 52.7386 11.6408 49.0261 9.88462 45.8943C6.94962 40.7229 6.33149 34.3635 8.13063 28.7912C9.88056 23.2702 13.6585 18.7699 18.7684 16.1188C23.8784 13.4676 29.7334 12.9708 35.2545 14.7197L35.2703 14.7246C40.0702 16.1979 44.2584 19.4526 47.0634 23.889C49.7573 28.1498 50.8403 33.1116 50.0424 37.5212Z"
	/>
	<path
		d="M22.2572 28.867C19.0073 27.8367 15.5249 29.6429 14.4949 32.8929L13.121 37.2273C11.9848 40.7514 13.1973 44.8338 16.0696 47.1586C18.8984 49.4934 22.9501 47.6106 23.643 44.9087C23.3685 44.8192 20.1373 43.7653 20.148 43.7688C19.6983 44.6153 19.0716 44.7099 18.3954 44.2926C16.679 42.9062 15.9547 40.4667 16.6368 38.3513L18.0133 34.0082C18.4112 32.6466 20.0141 32 21.1418 32.3856C22.4517 32.8007 23.1796 34.2042 22.7644 35.514L26.283 36.6292C27.313 33.3792 25.5071 29.8971 22.2572 28.867Z"
	/>
	<path
		d="M44.1906 9.02563L47.3342 10.9603L48.9824 8.28209L50.9897 10.4292L55.1722 3.63226L52.0285 1.69786L50.3817 4.37421L48.3747 2.22756L44.1906 9.02563Z"
	/>
	<path
		d="M57.6765 9.44052L50.6894 13.3001L52.4742 16.5311L55.2268 15.0105L55.918 17.8673L62.9032 14.0077L61.1182 10.777L58.3677 12.2967L57.6765 9.44052Z"
	/>
</svg>