<svg width="70" height="70" viewBox="0 0 70 70" fill="none" xmlns="http://www.w3.org/2000/svg">
<path d="M12.3258 0.457893C12.4391 0.452855 12.5523 0.447818 12.669 0.442627C13.5608 0.5831 14.0798 1.26638 14.6 1.94032C14.6693 2.02859 14.7386 2.11686 14.81 2.20781C15.5312 3.13589 16.2056 4.09647 16.8753 5.06203C18.5535 7.47977 20.2317 9.89473 22.1974 12.0899C22.2644 12.1659 22.3315 12.242 22.4005 12.3204C23.2946 13.334 24.2132 14.2386 25.297 15.0547C25.3998 15.1343 25.5027 15.2138 25.6086 15.2958C27.2291 16.4947 29.0282 17.326 30.9571 17.8848C30.977 17.6357 30.977 17.6357 30.9972 17.3815C31.2056 14.984 31.8003 12.7004 33.6525 11.0117C35.642 9.41142 37.8425 8.67482 40.405 8.91812C42.4667 9.20143 44.2795 10.2684 45.6466 11.8203C46.6635 13.1706 47.414 14.7995 47.4161 16.5163C47.4166 16.6448 47.4171 16.7733 47.4176 16.9057C47.4174 17.1158 47.4174 17.1158 47.4172 17.3302C47.4175 17.4798 47.4179 17.6295 47.4183 17.7837C47.4194 18.2863 47.4196 18.7889 47.4198 19.2914C47.4204 19.6514 47.4211 20.0113 47.4219 20.3713C47.4234 21.1471 47.4245 21.9228 47.4254 22.6986C47.4268 23.9259 47.4296 25.1531 47.4326 26.3804C47.4336 26.8005 47.4346 27.2207 47.4356 27.6408C47.4358 27.7458 47.4361 27.8508 47.4363 27.959C47.4391 29.154 47.4417 30.3491 47.4441 31.5441C47.4443 31.6533 47.4445 31.7625 47.4448 31.8751C47.4483 33.6435 47.4508 35.4118 47.4531 37.1802C47.4554 38.9973 47.4593 40.8144 47.4645 42.6316C47.4677 43.7514 47.4695 44.8712 47.4698 45.9911C47.4701 46.7594 47.4718 47.5277 47.4747 48.296C47.4763 48.7386 47.4771 49.1812 47.4765 49.6239C47.476 50.1052 47.4779 50.5864 47.4805 51.0676C47.4798 51.2056 47.479 51.3436 47.4782 51.4858C47.4924 53.0447 47.8519 54.3386 48.7462 55.6191C48.8435 55.7609 48.9408 55.9027 49.041 56.0487C50.2929 57.3006 51.8431 57.9054 53.5978 57.9102C55.0572 57.8211 56.4806 57.276 57.5613 56.2693C58.692 54.9718 59.2389 53.5468 59.3006 51.8383C59.3062 51.6889 59.3119 51.5395 59.3177 51.3856C59.3256 51.1547 59.3256 51.1547 59.3337 50.9192C59.3396 50.7622 59.3454 50.6051 59.3514 50.4433C59.3656 50.0573 59.3794 49.6712 59.3927 49.2852C59.2321 49.2613 59.2321 49.2613 59.0683 49.2369C56.5084 48.8368 54.4344 47.5316 52.8987 45.4359C51.5505 43.5125 50.7286 41.1273 50.6329 38.7734C50.6275 38.6445 50.6222 38.5156 50.6166 38.3828C50.5479 35.0463 51.4761 31.8456 53.7325 29.3399C53.8137 29.2462 53.8948 29.1526 53.9784 29.0561C55.2236 27.7065 56.9222 26.8402 58.7189 26.5098C58.7239 26.3911 58.7289 26.2725 58.7341 26.1502C58.7474 25.9154 58.7474 25.9154 58.761 25.6759C58.7688 25.5211 58.7766 25.3663 58.7847 25.2069C58.8574 24.7336 58.9749 24.4663 59.2579 24.084C59.6746 23.8757 60.0118 23.9097 60.4708 23.9492C60.7688 24.1561 60.7688 24.1561 61.0099 24.4883C61.0491 24.8571 61.0615 25.1674 61.0436 25.5327C61.0411 25.6267 61.0387 25.7207 61.0362 25.8175C61.0299 26.0484 61.0202 26.2791 61.0099 26.5098C61.1277 26.5272 61.1277 26.5272 61.2478 26.545C63.8125 26.9846 65.7296 28.4739 67.2344 30.5564C67.9549 31.6604 68.4305 32.807 68.8263 34.0566C68.8953 34.2664 68.8953 34.2664 68.9658 34.4804C69.8738 37.8379 69.2417 41.5791 67.5797 44.5768C66.1914 46.8707 64.2945 48.467 61.6837 49.1504C61.6808 49.3153 61.6808 49.3153 61.6778 49.4835C61.6694 49.8995 61.6594 50.3154 61.6483 50.7313C61.6418 50.9966 61.6371 51.2619 61.6324 51.5272C61.5584 54.1764 60.7637 56.339 58.8452 58.2134C57.1736 59.6226 54.9589 60.3314 52.7892 60.2012C50.7777 60.0059 48.7486 59.1509 47.3559 57.648C45.847 55.8065 45.2213 53.9367 45.2237 51.5746C45.2233 51.4247 45.2229 51.2748 45.2226 51.1204C45.2214 50.618 45.2212 50.1155 45.2211 49.613C45.2204 49.2528 45.2197 48.8927 45.219 48.5325C45.2174 47.7566 45.2163 46.9807 45.2155 46.2049C45.2141 44.9777 45.2113 43.7505 45.2083 42.5233C45.2073 42.103 45.2063 41.6828 45.2053 41.2626C45.205 41.1576 45.2048 41.0526 45.2045 40.9444C45.2017 39.7497 45.1992 38.5549 45.1968 37.3602C45.1965 37.251 45.1963 37.1419 45.1961 37.0294C45.1926 35.2609 45.19 33.4924 45.1878 31.724C45.1854 29.9067 45.1816 28.0894 45.1764 26.2722C45.1732 25.1522 45.1713 24.0323 45.1711 22.9123C45.1708 22.1442 45.169 21.3761 45.1661 20.608C45.1645 20.1654 45.1638 19.7228 45.1643 19.2801C45.1649 18.7991 45.1629 18.3182 45.1604 17.8371C45.1611 17.6989 45.1619 17.5606 45.1626 17.4181C45.1462 15.6201 44.5778 14.0729 43.3572 12.7437C42.2188 11.6959 40.7164 11.1465 39.1779 11.1465C37.3935 11.296 35.9941 11.9606 34.7727 13.2691C33.3767 14.9488 33.3409 16.8805 33.2482 18.9629C33.3475 18.9994 33.4469 19.0359 33.5493 19.0734C35.0739 19.7238 36.1366 21.1802 36.7436 22.6774C37.4249 24.6437 37.5282 26.5785 36.7179 28.5349C36.2678 29.4093 35.6837 30.1196 35.0001 30.8223C35.0946 30.8918 35.1891 30.9613 35.2865 31.0328C35.8462 31.5074 36.3821 32.0033 36.6173 32.709C36.6554 33.2165 36.6547 33.7247 36.6594 34.2335C36.6653 34.4424 36.6653 34.4424 36.6713 34.6555C36.6782 35.4922 36.6377 35.981 36.0782 36.6172C35.9893 36.7061 35.9004 36.7951 35.8087 36.8867C35.8951 36.9668 35.9814 37.0469 36.0703 37.1294C37.6826 38.6744 38.6679 40.375 38.7745 42.6479C38.771 44.294 38.2962 45.9123 37.8828 47.4929C37.8415 47.6603 37.8001 47.8277 37.7575 48.0002C37.7008 48.2203 37.7008 48.2203 37.643 48.445C37.3575 50.0244 37.6082 51.5267 37.9829 53.0633C38.0261 53.2488 38.069 53.4343 38.1117 53.6199C38.2456 54.1999 38.383 54.779 38.5209 55.358C38.6818 56.0343 38.8413 56.7108 38.9972 57.3883C39.0598 57.657 39.1249 57.925 39.1903 58.1931C39.247 58.4382 39.247 58.4382 39.3048 58.6883C39.3389 58.8312 39.373 58.9741 39.4082 59.1214C39.4546 59.6017 39.3718 59.8969 39.1779 60.3359C38.7883 60.6714 38.5983 60.744 38.0829 60.7234C37.6704 60.5979 37.5522 60.5319 37.2911 60.2012C37.1757 59.8611 37.1757 59.8611 37.0832 59.4479C37.0474 59.2917 37.0116 59.1354 36.9748 58.9745C36.9374 58.8039 36.9001 58.6334 36.8616 58.4576C36.8216 58.2784 36.7814 58.0992 36.7412 57.92C36.6774 57.6349 36.6137 57.3498 36.5507 57.0645C36.3907 56.3414 36.2202 55.6211 36.0467 54.9011C35.2391 51.5268 35.108 49.0511 35.964 45.6786C36.3973 43.9381 36.6999 42.1687 35.8929 40.4838C35.4457 39.7431 34.8905 39.144 34.2168 38.605C33.8805 38.336 33.7094 38.0787 33.5177 37.6953C33.5177 37.6064 33.5177 37.5174 33.5177 37.4258C30.0933 37.4258 26.6689 37.4258 23.1407 37.4258C23.0518 37.6482 22.9629 37.8705 22.8712 38.0996C22.5859 38.4094 22.2869 38.694 21.9721 38.9735C20.937 39.9353 20.2997 41.1341 20.1759 42.5469C20.189 43.964 20.5966 45.3501 20.9356 46.7167C21.4731 48.8977 21.5567 50.7976 21.0356 52.9988C20.9645 53.2993 20.8966 53.6004 20.8292 53.9018C20.6599 54.6548 20.4854 55.4065 20.3107 56.1582C20.2312 56.5004 20.1517 56.8426 20.0723 57.1848C20.0514 57.2749 20.0304 57.3649 20.0089 57.4577C19.8342 58.211 19.6608 58.9646 19.4881 59.7183C19.3583 60.2839 19.2265 60.849 19.0931 61.4137C19.0295 61.6845 18.9668 61.9554 18.9044 62.2265C18.8274 62.5612 18.7489 62.8957 18.6688 63.2297C18.4306 64.2792 18.2712 65.1824 18.7946 66.173C19.2051 66.6634 19.5649 67.0053 20.1759 67.209C20.3964 67.2219 20.6173 67.2272 20.8381 67.2279C20.9747 67.2287 21.1113 67.2295 21.2521 67.2302C21.4018 67.2304 21.5516 67.2306 21.7059 67.2307C21.9426 67.2317 21.9426 67.2317 22.1841 67.2327C22.6171 67.2344 23.0501 67.2354 23.483 67.236C23.7537 67.2364 24.0244 67.2369 24.295 67.2375C25.1422 67.2394 25.9894 67.2407 26.8367 67.2412C27.8139 67.2418 28.7911 67.2442 29.7683 67.2481C30.5242 67.251 31.28 67.2523 32.0359 67.2525C32.4871 67.2527 32.9383 67.2536 33.3895 67.2559C33.8931 67.2582 34.3966 67.2579 34.9003 67.257C35.0492 67.2583 35.1981 67.2595 35.3516 67.2608C36.3244 67.2555 36.9285 67.1426 37.6617 66.4594C38.0712 65.931 38.1908 65.3055 38.2345 64.6484C38.1954 64.4228 38.1505 64.198 38.0997 63.9746C38.0509 63.561 38.0321 63.1739 38.0997 62.7617C38.4467 62.3433 38.6505 62.2402 39.1863 62.1637C39.6387 62.2311 39.793 62.314 40.1212 62.627C40.6506 63.9379 40.6995 65.4763 40.1549 66.7878C40.0585 66.9756 39.9575 67.1611 39.8517 67.3438C39.8046 67.428 39.7575 67.5123 39.709 67.5991C39.0834 68.5926 38.0057 69.2049 36.8868 69.5C36.3292 69.5578 35.775 69.5567 35.2147 69.5545C34.9673 69.5558 34.9673 69.5559 34.7149 69.5573C34.2652 69.5593 33.8156 69.5595 33.3658 69.5588C32.9891 69.5583 32.6124 69.5592 32.2356 69.56C31.3461 69.5619 30.4566 69.5617 29.5671 69.5601C28.6525 69.5586 27.7379 69.5605 26.8232 69.5641C26.0352 69.5671 25.2472 69.568 24.4591 69.5672C23.9897 69.5667 23.5203 69.567 23.0508 69.5694C22.5267 69.5718 22.0027 69.5699 21.4786 69.5676C21.3251 69.5689 21.1716 69.5702 21.0135 69.5716C19.5149 69.5578 18.2783 69.0889 17.2111 68.0176C16.3123 66.8378 16.0368 65.7042 16.1329 64.2441C16.2307 63.6316 16.3678 63.03 16.5077 62.4259C16.5473 62.2506 16.5867 62.0752 16.626 61.8999C16.7091 61.5298 16.7932 61.16 16.8779 60.7904C17.0099 60.2146 17.1396 59.6384 17.269 59.0621C17.6088 57.551 17.9521 56.0408 18.3025 54.5322C18.4054 54.0889 18.507 53.6453 18.6085 53.2017C18.6742 52.9176 18.742 52.6341 18.8101 52.3506C19.2723 50.339 19.0528 48.707 18.5671 46.7415C18.4911 46.4266 18.4157 46.1116 18.3406 45.7966C18.2941 45.6024 18.2471 45.4085 18.1993 45.2147C17.6829 43.0914 17.8069 41.1136 18.853 39.1551C19.2662 38.5108 19.772 37.9665 20.3107 37.4258C20.3894 37.3467 20.4681 37.2677 20.5491 37.1863C20.6039 37.1319 20.6586 37.0775 20.715 37.0215C20.5686 36.7174 20.414 36.4321 20.2349 36.1455C19.6984 35.2126 19.7851 33.8973 19.978 32.8648C20.1561 32.2839 20.3619 31.883 20.8497 31.4961C17.069 31.3976 13.3194 33.2731 9.90841 34.7062C3.50206 37.3969 3.50206 37.3969 1.84777 37.1563C1.30499 36.8748 0.980942 36.6525 0.769649 36.0781C0.295013 31.3428 1.69539 26.0024 2.7975 21.4259C2.84895 21.2121 2.89967 20.9981 2.94963 20.7839C3.01938 20.4874 3.09259 20.1921 3.167 19.8968C3.20828 19.7289 3.24956 19.5611 3.2921 19.3882C3.49336 18.893 3.68905 18.7047 4.13879 18.4238C4.58945 18.3595 4.84593 18.3772 5.25903 18.567C5.5913 18.9485 5.58124 19.2723 5.62121 19.7715C5.55037 20.2184 5.55037 20.2184 5.42696 20.6848C5.40502 20.7704 5.38309 20.8561 5.36049 20.9443C5.31327 21.1285 5.26535 21.3126 5.2168 21.4965C5.08621 21.9935 4.96271 22.4922 4.83947 22.9911C4.81415 23.0935 4.78884 23.1958 4.76276 23.3013C3.85329 27.0193 3.20787 30.9058 3.06066 34.7305C5.43997 34.0042 7.73103 33.14 10.0179 32.1615C15.8538 29.6723 21.116 28.2526 27.3307 30.0973C29.0745 30.6126 30.4893 30.8288 32.17 30.0137C33.4856 29.2937 34.337 28.3198 34.828 26.9025C35.1947 25.557 34.9454 24.2331 34.3263 23.0059C33.5353 21.6535 32.4144 20.8825 30.9656 20.3864C30.7371 20.3046 30.5086 20.2228 30.2802 20.141C29.9604 20.0286 29.6404 19.9169 29.3198 19.8069C26.253 18.7529 23.8517 17.0018 21.5236 14.7852C21.4353 14.7025 21.3471 14.6198 21.2561 14.5346C20.5608 13.8648 19.97 13.1118 19.3673 12.3594C19.2439 12.2092 19.1204 12.0592 18.9967 11.9093C18.0498 10.7541 17.1863 9.55234 16.3367 8.32431C15.6116 7.27643 14.8634 6.24547 14.1114 5.2168C14.0359 5.11296 13.9603 5.00912 13.8824 4.90213C13.6593 4.59636 13.435 4.29157 13.2102 3.98707C13.1421 3.89356 13.074 3.80006 13.0038 3.70372C12.8405 3.48428 12.6682 3.27161 12.4943 3.06055C12.4053 3.06055 12.3164 3.06055 12.2247 3.06055C10.0775 6.60124 8.67566 10.5546 7.33684 14.4572C7.29346 14.5836 7.25009 14.71 7.2054 14.8402C7.12931 15.0643 7.05442 15.2887 6.98107 15.5137C6.81831 15.9989 6.68866 16.3411 6.29504 16.6719C5.81485 16.818 5.58039 16.8472 5.11584 16.6466C4.79701 16.3898 4.68922 16.2393 4.54309 15.8633C4.70728 14.7269 5.13699 13.6483 5.52014 12.57C5.55507 12.4712 5.59001 12.3724 5.626 12.2706C6.18091 10.7064 6.77655 9.16102 7.40686 7.62574C7.44454 7.53337 7.48222 7.44099 7.52104 7.34582C10.3172 0.515718 10.3172 0.515718 12.3258 0.457893ZM59.797 28.666C57.3897 31.6028 57.5213 37.0818 57.8471 40.597C58.1421 44.0846 58.1421 44.0846 59.8223 46.9705C59.9432 47.0489 59.9432 47.0489 60.0665 47.1289C60.8394 46.2456 61.2162 45.2721 61.4984 44.1472C61.527 44.0352 61.5557 43.9232 61.5851 43.8078C62.6649 39.4604 62.78 33.603 60.7404 29.4746C60.534 29.152 60.3469 28.9313 60.0665 28.666C59.9776 28.666 59.8886 28.666 59.797 28.666ZM55.2912 30.8652C54.2302 32.0043 53.627 33.3871 53.1935 34.8652C53.162 34.9667 53.1306 35.0681 53.0982 35.1727C52.3237 38.0699 52.9631 41.1896 54.4116 43.7577C54.9984 44.66 55.7139 45.3942 56.5626 46.0508C56.696 45.9841 56.696 45.9841 56.8321 45.916C56.7882 45.7703 56.7442 45.6245 56.699 45.4743C55.1901 40.2612 55.5115 34.8152 56.8321 29.6094C56.362 29.6094 55.6177 30.5399 55.2912 30.8652ZM63.1661 29.7441C63.1851 29.8193 63.2041 29.8944 63.2237 29.9719C63.6091 31.5081 63.9557 33.0167 64.1095 34.5957C64.1244 34.7422 64.1394 34.8886 64.1548 35.0395C64.479 38.7765 64.0908 42.4265 63.1661 46.0508C65.1968 44.9146 66.2015 42.8885 66.8169 40.7402C67.5599 37.8065 67.105 34.7382 65.6012 32.1354C65.0237 31.1933 64.3135 30.4113 63.4357 29.7441C63.3467 29.7441 63.2578 29.7441 63.1661 29.7441ZM23.9325 31.9088C23.8496 32 23.8496 32 23.7651 32.0931C23.3794 32.464 22.9256 32.7429 22.4817 33.0391C22.1832 33.2252 22.1832 33.2252 22.0626 33.5176C22.0463 33.7389 22.039 33.961 22.0373 34.183C22.0354 34.3009 22.0335 34.4189 22.0316 34.5404C22.0402 34.9006 22.0402 34.9006 22.3321 35.2695C22.7183 35.3088 23.0753 35.3219 23.4616 35.3176C23.5784 35.3178 23.6953 35.3181 23.8156 35.3184C24.2029 35.3188 24.5901 35.3163 24.9775 35.3138C25.2457 35.3133 25.5139 35.3131 25.7821 35.313C26.3446 35.3124 26.907 35.3104 27.4695 35.3074C28.1922 35.3036 28.9149 35.3022 29.6377 35.3016C30.1915 35.301 30.7454 35.2997 31.2993 35.2981C31.5659 35.2973 31.8324 35.2967 32.099 35.2961C32.4708 35.2952 32.8425 35.2934 33.2142 35.2913C33.3255 35.2911 33.4367 35.291 33.5514 35.2908C34.0468 35.334 34.0468 35.334 34.4611 35.1348C34.5975 34.3239 34.677 33.5674 34.2015 32.8643C33.7976 32.5154 33.4907 32.3249 32.9786 32.1699C32.4542 32.2318 31.9861 32.38 31.4894 32.549C29.4293 33.2266 27.0738 32.3825 25.1133 31.7298C24.5996 31.5868 24.3294 31.5236 23.9325 31.9088Z" fill="#CC8328"/>
<path d="M27.9754 44.2735C28.2149 44.271 28.2149 44.271 28.4592 44.2685C28.6133 44.2683 28.7673 44.268 28.9261 44.2677C29.0668 44.2672 29.2075 44.2666 29.3525 44.266C29.7654 44.3006 30.0513 44.3767 30.418 44.5683C30.7523 45.0697 30.75 45.3227 30.6875 45.916C30.3885 46.3078 30.2132 46.4334 29.7442 46.5898C29.1663 46.6215 28.5877 46.6148 28.0091 46.6151C27.7696 46.6175 27.7696 46.6175 27.5253 46.6201C27.3712 46.6203 27.2171 46.6206 27.0583 46.6209C26.8473 46.6217 26.8473 46.6217 26.632 46.6225C26.219 46.588 25.9332 46.5118 25.5664 46.3203C25.2322 45.8189 25.2345 45.5659 25.2969 44.9726C25.977 44.0815 26.9556 44.2741 27.9754 44.2735Z" fill="#CC8328"/>
<path d="M26.8972 49.0609C27.0744 49.06 27.2516 49.0591 27.4341 49.0582C27.5716 49.0603 27.5716 49.0603 27.7118 49.0625C27.9915 49.0661 28.2705 49.0625 28.5502 49.0582C28.8159 49.0595 28.8159 49.0595 29.0871 49.0609C29.2487 49.0616 29.4102 49.0624 29.5767 49.0632C30.1351 49.1746 30.3372 49.384 30.6875 49.8242C30.7824 50.3306 30.7385 50.5474 30.4742 50.9894C30.0346 51.4174 29.7781 51.3935 29.1713 51.3961C29.0777 51.3967 28.984 51.3974 28.8875 51.398C28.6899 51.3985 28.4924 51.3973 28.2948 51.3945C27.993 51.3908 27.6918 51.3944 27.3899 51.3987C27.1976 51.3983 27.0053 51.3974 26.8129 51.3961C26.6385 51.3953 26.4641 51.3946 26.2844 51.3938C25.8359 51.3066 25.8359 51.3066 25.51 50.9894C25.2458 50.5474 25.2019 50.3306 25.2968 49.8242C25.7921 49.2018 26.1092 49.0646 26.8972 49.0609Z" fill="#CC8328"/>
<path d="M26.7788 53.9124C26.8692 53.9118 26.9596 53.9111 27.0527 53.9105C27.2433 53.91 27.434 53.9112 27.6246 53.9141C27.9152 53.9177 28.2052 53.9141 28.4958 53.9098C28.6815 53.9102 28.8673 53.9111 29.053 53.9124C29.2211 53.9132 29.3891 53.9139 29.5623 53.9147C30.1315 54.0247 30.3322 54.2266 30.6876 54.6757C30.7718 55.08 30.7718 55.08 30.6876 55.4843C30.337 55.9241 30.1352 56.1339 29.5768 56.2454C29.4153 56.2461 29.2537 56.2469 29.0872 56.2477C28.91 56.2485 28.7328 56.2494 28.5503 56.2503C28.4586 56.2489 28.367 56.2475 28.2726 56.246C27.9929 56.2424 27.7139 56.246 27.4342 56.2503C27.1685 56.249 27.1685 56.249 26.8973 56.2477C26.655 56.2465 26.655 56.2465 26.4077 56.2454C25.8493 56.1339 25.6472 55.9245 25.297 55.4843C25.2018 54.9768 25.2454 54.761 25.5123 54.3192C25.9431 53.897 26.1826 53.9151 26.7788 53.9124Z" fill="#CC8328"/>
<path d="M26.8129 58.7819C26.9534 58.7811 26.9534 58.7811 27.0968 58.7803C27.2943 58.78 27.4919 58.781 27.6894 58.7832C27.9912 58.7861 28.2926 58.7832 28.5943 58.7798C28.7867 58.7801 28.979 58.7808 29.1713 58.7819C29.4329 58.7828 29.4329 58.7828 29.6998 58.7837C30.1484 58.8535 30.1484 58.8535 30.4748 59.098C30.7858 59.5287 30.7614 59.8182 30.6874 60.3359C30.3884 60.7277 30.2131 60.8534 29.7441 61.0097C29.1691 61.0449 28.5933 61.0409 28.0174 61.0434C27.8589 61.0462 27.7003 61.049 27.537 61.0518C26.0617 61.0585 26.0617 61.0585 25.4316 60.6054C25.2232 60.1888 25.2572 59.8515 25.2968 59.3925C25.7242 58.7941 26.1033 58.7844 26.8129 58.7819Z" fill="#CC8328"/>
</svg>
