<svg width="80" height="80" viewBox="0 0 80 80" fill="none" xmlns="http://www.w3.org/2000/svg">
<path d="M42.1252 0.922732C42.2735 0.921781 42.4219 0.920831 42.5747 0.919851C43.0696 0.91743 43.5643 0.919343 44.0591 0.921263C44.4148 0.920437 44.7704 0.919352 45.1261 0.918027C46.0905 0.915251 47.0549 0.916325 48.0193 0.918258C48.9265 0.919645 49.8337 0.918586 50.741 0.917693C52.6471 0.915957 54.5532 0.917951 56.4593 0.921228C58.0938 0.923951 59.7282 0.923477 61.3626 0.920668C63.2624 0.917405 65.1621 0.916124 67.0618 0.917994C68.0668 0.918944 69.0718 0.919071 70.0768 0.917058C71.0216 0.915297 71.9662 0.916519 72.9109 0.92004C73.2576 0.920846 73.6043 0.920615 73.951 0.919271C74.4242 0.917605 74.8973 0.919694 75.3706 0.922732C75.5078 0.921373 75.6449 0.920013 75.7862 0.918613C76.7877 0.931078 77.4324 1.16108 78.1936 1.84217C79.4579 3.45491 79.0078 5.46742 78.8458 7.39168C78.829 7.59852 78.8123 7.80536 78.7956 8.01221C78.75 8.57487 78.7034 9.13745 78.6567 9.70001C78.6062 10.3089 78.5567 10.9179 78.5071 11.5269C78.4099 12.7174 78.3119 13.9079 78.2135 15.0984C78.1336 16.066 78.0539 17.0337 77.9745 18.0015C77.9632 18.1395 77.9519 18.2775 77.9402 18.4197C77.9172 18.7001 77.8942 18.9805 77.8711 19.261C77.6556 21.8864 77.4391 24.5118 77.2223 27.1371C77.0363 29.3883 76.8514 31.6396 76.667 33.8909C76.4527 36.5083 76.2378 39.1256 76.0219 41.7428C75.9989 42.022 75.9759 42.3011 75.9529 42.5803C75.9359 42.7863 75.9359 42.7863 75.9185 42.9965C75.8389 43.963 75.7597 44.9295 75.6806 45.896C75.5843 47.0739 75.4873 48.2518 75.3895 49.4296C75.3396 50.0301 75.29 50.6307 75.2412 51.2313C75.1966 51.7817 75.151 52.3319 75.1048 52.8821C75.0804 53.1743 75.057 53.4666 75.0337 53.7589C74.8109 56.378 74.8109 56.378 74.0964 57.4149C73.7459 57.8874 73.7459 57.8874 73.7024 58.4432C73.7778 58.632 73.8552 58.8199 73.9351 59.0068C74.2532 59.7643 74.3114 60.4774 74.3028 61.2912C74.3021 61.4046 74.3014 61.518 74.3007 61.6348C74.2863 62.868 74.1926 64.0924 74.0881 65.3207C74.0682 65.562 74.0485 65.8032 74.0288 66.0445C73.9877 66.545 73.9459 67.0454 73.9035 67.5457C73.8497 68.1819 73.7975 68.8181 73.7458 69.4544C73.7053 69.9508 73.6641 70.447 73.6226 70.9433C73.6031 71.1778 73.5838 71.4122 73.5647 71.6467C73.1691 76.4813 73.1691 76.4813 71.3477 78.1182C70.0338 78.9669 68.8192 79.0888 67.2793 79.079C67.0696 79.0798 66.86 79.0809 66.6504 79.0822C66.0854 79.085 65.5204 79.0839 64.9554 79.082C64.3618 79.0804 63.7681 79.0819 63.1745 79.0828C62.178 79.0839 61.1817 79.0825 60.1852 79.0796C59.036 79.0762 57.8868 79.0773 56.7376 79.0807C55.7477 79.0835 54.7578 79.0838 53.7678 79.0822C53.178 79.0813 52.5882 79.0812 51.9983 79.0832C51.4437 79.0849 50.8892 79.0837 50.3346 79.0802C50.0359 79.079 49.7373 79.0808 49.4387 79.0827C47.8116 79.0672 46.5192 78.6174 45.332 77.4767C45.0424 77.0873 44.7967 76.6868 44.5703 76.2579C44.5386 76.3573 44.507 76.4567 44.4745 76.5591C44.0888 77.6531 43.6202 78.2768 42.6155 78.8563C42.2487 79.016 42.0001 79.0386 41.6016 79.0393C41.4647 79.0403 41.3278 79.0413 41.1867 79.0423C41.0368 79.0418 40.887 79.0413 40.7326 79.0409C40.573 79.0416 40.4133 79.0422 40.2488 79.0429C39.7122 79.0449 39.1755 79.0446 38.6388 79.0444C38.2547 79.0453 37.8706 79.0463 37.4865 79.0475C36.5504 79.0499 35.6143 79.0508 34.6782 79.051C33.9172 79.0512 33.1563 79.0518 32.3953 79.0528C30.2377 79.0554 28.0801 79.0568 25.9225 79.0566C25.8062 79.0566 25.6899 79.0566 25.57 79.0566C25.3953 79.0566 25.3953 79.0566 25.2171 79.0565C23.3298 79.0564 21.4426 79.0593 19.5553 79.0636C17.6174 79.068 15.6795 79.0701 13.7416 79.0698C12.6536 79.0697 11.5657 79.0706 10.4777 79.0739C9.45451 79.0769 8.43133 79.0768 7.4081 79.0746C7.03243 79.0743 6.65677 79.075 6.28111 79.0769C5.76845 79.0792 5.25593 79.0778 4.74327 79.0755C4.59446 79.077 4.44564 79.0786 4.29231 79.0802C3.25162 79.0696 2.59804 78.8665 1.8063 78.1581C1.21678 77.4061 0.962263 76.8174 0.960233 75.8624C0.959153 75.6926 0.958072 75.5228 0.95696 75.3479C0.957337 75.1631 0.957719 74.9783 0.958108 74.7879C0.957329 74.5921 0.956548 74.3963 0.955746 74.1946C0.953709 73.6585 0.953617 73.1225 0.954003 72.5864C0.954166 72.1382 0.953421 71.69 0.952692 71.2418C0.951002 70.1838 0.950933 69.1257 0.951855 68.0677C0.952774 66.9781 0.950903 65.8886 0.947657 64.799C0.944968 63.862 0.944061 62.925 0.944556 61.988C0.944831 61.4291 0.944438 60.8701 0.942315 60.3112C0.940034 59.6873 0.941465 59.0634 0.943231 58.4395C0.942066 58.2556 0.940897 58.0717 0.939697 57.8823C0.947297 56.6657 1.02975 55.7347 1.84736 54.7775C2.2187 54.4728 2.2187 54.4728 2.52339 54.4728C2.5198 54.2954 2.5198 54.2954 2.51614 54.1145C2.50658 53.5738 2.50067 53.0331 2.49482 52.4923C2.49099 52.3063 2.48716 52.1204 2.48321 51.9288C2.47286 50.6517 2.51177 49.6894 3.3708 48.6837C3.74214 48.379 3.74214 48.379 4.04682 48.379C4.05998 48.2423 4.07314 48.1057 4.08669 47.9648C4.42091 44.9967 5.40897 42.276 7.39839 40.0001C7.51857 39.8564 7.63876 39.7126 7.76258 39.5645C9.7255 37.2713 12.172 36.0534 14.9486 34.981C16.6911 34.3073 18.4054 33.5755 19.7382 32.2306C19.8388 32.2306 19.9393 32.2306 20.0429 32.2306C20.1065 32.0986 20.1065 32.0986 20.1715 31.964C20.3476 31.6212 20.3476 31.6212 20.5333 31.326C21.0459 30.5009 21.2057 29.7877 21.3337 28.8308C21.4361 28.3097 21.6316 28.0154 22.0234 27.6603C22.516 27.414 23.0128 27.4408 23.5468 27.5079C23.9874 27.6609 24.3744 27.8804 24.7751 28.1173C24.8906 28.1836 25.0061 28.2498 25.125 28.3181C27.3494 29.6256 29.5341 31.1288 31.4687 32.84C31.5952 32.9517 31.7216 33.0634 31.8519 33.1786C32.1082 33.4077 32.3634 33.6382 32.6172 33.8701C32.8648 34.0952 33.1147 34.3179 33.367 34.5378C36.5723 37.3436 40.1688 41.575 40.5135 45.9897C40.5235 46.1058 40.5334 46.2219 40.5437 46.3415C40.5617 46.5716 40.575 46.8022 40.583 47.0328C40.6 47.4007 40.6 47.4007 40.7617 47.922C41.0078 48.1203 41.0078 48.1203 41.3045 48.2621C41.4773 48.351 41.6501 48.4398 41.8281 48.5314C41.7326 46.0964 41.5532 43.6732 41.3484 41.2452C41.315 40.845 41.2817 40.4448 41.2485 40.0445C41.1774 39.1894 41.106 38.3343 41.0343 37.4793C40.9209 36.1265 40.8086 34.7736 40.6965 33.4207C40.6579 32.9559 40.6194 32.4912 40.5809 32.0264C40.5712 31.9104 40.5616 31.7943 40.5517 31.6747C40.4426 30.3601 40.3333 29.0455 40.2239 27.7308C40.214 27.6109 40.204 27.491 40.1937 27.3675C40.0315 25.4191 39.8687 23.4708 39.7058 21.5225C39.5379 19.5155 39.3712 17.5085 39.2053 15.5014C39.1032 14.2666 39.0003 13.0318 38.8962 11.7972C38.8166 10.8522 38.7384 9.90712 38.6608 8.96198C38.6288 8.57516 38.5963 8.18839 38.5633 7.80166C38.5183 7.2731 38.475 6.74442 38.4321 6.21569C38.4187 6.06345 38.4053 5.9112 38.3915 5.75435C38.1915 3.21326 38.1915 3.21326 38.8669 2.23791C38.9362 2.13147 39.0055 2.02503 39.077 1.91537C39.9619 1.05222 40.9327 0.910882 42.1252 0.922732ZM41.5234 4.04699C41.2991 6.38727 41.2991 6.38727 41.9804 8.31261C42.1945 8.32735 42.4094 8.3316 42.624 8.33159C42.8323 8.33218 42.8323 8.33218 43.0447 8.33277C43.275 8.33229 43.275 8.33229 43.51 8.33181C43.6707 8.33209 43.8315 8.33237 43.9971 8.33267C44.3476 8.33328 44.698 8.33359 45.0485 8.33365C45.7926 8.33417 46.5367 8.33742 47.2809 8.34054C48.668 8.34635 50.0551 8.3511 51.4422 8.35077C52.4055 8.35065 53.3687 8.35421 54.3319 8.3602C54.6995 8.3618 55.0671 8.36202 55.4347 8.36086C55.9491 8.3594 56.4632 8.36262 56.9775 8.36692C57.1298 8.36536 57.2821 8.36381 57.439 8.36221C58.1556 8.37296 58.4791 8.38235 59.0609 8.83231C59.3374 9.21262 59.4521 9.37499 59.4428 9.83605C59.4458 9.98216 59.4458 9.98216 59.4488 10.1312C59.2794 10.6574 59.0223 10.869 58.5859 11.2071C58.0544 11.3213 57.5311 11.3123 56.9891 11.3076C56.7482 11.31 56.7482 11.31 56.5024 11.3124C55.9724 11.3168 55.4425 11.3159 54.9124 11.3149C54.5446 11.3169 54.1768 11.3192 53.809 11.3218C52.8415 11.3279 51.8741 11.3295 50.9065 11.3301C49.9191 11.3315 48.9316 11.3372 47.9441 11.3425C46.007 11.3524 44.0699 11.3576 42.1328 11.3595C42.7314 19.1849 43.3701 27.007 44.0138 34.8288C44.187 36.9338 44.3596 39.0388 44.5313 41.1439C44.6539 42.647 44.7773 44.1501 44.9012 45.6531C44.9746 46.543 45.0476 47.433 45.1199 48.3229C45.1872 49.152 45.2554 49.9811 45.3244 50.81C45.3494 51.1128 45.3741 51.4156 45.3984 51.7185C45.4317 52.1325 45.4663 52.5464 45.501 52.9603C45.5103 53.0789 45.5196 53.1975 45.5291 53.3197C45.6175 54.8155 45.6175 54.8155 46.3032 56.0724C46.9568 56.4459 47.498 56.4726 48.2461 56.4746C48.5334 56.4759 48.5334 56.4759 48.8266 56.4773C49.0385 56.4775 49.2505 56.4776 49.4624 56.4778C49.6859 56.4785 49.9094 56.4793 50.1329 56.4801C50.7398 56.4821 51.3466 56.4831 51.9535 56.4837C52.3328 56.4842 52.7122 56.4848 53.0915 56.4855C54.2788 56.4876 55.4662 56.489 56.6535 56.4896C58.0232 56.4903 59.3928 56.493 60.7625 56.4974C61.8219 56.5007 62.8813 56.5022 63.9406 56.5024C64.5731 56.5026 65.2055 56.5035 65.8379 56.5062C66.433 56.5087 67.028 56.5091 67.6231 56.5077C67.841 56.5076 68.059 56.5083 68.2769 56.5098C69.8333 56.563 69.8333 56.563 71.2304 55.9962C71.7821 55.0251 71.8138 54.0145 71.8986 52.9175C71.9158 52.7119 71.9331 52.5062 71.9506 52.3006C71.9982 51.7372 72.0434 51.1736 72.0882 50.61C72.1371 50.0016 72.188 49.3933 72.2387 48.785C72.3376 47.594 72.4345 46.4028 72.5309 45.2116C72.6431 43.8243 72.7574 42.4371 72.8717 41.0499C73.0757 38.5747 73.278 36.0994 73.4793 33.6241C73.6746 31.2223 73.8709 28.8207 74.0685 26.4191C74.0806 26.2712 74.0928 26.1233 74.1053 25.9709C74.1542 25.3763 74.2031 24.7817 74.252 24.1872C74.4517 21.7599 74.6505 19.3326 74.8492 16.9052C74.8945 16.3521 74.9398 15.7989 74.9852 15.2458C75.1044 13.792 75.2233 12.3381 75.3414 10.8842C75.3903 10.283 75.4393 9.68187 75.4886 9.08073C75.5338 8.53029 75.5786 7.97982 75.623 7.42932C75.6468 7.13616 75.671 6.84304 75.6952 6.54993C75.7093 6.37493 75.7233 6.19993 75.7378 6.01964C75.75 5.86929 75.7623 5.71894 75.7749 5.56404C75.8038 5.05911 75.8007 4.55274 75.8007 4.04699C64.4892 4.04699 53.1777 4.04699 41.5234 4.04699ZM24.1562 31.6212C24.0749 31.7575 23.9936 31.8938 23.9098 32.0342C21.8735 35.3725 18.9038 36.9554 15.3566 38.3317C12.1043 39.594 9.67814 41.5811 8.16963 44.771C7.77105 45.7777 7.39839 46.834 7.39839 47.922C17.3023 47.922 27.2061 47.922 37.4101 47.922C37.4101 45.1373 36.4126 42.9168 34.6679 40.7618C34.5668 40.6318 34.4656 40.5018 34.3614 40.3679C33.0431 38.706 31.5968 37.0709 29.9453 35.7345C29.7668 35.5848 29.5885 35.4351 29.4103 35.2852C27.754 33.9038 26.0371 32.6779 24.1562 31.6212ZM5.7226 50.9689C5.7226 51.9743 5.7226 52.9798 5.7226 54.0157C16.9336 54.0157 28.1446 54.0157 39.6953 54.0157C39.6953 53.0103 39.6953 52.0048 39.6953 50.9689C28.4843 50.9689 17.2733 50.9689 5.7226 50.9689ZM4.19917 57.0626C4.19917 58.4703 4.19917 59.8779 4.19917 61.3282C4.94773 61.3292 4.94773 61.3292 5.71141 61.3301C7.35928 61.3328 9.00711 61.3395 10.655 61.3484C11.6542 61.3536 12.6533 61.3574 13.6526 61.358C14.6167 61.3587 15.5807 61.363 16.5448 61.3699C16.9128 61.3719 17.2808 61.3725 17.6488 61.3718C18.1639 61.3711 18.6788 61.3751 19.1938 61.3801C19.4226 61.3782 19.4226 61.3782 19.6561 61.3761C20.373 61.388 20.6978 61.3979 21.2798 61.8481C21.5562 62.2283 21.6709 62.3907 21.6616 62.8517C21.6645 62.9978 21.6645 62.9978 21.6675 63.1468C21.4979 63.6736 21.242 63.8845 20.8046 64.2228C20.2685 64.3371 19.7404 64.3279 19.1938 64.3232C18.9507 64.3256 18.9507 64.3256 18.7027 64.3281C18.1677 64.3325 17.6328 64.3315 17.0978 64.3305C16.7266 64.3325 16.3554 64.3348 15.9842 64.3375C15.0077 64.3435 14.0312 64.3451 13.0547 64.3457C11.8827 64.3474 10.7108 64.3547 9.5389 64.361C7.75897 64.37 5.97916 64.3719 4.19917 64.3751C4.19917 68.1959 4.19917 72.0167 4.19917 75.9532C16.4156 75.9532 28.6321 75.9532 41.2187 75.9532C41.2187 69.7193 41.2187 63.4854 41.2187 57.0626C29.0023 57.0626 16.7858 57.0626 4.19917 57.0626ZM46.4067 60.2945C46.2001 60.8401 46.2174 61.3023 46.2657 61.8722C46.2741 61.9944 46.2825 62.1166 46.2911 62.2425C46.3238 62.6997 46.3611 63.1565 46.3984 63.6134C46.4217 63.9133 46.4451 64.2131 46.4683 64.513C46.5679 65.7912 46.6746 67.0687 46.7837 68.3461C46.8362 68.9618 46.8872 69.5777 46.9378 70.1936C46.9774 70.672 47.018 71.1503 47.059 71.6286C47.0782 71.8559 47.0971 72.0831 47.1156 72.3105C47.1414 72.6264 47.1687 72.9422 47.1964 73.258C47.2115 73.437 47.2266 73.616 47.2421 73.8005C47.3605 74.6033 47.589 75.135 48.2265 75.6486C49.1139 76.0565 50.0217 75.9961 50.9779 75.9927C51.1623 75.9932 51.3467 75.9937 51.5367 75.9943C52.0407 75.9954 52.5445 75.9951 53.0485 75.9942C53.5769 75.9934 54.1053 75.9941 54.6337 75.9946C55.5209 75.9951 56.4081 75.9944 57.2954 75.993C58.3198 75.9913 59.3442 75.9918 60.3686 75.9935C61.2496 75.9949 62.1306 75.9951 63.0115 75.9943C63.5371 75.9938 64.0626 75.9938 64.5882 75.9948C65.1742 75.9958 65.7602 75.9944 66.3462 75.9927C66.5195 75.9933 66.6929 75.9939 66.8715 75.9945C67.8847 75.9891 68.6795 75.9621 69.5166 75.3344C70.3898 74.1942 70.2826 72.407 70.3937 71.0134C70.4137 70.7704 70.4338 70.5274 70.4539 70.2844C70.4957 69.7767 70.5369 69.269 70.5775 68.7613C70.6293 68.1154 70.6826 67.4696 70.7363 66.8238C70.7779 66.3223 70.8188 65.8208 70.8594 65.3192C70.8788 65.0813 70.8983 64.8435 70.9181 64.6056C71.3119 62.1956 71.3119 62.1956 70.7448 60.0048C70.0869 59.4638 69.4736 59.4811 68.6432 59.4787C68.3689 59.4774 68.3689 59.4774 68.0892 59.4761C67.7903 59.4758 67.7903 59.4758 67.4853 59.4756C67.2723 59.4749 67.0592 59.4741 66.8462 59.4733C66.2686 59.4713 65.6911 59.4703 65.1135 59.4696C64.7523 59.4692 64.3912 59.4685 64.0301 59.4679C62.8993 59.4658 61.7686 59.4643 60.6379 59.4637C59.3341 59.463 58.0303 59.4604 56.7265 59.456C55.7176 59.4527 54.7087 59.4511 53.6998 59.4509C53.0977 59.4508 52.4956 59.4499 51.8935 59.4471C51.327 59.4446 50.7606 59.4443 50.1941 59.4456C49.8882 59.4458 49.5822 59.4437 49.2762 59.4416C47.6792 59.4292 47.6792 59.4292 46.4067 60.2945Z" fill="#CC8328"/>
<path d="M66.6602 22.0234C68.6106 23.8897 69.9463 26.6493 70.063 29.3609C70.1203 32.7902 69.2131 35.7959 66.8126 38.3242C64.7452 40.4514 61.9722 41.5049 59.043 41.6757C55.7971 41.7028 52.8482 40.5817 50.5118 38.3242C48.2848 35.8993 47.1908 32.9427 47.2745 29.6596C47.41 26.7805 48.6284 23.9614 50.7354 21.9637C55.3478 17.9478 62.0778 17.7323 66.6602 22.0234ZM52.378 25.0227C50.9767 26.6372 50.4286 28.5924 50.4743 30.6963C50.6681 33.1144 51.8125 35.0353 53.5587 36.6484C55.2898 38.0209 57.3126 38.6 59.5102 38.4432C61.1865 38.2159 62.6275 37.5812 63.918 36.496C64.0422 36.4026 64.1663 36.3091 64.2941 36.2128C65.7091 35.0162 66.6532 33.1364 66.8466 31.2979C66.9773 28.8175 66.425 26.8 64.8797 24.8227C63.3444 23.1318 61.288 22.2417 59.043 22.0234C56.3243 21.9299 54.2227 23.1256 52.378 25.0227Z" fill="#CC8328"/>
</svg>
