<svg viewBox="0 0 63 63" xmlns="http://www.w3.org/2000/svg" fill="#FFF">
	<path
		d="M62.6499 28.3107C63.6703 22.8889 62.4391 17.0665 59.183 11.9165C55.9085 6.73756 51.0007 2.9317 45.3618 1.19863C38.903 -0.844989 32.0514 -0.261432 26.0685 2.84238C20.0835 5.9473 15.6596 11.2154 13.6119 17.6759C11.4725 24.3044 12.2786 31.7242 15.6652 37.6996C16.8921 39.8875 17.1036 42.4762 16.2455 44.8024L9.53357 62.9989L40.0041 63.0001L40.9868 57.7693L45.8798 59.32C48.7351 60.2154 51.8174 58.6276 52.7267 55.7689L54.9056 48.8946L62.7184 48.6082L61.1848 32.9778C61.2174 32.8263 62.6499 28.3107 62.6499 28.3107ZM59.0423 27.5212L57.4375 32.5843L58.6618 45.0634L52.1723 45.3014L49.2082 54.6537C48.9145 55.5802 47.9216 56.0949 46.995 55.8016L38.129 52.9913L36.942 59.309L14.8291 59.3081L19.7085 46.0798C20.9412 42.7386 20.6407 39.0261 18.8845 35.8943C15.9495 30.7229 15.3314 24.3635 17.1305 18.7912C18.8804 13.2702 22.6584 8.76985 27.7683 6.11881C32.8783 3.46765 38.7333 2.97083 44.2544 4.71965L44.2701 4.72458C49.0701 6.19792 53.2582 9.45258 56.0633 13.889C58.7572 18.1498 59.8401 23.1116 59.0423 27.5212Z"
	/>
	<path
		d="M31.2572 18.867C28.0073 17.8367 24.5249 19.6429 23.4949 22.8929L22.121 27.2273C20.9848 30.7514 22.1973 34.8338 25.0696 37.1586C27.8984 39.4934 31.9501 37.6106 32.643 34.9087C32.3685 34.8192 29.1373 33.7653 29.148 33.7688C28.6983 34.6153 28.0716 34.7099 27.3954 34.2926C25.679 32.9062 24.9547 30.4667 25.6368 28.3513L27.0133 24.0082C27.4112 22.6466 29.0141 22 30.1418 22.3856C31.4517 22.8007 32.1796 24.2042 31.7644 25.514L35.283 26.6292C36.313 23.3792 34.5071 19.8971 31.2572 18.867Z"
	/>
	<path
		d="M9.91418 55.1025L10.3753 51.4403L7.25526 51.0474L8.37981 48.3318L0.461623 47.3352L0.000732422 50.9975L3.11857 51.3898L1.99427 54.105L9.91418 55.1025Z"
	/>
	<path
		d="M4.71402 42.6528L11.118 47.4179L13.3215 44.4565L10.7985 42.5794L13.1135 40.7684L6.7104 36.0051L4.50732 38.9666L7.02856 40.8423L4.71402 42.6528Z"
	/>
</svg>