<svg viewBox="0 0 63 63" xmlns="http://www.w3.org/2000/svg" fill="#CC8328">
	<path
		d="M62.2929 19.0801C62.7576 17.9975 63.0002 16.8258 63.0002 15.6408C63.0002 14.4555 62.7576 13.2838 62.2928 12.2012C62.7312 11.1793 62.9727 10.0764 62.9979 8.96151C63.1059 4.18276 59.3099 0.18228 54.5359 0.0436583C52.8234 -0.00279462 51.1574 0.442686 49.7217 1.32468C48.3593 0.489016 46.7855 0.0398487 45.1669 0.0398487C43.5478 0.0398487 41.9741 0.489139 40.6114 1.32492C39.2486 0.489139 37.6747 0.0398487 36.0559 0.0398487C34.4368 0.0398487 32.8631 0.489139 31.5003 1.32492C30.1376 0.489139 28.5637 0.0398487 26.9448 0.0398487C25.3258 0.0398487 23.752 0.489139 22.3893 1.32492C21.0265 0.489139 19.4527 0.0398487 17.8338 0.0398487C16.2151 0.0398487 14.6415 0.489017 13.2791 1.32443C11.8399 0.440597 10.1701 -0.00930786 8.45327 0.0439041C3.65669 0.189285 -0.133645 4.21385 0.00387081 9.01534C0.039878 10.2719 0.344649 11.4958 0.894219 12.6118C0.306798 13.8034 0.000306962 15.1147 0.000306962 16.4623C0.000306962 17.8097 0.306798 19.1209 0.894096 20.3124C0.306798 21.5039 0.000306962 22.8152 0.000306962 24.1626C0.000306962 25.5099 0.306798 26.8212 0.894096 28.0126C0.306798 29.2041 0.000306962 30.5153 0.000306962 31.8627C0.000306962 33.2101 0.306798 34.5213 0.894096 35.7129C0.306798 36.9043 0.000306962 38.2155 0.000306962 39.5629C0.000306962 40.9101 0.306675 42.2211 0.89385 43.4124C0.25334 44.7095 -0.0510616 46.1424 0.00731177 47.6164C0.185258 52.0983 3.83403 55.7703 8.31452 55.9759C8.46248 55.9828 11.8499 55.9837 18.3864 55.9792V58.9571H22.0732V55.9764V55.2359C22.217 55.2957 22.3642 55.3542 22.5155 55.4109C23.6563 55.8377 25.1156 56.1932 26.8115 56.1932C27.1206 56.1932 27.438 56.1803 27.7622 56.1549C27.1285 57.6847 26.7777 59.3605 26.7777 61.1167V62.9601H37.6212V61.1167C37.6212 59.8154 38.6797 58.7568 39.981 58.7568H54.1733C56.523 58.7568 58.823 57.792 60.4836 56.11C62.1358 54.4363 63.0293 52.2384 62.9996 49.9211C62.9848 48.776 62.7426 47.6434 62.2929 46.5954C62.7577 45.5127 63.0003 44.3409 63.0003 43.1559C63.0003 41.9709 62.7577 40.7991 62.2931 39.7165C62.7577 38.6337 63.0003 37.4622 63.0003 36.2772C63.0003 35.0921 62.7577 33.9205 62.2931 32.8378C62.7577 31.755 63.0003 30.5835 63.0003 29.3985C63.0003 28.2134 62.7577 27.0417 62.2931 25.9591C62.7577 24.8763 63.0003 23.7048 63.0003 22.5197C63.0003 21.3347 62.7577 20.1628 62.2929 19.0801ZM21.1393 50.4174C20.9114 49.99 20.6451 49.582 20.3398 49.2015C19.5618 48.2313 18.5619 47.4605 17.4391 46.9509C17.3955 45.7134 17.0928 44.5124 16.5507 43.4131C17.1381 42.2217 17.4445 40.9106 17.4445 39.5631C17.4445 38.2155 17.1381 36.9044 16.5507 35.713C17.1381 34.5214 17.4445 33.2103 17.4445 31.8628C17.4445 31.181 17.3657 30.5085 17.2121 29.8561H19.2553C19.3292 30.8744 19.6257 32.0635 20.4374 33.118C21.2227 34.1383 22.3211 34.8262 23.7135 35.1805C22.6424 37.4627 21.7588 41.0774 22.9311 46.0527L26.5196 45.2071C25.1995 39.605 27.0642 36.402 27.8868 35.3217C28.3459 35.2488 28.7963 35.1488 29.2373 35.0263C29.8435 36.2794 30.8561 38.0134 32.3789 39.5847C31.5122 40.9809 31.1264 42.6287 31.3065 44.3173C31.524 46.3582 32.5351 48.168 34.1195 49.4105C33.026 49.9417 32.0181 50.6219 31.1213 51.4242C25.8805 54.0322 22.0314 51.1828 21.1393 50.4174ZM22.378 22.8363C22.628 22.8363 22.8842 22.8237 23.1458 22.7975L22.7781 19.1292C21.2324 19.2827 19.9694 18.4191 19.0383 17.4007C20.2272 17.2351 21.3675 16.8257 22.3891 16.1991C23.7519 17.0349 25.3258 17.4842 26.9447 17.4842C27.8601 17.4842 28.7612 17.3402 29.6177 17.0642C29.2374 22.1453 24.9764 26.1693 19.8045 26.1693H17.2122C17.3658 25.5168 17.4446 24.8444 17.4446 24.1626C17.4446 22.8151 17.1382 21.5039 16.5508 20.3124C16.5704 20.2727 16.5879 20.2321 16.607 20.1922C17.9957 21.6115 19.9088 22.8363 22.378 22.8363ZM46.2632 46.5956C46.0536 47.0846 45.889 47.5919 45.7718 48.1106H39.7838C39.5352 48.1106 39.2883 48.1184 39.0431 48.1323L36.8066 46.7943C35.7693 46.1737 35.1008 45.1283 34.9727 43.9264C34.8967 43.2129 35.0198 42.5139 35.316 41.8904C35.7317 42.1285 36.1694 42.3467 36.6302 42.54C38.0971 43.1554 39.6478 43.4625 41.2758 43.4625C42.652 43.4625 44.0833 43.2425 45.565 42.8038C45.5602 42.9212 45.556 43.0384 45.556 43.1562C45.5559 44.3412 45.7985 45.5128 46.2632 46.5956ZM42.4192 24.1413C43.7007 23.0109 44.8137 21.8292 45.7421 20.7322C45.6193 21.3179 45.5559 21.917 45.5559 22.5195C45.5559 23.7047 45.7985 24.8762 46.2631 25.9589C45.7985 27.0415 45.5559 28.2132 45.5559 29.3982C45.5559 29.7521 45.5802 30.1045 45.6229 30.454C44.9205 31.1932 43.3014 32.5154 40.7062 32.5154V36.2021C42.7309 36.2021 44.3722 35.6755 45.6519 34.9942C45.5888 35.4177 45.5559 35.8463 45.5559 36.2769C45.5559 37.1267 45.6827 37.9689 45.9246 38.7769C42.9603 39.9578 40.3265 40.0845 38.0783 39.1492C35.205 37.9538 33.4769 35.2595 32.6394 33.5824C36.4998 31.3812 39.0634 28.0052 39.2206 27.7953L36.2703 25.5843C36.2238 25.6462 31.5448 31.7747 26.1446 31.7747C25.1975 31.7747 23.9467 31.6194 23.3674 30.8796C23.0634 30.4915 22.951 29.9686 22.9278 29.4901C28.6576 28.1278 32.9971 23.105 33.316 17.0415C34.1926 17.3318 35.1164 17.484 36.0558 17.484C37.6747 17.484 39.2485 17.0347 40.6112 16.199C41.565 16.7839 42.6223 17.1788 43.726 17.3635C42.7677 18.5904 41.5032 20.0332 39.9804 21.3762L42.4192 24.1413ZM58.6388 20.0034C59.0802 20.7661 59.3134 21.6362 59.3134 22.5196C59.3134 23.4031 59.0802 24.2732 58.6388 25.0358L58.1046 25.9591L58.6388 26.8824C59.0802 27.6451 59.3134 28.5151 59.3134 29.3986C59.3134 30.2821 59.0802 31.1521 58.6388 31.9148L58.1046 32.8381L58.6388 33.7614C59.0802 34.524 59.3134 35.3941 59.3134 36.2776C59.3134 37.161 59.0802 38.0311 58.6388 38.7938L58.1046 39.717L58.6388 40.6403C59.0802 41.403 59.3134 42.2731 59.3134 43.1565C59.3134 44.04 59.0802 44.9101 58.6388 45.6727L58.1046 46.596L58.6388 47.5193C59.0688 48.2624 59.3019 49.1095 59.313 49.9694C59.33 51.293 58.8139 52.5543 57.8599 53.5207C56.8731 54.5204 55.5638 55.0708 54.1733 55.0708H39.981C37.2894 55.0708 35.0028 56.8385 34.2217 59.2741H30.6476C31.5052 55.015 35.2759 51.798 39.7839 51.798H49.2228L49.244 49.976C49.2539 49.1128 49.4869 48.2633 49.9173 47.5194L50.4518 46.596L49.9173 45.6727C49.476 44.9101 49.2428 44.04 49.2428 43.1565C49.2428 42.2731 49.476 41.403 49.9173 40.6403L50.4516 39.717L49.9173 38.7938C49.476 38.0311 49.2428 37.161 49.2428 36.2776C49.2428 35.3941 49.476 34.524 49.9173 33.7614L50.4516 32.8381L49.9173 31.9148C49.476 31.1521 49.2428 30.2821 49.2428 29.3986C49.2428 28.5151 49.476 27.6451 49.9173 26.8824L50.4516 25.9591L49.9173 25.0358C49.476 24.2732 49.2428 23.4031 49.2428 22.5196C49.2428 21.6362 49.476 20.7661 49.9173 20.0034L50.4516 19.0801L49.9173 18.1569C49.476 17.3942 49.2428 16.5241 49.2428 15.6407C49.2428 15.5545 49.2453 15.4634 49.2506 15.3623L49.3956 12.6297L46.8088 13.5221C46.2793 13.7046 45.727 13.7973 45.1671 13.7973C43.9381 13.7973 42.754 13.3485 41.833 12.5335L40.6115 11.4525L39.3899 12.5335C38.469 13.3485 37.2849 13.7973 36.056 13.7973C34.8271 13.7973 33.6429 13.3485 32.722 12.5335L31.5004 11.4525L30.2789 12.5335C29.3579 13.3485 28.1739 13.7973 26.945 13.7973C25.7161 13.7973 24.5319 13.3485 23.6109 12.5335L22.3894 11.4525L21.1679 12.5335C20.2469 13.3485 19.0628 13.7973 17.8339 13.7973C17.2442 13.7973 16.6668 13.6964 16.1178 13.4973L13.1047 12.4047L13.6754 15.5584C13.7303 15.8619 13.7582 16.1659 13.7582 16.4622C13.7582 17.4726 13.4605 18.4466 12.8971 19.2792L12.1981 20.3123L12.8971 21.3453C13.4605 22.1777 13.7582 23.1519 13.7582 24.1624C13.7582 25.1728 13.4605 26.1469 12.8971 26.9795L12.1981 28.0125L12.8971 29.0455C13.4605 29.878 13.7582 30.8521 13.7582 31.8626C13.7582 32.8731 13.4605 33.8471 12.8971 34.6797L12.1981 35.7127L12.8971 36.7458C13.4605 37.5782 13.7582 38.5524 13.7582 39.5628C13.7582 40.5732 13.4605 41.5473 12.8971 42.3798L12.1981 43.4129L12.8971 44.4459C13.4605 45.2784 13.7582 46.2525 13.7582 47.2631C13.7582 47.4953 13.7404 47.7373 13.7056 47.9823L13.466 49.6636L15.1221 50.0399C16.4036 50.3312 17.4274 51.1765 17.9675 52.2926C13.7593 52.2955 8.88695 52.2967 8.46052 52.2919C5.88668 52.1619 3.79384 50.0483 3.69147 47.4701C3.64834 46.384 3.94475 45.3382 4.54852 44.4459L5.2474 43.413L4.54852 42.3801C3.98518 41.5475 3.68742 40.5733 3.68742 39.5629C3.68742 38.5525 3.98518 37.5785 4.54852 36.7458L5.2474 35.7129L4.54852 34.68C3.98518 33.8474 3.68742 32.8732 3.68742 31.8627C3.68742 30.8523 3.98518 29.8782 4.54852 29.0455L5.2474 28.0126L4.54852 26.9797C3.98518 26.1471 3.68742 25.173 3.68742 24.1626C3.68742 23.152 3.98518 22.178 4.54852 21.3453L5.2474 20.3124L4.54852 19.2795C3.98518 18.4469 3.68742 17.4727 3.68742 16.4623C3.68742 15.4518 3.98518 14.4777 4.54852 13.645L5.24752 12.6121L4.54852 11.5791C4.01406 10.7892 3.71703 9.86624 3.68975 8.9099C3.60975 6.13698 5.79697 3.81286 8.56497 3.72892C9.85226 3.68948 11.0928 4.13766 12.0563 4.9904L13.2779 6.07136L14.4994 4.9904C15.4203 4.17539 16.6045 3.72659 17.8334 3.72659C19.0624 3.72659 20.2464 4.17539 21.1674 4.9904L22.3889 6.07136L23.6104 4.9904C24.5314 4.17539 25.7156 3.72659 26.9445 3.72659C28.1734 3.72659 29.3575 4.17539 30.2784 4.9904L31.4999 6.07136L32.7215 4.9904C33.6424 4.17539 34.8266 3.72659 36.0555 3.72659C37.2844 3.72659 38.4685 4.17539 39.3894 4.9904L40.611 6.07136L41.8325 4.9904C42.7535 4.17539 43.9377 3.72659 45.1666 3.72659C46.3955 3.72659 47.5795 4.17539 48.5005 4.9904L49.722 6.07136L50.9436 4.9904C51.9052 4.1395 53.1455 3.69169 54.4284 3.7288C57.1834 3.80868 59.374 6.11867 59.3116 8.87807C59.2926 9.71975 59.0597 10.5498 58.6383 11.2781L58.1041 12.2014L58.6383 13.1246C59.0797 13.8872 59.313 14.7573 59.313 15.6408C59.313 16.5241 59.0797 17.3943 58.6383 18.157L58.1041 19.0803L58.6388 20.0034Z"
	/>
</svg>