<svg width="38" height="70" viewBox="0 0 38 70" fill="none" xmlns="http://www.w3.org/2000/svg">
<path d="M3.38019 0.934095C3.52628 0.933902 3.67237 0.933709 3.82289 0.933509C4.13075 0.933729 4.4386 0.93526 4.74645 0.938018C5.21861 0.941875 5.69057 0.940752 6.16274 0.939024C6.46203 0.939852 6.76132 0.940966 7.06061 0.942396C7.2021 0.942006 7.34359 0.941616 7.48938 0.941214C7.62043 0.942899 7.75148 0.944584 7.8865 0.946319C8.00182 0.947037 8.11714 0.947754 8.23595 0.948494C8.59432 1.01098 8.70719 1.10666 8.92382 1.39842C9.07078 1.88849 9.09883 2.10364 8.87475 2.56883C8.6621 2.85936 8.6621 2.85936 8.53124 2.99217C8.34644 3.0045 8.16103 3.00777 7.97583 3.00725C7.85629 3.00723 7.73675 3.00722 7.61358 3.0072C7.48711 3.00652 7.36063 3.00584 7.23032 3.00514C7.11469 3.00501 6.99906 3.00487 6.87993 3.00473C6.44619 3.00404 6.01246 3.00218 5.57873 3.00047C4.6098 2.99773 3.64087 2.99499 2.64257 2.99217C2.64257 6.32311 2.64257 9.65405 2.64257 13.0859C13.4385 13.0859 24.2344 13.0859 35.3574 13.0859C35.3574 9.75498 35.3574 6.42405 35.3574 2.99217C34.2972 2.99634 34.2972 2.99634 33.2155 3.0006C30.8844 3.00939 28.5534 3.01529 26.2223 3.0197C24.8084 3.02244 23.3946 3.02617 21.9808 3.03225C20.7488 3.03754 19.5167 3.04097 18.2846 3.04215C17.632 3.04285 16.9795 3.04448 16.3269 3.04834C15.713 3.05194 15.0991 3.05306 14.4851 3.05226C14.2595 3.0524 14.034 3.05347 13.8084 3.0555C13.5008 3.05813 13.1934 3.05751 12.8858 3.05606C12.7135 3.05655 12.5413 3.05703 12.3638 3.05754C11.9336 2.99217 11.9336 2.99217 11.6164 2.7516C11.3149 2.32676 11.3383 2.04148 11.4101 1.53123C11.6149 1.24077 11.6149 1.24077 11.9336 0.999983C12.2775 0.947765 12.5667 0.928103 12.9103 0.932522C13.0584 0.931279 13.0584 0.931279 13.2096 0.930011C13.5407 0.927891 13.8717 0.929571 14.2029 0.931242C14.4402 0.930522 14.6775 0.929576 14.9148 0.928421C15.5596 0.925996 16.2045 0.926939 16.8493 0.928622C17.524 0.929966 18.1986 0.92872 18.8732 0.927886C20.0066 0.926919 21.1398 0.928194 22.2731 0.930723C23.5832 0.933612 24.8932 0.932679 26.2033 0.929753C27.3278 0.927341 28.4524 0.927002 29.577 0.928392C30.2487 0.92922 30.9204 0.929331 31.5922 0.927576C32.2239 0.92604 32.8557 0.927107 33.4875 0.930176C33.7193 0.930878 33.9511 0.930677 34.1828 0.929505C34.4995 0.928051 34.816 0.929876 35.1326 0.932522C35.2242 0.931337 35.3157 0.930152 35.41 0.928931C36.0633 0.939507 36.4319 1.10519 36.9277 1.53123C37.3947 2.10397 37.5196 2.50771 37.5404 3.24502C37.5435 3.33559 37.5465 3.42616 37.5497 3.51948C37.5589 3.82738 37.5639 4.13517 37.5684 4.44319C37.5706 4.55414 37.5729 4.66509 37.5751 4.7794C37.5929 5.68298 37.5987 6.58642 37.6015 7.49016C37.6024 7.70002 37.6024 7.70002 37.6033 7.91413C37.6379 18.049 36.6219 28.1721 35.81 38.2641C35.6363 40.4234 35.4656 42.5828 35.2974 44.7425C35.2862 44.8861 35.275 45.0297 35.2635 45.1777C35.2185 45.7555 35.1735 46.3332 35.1285 46.911C34.9245 49.5319 34.7185 52.1527 34.5119 54.7735C34.5016 54.9053 34.4912 55.0371 34.4805 55.1729C34.3513 56.8122 34.2213 58.4513 34.0896 60.0904C34.0531 60.545 34.0169 60.9998 33.9811 61.4545C33.9397 61.9784 33.8977 62.5022 33.8551 63.026C33.8399 63.2146 33.8249 63.4033 33.8102 63.5919C33.5377 67.0783 33.5377 67.0783 32.3482 68.1792C31.6931 68.6996 31.0996 69.0308 30.2515 69.0386C30.0609 69.0411 30.0609 69.0411 29.8665 69.0437C29.7309 69.044 29.5952 69.0443 29.4555 69.0446C29.315 69.0455 29.1745 69.0464 29.0298 69.0473C28.7335 69.0486 28.4372 69.0492 28.1409 69.0492C27.6865 69.0498 27.2323 69.0546 26.7779 69.0596C26.49 69.0604 26.202 69.061 25.9141 69.0612C25.7779 69.0631 25.6417 69.065 25.5014 69.067C25.3752 69.0662 25.2489 69.0653 25.1189 69.0645C25.0078 69.0649 24.8968 69.0653 24.7823 69.0657C24.4961 69 24.4961 69 24.2639 68.7594C24.0295 68.3347 24.053 68.0172 24.1035 67.539C24.2288 67.2488 24.2288 67.2488 24.4961 67.0078C24.8898 66.9267 25.2799 66.9338 25.6805 66.9362C25.8555 66.9339 25.8555 66.9339 26.034 66.9315C26.4074 66.9268 26.7807 66.9256 27.1542 66.9248C27.5262 66.9226 27.8981 66.9197 28.2701 66.9153C28.5015 66.9127 28.733 66.9114 28.9644 66.9117C29.7035 66.9053 30.3297 66.8505 30.9409 66.3852C31.3992 65.7706 31.4657 65.0145 31.5227 64.2639C31.5432 64.0035 31.5432 64.0035 31.5641 63.7378C31.5782 63.5467 31.5923 63.3556 31.6063 63.1645C31.622 62.9603 31.6378 62.7561 31.6537 62.5519C31.6969 61.9918 31.739 61.4316 31.7809 60.8713C31.8264 60.2668 31.8729 59.6623 31.9193 59.0579C31.9995 58.0108 32.079 56.9637 32.1581 55.9165C32.2725 54.4019 32.388 52.8874 32.5038 51.3729C32.6918 48.915 32.8789 46.4569 33.0656 43.9988C33.0767 43.8518 33.0879 43.7047 33.0994 43.5531C33.1106 43.4058 33.1218 43.2586 33.1333 43.1068C33.2919 41.0178 33.4507 38.9288 33.6097 36.8398C33.6265 36.6193 33.6265 36.6193 33.6436 36.3943C33.8301 33.9449 34.0169 31.4956 34.2039 29.0463C34.3193 27.535 34.4343 26.0237 34.5488 24.5124C34.6272 23.4777 34.7059 22.4429 34.7848 21.4082C34.8304 20.8108 34.8758 20.2133 34.9208 19.6158C34.962 19.0693 35.0036 18.5228 35.0455 17.9764C35.0607 17.7783 35.0756 17.5801 35.0904 17.382C35.1105 17.1135 35.1312 16.845 35.1519 16.5765C35.1689 16.3525 35.1689 16.3525 35.1863 16.1239C35.2266 15.7422 35.2266 15.7422 35.3574 15.2109C24.5615 15.2109 13.7656 15.2109 2.64257 15.2109C2.68576 15.3424 2.72894 15.4739 2.77343 15.6094C2.80334 15.8819 2.82712 16.1552 2.8477 16.4287C2.86094 16.6013 2.87418 16.774 2.88782 16.9518C2.90209 17.1445 2.91634 17.3372 2.9306 17.5299C2.94604 17.7338 2.96153 17.9376 2.97706 18.1414C3.01971 18.703 3.06175 19.2646 3.1037 19.8263C3.14901 20.4314 3.1949 21.0366 3.24073 21.6417C3.32013 22.6909 3.3992 23.7401 3.47807 24.7894C3.60278 26.4479 3.72851 28.1063 3.85442 29.7646C3.89746 30.3319 3.94051 30.8991 3.98355 31.4663C3.99968 31.6789 3.99968 31.6789 4.01614 31.8958C4.13864 33.5103 4.26092 35.1247 4.3831 36.7391C4.39986 36.9605 4.39986 36.9605 4.41696 37.1864C4.59793 39.5778 4.77813 41.9693 4.95813 44.3608C5.14292 46.8155 5.32886 49.27 5.51578 51.7245C5.63105 53.2387 5.74538 54.753 5.85849 56.2674C5.93611 57.3055 6.01481 58.3435 6.09437 59.3815C6.14024 59.9803 6.18562 60.5792 6.22968 61.1782C6.27006 61.7269 6.31182 62.2754 6.35468 62.8239C6.36991 63.022 6.38464 63.2202 6.3988 63.4184C6.46384 65.1317 6.46384 65.1317 7.20629 66.6094C7.90608 66.9436 8.64944 66.8935 9.40589 66.8917C9.59622 66.8921 9.59622 66.8921 9.7904 66.8925C10.0654 66.893 10.3403 66.8933 10.6153 66.8933C11.1995 66.8938 11.7837 66.8966 12.3679 66.8993C13.4553 66.9044 14.5427 66.9085 15.6301 66.9082C16.3869 66.9081 17.1436 66.9112 17.9004 66.9165C18.1888 66.9179 18.4773 66.9181 18.7658 66.917C19.1687 66.9158 19.5714 66.9186 19.9743 66.9223C20.0938 66.921 20.2132 66.9196 20.3363 66.9182C21.1403 66.9317 21.1403 66.9317 21.565 67.3151C21.8149 67.8022 21.7601 68.0794 21.6172 68.6015C21.4102 68.8774 21.2979 68.9859 20.9592 69.0509C20.8571 69.0514 20.7549 69.0519 20.6497 69.0524C20.5321 69.0539 20.4145 69.0554 20.2934 69.0569C20.1647 69.0565 20.036 69.0562 19.9035 69.0558C19.7677 69.0569 19.6319 69.058 19.4919 69.0592C19.0415 69.0623 18.5912 69.0624 18.1407 69.0622C17.8276 69.0632 17.5144 69.0642 17.2012 69.0653C16.5437 69.0671 15.8862 69.0673 15.2287 69.0665C14.3881 69.0657 13.5476 69.0698 12.707 69.0752C12.0596 69.0786 11.4121 69.079 10.7647 69.0785C10.455 69.0787 10.1452 69.08 9.83549 69.0824C9.40075 69.0853 8.96621 69.084 8.53147 69.0817C8.34122 69.0843 8.34122 69.0843 8.14713 69.087C7.12356 69.0744 6.26782 68.7835 5.50129 68.0755C4.69178 67.2223 4.43107 66.2462 4.34209 65.0962C4.33217 64.9836 4.32226 64.871 4.31205 64.755C4.27739 64.355 4.24513 63.9549 4.21288 63.5547C4.1859 63.2325 4.15885 62.9104 4.13174 62.5883C4.04314 61.526 3.95768 60.4634 3.87274 59.4008C3.84637 59.0713 3.81991 58.7418 3.79342 58.4123C3.44288 54.0518 3.09951 49.6908 2.75819 45.3296C2.7147 44.7742 2.6712 44.2188 2.62768 43.6634C2.61687 43.5255 2.60606 43.3875 2.59493 43.2454C2.44331 41.3114 2.28915 39.3777 2.1329 37.4442C0.37072 15.6384 0.37072 15.6384 0.402628 7.54878C0.402994 7.40949 0.40336 7.2702 0.403737 7.12668C0.406643 6.24298 0.417143 5.3597 0.433873 4.47616C0.436046 4.31416 0.436046 4.31416 0.438263 4.14888C0.442942 3.8524 0.451099 3.55626 0.460585 3.2599C0.4649 3.09751 0.469214 2.93511 0.473658 2.76779C0.589157 2.09216 0.915167 1.67938 1.40238 1.21992C2.06214 0.901033 2.65822 0.926439 3.38019 0.934095Z" fill="#CC8328"/>
<path d="M21.4592 24.5836C22.601 25.8139 22.4477 27.3112 22.4023 28.8906C22.5663 28.8829 22.7303 28.8752 22.8992 28.8673C23.1152 28.8611 23.3313 28.855 23.5474 28.8491C23.6553 28.8436 23.7633 28.838 23.8745 28.8323C24.6749 28.8159 24.6749 28.8159 25.0957 29.1952C25.348 29.6841 25.294 29.9596 25.1504 30.4844C24.9024 30.8276 24.7724 30.8779 24.3652 31.0156C23.7175 31.0156 23.0697 31.0156 22.4023 31.0156C22.4023 32.7688 22.4023 34.5219 22.4023 36.3281C23.1365 36.3281 23.8706 36.3281 24.627 36.3281C25.2812 36.9922 25.2812 36.9922 25.3395 37.2755C25.3257 37.3628 25.3119 37.4501 25.2976 37.5401C25.2819 37.672 25.2819 37.672 25.2659 37.8067C25.1504 38.0547 25.1504 38.0547 24.4961 38.4531C23.8052 38.4531 23.1142 38.4531 22.4023 38.4531C22.4023 40.2063 22.4023 41.9594 22.4023 43.7656C23.1365 43.7656 23.8706 43.7656 24.627 43.7656C25.1504 44.1641 25.1504 44.1641 25.2531 44.4121C25.2651 44.5001 25.2771 44.5881 25.2894 44.6787C25.3044 44.766 25.3195 44.8534 25.3349 44.9433C25.2812 45.2266 25.2812 45.2266 24.627 45.8906C23.8928 45.8906 23.1587 45.8906 22.4023 45.8906C22.4023 47.6438 22.4023 49.3969 22.4023 51.2031C23.0501 51.2031 23.6979 51.2031 24.3652 51.2031C25.0195 51.4688 25.0195 51.4688 25.1995 51.6929C25.319 52.1418 25.2549 52.4808 25.1504 52.9297C24.9449 53.2048 24.8355 53.3147 24.497 53.3734C24.4004 53.3713 24.3038 53.3692 24.2042 53.367C24.0992 53.3658 23.9942 53.3645 23.886 53.3632C23.777 53.3598 23.6679 53.3565 23.5555 53.353C23.445 53.3512 23.3344 53.3494 23.2205 53.3476C22.9477 53.3429 22.675 53.3358 22.4023 53.3281C22.4069 53.4868 22.4115 53.6455 22.4161 53.8091C22.4726 56.5624 22.4726 56.5624 21.4654 57.6347C20.5738 58.4089 19.6925 58.6191 18.5297 58.5716C17.6382 58.444 16.946 58.0726 16.3256 57.4121C15.6245 56.4512 15.5408 55.4285 15.5593 54.2656C15.5599 54.1317 15.5604 53.9978 15.561 53.8598C15.5632 53.4363 15.5681 53.0129 15.5731 52.5894C15.5751 52.3005 15.5769 52.0116 15.5785 51.7227C15.5828 51.0182 15.5893 50.3138 15.5977 49.6094C15.3682 49.6209 15.3682 49.6209 15.134 49.6327C14.9314 49.639 14.7288 49.645 14.5262 49.6509C14.4256 49.6565 14.325 49.662 14.2213 49.6678C13.6592 49.68 13.4387 49.6595 12.9738 49.3049C12.7188 48.9453 12.7188 48.9453 12.7188 48.4639C12.8425 48.0401 12.8972 47.8693 13.2422 47.6172C13.9455 47.2603 14.8113 47.4844 15.5977 47.4844C15.5977 45.7313 15.5977 43.9781 15.5977 42.1719C14.8635 42.1719 14.1294 42.1719 13.373 42.1719C12.7188 41.5078 12.7188 41.5078 12.637 41.1094C12.7188 40.7109 12.7188 40.7109 13.373 40.0469C14.1072 40.0469 14.8413 40.0469 15.5977 40.0469C15.5977 38.2938 15.5977 36.5406 15.5977 34.7344C14.9067 34.7344 14.2158 34.7344 13.5039 34.7344C12.9805 34.4688 12.9805 34.4688 12.8087 34.2446C12.6771 33.7952 12.7443 33.4598 12.8496 33.0078C13.0551 32.7327 13.1645 32.6229 13.503 32.5642C13.5996 32.5662 13.6962 32.5683 13.7958 32.5705C13.9008 32.5718 14.0058 32.573 14.114 32.5744C14.223 32.5777 14.3321 32.581 14.4445 32.5845C14.6103 32.5872 14.6103 32.5872 14.7795 32.5899C15.0523 32.5946 15.325 32.6018 15.5977 32.6094C15.5968 32.5355 15.5959 32.4616 15.595 32.3855C15.5863 31.612 15.5804 30.8384 15.5761 30.0648C15.5741 29.7767 15.5715 29.4885 15.568 29.2004C15.5632 28.7846 15.561 28.3689 15.5593 27.9532C15.5573 27.8257 15.5553 27.6982 15.5532 27.5669C15.5529 26.3364 15.8074 25.3755 16.6502 24.4715C18.0789 23.1922 20.068 23.3469 21.4592 24.5836ZM17.8223 26.5C17.6096 26.9318 17.672 27.4068 17.6721 27.8813C17.6717 27.9981 17.6712 28.1149 17.6707 28.2353C17.6692 28.629 17.6687 29.0228 17.6682 29.4166C17.6674 29.6979 17.6666 29.9793 17.6656 30.2607C17.6634 31.0269 17.662 31.793 17.6609 32.5592C17.6602 33.0375 17.6594 33.5159 17.6586 33.9943C17.6561 35.4901 17.6543 36.986 17.6532 38.4818C17.6519 40.2101 17.6484 41.9384 17.6432 43.6667C17.6392 45.0015 17.6373 46.3363 17.6368 47.6711C17.6365 48.4688 17.6353 49.2665 17.6321 50.0642C17.629 50.8146 17.6285 51.565 17.6298 52.3155C17.6299 52.591 17.629 52.8665 17.6272 53.142C17.6249 53.5181 17.6259 53.894 17.6276 54.27C17.6261 54.3791 17.6247 54.4882 17.6232 54.6007C17.631 55.2981 17.7591 55.6966 18.2148 56.25C18.6358 56.4636 19.0682 56.4643 19.5234 56.3828C19.8756 56.0939 20.1065 55.8634 20.3086 55.4531C20.3223 55.0802 20.3279 54.7105 20.3279 54.3375C20.3283 54.2207 20.3288 54.1038 20.3293 53.9835C20.3308 53.5897 20.3313 53.196 20.3318 52.8022C20.3326 52.5208 20.3334 52.2394 20.3344 51.9581C20.3366 51.1919 20.338 50.4258 20.3391 49.6596C20.3398 49.1812 20.3406 48.7029 20.3414 48.2245C20.3439 46.7286 20.3457 45.2328 20.3468 43.7369C20.3481 42.0086 20.3516 40.2804 20.3568 38.5521C20.3608 37.2173 20.3627 35.8825 20.3632 34.5477C20.3635 33.75 20.3647 32.9523 20.3679 32.1546C20.371 31.4041 20.3715 30.6537 20.3702 29.9033C20.3701 29.6278 20.371 29.3523 20.3728 29.0768C20.3751 28.7007 20.3741 28.3248 20.3724 27.9488C20.3739 27.8396 20.3753 27.7305 20.3768 27.6181C20.369 26.9207 20.2409 26.5222 19.7852 25.9688C18.9587 25.5494 18.3554 25.8113 17.8223 26.5Z" fill="#CC8328"/>
<path d="M6.5876 8.81733C6.75253 8.81674 6.75253 8.81674 6.92079 8.81614C7.29058 8.81498 7.66036 8.81478 8.03015 8.81459C8.29473 8.81397 8.55931 8.8133 8.82389 8.81259C9.54362 8.81084 10.2633 8.80999 10.9831 8.8094C11.4325 8.80901 11.8819 8.80846 12.3312 8.80787C13.7366 8.80605 15.1419 8.80477 16.5472 8.80426C18.1708 8.80366 19.7944 8.80133 21.4181 8.79748C22.6722 8.79462 23.9264 8.79327 25.1805 8.7931C25.93 8.79296 26.6794 8.79217 27.4289 8.7898C28.1337 8.78762 28.8385 8.78732 29.5433 8.78849C29.8022 8.78859 30.061 8.78801 30.3199 8.7867C30.673 8.78502 31.0259 8.78579 31.379 8.78718C31.5331 8.78557 31.5331 8.78557 31.6902 8.78394C32.3388 8.78991 32.7961 8.8928 33.2636 9.36724C33.3406 10.3204 33.3406 10.3204 33.0673 10.7086C32.6088 11.0623 32.1905 11.0347 31.6375 11.0284C31.469 11.0297 31.469 11.0297 31.2972 11.031C30.9202 11.0331 30.5434 11.0314 30.1664 11.0297C29.8964 11.0304 29.6265 11.0314 29.3565 11.0325C28.6227 11.035 27.889 11.034 27.1552 11.0323C26.388 11.031 25.6209 11.0322 24.8537 11.0331C23.5653 11.0341 22.2769 11.0328 20.9885 11.0302C19.4979 11.0274 18.0074 11.0283 16.5169 11.0312C15.2382 11.0336 13.9595 11.034 12.6808 11.0326C11.9166 11.0317 11.1525 11.0316 10.3883 11.0334C9.66993 11.0349 8.95162 11.0339 8.23327 11.0308C7.9693 11.0301 7.70532 11.0303 7.44134 11.0315C7.08163 11.0329 6.72207 11.0311 6.36237 11.0284C6.2048 11.0302 6.2048 11.0302 6.04405 11.032C5.57452 11.0253 5.31181 11.0014 4.9331 10.708C4.60134 10.239 4.67421 9.93388 4.73624 9.36724C5.17032 8.7169 5.88971 8.81656 6.5876 8.81733Z" fill="#CC8328"/>
</svg>
