<svg viewBox="0 0 570 163" fill="none" xmlns="http://www.w3.org/2000/svg">
                    <path
                        d="M196.606 73.3701V40.8865H210.743C212.207 40.8865 213.55 41.1915 214.77 41.8015C215.99 42.4116 217.042 43.2198 217.926 44.2264C218.841 45.2329 219.543 46.3614 220.031 47.612C220.549 48.8625 220.809 50.1436 220.809 51.4551C220.809 52.8887 220.549 54.2612 220.031 55.5728C219.512 56.8843 218.765 58.0128 217.789 58.9584C216.844 59.9039 215.73 60.5902 214.449 61.0172L222.09 73.3701H216.325L209.279 62.0695H201.73V73.3701H196.606ZM201.73 57.5401H210.698C211.643 57.5401 212.482 57.2656 213.214 56.7165C213.946 56.1675 214.526 55.4355 214.953 54.5205C215.38 53.5749 215.593 52.5532 215.593 51.4551C215.593 50.3266 215.349 49.32 214.861 48.4355C214.373 47.5205 213.733 46.7885 212.939 46.2394C212.177 45.6904 211.338 45.4159 210.423 45.4159H201.73V57.5401ZM236.206 73.8276C234.315 73.8276 232.622 73.5074 231.127 72.8668C229.633 72.1958 228.336 71.2808 227.238 70.1218C226.171 68.9627 225.347 67.6512 224.768 66.1871C224.188 64.6926 223.898 63.1065 223.898 61.429C223.898 59.7514 224.188 58.1653 224.768 56.6708C225.347 55.1762 226.171 53.8647 227.238 52.7362C228.336 51.5771 229.633 50.6773 231.127 50.0368C232.652 49.3658 234.345 49.0303 236.206 49.0303C238.066 49.0303 239.744 49.3658 241.238 50.0368C242.763 50.6773 244.06 51.5771 245.127 52.7362C246.225 53.8647 247.064 55.1762 247.643 56.6708C248.223 58.1653 248.513 59.7514 248.513 61.429C248.513 63.1065 248.223 64.6926 247.643 66.1871C247.064 67.6512 246.225 68.9627 245.127 70.1218C244.06 71.2808 242.763 72.1958 241.238 72.8668C239.744 73.5074 238.066 73.8276 236.206 73.8276ZM229.068 61.4747C229.068 62.9998 229.389 64.3723 230.029 65.5923C230.67 66.8124 231.524 67.7732 232.591 68.4747C233.659 69.1762 234.864 69.527 236.206 69.527C237.517 69.527 238.707 69.1762 239.774 68.4747C240.872 67.7427 241.742 66.7666 242.382 65.5466C243.023 64.2961 243.343 62.9235 243.343 61.429C243.343 59.9039 243.023 58.5314 242.382 57.3113C241.742 56.0913 240.872 55.1305 239.774 54.429C238.707 53.6969 237.517 53.3309 236.206 53.3309C234.864 53.3309 233.659 53.6969 232.591 54.429C231.524 55.161 230.67 56.137 230.029 57.3571C229.389 58.5466 229.068 59.9192 229.068 61.4747ZM263.728 73.8276C261.837 73.8276 260.144 73.5074 258.65 72.8668C257.155 72.1958 255.859 71.2808 254.761 70.1218C253.693 68.9627 252.87 67.6512 252.29 66.1871C251.711 64.6926 251.421 63.1065 251.421 61.429C251.421 59.7514 251.711 58.1653 252.29 56.6708C252.87 55.1762 253.693 53.8647 254.761 52.7362C255.859 51.5771 257.155 50.6773 258.65 50.0368C260.175 49.3658 261.867 49.0303 263.728 49.0303C265.589 49.0303 267.266 49.3658 268.761 50.0368C270.286 50.6773 271.582 51.5771 272.65 52.7362C273.748 53.8647 274.586 55.1762 275.166 56.6708C275.745 58.1653 276.035 59.7514 276.035 61.429C276.035 63.1065 275.745 64.6926 275.166 66.1871C274.586 67.6512 273.748 68.9627 272.65 70.1218C271.582 71.2808 270.286 72.1958 268.761 72.8668C267.266 73.5074 265.589 73.8276 263.728 73.8276ZM256.591 61.4747C256.591 62.9998 256.911 64.3723 257.552 65.5923C258.192 66.8124 259.046 67.7732 260.114 68.4747C261.181 69.1762 262.386 69.527 263.728 69.527C265.04 69.527 266.229 69.1762 267.297 68.4747C268.395 67.7427 269.264 66.7666 269.904 65.5466C270.545 64.2961 270.865 62.9235 270.865 61.429C270.865 59.9039 270.545 58.5314 269.904 57.3113C269.264 56.0913 268.395 55.1305 267.297 54.429C266.229 53.6969 265.04 53.3309 263.728 53.3309C262.386 53.3309 261.181 53.6969 260.114 54.429C259.046 55.161 258.192 56.137 257.552 57.3571C256.911 58.5466 256.591 59.9192 256.591 61.4747ZM293.455 72.1348C293.028 72.3483 292.494 72.5771 291.854 72.8211C291.213 73.0651 290.481 73.2786 289.658 73.4616C288.865 73.6446 288.041 73.7361 287.187 73.7361C286.15 73.7361 285.189 73.5531 284.305 73.1871C283.42 72.8211 282.703 72.2416 282.154 71.4486C281.636 70.625 281.377 69.5727 281.377 68.2917V53.3309H278.22V49.442H281.377V41.5728H286.409V49.442H291.625V53.3309H286.409V66.6904C286.47 67.5139 286.73 68.1239 287.187 68.5205C287.675 68.917 288.27 69.1152 288.971 69.1152C289.673 69.1152 290.344 68.9932 290.985 68.7492C291.625 68.5052 292.098 68.3069 292.403 68.1544L293.455 72.1348ZM307.471 73.8276C305.611 73.8276 303.918 73.5074 302.393 72.8668C300.898 72.1958 299.602 71.296 298.504 70.1675C297.406 69.0085 296.552 67.6969 295.942 66.2329C295.362 64.7383 295.072 63.1523 295.072 61.4747C295.072 59.2176 295.591 57.1588 296.628 55.2982C297.665 53.4072 299.114 51.8974 300.974 50.7688C302.835 49.6098 305.016 49.0303 307.517 49.0303C310.018 49.0303 312.168 49.6098 313.968 50.7688C315.798 51.8974 317.216 53.3919 318.223 55.2525C319.229 57.1131 319.733 59.1109 319.733 61.2459C319.733 61.612 319.717 61.9627 319.687 62.2982C319.656 62.6032 319.626 62.8625 319.595 63.076H300.425C300.517 64.4791 300.898 65.7144 301.569 66.7819C302.271 67.8189 303.155 68.6425 304.223 69.2525C305.29 69.832 306.434 70.1218 307.654 70.1218C308.996 70.1218 310.262 69.7862 311.452 69.1152C312.672 68.4442 313.495 67.5597 313.922 66.4616L318.223 67.6969C317.704 68.856 316.911 69.9082 315.844 70.8538C314.807 71.7688 313.571 72.5008 312.138 73.0499C310.704 73.5684 309.149 73.8276 307.471 73.8276ZM300.288 59.7361H314.746C314.654 58.3636 314.258 57.1588 313.556 56.1218C312.885 55.0542 312.016 54.2307 310.948 53.6512C309.911 53.0412 308.752 52.7362 307.471 52.7362C306.221 52.7362 305.062 53.0412 303.994 53.6512C302.957 54.2307 302.103 55.0542 301.432 56.1218C300.761 57.1588 300.38 58.3636 300.288 59.7361ZM322.328 61.429C322.328 59.1414 322.785 57.0673 323.7 55.2067C324.646 53.3157 325.927 51.8211 327.544 50.7231C329.16 49.5945 331.021 49.0303 333.125 49.0303C334.955 49.0303 336.602 49.503 338.066 50.4486C339.561 51.3941 340.72 52.5684 341.544 53.9714V39.9715H346.576V67.6969C346.576 68.2764 346.683 68.6882 346.897 68.9322C347.11 69.1762 347.461 69.3135 347.949 69.344V73.3701C347.003 73.5226 346.271 73.5989 345.753 73.5989C344.807 73.5989 343.999 73.3244 343.328 72.7753C342.687 72.2263 342.352 71.5706 342.321 70.808L342.276 69.0237C341.361 70.5488 340.125 71.7383 338.57 72.5923C337.014 73.4159 335.398 73.8276 333.72 73.8276C332.073 73.8276 330.548 73.5074 329.145 72.8668C327.772 72.2263 326.568 71.3265 325.531 70.1675C324.524 69.0085 323.731 67.6817 323.151 66.1871C322.602 64.6926 322.328 63.1065 322.328 61.429ZM341.544 64.7688V58.5009C341.208 57.5248 340.659 56.6555 339.897 55.893C339.164 55.1 338.326 54.4747 337.38 54.0172C336.465 53.5597 335.55 53.3309 334.635 53.3309C333.568 53.3309 332.592 53.5597 331.707 54.0172C330.853 54.4747 330.106 55.0847 329.465 55.8473C328.855 56.6098 328.382 57.4791 328.047 58.4551C327.711 59.4311 327.544 60.4529 327.544 61.5205C327.544 62.6185 327.727 63.6555 328.093 64.6316C328.459 65.5771 328.977 66.4311 329.648 67.1937C330.35 67.9257 331.143 68.5052 332.027 68.9322C332.942 69.3287 333.934 69.527 335.001 69.527C335.672 69.527 336.343 69.405 337.014 69.161C337.716 68.917 338.371 68.5815 338.981 68.1544C339.622 67.7274 340.156 67.2242 340.583 66.6446C341.04 66.0651 341.361 65.4398 341.544 64.7688ZM364.272 73.3701V49.442H369.305V73.3701H364.272ZM364.272 45.5074V39.9715H369.305V45.5074H364.272ZM396.81 73.3701H391.778V59.9649C391.778 57.7383 391.412 56.1065 390.68 55.0695C389.978 54.0325 388.926 53.5139 387.523 53.5139C386.547 53.5139 385.571 53.7579 384.595 54.246C383.649 54.734 382.795 55.405 382.033 56.259C381.27 57.0826 380.721 58.0433 380.386 59.1414V73.3701H375.353V49.442H379.928V54.246C380.538 53.1784 381.331 52.2634 382.307 51.5009C383.314 50.7078 384.442 50.0978 385.693 49.6708C386.943 49.2438 388.27 49.0303 389.673 49.0303C391.107 49.0303 392.281 49.2895 393.196 49.8081C394.142 50.3266 394.874 51.0433 395.392 51.9584C395.941 52.8429 396.307 53.8799 396.49 55.0695C396.704 56.2285 396.81 57.4638 396.81 58.7754V73.3701ZM441.91 73.3701V50.2198L432.348 67.7884H429.328L419.721 50.2198V73.3701H414.596V40.8865H420.087L430.838 60.7427L441.59 40.8865H447.08V73.3701H441.91ZM464.115 73.8276C462.223 73.8276 460.531 73.5074 459.036 72.8668C457.542 72.1958 456.245 71.2808 455.147 70.1218C454.08 68.9627 453.256 67.6512 452.677 66.1871C452.097 64.6926 451.807 63.1065 451.807 61.429C451.807 59.7514 452.097 58.1653 452.677 56.6708C453.256 55.1762 454.08 53.8647 455.147 52.7362C456.245 51.5771 457.542 50.6773 459.036 50.0368C460.561 49.3658 462.254 49.0303 464.115 49.0303C465.975 49.0303 467.653 49.3658 469.147 50.0368C470.672 50.6773 471.969 51.5771 473.036 52.7362C474.134 53.8647 474.973 55.1762 475.552 56.6708C476.132 58.1653 476.422 59.7514 476.422 61.429C476.422 63.1065 476.132 64.6926 475.552 66.1871C474.973 67.6512 474.134 68.9627 473.036 70.1218C471.969 71.2808 470.672 72.1958 469.147 72.8668C467.653 73.5074 465.975 73.8276 464.115 73.8276ZM456.977 61.4747C456.977 62.9998 457.298 64.3723 457.938 65.5923C458.579 66.8124 459.433 67.7732 460.5 68.4747C461.568 69.1762 462.773 69.527 464.115 69.527C465.426 69.527 466.616 69.1762 467.683 68.4747C468.781 67.7427 469.65 66.7666 470.291 65.5466C470.932 64.2961 471.252 62.9235 471.252 61.429C471.252 59.9039 470.932 58.5314 470.291 57.3113C469.65 56.0913 468.781 55.1305 467.683 54.429C466.616 53.6969 465.426 53.3309 464.115 53.3309C462.773 53.3309 461.568 53.6969 460.5 54.429C459.433 55.161 458.579 56.137 457.938 57.3571C457.298 58.5466 456.977 59.9192 456.977 61.4747ZM493.842 72.1348C493.415 72.3483 492.881 72.5771 492.24 72.8211C491.6 73.0651 490.868 73.2786 490.044 73.4616C489.251 73.6446 488.428 73.7361 487.574 73.7361C486.537 73.7361 485.576 73.5531 484.691 73.1871C483.807 72.8211 483.09 72.2416 482.541 71.4486C482.022 70.625 481.763 69.5727 481.763 68.2917V53.3309H478.606V49.442H481.763V41.5728H486.796V49.442H492.012V53.3309H486.796V66.6904C486.857 67.5139 487.116 68.1239 487.574 68.5205C488.062 68.917 488.656 69.1152 489.358 69.1152C490.059 69.1152 490.731 68.9932 491.371 68.7492C492.012 68.5052 492.484 68.3069 492.789 68.1544L493.842 72.1348ZM497.327 73.3701V49.442H502.36V73.3701H497.327ZM497.327 45.5074V39.9715H502.36V45.5074H497.327ZM519.159 73.8276C517.268 73.8276 515.576 73.5074 514.081 72.8668C512.586 72.1958 511.29 71.2808 510.192 70.1218C509.125 68.9627 508.301 67.6512 507.722 66.1871C507.142 64.6926 506.852 63.1065 506.852 61.429C506.852 59.7514 507.142 58.1653 507.722 56.6708C508.301 55.1762 509.125 53.8647 510.192 52.7362C511.29 51.5771 512.586 50.6773 514.081 50.0368C515.606 49.3658 517.299 49.0303 519.159 49.0303C521.02 49.0303 522.698 49.3658 524.192 50.0368C525.717 50.6773 527.013 51.5771 528.081 52.7362C529.179 53.8647 530.018 55.1762 530.597 56.6708C531.177 58.1653 531.467 59.7514 531.467 61.429C531.467 63.1065 531.177 64.6926 530.597 66.1871C530.018 67.6512 529.179 68.9627 528.081 70.1218C527.013 71.2808 525.717 72.1958 524.192 72.8668C522.698 73.5074 521.02 73.8276 519.159 73.8276ZM512.022 61.4747C512.022 62.9998 512.342 64.3723 512.983 65.5923C513.623 66.8124 514.477 67.7732 515.545 68.4747C516.613 69.1762 517.817 69.527 519.159 69.527C520.471 69.527 521.66 69.1762 522.728 68.4747C523.826 67.7427 524.695 66.7666 525.336 65.5466C525.976 64.2961 526.297 62.9235 526.297 61.429C526.297 59.9039 525.976 58.5314 525.336 57.3113C524.695 56.0913 523.826 55.1305 522.728 54.429C521.66 53.6969 520.471 53.3309 519.159 53.3309C517.817 53.3309 516.613 53.6969 515.545 54.429C514.477 55.161 513.623 56.137 512.983 57.3571C512.342 58.5466 512.022 59.9192 512.022 61.4747ZM557.388 73.3701H552.355V59.9649C552.355 57.7383 551.989 56.1065 551.257 55.0695C550.555 54.0325 549.503 53.5139 548.1 53.5139C547.124 53.5139 546.148 53.7579 545.172 54.246C544.227 54.734 543.372 55.405 542.61 56.259C541.847 57.0826 541.298 58.0433 540.963 59.1414V73.3701H535.93V49.442H540.505V54.246C541.115 53.1784 541.908 52.2634 542.884 51.5009C543.891 50.7078 545.02 50.0978 546.27 49.6708C547.521 49.2438 548.847 49.0303 550.25 49.0303C551.684 49.0303 552.858 49.2895 553.773 49.8081C554.719 50.3266 555.451 51.0433 555.969 51.9584C556.518 52.8429 556.884 53.8799 557.067 55.0695C557.281 56.2285 557.388 57.4638 557.388 58.7754V73.3701Z"
                        fill="#fff" />
                    <!-- manual therapy -->
                    <path
                        d="M219.427 118.19V96.8725L209.948 113.432H208.326L198.81 96.8725V118.19H196.228V92.0041H198.884L209.1 109.929L219.39 92.0041H222.009V118.19H219.427ZM233.703 112.658C233.703 111.453 234.047 110.42 234.735 109.56C235.424 108.675 236.37 107.998 237.575 107.531C238.805 107.039 240.218 106.794 241.817 106.794C242.751 106.794 243.722 106.867 244.73 107.015C245.738 107.162 246.636 107.384 247.423 107.679V106.056C247.423 104.433 246.943 103.142 245.984 102.183C245.025 101.224 243.697 100.745 242.001 100.745C240.968 100.745 239.948 100.942 238.94 101.335C237.956 101.704 236.924 102.257 235.842 102.995L234.883 101.224C236.137 100.364 237.366 99.7246 238.571 99.3067C239.776 98.8641 241.005 98.6428 242.259 98.6428C244.62 98.6428 246.488 99.3189 247.865 100.671C249.242 102.024 249.93 103.892 249.93 106.277V115.166C249.93 115.51 250.004 115.768 250.152 115.94C250.299 116.088 250.533 116.174 250.852 116.198V118.19C250.582 118.215 250.348 118.239 250.152 118.264C249.955 118.288 249.808 118.288 249.709 118.264C249.094 118.239 248.627 118.042 248.308 117.674C247.988 117.305 247.816 116.911 247.791 116.493L247.754 115.092C246.894 116.198 245.775 117.059 244.398 117.674C243.021 118.264 241.62 118.559 240.194 118.559C238.964 118.559 237.846 118.301 236.838 117.784C235.854 117.243 235.08 116.53 234.514 115.645C233.973 114.735 233.703 113.74 233.703 112.658ZM246.574 114.133C246.845 113.789 247.054 113.457 247.201 113.137C247.349 112.818 247.423 112.535 247.423 112.289V109.486C246.587 109.166 245.714 108.92 244.804 108.748C243.919 108.576 243.021 108.49 242.112 108.49C240.317 108.49 238.866 108.847 237.76 109.56C236.653 110.273 236.1 111.244 236.1 112.473C236.1 113.186 236.284 113.863 236.653 114.502C237.022 115.116 237.563 115.633 238.276 116.051C238.989 116.444 239.825 116.641 240.784 116.641C241.989 116.641 243.107 116.407 244.14 115.94C245.197 115.473 246.009 114.871 246.574 114.133ZM278.879 118.19H276.372V107.457C276.372 105.195 276.04 103.548 275.376 102.515C274.712 101.458 273.667 100.929 272.241 100.929C271.257 100.929 270.286 101.175 269.327 101.667C268.368 102.134 267.52 102.786 266.782 103.622C266.069 104.433 265.553 105.367 265.233 106.425V118.19H262.725V98.9747H265.012V103.327C265.528 102.392 266.205 101.581 267.041 100.893C267.877 100.18 268.823 99.6263 269.88 99.2329C270.938 98.8395 272.032 98.6428 273.163 98.6428C274.22 98.6428 275.118 98.8395 275.855 99.2329C276.593 99.6263 277.183 100.192 277.626 100.929C278.068 101.642 278.388 102.515 278.584 103.548C278.781 104.556 278.879 105.687 278.879 106.941V118.19ZM291.419 110.26V98.9747H293.927V109.818C293.927 112.006 294.296 113.641 295.034 114.723C295.796 115.805 296.915 116.346 298.39 116.346C299.374 116.346 300.32 116.137 301.23 115.719C302.164 115.276 302.988 114.662 303.701 113.875C304.414 113.063 304.955 112.129 305.324 111.072V98.9747H307.832V115.166C307.832 115.51 307.905 115.768 308.053 115.94C308.2 116.088 308.422 116.174 308.717 116.198V118.19C308.422 118.215 308.188 118.227 308.016 118.227C307.844 118.251 307.684 118.264 307.537 118.264C307.045 118.215 306.615 118.018 306.246 117.674C305.902 117.329 305.717 116.911 305.693 116.42L305.619 113.838C304.783 115.313 303.639 116.469 302.189 117.305C300.763 118.141 299.214 118.559 297.542 118.559C295.526 118.559 294.001 117.858 292.968 116.457C291.936 115.055 291.419 112.99 291.419 110.26ZM319.329 112.658C319.329 111.453 319.674 110.42 320.362 109.56C321.051 108.675 321.997 107.998 323.202 107.531C324.431 107.039 325.845 106.794 327.443 106.794C328.378 106.794 329.349 106.867 330.357 107.015C331.365 107.162 332.263 107.384 333.049 107.679V106.056C333.049 104.433 332.57 103.142 331.611 102.183C330.652 101.224 329.324 100.745 327.628 100.745C326.595 100.745 325.575 100.942 324.567 101.335C323.583 101.704 322.55 102.257 321.469 102.995L320.51 101.224C321.764 100.364 322.993 99.7246 324.198 99.3067C325.403 98.8641 326.632 98.6428 327.886 98.6428C330.246 98.6428 332.115 99.3189 333.492 100.671C334.869 102.024 335.557 103.892 335.557 106.277V115.166C335.557 115.51 335.631 115.768 335.779 115.94C335.926 116.088 336.16 116.174 336.479 116.198V118.19C336.209 118.215 335.975 118.239 335.779 118.264C335.582 118.288 335.434 118.288 335.336 118.264C334.721 118.239 334.254 118.042 333.935 117.674C333.615 117.305 333.443 116.911 333.418 116.493L333.381 115.092C332.521 116.198 331.402 117.059 330.025 117.674C328.648 118.264 327.247 118.559 325.821 118.559C324.591 118.559 323.472 118.301 322.464 117.784C321.481 117.243 320.706 116.53 320.141 115.645C319.6 114.735 319.329 113.74 319.329 112.658ZM332.201 114.133C332.472 113.789 332.681 113.457 332.828 113.137C332.976 112.818 333.049 112.535 333.049 112.289V109.486C332.213 109.166 331.341 108.92 330.431 108.748C329.546 108.576 328.648 108.49 327.738 108.49C325.944 108.49 324.493 108.847 323.386 109.56C322.28 110.273 321.727 111.244 321.727 112.473C321.727 113.186 321.911 113.863 322.28 114.502C322.649 115.116 323.19 115.633 323.903 116.051C324.616 116.444 325.452 116.641 326.411 116.641C327.615 116.641 328.734 116.407 329.767 115.94C330.824 115.473 331.636 114.871 332.201 114.133ZM348.463 91.2665H350.971V113.838C350.971 114.797 351.143 115.424 351.487 115.719C351.831 116.014 352.249 116.161 352.741 116.161C353.184 116.161 353.626 116.112 354.069 116.014C354.511 115.916 354.893 115.817 355.212 115.719L355.655 117.747C355.188 117.944 354.61 118.104 353.921 118.227C353.257 118.35 352.68 118.411 352.188 118.411C351.057 118.411 350.147 118.079 349.459 117.415C348.795 116.752 348.463 115.842 348.463 114.686V91.2665ZM399.462 94.2908H390.131V118.19H387.549V94.2908H378.218V92.0041H399.462V94.2908ZM426.398 118.19H423.89V107.457C423.89 105.294 423.509 103.671 422.747 102.589C421.984 101.483 420.89 100.929 419.464 100.929C418.53 100.929 417.596 101.175 416.661 101.667C415.752 102.134 414.94 102.786 414.227 103.622C413.539 104.433 413.047 105.367 412.752 106.425V118.19H410.244V91.2665H412.752V103.327C413.514 101.901 414.571 100.77 415.924 99.9336C417.301 99.0731 418.764 98.6428 420.313 98.6428C421.419 98.6428 422.353 98.8395 423.116 99.2329C423.902 99.6263 424.529 100.204 424.996 100.966C425.488 101.704 425.845 102.577 426.066 103.585C426.287 104.568 426.398 105.687 426.398 106.941V118.19ZM447.421 118.559C446.044 118.559 444.765 118.301 443.585 117.784C442.405 117.243 441.384 116.518 440.524 115.608C439.663 114.674 438.987 113.604 438.495 112.4C438.028 111.195 437.795 109.904 437.795 108.527C437.795 106.732 438.2 105.085 439.012 103.585C439.848 102.085 440.991 100.893 442.442 100.007C443.892 99.0977 445.54 98.6428 447.384 98.6428C449.277 98.6428 450.924 99.0977 452.326 100.007C453.752 100.917 454.871 102.122 455.682 103.622C456.494 105.097 456.899 106.72 456.899 108.49C456.899 108.687 456.899 108.884 456.899 109.08C456.899 109.252 456.887 109.388 456.862 109.486H440.413C440.536 110.863 440.917 112.092 441.557 113.174C442.22 114.231 443.069 115.08 444.101 115.719C445.159 116.334 446.302 116.641 447.531 116.641C448.785 116.641 449.965 116.321 451.072 115.682C452.203 115.043 452.99 114.207 453.432 113.174L455.608 113.764C455.215 114.674 454.613 115.498 453.801 116.235C452.99 116.973 452.031 117.551 450.924 117.969C449.843 118.362 448.675 118.559 447.421 118.559ZM440.339 107.679H454.539C454.44 106.277 454.059 105.048 453.395 103.991C452.756 102.933 451.908 102.11 450.851 101.52C449.818 100.905 448.675 100.598 447.421 100.598C446.167 100.598 445.023 100.905 443.991 101.52C442.958 102.11 442.11 102.946 441.446 104.027C440.807 105.085 440.438 106.302 440.339 107.679ZM477.734 101.188C476.062 101.237 474.587 101.704 473.308 102.589C472.054 103.474 471.169 104.691 470.653 106.24V118.19H468.145V98.9747H470.505V103.585C471.169 102.233 472.042 101.138 473.124 100.302C474.23 99.4665 475.398 98.9993 476.628 98.901C476.873 98.8764 477.082 98.8641 477.255 98.8641C477.451 98.8641 477.611 98.8764 477.734 98.901V101.188ZM486.83 112.658C486.83 111.453 487.174 110.42 487.863 109.56C488.551 108.675 489.498 107.998 490.703 107.531C491.932 107.039 493.346 106.794 494.944 106.794C495.878 106.794 496.85 106.867 497.858 107.015C498.866 107.162 499.763 107.384 500.55 107.679V106.056C500.55 104.433 500.071 103.142 499.112 102.183C498.153 101.224 496.825 100.745 495.129 100.745C494.096 100.745 493.075 100.942 492.067 101.335C491.084 101.704 490.051 102.257 488.969 102.995L488.01 101.224C489.264 100.364 490.494 99.7246 491.699 99.3067C492.903 98.8641 494.133 98.6428 495.387 98.6428C497.747 98.6428 499.616 99.3189 500.993 100.671C502.37 102.024 503.058 103.892 503.058 106.277V115.166C503.058 115.51 503.132 115.768 503.279 115.94C503.427 116.088 503.66 116.174 503.98 116.198V118.19C503.71 118.215 503.476 118.239 503.279 118.264C503.083 118.288 502.935 118.288 502.837 118.264C502.222 118.239 501.755 118.042 501.435 117.674C501.116 117.305 500.943 116.911 500.919 116.493L500.882 115.092C500.021 116.198 498.903 117.059 497.526 117.674C496.149 118.264 494.747 118.559 493.321 118.559C492.092 118.559 490.973 118.301 489.965 117.784C488.982 117.243 488.207 116.53 487.642 115.645C487.101 114.735 486.83 113.74 486.83 112.658ZM499.702 114.133C499.972 113.789 500.181 113.457 500.329 113.137C500.476 112.818 500.55 112.535 500.55 112.289V109.486C499.714 109.166 498.841 108.92 497.931 108.748C497.046 108.576 496.149 108.49 495.239 108.49C493.444 108.49 491.994 108.847 490.887 109.56C489.781 110.273 489.227 111.244 489.227 112.473C489.227 113.186 489.412 113.863 489.781 114.502C490.15 115.116 490.69 115.633 491.403 116.051C492.117 116.444 492.953 116.641 493.911 116.641C495.116 116.641 496.235 116.407 497.268 115.94C498.325 115.473 499.136 114.871 499.702 114.133ZM525.663 118.559C524.065 118.559 522.627 118.141 521.348 117.305C520.094 116.469 519.099 115.436 518.361 114.207V126.046H515.853V98.9747H518.103V102.7C518.865 101.495 519.885 100.524 521.164 99.7861C522.442 99.0239 523.807 98.6428 525.258 98.6428C526.585 98.6428 527.803 98.9255 528.909 99.4911C530.015 100.032 530.974 100.77 531.786 101.704C532.597 102.638 533.224 103.708 533.667 104.913C534.134 106.093 534.367 107.322 534.367 108.601C534.367 110.396 533.999 112.055 533.261 113.58C532.548 115.08 531.54 116.284 530.237 117.194C528.934 118.104 527.409 118.559 525.663 118.559ZM524.963 116.346C526.02 116.346 526.967 116.137 527.803 115.719C528.639 115.276 529.352 114.686 529.942 113.949C530.556 113.211 531.024 112.387 531.343 111.478C531.663 110.543 531.823 109.584 531.823 108.601C531.823 107.568 531.638 106.585 531.269 105.65C530.925 104.716 530.421 103.892 529.757 103.179C529.093 102.466 528.331 101.901 527.471 101.483C526.61 101.065 525.676 100.856 524.668 100.856C524.028 100.856 523.365 100.979 522.676 101.224C521.988 101.47 521.324 101.827 520.684 102.294C520.07 102.737 519.553 103.241 519.135 103.806C518.717 104.372 518.459 104.974 518.361 105.613V111.514C518.754 112.424 519.283 113.248 519.947 113.985C520.611 114.698 521.373 115.276 522.233 115.719C523.119 116.137 524.028 116.346 524.963 116.346ZM546.45 124.091C546.794 124.116 547.126 124.128 547.446 124.128C547.766 124.152 547.999 124.14 548.147 124.091C548.442 124.042 548.725 123.87 548.995 123.575C549.265 123.28 549.585 122.714 549.954 121.878C550.323 121.042 550.839 119.813 551.503 118.19L543.131 98.9747H545.786L552.831 115.608L559.322 98.9747H561.83L551.872 123.759C551.7 124.226 551.441 124.656 551.097 125.05C550.753 125.468 550.323 125.788 549.806 126.009C549.315 126.255 548.7 126.39 547.962 126.414C547.741 126.439 547.507 126.439 547.262 126.414C547.04 126.414 546.77 126.39 546.45 126.341V124.091Z"
                        fill="#527A52" />
                    <!-- logo circle -->
                    <path
                        d="M7.9082 64.3479C15.836 29.9886 46.8372 4.35742 83.8689 4.35742C126.904 4.35742 161.787 38.9734 161.787 81.6657C161.787 118.947 135.184 150.068 99.7907 157.361"
                        stroke="#E59C42" stroke-width="5.00229" stroke-miterlimit="10" stroke-linecap="round" />
                    <!-- logo rm -->
                    <path
                        d="M39.237 103V59.2554H57.9671C59.8976 59.2554 61.6638 59.6661 63.2658 60.4876C64.8677 61.2681 66.2642 62.336 67.4554 63.6915C68.6465 65.0059 69.5707 66.5051 70.2279 68.1892C70.8851 69.8321 71.2137 71.5162 71.2137 73.2413C71.2137 75.254 70.8235 77.164 70.0431 78.9713C69.3037 80.7786 68.2358 82.3189 66.8393 83.5922C65.4838 84.8655 63.8819 85.7486 62.0335 86.2415L72.6308 103H66.3464L56.3652 87.2889H44.7821V103H39.237ZM44.7821 82.3599H58.0287C59.5485 82.3599 60.8629 81.9492 61.9719 81.1277C63.122 80.2651 64.0051 79.1356 64.6212 77.739C65.2784 76.3425 65.607 74.8433 65.607 73.2413C65.607 71.5984 65.2373 70.0991 64.498 68.7437C63.7587 67.3471 62.7934 66.2381 61.6022 65.4166C60.4111 64.5951 59.0967 64.1844 57.6591 64.1844H44.7821V82.3599ZM123.721 103V69.6062L109.304 95.2985H105.915L91.4365 69.6062V103H85.8914V59.2554H91.7445L107.579 87.6586L123.475 59.2554H129.266V103H123.721Z"
                        fill="#fff" />
                </svg>